<?xml version="1.0" encoding="utf-8"?>
<!-- Generator: Adobe Illustrator 26.2.1, SVG Export Plug-In . SVG Version: 6.00 Build 0)  -->
<svg version="1.1" id="Layer_1" xmlns="http://www.w3.org/2000/svg" xmlns:xlink="http://www.w3.org/1999/xlink" x="0px" y="0px"
	 viewBox="0 0 3300 2200" style="enable-background:new 0 0 3300 2200;" xml:space="preserve">
<style type="text/css">
	.st0{fill:#FFFFFF;}
	.st1{fill:none;stroke:#000000;stroke-width:0.5;}
	.st2{font-family:'Helvetica-Bold';}
	.st3{font-size:13px;}
	.st4{font-family:'Helvetica';}
	.st5{fill:none;stroke:#00AEEF;stroke-width:0.5;}
	.st6{fill:#27AAE1;}
	.st7{fill:none;stroke:#27AAE1;stroke-width:0.5;}
	.st8{stroke:#000000;stroke-width:2;stroke-linecap:round;stroke-linejoin:round;stroke-miterlimit:10;}
	.st9{stroke:#000000;stroke-miterlimit:10;}
</style>
<g id="Notes">
	<rect id="artboard" class="st0" width="3300" height="2200"/>
	<line class="st1" x1="213.9" y1="266.3" x2="2986.9" y2="266.3"/>
	<text transform="matrix(1 0 0 1 213.9375 296.2875)" class="st2 st3">Weight/Scale Variations</text>
	<text transform="matrix(1 0 0 1 485.0008 296.2875)" class="st4 st3">Ultralight</text>
	<text transform="matrix(1 0 0 1 794.715 296.2875)" class="st4 st3">Thin</text>
	<text transform="matrix(1 0 0 1 1089.9727 296.2875)" class="st4 st3">Light</text>
	<text transform="matrix(1 0 0 1 1378.0148 296.2875)" class="st4 st3">Regular</text>
	<text transform="matrix(1 0 0 1 1674.3794 296.2875)" class="st4 st3">Medium</text>
	<text transform="matrix(1 0 0 1 1967.1094 296.2875)" class="st4 st3">Semibold</text>
	<text transform="matrix(1 0 0 1 2277.908 296.2875)" class="st4 st3">Bold</text>
	<text transform="matrix(1 0 0 1 2569.2034 296.2875)" class="st4 st3">Heavy</text>
	<text transform="matrix(1 0 0 1 2868.4429 296.2875)" class="st4 st3">Black</text>
	<line class="st1" x1="213.9" y1="1877.3" x2="2986.9" y2="1877.3"/>
	<g transform="matrix(1 0 0 1 263 1933)">
		<path d="M-39.8-24.9c4.3,0,7.9-3.6,7.9-7.9s-3.6-7.9-7.9-7.9s-7.9,3.6-7.9,7.9S-44.1-24.9-39.8-24.9z M-39.8-26.4
			c-3.5,0-6.4-2.8-6.4-6.4c0-3.6,2.8-6.4,6.4-6.4s6.4,2.8,6.4,6.4C-33.4-29.2-36.3-26.4-39.8-26.4z M-43.4-32.8
			c0,0.4,0.3,0.7,0.8,0.7h2.1v2.1c0,0.4,0.3,0.7,0.7,0.7c0.4,0,0.7-0.3,0.7-0.7v-2.1h2.1c0.4,0,0.7-0.3,0.7-0.7
			c0-0.4-0.3-0.7-0.7-0.7h-2.1v-2.1c0-0.4-0.3-0.8-0.7-0.8c-0.4,0-0.7,0.3-0.7,0.8v2.1h-2.1C-43.1-33.5-43.4-33.2-43.4-32.8z"/>
	</g>
	<g transform="matrix(1 0 0 1 281.867 1933)">
		<path d="M-37.4-22.8c5.4,0,10-4.5,10-10c0-5.4-4.5-10-10-10c-5.4,0-10,4.5-10,10C-47.3-27.3-42.8-22.8-37.4-22.8z M-37.4-24.5
			c-4.6,0-8.3-3.7-8.3-8.3s3.7-8.3,8.3-8.3s8.3,3.7,8.3,8.3C-29.1-28.2-32.7-24.5-37.4-24.5z M-41.9-32.8c0,0.5,0.3,0.8,0.8,0.8h2.9
			v2.9c0,0.5,0.3,0.8,0.8,0.8s0.8-0.3,0.8-0.8V-32h2.9c0.5,0,0.8-0.3,0.8-0.8s-0.3-0.8-0.8-0.8h-2.9v-2.9c0-0.5-0.3-0.8-0.8-0.8
			s-0.8,0.3-0.8,0.8v2.9h-2.9C-41.6-33.6-41.9-33.3-41.9-32.8z"/>
	</g>
	<g transform="matrix(1 0 0 1 305.646 1933)">
		<path d="M-34.1-20c7,0,12.7-5.8,12.7-12.7c0-7-5.8-12.7-12.7-12.7c-7,0-12.7,5.8-12.7,12.7S-41-20-34.1-20z M-34.1-21.9
			c-6,0-10.9-4.9-10.9-10.9s4.8-10.9,10.9-10.9c6,0,10.9,4.9,10.9,10.9C-23.2-26.7-28-21.9-34.1-21.9z M-39.9-32.8
			c0,0.5,0.4,0.9,0.9,0.9h3.9v4c0,0.5,0.4,0.9,0.9,0.9s0.9-0.4,0.9-0.9v-4h4c0.6,0,1-0.3,1-0.9c0-0.5-0.4-0.9-0.9-0.9h-4v-3.9
			c0-0.5-0.4-0.9-0.9-0.9s-0.9,0.4-0.9,0.9v3.9h-3.9C-39.5-33.7-39.9-33.3-39.9-32.8z"/>
	</g>
	<text transform="matrix(1 0 0 1 213.9375 1927.2875)" class="st2 st3">Design Variations</text>
	<text transform="matrix(1 0 0 1 213.9375 1945.2875)" class="st4 st3">Symbols are supported in up to nine weights and three scales.</text>
	<text transform="matrix(1 0 0 1 213.9375 1963.2875)" class="st4 st3">For optimal layout with text and other symbols, vertically align</text>
	<text transform="matrix(1 0 0 1 213.9375 1981.2875)" class="st4 st3">symbols with the adjacent text.</text>
	<line class="st5" x1="726.9" y1="1893.3" x2="726.9" y2="1907.3"/>
	<g transform="matrix(1 0 0 1 776 1933)">
		<path d="M-45.8-25.6c0.5,0,0.8-0.2,1-0.7l1.3-3.4h5.8l1.3,3.4c0.2,0.5,0.4,0.7,0.9,0.7s0.8-0.3,0.8-0.8c0-0.2,0-0.3-0.1-0.5
			l-4.6-12.2c-0.2-0.6-0.6-0.9-1.2-0.9c-0.6,0-1,0.3-1.2,0.9l-4.6,12.2c-0.1,0.2-0.1,0.4-0.1,0.5C-46.6-25.9-46.3-25.6-45.8-25.6z
			 M-43.1-31.2l2.4-6.6l0,0l2.4,6.6C-38.3-31.2-43.1-31.2-43.1-31.2z"/>
	</g>
	<line class="st5" x1="744.1" y1="1893.3" x2="744.1" y2="1907.3"/>
	<text transform="matrix(1 0 0 1 726.9375 1927.2875)" class="st2 st3">Margins</text>
	<text transform="matrix(1 0 0 1 726.9375 1945.2875)" class="st4 st3">Leading and trailing margins on the left and right side of each symbol</text>
	<text transform="matrix(1 0 0 1 726.9375 1963.2875)" class="st4 st3">can be adjusted by modifying the x-location of the margin guidelines.</text>
	<text transform="matrix(1 0 0 1 726.9375 1981.2875)" class="st4 st3">Modifications are automatically applied proportionally to all</text>
	<text transform="matrix(1 0 0 1 726.9375 1999.2875)" class="st4 st3">scales and weights.</text>
	<g transform="matrix(1 0 0 1 1289 1933)">
		<path d="M-46.2-23.8l1.7,1.7c0.9,0.9,1.8,0.8,2.8-0.2l10.6-11.8l-1-1l-10.5,11.7c-0.4,0.4-0.7,0.5-1.2,0l-1.2-1.2
			c-0.5-0.5-0.4-0.8,0-1.2l11.6-10.7l-1-1L-46-26.6C-47-25.7-47.1-24.7-46.2-23.8z M-39.8-42c-0.4,0.4-0.4,1-0.2,1.4
			c0.2,0.4,0.7,0.6,1.3,0.4c1.5-0.3,3-0.4,4.4,0.5l-0.6,1.5c-0.3,0.8-0.2,1.4,0.4,2l2.3,2.3c0.5,0.4,0.9,0.4,1.5,0.3l1-0.1L-29-33
			v0.6c0,0.5,0.1,0.9,0.6,1.4l0.8,0.7c0.5,0.5,1.1,0.5,1.6,0l2.9-2.9c0.5-0.5,0.4-1.1,0-1.5l-0.9-0.9c-0.5-0.5-0.9-0.6-1.4-0.6H-26
			l-0.6-0.6l0.3-1.1c0.1-0.6,0-1-0.6-1.6l-2.2-2.2C-32.5-45-36.9-44.9-39.8-42z M-38.3-41.7c2.4-1.8,5.7-1.5,7.9,0.8l2.4,2.4
			c0.3,0.2,0.3,0.4,0.3,0.8l-0.3,1.5l1.5,1.5l1-0.1c0.3,0,0.3,0,0.5,0.2l0.6,0.6l-2.4,2.4l-0.6-0.6c-0.3-0.2-0.3-0.3-0.3-0.5l0.1-1
			l-1.5-1.5l-1.5,0.3c-0.3,0.1-0.5,0-0.7-0.2l-2-2c-0.3-0.2-0.3-0.4-0.1-0.8l0.9-2.1c-1.6-1.5-3.6-2.1-5.6-1.5
			C-38.4-41.4-38.4-41.6-38.3-41.7z"/>
	</g>
	<text transform="matrix(1 0 0 1 1239.9375 1927.2875)" class="st2 st3">Exporting</text>
	<text transform="matrix(1 0 0 1 1239.9375 1945.2875)" class="st4 st3">Symbols should be outlined when exporting to ensure the</text>
	<text transform="matrix(1 0 0 1 1239.9375 1963.2875)" class="st4 st3">design is preserved when submitting to Xcode.</text>
	<text id="template-version" transform="matrix(1 0 0 1 2903.3516 1907.2875)" class="st4 st3">Template v.4.0</text>
	<text transform="matrix(1 0 0 1 2816.395 1925.2875)" class="st4 st3">Requires Xcode 14 or greater</text>
	<text id="descriptive-name" transform="matrix(1 0 0 1 2767.9878 1943.2875)" class="st4 st3">Generated from custom.123.rectangle</text>
	<text transform="matrix(1 0 0 1 2863.3486 1961.2875)" class="st4 st3">Typeset at 100 points</text>
	<text transform="matrix(1 0 0 1 213.9375 700.2875)" class="st4 st3">Small</text>
	<text transform="matrix(1 0 0 1 213.9375 1130.2876)" class="st4 st3">Medium</text>
	<text transform="matrix(1 0 0 1 213.9375 1560.2876)" class="st4 st3">Large</text>
</g>
<g id="Guides">
	<g id="H-reference" transform="matrix(1 0 0 1 339 696)">
		<path class="st6" d="M1,0h2.6l25.7-67.1H30v-3.3h-1.9L1,0z M11.7-24.5H47l-0.8-2.2H12.4L11.7-24.5z M55.1,0h2.6L30.6-70.5h-1.2
			v3.3L55.1,0z"/>
	</g>
	<line id="Baseline-S" class="st7" x1="263" y1="696" x2="3036" y2="696"/>
	<line id="Capline-S" class="st7" x1="263" y1="625.5" x2="3036" y2="625.5"/>
	<g id="H-reference_00000160163758101537516730000018309660855543109544_" transform="matrix(1 0 0 1 339 1126)">
		<path class="st6" d="M1,0h2.6l25.7-67.1H30v-3.3h-1.9L1,0z M11.7-24.5H47l-0.8-2.2H12.4L11.7-24.5z M55.1,0h2.6L30.6-70.5h-1.2
			v3.3L55.1,0z"/>
	</g>
	<line id="Baseline-M" class="st7" x1="263" y1="1126" x2="3036" y2="1126"/>
	<line id="Capline-M" class="st7" x1="263" y1="1055.5" x2="3036" y2="1055.5"/>
	<g id="H-reference_00000042723746829286404090000009492006706647266193_" transform="matrix(1 0 0 1 339 1556)">
		<path class="st6" d="M1,0h2.6l25.7-67.1H30v-3.3h-1.9L1,0z M11.7-24.5H47l-0.8-2.2H12.4L11.7-24.5z M55.1,0h2.6L30.6-70.5h-1.2
			v3.3L55.1,0z"/>
	</g>
	<line id="Baseline-L" class="st7" x1="263" y1="1556" x2="3036" y2="1556"/>
	<line id="Capline-L" class="st7" x1="263" y1="1485.5" x2="3036" y2="1485.5"/>
	<line id="left-margin-Ultralight-S" class="st5" x1="505.7" y1="600.8" x2="505.7" y2="720.1"/>
	<line id="right-margin-Ultralight-S" class="st5" x1="613.7" y1="600.8" x2="613.7" y2="720.1"/>
	<line id="left-margin-Regular-S" class="st5" x1="1394.8" y1="600.8" x2="1394.8" y2="720.1"/>
	<line id="right-margin-Regular-S" class="st5" x1="1504.9" y1="600.8" x2="1504.9" y2="720.1"/>
	<line id="left-margin-Black-S" class="st5" x1="2877.4" y1="600.8" x2="2877.4" y2="720.1"/>
	<line id="right-margin-Black-S" class="st5" x1="2989.4" y1="600.8" x2="2989.4" y2="720.1"/>
</g>
<g id="Symbols">
	<g id="Black-S" transform="matrix(1 0 0 1 2877.35 696)">
		<path class="st8" d="M73.1-39.8c0,5.1-4.2,9.4-9.4,9.4h-4.5v5.5h13.9v5.5H39.8v-5.5h13.9v-5.5h-4.5c-5.1,0-9.4-4.2-9.4-9.4v-11
			h5.5v10.1c0,2.6,2.1,4.7,4.7,4.7h3.6v-16.6h5.5V-36h3.6c2.6,0,4.7-2.1,4.7-4.7v-10.1h5.5v11C72.9-39.8,73.1-39.8,73.1-39.8z"/>
		<path d="M25,2.9h62.1c9.6,0,15.2-5.7,15.2-15.2v-45.8c0-9.6-5.7-15.2-15.2-15.2H25c-9.6,0-15.2,5.7-15.2,15.2v45.8
			C9.8-2.7,15.4,2.9,25,2.9z M27.2-11.2c-2.2,0-3.3-0.9-3.3-3.3v-41.3c0-2.4,1.1-3.3,3.3-3.3h57.6c2.2,0,3.3,0.9,3.3,3.3v41.3
			c0,2.4-1.1,3.3-3.3,3.3H27.2z"/>
	</g>
	<g id="Regular-S" transform="matrix(1 0 0 1 1394.79 696)">
		<path class="st9" d="M71.7-39.2c0,5.1-4.2,9.4-9.4,9.4h-4.5v5.5h13.9v5.5H38.4v-5.5h13.9v-5.5h-4.5c-5.1,0-9.4-4.2-9.4-9.4v-11H44
			v10.1c0,2.6,2.1,4.7,4.7,4.7h3.6V-52h5.5v16.6h3.6c2.6,0,4.7-2.1,4.7-4.7v-10.1h5.5L71.7-39.2L71.7-39.2z"/>
		<path d="M22.2,0.4h65.7c8.3,0,12.5-4.1,12.5-12.3v-46.6c0-8.2-4.1-12.3-12.5-12.3H22.2c-8.3,0-12.5,4.1-12.5,12.3v46.6
			C9.8-3.7,13.9,0.4,22.2,0.4z M22.3-6.7c-3.5,0-5.5-1.9-5.5-5.6v-45.9c0-3.7,2-5.6,5.5-5.6h65.5c3.5,0,5.5,1.9,5.5,5.6v45.9
			c0,3.7-2,5.6-5.5,5.6C87.8-6.7,22.3-6.7,22.3-6.7z"/>
	</g>
	<g id="Ultralight-S" transform="matrix(1 0 0 1 505.702 696)">
		<path d="M38.7-19.2v-3.5h12.9c0.6,0,1-0.4,1-1v-5.5c0-0.6-0.4-1-1-1h-4.5c-4.6,0-8.4-3.8-8.4-8.4v-10h3.5v9.1
			c0,3.1,2.5,5.7,5.7,5.7h3.6c0.6,0,1-0.4,1-1v-15.6H56v15.6c0,0.6,0.4,1,1,1h3.6c3.1,0,5.7-2.5,5.7-5.7v-9.1H70v10
			c0,4.6-3.8,8.4-8.4,8.4h-4.5c-0.6,0-1,0.4-1,1v5.5c0,0.6,0.4,1,1,1H70v3.5C70-19.2,38.7-19.2,38.7-19.2z"/>
		<path d="M19.8-1.7h68.5c6.5,0,10-3.6,10-10v-47.2c0-6.4-3.5-10-10-10H19.8c-6.5,0-10,3.5-10,10v47.2C9.8-5.1,13.2-1.7,19.8-1.7z
			 M19.9-3.9c-5.2,0-7.9-2.7-7.9-7.9v-47c0-5.2,2.7-7.9,7.9-7.9h68.3c5,0,7.9,2.7,7.9,7.9v47c0,5.2-2.9,7.9-7.9,7.9
			C88.2-3.9,19.9-3.9,19.9-3.9z"/>
	</g>
</g>
</svg>
