<?xml version="1.0" encoding="UTF-8"?>
<!--Generator: Apple Native CoreSVG 232.5-->
<!DOCTYPE svg
PUBLIC "-//W3C//DTD SVG 1.1//EN"
       "http://www.w3.org/Graphics/SVG/1.1/DTD/svg11.dtd">
<svg version="1.1" xmlns="http://www.w3.org/2000/svg" xmlns:xlink="http://www.w3.org/1999/xlink" width="3300" height="2200">
 <g id="Notes">
  <rect height="2200" id="artboard" style="fill:white;opacity:1" width="3300" x="0" y="0"/>
  <line style="fill:none;stroke:black;opacity:1;stroke-width:0.5;" x1="263" x2="3036" y1="292" y2="292"/>
  <text style="stroke:none;fill:black;font-family:sans-serif;font-size:13;font-weight:bold;" transform="matrix(1 0 0 1 263 322)">Weight/Scale Variations</text>
  <text style="stroke:none;fill:black;font-family:sans-serif;font-size:13;text-anchor:middle;" transform="matrix(1 0 0 1 559.711 322)">Ultralight</text>
  <text style="stroke:none;fill:black;font-family:sans-serif;font-size:13;text-anchor:middle;" transform="matrix(1 0 0 1 856.422 322)">Thin</text>
  <text style="stroke:none;fill:black;font-family:sans-serif;font-size:13;text-anchor:middle;" transform="matrix(1 0 0 1 1153.13 322)">Light</text>
  <text style="stroke:none;fill:black;font-family:sans-serif;font-size:13;text-anchor:middle;" transform="matrix(1 0 0 1 1449.84 322)">Regular</text>
  <text style="stroke:none;fill:black;font-family:sans-serif;font-size:13;text-anchor:middle;" transform="matrix(1 0 0 1 1746.56 322)">Medium</text>
  <text style="stroke:none;fill:black;font-family:sans-serif;font-size:13;text-anchor:middle;" transform="matrix(1 0 0 1 2043.27 322)">Semibold</text>
  <text style="stroke:none;fill:black;font-family:sans-serif;font-size:13;text-anchor:middle;" transform="matrix(1 0 0 1 2339.98 322)">Bold</text>
  <text style="stroke:none;fill:black;font-family:sans-serif;font-size:13;text-anchor:middle;" transform="matrix(1 0 0 1 2636.69 322)">Heavy</text>
  <text style="stroke:none;fill:black;font-family:sans-serif;font-size:13;text-anchor:middle;" transform="matrix(1 0 0 1 2933.4 322)">Black</text>
  <line style="fill:none;stroke:black;opacity:1;stroke-width:0.5;" x1="263" x2="3036" y1="1903" y2="1903"/>
  <g transform="matrix(0.2 0 0 0.2 263 1933)">
   <path d="m46.2402 4.15039c21.5332 0 39.4531-17.8711 39.4531-39.4043s-17.9688-39.4043-39.502-39.4043c-21.4844 0-39.3555 17.8711-39.3555 39.4043s17.9199 39.4043 39.4043 39.4043Zm0-7.42188c-17.7246 0-31.8848-14.209-31.8848-31.9824s14.1113-31.9824 31.8359-31.9824c17.7734 0 32.0312 14.209 32.0312 31.9824s-14.209 31.9824-31.9824 31.9824Zm-17.9688-31.9824c0 2.14844 1.51367 3.61328 3.75977 3.61328h10.498v10.5957c0 2.19727 1.46484 3.71094 3.61328 3.71094 2.24609 0 3.71094-1.51367 3.71094-3.71094v-10.5957h10.5957c2.19727 0 3.71094-1.46484 3.71094-3.61328 0-2.19727-1.51367-3.71094-3.71094-3.71094h-10.5957v-10.5469c0-2.24609-1.46484-3.75977-3.71094-3.75977-2.14844 0-3.61328 1.51367-3.61328 3.75977v10.5469h-10.498c-2.24609 0-3.75977 1.51367-3.75977 3.71094Z"/>
  </g>
  <g transform="matrix(0.2 0 0 0.2 281.506 1933)">
   <path d="m58.5449 14.5508c27.2461 0 49.8047-22.6074 49.8047-49.8047 0-27.2461-22.6074-49.8047-49.8535-49.8047-27.1973 0-49.7559 22.5586-49.7559 49.8047 0 27.1973 22.6074 49.8047 49.8047 49.8047Zm0-8.30078c-23.0469 0-41.4551-18.457-41.4551-41.5039s18.3594-41.5039 41.4062-41.5039 41.5527 18.457 41.5527 41.5039-18.457 41.5039-41.5039 41.5039Zm-22.6562-41.5039c0 2.39258 1.66016 4.00391 4.15039 4.00391h14.3555v14.4043c0 2.44141 1.66016 4.15039 4.05273 4.15039 2.44141 0 4.15039-1.66016 4.15039-4.15039v-14.4043h14.4043c2.44141 0 4.15039-1.61133 4.15039-4.00391 0-2.44141-1.70898-4.15039-4.15039-4.15039h-14.4043v-14.3555c0-2.49023-1.70898-4.19922-4.15039-4.19922-2.39258 0-4.05273 1.70898-4.05273 4.19922v14.3555h-14.3555c-2.49023 0-4.15039 1.70898-4.15039 4.15039Z"/>
  </g>
  <g transform="matrix(0.2 0 0 0.2 304.924 1933)">
   <path d="m74.8535 28.3203c34.8145 0 63.623-28.8086 63.623-63.5742 0-34.8145-28.8574-63.623-63.6719-63.623-34.7656 0-63.5254 28.8086-63.5254 63.623 0 34.7656 28.8086 63.5742 63.5742 63.5742Zm0-9.08203c-30.1758 0-54.4434-24.3164-54.4434-54.4922 0-30.2246 24.2188-54.4922 54.3945-54.4922 30.2246 0 54.541 24.2676 54.541 54.4922 0 30.1758-24.2676 54.4922-54.4922 54.4922Zm-28.8574-54.4922c0 2.58789 1.85547 4.39453 4.58984 4.39453h19.7266v19.7754c0 2.68555 1.85547 4.58984 4.44336 4.58984 2.68555 0 4.54102-1.85547 4.54102-4.58984v-19.7754h19.7754c2.68555 0 4.58984-1.80664 4.58984-4.39453 0-2.73438-1.85547-4.58984-4.58984-4.58984h-19.7754v-19.7266c0-2.73438-1.85547-4.63867-4.54102-4.63867-2.58789 0-4.44336 1.9043-4.44336 4.63867v19.7266h-19.7266c-2.73438 0-4.58984 1.85547-4.58984 4.58984Z"/>
  </g>
  <text style="stroke:none;fill:black;font-family:sans-serif;font-size:13;font-weight:bold;" transform="matrix(1 0 0 1 263 1953)">Design Variations</text>
  <text style="stroke:none;fill:black;font-family:sans-serif;font-size:13;" transform="matrix(1 0 0 1 263 1971)">Symbols are supported in up to nine weights and three scales.</text>
  <text style="stroke:none;fill:black;font-family:sans-serif;font-size:13;" transform="matrix(1 0 0 1 263 1989)">For optimal layout with text and other symbols, vertically align</text>
  <text style="stroke:none;fill:black;font-family:sans-serif;font-size:13;" transform="matrix(1 0 0 1 263 2007)">symbols with the adjacent text.</text>
  <line style="fill:none;stroke:#00AEEF;stroke-width:0.5;opacity:1.0;" x1="776" x2="776" y1="1919" y2="1933"/>
  <g transform="matrix(0.2 0 0 0.2 776 1933)">
   <path d="m16.5527 0.78125c2.58789 0 3.85742-0.976562 4.78516-3.71094l6.29883-17.2363h28.8086l6.29883 17.2363c0.927734 2.73438 2.19727 3.71094 4.73633 3.71094 2.58789 0 4.24805-1.5625 4.24805-4.00391 0-0.830078-0.146484-1.61133-0.537109-2.63672l-22.9004-60.9863c-1.12305-2.97852-3.125-4.49219-6.25-4.49219-3.02734 0-5.07812 1.46484-6.15234 4.44336l-22.9004 61.084c-0.390625 1.02539-0.537109 1.80664-0.537109 2.63672 0 2.44141 1.5625 3.95508 4.10156 3.95508Zm13.4766-28.3691 11.8652-32.8613h0.244141l11.8652 32.8613Z"/>
  </g>
  <line style="fill:none;stroke:#00AEEF;stroke-width:0.5;opacity:1.0;" x1="792.836" x2="792.836" y1="1919" y2="1933"/>
  <text style="stroke:none;fill:black;font-family:sans-serif;font-size:13;font-weight:bold;" transform="matrix(1 0 0 1 776 1953)">Margins</text>
  <text style="stroke:none;fill:black;font-family:sans-serif;font-size:13;" transform="matrix(1 0 0 1 776 1971)">Leading and trailing margins on the left and right side of each symbol</text>
  <text style="stroke:none;fill:black;font-family:sans-serif;font-size:13;" transform="matrix(1 0 0 1 776 1989)">can be adjusted by modifying the x-location of the margin guidelines.</text>
  <text style="stroke:none;fill:black;font-family:sans-serif;font-size:13;" transform="matrix(1 0 0 1 776 2007)">Modifications are automatically applied proportionally to all</text>
  <text style="stroke:none;fill:black;font-family:sans-serif;font-size:13;" transform="matrix(1 0 0 1 776 2025)">scales and weights.</text>
  <g transform="matrix(0.2 0 0 0.2 1289 1933)">
   <path d="m14.209 9.32617 8.49609 8.54492c4.29688 4.3457 9.22852 4.05273 13.8672-1.07422l53.4668-58.9355-4.83398-4.88281-53.0762 58.3984c-1.75781 2.00195-3.41797 2.49023-5.76172 0.146484l-5.85938-5.81055c-2.34375-2.29492-1.80664-4.00391 0.195312-5.81055l57.373-54.0039-4.88281-4.83398-57.959 54.4434c-4.93164 4.58984-5.32227 9.47266-1.02539 13.8184Zm32.0801-90.9668c-2.09961 2.05078-2.24609 4.93164-1.07422 6.88477 1.17188 1.80664 3.4668 2.97852 6.68945 2.14844 7.32422-1.70898 14.9414-2.00195 22.0703 2.68555l-2.92969 7.27539c-1.70898 4.15039-0.830078 7.08008 1.85547 9.81445l11.4746 11.5723c2.44141 2.44141 4.49219 2.53906 7.32422 2.05078l5.32227-0.976562 3.32031 3.36914-0.195312 2.7832c-0.195312 2.49023 0.439453 4.39453 2.88086 6.78711l3.80859 3.71094c2.39258 2.39258 5.46875 2.53906 7.8125 0.195312l14.5508-14.5996c2.34375-2.34375 2.24609-5.32227-0.146484-7.71484l-3.85742-3.80859c-2.39258-2.39258-4.24805-3.17383-6.64062-2.97852l-2.88086 0.244141-3.22266-3.17383 1.2207-5.61523c0.634766-2.83203-0.146484-5.0293-3.07617-7.95898l-10.9863-10.9375c-16.6992-16.6016-38.8672-16.2109-53.3203-1.75781Zm7.4707 1.85547c12.1582-8.88672 28.6133-7.37305 39.7461 3.75977l12.1582 12.0605c1.17188 1.17188 1.36719 2.09961 1.02539 3.80859l-1.61133 7.42188 7.51953 7.42188 4.93164-0.292969c1.26953-0.0488281 1.66016 0.0488281 2.63672 1.02539l2.88086 2.88086-12.207 12.207-2.88086-2.88086c-0.976562-0.976562-1.12305-1.36719-1.07422-2.68555l0.341797-4.88281-7.4707-7.42188-7.61719 1.26953c-1.61133 0.341797-2.34375 0.195312-3.56445-0.976562l-10.0098-10.0098c-1.26953-1.17188-1.41602-2.00195-0.634766-3.85742l4.39453-10.4492c-7.8125-7.27539-17.9688-10.4004-28.125-7.42188-0.78125 0.195312-1.07422-0.439453-0.439453-0.976562Z"/>
  </g>
  <text style="stroke:none;fill:black;font-family:sans-serif;font-size:13;font-weight:bold;" transform="matrix(1 0 0 1 1289 1953)">Exporting</text>
  <text style="stroke:none;fill:black;font-family:sans-serif;font-size:13;" transform="matrix(1 0 0 1 1289 1971)">Symbols should be outlined when exporting to ensure the</text>
  <text style="stroke:none;fill:black;font-family:sans-serif;font-size:13;" transform="matrix(1 0 0 1 1289 1989)">design is preserved when submitting to Xcode.</text>
  <text id="template-version" style="stroke:none;fill:black;font-family:sans-serif;font-size:13;text-anchor:end;" transform="matrix(1 0 0 1 3036 1933)">Template v.2.0</text>
  <text style="stroke:none;fill:black;font-family:sans-serif;font-size:13;text-anchor:end;" transform="matrix(1 0 0 1 3036 1951)">Requires Xcode 12 or greater</text>
  <text id="descriptive-name" style="stroke:none;fill:black;font-family:sans-serif;font-size:13;text-anchor:end;" transform="matrix(1 0 0 1 3036 1969)">Generated from chevron.left.circle.fill</text>
  <text style="stroke:none;fill:black;font-family:sans-serif;font-size:13;text-anchor:end;" transform="matrix(1 0 0 1 3036 1987)">Typeset at 100.0 points</text>
  <text style="stroke:none;fill:black;font-family:sans-serif;font-size:13;" transform="matrix(1 0 0 1 263 726)">Small</text>
  <text style="stroke:none;fill:black;font-family:sans-serif;font-size:13;" transform="matrix(1 0 0 1 263 1156)">Medium</text>
  <text style="stroke:none;fill:black;font-family:sans-serif;font-size:13;" transform="matrix(1 0 0 1 263 1586)">Large</text>
 </g>
 <g id="Guides">
  <g id="H-reference" style="fill:#27AAE1;stroke:none;" transform="matrix(1 0 0 1 339 696)">
   <path d="M0.993654 0L3.63775 0L29.3281-67.1323L30.0303-67.1323L30.0303-70.459L28.1226-70.459ZM11.6885-24.4799L46.9815-24.4799L46.2315-26.7285L12.4385-26.7285ZM55.1196 0L57.7637 0L30.6382-70.459L29.4326-70.459L29.4326-67.1323Z"/>
  </g>
  <line id="Baseline-S" style="fill:none;stroke:#27AAE1;opacity:1;stroke-width:0.5;" x1="263" x2="3036" y1="696" y2="696"/>
  <line id="Capline-S" style="fill:none;stroke:#27AAE1;opacity:1;stroke-width:0.5;" x1="263" x2="3036" y1="625.541" y2="625.541"/>
  <g id="H-reference" style="fill:#27AAE1;stroke:none;" transform="matrix(1 0 0 1 339 1126)">
   <path d="M0.993654 0L3.63775 0L29.3281-67.1323L30.0303-67.1323L30.0303-70.459L28.1226-70.459ZM11.6885-24.4799L46.9815-24.4799L46.2315-26.7285L12.4385-26.7285ZM55.1196 0L57.7637 0L30.6382-70.459L29.4326-70.459L29.4326-67.1323Z"/>
  </g>
  <line id="Baseline-M" style="fill:none;stroke:#27AAE1;opacity:1;stroke-width:0.5;" x1="263" x2="3036" y1="1126" y2="1126"/>
  <line id="Capline-M" style="fill:none;stroke:#27AAE1;opacity:1;stroke-width:0.5;" x1="263" x2="3036" y1="1055.54" y2="1055.54"/>
  <g id="H-reference" style="fill:#27AAE1;stroke:none;" transform="matrix(1 0 0 1 339 1556)">
   <path d="M0.993654 0L3.63775 0L29.3281-67.1323L30.0303-67.1323L30.0303-70.459L28.1226-70.459ZM11.6885-24.4799L46.9815-24.4799L46.2315-26.7285L12.4385-26.7285ZM55.1196 0L57.7637 0L30.6382-70.459L29.4326-70.459L29.4326-67.1323Z"/>
  </g>
  <line id="Baseline-L" style="fill:none;stroke:#27AAE1;opacity:1;stroke-width:0.5;" x1="263" x2="3036" y1="1556" y2="1556"/>
  <line id="Capline-L" style="fill:none;stroke:#27AAE1;opacity:1;stroke-width:0.5;" x1="263" x2="3036" y1="1485.54" y2="1485.54"/>
  <line id="left-margin" style="fill:none;stroke:#00AEEF;stroke-width:0.5;opacity:1.0;" x1="1391.32" x2="1391.32" y1="1030.79" y2="1150.12"/>
  <line id="right-margin" style="fill:none;stroke:#00AEEF;stroke-width:0.5;opacity:1.0;" x1="1508.37" x2="1508.37" y1="1030.79" y2="1150.12"/>
 </g>
 <g id="Symbols">
  <g id="Black-L" transform="matrix(1 0 0 1 2854.19 1556)">
   <path d="M79.1958 32.7257C116.56 32.7257 147.154 2.15259 147.154-35.2113C147.154-72.5752 116.539-103.148 79.175-103.148C41.8307-103.148 11.2588-72.5752 11.2588-35.2113C11.2588 2.15259 41.8515 32.7257 79.1958 32.7257ZM92.8955-2.83018C90.3045-0.297593 84.8741-0.336834 82.0846-2.93023L56.9609-26.3831C51.9889-31.0382 51.9877-39.2671 56.9609-43.9443L82.0846-67.3179C85.1701-70.2449 89.832-70.109 92.6995-67.4972C95.9202-64.5529 95.9399-59.4161 92.8567-56.4706L69.9457-35.1929L92.8567-13.8359C95.8618-10.9697 96.1139-6.08852 92.8955-2.83018Z"/>
  </g>
  <g id="Heavy-L" transform="matrix(1 0 0 1 2558.42 1556)">
   <path d="M78.2532 31.7694C115.056 31.7694 145.278 1.57794 145.278-35.2251C145.278-72.0281 115.026-102.22 78.2231-102.22C41.4446-102.22 11.2588-72.0281 11.2588-35.2251C11.2588 1.57794 41.4748 31.7694 78.2532 31.7694ZM91.6529-3.15003C89.3074-0.849094 84.4357-0.898237 81.9148-3.25502L56.4545-27.1107C51.8714-31.3946 51.8658-38.9372 56.4545-43.2569L81.9148-67.0378C84.7047-69.6781 88.8989-69.5933 91.4889-67.2176C94.387-64.564 94.4115-59.9501 91.6329-57.2908L67.958-35.2061L91.6329-13.0466C94.3423-10.4622 94.5398-6.06255 91.6529-3.15003Z"/>
  </g>
  <g id="Bold-L" transform="matrix(1 0 0 1 2262.89 1556)">
   <path d="M77.0704 30.5711C113.182 30.5711 142.92 0.870872 142.92-35.2405C142.92-71.3519 113.144-101.052 77.0324-101.052C40.9458-101.052 11.2588-71.3519 11.2588-35.2405C11.2588 0.870872 40.9838 30.5711 77.0704 30.5711ZM90.0863-3.53459C88.0554-1.53294 83.9051-1.58246 81.7222-3.63976L55.7649-28.1067C51.7105-31.8923 51.6973-38.4852 55.7649-42.3221L81.7222-66.7218C84.1358-69.0011 87.7238-68.963 89.9607-66.8942C92.4443-64.6166 92.469-60.6705 90.0818-58.3797L65.4319-35.229L90.0818-12.0111C92.4151-9.78742 92.5434-6.00942 90.0863-3.53459Z"/>
  </g>
  <g id="Semibold-L" transform="matrix(1 0 0 1 1966.99 1556)">
   <path d="M76.2549 29.745C111.889 29.745 141.294 0.383422 141.294-35.2511C141.294-70.8857 111.846-100.247 76.2116-100.247C40.6019-100.247 11.2588-70.8857 11.2588-35.2511C11.2588 0.383422 40.6453 29.745 76.2549 29.745ZM89.0062-3.7997C87.1923-2.00438 83.5393-2.05415 81.5894-3.905L55.2895-28.7933C51.5996-32.2354 51.5811-38.1736 55.2895-41.6776L81.5894-66.5039C83.7437-68.5344 86.9137-68.5284 88.9071-66.6712C91.105-64.6528 91.1299-61.1672 89.0125-59.1304L63.6905-35.2447L89.0125-11.2972C91.0864-9.32225 91.1671-5.97278 89.0062-3.7997Z"/>
  </g>
  <g id="Medium-L" transform="matrix(1 0 0 1 1670.9 1556)">
   <path d="M75.6366 29.1187C110.91 29.1187 140.062 0.0138167 140.062-35.2592C140.062-70.5322 110.862-99.637 75.5892-99.637C40.3412-99.637 11.2588-70.5322 11.2588-35.2592C11.2588 0.0138167 40.3886 29.1187 75.6366 29.1187ZM88.1873-4.00072C86.5379-2.36185 83.2619-2.41181 81.4887-4.10612L54.929-29.3139C51.5155-32.4956 51.493-37.9373 54.929-41.1889L81.4887-66.3388C83.4463-68.1805 86.2995-68.1989 88.1083-66.5021C90.0895-64.6803 90.1145-61.5438 88.2017-59.6995L62.3701-35.2567L88.2017-10.7559C90.079-8.96954 90.1236-5.94501 88.1873-4.00072Z"/>
  </g>
  <g id="Regular-L" transform="matrix(1 0 0 1 1374.99 1556)">
   <path d="M74.8301 28.3017C109.632 28.3017 138.454-0.468277 138.454-35.2697C138.454-70.0711 109.579-98.8411 74.7774-98.8411C40.0011-98.8411 11.2588-70.0711 11.2588-35.2697C11.2588-0.468277 40.0538 28.3017 74.8301 28.3017ZM87.1191-4.26292C85.6843-2.82811 82.9002-2.87832 81.3573-4.36845L54.4588-29.993C51.4058-32.8349 51.3781-37.6291 54.4588-40.5515L81.3573-66.1233C83.0585-67.7189 85.4983-67.7692 87.0663-66.2816C88.765-64.7161 88.7901-62.035 87.1442-60.4419L60.6478-35.2723L87.1442-10.0498C88.765-8.50948 88.7624-5.90878 87.1191-4.26292Z"/>
  </g>
  <g id="Light-L" transform="matrix(1 0 0 1 1079.2 1556)">
   <path d="M73.9141 27.3856C108.257 27.3856 136.603-0.926323 136.603-35.2697C136.603-69.6131 108.224-97.925 73.8804-97.925C39.5239-97.925 11.2588-69.6131 11.2588-35.2697C11.2588-0.926323 39.5576 27.3856 73.9141 27.3856ZM85.8595-4.45377C84.7109-3.30524 82.6139-3.27912 81.3382-4.52113L53.5809-31.2908C51.1958-33.5411 51.1491-37.0375 53.5809-39.3682L81.3382-66.1042C82.7149-67.4136 84.5632-67.3875 85.8258-66.2052C87.1427-65.0024 87.1296-62.9129 85.8464-61.6634L58.4912-35.3295L85.8464-8.96195C87.1427-7.74607 87.0829-5.73701 85.8595-4.45377Z"/>
  </g>
  <g id="Thin-L" transform="matrix(1 0 0 1 783.716 1556)">
   <path d="M72.7024 26.174C106.44 26.174 134.155-1.53213 134.155-35.2697C134.155-69.0073 106.432-96.7134 72.694-96.7134C38.8929-96.7134 11.2588-69.0073 11.2588-35.2697C11.2588-1.53213 38.9013 26.174 72.7024 26.174ZM84.1935-4.70619C83.4236-3.93629 82.2353-3.80919 81.313-4.72306L52.4198-33.0072C50.9182-34.475 50.8462-36.255 52.4198-37.8032L81.313-66.079C82.2606-67.0097 83.3263-66.8826 84.1851-66.1043C84.9972-65.3811 84.9336-64.0741 84.13-63.2789L55.6388-35.4052L84.13-7.52317C84.9972-6.7364 84.8616-5.50984 84.1935-4.70619Z"/>
  </g>
  <g id="Ultralight-L" transform="matrix(1 0 0 1 487.631 1556)">
   <path d="M72.0819 25.5534C105.509 25.5534 132.9-1.84242 132.9-35.2697C132.9-68.697 105.514-96.0928 72.0864-96.0928C38.5697-96.0928 11.2588-68.697 11.2588-35.2697C11.2588-1.84242 38.5652 25.5534 72.0819 25.5534ZM83.3402-4.83548C82.7642-4.25951 82.0414-4.0807 81.3-4.82649L51.825-33.8864C50.776-34.9534 50.6911-35.8542 51.825-37.0017L81.3-66.066C82.0279-66.8029 82.6928-66.624 83.3447-66.0526C83.8982-65.575 83.8088-64.6688 83.2508-64.1063L54.1779-35.444L83.2508-6.78623C83.8982-6.21925 83.7239-5.39348 83.3402-4.83548Z"/>
  </g>
  <g id="Black-M" transform="matrix(1 0 0 1 2871.36 1126)">
   <path d="M62.0422 18.116C91.4096 18.116 115.367-5.83621 115.367-35.2035C115.367-64.5709 91.4041-88.5231 62.0367-88.5231C32.6752-88.5231 8.72266-64.5709 8.72266-35.2035C8.72266-5.83621 32.6807 18.116 62.0422 18.116ZM72.8673-9.87936C70.6878-7.75695 66.0935-7.7685 63.7378-9.94744L44.4463-27.9263C40.3505-31.7717 40.3508-38.561 44.4463-42.4116L63.7378-60.3279C66.3384-62.8033 70.2719-62.6435 72.6905-60.4585C75.4114-57.9768 75.4171-53.6279 72.816-51.1464L55.606-35.1975L72.816-19.186C75.3543-16.7671 75.5887-12.6518 72.8673-9.87936Z"/>
  </g>
  <g id="Heavy-M" transform="matrix(1 0 0 1 2575.48 1126)">
   <path d="M61.2053 17.2657C90.0667 17.2657 113.704-6.35571 113.704-35.217C113.704-64.0783 90.0502-87.6997 61.1889-87.6997C32.3418-87.6997 8.72266-64.0783 8.72266-35.217C8.72266-6.35571 32.3582 17.2657 61.2053 17.2657ZM71.7688-10.1744C69.8028-8.25207 65.6913-8.28034 63.5735-10.2509L44.0322-28.5179C40.255-32.055 40.2527-38.293 44.0322-41.8488L63.5735-60.0558C65.915-62.2773 69.446-62.1747 71.6215-60.1923C74.0622-57.9612 74.0763-54.0689 71.7393-51.8356L53.8618-35.2052L71.7393-18.5147C74.0185-16.3414 74.2049-12.6423 71.7688-10.1744Z"/>
  </g>
  <g id="Bold-M" transform="matrix(1 0 0 1 2279.69 1126)">
   <path d="M60.2692 16.3144C88.5644 16.3144 111.844-6.93686 111.844-35.2321C111.844-63.5273 88.5358-86.7786 60.2405-86.7786C31.9688-86.7786 8.72266-63.5273 8.72266-35.2321C8.72266-6.93686 31.9974 16.3144 60.2692 16.3144ZM70.54-10.5045C68.8128-8.80592 65.2414-8.8529 63.3898-10.5903L43.569-29.1796C40.1482-32.3718 40.143-37.9934 43.569-41.2193L63.3898-59.7515C65.4415-61.6889 68.522-61.6502 70.4257-59.8944C72.5529-57.9438 72.5764-54.5622 70.5349-52.6065L51.9107-35.2137L70.5349-17.7638C72.5243-15.8652 72.6569-12.6316 70.54-10.5045Z"/>
  </g>
  <g id="Semibold-M" transform="matrix(1 0 0 1 1983.62 1126)">
   <path d="M59.6238 15.6586C87.5288 15.6586 110.562-7.33749 110.562-35.2425C110.562-63.1475 87.4917-86.1436 59.5867-86.1436C31.7117-86.1436 8.72266-63.1475 8.72266-35.2425C8.72266-7.33749 31.7487 15.6586 59.6238 15.6586ZM69.6928-10.732C68.1304-9.18775 64.9313-9.24762 63.2631-10.8243L43.2497-29.6359C40.0745-32.5903 40.0674-37.7867 43.2497-40.7853L63.2631-59.5417C65.1151-61.2832 67.885-61.2886 69.6013-59.6891C71.5124-57.9319 71.5423-54.9023 69.7046-53.138L50.5656-35.2197L69.7046-17.2461C71.4942-15.537 71.5897-12.6242 69.6928-10.732Z"/>
  </g>
  <g id="Medium-M" transform="matrix(1 0 0 1 1687.4 1126)">
   <path d="M59.1344 15.1614C86.7435 15.1614 109.59-7.64127 109.59-35.2504C109.59-62.8595 86.7001-85.6621 59.091-85.6621C31.5167-85.6621 8.72266-62.8595 8.72266-35.2504C8.72266-7.64127 31.5601 15.1614 59.1344 15.1614ZM69.0505-10.9046C67.6129-9.47726 64.6961-9.54691 63.1671-11.0017L43.0076-29.9818C40.0187-32.7559 40.0101-37.6301 43.0076-40.4562L63.1671-59.3826C64.8675-60.9756 67.402-61.0145 68.9762-59.5334C70.7234-57.9228 70.7583-55.1602 69.075-53.5409L49.5457-35.2241L69.075-16.8536C70.7132-15.2881 70.7805-12.6187 69.0505-10.9046Z"/>
  </g>
  <g id="Regular-M" transform="matrix(1 0 0 1 1391.32 1126)">
   <path d="M58.4961 14.5128C85.7192 14.5128 108.321-8.0375 108.321-35.2606C108.321-62.4838 85.6675-85.0341 58.4443-85.0341C31.2624-85.0341 8.72266-62.4838 8.72266-35.2606C8.72266-8.0375 31.3141 14.5128 58.4961 14.5128ZM68.2126-11.1296C66.9379-9.85489 64.3894-9.93729 63.0418-11.2331L42.6918-30.433C39.9459-32.9719 39.9353-37.4257 42.6918-40.027L63.0418-59.1751C64.5447-60.5744 66.7721-60.6569 68.1609-59.3304C69.6944-57.9109 69.7356-55.4966 68.2538-54.0666L48.2153-35.23L68.2538-16.3417C69.6944-14.9634 69.725-12.6114 68.2126-11.1296Z"/>
  </g>
  <g id="Light-M" transform="matrix(1 0 0 1 1095.44 1126)">
   <path d="M57.6748 13.6915C84.4872 13.6915 106.662-8.44816 106.662-35.2606C106.662-62.0731 84.4526-84.2128 57.6401-84.2128C30.8346-84.2128 8.72266-62.0731 8.72266-35.2606C8.72266-8.44816 30.8693 13.6915 57.6748 13.6915ZM67.0833-11.3007C66.0652-10.2827 64.1327-10.2966 63.0247-11.37L41.9047-31.5965C39.7576-33.605 39.73-36.8953 41.9047-38.9661L63.0247-59.158C64.2367-60.3007 65.9336-60.3146 67.0487-59.2619C68.2399-58.1676 68.2469-56.2837 67.0903-55.1617L46.2818-35.2813L67.0903-15.3663C68.2399-14.279 68.2193-12.4574 67.0833-11.3007Z"/>
  </g>
  <g id="Thin-M" transform="matrix(1 0 0 1 799.828 1126)">
   <path d="M56.5885 12.6052C82.8578 12.6052 104.466-8.9913 104.466-35.2606C104.466-61.53 82.8458-83.1265 56.5765-83.1265C30.2689-83.1265 8.72266-61.53 8.72266-35.2606C8.72266-8.9913 30.2809 12.6052 56.5885 12.6052ZM65.5897-11.527C64.9111-10.8484 63.7933-10.7719 63.0021-11.5511L40.8637-33.1354C39.5087-34.4424 39.4584-36.1938 40.8637-37.563L63.0021-59.1354C63.8293-59.9386 64.8247-59.862 65.5777-59.1714C66.3163-58.507 66.2781-57.3247 65.5514-56.61L43.7246-35.3492L65.5514-14.0764C66.3163-13.3737 66.2278-12.2537 65.5897-11.527Z"/>
  </g>
  <g id="Ultralight-M" transform="matrix(1 0 0 1 503.679 1126)">
   <path d="M56.0321 12.0488C82.0233 12.0488 103.342-9.26949 103.342-35.2606C103.342-61.2518 82.0228-82.5701 56.0317-82.5701C29.9791-82.5701 8.72266-61.2518 8.72266-35.2606C8.72266-9.26949 29.9795 12.0488 56.0321 12.0488ZM64.8247-11.643C64.3199-11.1382 63.6194-11.0153 62.9905-11.6438L40.3305-33.9236C39.3812-34.8712 39.3193-35.8344 40.3305-36.8444L62.9905-59.1238C63.6207-59.7531 64.2568-59.6302 64.8242-59.125C65.3311-58.6809 65.2696-57.8579 64.7632-57.3519L42.4147-35.384L64.7632-13.4157C65.3311-12.9101 65.2077-12.1494 64.8247-11.643Z"/>
  </g>
  <g id="Black-S" transform="matrix(1 0 0 1 2884.57 696)">
   <path d="M48.8281 6.78711C71.9727 6.78711 90.8203-12.0605 90.8203-35.2051C90.8203-58.3496 71.9727-77.1973 48.8281-77.1973C25.6836-77.1973 6.83594-58.3496 6.83594-35.2051C6.83594-12.0605 25.6836 6.78711 48.8281 6.78711ZM57.373-15.2832C55.6152-13.5742 51.9043-13.5742 50-15.332L34.9121-29.3945C31.6406-32.4707 31.6406-37.8906 34.9121-40.9668L50-54.9805C52.0996-56.9824 55.2734-56.8359 57.2266-55.0781C59.4238-53.0762 59.4238-49.5605 57.3242-47.5586L43.9941-35.2051L57.3242-22.8027C59.375-20.8496 59.5703-17.5293 57.373-15.2832Z"/>
  </g>
  <g id="Heavy-S" transform="matrix(1 0 0 1 2588.47 696)">
   <path d="M48.2173 6.16479C70.9816 6.16479 89.6102-12.4524 89.6102-35.2166C89.6102-57.9808 70.97-76.598 48.2058-76.598C25.4531-76.598 6.83594-57.9808 6.83594-35.2166C6.83594-12.4524 25.4646 6.16479 48.2173 6.16479ZM56.5779-15.5137C54.9699-13.943 51.5931-13.9661 49.8617-15.574L34.6586-29.7518C31.583-32.632 31.583-37.7293 34.6586-40.6211L49.8617-54.75C51.7769-56.5675 54.6742-56.4787 56.4544-54.8592C58.4558-53.0301 58.4673-49.8371 56.5521-48.008L42.7495-35.2051L56.5521-22.3533C58.4185-20.573 58.5792-17.5408 56.5779-15.5137Z"/>
  </g>
  <g id="Bold-S" transform="matrix(1 0 0 1 2292.43 696)">
   <path d="M47.5342 5.46875C69.873 5.46875 88.2568-12.8906 88.2568-35.2295C88.2568-57.5684 69.8486-75.9277 47.5098-75.9277C25.1953-75.9277 6.83594-57.5684 6.83594-35.2295C6.83594-12.8906 25.2197 5.46875 47.5342 5.46875ZM55.6885-15.7715C54.248-14.3555 51.2451-14.4043 49.707-15.8447L34.375-30.1514C31.5186-32.8125 31.5186-37.5488 34.375-40.2344L49.707-54.4922C51.416-56.1035 54.0039-56.0791 55.5908-54.6143C57.373-52.9785 57.3975-50.1465 55.6885-48.5107L41.3574-35.2051L55.6885-21.8506C57.3486-20.2637 57.4707-17.5537 55.6885-15.7715Z"/>
  </g>
  <g id="Semibold-S" transform="matrix(1 0 0 1 1996.19 696)">
   <path d="M47.0632 4.98887C69.1088 4.98887 87.3237-13.1928 87.3237-35.2384C87.3237-57.284 69.0755-75.4656 47.0299-75.4656C25.0176-75.4656 6.83594-57.284 6.83594-35.2384C6.83594-13.1928 25.0509 4.98887 47.0632 4.98887ZM55.0753-15.9492C53.7504-14.6398 51.0052-14.7064 49.6004-16.0313L34.1795-30.4269C31.4741-32.9369 31.4741-37.4244 34.1795-39.9678L49.6004-54.3145C51.1672-55.7836 53.5418-55.8036 54.9954-54.4454C56.6266-52.943 56.6599-50.3598 55.0931-48.8573L40.3977-35.2051L55.0931-21.504C56.611-20.0504 56.7064-17.5626 55.0753-15.9492Z"/>
  </g>
  <g id="Medium-S" transform="matrix(1 0 0 1 1699.83 696)">
   <path d="M46.7061 4.625C68.5293 4.625 86.6162-13.4219 86.6162-35.2451C86.6162-57.0684 68.4893-75.1152 46.666-75.1152C24.8828-75.1152 6.83594-57.0684 6.83594-35.2451C6.83594-13.4219 24.9229 4.625 46.7061 4.625ZM54.6104-16.084C53.373-14.8555 50.8232-14.9355 49.5195-16.1729L34.0312-30.6357C31.4404-33.0312 31.4404-37.3301 34.0312-39.7656L49.5195-54.1797C50.9785-55.541 53.1914-55.5947 54.5439-54.3174C56.0605-52.916 56.1006-50.5215 54.6416-49.1201L39.6699-35.2051L54.6416-21.2412C56.0518-19.8887 56.127-17.5693 54.6104-16.084Z"/>
  </g>
  <g id="Regular-S" transform="matrix(1 0 0 1 1403.58 696)">
   <path d="M46.2402 4.15039C67.7734 4.15039 85.6934-13.7207 85.6934-35.2539C85.6934-56.7871 67.7246-74.6582 46.1914-74.6582C24.707-74.6582 6.83594-56.7871 6.83594-35.2539C6.83594-13.7207 24.7559 4.15039 46.2402 4.15039ZM54.0039-16.2598C52.8809-15.1367 50.5859-15.2344 49.4141-16.3574L33.8379-30.9082C31.3965-33.1543 31.3965-37.207 33.8379-39.502L49.4141-54.0039C50.7324-55.2246 52.7344-55.3223 53.9551-54.1504C55.3223-52.8809 55.3711-50.7324 54.0527-49.4629L38.7207-35.2051L54.0527-20.8984C55.3223-19.6777 55.3711-17.5781 54.0039-16.2598Z"/>
  </g>
  <g id="Light-S" transform="matrix(1 0 0 1 1107.6 696)">
   <path d="M45.5137 3.42383C66.6836 3.42383 84.2251-14.084 84.2251-35.2539C84.2251-56.4238 66.6499-73.9316 45.48-73.9316C24.3286-73.9316 6.83594-56.4238 6.83594-35.2539C6.83594-14.084 24.3623 3.42383 45.5137 3.42383ZM53.0049-16.4111C52.1089-15.5151 50.3589-15.5522 49.3989-16.4785L33.1416-31.9375C31.23-33.7144 31.2148-36.7378 33.1416-38.5635L49.3989-53.9888C50.46-54.9824 51.9927-55.0195 52.9712-54.0898C54.0357-53.1079 54.0542-51.4287 53.0234-50.4316L37.0103-35.2505L53.0234-20.0357C54.0357-19.0723 54.0391-17.4419 53.0049-16.4111Z"/>
  </g>
  <g id="Thin-S" transform="matrix(1 0 0 1 811.863 696)">
   <path d="M44.5527 2.4629C65.2422 2.4629 82.2832-14.5644 82.2832-35.2539C82.2832-55.9434 65.2285-72.9707 44.5391-72.9707C23.8281-72.9707 6.83594-55.9434 6.83594-35.2539C6.83594-14.5644 23.8418 2.4629 44.5527 2.4629ZM51.6836-16.6113C51.0879-16.0156 50.0586-15.9727 49.3789-16.6387L32.2207-33.2988C31.0098-34.4551 30.9746-36.1172 32.2207-37.3223L49.3789-53.9688C50.0996-54.6621 51.0117-54.6191 51.6699-54.0098C52.334-53.4082 52.3125-52.3496 51.6621-51.7129L34.7481-35.3105L51.6621-18.8945C52.334-18.2715 52.2774-17.2617 51.6836-16.6113Z"/>
  </g>
  <g id="Ultralight-S" transform="matrix(1 0 0 1 515.649 696)">
   <path d="M44.0606 1.97072C64.5039 1.97072 81.2886-14.8105 81.2886-35.2539C81.2886-55.6973 64.5005-72.4785 44.0571-72.4785C23.5718-72.4785 6.83594-55.6973 6.83594-35.2539C6.83594-14.8105 23.5752 1.97072 44.0606 1.97072ZM51.0069-16.7139C50.565-16.272 49.9048-16.188 49.3687-16.7207L31.749-33.9961C30.897-34.8345 30.8516-35.7993 31.749-36.6865L49.3687-53.9585C49.915-54.4981 50.5093-54.4141 51.0034-53.9688C51.4624-53.562 51.4204-52.8213 50.9649-52.3691L33.5894-35.3413L50.9649-18.3101C51.4624-17.8613 51.375-17.1694 51.0069-16.7139Z"/>
  </g>
 </g>
</svg>
