<?xml version="1.0" encoding="utf-8"?>
<!-- Generator: Adobe Illustrator 26.2.1, SVG Export Plug-In . SVG Version: 6.00 Build 0)  -->
<svg version="1.1" id="Layer_1" xmlns="http://www.w3.org/2000/svg" xmlns:xlink="http://www.w3.org/1999/xlink" x="0px" y="0px"
	 viewBox="0 0 22 16" style="enable-background:new 0 0 22 16;" xml:space="preserve">
<style type="text/css">
	.st0{fill:#FFFFFF;stroke:#000000;stroke-width:0.5;stroke-miterlimit:10;}
	.st1{fill:none;stroke:#000000;stroke-width:0.5;stroke-miterlimit:10;}
</style>
<g id="Layer_1_00000018935054026675001560000011172283430780185745_">
	<path class="st0" d="M18.8,15.8H3.2c-1.7,0-3-1.3-3-3V3.2c0-1.7,1.3-3,3-3h15.5c1.7,0,3,1.3,3,3v9.5C21.8,14.4,20.4,15.8,18.8,15.8
		z M11,12.9l4.7,0.1v-2L12,10.9v-0.6c1.3,0,2.2-0.4,2.9-1.2c1-1.1,1.3-3.2,1.1-5.5l0,0h-2l0,0c0.1,1.6,0.1,3.4-0.5,4
		c-0.3,0.3-0.8,0.5-1.5,0.6V3h-2v5.2C7.9,7.9,7.8,6.1,7.9,3.6l0,0h-2v1.2c0,1.9,0,4.5,3,5.2c0.1,0,0.6,0.2,1.1,0.2v0.6L6.2,11v2
		L11,12.9z"/>
</g>
<g id="Layer_2_00000031899165969246182670000015185043646533186989_">
	<path class="st1" d="M6.2,13.1v-2l3.8-0.2v-0.6c-0.5,0-1-0.2-1.1-0.2c-3-0.7-3-3.3-3-5.2V3.6h2l0,0C7.8,6,7.9,7.9,10,8.1V3h2v5.2
		c0.7-0.1,1.2-0.3,1.5-0.6c0.6-0.6,0.6-2.4,0.5-4l0,0h2l0,0c0.2,2.3-0.1,4.4-1.1,5.5c-0.7,0.8-1.6,1.2-2.9,1.2v0.6l3.7,0.2v2
		L11,12.9L6.2,13.1z"/>
</g>
</svg>
