<?xml version="1.0" encoding="UTF-8"?>
<!--Generator: Apple Native CoreSVG 232.5-->
<!DOCTYPE svg
PUBLIC "-//W3C//DTD SVG 1.1//EN"
       "http://www.w3.org/Graphics/SVG/1.1/DTD/svg11.dtd">
<svg version="1.1" xmlns="http://www.w3.org/2000/svg" xmlns:xlink="http://www.w3.org/1999/xlink" width="3300" height="2200">
 <g id="Notes">
  <rect height="2200" id="artboard" style="fill:white;opacity:1" width="3300" x="0" y="0"/>
  <line style="fill:none;stroke:black;opacity:1;stroke-width:0.5;" x1="263" x2="3036" y1="292" y2="292"/>
  <text style="stroke:none;fill:black;font-family:sans-serif;font-size:13;font-weight:bold;" transform="matrix(1 0 0 1 263 322)">Weight/Scale Variations</text>
  <text style="stroke:none;fill:black;font-family:sans-serif;font-size:13;text-anchor:middle;" transform="matrix(1 0 0 1 559.711 322)">Ultralight</text>
  <text style="stroke:none;fill:black;font-family:sans-serif;font-size:13;text-anchor:middle;" transform="matrix(1 0 0 1 856.422 322)">Thin</text>
  <text style="stroke:none;fill:black;font-family:sans-serif;font-size:13;text-anchor:middle;" transform="matrix(1 0 0 1 1153.13 322)">Light</text>
  <text style="stroke:none;fill:black;font-family:sans-serif;font-size:13;text-anchor:middle;" transform="matrix(1 0 0 1 1449.84 322)">Regular</text>
  <text style="stroke:none;fill:black;font-family:sans-serif;font-size:13;text-anchor:middle;" transform="matrix(1 0 0 1 1746.56 322)">Medium</text>
  <text style="stroke:none;fill:black;font-family:sans-serif;font-size:13;text-anchor:middle;" transform="matrix(1 0 0 1 2043.27 322)">Semibold</text>
  <text style="stroke:none;fill:black;font-family:sans-serif;font-size:13;text-anchor:middle;" transform="matrix(1 0 0 1 2339.98 322)">Bold</text>
  <text style="stroke:none;fill:black;font-family:sans-serif;font-size:13;text-anchor:middle;" transform="matrix(1 0 0 1 2636.69 322)">Heavy</text>
  <text style="stroke:none;fill:black;font-family:sans-serif;font-size:13;text-anchor:middle;" transform="matrix(1 0 0 1 2933.4 322)">Black</text>
  <line style="fill:none;stroke:black;opacity:1;stroke-width:0.5;" x1="263" x2="3036" y1="1903" y2="1903"/>
  <g transform="matrix(0.2 0 0 0.2 263 1933)">
   <path d="m46.2402 4.15039c21.5332 0 39.4531-17.8711 39.4531-39.4043s-17.9688-39.4043-39.502-39.4043c-21.4844 0-39.3555 17.8711-39.3555 39.4043s17.9199 39.4043 39.4043 39.4043Zm0-7.42188c-17.7246 0-31.8848-14.209-31.8848-31.9824s14.1113-31.9824 31.8359-31.9824c17.7734 0 32.0312 14.209 32.0312 31.9824s-14.209 31.9824-31.9824 31.9824Zm-17.9688-31.9824c0 2.14844 1.51367 3.61328 3.75977 3.61328h10.498v10.5957c0 2.19727 1.46484 3.71094 3.61328 3.71094 2.24609 0 3.71094-1.51367 3.71094-3.71094v-10.5957h10.5957c2.19727 0 3.71094-1.46484 3.71094-3.61328 0-2.19727-1.51367-3.71094-3.71094-3.71094h-10.5957v-10.5469c0-2.24609-1.46484-3.75977-3.71094-3.75977-2.14844 0-3.61328 1.51367-3.61328 3.75977v10.5469h-10.498c-2.24609 0-3.75977 1.51367-3.75977 3.71094Z"/>
  </g>
  <g transform="matrix(0.2 0 0 0.2 281.506 1933)">
   <path d="m58.5449 14.5508c27.2461 0 49.8047-22.6074 49.8047-49.8047 0-27.2461-22.6074-49.8047-49.8535-49.8047-27.1973 0-49.7559 22.5586-49.7559 49.8047 0 27.1973 22.6074 49.8047 49.8047 49.8047Zm0-8.30078c-23.0469 0-41.4551-18.457-41.4551-41.5039s18.3594-41.5039 41.4062-41.5039 41.5527 18.457 41.5527 41.5039-18.457 41.5039-41.5039 41.5039Zm-22.6562-41.5039c0 2.39258 1.66016 4.00391 4.15039 4.00391h14.3555v14.4043c0 2.44141 1.66016 4.15039 4.05273 4.15039 2.44141 0 4.15039-1.66016 4.15039-4.15039v-14.4043h14.4043c2.44141 0 4.15039-1.61133 4.15039-4.00391 0-2.44141-1.70898-4.15039-4.15039-4.15039h-14.4043v-14.3555c0-2.49023-1.70898-4.19922-4.15039-4.19922-2.39258 0-4.05273 1.70898-4.05273 4.19922v14.3555h-14.3555c-2.49023 0-4.15039 1.70898-4.15039 4.15039Z"/>
  </g>
  <g transform="matrix(0.2 0 0 0.2 304.924 1933)">
   <path d="m74.8535 28.3203c34.8145 0 63.623-28.8086 63.623-63.5742 0-34.8145-28.8574-63.623-63.6719-63.623-34.7656 0-63.5254 28.8086-63.5254 63.623 0 34.7656 28.8086 63.5742 63.5742 63.5742Zm0-9.08203c-30.1758 0-54.4434-24.3164-54.4434-54.4922 0-30.2246 24.2188-54.4922 54.3945-54.4922 30.2246 0 54.541 24.2676 54.541 54.4922 0 30.1758-24.2676 54.4922-54.4922 54.4922Zm-28.8574-54.4922c0 2.58789 1.85547 4.39453 4.58984 4.39453h19.7266v19.7754c0 2.68555 1.85547 4.58984 4.44336 4.58984 2.68555 0 4.54102-1.85547 4.54102-4.58984v-19.7754h19.7754c2.68555 0 4.58984-1.80664 4.58984-4.39453 0-2.73438-1.85547-4.58984-4.58984-4.58984h-19.7754v-19.7266c0-2.73438-1.85547-4.63867-4.54102-4.63867-2.58789 0-4.44336 1.9043-4.44336 4.63867v19.7266h-19.7266c-2.73438 0-4.58984 1.85547-4.58984 4.58984Z"/>
  </g>
  <text style="stroke:none;fill:black;font-family:sans-serif;font-size:13;font-weight:bold;" transform="matrix(1 0 0 1 263 1953)">Design Variations</text>
  <text style="stroke:none;fill:black;font-family:sans-serif;font-size:13;" transform="matrix(1 0 0 1 263 1971)">Symbols are supported in up to nine weights and three scales.</text>
  <text style="stroke:none;fill:black;font-family:sans-serif;font-size:13;" transform="matrix(1 0 0 1 263 1989)">For optimal layout with text and other symbols, vertically align</text>
  <text style="stroke:none;fill:black;font-family:sans-serif;font-size:13;" transform="matrix(1 0 0 1 263 2007)">symbols with the adjacent text.</text>
  <line style="fill:none;stroke:#00AEEF;stroke-width:0.5;opacity:1.0;" x1="776" x2="776" y1="1919" y2="1933"/>
  <g transform="matrix(0.2 0 0 0.2 776 1933)">
   <path d="m16.5527 0.78125c2.58789 0 3.85742-0.976562 4.78516-3.71094l6.29883-17.2363h28.8086l6.29883 17.2363c0.927734 2.73438 2.19727 3.71094 4.73633 3.71094 2.58789 0 4.24805-1.5625 4.24805-4.00391 0-0.830078-0.146484-1.61133-0.537109-2.63672l-22.9004-60.9863c-1.12305-2.97852-3.125-4.49219-6.25-4.49219-3.02734 0-5.07812 1.46484-6.15234 4.44336l-22.9004 61.084c-0.390625 1.02539-0.537109 1.80664-0.537109 2.63672 0 2.44141 1.5625 3.95508 4.10156 3.95508Zm13.4766-28.3691 11.8652-32.8613h0.244141l11.8652 32.8613Z"/>
  </g>
  <line style="fill:none;stroke:#00AEEF;stroke-width:0.5;opacity:1.0;" x1="792.836" x2="792.836" y1="1919" y2="1933"/>
  <text style="stroke:none;fill:black;font-family:sans-serif;font-size:13;font-weight:bold;" transform="matrix(1 0 0 1 776 1953)">Margins</text>
  <text style="stroke:none;fill:black;font-family:sans-serif;font-size:13;" transform="matrix(1 0 0 1 776 1971)">Leading and trailing margins on the left and right side of each symbol</text>
  <text style="stroke:none;fill:black;font-family:sans-serif;font-size:13;" transform="matrix(1 0 0 1 776 1989)">can be adjusted by modifying the x-location of the margin guidelines.</text>
  <text style="stroke:none;fill:black;font-family:sans-serif;font-size:13;" transform="matrix(1 0 0 1 776 2007)">Modifications are automatically applied proportionally to all</text>
  <text style="stroke:none;fill:black;font-family:sans-serif;font-size:13;" transform="matrix(1 0 0 1 776 2025)">scales and weights.</text>
  <g transform="matrix(0.2 0 0 0.2 1289 1933)">
   <path d="m14.209 9.32617 8.49609 8.54492c4.29688 4.3457 9.22852 4.05273 13.8672-1.07422l53.4668-58.9355-4.83398-4.88281-53.0762 58.3984c-1.75781 2.00195-3.41797 2.49023-5.76172 0.146484l-5.85938-5.81055c-2.34375-2.29492-1.80664-4.00391 0.195312-5.81055l57.373-54.0039-4.88281-4.83398-57.959 54.4434c-4.93164 4.58984-5.32227 9.47266-1.02539 13.8184Zm32.0801-90.9668c-2.09961 2.05078-2.24609 4.93164-1.07422 6.88477 1.17188 1.80664 3.4668 2.97852 6.68945 2.14844 7.32422-1.70898 14.9414-2.00195 22.0703 2.68555l-2.92969 7.27539c-1.70898 4.15039-0.830078 7.08008 1.85547 9.81445l11.4746 11.5723c2.44141 2.44141 4.49219 2.53906 7.32422 2.05078l5.32227-0.976562 3.32031 3.36914-0.195312 2.7832c-0.195312 2.49023 0.439453 4.39453 2.88086 6.78711l3.80859 3.71094c2.39258 2.39258 5.46875 2.53906 7.8125 0.195312l14.5508-14.5996c2.34375-2.34375 2.24609-5.32227-0.146484-7.71484l-3.85742-3.80859c-2.39258-2.39258-4.24805-3.17383-6.64062-2.97852l-2.88086 0.244141-3.22266-3.17383 1.2207-5.61523c0.634766-2.83203-0.146484-5.0293-3.07617-7.95898l-10.9863-10.9375c-16.6992-16.6016-38.8672-16.2109-53.3203-1.75781Zm7.4707 1.85547c12.1582-8.88672 28.6133-7.37305 39.7461 3.75977l12.1582 12.0605c1.17188 1.17188 1.36719 2.09961 1.02539 3.80859l-1.61133 7.42188 7.51953 7.42188 4.93164-0.292969c1.26953-0.0488281 1.66016 0.0488281 2.63672 1.02539l2.88086 2.88086-12.207 12.207-2.88086-2.88086c-0.976562-0.976562-1.12305-1.36719-1.07422-2.68555l0.341797-4.88281-7.4707-7.42188-7.61719 1.26953c-1.61133 0.341797-2.34375 0.195312-3.56445-0.976562l-10.0098-10.0098c-1.26953-1.17188-1.41602-2.00195-0.634766-3.85742l4.39453-10.4492c-7.8125-7.27539-17.9688-10.4004-28.125-7.42188-0.78125 0.195312-1.07422-0.439453-0.439453-0.976562Z"/>
  </g>
  <text style="stroke:none;fill:black;font-family:sans-serif;font-size:13;font-weight:bold;" transform="matrix(1 0 0 1 1289 1953)">Exporting</text>
  <text style="stroke:none;fill:black;font-family:sans-serif;font-size:13;" transform="matrix(1 0 0 1 1289 1971)">Symbols should be outlined when exporting to ensure the</text>
  <text style="stroke:none;fill:black;font-family:sans-serif;font-size:13;" transform="matrix(1 0 0 1 1289 1989)">design is preserved when submitting to Xcode.</text>
  <text id="template-version" style="stroke:none;fill:black;font-family:sans-serif;font-size:13;text-anchor:end;" transform="matrix(1 0 0 1 3036 1933)">Template v.2.0</text>
  <text style="stroke:none;fill:black;font-family:sans-serif;font-size:13;text-anchor:end;" transform="matrix(1 0 0 1 3036 1951)">Requires Xcode 12 or greater</text>
  <text id="descriptive-name" style="stroke:none;fill:black;font-family:sans-serif;font-size:13;text-anchor:end;" transform="matrix(1 0 0 1 3036 1969)">Generated from arrow.down.and.line.horizontal.and.arrow.up</text>
  <text style="stroke:none;fill:black;font-family:sans-serif;font-size:13;text-anchor:end;" transform="matrix(1 0 0 1 3036 1987)">Typeset at 100.0 points</text>
  <text style="stroke:none;fill:black;font-family:sans-serif;font-size:13;" transform="matrix(1 0 0 1 263 726)">Small</text>
  <text style="stroke:none;fill:black;font-family:sans-serif;font-size:13;" transform="matrix(1 0 0 1 263 1156)">Medium</text>
  <text style="stroke:none;fill:black;font-family:sans-serif;font-size:13;" transform="matrix(1 0 0 1 263 1586)">Large</text>
 </g>
 <g id="Guides">
  <g id="H-reference" style="fill:#27AAE1;stroke:none;" transform="matrix(1 0 0 1 339 696)">
   <path d="M0.993654 0L3.63775 0L29.3281-67.1323L30.0303-67.1323L30.0303-70.459L28.1226-70.459ZM11.6885-24.4799L46.9815-24.4799L46.2315-26.7285L12.4385-26.7285ZM55.1196 0L57.7637 0L30.6382-70.459L29.4326-70.459L29.4326-67.1323Z"/>
  </g>
  <line id="Baseline-S" style="fill:none;stroke:#27AAE1;opacity:1;stroke-width:0.5;" x1="263" x2="3036" y1="696" y2="696"/>
  <line id="Capline-S" style="fill:none;stroke:#27AAE1;opacity:1;stroke-width:0.5;" x1="263" x2="3036" y1="625.541" y2="625.541"/>
  <g id="H-reference" style="fill:#27AAE1;stroke:none;" transform="matrix(1 0 0 1 339 1126)">
   <path d="M0.993654 0L3.63775 0L29.3281-67.1323L30.0303-67.1323L30.0303-70.459L28.1226-70.459ZM11.6885-24.4799L46.9815-24.4799L46.2315-26.7285L12.4385-26.7285ZM55.1196 0L57.7637 0L30.6382-70.459L29.4326-70.459L29.4326-67.1323Z"/>
  </g>
  <line id="Baseline-M" style="fill:none;stroke:#27AAE1;opacity:1;stroke-width:0.5;" x1="263" x2="3036" y1="1126" y2="1126"/>
  <line id="Capline-M" style="fill:none;stroke:#27AAE1;opacity:1;stroke-width:0.5;" x1="263" x2="3036" y1="1055.54" y2="1055.54"/>
  <g id="H-reference" style="fill:#27AAE1;stroke:none;" transform="matrix(1 0 0 1 339 1556)">
   <path d="M0.993654 0L3.63775 0L29.3281-67.1323L30.0303-67.1323L30.0303-70.459L28.1226-70.459ZM11.6885-24.4799L46.9815-24.4799L46.2315-26.7285L12.4385-26.7285ZM55.1196 0L57.7637 0L30.6382-70.459L29.4326-70.459L29.4326-67.1323Z"/>
  </g>
  <line id="Baseline-L" style="fill:none;stroke:#27AAE1;opacity:1;stroke-width:0.5;" x1="263" x2="3036" y1="1556" y2="1556"/>
  <line id="Capline-L" style="fill:none;stroke:#27AAE1;opacity:1;stroke-width:0.5;" x1="263" x2="3036" y1="1485.54" y2="1485.54"/>
  <line id="left-margin" style="fill:none;stroke:#00AEEF;stroke-width:0.5;opacity:1.0;" x1="1391.87" x2="1391.87" y1="1030.79" y2="1150.12"/>
  <line id="right-margin" style="fill:none;stroke:#00AEEF;stroke-width:0.5;opacity:1.0;" x1="1507.82" x2="1507.82" y1="1030.79" y2="1150.12"/>
 </g>
 <g id="Symbols">
  <g id="Black-L" transform="matrix(1 0 0 1 2842.54 1556)">
   <path d="M90.8611-128.419C84.0861-128.419 79.5944-123.693 79.5944-116.569L79.5944-94.1653L80.2849-84.8878L70.1514-96.5653C68.2574-98.8305 65.9053-100.244 62.4018-100.244C56.4289-100.244 51.9944-95.9442 51.9944-89.7001C51.9944-86.9147 53.3362-83.9421 55.5287-81.9028L82.5866-56.4435C84.6378-54.4882 87.534-53.1292 90.8611-53.1292C94.187-53.1292 97.104-54.4882 99.1565-56.4435L126.214-81.9028C128.387-83.9421 129.728-86.9147 129.728-89.7001C129.728-95.9442 125.314-100.244 119.32-100.244C115.838-100.244 113.486-98.8305 111.571-96.5653L101.436-84.8878L102.148-94.1653L102.148-116.569C102.148-123.693 97.6349-128.419 90.8611-128.419ZM16.084-36.6144C16.084-30.6595 20.8106-25.8733 26.8251-25.8733L154.938-25.8733C160.931-25.8733 165.637-30.6595 165.637-36.6144C165.637-42.5693 160.931-47.3763 154.938-47.3763L26.8251-47.3763C20.8106-47.3763 16.084-42.5693 16.084-36.6144ZM90.8611 55.1687C97.6349 55.1687 102.148 50.4642 102.148 43.3399L102.148 20.9158L101.436 11.6578L111.571 23.3145C113.486 25.581 115.838 26.9944 119.32 26.9944C125.314 26.9944 129.728 22.7155 129.728 16.4701C129.728 13.6651 128.387 10.6926 126.214 8.67409L99.1565-16.7852C97.104-18.7417 94.187-20.1204 90.8611-20.1204C87.534-20.1204 84.6378-18.7417 82.5866-16.7852L55.5287 8.67409C53.3362 10.6926 51.9944 13.6651 51.9944 16.4701C51.9944 22.7155 56.4289 26.9944 62.4018 26.9944C65.9053 26.9944 68.2574 25.581 70.1514 23.3145L80.2849 11.6578L79.5944 20.9158L79.5944 43.3399C79.5944 50.4642 84.0861 55.1687 90.8611 55.1687Z"/>
  </g>
  <g id="Heavy-L" transform="matrix(1 0 0 1 2549.71 1556)">
   <path d="M86.9814-124.258C81.0777-124.258 77.1419-120.138 77.1419-113.972L77.1419-90.3715L77.7503-80.1902L65.9828-93.399C64.3027-95.377 62.1872-96.5566 59.1635-96.5566C53.9059-96.5566 50.0091-92.7389 50.0091-87.2884C50.0091-84.8135 51.1767-82.2429 53.137-80.3807L79.737-54.9922C81.5611-53.2272 84.0971-52.0462 86.9814-52.0462C89.86-52.0462 92.4263-53.2272 94.2559-54.9922L120.856-80.3807C122.792-82.2429 123.954-84.8135 123.954-87.2884C123.954-92.7389 120.087-96.5566 114.799-96.5566C111.806-96.5566 109.69-95.377 107.98-93.399L96.2069-80.1902L96.8455-90.3715L96.8455-113.972C96.8455-120.138 92.8794-124.258 86.9814-124.258ZM16.084-36.572C16.084-31.3042 20.2039-27.1341 25.5219-27.1341L148.496-27.1341C153.783-27.1341 157.873-31.3042 157.873-36.572C157.873-41.8397 153.783-46.04 148.496-46.04L25.5219-46.04C20.2039-46.04 16.084-41.8397 16.084-36.572ZM86.9814 51.0781C92.8794 51.0781 96.8455 46.9939 96.8455 40.8281L96.8455 17.1974L96.2069 7.04066L107.98 20.2193C109.69 22.2029 111.806 23.3825 114.799 23.3825C120.087 23.3825 123.954 19.595 123.954 14.1389C123.954 11.6394 122.792 9.06882 120.856 7.23678L94.2559-18.1517C92.4263-19.9223 89.86-21.1278 86.9814-21.1278C84.0971-21.1278 81.5611-19.9223 79.737-18.1517L53.137 7.23678C51.1767 9.06882 50.0091 11.6394 50.0091 14.1389C50.0091 19.595 53.9059 23.3825 59.1635 23.3825C62.1872 23.3825 64.3027 22.2029 65.9828 20.2193L77.7503 7.04066L77.1419 17.1974L77.1419 40.8281C77.1419 46.9939 81.0777 51.0781 86.9814 51.0781Z"/>
  </g>
  <g id="Bold-L" transform="matrix(1 0 0 1 2257.52 1556)">
   <path d="M82.462-119.311C77.6267-119.311 74.3824-115.936 74.3824-110.939L74.3824-85.6243L74.8908-74.4106L61.1322-89.4503C59.721-91.0747 57.9049-91.9848 55.458-91.9848C51.0916-91.9848 47.8632-88.7813 47.8632-84.3068C47.8632-82.2087 48.8305-80.1226 50.499-78.4906L76.4932-53.291C78.0256-51.7791 80.116-50.8134 82.462-50.8134C84.7948-50.8134 86.9232-51.7791 88.4688-53.291L114.463-78.4906C116.107-80.1226 117.061-82.2087 117.061-84.3068C117.061-88.7813 113.87-91.9848 109.466-91.9848C107.057-91.9848 105.241-91.0747 103.792-89.4503L90.02-74.4106L90.5664-85.6243L90.5664-110.939C90.5664-115.936 87.284-119.311 82.462-119.311ZM16.084-36.5406C16.084-32.1406 19.4584-28.7238 23.9008-28.7238L141.086-28.7238C145.49-28.7238 148.827-32.1406 148.827-36.5406C148.827-40.9405 145.49-44.3953 141.086-44.3953L23.9008-44.3953C19.4584-44.3953 16.084-40.9405 16.084-36.5406ZM82.462 46.1782C87.284 46.1782 90.5664 42.855 90.5664 37.8578L90.5664 12.5052L90.02 1.31629L103.792 16.318C105.241 17.9556 107.057 18.8657 109.466 18.8657C113.87 18.8657 117.061 15.7002 117.061 11.2125C117.061 9.08959 116.107 7.00352 114.463 5.40946L88.4688-19.7901C86.9232-21.3153 84.7948-22.3057 82.462-22.3057C80.116-22.3057 78.0256-21.3153 76.4932-19.7901L50.499 5.40946C48.8305 7.00352 47.8632 9.08959 47.8632 11.2125C47.8632 15.7002 51.0916 18.8657 55.458 18.8657C57.9049 18.8657 59.721 17.9556 61.1322 16.318L74.8908 1.31629L74.3824 12.5052L74.3824 37.8578C74.3824 42.855 77.6267 46.1782 82.462 46.1782Z"/>
  </g>
  <g id="Semibold-L" transform="matrix(1 0 0 1 1963.93 1556)">
   <path d="M79.3464-115.9C75.2477-115.9 72.48-113.039 72.48-108.848L72.48-82.3516L72.9195-70.4262L57.7882-86.7281C56.5623-88.1088 54.9527-88.833 52.9035-88.833C49.1514-88.833 46.3839-86.0529 46.3839-82.2514C46.3839-80.413 47.2131-78.6609 48.6804-77.1876L74.2569-52.1182C75.5882-50.7807 77.3714-49.9635 79.3464-49.9635C81.3029-49.9635 83.1294-50.7807 84.4792-52.1182L110.056-77.1876C111.498-78.6609 112.309-80.413 112.309-82.2514C112.309-86.0529 109.585-88.833 105.789-88.833C103.783-88.833 102.174-88.1088 100.905-86.7281L85.7547-70.4262L86.2376-82.3516L86.2376-108.848C86.2376-113.039 83.4266-115.9 79.3464-115.9ZM16.084-36.5189C16.084-32.7172 18.9444-29.8197 22.7832-29.8197L135.978-29.8197C139.773-29.8197 142.59-32.7172 142.59-36.5189C142.59-40.3206 139.773-43.2615 135.978-43.2615L22.7832-43.2615C18.9444-43.2615 16.084-40.3206 16.084-36.5189ZM79.3464 42.8003C83.4266 42.8003 86.2376 40.0016 86.2376 35.81L86.2376 9.27039L85.7547-2.63006L100.905 13.6284C102.174 15.0276 103.783 15.7518 105.789 15.7518C109.585 15.7518 112.309 13.0151 112.309 9.19507C112.309 7.33177 111.498 5.57972 110.056 4.14972L84.4792-20.9196C83.1294-22.2756 81.3029-23.1176 79.3464-23.1176C77.3714-23.1176 75.5882-22.2756 74.2569-20.9196L48.6804 4.14972C47.2131 5.57972 46.3839 7.33177 46.3839 9.19507C46.3839 13.0151 49.1514 15.7518 52.9035 15.7518C54.9527 15.7518 56.5623 15.0276 57.7882 13.6284L72.9195-2.63006L72.48 9.27039L72.48 35.81C72.48 40.0016 75.2477 42.8003 79.3464 42.8003Z"/>
  </g>
  <g id="Medium-L" transform="matrix(1 0 0 1 1669.58 1556)">
   <path d="M76.984-113.314C73.4438-113.314 71.0375-110.843 71.0375-107.262L71.0375-79.8701L71.4248-67.4051L55.2526-84.664C54.1673-85.8599 52.7142-86.4432 50.9665-86.4432C47.6803-86.4432 45.2621-83.9842 45.2621-80.6928C45.2621-79.0514 45.9867-77.5526 47.3014-76.1995L72.5613-51.229C73.7401-50.0238 75.2903-49.3191 76.984-49.3191C78.6552-49.3191 80.2528-50.0238 81.4541-51.229L106.714-76.1995C108.004-77.5526 108.706-79.0514 108.706-80.6928C108.706-83.9842 106.335-86.4432 103.001-86.4432C101.301-86.4432 99.8481-85.8599 98.7153-84.664L82.5207-67.4051L82.9554-79.8701L82.9554-107.262C82.9554-110.843 80.5017-113.314 76.984-113.314ZM16.084-36.5025C16.084-33.1544 18.5547-30.6507 21.9358-30.6507L132.105-30.6507C135.438-30.6507 137.861-33.1544 137.861-36.5025C137.861-39.8506 135.438-42.4018 132.105-42.4018L21.9358-42.4018C18.5547-42.4018 16.084-39.8506 16.084-36.5025ZM76.984 40.239C80.5017 40.239 82.9554 37.8381 82.9554 34.2573L82.9554 6.81765L82.5207-5.62235L98.7153 11.5891C99.8481 12.8074 101.301 13.3908 103.001 13.3908C106.335 13.3908 108.706 10.9791 108.706 7.66537C108.706 5.99892 108.004 4.50013 106.714 3.19453L81.4541-21.776C80.2528-23.0037 78.6552-23.7333 76.984-23.7333C75.2903-23.7333 73.7401-23.0037 72.5613-21.776L47.3014 3.19453C45.9867 4.50013 45.2621 5.99892 45.2621 7.66537C45.2621 10.9791 47.6803 13.3908 50.9665 13.3908C52.7142 13.3908 54.1673 12.8074 55.2526 11.5891L71.4248-5.62235L71.0375 6.81765L71.0375 34.2573C71.0375 37.8381 73.4438 40.239 76.984 40.239Z"/>
  </g>
  <g id="Regular-L" transform="matrix(1 0 0 1 1375.96 1556)">
   <path d="M73.9026-109.941C71.0908-109.941 69.156-107.978 69.156-105.194L69.156-76.6334L69.4752-63.4645L51.9454-81.9717C51.0433-82.9265 49.7944-83.3261 48.4401-83.3261C45.7615-83.3261 43.799-81.2858 43.799-78.66C43.799-77.2754 44.3871-76.1069 45.5028-74.9108L70.3496-50.0691C71.3295-49.0364 72.5758-48.4786 73.9026-48.4786C75.2016-48.4786 76.5007-49.0364 77.5083-50.0691L102.355-74.9108C103.446-76.1069 104.006-77.2754 104.006-78.66C104.006-81.2858 102.096-83.3261 99.3651-83.3261C98.0635-83.3261 96.8146-82.9265 95.8598-81.9717L78.3023-63.4645L78.6742-76.6334L78.6742-105.194C78.6742-107.978 76.6867-109.941 73.9026-109.941ZM16.084-36.4811C16.084-33.7247 18.0464-31.7346 20.8305-31.7346L127.052-31.7346C129.784-31.7346 131.693-33.7247 131.693-36.4811C131.693-39.2375 129.784-41.2804 127.052-41.2804L20.8305-41.2804C18.0464-41.2804 16.084-39.2375 16.084-36.4811ZM73.9026 36.8981C76.6867 36.8981 78.6742 35.0161 78.6742 32.232L78.6742 3.61842L78.3023-9.52534L95.8598 8.92908C96.8146 9.91157 98.0635 10.3111 99.3651 10.3111C102.096 10.3111 104.006 8.32357 104.006 5.67011C104.006 4.26041 103.446 3.09197 102.355 1.94863L77.5083-22.8931C76.5007-23.9534 75.2016-24.5364 73.9026-24.5364C72.5758-24.5364 71.3295-23.9534 70.3496-22.8931L45.5028 1.94863C44.3871 3.09197 43.799 4.26041 43.799 5.67011C43.799 8.32357 45.7615 10.3111 48.4401 10.3111C49.7944 10.3111 51.0433 9.91157 51.9454 8.92908L69.4752-9.52534L69.156 3.61842L69.156 32.232C69.156 35.0161 71.0908 36.8981 73.9026 36.8981Z"/>
  </g>
  <g id="Light-L" transform="matrix(1 0 0 1 1080.53 1556)">
   <path d="M72.6239-107.86C70.4801-107.86 69.0415-106.375 69.0415-104.278L69.0415-73.0454L69.3034-59.7238L50.6094-79.0707C49.9173-79.7966 48.9165-80.1388 47.8484-80.1388C45.8187-80.1388 44.3334-78.6329 44.3334-76.6369C44.3334-75.4623 44.8833-74.5419 45.77-73.5749L69.9488-49.5157C70.6615-48.7692 71.6025-48.3259 72.6239-48.3259C73.5985-48.3259 74.5731-48.7692 75.3326-49.5157L99.5114-73.5749C100.411-74.5419 100.914-75.4623 100.914-76.6369C100.914-78.6329 99.4626-80.1388 97.3993-80.1388C96.3649-80.1388 95.3641-79.7966 94.6383-79.0707L75.8976-59.7238L76.1931-73.0454L76.1931-104.278C76.1931-106.375 74.7209-107.86 72.6239-107.86ZM16.084-36.5956C16.084-34.5453 17.5693-33.0133 19.6663-33.0133L125.602-33.0133C127.665-33.0133 129.117-34.5453 129.117-36.5956C129.117-38.6459 127.665-40.2116 125.602-40.2116L19.6663-40.2116C17.5693-40.2116 16.084-38.6459 16.084-36.5956ZM72.6239 34.5888C74.7209 34.5888 76.1931 33.1839 76.1931 31.0869L76.1931-0.179553L75.8976-13.5142L94.6383 5.79909C95.3641 6.57165 96.3649 6.91394 97.3993 6.91394C99.4626 6.91394 100.914 5.4417 100.914 3.39896C100.914 2.23737 100.411 1.31704 99.5114 0.38364L75.3326-23.6756C74.5731-24.4687 73.5985-24.899 72.6239-24.899C71.6025-24.899 70.6615-24.4687 69.9488-23.6756L45.77 0.38364C44.8833 1.31704 44.3334 2.23737 44.3334 3.39896C44.3334 5.4417 45.8187 6.91394 47.8484 6.91394C48.9165 6.91394 49.9173 6.57165 50.6094 5.79909L69.3034-13.5142L69.0415-0.179553L69.0415 31.0869C69.0415 33.1839 70.4801 34.5888 72.6239 34.5888Z"/>
  </g>
  <g id="Thin-L" transform="matrix(1 0 0 1 785.526 1556)">
   <path d="M70.9327-105.109C69.6723-105.109 68.8901-104.255 68.8901-103.067L68.8901-68.2999L69.0762-54.7764L48.8425-75.234C48.428-75.6569 47.7554-75.9235 47.0659-75.9235C45.8945-75.9235 45.0402-75.1243 45.0402-73.9613C45.0402-73.0643 45.5396-72.4721 46.1233-71.8079L69.4187-48.7836C69.7781-48.4158 70.3152-48.124 70.9327-48.124C71.4782-48.124 72.0237-48.4158 72.455-48.7836L95.7504-71.8079C96.3977-72.4721 96.8251-73.0643 96.8251-73.9613C96.8251-75.1243 95.9793-75.9235 94.7994-75.9235C94.1183-75.9235 93.4457-75.6569 93.0228-75.234L72.7171-54.7764L72.9117-68.2999L72.9117-103.067C72.9117-104.255 72.121-105.109 70.9327-105.109ZM16.084-36.7471C16.084-35.6307 16.9382-34.7045 18.1266-34.7045L123.684-34.7045C124.864-34.7045 125.709-35.6307 125.709-36.7471C125.709-37.8634 124.864-38.7981 123.684-38.7981L18.1266-38.7981C16.9382-38.7981 16.084-37.8634 16.084-36.7471ZM70.9327 31.5346C72.121 31.5346 72.9117 30.7607 72.9117 29.5724L72.9117-5.20267L72.7171-18.7897L93.0228 1.65943C93.4457 2.15433 94.1183 2.4209 94.7994 2.4209C95.9793 2.4209 96.8251 1.63018 96.8251 0.395187C96.8251-0.438263 96.3977-1.03045 95.7504-1.68619L72.455-24.7105C72.0237-25.1503 71.4782-25.3786 70.9327-25.3786C70.3152-25.3786 69.7781-25.1503 69.4187-24.7105L46.1233-1.68619C45.5396-1.03045 45.0402-0.438263 45.0402 0.395187C45.0402 1.63018 45.8945 2.4209 47.0659 2.4209C47.7554 2.4209 48.428 2.15433 48.8425 1.65943L69.0762-18.7897L68.8901-5.20267L68.8901 29.5724C68.8901 30.7607 69.6723 31.5346 70.9327 31.5346Z"/>
  </g>
  <g id="Ultralight-L" transform="matrix(1 0 0 1 489.687 1556)">
   <path d="M70.0664-103.7C69.2586-103.7 68.8125-103.169 68.8125-102.446L68.8125-65.8693L68.9599-52.2424L47.9375-73.2688C47.6652-73.5366 47.1607-73.7644 46.6651-73.7644C45.9333-73.7644 45.4022-73.3272 45.4022-72.5909C45.4022-71.8361 45.8757-71.412 46.3044-70.9029L69.1472-48.4087C69.3256-48.2348 69.6558-48.0205 70.0664-48.0205C70.3922-48.0205 70.7179-48.2348 70.9812-48.4087L93.824-70.9029C94.342-71.412 94.7306-71.8361 94.7306-72.5909C94.7306-73.3272 94.1951-73.7644 93.4677-73.7644C92.9677-73.7644 92.4632-73.5366 92.1954-73.2688L71.0881-52.2424L71.231-65.8693L71.231-102.446C71.231-103.169 70.7893-103.7 70.0664-103.7ZM16.084-36.8246C16.084-36.1867 16.615-35.5707 17.3379-35.5707L122.701-35.5707C123.428-35.5707 123.964-36.1867 123.964-36.8246C123.964-37.4626 123.428-38.0741 122.701-38.0741L17.3379-38.0741C16.615-38.0741 16.084-37.4626 16.084-36.8246ZM70.0664 29.9702C70.7893 29.9702 71.231 29.5196 71.231 28.7967L71.231-7.77549L71.0881-21.4918L92.1954-0.46088C92.4632-0.108199 92.9677 0.119583 93.4677 0.119583C94.1951 0.119583 94.7306-0.322056 94.7306-1.14333C94.7306-1.80871 94.342-2.23282 93.824-2.74635L70.9812-25.2406C70.7179-25.4994 70.3922-25.6243 70.0664-25.6243C69.6558-25.6243 69.3256-25.4994 69.1472-25.2406L46.3044-2.74635C45.8757-2.23282 45.4022-1.80871 45.4022-1.14333C45.4022-0.322056 45.9333 0.119583 46.6651 0.119583C47.1607 0.119583 47.6652-0.108199 47.9375-0.46088L68.9599-21.4918L68.8125-7.77549L68.8125 28.7967C68.8125 29.5196 69.2586 29.9702 70.0664 29.9702Z"/>
  </g>
  <g id="Black-M" transform="matrix(1 0 0 1 2859.84 1126)">
   <path d="M73.555-110.723C67.6478-110.723 63.7573-106.604 63.7573-100.354L63.7573-83.664L64.3552-77.2323L57.7509-85.077C56.1281-87.0479 54.1361-88.3361 51.0482-88.3361C45.8939-88.3361 42.0608-84.663 42.0608-79.2287C42.0608-76.8324 43.245-74.2175 45.1121-72.5165L66.3779-52.8372C68.1262-51.1976 70.6382-50.0071 73.555-50.0071C76.4721-50.0071 78.9896-51.1976 80.7376-52.8372L102.003-72.5165C103.865-74.2175 105.049-76.8324 105.049-79.2287C105.049-84.663 101.222-88.3361 96.0618-88.3361C92.9795-88.3361 90.9875-87.0479 89.3591-85.077L82.7552-77.2323L83.3585-83.664L83.3585-100.354C83.3585-106.604 79.4626-110.723 73.555-110.723ZM12.4609-36.3544C12.4609-31.2459 16.5795-27.0705 21.7448-27.0705L125.377-27.0705C130.536-27.0705 134.649-31.2459 134.649-36.3544C134.649-41.4628 130.536-45.6437 125.377-45.6437L21.7448-45.6437C16.5795-45.6437 12.4609-41.4628 12.4609-36.3544ZM73.555 38.0086C79.4626 38.0086 83.3585 33.8952 83.3585 27.6451L83.3585 10.9497L82.7552 4.52378L89.3591 12.363C90.9875 14.3336 92.9795 15.6218 96.0618 15.6218C101.222 15.6218 105.049 11.9542 105.049 6.52024C105.049 4.11812 103.865 1.50325 102.003-0.192316L80.7376-19.8716C78.9896-21.5109 76.4721-22.7072 73.555-22.7072C70.6382-22.7072 68.1262-21.5109 66.3779-19.8716L45.1121-0.192316C43.245 1.50325 42.0608 4.11812 42.0608 6.52024C42.0608 11.9542 45.8939 15.6218 51.0482 15.6218C54.1361 15.6218 56.1281 14.3336 57.7509 12.363L64.3552 4.52378L63.7573 10.9497L63.7573 27.6451C63.7573 33.8952 67.6478 38.0086 73.555 38.0086Z"/>
  </g>
  <g id="Heavy-M" transform="matrix(1 0 0 1 2566.81 1126)">
   <path d="M69.8803-106.846C64.7632-106.846 61.3704-103.277 61.3704-97.9L61.3704-80.2862L61.8932-72.9852L53.799-82.2494C52.366-83.9606 50.5824-85.0255 47.9371-85.0255C43.4223-85.0255 40.0708-81.7744 40.0708-77.0578C40.0708-74.9456 41.0881-72.7008 42.7494-71.1517L63.6293-51.4695C65.1801-49.9895 67.3682-48.9626 69.8803-48.9626C72.3901-48.9626 74.5946-49.9895 76.1477-51.4695L97.0276-71.1517C98.6747-72.7008 99.6898-74.9456 99.6898-77.0578C99.6898-81.7744 96.3547-85.0255 91.8234-85.0255C89.1946-85.0255 87.411-83.9606 85.9616-82.2494L77.8651-72.9852L78.4043-80.2862L78.4043-97.9C78.4043-103.277 74.9951-106.846 69.8803-106.846ZM12.4609-36.3024C12.4609-31.8005 16.0305-28.1851 20.5782-28.1851L119.213-28.1851C123.744-28.1851 127.297-31.8005 127.297-36.3024C127.297-40.8042 123.744-44.4361 119.213-44.4361L20.5782-44.4361C16.0305-44.4361 12.4609-40.8042 12.4609-36.3024ZM69.8803 34.2227C74.9951 34.2227 78.4043 30.6718 78.4043 25.2953L78.4043 7.66511L77.8651 0.378164L85.9616 9.62601C87.411 11.3394 89.1946 12.4044 91.8234 12.4044C96.3547 12.4044 99.6898 9.16965 99.6898 4.45078C99.6898 2.32445 98.6747 0.0796812 97.0276-1.45301L76.1477-21.1352C74.5946-22.6175 72.3901-23.6585 69.8803-23.6585C67.3682-23.6585 65.1801-22.6175 63.6293-21.1352L42.7494-1.45301C41.0881 0.0796812 40.0708 2.32445 40.0708 4.45078C40.0708 9.16965 43.4223 12.4044 47.9371 12.4044C50.5824 12.4044 52.366 11.3394 53.799 9.62601L61.8932 0.378164L61.3704 7.66511L61.3704 25.2953C61.3704 30.6718 64.7632 34.2227 69.8803 34.2227Z"/>
  </g>
  <g id="Bold-M" transform="matrix(1 0 0 1 2274.21 1126)">
   <path d="M65.7696-102.51C61.5364-102.51 58.7003-99.5543 58.7003-95.155L58.7003-76.5077L59.1392-68.2341L49.3783-79.0864C48.1576-80.507 46.6071-81.3221 44.457-81.3221C40.6573-81.3221 37.8446-78.543 37.8446-74.6292C37.8446-72.8349 38.6754-71.0041 40.1064-69.625L60.5546-49.9395C61.8844-48.6381 63.7102-47.7941 65.7696-47.7941C67.8238-47.7941 69.6782-48.6381 71.0132-49.9395L91.4614-69.625C92.8689-71.0041 93.6945-72.8349 93.6945-74.6292C93.6945-78.543 90.9104-81.3221 87.0822-81.3221C84.9607-81.3221 83.4102-80.507 82.1609-79.0864L72.3948-68.2341L72.8623-76.5077L72.8623-95.155C72.8623-99.5543 69.9976-102.51 65.7696-102.51ZM12.4609-36.2442C12.4609-32.421 15.4164-29.4318 19.2733-29.4318L112.318-29.4318C116.146-29.4318 119.073-32.421 119.073-36.2442C119.073-40.0673 116.146-43.0851 112.318-43.0851L19.2733-43.0851C15.4164-43.0851 12.4609-40.0673 12.4609-36.2442ZM65.7696 29.9877C69.9976 29.9877 72.8623 27.066 72.8623 22.6667L72.8623 3.9908L72.3948-4.2593L82.1609 6.56431C83.4102 7.99003 84.9607 8.80523 87.0822 8.80523C90.9104 8.80523 93.6945 6.05468 93.6945 2.1358C93.6945 0.317972 92.8689-1.51278 91.4614-2.86327L71.0132-22.5488C69.6782-23.8553 67.8238-24.7228 65.7696-24.7228C63.7102-24.7228 61.8844-23.8553 60.5546-22.5488L40.1064-2.86327C38.6754-1.51278 37.8446 0.317972 37.8446 2.1358C37.8446 6.05468 40.6573 8.80523 44.457 8.80523C46.6071 8.80523 48.1576 7.99003 49.3783 6.56431L59.1392-4.2593L58.7003 3.9908L58.7003 22.6667C58.7003 27.066 61.5364 29.9877 65.7696 29.9877Z"/>
  </g>
  <g id="Semibold-M" transform="matrix(1 0 0 1 1980.33 1126)">
   <path d="M62.9357-99.5203C59.3119-99.5203 56.8596-96.9882 56.8596-93.2626L56.8596-73.9028L57.2406-64.9588L46.3306-76.9058C45.2563-78.1261 43.8666-78.7691 42.0577-78.7691C38.7512-78.7691 36.3099-76.3153 36.3099-72.955C36.3099-71.3798 37.012-69.8345 38.2843-68.5725L58.4348-48.8847C59.6124-47.7064 61.1884-46.9886 62.9357-46.9886C64.6758-46.9886 66.2888-47.7064 67.4735-48.8847L87.6241-68.5725C88.8664-69.8345 89.5614-71.3798 89.5614-72.955C89.5614-76.3153 87.1571-78.7691 83.8136-78.7691C82.0418-78.7691 80.652-78.1261 79.5407-76.9058L68.6236-64.9588L69.0417-73.9028L69.0417-93.2626C69.0417-96.9882 66.5523-99.5203 62.9357-99.5203ZM12.4609-36.204C12.4609-32.8487 14.993-30.2914 18.3736-30.2914L107.565-30.2914C110.908-30.2914 113.403-32.8487 113.403-36.204C113.403-39.5594 110.908-42.1537 107.565-42.1537L18.3736-42.1537C14.993-42.1537 12.4609-39.5594 12.4609-36.204ZM62.9357 27.0681C66.5523 27.0681 69.0417 24.5802 69.0417 20.8546L69.0417 1.45776L68.6236-7.45634L79.5407 4.45359C80.652 5.68096 82.0418 6.32398 83.8136 6.32398C87.1571 6.32398 89.5614 3.90725 89.5614 0.539864C89.5614-1.06528 88.8664-2.61061 87.6241-3.8355L67.4735-23.5233C66.2888-24.7087 64.6758-25.4565 62.9357-25.4565C61.1884-25.4565 59.6124-24.7087 58.4348-23.5233L38.2843-3.8355C37.012-2.61061 36.3099-1.06528 36.3099 0.539864C36.3099 3.90725 38.7512 6.32398 42.0577 6.32398C43.8666 6.32398 45.2563 5.68096 46.3306 4.45359L57.2406-7.45634L56.8596 1.45776L56.8596 20.8546C56.8596 24.5802 59.3119 27.0681 62.9357 27.0681Z"/>
  </g>
  <g id="Medium-M" transform="matrix(1 0 0 1 1685.77 1126)">
   <path d="M60.7869-97.2535C57.6252-97.2535 55.4638-95.0425 55.4638-91.8277L55.4638-71.9277L55.801-62.4753L44.0197-75.2524C43.0564-76.3208 41.7886-76.8332 40.2385-76.8332C37.3059-76.8332 35.1463-74.6262 35.1463-71.6856C35.1463-70.2765 35.7508-68.9476 36.9027-67.7745L56.8276-48.085C57.8897-47 59.2763-46.3778 60.7869-46.3778C62.2888-46.3778 63.7189-47 64.7896-48.085L84.7144-67.7745C85.8315-68.9476 86.4275-70.2765 86.4275-71.6856C86.4275-74.6262 84.3113-76.8332 81.3352-76.8332C79.8286-76.8332 78.5607-76.3208 77.554-75.2524L65.7642-62.4753L66.1447-71.9277L66.1447-91.8277C66.1447-95.0425 63.94-97.2535 60.7869-97.2535ZM12.4609-36.1736C12.4609-33.173 14.672-30.9431 17.6915-30.9431L103.961-30.9431C106.937-30.9431 109.104-33.173 109.104-36.1736C109.104-39.1742 106.937-41.4475 103.961-41.4475L17.6915-41.4475C14.672-41.4475 12.4609-39.1742 12.4609-36.1736ZM60.7869 24.8543C63.94 24.8543 66.1447 22.6953 66.1447 19.4805L66.1447-0.462903L65.7642-9.88047L77.554 2.85315C78.5607 3.93013 79.8286 4.44259 81.3352 4.44259C84.3113 4.44259 86.4275 2.27897 86.4275-0.670241C86.4275-2.11413 85.8315-3.44304 84.7144-4.57268L64.7896-24.2622C63.7189-25.3558 62.2888-26.0128 60.7869-26.0128C59.2763-26.0128 57.8897-25.3558 56.8276-24.2622L36.9027-4.57268C35.7508-3.44304 35.1463-2.11413 35.1463-0.670241C35.1463 2.27897 37.3059 4.44259 40.2385 4.44259C41.7886 4.44259 43.0564 3.93013 44.0197 2.85315L55.801-9.88047L55.4638-0.462903L55.4638 19.4805C55.4638 22.6953 57.6252 24.8543 60.7869 24.8543Z"/>
  </g>
  <g id="Regular-M" transform="matrix(1 0 0 1 1391.87 1126)">
   <path d="M57.9841-94.2969C55.4251-94.2969 53.6433-92.5046 53.6433-89.9561L53.6433-69.3515L53.9232-59.236L41.0056-73.0958C40.1871-73.966 39.0781-74.3082 37.8657-74.3082C35.4207-74.3082 33.6284-72.423 33.6284-70.0297C33.6284-68.8374 34.1058-67.7908 35.1006-66.7336L54.7312-47.0418C55.6426-46.0786 56.7822-45.5811 57.9841-45.5811C59.1754-45.5811 60.3668-46.0786 61.2888-47.0418L80.9193-66.7336C81.873-67.7908 82.3398-68.8374 82.3398-70.0297C82.3398-72.423 80.5992-74.3082 78.1025-74.3082C76.9418-74.3082 75.8329-73.966 74.9626-73.0958L62.0344-59.236L62.3661-69.3515L62.3661-89.9561C62.3661-92.5046 60.5326-94.2969 57.9841-94.2969ZM12.4609-36.1339C12.4609-33.596 14.2532-31.7931 16.8017-31.7931L99.2594-31.7931C101.756-31.7931 103.497-33.596 103.497-36.1339C103.497-38.6718 101.756-40.5264 99.2594-40.5264L16.8017-40.5264C14.2532-40.5264 12.4609-38.6718 12.4609-36.1339ZM57.9841 21.9668C60.5326 21.9668 62.3661 20.2368 62.3661 17.6883L62.3661-2.96811L62.0344-13.0424L74.9626 0.765626C75.8329 1.64644 76.9418 1.98861 78.1025 1.98861C80.5992 1.98861 82.3398 0.155133 82.3398-2.24864C82.3398-3.48218 81.873-4.52881 80.9193-5.53423L61.2888-25.226C60.3668-26.1998 59.1754-26.7385 57.9841-26.7385C56.7822-26.7385 55.6426-26.1998 54.7312-25.226L35.1006-5.53423C34.1058-4.52881 33.6284-3.48218 33.6284-2.24864C33.6284 0.155133 35.4207 1.98861 37.8657 1.98861C39.0781 1.98861 40.1871 1.64644 41.0056 0.765626L53.9232-13.0424L53.6433-2.96811L53.6433 17.6883C53.6433 20.2368 55.4251 21.9668 57.9841 21.9668Z"/>
  </g>
  <g id="Light-M" transform="matrix(1 0 0 1 1096.31 1126)">
   <path d="M56.8377-92.4318C54.8775-92.4318 53.5407-91.0673 53.5407-89.1348L53.5407-66.1346L53.7692-55.8823L39.8078-70.4949C39.1775-71.1598 38.291-71.4507 37.3353-71.4507C35.472-71.4507 34.1075-70.0445 34.1075-68.216C34.1075-67.2119 34.5507-66.3877 35.3402-65.5358L54.3718-46.5456C55.0437-45.839 55.9096-45.4442 56.8377-45.4442C57.7381-45.4442 58.6386-45.839 59.3381-46.5456L78.3698-65.5358C79.1523-66.3877 79.5678-67.2119 79.5678-68.216C79.5678-70.0445 78.2379-71.4507 76.3401-71.4507C75.4189-71.4507 74.5325-71.1598 73.8675-70.4949L59.8785-55.8823L60.1416-66.1346L60.1416-89.1348C60.1416-91.0673 58.7702-92.4318 56.8377-92.4318ZM12.4609-36.2366C12.4609-34.3318 13.8254-32.9396 15.7579-32.9396L97.959-32.9396C99.8569-32.9396 101.187-34.3318 101.187-36.2366C101.187-38.1414 99.8569-39.5682 97.959-39.5682L15.7579-39.5682C13.8254-39.5682 12.4609-38.1414 12.4609-36.2366ZM56.8377 19.8964C58.7702 19.8964 60.1416 18.5942 60.1416 16.6617L60.1416-6.37319L59.8785-16.6186L73.8675-2.04057C74.5325-1.34797 75.4189-1.05713 76.3401-1.05713C78.2379-1.05713 79.5678-2.42862 79.5678-4.28484C79.5678-5.29594 79.1523-6.12012 78.3698-6.93733L59.3381-25.9276C58.6386-26.6618 57.7381-27.0636 56.8377-27.0636C55.9096-27.0636 55.0437-26.6618 54.3718-25.9276L35.3402-6.93733C34.5507-6.12012 34.1075-5.29594 34.1075-4.28484C34.1075-2.42862 35.472-1.05713 37.3353-1.05713C38.291-1.05713 39.1775-1.34797 39.8078-2.04057L53.7692-16.6186L53.5407-6.37319L53.5407 16.6617C53.5407 18.5942 54.8775 19.8964 56.8377 19.8964Z"/>
  </g>
  <g id="Thin-M" transform="matrix(1 0 0 1 801.126 1126)">
   <path d="M55.3214-89.9651C54.1533-89.9651 53.4049-89.1663 53.4049-88.0486L53.4049-61.8801L53.5655-51.4467L38.2237-67.055C37.8423-67.4484 37.25-67.6714 36.6337-67.6714C35.5399-67.6714 34.7412-66.8989 34.7412-65.8171C34.7412-65.062 35.1391-64.532 35.657-63.9517L53.8966-45.8893C54.2517-45.5222 54.7554-45.2632 55.3214-45.2632C55.8371-45.2632 56.3529-45.5222 56.7582-45.8893L74.9978-63.9517C75.5541-64.532 75.9016-65.062 75.9016-65.8171C75.9016-66.8989 75.1149-67.6714 74.0091-67.6714C73.4048-67.6714 72.8125-67.4484 72.4192-67.055L57.027-51.4467L57.1997-61.8801L57.1997-88.0486C57.1997-89.1663 56.4392-89.9651 55.3214-89.9651ZM12.4609-36.3724C12.4609-35.3049 13.2597-34.4558 14.3775-34.4558L96.2391-34.4558C97.3449-34.4558 98.1316-35.3049 98.1316-36.3724C98.1316-37.4399 97.3449-38.3009 96.2391-38.3009L14.3775-38.3009C13.2597-38.3009 12.4609-37.4399 12.4609-36.3724ZM55.3214 17.1581C56.4392 17.1581 57.1997 16.4216 57.1997 15.3038L57.1997-10.8767L57.027-21.3484L72.4192-5.75199C72.8125-5.30833 73.4048-5.08538 74.0091-5.08538C75.1149-5.08538 75.9016-5.84584 75.9016-6.97788C75.9016-7.69478 75.5541-8.22477 74.9978-8.79303L56.7582-26.8555C56.3529-27.2728 55.8371-27.4935 55.3214-27.4935C54.7554-27.4935 54.2517-27.2728 53.8966-26.8555L35.657-8.79303C35.1391-8.22477 34.7412-7.69478 34.7412-6.97788C34.7412-5.84584 35.5399-5.08538 36.6337-5.08538C37.25-5.08538 37.8423-5.30833 38.2237-5.75199L53.5655-21.3484L53.4049-10.8767L53.4049 15.3038C53.4049 16.4216 54.1533 17.1581 55.3214 17.1581Z"/>
  </g>
  <g id="Ultralight-M" transform="matrix(1 0 0 1 505.197 1126)">
   <path d="M54.5448-88.7016C53.7824-88.7016 53.3353-88.1927 53.3353-87.4922L53.3353-59.7009L53.4612-49.1748L37.4123-65.2932C37.1584-65.5474 36.7168-65.7356 36.2744-65.7356C35.5747-65.7356 35.0658-65.2877 35.0658-64.5885C35.0658-63.9608 35.4404-63.5815 35.8193-63.1403L53.6532-45.5531C53.846-45.3599 54.1642-45.1705 54.5448-45.1705C54.8635-45.1705 55.1822-45.3599 55.4368-45.5531L73.2707-63.1403C73.7111-63.5815 74.0238-63.9608 74.0238-64.5885C74.0238-65.2877 73.5153-65.7356 72.8152-65.7356C72.3732-65.7356 71.9316-65.5474 71.6773-65.2932L55.5665-49.1748L55.6928-59.7009L55.6928-87.4922C55.6928-88.1927 55.2453-88.7016 54.5448-88.7016ZM12.4609-36.4419C12.4609-35.8033 12.9699-35.2324 13.6704-35.2324L95.3582-35.2324C96.0582-35.2324 96.5668-35.8033 96.5668-36.4419C96.5668-37.0805 96.0582-37.6518 95.3582-37.6518L13.6704-37.6518C12.9699-37.6518 12.4609-37.0805 12.4609-36.4419ZM54.5448 15.7555C55.2453 15.7555 55.6928 15.3089 55.6928 14.6084L55.6928-13.1833L55.5665-23.7709L71.6773-7.65296C71.9316-7.3368 72.3732-7.14863 72.8152-7.14863C73.5153-7.14863 74.0238-7.59612 74.0238-8.35724C74.0238-8.92346 73.7111-9.30276 73.2707-9.74352L55.4368-27.3307C55.1822-27.5858 54.8635-27.7138 54.5448-27.7138C54.1642-27.7138 53.846-27.5858 53.6532-27.3307L35.8193-9.74352C35.4404-9.30276 35.0658-8.92346 35.0658-8.35724C35.0658-7.59612 35.5747-7.14863 36.2744-7.14863C36.7168-7.14863 37.1584-7.3368 37.4123-7.65296L53.4612-23.7709L53.3353-13.1833L53.3353 14.6084C53.3353 15.3089 53.7824 15.7555 54.5448 15.7555Z"/>
  </g>
  <g id="Black-S" transform="matrix(1 0 0 1 2874.71 696)">
   <path d="M58.6914-95.459C53.8574-95.459 50.6836-92.0898 50.6836-86.9629L50.6836-74.0234L51.1719-69.2383L46.3867-75C45.0684-76.6113 43.457-77.6855 40.918-77.6855C36.7188-77.6855 33.5938-74.707 33.5938-70.2637C33.5938-68.3105 34.5703-66.1621 36.084-64.7949L52.832-49.4141C54.248-48.0957 56.2988-47.1191 58.6914-47.1191C61.084-47.1191 63.1348-48.0957 64.5508-49.4141L81.2988-64.7949C82.8125-66.1621 83.7891-68.3105 83.7891-70.2637C83.7891-74.707 80.6641-77.6855 76.4648-77.6855C73.9258-77.6855 72.3145-76.6113 70.9961-75L66.2109-69.2383L66.6992-74.0234L66.6992-86.9629C66.6992-92.0898 63.5254-95.459 58.6914-95.459ZM9.76562-36.1328C9.76562-31.9824 13.1348-28.5645 17.334-28.5645L100.049-28.5645C104.248-28.5645 107.617-31.9824 107.617-36.1328C107.617-40.2832 104.248-43.7012 100.049-43.7012L17.334-43.7012C13.1348-43.7012 9.76562-40.2832 9.76562-36.1328ZM58.6914 23.1934C63.5254 23.1934 66.6992 19.8242 66.6992 14.6973L66.6992 1.75781L66.2109-3.02734L70.9961 2.73438C72.3145 4.3457 73.9258 5.41992 76.4648 5.41992C80.6641 5.41992 83.7891 2.44141 83.7891-2.00195C83.7891-3.95508 82.8125-6.10352 81.2988-7.4707L64.5508-22.8516C63.1348-24.1699 61.084-25.1465 58.6914-25.1465C56.2988-25.1465 54.248-24.1699 52.832-22.8516L36.084-7.4707C34.5703-6.10352 33.5938-3.95508 33.5938-2.00195C33.5938 2.44141 36.7188 5.41992 40.918 5.41992C43.457 5.41992 45.0684 4.3457 46.3867 2.73438L51.1719-3.02734L50.6836 1.75781L50.6836 14.6973C50.6836 19.8242 53.8574 23.1934 58.6914 23.1934Z"/>
  </g>
  <g id="Heavy-S" transform="matrix(1 0 0 1 2580.99 696)">
   <path d="M55.695-92.382C51.4603-92.382 48.6553-89.4277 48.6553-84.9692L48.6553-71.5457L49.0859-66.0345L43.1599-72.9141C41.9798-74.3295 40.5183-75.2193 38.325-75.2193C34.5982-75.2193 31.8305-72.5404 31.8305-68.6387C31.8305-66.9046 32.6688-65.0442 34.0326-63.7808L50.5271-48.3077C51.8049-47.0931 53.6136-46.2433 55.695-46.2433C57.7765-46.2433 59.5968-47.0931 60.8745-48.3077L77.369-63.7808C78.7213-65.0442 79.5596-66.9046 79.5596-68.6387C79.5596-72.5404 76.8034-75.2193 73.0651-75.2193C70.8833-75.2193 69.4218-74.3295 68.2302-72.9141L62.3041-66.0345L62.7463-71.5457L62.7463-84.9692C62.7463-89.4277 59.9298-92.382 55.695-92.382ZM9.76562-36.0752C9.76562-32.3627 12.7199-29.3712 16.4696-29.3712L94.9435-29.3712C98.6817-29.3712 101.624-32.3627 101.624-36.0752C101.624-39.7877 98.6817-42.7907 94.9435-42.7907L16.4696-42.7907C12.7199-42.7907 9.76562-39.7877 9.76562-36.0752ZM55.695 20.22C59.9298 20.22 62.7463 17.2773 62.7463 12.8188L62.7463-0.616227L62.3041-6.1159L68.2302 0.752167C69.4218 2.16758 70.8833 3.05741 73.0651 3.05741C76.8034 3.05741 79.5596 0.390051 79.5596-3.51166C79.5596-5.25734 78.7213-7.11767 77.369-8.36961L60.8745-23.8427C59.5968-25.0573 57.7765-25.9186 55.695-25.9186C53.6136-25.9186 51.8049-25.0573 50.5271-23.8427L34.0326-8.36961C32.6688-7.11767 31.8305-5.25734 31.8305-3.51166C31.8305 0.390051 34.5982 3.05741 38.325 3.05741C40.5183 3.05741 41.9798 2.16758 43.1599 0.752167L49.0859-6.1159L48.6553-0.616227L48.6553 12.8188C48.6553 17.2773 51.4603 20.22 55.695 20.22Z"/>
  </g>
  <g id="Bold-S" transform="matrix(1 0 0 1 2287.63 696)">
   <path d="M52.3438-88.9404C48.7793-88.9404 46.3867-86.4502 46.3867-82.7393L46.3867-68.7744L46.7529-62.4512L39.5508-70.5811C38.5254-71.7773 37.2314-72.4609 35.4248-72.4609C32.2266-72.4609 29.8584-70.1172 29.8584-66.8213C29.8584-65.332 30.542-63.7939 31.7383-62.6465L47.9492-47.0703C49.0723-45.9717 50.6104-45.2637 52.3438-45.2637C54.0771-45.2637 55.6396-45.9717 56.7627-47.0703L72.9736-62.6465C74.1455-63.7939 74.8291-65.332 74.8291-66.8213C74.8291-70.1172 72.4854-72.4609 69.2627-72.4609C67.4805-72.4609 66.1865-71.7773 65.1367-70.5811L57.9346-62.4512L58.3252-68.7744L58.3252-82.7393C58.3252-86.4502 55.9082-88.9404 52.3438-88.9404ZM9.76562-36.0107C9.76562-32.7881 12.2559-30.2734 15.5029-30.2734L89.2334-30.2734C92.4561-30.2734 94.9219-32.7881 94.9219-36.0107C94.9219-39.2334 92.4561-41.7725 89.2334-41.7725L15.5029-41.7725C12.2559-41.7725 9.76562-39.2334 9.76562-36.0107ZM52.3438 16.8945C55.9082 16.8945 58.3252 14.4287 58.3252 10.7178L58.3252-3.27148L57.9346-9.57031L65.1367-1.46484C66.1865-0.268555 67.4805 0.415039 69.2627 0.415039C72.4854 0.415039 74.8291-1.9043 74.8291-5.2002C74.8291-6.71387 74.1455-8.25195 72.9736-9.375L56.7627-24.9512C55.6396-26.0498 54.0771-26.7822 52.3438-26.7822C50.6104-26.7822 49.0723-26.0498 47.9492-24.9512L31.7383-9.375C30.542-8.25195 29.8584-6.71387 29.8584-5.2002C29.8584-1.9043 32.2266 0.415039 35.4248 0.415039C37.2314 0.415039 38.5254-0.268555 39.5508-1.46484L46.7529-9.57031L46.3867-3.27148L46.3867 10.7178C46.3867 14.4287 48.7793 16.8945 52.3438 16.8945Z"/>
  </g>
  <g id="Semibold-S" transform="matrix(1 0 0 1 1993.23 696)">
   <path d="M50.0332-86.5677C46.9309-86.5677 44.8227-84.3974 44.8227-81.2019L44.8227-66.8638L45.1444-59.9807L37.0625-68.9726C36.1437-70.0178 34.9653-70.5592 33.4253-70.5592C30.5914-70.5592 28.4987-68.4465 28.4987-65.5683C28.4987-64.2479 29.0757-62.9319 30.1564-61.8645L46.1719-46.2172C47.1883-45.1985 48.5397-44.5883 50.0332-44.5883C51.5267-44.5883 52.9114-45.1985 53.9278-46.2172L69.9433-61.8645C70.9907-62.9319 71.5677-64.2479 71.5677-65.5683C71.5677-68.4465 69.5083-70.5592 66.6411-70.5592C65.1344-70.5592 63.956-70.0178 63.0039-68.9726L54.922-59.9807L55.2771-66.8638L55.2771-81.2019C55.2771-84.3974 53.1355-86.5677 50.0332-86.5677ZM9.76562-35.9663C9.76562-33.0813 11.9359-30.8955 14.8364-30.8955L85.2966-30.8955C88.1638-30.8955 90.3008-33.0813 90.3008-35.9663C90.3008-38.8513 88.1638-41.0704 85.2966-41.0704L14.8364-41.0704C11.9359-41.0704 9.76562-38.8513 9.76562-35.9663ZM50.0332 14.6018C53.1355 14.6018 55.2771 12.4647 55.2771 9.26924L55.2771-5.10215L54.922-11.952L63.0039-2.99336C63.956-1.94814 65.1344-1.40674 66.6411-1.40674C69.5083-1.40674 71.5677-3.48613 71.5677-6.36436C71.5677-7.71807 70.9907-9.03398 69.9433-10.0682L53.9278-25.7154C52.9114-26.7341 51.5267-27.3776 50.0332-27.3776C48.5397-27.3776 47.1883-26.7341 46.1719-25.7154L30.1564-10.0682C29.0757-9.03398 28.4987-7.71807 28.4987-6.36436C28.4987-3.48613 30.5914-1.40674 33.4253-1.40674C34.9653-1.40674 36.1437-1.94814 37.0625-2.99336L45.1444-11.952L44.8227-5.10215L44.8227 9.26924C44.8227 12.4647 46.9309 14.6018 50.0332 14.6018Z"/>
  </g>
  <g id="Medium-S" transform="matrix(1 0 0 1 1698.27 696)">
   <path d="M48.2812-84.7686C45.5293-84.7686 43.6367-82.8408 43.6367-80.0361L43.6367-65.415L43.9248-58.1074L35.1758-67.7529C34.3379-68.6836 33.2471-69.1172 31.9092-69.1172C29.3516-69.1172 27.4678-67.1797 27.4678-64.6182C27.4678-63.4258 27.9639-62.2783 28.957-61.2715L44.8242-45.5703C45.7598-44.6123 46.9697-44.0762 48.2812-44.0762C49.5928-44.0762 50.8428-44.6123 51.7783-45.5703L67.6455-61.2715C68.5986-62.2783 69.0947-63.4258 69.0947-64.6182C69.0947-67.1797 67.251-69.1172 64.6533-69.1172C63.3555-69.1172 62.2646-68.6836 61.3867-67.7529L52.6377-58.1074L52.9658-65.415L52.9658-80.0361C52.9658-82.8408 51.0332-84.7686 48.2812-84.7686ZM9.76562-35.9326C9.76562-33.3037 11.6934-31.3672 14.3311-31.3672L82.3115-31.3672C84.9092-31.3672 86.7969-33.3037 86.7969-35.9326C86.7969-38.5615 84.9092-40.5381 82.3115-40.5381L14.3311-40.5381C11.6934-40.5381 9.76562-38.5615 9.76562-35.9326ZM48.2812 12.8633C51.0332 12.8633 52.9658 10.9756 52.9658 8.1709L52.9658-6.49023L52.6377-13.7578L61.3867-4.15234C62.2646-3.22168 63.3555-2.78809 64.6533-2.78809C67.251-2.78809 69.0947-4.68555 69.0947-7.24707C69.0947-8.47949 68.5986-9.62695 67.6455-10.5938L51.7783-26.2949C50.8428-27.2529 49.5928-27.8291 48.2812-27.8291C46.9697-27.8291 45.7598-27.2529 44.8242-26.2949L28.957-10.5938C27.9639-9.62695 27.4678-8.47949 27.4678-7.24707C27.4678-4.68555 29.3516-2.78809 31.9092-2.78809C33.2471-2.78809 34.3379-3.22168 35.1758-4.15234L43.9248-13.7578L43.6367-6.49023L43.6367 8.1709C43.6367 10.9756 45.5293 12.8633 48.2812 12.8633Z"/>
  </g>
  <g id="Regular-S" transform="matrix(1 0 0 1 1403.85 696)">
   <path d="M45.9961-82.4219C43.7012-82.4219 42.0898-80.8105 42.0898-78.5156L42.0898-63.5254L42.334-55.6641L32.7148-66.1621C31.9824-66.9434 31.0059-67.2363 29.9316-67.2363C27.7344-67.2363 26.123-65.5273 26.123-63.3789C26.123-62.3535 26.5137-61.4258 27.3926-60.498L43.0664-44.7266C43.8965-43.8477 44.9219-43.4082 45.9961-43.4082C47.0703-43.4082 48.1445-43.8477 48.9746-44.7266L64.6484-60.498C65.4785-61.4258 65.8691-62.3535 65.8691-63.3789C65.8691-65.5273 64.3066-67.2363 62.0605-67.2363C61.0352-67.2363 60.0586-66.9434 59.2773-66.1621L49.6582-55.6641L49.9512-63.5254L49.9512-78.5156C49.9512-80.8105 48.291-82.4219 45.9961-82.4219ZM9.76562-35.8887C9.76562-33.5938 11.377-31.9824 13.6719-31.9824L78.418-31.9824C80.6641-31.9824 82.2266-33.5938 82.2266-35.8887C82.2266-38.1836 80.6641-39.8438 78.418-39.8438L13.6719-39.8438C11.377-39.8438 9.76562-38.1836 9.76562-35.8887ZM45.9961 10.5957C48.291 10.5957 49.9512 9.0332 49.9512 6.73828L49.9512-8.30078L49.6582-16.1133L59.2773-5.66406C60.0586-4.88281 61.0352-4.58984 62.0605-4.58984C64.3066-4.58984 65.8691-6.25 65.8691-8.39844C65.8691-9.47266 65.4785-10.4004 64.6484-11.2793L48.9746-27.0508C48.1445-27.9297 47.0703-28.418 45.9961-28.418C44.9219-28.418 43.8965-27.9297 43.0664-27.0508L27.3926-11.2793C26.5137-10.4004 26.123-9.47266 26.123-8.39844C26.123-6.25 27.7344-4.58984 29.9316-4.58984C31.0059-4.58984 31.9824-4.88281 32.7148-5.66406L42.334-16.1133L42.0898-8.30078L42.0898 6.73828C42.0898 9.0332 43.7012 10.5957 45.9961 10.5957Z"/>
  </g>
  <g id="Light-S" transform="matrix(1 0 0 1 1108.16 696)">
   <path d="M44.9819-80.772C43.2168-80.772 41.999-79.5391 41.999-77.7891L41.999-60.6797L42.1978-52.6973L31.6553-63.8613C31.0894-64.461 30.3096-64.7085 29.4624-64.7085C27.7798-64.7085 26.5469-63.4234 26.5469-61.7744C26.5469-60.9155 26.9072-60.1846 27.6045-59.4385L42.7485-44.2876C43.3667-43.6357 44.1499-43.2871 44.9819-43.2871C45.7988-43.2871 46.6157-43.6357 47.249-44.2876L62.3931-59.4385C63.0718-60.1846 63.417-60.9155 63.417-61.7744C63.417-63.4234 62.2178-64.7085 60.5015-64.7085C59.688-64.7085 58.9082-64.461 58.3086-63.8613L47.751-52.6973L47.9834-60.6797L47.9834-77.7891C47.9834-79.5391 46.7319-80.772 44.9819-80.772ZM9.76562-35.9795C9.76562-34.2446 10.9985-32.9966 12.7485-32.9966L77.2676-32.9966C78.9839-32.9966 80.1831-34.2446 80.1831-35.9795C80.1831-37.7144 78.9839-38.9961 77.2676-38.9961L12.7485-38.9961C10.9985-38.9961 9.76562-37.7144 9.76562-35.9795ZM44.9819 8.76417C46.7319 8.76417 47.9834 7.58009 47.9834 5.83009L47.9834-11.313L47.751-19.2768L58.3086-8.14646C58.9082-7.53172 59.688-7.28416 60.5015-7.28416C62.2178-7.28416 63.417-8.53563 63.417-10.1997C63.417-11.0771 63.0718-11.8081 62.3931-12.5205L47.249-27.6714C46.6157-28.3384 45.7988-28.7056 44.9819-28.7056C44.1499-28.7056 43.3667-28.3384 42.7485-27.6714L27.6045-12.5205C26.9072-11.8081 26.5469-11.0771 26.5469-10.1997C26.5469-8.53563 27.7798-7.28416 29.4624-7.28416C30.3096-7.28416 31.0894-7.53172 31.6553-8.14646L42.1978-19.2768L41.999-11.313L41.999 5.83009C41.999 7.58009 43.2168 8.76417 44.9819 8.76417Z"/>
  </g>
  <g id="Thin-S" transform="matrix(1 0 0 1 812.799 696)">
   <path d="M43.6406-78.5899C42.5762-78.5899 41.8789-77.8574 41.8789-76.8281L41.8789-56.9161L42.0176-48.7735L30.2539-60.8184C29.9082-61.1778 29.3887-61.3653 28.8418-61.3653C27.8398-61.3653 27.1074-60.6407 27.1074-59.6524C27.1074-59.0137 27.4277-58.543 27.8848-58.0371L42.3281-43.707C42.666-43.3555 43.1289-43.127 43.6406-43.127C44.1172-43.127 44.5938-43.3555 44.9668-43.707L59.4102-58.0371C59.8887-58.543 60.1739-59.0137 60.1739-59.6524C60.1739-60.6407 59.4551-61.3653 58.4395-61.3653C57.9063-61.3653 57.3867-61.1778 57.0274-60.8184L45.2286-48.7735L45.3809-56.9161L45.3809-76.8281C45.3809-77.8574 44.67-78.5899 43.6406-78.5899ZM9.76562-36.0996C9.76562-35.1055 10.4981-34.3379 11.5274-34.3379L75.7461-34.3379C76.7617-34.3379 77.4805-35.1055 77.4805-36.0996C77.4805-37.0938 76.7617-37.875 75.7461-37.875L11.5274-37.875C10.4981-37.875 9.76562-37.0938 9.76562-36.0996ZM43.6406 6.34183C44.67 6.34183 45.3809 5.65823 45.3809 4.62892L45.3809-15.2968L45.2286-23.4609L57.0274-11.4296C57.3867-11.0351 57.9063-10.8476 58.4395-10.8476C59.4551-10.8476 60.1739-11.5586 60.1739-12.582C60.1739-13.1992 59.8887-13.6699 59.4102-14.1621L44.9668-28.4922C44.5938-28.8789 44.1172-29.0859 43.6406-29.0859C43.1289-29.0859 42.666-28.8789 42.3281-28.4922L27.8848-14.1621C27.4277-13.6699 27.1074-13.1992 27.1074-12.582C27.1074-11.5586 27.8398-10.8476 28.8418-10.8476C29.3887-10.8476 29.9082-11.0351 30.2539-11.4296L42.0176-23.4609L41.8789-15.2968L41.8789 4.62892C41.8789 5.65823 42.5762 6.34183 43.6406 6.34183Z"/>
  </g>
  <g id="Ultralight-S" transform="matrix(1 0 0 1 516.78 696)">
   <path d="M42.9536-77.4722C42.2481-77.4722 41.8174-76.9961 41.8174-76.336L41.8174-54.9883L41.9253-46.7637L29.5362-59.2598C29.3032-59.4962 28.917-59.6529 28.5239-59.6529C27.8706-59.6529 27.3945-59.2154 27.3945-58.5655C27.3945-58.0396 27.6943-57.7022 28.0283-57.3194L42.1128-43.4097C42.3071-43.2119 42.606-43.0449 42.9536-43.0449C43.2559-43.0449 43.5581-43.2119 43.7979-43.4097L57.8824-57.3194C58.2584-57.7022 58.5128-58.0396 58.5128-58.5655C58.5128-59.2154 58.0401-59.6529 57.3833-59.6529C56.9937-59.6529 56.6074-59.4962 56.3711-59.2598L43.9366-46.7637L44.0479-54.9883L44.0479-76.336C44.0479-76.9961 43.6138-77.4722 42.9536-77.4722ZM9.76562-36.1611C9.76562-35.5464 10.2417-35.0249 10.9019-35.0249L74.9668-35.0249C75.6236-35.0249 76.0962-35.5464 76.0962-36.1611C76.0962-36.7759 75.6236-37.3008 74.9668-37.3008L10.9019-37.3008C10.2417-37.3008 9.76562-36.7759 9.76562-36.1611ZM42.9536 5.10112C43.6138 5.10112 44.0479 4.67386 44.0479 4.01369L44.0479-17.3373L43.9366-25.6039L56.3711-13.1113C56.6074-12.8295 56.9937-12.6728 57.3833-12.6728C58.0401-12.6728 58.5128-13.1069 58.5128-13.8022C58.5128-14.2861 58.2584-14.6235 57.8824-15.0029L43.7979-28.9126C43.5581-29.1558 43.2559-29.2808 42.9536-29.2808C42.606-29.2808 42.3071-29.1558 42.1128-28.9126L28.0283-15.0029C27.6943-14.6235 27.3945-14.2861 27.3945-13.8022C27.3945-13.1069 27.8706-12.6728 28.5239-12.6728C28.917-12.6728 29.3032-12.8295 29.5362-13.1113L41.9253-25.6039L41.8174-17.3373L41.8174 4.01369C41.8174 4.67386 42.2481 5.10112 42.9536 5.10112Z"/>
  </g>
 </g>
</svg>
