<?xml version="1.0" encoding="UTF-8"?>
<!--Generator: Apple Native CoreSVG 232.5-->
<!DOCTYPE svg
PUBLIC "-//W3C//DTD SVG 1.1//EN"
       "http://www.w3.org/Graphics/SVG/1.1/DTD/svg11.dtd">
<svg version="1.1" xmlns="http://www.w3.org/2000/svg" xmlns:xlink="http://www.w3.org/1999/xlink" width="3300" height="2200">
 <g id="Notes">
  <rect height="2200" id="artboard" style="fill:white;opacity:1" width="3300" x="0" y="0"/>
  <line style="fill:none;stroke:black;opacity:1;stroke-width:0.5;" x1="263" x2="3036" y1="292" y2="292"/>
  <text style="stroke:none;fill:black;font-family:sans-serif;font-size:13;font-weight:bold;" transform="matrix(1 0 0 1 263 322)">Weight/Scale Variations</text>
  <text style="stroke:none;fill:black;font-family:sans-serif;font-size:13;text-anchor:middle;" transform="matrix(1 0 0 1 559.711 322)">Ultralight</text>
  <text style="stroke:none;fill:black;font-family:sans-serif;font-size:13;text-anchor:middle;" transform="matrix(1 0 0 1 856.422 322)">Thin</text>
  <text style="stroke:none;fill:black;font-family:sans-serif;font-size:13;text-anchor:middle;" transform="matrix(1 0 0 1 1153.13 322)">Light</text>
  <text style="stroke:none;fill:black;font-family:sans-serif;font-size:13;text-anchor:middle;" transform="matrix(1 0 0 1 1449.84 322)">Regular</text>
  <text style="stroke:none;fill:black;font-family:sans-serif;font-size:13;text-anchor:middle;" transform="matrix(1 0 0 1 1746.56 322)">Medium</text>
  <text style="stroke:none;fill:black;font-family:sans-serif;font-size:13;text-anchor:middle;" transform="matrix(1 0 0 1 2043.27 322)">Semibold</text>
  <text style="stroke:none;fill:black;font-family:sans-serif;font-size:13;text-anchor:middle;" transform="matrix(1 0 0 1 2339.98 322)">Bold</text>
  <text style="stroke:none;fill:black;font-family:sans-serif;font-size:13;text-anchor:middle;" transform="matrix(1 0 0 1 2636.69 322)">Heavy</text>
  <text style="stroke:none;fill:black;font-family:sans-serif;font-size:13;text-anchor:middle;" transform="matrix(1 0 0 1 2933.4 322)">Black</text>
  <line style="fill:none;stroke:black;opacity:1;stroke-width:0.5;" x1="263" x2="3036" y1="1903" y2="1903"/>
  <g transform="matrix(0.2 0 0 0.2 263 1933)">
   <path d="m46.2402 4.15039c21.5332 0 39.4531-17.8711 39.4531-39.4043s-17.9688-39.4043-39.502-39.4043c-21.4844 0-39.3555 17.8711-39.3555 39.4043s17.9199 39.4043 39.4043 39.4043Zm0-7.42188c-17.7246 0-31.8848-14.209-31.8848-31.9824s14.1113-31.9824 31.8359-31.9824c17.7734 0 32.0312 14.209 32.0312 31.9824s-14.209 31.9824-31.9824 31.9824Zm-17.9688-31.9824c0 2.14844 1.51367 3.61328 3.75977 3.61328h10.498v10.5957c0 2.19727 1.46484 3.71094 3.61328 3.71094 2.24609 0 3.71094-1.51367 3.71094-3.71094v-10.5957h10.5957c2.19727 0 3.71094-1.46484 3.71094-3.61328 0-2.19727-1.51367-3.71094-3.71094-3.71094h-10.5957v-10.5469c0-2.24609-1.46484-3.75977-3.71094-3.75977-2.14844 0-3.61328 1.51367-3.61328 3.75977v10.5469h-10.498c-2.24609 0-3.75977 1.51367-3.75977 3.71094Z"/>
  </g>
  <g transform="matrix(0.2 0 0 0.2 281.506 1933)">
   <path d="m58.5449 14.5508c27.2461 0 49.8047-22.6074 49.8047-49.8047 0-27.2461-22.6074-49.8047-49.8535-49.8047-27.1973 0-49.7559 22.5586-49.7559 49.8047 0 27.1973 22.6074 49.8047 49.8047 49.8047Zm0-8.30078c-23.0469 0-41.4551-18.457-41.4551-41.5039s18.3594-41.5039 41.4062-41.5039 41.5527 18.457 41.5527 41.5039-18.457 41.5039-41.5039 41.5039Zm-22.6562-41.5039c0 2.39258 1.66016 4.00391 4.15039 4.00391h14.3555v14.4043c0 2.44141 1.66016 4.15039 4.05273 4.15039 2.44141 0 4.15039-1.66016 4.15039-4.15039v-14.4043h14.4043c2.44141 0 4.15039-1.61133 4.15039-4.00391 0-2.44141-1.70898-4.15039-4.15039-4.15039h-14.4043v-14.3555c0-2.49023-1.70898-4.19922-4.15039-4.19922-2.39258 0-4.05273 1.70898-4.05273 4.19922v14.3555h-14.3555c-2.49023 0-4.15039 1.70898-4.15039 4.15039Z"/>
  </g>
  <g transform="matrix(0.2 0 0 0.2 304.924 1933)">
   <path d="m74.8535 28.3203c34.8145 0 63.623-28.8086 63.623-63.5742 0-34.8145-28.8574-63.623-63.6719-63.623-34.7656 0-63.5254 28.8086-63.5254 63.623 0 34.7656 28.8086 63.5742 63.5742 63.5742Zm0-9.08203c-30.1758 0-54.4434-24.3164-54.4434-54.4922 0-30.2246 24.2188-54.4922 54.3945-54.4922 30.2246 0 54.541 24.2676 54.541 54.4922 0 30.1758-24.2676 54.4922-54.4922 54.4922Zm-28.8574-54.4922c0 2.58789 1.85547 4.39453 4.58984 4.39453h19.7266v19.7754c0 2.68555 1.85547 4.58984 4.44336 4.58984 2.68555 0 4.54102-1.85547 4.54102-4.58984v-19.7754h19.7754c2.68555 0 4.58984-1.80664 4.58984-4.39453 0-2.73438-1.85547-4.58984-4.58984-4.58984h-19.7754v-19.7266c0-2.73438-1.85547-4.63867-4.54102-4.63867-2.58789 0-4.44336 1.9043-4.44336 4.63867v19.7266h-19.7266c-2.73438 0-4.58984 1.85547-4.58984 4.58984Z"/>
  </g>
  <text style="stroke:none;fill:black;font-family:sans-serif;font-size:13;font-weight:bold;" transform="matrix(1 0 0 1 263 1953)">Design Variations</text>
  <text style="stroke:none;fill:black;font-family:sans-serif;font-size:13;" transform="matrix(1 0 0 1 263 1971)">Symbols are supported in up to nine weights and three scales.</text>
  <text style="stroke:none;fill:black;font-family:sans-serif;font-size:13;" transform="matrix(1 0 0 1 263 1989)">For optimal layout with text and other symbols, vertically align</text>
  <text style="stroke:none;fill:black;font-family:sans-serif;font-size:13;" transform="matrix(1 0 0 1 263 2007)">symbols with the adjacent text.</text>
  <line style="fill:none;stroke:#00AEEF;stroke-width:0.5;opacity:1.0;" x1="776" x2="776" y1="1919" y2="1933"/>
  <g transform="matrix(0.2 0 0 0.2 776 1933)">
   <path d="m16.5527 0.78125c2.58789 0 3.85742-0.976562 4.78516-3.71094l6.29883-17.2363h28.8086l6.29883 17.2363c0.927734 2.73438 2.19727 3.71094 4.73633 3.71094 2.58789 0 4.24805-1.5625 4.24805-4.00391 0-0.830078-0.146484-1.61133-0.537109-2.63672l-22.9004-60.9863c-1.12305-2.97852-3.125-4.49219-6.25-4.49219-3.02734 0-5.07812 1.46484-6.15234 4.44336l-22.9004 61.084c-0.390625 1.02539-0.537109 1.80664-0.537109 2.63672 0 2.44141 1.5625 3.95508 4.10156 3.95508Zm13.4766-28.3691 11.8652-32.8613h0.244141l11.8652 32.8613Z"/>
  </g>
  <line style="fill:none;stroke:#00AEEF;stroke-width:0.5;opacity:1.0;" x1="792.836" x2="792.836" y1="1919" y2="1933"/>
  <text style="stroke:none;fill:black;font-family:sans-serif;font-size:13;font-weight:bold;" transform="matrix(1 0 0 1 776 1953)">Margins</text>
  <text style="stroke:none;fill:black;font-family:sans-serif;font-size:13;" transform="matrix(1 0 0 1 776 1971)">Leading and trailing margins on the left and right side of each symbol</text>
  <text style="stroke:none;fill:black;font-family:sans-serif;font-size:13;" transform="matrix(1 0 0 1 776 1989)">can be adjusted by modifying the x-location of the margin guidelines.</text>
  <text style="stroke:none;fill:black;font-family:sans-serif;font-size:13;" transform="matrix(1 0 0 1 776 2007)">Modifications are automatically applied proportionally to all</text>
  <text style="stroke:none;fill:black;font-family:sans-serif;font-size:13;" transform="matrix(1 0 0 1 776 2025)">scales and weights.</text>
  <g transform="matrix(0.2 0 0 0.2 1289 1933)">
   <path d="m14.209 9.32617 8.49609 8.54492c4.29688 4.3457 9.22852 4.05273 13.8672-1.07422l53.4668-58.9355-4.83398-4.88281-53.0762 58.3984c-1.75781 2.00195-3.41797 2.49023-5.76172 0.146484l-5.85938-5.81055c-2.34375-2.29492-1.80664-4.00391 0.195312-5.81055l57.373-54.0039-4.88281-4.83398-57.959 54.4434c-4.93164 4.58984-5.32227 9.47266-1.02539 13.8184Zm32.0801-90.9668c-2.09961 2.05078-2.24609 4.93164-1.07422 6.88477 1.17188 1.80664 3.4668 2.97852 6.68945 2.14844 7.32422-1.70898 14.9414-2.00195 22.0703 2.68555l-2.92969 7.27539c-1.70898 4.15039-0.830078 7.08008 1.85547 9.81445l11.4746 11.5723c2.44141 2.44141 4.49219 2.53906 7.32422 2.05078l5.32227-0.976562 3.32031 3.36914-0.195312 2.7832c-0.195312 2.49023 0.439453 4.39453 2.88086 6.78711l3.80859 3.71094c2.39258 2.39258 5.46875 2.53906 7.8125 0.195312l14.5508-14.5996c2.34375-2.34375 2.24609-5.32227-0.146484-7.71484l-3.85742-3.80859c-2.39258-2.39258-4.24805-3.17383-6.64062-2.97852l-2.88086 0.244141-3.22266-3.17383 1.2207-5.61523c0.634766-2.83203-0.146484-5.0293-3.07617-7.95898l-10.9863-10.9375c-16.6992-16.6016-38.8672-16.2109-53.3203-1.75781Zm7.4707 1.85547c12.1582-8.88672 28.6133-7.37305 39.7461 3.75977l12.1582 12.0605c1.17188 1.17188 1.36719 2.09961 1.02539 3.80859l-1.61133 7.42188 7.51953 7.42188 4.93164-0.292969c1.26953-0.0488281 1.66016 0.0488281 2.63672 1.02539l2.88086 2.88086-12.207 12.207-2.88086-2.88086c-0.976562-0.976562-1.12305-1.36719-1.07422-2.68555l0.341797-4.88281-7.4707-7.42188-7.61719 1.26953c-1.61133 0.341797-2.34375 0.195312-3.56445-0.976562l-10.0098-10.0098c-1.26953-1.17188-1.41602-2.00195-0.634766-3.85742l4.39453-10.4492c-7.8125-7.27539-17.9688-10.4004-28.125-7.42188-0.78125 0.195312-1.07422-0.439453-0.439453-0.976562Z"/>
  </g>
  <text style="stroke:none;fill:black;font-family:sans-serif;font-size:13;font-weight:bold;" transform="matrix(1 0 0 1 1289 1953)">Exporting</text>
  <text style="stroke:none;fill:black;font-family:sans-serif;font-size:13;" transform="matrix(1 0 0 1 1289 1971)">Symbols should be outlined when exporting to ensure the</text>
  <text style="stroke:none;fill:black;font-family:sans-serif;font-size:13;" transform="matrix(1 0 0 1 1289 1989)">design is preserved when submitting to Xcode.</text>
  <text id="template-version" style="stroke:none;fill:black;font-family:sans-serif;font-size:13;text-anchor:end;" transform="matrix(1 0 0 1 3036 1933)">Template v.2.0</text>
  <text style="stroke:none;fill:black;font-family:sans-serif;font-size:13;text-anchor:end;" transform="matrix(1 0 0 1 3036 1951)">Requires Xcode 12 or greater</text>
  <text id="descriptive-name" style="stroke:none;fill:black;font-family:sans-serif;font-size:13;text-anchor:end;" transform="matrix(1 0 0 1 3036 1969)">Generated from chevron.up</text>
  <text style="stroke:none;fill:black;font-family:sans-serif;font-size:13;text-anchor:end;" transform="matrix(1 0 0 1 3036 1987)">Typeset at 100.0 points</text>
  <text style="stroke:none;fill:black;font-family:sans-serif;font-size:13;" transform="matrix(1 0 0 1 263 726)">Small</text>
  <text style="stroke:none;fill:black;font-family:sans-serif;font-size:13;" transform="matrix(1 0 0 1 263 1156)">Medium</text>
  <text style="stroke:none;fill:black;font-family:sans-serif;font-size:13;" transform="matrix(1 0 0 1 263 1586)">Large</text>
 </g>
 <g id="Guides">
  <g id="H-reference" style="fill:#27AAE1;stroke:none;" transform="matrix(1 0 0 1 339 696)">
   <path d="M0.993654 0L3.63775 0L29.3281-67.1323L30.0303-67.1323L30.0303-70.459L28.1226-70.459ZM11.6885-24.4799L46.9815-24.4799L46.2315-26.7285L12.4385-26.7285ZM55.1196 0L57.7637 0L30.6382-70.459L29.4326-70.459L29.4326-67.1323Z"/>
  </g>
  <line id="Baseline-S" style="fill:none;stroke:#27AAE1;opacity:1;stroke-width:0.5;" x1="263" x2="3036" y1="696" y2="696"/>
  <line id="Capline-S" style="fill:none;stroke:#27AAE1;opacity:1;stroke-width:0.5;" x1="263" x2="3036" y1="625.541" y2="625.541"/>
  <g id="H-reference" style="fill:#27AAE1;stroke:none;" transform="matrix(1 0 0 1 339 1126)">
   <path d="M0.993654 0L3.63775 0L29.3281-67.1323L30.0303-67.1323L30.0303-70.459L28.1226-70.459ZM11.6885-24.4799L46.9815-24.4799L46.2315-26.7285L12.4385-26.7285ZM55.1196 0L57.7637 0L30.6382-70.459L29.4326-70.459L29.4326-67.1323Z"/>
  </g>
  <line id="Baseline-M" style="fill:none;stroke:#27AAE1;opacity:1;stroke-width:0.5;" x1="263" x2="3036" y1="1126" y2="1126"/>
  <line id="Capline-M" style="fill:none;stroke:#27AAE1;opacity:1;stroke-width:0.5;" x1="263" x2="3036" y1="1055.54" y2="1055.54"/>
  <g id="H-reference" style="fill:#27AAE1;stroke:none;" transform="matrix(1 0 0 1 339 1556)">
   <path d="M0.993654 0L3.63775 0L29.3281-67.1323L30.0303-67.1323L30.0303-70.459L28.1226-70.459ZM11.6885-24.4799L46.9815-24.4799L46.2315-26.7285L12.4385-26.7285ZM55.1196 0L57.7637 0L30.6382-70.459L29.4326-70.459L29.4326-67.1323Z"/>
  </g>
  <line id="Baseline-L" style="fill:none;stroke:#27AAE1;opacity:1;stroke-width:0.5;" x1="263" x2="3036" y1="1556" y2="1556"/>
  <line id="Capline-L" style="fill:none;stroke:#27AAE1;opacity:1;stroke-width:0.5;" x1="263" x2="3036" y1="1485.54" y2="1485.54"/>
  <line id="left-margin" style="fill:none;stroke:#00AEEF;stroke-width:0.5;opacity:1.0;" x1="1394.98" x2="1394.98" y1="1030.79" y2="1150.12"/>
  <line id="right-margin" style="fill:none;stroke:#00AEEF;stroke-width:0.5;opacity:1.0;" x1="1504.71" x2="1504.71" y1="1030.79" y2="1150.12"/>
 </g>
 <g id="Symbols">
  <g id="Black-L" transform="matrix(1 0 0 1 2857.72 1556)">
   <path d="M19.6303-21.7302C17.269-19.2717 16.084-16.4363 16.084-13.03C16.084-6.02375 21.8075-0.24061 28.6981-0.24061C32.2189-0.24061 35.4667-1.7141 38.098-4.42581L77.9255-45.5617L73.665-45.5617L113.316-4.42581C115.949-1.6557 119.237-0.24061 122.68-0.24061C129.569-0.24061 135.273-6.02375 135.273-13.03C135.273-16.4947 134.147-19.3289 131.728-21.729L86.3754-68.06C83.0177-71.401 79.8074-72.8597 75.7175-72.9181C71.6651-72.9181 68.4173-71.4606 65.0607-68.0612Z"/>
  </g>
  <g id="Heavy-L" transform="matrix(1 0 0 1 2562.31 1556)">
   <path d="M19.1737-20.4362C17.1367-18.3345 16.084-15.8543 16.084-12.8952C16.084-6.82429 21.0084-1.84959 26.9957-1.84959C30.0328-1.84959 32.8422-3.10856 35.0666-5.41331L76.8546-48.5492L72.0883-48.5492L113.737-5.41331C115.967-3.06394 118.831-1.84959 121.799-1.84959C127.78-1.84959 132.68-6.82429 132.68-12.8952C132.68-15.8989 131.678-18.3735 129.596-20.4306L83.5054-67.6318C80.693-70.46 77.898-71.7168 74.4168-71.7614C70.95-71.7614 68.1406-70.5102 65.3338-67.6374Z"/>
  </g>
  <g id="Bold-L" transform="matrix(1 0 0 1 2267.31 1556)">
   <path d="M18.6201-18.7558C16.9752-17.0773 16.084-15.0426 16.084-12.6294C16.084-7.70375 20.0396-3.70568 24.92-3.70568C27.3652-3.70568 29.6441-4.70326 31.3837-6.52331L75.3167-52.0143L70.1291-52.0143L113.961-6.52331C115.714-4.67406 118.056-3.70568 120.447-3.70568C125.314-3.70568 129.245-7.70375 129.245-12.6294C129.245-15.0718 128.396-17.0933 126.722-18.7426L79.9254-66.96C77.7445-69.1877 75.4568-70.2135 72.6914-70.2427C69.9173-70.2427 67.6384-69.2302 65.4707-66.9732Z"/>
  </g>
  <g id="Semibold-L" transform="matrix(1 0 0 1 1971.79 1556)">
   <path d="M18.2384-17.5974C16.8639-16.2106 16.084-14.483 16.084-12.4461C16.084-8.31004 19.3717-4.98526 23.4891-4.98526C25.5262-4.98526 27.4393-5.80264 28.8448-7.28855L74.2565-54.4031L68.7784-54.4031L114.116-7.28855C115.54-5.78406 117.521-4.98526 119.515-4.98526C123.614-4.98526 126.877-8.31004 126.877-12.4461C126.877-14.5016 126.134-16.2107 124.741-17.5789L77.4575-66.4969C75.7118-68.3107 73.7739-69.1771 71.502-69.1957C69.2053-69.1957 67.2922-68.3477 65.5651-66.5153Z"/>
  </g>
  <g id="Medium-L" transform="matrix(1 0 0 1 1675.97 1556)">
   <path d="M17.949-16.719C16.7796-15.5535 16.084-14.0587 16.084-12.3071C16.084-8.76976 18.8653-5.95549 22.4041-5.95549C24.1318-5.95549 25.7675-6.63623 26.9197-7.86878L73.4526-56.2144L67.7542-56.2144L114.233-7.86878C115.408-6.62572 117.116-5.95549 118.808-5.95549C122.324-5.95549 125.081-8.76976 125.081-12.3071C125.081-14.0693 124.418-15.5415 123.238-16.6965L75.5861-66.1457C74.1705-67.6456 72.4979-68.3913 70.6001-68.4018C68.6655-68.4018 67.0297-67.6786 65.6366-66.1682Z"/>
  </g>
  <g id="Regular-L" transform="matrix(1 0 0 1 1380.43 1556)">
   <path d="M17.5716-15.5733C16.6695-14.6963 16.084-13.5053 16.084-12.1258C16.084-9.36939 18.2047-7.221 20.9888-7.221C22.313-7.221 23.587-7.72353 24.4086-8.6256L72.404-58.577L66.4184-58.577L114.386-8.6256C115.235-7.72353 116.587-7.221 117.886-7.221C120.643-7.221 122.738-9.36939 122.738-12.1258C122.738-13.5053 122.181-14.6687 121.279-15.5456L73.1452-65.6877C72.1602-66.7782 70.8335-67.3663 69.4238-67.3663C67.9613-67.3663 66.6873-66.8059 65.7299-65.7153Z"/>
  </g>
  <g id="Light-L" transform="matrix(1 0 0 1 1085.63 1556)">
   <path d="M17.2662-13.9129C16.5741-13.2077 16.084-12.3602 16.084-11.3052C16.084-9.25488 17.6703-7.62179 19.7674-7.62179C20.7289-7.62179 21.7166-7.97163 22.3283-8.66377L69.9802-59.4549L65.0252-59.4549L112.63-8.66377C113.289-7.97163 114.297-7.62179 115.272-7.62179C117.322-7.62179 118.921-9.25488 118.921-11.3052C118.921-12.3602 118.478-13.1609 117.786-13.8661L70.5115-64.3135C69.6791-65.2132 68.6577-65.7631 67.4962-65.7631C66.3009-65.7631 65.3132-65.26 64.5276-64.3603Z"/>
  </g>
  <g id="Thin-L" transform="matrix(1 0 0 1 791.444 1556)">
   <path d="M16.8623-11.7168C16.4478-11.2388 16.084-10.8457 16.084-10.2198C16.084-9.10342 16.9636-8.15187 18.1519-8.15187C18.6338-8.15187 19.2429-8.29978 19.577-8.71426L66.7745-60.616L63.1825-60.616L110.308-8.71426C110.714-8.29978 111.268-8.15187 111.814-8.15187C112.93-8.15187 113.873-9.10342 113.873-10.2198C113.873-10.8457 113.581-11.1668 113.167-11.6448L67.0281-62.4961C66.3977-63.1434 65.7802-63.6428 64.9467-63.6428C64.1048-63.6428 63.4958-63.2154 62.9373-62.5681Z"/>
  </g>
  <g id="Ultralight-L" transform="matrix(1 0 0 1 496.025 1556)">
   <path d="M16.6555-10.592C16.3832-10.2304 16.084-10.07 16.084-9.66383C16.084-9.02585 16.6016-8.42337 17.3244-8.42337C17.5608-8.42337 17.9759-8.46785 18.1677-8.74011L65.1325-61.2107L62.2387-61.2107L109.119-8.74011C109.395-8.46785 109.717-8.42337 110.042-8.42337C110.68-8.42337 111.287-9.02585 111.287-9.66383C111.287-10.07 111.073-10.1455 110.801-10.5071L65.2439-61.5652C64.7169-62.0832 64.3063-62.5568 63.6409-62.5568C62.98-62.5568 62.5649-62.1682 62.1228-61.6501Z"/>
  </g>
  <g id="Black-M" transform="matrix(1 0 0 1 2873.91 1126)">
   <path d="M15.5595-25.6581C13.4799-23.4701 12.4609-21.0147 12.4609-18.0353C12.4609-11.8991 17.5096-6.79363 23.5313-6.79363C26.6254-6.79363 29.4797-8.09889 31.8396-10.5211L60.9641-40.7856L58.2377-40.7856L87.1913-10.5211C89.5509-8.0418 92.4164-6.79363 95.4477-6.79363C101.47-6.79363 106.513-11.8991 106.513-18.0353C106.513-21.0718 105.55-23.5275 103.414-25.6584L69.0285-60.8466C65.9791-63.8499 63.1764-65.1482 59.5182-65.2053C55.9115-65.2053 53.0573-63.9067 50.0076-60.8463Z"/>
  </g>
  <g id="Heavy-M" transform="matrix(1 0 0 1 2578.29 1126)">
   <path d="M15.1413-24.5463C13.3593-22.6912 12.4609-20.5513 12.4609-17.9792C12.4609-12.6922 16.7777-8.32955 21.9797-8.32955C24.6346-8.32955 27.0866-9.43918 29.0681-11.4829L60.1409-43.6252L56.8249-43.6252L87.7645-11.4829C89.7482-9.39556 92.2308-8.32955 94.8279-8.32955C100.028-8.32955 104.33-12.6922 104.33-17.9792C104.33-20.595 103.478-22.7326 101.652-24.5441L66.4657-60.5547C63.9354-63.0743 61.5105-64.1789 58.4245-64.2225C55.3657-64.2225 52.9136-63.1202 50.3855-60.557Z"/>
  </g>
  <g id="Bold-M" transform="matrix(1 0 0 1 2282.8 1126)">
   <path d="M14.6735-23.3027C13.2244-21.82 12.4609-20.033 12.4609-17.9165C12.4609-13.5794 15.959-10.0477 20.2441-10.0477C22.4075-10.0477 24.4097-10.9385 25.9677-12.5588L59.2199-46.8016L55.2444-46.8016L88.4058-12.5588C89.969-10.9099 92.0233-10.0477 94.1346-10.0477C98.4146-10.0477 101.889-13.5794 101.889-17.9165C101.889-20.0616 101.159-21.8434 99.6818-23.2975L63.599-60.2282C61.6492-62.2066 59.647-63.0945 57.2011-63.123C54.7551-63.123 52.7529-62.2403 50.8083-60.2333Z"/>
  </g>
  <g id="Semibold-M" transform="matrix(1 0 0 1 1986.93 1126)">
   <path d="M14.3509-22.4453C13.1314-21.2194 12.4609-19.6757 12.4609-17.8733C12.4609-14.1911 15.3946-11.2322 19.0476-11.2322C20.8721-11.2322 22.5642-11.9721 23.8303-13.3006L58.585-48.9914L54.1548-48.9914L88.8479-13.3006C90.1212-11.9539 91.8802-11.2322 93.6566-11.2322C97.3025-11.2322 100.206-14.1911 100.206-17.8733C100.206-19.6939 99.561-21.2304 98.3233-22.4382L61.6227-60.0031C60.0732-61.6085 58.3622-62.3469 56.3576-62.3651C54.3342-62.3651 52.6421-61.6338 51.0997-60.0102Z"/>
  </g>
  <g id="Medium-M" transform="matrix(1 0 0 1 1690.86 1126)">
   <path d="M14.1064-21.7952C13.0609-20.7639 12.4609-19.4048 12.4609-17.8405C12.4609-14.6549 14.9667-12.1303 18.1403-12.1303C19.708-12.1303 21.1648-12.7558 22.2097-13.863L58.1036-50.6517L53.3287-50.6517L89.1831-13.863C90.2366-12.7455 91.7717-12.1303 93.2942-12.1303C96.4593-12.1303 98.9302-14.6549 98.9302-17.8405C98.9302-19.4151 98.3491-20.7656 97.2933-21.7866L60.1241-59.8324C58.8781-61.155 57.3881-61.7801 55.7181-61.7904C54.015-61.7904 52.5581-61.1739 51.3207-59.841Z"/>
  </g>
  <g id="Regular-M" transform="matrix(1 0 0 1 1394.98 1126)">
   <path d="M13.7874-20.9472C12.9689-20.1699 12.4609-19.0514 12.4609-17.7978C12.4609-15.2598 14.4085-13.3017 16.957-13.3017C18.1895-13.3017 19.3396-13.7781 20.0958-14.5966L57.4756-52.8175L52.2511-52.8175L89.6203-14.5966C90.3871-13.7781 91.6302-13.3017 92.8215-13.3017C95.3594-13.3017 97.2658-15.2598 97.2658-17.7978C97.2658-19.0514 96.7683-20.1593 95.9498-20.9366L58.1695-59.6098C57.3194-60.5634 56.1175-61.0408 54.884-61.0408C53.5987-61.0408 52.4485-60.574 51.6089-59.6203Z"/>
  </g>
  <g id="Light-M" transform="matrix(1 0 0 1 1099.98 1126)">
   <path d="M13.5137-19.4585C12.8834-18.8352 12.4609-18.0248 12.4609-17.062C12.4609-15.1572 13.9294-13.6611 15.8619-13.6611C16.7693-13.6611 17.6628-14.0005 18.2307-14.6308L55.3026-53.6046L51.002-53.6046L88.0461-14.6308C88.6418-14.0005 89.5769-13.6611 90.4773-13.6611C92.3821-13.6611 93.8436-15.1572 93.8436-17.062C93.8436-18.0248 93.4488-18.8076 92.8185-19.4309L55.8082-58.3778C55.095-59.1603 54.1668-59.6034 53.1557-59.6034C52.11-59.6034 51.2165-59.188 50.5309-58.4054Z"/>
  </g>
  <g id="Thin-M" transform="matrix(1 0 0 1 805.533 1126)">
   <path d="M13.1516-17.4897C12.7702-17.0701 12.4609-16.6669 12.4609-16.0889C12.4609-15.0214 13.2957-14.1363 14.4135-14.1363C14.891-14.1363 15.445-14.2947 15.764-14.6761L52.4285-54.6456L49.3499-54.6456L85.9641-14.6761C86.3334-14.2947 86.8612-14.1363 87.3769-14.1363C88.4444-14.1363 89.3175-15.0214 89.3175-16.0889C89.3175-16.6669 89.0585-17.0198 88.6771-17.4394L52.6852-56.7484C52.153-57.3046 51.587-57.7025 50.8701-57.7025C50.1411-57.7025 49.5871-57.3549 49.1052-56.7987Z"/>
  </g>
  <g id="Ultralight-M" transform="matrix(1 0 0 1 509.981 1126)">
   <path d="M12.9661-16.4812C12.7123-16.1659 12.4609-15.9714 12.4609-15.5905C12.4609-14.9518 12.9712-14.3797 13.6717-14.3797C13.9289-14.3797 14.309-14.4454 14.5006-14.6993L50.9564-55.1788L48.5038-55.1788L84.8977-14.6993C85.1511-14.4454 85.4702-14.3797 85.7889-14.3797C86.4275-14.3797 86.9992-14.9518 86.9992-15.5905C86.9992-15.9714 86.8098-16.104 86.5559-16.4194L51.0856-55.9138C50.6461-56.3541 50.2656-56.7288 49.6993-56.7288C49.1327-56.7288 48.7526-56.416 48.375-55.9757Z"/>
  </g>
  <g id="Black-S" transform="matrix(1 0 0 1 2886.55 696)">
   <path d="M12.3047-27.9785C10.5957-26.1719 9.76562-24.1699 9.76562-21.7285C9.76562-16.6992 13.916-12.5 18.8477-12.5C21.3867-12.5 23.7305-13.5742 25.6836-15.5762L47.9004-38.7695L45.9961-38.7695L68.0664-15.5762C70.0195-13.5254 72.3633-12.5 74.8535-12.5C79.7852-12.5 83.9355-16.6992 83.9355-21.7285C83.9355-24.2188 83.1543-26.2207 81.3965-27.9785L54.7363-55.3223C52.1973-57.8125 49.9023-58.8867 46.875-58.9355C43.8965-58.9355 41.5527-57.8613 39.0137-55.3223Z"/>
  </g>
  <g id="Heavy-S" transform="matrix(1 0 0 1 2590.55 696)">
   <path d="M11.982-27.2179C10.5035-25.6763 9.76562-23.9049 9.76562-21.7746C9.76562-17.3907 13.3513-13.7677 17.6606-13.7677C19.8655-13.7677 21.8981-14.6921 23.5516-16.3944L47.474-41.0975L44.9474-41.0975L68.7579-16.3944C70.4114-14.6548 72.467-13.7677 74.623-13.7677C78.9323-13.7677 82.5065-17.3907 82.5065-21.7746C82.5065-23.9422 81.8059-25.7136 80.2901-27.2179L52.8463-55.2301C50.7337-57.3285 48.7268-58.2413 46.1605-58.2787C43.6199-58.2787 41.5873-57.3658 39.4747-55.2301Z"/>
  </g>
  <g id="Bold-S" transform="matrix(1 0 0 1 2294.64 696)">
   <path d="M11.6211-26.3672C10.4004-25.1221 9.76562-23.6084 9.76562-21.8262C9.76562-18.1641 12.7197-15.1855 16.333-15.1855C18.1641-15.1855 19.8486-15.9424 21.167-17.3096L46.9971-43.7012L43.7744-43.7012L69.5312-17.3096C70.8496-15.918 72.583-15.1855 74.3652-15.1855C77.9785-15.1855 80.9082-18.1641 80.9082-21.8262C80.9082-23.6328 80.2979-25.1465 79.0527-26.3672L50.7324-55.127C49.0967-56.7871 47.4121-57.5195 45.3613-57.5439C43.3105-57.5439 41.626-56.8115 39.9902-55.127Z"/>
  </g>
  <g id="Semibold-S" transform="matrix(1 0 0 1 1998.48 696)">
   <path d="M11.3723-25.7807C10.3293-24.7399 9.76562-23.404 9.76562-21.8617C9.76562-18.6973 12.2843-16.1631 15.4177-16.1631C16.991-16.1631 18.4356-16.8044 19.5229-17.9405L46.6683-45.4963L42.9657-45.4963L70.0645-17.9405C71.1518-16.7889 72.663-16.1631 74.1875-16.1631C77.3209-16.1631 79.8063-18.6973 79.8063-21.8617C79.8063-23.4195 79.2581-24.7555 78.1996-25.7807L49.275-55.0559C47.9681-56.4139 46.5057-57.0219 44.8104-57.0374C43.0973-57.0374 41.6526-56.4294 40.3457-55.0559Z"/>
  </g>
  <g id="Medium-S" transform="matrix(1 0 0 1 1702.19 696)">
   <path d="M11.1836-25.3359C10.2754-24.4502 9.76562-23.249 9.76562-21.8887C9.76562-19.1016 11.9541-16.9043 14.7236-16.9043C16.1016-16.9043 17.3643-17.458 18.2764-18.4189L46.4189-46.8574L42.3525-46.8574L70.4688-18.4189C71.3809-17.4492 72.7236-16.9043 74.0527-16.9043C76.8223-16.9043 78.9707-19.1016 78.9707-21.8887C78.9707-23.2578 78.4697-24.459 77.5527-25.3359L48.1699-55.002C47.1123-56.1309 45.8184-56.6445 44.3926-56.6533C42.9355-56.6533 41.6729-56.1396 40.6152-55.002Z"/>
  </g>
  <g id="Regular-S" transform="matrix(1 0 0 1 1406.02 696)">
   <path d="M10.9375-24.7559C10.2051-24.0723 9.76562-23.0469 9.76562-21.9238C9.76562-19.6289 11.5234-17.8711 13.8184-17.8711C14.9414-17.8711 15.9668-18.3105 16.6504-19.043L46.0938-48.6328L41.5527-48.6328L70.9961-19.043C71.6797-18.3105 72.8027-17.8711 73.877-17.8711C76.1719-17.8711 77.8809-19.6289 77.8809-21.9238C77.8809-23.0469 77.4414-24.0723 76.709-24.7559L46.7285-54.9316C45.9961-55.7617 44.9219-56.1523 43.8477-56.1523C42.7246-56.1523 41.6992-55.7617 40.9668-54.9316Z"/>
  </g>
  <g id="Light-S" transform="matrix(1 0 0 1 1110.82 696)">
   <path d="M10.6953-23.439C10.1294-22.8916 9.76562-22.1387 9.76562-21.273C9.76562-19.5381 11.0996-18.189 12.8496-18.189C13.6851-18.189 14.4834-18.5073 15.0005-19.0732L44.1714-49.3291L40.4478-49.3291L69.6035-19.0732C70.1358-18.5073 70.9863-18.189 71.8032-18.189C73.5381-18.189 74.8535-19.5381 74.8535-21.273C74.8535-22.1387 74.5049-22.8765 73.939-23.4238L44.6397-53.8418C44.0283-54.5205 43.1963-54.8809 42.3189-54.8809C41.4077-54.8809 40.6094-54.5357 40.0132-53.8569Z"/>
  </g>
  <g id="Thin-S" transform="matrix(1 0 0 1 816.115 696)">
   <path d="M10.375-21.6973C10.0293-21.3301 9.76562-20.9375 9.76562-20.4121C9.76562-19.418 10.5391-18.6094 11.5684-18.6094C12.0235-18.6094 12.5215-18.7676 12.8184-19.1133L41.6289-50.25L38.9863-50.25L67.7617-19.1133C68.0938-18.7676 68.584-18.6094 69.0606-18.6094C70.0547-18.6094 70.8497-19.418 70.8497-20.4121C70.8497-20.9375 70.6211-21.2949 70.2754-21.6621L41.877-52.4004C41.4258-52.8789 40.9141-53.1992 40.2969-53.1992C39.666-53.1992 39.168-52.9141 38.752-52.4356Z"/>
  </g>
  <g id="Ultralight-S" transform="matrix(1 0 0 1 520.429 696)">
   <path d="M10.2109-20.8052C9.97803-20.5303 9.76562-20.3223 9.76562-19.9712C9.76562-19.3564 10.252-18.8247 10.9121-18.8247C11.1724-18.8247 11.5166-18.9009 11.7007-19.1338L40.3267-50.7217L38.2378-50.7217L66.8184-19.1338C67.0479-18.9009 67.3536-18.8247 67.6558-18.8247C68.2706-18.8247 68.7989-19.3564 68.7989-19.9712C68.7989-20.3223 68.6319-20.4849 68.399-20.7598L40.462-51.6621C40.0928-52.0381 39.7452-52.3379 39.2613-52.3379C38.774-52.3379 38.4297-52.0835 38.106-51.7075Z"/>
  </g>
 </g>
</svg>
