<?xml version="1.0" encoding="UTF-8" standalone="no"?>
<!-- Generator: Adobe Illustrator 28.0.0, SVG Export Plug-In . SVG Version: 6.00 Build 0)  -->

<svg version="1.1" id="layer1" x="0px" y="0px" viewBox="0 0 22 16" style="enable-background:new 0 0 22 16" xml:space="preserve" sodipodi:docname="rime.svg" inkscape:version="1.3 (0e150ed, 2023-07-21)" xmlns:inkscape="http://www.inkscape.org/namespaces/inkscape" xmlns:sodipodi="http://sodipodi.sourceforge.net/DTD/sodipodi-0.dtd" xmlns="http://www.w3.org/2000/svg" xmlns:svg="http://www.w3.org/2000/svg"><defs id="defs1"><inkscape:path-effect effect="fillet_chamfer" id="path-effect2" is_visible="true" lpeversion="1" nodesatellites_param="F,0,0,1,0,0.232,0,1 @ F,0,0,1,0,0.182,0,1 @ F,0,0,1,0,0.257,0,1 @ F,0,0,1,0,0,0,1 @ F,0,0,1,0,1.74,0,1 @ F,0,0,1,0,0.185,0,1 @ F,0,0,1,0,0.197,0,1 @ F,0,0,1,0,0.818,0,1 @ F,0,0,1,0,0.28,0,1 @ F,0,0,1,0,0.187,0,1 @ F,0,0,1,0,0.184,0,1 @ F,0,0,1,0,0.236,0,1 @ F,0,0,1,0,0.804,0,1 @ F,0,0,1,0,0.232,0,1 @ F,0,0,1,0,0.166,0,1 @ F,0,0,1,0,1.82,0,1 @ F,0,0,1,0,0,0,1 @ F,0,0,1,0,0.264,0,1 @ F,0,0,1,0,0.177,0,1 @ F,0,0,1,0,0.196,0,1" radius="0" unit="px" method="auto" mode="F" chamfer_steps="1" flexible="false" use_knot_distance="true" apply_no_radius="true" apply_with_radius="true" only_selected="false" hide_knots="false" /><inkscape:path-effect effect="fillet_chamfer" id="path-effect1" is_visible="true" lpeversion="1" nodesatellites_param="F,0,0,1,0,0,0,1 @ F,0,0,1,0,0,0,1 @ F,0,0,1,0,0,0,1 @ F,0,0,1,0,0,0,1 @ F,0,0,1,0,0,0,1 @ F,0,0,1,0,0,0,1 @ F,0,0,1,0,0,0,1 @ F,0,0,1,0,0,0,1 @ F,0,0,1,0,0,0,1 @ F,0,0,1,0,0,0,1 @ F,0,0,1,0,0,0,1 @ F,0,0,1,0,0,0,1 @ F,0,0,1,0,0,0,1 @ F,0,0,1,0,0,0,1 @ F,0,0,1,0,0,0,1 @ F,0,0,1,0,0,0,1 @ F,0,0,1,0,0,0,1 @ F,0,0,1,0,0,0,1 @ F,0,0,1,0,0,0,1 @ F,0,0,1,0,0,0,1" radius="0" unit="px" method="auto" mode="F" chamfer_steps="1" flexible="false" use_knot_distance="true" apply_no_radius="true" apply_with_radius="true" only_selected="false" hide_knots="false" /></defs><sodipodi:namedview id="namedview1" pagecolor="#ffffff" bordercolor="#666666" borderopacity="1.0" inkscape:showpageshadow="2" inkscape:pageopacity="0.0" inkscape:pagecheckerboard="0" inkscape:deskcolor="#d1d1d1" inkscape:zoom="44.7" inkscape:cx="9.11" inkscape:cy="6.24" inkscape:current-layer="layer1" />&#10;<path id="path1" d="m 6.2,12.8 v -1.1 a 0.182,0.182 135 0 1 0.18,-0.2 l 3.56,0 A 0.257,0.257 135 0 0 10.2,11.2 V 9.75 H 7.94 A 1.74,1.74 45 0 1 6.2,8.01 V 4.18 A 0.185,0.185 135 0 1 6.38,4 H 7.5 a 0.197,0.197 45 0 1 0.2,0.2 v 3.23 a 0.818,0.818 45 0 0 0.82,0.82 h 1.4 A 0.28,0.28 135 0 0 10.2,7.97 V 3.19 A 0.187,0.187 135 0 1 10.4,3 h 1.2 a 0.184,0.184 45 0 1 0.2,0.18 l 0,4.83 A 0.236,0.236 45 0 0 12,8.25 h 1.5 a 0.804,0.804 135 0 0 0.8,-0.8 l 0,-3.22 A 0.232,0.232 135 0 1 14.5,4 h 1.1 a 0.166,0.166 45 0 1 0.2,0.17 l 0,3.76 A 1.82,1.82 135 0 1 14,9.75 h -2.2 v 1.45 a 0.264,0.264 45 0 0 0.3,0.3 h 3.5 a 0.177,0.177 45 0 1 0.2,0.2 v 1.1 A 0.196,0.196 135 0 1 15.6,13 H 6.43 A 0.232,0.232 45 0 1 6.2,12.8 Z" sodipodi:nodetypes="ccccccccccccccccccccc" inkscape:path-effect="#path-effect2" inkscape:original-d="m 6.2,13 v -1.5 h 4 V 9.75 h -4 V 4 h 1.5 v 4.25 h 2.5 V 3 h 1.6 v 5.25 h 2.5 L 14.3,4 h 1.5 v 5.75 h -4 v 1.75 h 4 V 13 Z" />&#10;</svg>
