<?xml version="1.0" encoding="utf-8"?>
<!-- Generator: Adobe Illustrator 28.0.0, SVG Export Plug-In . SVG Version: 6.00 Build 0)  -->
<svg version="1.1" id="Layer_1" xmlns="http://www.w3.org/2000/svg" xmlns:xlink="http://www.w3.org/1999/xlink" x="0px" y="0px"
	 viewBox="0 0 22 16" style="enable-background:new 0 0 22 16;" xml:space="preserve">
<style type="text/css">
	.st0{fill-rule:evenodd;clip-rule:evenodd;stroke:#000000;stroke-opacity:0.85;enable-background:new    ;}
</style>
<g id="Layer_1_00000178914584636381920300000006007390692793364138_">
	<path class="st0" d="M19,0.5H3C1.6,0.5,0.5,1.6,0.5,3v10c0,1.4,1.1,2.5,2.5,2.5h16c1.4,0,2.5-1.1,2.5-2.5V3
		C21.5,1.6,20.4,0.5,19,0.5z M16,10.9V13H6v-2.1h3.9v-1c-1,0-2.3-0.3-3.1-1.3s-1.2-2.7-1-5.2l2,0.1c0,1.8-0.1,3,0.4,3.7
		C8.5,7.6,9.1,7.9,9.9,8V2.8h2.2V8c0.9-0.1,1.2-0.3,1.7-0.8c0.5-0.6,0.5-1.9,0.4-3.7l2-0.1c0.1,2.6-0.2,4.3-1,5.2
		c-0.9,0.9-1.9,1.2-3.1,1.3v1C12.1,10.9,16,10.9,16,10.9z"/>
</g>
</svg>
