<?xml version="1.0" encoding="UTF-8" standalone="no"?>
<!-- Generator: Adobe Illustrator 28.0.0, SVG Export Plug-In . SVG Version: 6.00 Build 0)  -->

<svg version="1.1" id="layer1" x="0px" y="0px" viewBox="0 0 22 16" style="enable-background:new 0 0 22 16" xml:space="preserve" sodipodi:docname="rime.fill.svg" inkscape:version="1.3 (0e150ed, 2023-07-21)" xmlns:inkscape="http://www.inkscape.org/namespaces/inkscape" xmlns:sodipodi="http://sodipodi.sourceforge.net/DTD/sodipodi-0.dtd" xmlns="http://www.w3.org/2000/svg" xmlns:svg="http://www.w3.org/2000/svg"><defs id="defs1"><inkscape:path-effect effect="fillet_chamfer" id="path-effect2" is_visible="true" lpeversion="1" nodesatellites_param="F,0,0,1,0,0.232,0,1 @ F,0,0,1,0,0.182,0,1 @ F,0,0,1,0,0.257,0,1 @ F,0,0,1,0,0,0,1 @ F,0,0,1,0,1.74,0,1 @ F,0,0,1,0,0.185,0,1 @ F,0,0,1,0,0.197,0,1 @ F,0,0,1,0,0.818,0,1 @ F,0,0,1,0,0.28,0,1 @ F,0,0,1,0,0.187,0,1 @ F,0,0,1,0,0.184,0,1 @ F,0,0,1,0,0.236,0,1 @ F,0,0,1,0,0.804,0,1 @ F,0,0,1,0,0.232,0,1 @ F,0,0,1,0,0.166,0,1 @ F,0,0,1,0,1.82,0,1 @ F,0,0,1,0,0,0,1 @ F,0,0,1,0,0.264,0,1 @ F,0,0,1,0,0.177,0,1 @ F,0,0,1,0,0.196,0,1" radius="0" unit="px" method="auto" mode="F" chamfer_steps="1" flexible="false" use_knot_distance="true" apply_no_radius="true" apply_with_radius="true" only_selected="false" hide_knots="false" /></defs><sodipodi:namedview id="namedview1" pagecolor="#ffffff" bordercolor="#666666" borderopacity="1.0" inkscape:showpageshadow="2" inkscape:pageopacity="0.0" inkscape:pagecheckerboard="0" inkscape:deskcolor="#d1d1d1" inkscape:zoom="30.3" inkscape:cx="11" inkscape:cy="8" inkscape:current-layer="layer1" />&#10;<path id="path1-7" style="display:inline" inkscape:label="path2" d="M 2.6 0 C 1.1 0 2.96e-16 1.2 0 2.6 L 0 13.3 C 0 14.8 1.1 16 2.6 16 L 19.4 16 C 20.9 16 22 14.8 22 13.4 L 22 2.6 C 22 1.2 20.9 2.96e-16 19.4 0 L 2.6 0 z M 10.4 3 L 11.6 3 A 0.184 0.184 0 0 1 11.8 3.18 L 11.8 8.01 A 0.236 0.236 0 0 0 12 8.25 L 13.5 8.25 A 0.804 0.804 0 0 0 14.3 7.45 L 14.3 4.23 A 0.232 0.232 0 0 1 14.5 4 L 15.6 4 A 0.166 0.166 0 0 1 15.8 4.17 L 15.8 7.93 A 1.82 1.82 0 0 1 14 9.75 L 11.8 9.75 L 11.8 11.2 A 0.264 0.264 0 0 0 12.1 11.5 L 15.6 11.5 A 0.177 0.177 0 0 1 15.8 11.7 L 15.8 12.8 A 0.196 0.196 0 0 1 15.6 13 L 6.43 13 A 0.232 0.232 0 0 1 6.2 12.8 L 6.2 11.7 A 0.182 0.182 0 0 1 6.38 11.5 L 9.94 11.5 A 0.257 0.257 0 0 0 10.2 11.2 L 10.2 9.75 L 7.94 9.75 A 1.74 1.74 0 0 1 6.2 8.01 L 6.2 4.19 A 0.185 0.185 0 0 1 6.38 4 L 7.5 4 A 0.197 0.197 0 0 1 7.7 4.2 L 7.7 7.43 A 0.818 0.818 0 0 0 8.52 8.25 L 9.92 8.25 A 0.28 0.28 0 0 0 10.2 7.97 L 10.2 3.19 A 0.187 0.187 0 0 1 10.4 3 z " />&#10;</svg>
