<?xml version="1.0" encoding="UTF-8"?>
<!--Generator: Apple Native CoreSVG 232.5-->
<!DOCTYPE svg
PUBLIC "-//W3C//DTD SVG 1.1//EN"
       "http://www.w3.org/Graphics/SVG/1.1/DTD/svg11.dtd">
<svg version="1.1" xmlns="http://www.w3.org/2000/svg" xmlns:xlink="http://www.w3.org/1999/xlink" width="3300" height="2200">
 <g id="Notes">
  <rect height="2200" id="artboard" style="fill:white;opacity:1" width="3300" x="0" y="0"/>
  <line style="fill:none;stroke:black;opacity:1;stroke-width:0.5;" x1="263" x2="3036" y1="292" y2="292"/>
  <text style="stroke:none;fill:black;font-family:sans-serif;font-size:13;font-weight:bold;" transform="matrix(1 0 0 1 263 322)">Weight/Scale Variations</text>
  <text style="stroke:none;fill:black;font-family:sans-serif;font-size:13;text-anchor:middle;" transform="matrix(1 0 0 1 559.711 322)">Ultralight</text>
  <text style="stroke:none;fill:black;font-family:sans-serif;font-size:13;text-anchor:middle;" transform="matrix(1 0 0 1 856.422 322)">Thin</text>
  <text style="stroke:none;fill:black;font-family:sans-serif;font-size:13;text-anchor:middle;" transform="matrix(1 0 0 1 1153.13 322)">Light</text>
  <text style="stroke:none;fill:black;font-family:sans-serif;font-size:13;text-anchor:middle;" transform="matrix(1 0 0 1 1449.84 322)">Regular</text>
  <text style="stroke:none;fill:black;font-family:sans-serif;font-size:13;text-anchor:middle;" transform="matrix(1 0 0 1 1746.56 322)">Medium</text>
  <text style="stroke:none;fill:black;font-family:sans-serif;font-size:13;text-anchor:middle;" transform="matrix(1 0 0 1 2043.27 322)">Semibold</text>
  <text style="stroke:none;fill:black;font-family:sans-serif;font-size:13;text-anchor:middle;" transform="matrix(1 0 0 1 2339.98 322)">Bold</text>
  <text style="stroke:none;fill:black;font-family:sans-serif;font-size:13;text-anchor:middle;" transform="matrix(1 0 0 1 2636.69 322)">Heavy</text>
  <text style="stroke:none;fill:black;font-family:sans-serif;font-size:13;text-anchor:middle;" transform="matrix(1 0 0 1 2933.4 322)">Black</text>
  <line style="fill:none;stroke:black;opacity:1;stroke-width:0.5;" x1="263" x2="3036" y1="1903" y2="1903"/>
  <g transform="matrix(0.2 0 0 0.2 263 1933)">
   <path d="m46.2402 4.15039c21.5332 0 39.4531-17.8711 39.4531-39.4043s-17.9688-39.4043-39.502-39.4043c-21.4844 0-39.3555 17.8711-39.3555 39.4043s17.9199 39.4043 39.4043 39.4043Zm0-7.42188c-17.7246 0-31.8848-14.209-31.8848-31.9824s14.1113-31.9824 31.8359-31.9824c17.7734 0 32.0312 14.209 32.0312 31.9824s-14.209 31.9824-31.9824 31.9824Zm-17.9688-31.9824c0 2.14844 1.51367 3.61328 3.75977 3.61328h10.498v10.5957c0 2.19727 1.46484 3.71094 3.61328 3.71094 2.24609 0 3.71094-1.51367 3.71094-3.71094v-10.5957h10.5957c2.19727 0 3.71094-1.46484 3.71094-3.61328 0-2.19727-1.51367-3.71094-3.71094-3.71094h-10.5957v-10.5469c0-2.24609-1.46484-3.75977-3.71094-3.75977-2.14844 0-3.61328 1.51367-3.61328 3.75977v10.5469h-10.498c-2.24609 0-3.75977 1.51367-3.75977 3.71094Z"/>
  </g>
  <g transform="matrix(0.2 0 0 0.2 281.506 1933)">
   <path d="m58.5449 14.5508c27.2461 0 49.8047-22.6074 49.8047-49.8047 0-27.2461-22.6074-49.8047-49.8535-49.8047-27.1973 0-49.7559 22.5586-49.7559 49.8047 0 27.1973 22.6074 49.8047 49.8047 49.8047Zm0-8.30078c-23.0469 0-41.4551-18.457-41.4551-41.5039s18.3594-41.5039 41.4062-41.5039 41.5527 18.457 41.5527 41.5039-18.457 41.5039-41.5039 41.5039Zm-22.6562-41.5039c0 2.39258 1.66016 4.00391 4.15039 4.00391h14.3555v14.4043c0 2.44141 1.66016 4.15039 4.05273 4.15039 2.44141 0 4.15039-1.66016 4.15039-4.15039v-14.4043h14.4043c2.44141 0 4.15039-1.61133 4.15039-4.00391 0-2.44141-1.70898-4.15039-4.15039-4.15039h-14.4043v-14.3555c0-2.49023-1.70898-4.19922-4.15039-4.19922-2.39258 0-4.05273 1.70898-4.05273 4.19922v14.3555h-14.3555c-2.49023 0-4.15039 1.70898-4.15039 4.15039Z"/>
  </g>
  <g transform="matrix(0.2 0 0 0.2 304.924 1933)">
   <path d="m74.8535 28.3203c34.8145 0 63.623-28.8086 63.623-63.5742 0-34.8145-28.8574-63.623-63.6719-63.623-34.7656 0-63.5254 28.8086-63.5254 63.623 0 34.7656 28.8086 63.5742 63.5742 63.5742Zm0-9.08203c-30.1758 0-54.4434-24.3164-54.4434-54.4922 0-30.2246 24.2188-54.4922 54.3945-54.4922 30.2246 0 54.541 24.2676 54.541 54.4922 0 30.1758-24.2676 54.4922-54.4922 54.4922Zm-28.8574-54.4922c0 2.58789 1.85547 4.39453 4.58984 4.39453h19.7266v19.7754c0 2.68555 1.85547 4.58984 4.44336 4.58984 2.68555 0 4.54102-1.85547 4.54102-4.58984v-19.7754h19.7754c2.68555 0 4.58984-1.80664 4.58984-4.39453 0-2.73438-1.85547-4.58984-4.58984-4.58984h-19.7754v-19.7266c0-2.73438-1.85547-4.63867-4.54102-4.63867-2.58789 0-4.44336 1.9043-4.44336 4.63867v19.7266h-19.7266c-2.73438 0-4.58984 1.85547-4.58984 4.58984Z"/>
  </g>
  <text style="stroke:none;fill:black;font-family:sans-serif;font-size:13;font-weight:bold;" transform="matrix(1 0 0 1 263 1953)">Design Variations</text>
  <text style="stroke:none;fill:black;font-family:sans-serif;font-size:13;" transform="matrix(1 0 0 1 263 1971)">Symbols are supported in up to nine weights and three scales.</text>
  <text style="stroke:none;fill:black;font-family:sans-serif;font-size:13;" transform="matrix(1 0 0 1 263 1989)">For optimal layout with text and other symbols, vertically align</text>
  <text style="stroke:none;fill:black;font-family:sans-serif;font-size:13;" transform="matrix(1 0 0 1 263 2007)">symbols with the adjacent text.</text>
  <line style="fill:none;stroke:#00AEEF;stroke-width:0.5;opacity:1.0;" x1="776" x2="776" y1="1919" y2="1933"/>
  <g transform="matrix(0.2 0 0 0.2 776 1933)">
   <path d="m16.5527 0.78125c2.58789 0 3.85742-0.976562 4.78516-3.71094l6.29883-17.2363h28.8086l6.29883 17.2363c0.927734 2.73438 2.19727 3.71094 4.73633 3.71094 2.58789 0 4.24805-1.5625 4.24805-4.00391 0-0.830078-0.146484-1.61133-0.537109-2.63672l-22.9004-60.9863c-1.12305-2.97852-3.125-4.49219-6.25-4.49219-3.02734 0-5.07812 1.46484-6.15234 4.44336l-22.9004 61.084c-0.390625 1.02539-0.537109 1.80664-0.537109 2.63672 0 2.44141 1.5625 3.95508 4.10156 3.95508Zm13.4766-28.3691 11.8652-32.8613h0.244141l11.8652 32.8613Z"/>
  </g>
  <line style="fill:none;stroke:#00AEEF;stroke-width:0.5;opacity:1.0;" x1="792.836" x2="792.836" y1="1919" y2="1933"/>
  <text style="stroke:none;fill:black;font-family:sans-serif;font-size:13;font-weight:bold;" transform="matrix(1 0 0 1 776 1953)">Margins</text>
  <text style="stroke:none;fill:black;font-family:sans-serif;font-size:13;" transform="matrix(1 0 0 1 776 1971)">Leading and trailing margins on the left and right side of each symbol</text>
  <text style="stroke:none;fill:black;font-family:sans-serif;font-size:13;" transform="matrix(1 0 0 1 776 1989)">can be adjusted by modifying the x-location of the margin guidelines.</text>
  <text style="stroke:none;fill:black;font-family:sans-serif;font-size:13;" transform="matrix(1 0 0 1 776 2007)">Modifications are automatically applied proportionally to all</text>
  <text style="stroke:none;fill:black;font-family:sans-serif;font-size:13;" transform="matrix(1 0 0 1 776 2025)">scales and weights.</text>
  <g transform="matrix(0.2 0 0 0.2 1289 1933)">
   <path d="m14.209 9.32617 8.49609 8.54492c4.29688 4.3457 9.22852 4.05273 13.8672-1.07422l53.4668-58.9355-4.83398-4.88281-53.0762 58.3984c-1.75781 2.00195-3.41797 2.49023-5.76172 0.146484l-5.85938-5.81055c-2.34375-2.29492-1.80664-4.00391 0.195312-5.81055l57.373-54.0039-4.88281-4.83398-57.959 54.4434c-4.93164 4.58984-5.32227 9.47266-1.02539 13.8184Zm32.0801-90.9668c-2.09961 2.05078-2.24609 4.93164-1.07422 6.88477 1.17188 1.80664 3.4668 2.97852 6.68945 2.14844 7.32422-1.70898 14.9414-2.00195 22.0703 2.68555l-2.92969 7.27539c-1.70898 4.15039-0.830078 7.08008 1.85547 9.81445l11.4746 11.5723c2.44141 2.44141 4.49219 2.53906 7.32422 2.05078l5.32227-0.976562 3.32031 3.36914-0.195312 2.7832c-0.195312 2.49023 0.439453 4.39453 2.88086 6.78711l3.80859 3.71094c2.39258 2.39258 5.46875 2.53906 7.8125 0.195312l14.5508-14.5996c2.34375-2.34375 2.24609-5.32227-0.146484-7.71484l-3.85742-3.80859c-2.39258-2.39258-4.24805-3.17383-6.64062-2.97852l-2.88086 0.244141-3.22266-3.17383 1.2207-5.61523c0.634766-2.83203-0.146484-5.0293-3.07617-7.95898l-10.9863-10.9375c-16.6992-16.6016-38.8672-16.2109-53.3203-1.75781Zm7.4707 1.85547c12.1582-8.88672 28.6133-7.37305 39.7461 3.75977l12.1582 12.0605c1.17188 1.17188 1.36719 2.09961 1.02539 3.80859l-1.61133 7.42188 7.51953 7.42188 4.93164-0.292969c1.26953-0.0488281 1.66016 0.0488281 2.63672 1.02539l2.88086 2.88086-12.207 12.207-2.88086-2.88086c-0.976562-0.976562-1.12305-1.36719-1.07422-2.68555l0.341797-4.88281-7.4707-7.42188-7.61719 1.26953c-1.61133 0.341797-2.34375 0.195312-3.56445-0.976562l-10.0098-10.0098c-1.26953-1.17188-1.41602-2.00195-0.634766-3.85742l4.39453-10.4492c-7.8125-7.27539-17.9688-10.4004-28.125-7.42188-0.78125 0.195312-1.07422-0.439453-0.439453-0.976562Z"/>
  </g>
  <text style="stroke:none;fill:black;font-family:sans-serif;font-size:13;font-weight:bold;" transform="matrix(1 0 0 1 1289 1953)">Exporting</text>
  <text style="stroke:none;fill:black;font-family:sans-serif;font-size:13;" transform="matrix(1 0 0 1 1289 1971)">Symbols should be outlined when exporting to ensure the</text>
  <text style="stroke:none;fill:black;font-family:sans-serif;font-size:13;" transform="matrix(1 0 0 1 1289 1989)">design is preserved when submitting to Xcode.</text>
  <text id="template-version" style="stroke:none;fill:black;font-family:sans-serif;font-size:13;text-anchor:end;" transform="matrix(1 0 0 1 3036 1933)">Template v.2.0</text>
  <text style="stroke:none;fill:black;font-family:sans-serif;font-size:13;text-anchor:end;" transform="matrix(1 0 0 1 3036 1951)">Requires Xcode 12 or greater</text>
  <text id="descriptive-name" style="stroke:none;fill:black;font-family:sans-serif;font-size:13;text-anchor:end;" transform="matrix(1 0 0 1 3036 1969)">Generated from delete.backward.fill</text>
  <text style="stroke:none;fill:black;font-family:sans-serif;font-size:13;text-anchor:end;" transform="matrix(1 0 0 1 3036 1987)">Typeset at 100.0 points</text>
  <text style="stroke:none;fill:black;font-family:sans-serif;font-size:13;" transform="matrix(1 0 0 1 263 726)">Small</text>
  <text style="stroke:none;fill:black;font-family:sans-serif;font-size:13;" transform="matrix(1 0 0 1 263 1156)">Medium</text>
  <text style="stroke:none;fill:black;font-family:sans-serif;font-size:13;" transform="matrix(1 0 0 1 263 1586)">Large</text>
 </g>
 <g id="Guides">
  <g id="H-reference" style="fill:#27AAE1;stroke:none;" transform="matrix(1 0 0 1 339 696)">
   <path d="M0.993654 0L3.63775 0L29.3281-67.1323L30.0303-67.1323L30.0303-70.459L28.1226-70.459ZM11.6885-24.4799L46.9815-24.4799L46.2315-26.7285L12.4385-26.7285ZM55.1196 0L57.7637 0L30.6382-70.459L29.4326-70.459L29.4326-67.1323Z"/>
  </g>
  <line id="Baseline-S" style="fill:none;stroke:#27AAE1;opacity:1;stroke-width:0.5;" x1="263" x2="3036" y1="696" y2="696"/>
  <line id="Capline-S" style="fill:none;stroke:#27AAE1;opacity:1;stroke-width:0.5;" x1="263" x2="3036" y1="625.541" y2="625.541"/>
  <g id="H-reference" style="fill:#27AAE1;stroke:none;" transform="matrix(1 0 0 1 339 1126)">
   <path d="M0.993654 0L3.63775 0L29.3281-67.1323L30.0303-67.1323L30.0303-70.459L28.1226-70.459ZM11.6885-24.4799L46.9815-24.4799L46.2315-26.7285L12.4385-26.7285ZM55.1196 0L57.7637 0L30.6382-70.459L29.4326-70.459L29.4326-67.1323Z"/>
  </g>
  <line id="Baseline-M" style="fill:none;stroke:#27AAE1;opacity:1;stroke-width:0.5;" x1="263" x2="3036" y1="1126" y2="1126"/>
  <line id="Capline-M" style="fill:none;stroke:#27AAE1;opacity:1;stroke-width:0.5;" x1="263" x2="3036" y1="1055.54" y2="1055.54"/>
  <g id="H-reference" style="fill:#27AAE1;stroke:none;" transform="matrix(1 0 0 1 339 1556)">
   <path d="M0.993654 0L3.63775 0L29.3281-67.1323L30.0303-67.1323L30.0303-70.459L28.1226-70.459ZM11.6885-24.4799L46.9815-24.4799L46.2315-26.7285L12.4385-26.7285ZM55.1196 0L57.7637 0L30.6382-70.459L29.4326-70.459L29.4326-67.1323Z"/>
  </g>
  <line id="Baseline-L" style="fill:none;stroke:#27AAE1;opacity:1;stroke-width:0.5;" x1="263" x2="3036" y1="1556" y2="1556"/>
  <line id="Capline-L" style="fill:none;stroke:#27AAE1;opacity:1;stroke-width:0.5;" x1="263" x2="3036" y1="1485.54" y2="1485.54"/>
  <line id="left-margin" style="fill:none;stroke:#00AEEF;stroke-width:0.5;opacity:1.0;" x1="1394.73" x2="1394.73" y1="1030.79" y2="1150.12"/>
  <line id="right-margin" style="fill:none;stroke:#00AEEF;stroke-width:0.5;opacity:1.0;" x1="1503.96" x2="1503.96" y1="1030.79" y2="1150.12"/>
 </g>
 <g id="Symbols">
  <g id="Black-L" transform="matrix(1 0 0 1 2848.49 1556)">
   <path d="M129.964 26.4225C145.086 26.4225 153.735 19.976 153.735 4.87438L153.735-73.0895C153.735-88.1912 145.086-96.7987 129.964-96.7987L76.2597-96.7987C64.1577-96.7987 58.5665-94.1185 51.2081-85.4711L20.5166-49.8951C14.2829-42.5697 12.8672-39.3443 12.8672-35.2125C12.8672-31.0223 14.3777-27.6789 20.5166-20.4702L51.2289 15.0281C58.6469 23.7339 64.1201 26.4017 76.2221 26.4017ZM76.1835-7.67914C71.4024-7.67914 67.7455-11.3556 67.7455-16.2147C67.7455-18.3124 68.6529-20.4441 70.2949-22.0277L83.2205-35.0117L70.2949-47.9957C68.6529-49.5792 67.7455-51.7109 67.7455-53.8086C67.7455-58.6469 71.4024-62.3026 76.1835-62.3026C78.7704-62.3026 80.7437-61.512 82.4452-59.8312L95.2337-47.0624L108.123-59.852C109.825-61.5536 111.82-62.3442 114.384-62.3442C119.145-62.3442 122.822-58.6677 122.822-53.8503C122.822-51.7317 121.935-49.6209 120.274-48.0165L107.386-35.0117L120.253-22.0485C121.894-20.4649 122.801-18.3332 122.801-16.2147C122.801-11.3556 119.125-7.67914 114.342-7.67914C111.758-7.67914 109.721-8.46972 108.04-10.1713L95.2337-22.8817L82.5077-10.1713C80.8061-8.46972 78.7704-7.67914 76.1835-7.67914Z"/>
  </g>
  <g id="Heavy-L" transform="matrix(1 0 0 1 2552.39 1556)">
   <path d="M129.767 25.5159C144.35 25.5159 152.515 19.0623 152.515 4.50998L152.515-73.2263C152.515-87.7786 144.35-95.8832 129.767-95.8832L75.8675-95.8832C64.8892-95.8832 59.1691-93.3888 52.3368-85.5289L20.093-49.2207C14.3809-42.6506 12.8672-39.3129 12.8672-35.2307C12.8672-31.1039 14.4344-27.6713 20.093-21.1905L52.3669 14.9833C59.2495 22.8879 64.8747 25.4857 75.853 25.4857ZM74.9568-8.00582C70.6622-8.00582 67.3644-11.3282 67.3644-15.692C67.3644-17.5988 68.167-19.5033 69.6496-20.9413L83.7079-35.0442L69.6496-49.1471C68.167-50.5851 67.3644-52.4895 67.3644-54.3964C67.3644-58.73 70.6622-62.0222 74.9568-62.0222C77.2564-62.0222 79.0113-61.3088 80.5441-59.8062L94.5121-45.8628L108.591-59.8364C110.123-61.3692 111.914-62.0826 114.172-62.0826C118.442-62.0826 121.765-58.7602 121.765-54.4567C121.765-52.5197 120.992-50.6454 119.485-49.1773L105.441-35.0442L119.455-20.9714C120.932-19.5335 121.735-17.629 121.735-15.692C121.735-11.3282 118.412-8.00582 114.112-8.00582C111.824-8.00582 109.973-8.71919 108.47-10.252L94.5121-24.1508L80.6346-10.252C79.1018-8.71919 77.2564-8.00582 74.9568-8.00582Z"/>
  </g>
  <g id="Bold-L" transform="matrix(1 0 0 1 2256.54 1556)">
   <path d="M129.327 24.3865C143.204 24.3865 150.785 17.9625 150.785 4.12376L150.785-73.3953C150.785-87.2341 143.204-94.7386 129.327-94.7386L75.3163-94.7386C65.6245-94.7386 59.8325-92.4897 53.6234-85.5534L19.563-48.3832C14.4666-42.6984 12.8672-39.267 12.8672-35.2537C12.8672-31.2113 14.4738-27.7083 19.563-22.0819L53.6614 14.8475C59.9129 21.813 65.6333 24.3485 75.3251 24.3485ZM73.3758-8.50242C69.703-8.50242 66.8658-11.3644 66.8658-15.0912C66.8658-16.7524 67.5378-18.3652 68.8206-19.6189L84.2478-35.0752L68.8206-50.5315C67.5378-51.7852 66.8658-53.398 66.8658-55.0592C66.8658-58.748 69.703-61.572 73.3758-61.572C75.3219-61.572 76.8003-60.9584 78.1256-59.6711L93.5014-44.3201L108.996-59.7091C110.321-61.0344 111.851-61.648 113.732-61.648C117.38-61.648 120.242-58.786 120.242-55.1352C120.242-53.436 119.608-51.8612 118.301-50.5695L102.865-35.0752L118.263-19.6569C119.532-18.4032 120.204-16.7904 120.204-15.0912C120.204-11.3644 117.342-8.50242 113.656-8.50242C111.737-8.50242 110.131-9.11602 108.844-10.4413L93.5014-25.7632L78.2396-10.4413C76.9143-9.11602 75.3219-8.50242 73.3758-8.50242Z"/>
  </g>
  <g id="Semibold-L" transform="matrix(1 0 0 1 1960.43 1556)">
   <path d="M129.024 23.608C142.415 23.608 149.592 17.2043 149.592 3.8575L149.592-73.5119C149.592-86.8587 142.415-93.9496 129.024-93.9496L74.9363-93.9496C66.1314-93.9496 60.2898-91.8698 54.5105-85.5703L19.1976-47.8058C14.5256-42.7313 12.8672-39.2353 12.8672-35.2696C12.8672-31.2853 14.5009-27.7338 19.1976-22.6964L54.5538 14.7539C60.3703 21.0719 66.1562 23.5646 74.9611 23.5646ZM72.2859-8.84477C69.0417-8.84477 66.522-11.3894 66.522-14.677C66.522-16.1689 67.104-17.5806 68.2492-18.7073L84.6199-35.0966L68.2492-51.4859C67.104-52.6126 66.522-54.0243 66.522-55.5162C66.522-58.7604 69.0417-61.2617 72.2859-61.2617C73.9883-61.2617 75.2761-60.7169 76.4583-59.578L92.8047-43.2565L109.275-59.6214C110.457-60.8036 111.807-61.3484 113.429-61.3484C116.648-61.3484 119.193-58.8038 119.193-55.6029C119.193-54.0676 118.654-52.6993 117.484-51.5293L101.088-35.0966L117.441-18.7506C118.567-17.624 119.149-16.2123 119.149-14.677C119.149-11.3894 116.605-8.84477 113.342-8.84477C111.677-8.84477 110.24-9.3896 109.101-10.5718L92.8047-26.8747L76.5884-10.5718C75.4062-9.3896 73.9883-8.84477 72.2859-8.84477Z"/>
  </g>
  <g id="Medium-L" transform="matrix(1 0 0 1 1664.17 1556)">
   <path d="M128.795 23.0176C141.816 23.0176 148.688 16.6294 148.688 3.65561L148.688-73.6003C148.688-86.574 141.816-93.3513 128.795-93.3513L74.6481-93.3513C66.5157-93.3513 60.6366-91.3998 55.1831-85.5831L18.9205-47.368C14.5704-42.7562 12.8672-39.2114 12.8672-35.2817C12.8672-31.3414 14.5215-27.7531 18.9205-23.1623L55.2305 14.6829C60.717 20.51 66.5527 22.9702 74.6851 22.9702ZM71.4595-9.10436C68.5404-9.10436 66.2614-11.4083 66.2614-14.363C66.2614-15.7265 66.7751-16.9857 67.8159-18.016L84.9021-35.1128L67.8159-52.2096C66.7751-53.2399 66.2614-54.4991 66.2614-55.8627C66.2614-58.7699 68.5404-61.0264 71.4595-61.0264C72.9771-61.0264 74.1204-60.5337 75.1941-59.5074L92.2764-42.4501L109.486-59.5548C110.56-60.6286 111.773-61.1213 113.199-61.1213C116.093-61.1213 118.397-58.8173 118.397-55.9576C118.397-54.5466 117.931-53.3348 116.865-52.2571L99.7416-35.1128L116.817-18.0635C117.836-17.0332 118.349-15.774 118.349-14.363C118.349-11.4083 116.045-9.10436 113.104-9.10436C111.631-9.10436 110.323-9.59703 109.297-10.6708L92.2764-27.7175L75.3365-10.6708C74.2627-9.59703 72.9771-9.10436 71.4595-9.10436Z"/>
  </g>
  <g id="Regular-L" transform="matrix(1 0 0 1 1368.05 1556)">
   <path d="M128.495 22.2476C141.035 22.2476 147.509 15.8795 147.509 3.39227L147.509-73.7155C147.509-86.2028 141.035-92.5709 128.495-92.5709L74.2723-92.5709C67.0171-92.5709 61.0889-90.7867 56.0603-85.5998L18.5592-46.797C14.6288-42.7888 12.8672-39.1801 12.8672-35.2974C12.8672-31.4146 14.5484-27.7783 18.5592-23.77L56.1131 14.5903C61.1694 19.7771 67.0698 22.1948 74.3251 22.1948ZM70.3815-9.44295C67.8864-9.44295 65.9214-11.433 65.9214-13.9533C65.9214-15.1494 66.346-16.2098 67.2507-17.1144L85.2702-35.134L67.2507-53.1535C66.346-54.0582 65.9214-55.1185 65.9214-56.3146C65.9214-58.7821 67.8864-60.7195 70.3815-60.7195C71.6581-60.7195 72.6129-60.2948 73.5452-59.4153L91.5873-41.3983L109.763-59.4681C110.695-60.4003 111.73-60.825 112.899-60.825C115.369-60.825 117.359-58.8349 117.359-56.4201C117.359-55.1713 116.987-54.1637 116.057-53.2063L97.9848-35.134L116.004-17.1672C116.881-16.2625 117.306-15.2022 117.306-13.9533C117.306-11.433 115.316-9.44295 112.793-9.44295C111.572-9.44295 110.431-9.8676 109.552-10.7999L91.5873-28.8169L73.7035-10.7999C72.7712-9.8676 71.6581-9.44295 70.3815-9.44295Z"/>
  </g>
  <g id="Light-L" transform="matrix(1 0 0 1 1072.63 1556)">
   <path d="M126.93 21.4269C138.745 21.4269 144.913 15.3261 144.913 3.54496L144.913-73.83C144.913-85.6111 138.745-91.712 126.93-91.712L73.4707-91.712C66.4254-91.712 61.0126-90.1951 56.2321-85.3135L18.1584-46.2054C14.457-42.4834 12.8672-39.1037 12.8672-35.3164C12.8672-31.5292 14.3766-28.1027 18.1584-24.3808L56.2658 13.9795C61.093 18.861 66.4591 21.3933 73.5044 21.3933ZM68.8929-10.3781C66.9512-10.3781 65.4061-11.9102 65.4061-13.8388C65.4061-14.8059 65.7353-15.5991 66.4873-16.351L85.2321-35.0958L66.4873-53.8406C65.7353-54.5925 65.4061-55.3857 65.4061-56.3528C65.4061-58.2477 66.9512-59.7461 68.8929-59.7461C69.9404-59.7461 70.6662-59.4169 71.4649-58.6519L90.1368-39.9669L108.923-58.6856C109.722-59.4842 110.528-59.8135 111.448-59.8135C113.403-59.8135 114.935-58.2814 114.935-56.4201C114.935-55.4194 114.639-54.6599 113.9-53.8743L95.122-35.0958L113.867-16.3847C114.572-15.6327 114.901-14.8396 114.901-13.8388C114.901-11.9102 113.369-10.3781 111.381-10.3781C110.427-10.3781 109.553-10.7074 108.788-11.506L90.1368-30.191L71.5659-11.506C70.7672-10.7074 69.9404-10.3781 68.8929-10.3781Z"/>
  </g>
  <g id="Thin-L" transform="matrix(1 0 0 1 777.64 1556)">
   <path d="M124.86 20.3415C135.716 20.3415 141.48 14.594 141.48 3.74689L141.48-73.9815C141.48-84.8286 135.716-90.5761 124.86-90.5761L72.4106-90.5761C65.6429-90.5761 60.9116-89.4126 56.4593-84.9349L17.6283-45.4229C14.2298-42.0795 12.8672-39.0028 12.8672-35.3417C12.8672-31.6806 14.1494-28.5319 17.6283-25.1885L56.4677 13.1718C60.992 17.6494 65.6514 20.3331 72.419 20.3331ZM66.924-11.615C65.7143-11.615 64.7246-12.5412 64.7246-13.6874C64.7246-14.3515 64.9276-14.7913 65.4776-15.3413L85.1816-35.0453L65.4776-54.7493C64.9276-55.2993 64.7246-55.7391 64.7246-56.4033C64.7246-57.541 65.7143-58.4588 66.924-58.4588C67.6686-58.4588 68.0915-58.2558 68.7135-57.6422L88.2184-38.0738L107.812-57.6506C108.434-58.2726 108.938-58.4757 109.53-58.4757C110.803-58.4757 111.729-57.5494 111.729-56.4201C111.729-55.7475 111.535-55.3162 111.048-54.7577L91.3357-35.0453L111.04-15.3498C111.518-14.7998 111.721-14.36 111.721-13.6874C111.721-12.5412 110.795-11.615 109.513-11.615C108.912-11.615 108.392-11.818 107.778-12.44L88.2184-32.0084L68.7388-12.44C68.1169-11.818 67.6686-11.615 66.924-11.615Z"/>
  </g>
  <g id="Ultralight-L" transform="matrix(1 0 0 1 481.808 1556)">
   <path d="M123.8 19.7856C134.164 19.7856 139.722 14.2191 139.722 3.85032L139.722-74.0591C139.722-84.4278 134.164-89.9943 123.8-89.9943L71.8676-89.9943C65.2421-89.9943 60.8599-89.0118 56.5756-84.741L17.3568-45.0221C14.1135-41.8727 12.8672-38.951 12.8672-35.3546C12.8672-31.7582 14.0331-28.7516 17.3568-25.6022L56.5711 12.7581C60.9403 17.0289 65.2376 19.7901 71.8631 19.7901ZM65.9156-12.2485C65.0808-12.2485 64.3755-12.8644 64.3755-13.6098C64.3755-14.1188 64.5139-14.3776 64.9604-14.8242L85.1557-35.0195L64.9604-55.2147C64.5139-55.6613 64.3755-55.9201 64.3755-56.4291C64.3755-57.179 65.0808-57.7994 65.9156-57.7994C66.505-57.7994 66.7728-57.661 67.3043-57.1251L87.2359-37.1041L107.243-57.1206C107.775-57.6521 108.123-57.7904 108.547-57.7904C109.471-57.7904 110.087-57.1745 110.087-56.4201C110.087-55.9156 109.944-55.6523 109.587-55.2102L89.3964-35.0195L109.592-14.8197C109.953-14.3731 110.092-14.1143 110.092-13.6098C110.092-12.8644 109.476-12.2485 108.556-12.2485C108.136-12.2485 107.797-12.3869 107.261-12.9183L87.2359-32.9393L67.2908-12.9183C66.7593-12.3869 66.505-12.2485 65.9156-12.2485Z"/>
  </g>
  <g id="Black-M" transform="matrix(1 0 0 1 2867.27 1126)">
   <path d="M100.645 13.203C112.727 13.203 119.803 8.25088 119.803-3.82547L119.803-64.4592C119.803-76.5356 112.727-83.6002 100.645-83.6002L59.3101-83.6002C48.9969-83.6002 44.8457-81.4001 38.7263-74.0653L16.2048-47.0911C10.958-40.8053 9.96875-38.4341 9.96875-35.2033C9.96875-31.9153 11.0669-29.4302 16.2048-23.2586L38.7318 3.663C44.908 11.055 48.9453 13.1975 59.2585 13.1975ZM59.8751-13.731C55.8279-13.731 52.7431-16.8216 52.7431-20.9317C52.7431-22.6898 53.5232-24.5004 54.9116-25.8317L64.0504-35.0276L54.9116-44.2235C53.5232-45.5548 52.7431-47.3654 52.7431-49.1236C52.7431-53.2281 55.8279-56.3132 59.8751-56.3132C62.0952-56.3132 63.7806-55.6473 65.2258-54.2076L74.2052-45.234L83.2523-54.2131C84.6975-55.6583 86.3881-56.3242 88.6033-56.3242C92.6448-56.3242 95.7354-53.2336 95.7354-49.1345C95.7354-47.3709 94.9607-45.5658 93.5666-44.229L84.4794-35.0276L93.5611-25.8372C94.9497-24.5059 95.7299-22.6953 95.7299-20.9317C95.7299-16.8216 92.6393-13.731 88.5924-13.731C86.3717-13.731 84.6701-14.397 83.2303-15.8422L74.2052-24.7586L65.2423-15.8422C63.7971-14.397 62.0952-13.731 59.8751-13.731Z"/>
  </g>
  <g id="Heavy-M" transform="matrix(1 0 0 1 2571.03 1126)">
   <path d="M100.598 12.3923C112.218 12.3923 118.849 7.40868 118.849-4.19579L118.849-64.5823C118.849-76.1868 112.218-82.7845 100.598-82.7845L59.0006-82.7845C49.7665-82.7845 45.4418-80.7415 39.8138-74.1482L15.8277-46.4863C11.0697-40.9126 9.96875-38.4104 9.96875-35.2193C9.96875-31.9846 11.1382-29.3929 15.8277-23.9064L39.8302 3.6755C45.5041 10.3124 49.7393 12.3759 58.9734 12.3759ZM58.8133-13.9641C55.1905-13.9641 52.418-16.7508 52.418-20.4312C52.418-22.024 53.1045-23.6371 54.3512-24.8401L64.5303-35.0629L54.3512-45.2857C53.1045-46.4888 52.418-48.1019 52.418-49.6946C52.418-53.3587 55.1905-56.1289 58.8133-56.1289C60.7736-56.1289 62.2667-55.5297 63.5592-54.2535L73.6336-44.1934L83.7866-54.2699C85.0791-55.5625 86.5909-56.1618 88.5303-56.1618C92.1389-56.1618 94.9256-53.3751 94.9256-49.7274C94.9256-48.1183 94.2555-46.5216 92.9947-45.3021L82.8427-35.0629L92.9783-24.8565C94.2226-23.6535 94.9091-22.0404 94.9091-20.4312C94.9091-16.7508 92.1225-13.9641 88.4975-13.9641C86.5417-13.9641 84.9971-14.5634 83.7209-15.8559L73.6336-25.8725L63.6085-15.8559C62.3159-14.5634 60.7736-13.9641 58.8133-13.9641Z"/>
  </g>
  <g id="Bold-M" transform="matrix(1 0 0 1 2274.86 1126)">
   <path d="M100.544 11.4855C111.649 11.4855 117.782 6.46654 117.782-4.61003L117.782-64.7201C117.782-75.7967 111.649-81.8719 100.544-81.8719L58.6544-81.8719C50.6275-81.8719 46.1087-80.0046 41.0304-74.241L15.4059-45.8098C11.1947-41.0326 9.96875-38.3839 9.96875-35.2372C9.96875-32.062 11.218-29.351 15.4059-24.631L41.059 3.68949C46.171 9.48173 50.6275 11.4569 58.6545 11.4569ZM57.6255-14.2248C54.4776-14.2248 52.0544-16.6715 52.0544-19.8714C52.0544-21.2791 52.6361-22.6713 53.7243-23.7309L65.0673-35.1024L53.7243-46.474C52.6361-47.5336 52.0544-48.9257 52.0544-50.3334C52.0544-53.5047 54.4776-55.9228 57.6255-55.9228C59.2953-55.9228 60.5731-55.3981 61.6949-54.3049L72.9941-43.0292L84.3843-54.3335C85.5061-55.4554 86.8177-55.98 88.4486-55.98C91.573-55.98 94.0197-53.5333 94.0197-50.3907C94.0197-48.9544 93.4665-47.5908 92.3549-46.5026L81.0118-35.1024L92.3263-23.7595C93.4093-22.6999 93.991-21.3077 93.991-19.8714C93.991-16.6715 91.5443-14.2248 88.3913-14.2248C86.7318-14.2248 85.363-14.7495 84.2698-15.8713L72.9941-27.1185L61.7808-15.8713C60.659-14.7495 59.2953-14.2248 57.6255-14.2248Z"/>
  </g>
  <g id="Semibold-M" transform="matrix(1 0 0 1 1978.51 1126)">
   <path d="M100.507 10.8604C111.257 10.8604 117.046 5.81704 117.046-4.89561L117.046-64.8151C117.046-75.5277 111.257-81.2428 100.507-81.2428L58.4157-81.2428C51.221-81.2428 46.5684-79.4967 41.869-74.3049L15.1151-45.3434C11.2808-41.1154 9.96875-38.3656 9.96875-35.2496C9.96875-32.1154 11.273-29.3222 15.1151-25.1305L41.9061 3.69913C46.6307 8.90907 51.2399 10.8233 58.4346 10.8233ZM56.8066-14.4046C53.9861-14.4046 51.8037-16.6169 51.8037-19.4855C51.8037-20.7656 52.3132-22.0055 53.2921-22.9662L65.4374-35.1297L53.2921-47.2932C52.3132-48.2538 51.8037-49.4937 51.8037-50.7738C51.8037-53.6053 53.9861-55.7806 56.8066-55.7806C58.2761-55.7806 59.4056-55.3074 60.4097-54.3404L72.5533-42.2267L84.7963-54.3774C85.8004-55.3815 86.974-55.8547 88.3923-55.8547C91.1828-55.8547 93.3951-53.6424 93.3951-50.8479C93.3951-49.5308 92.9226-48.3279 91.9139-47.3302L79.7497-35.1297L91.8768-23.0032C92.8486-22.0425 93.3581-20.8026 93.3581-19.4855C93.3581-16.6169 91.1458-14.4046 88.3182-14.4046C86.8629-14.4046 85.6152-14.8778 84.6481-15.8819L72.5533-27.9775L60.5208-15.8819C59.5167-14.8778 58.2761-14.4046 56.8066-14.4046Z"/>
  </g>
  <g id="Medium-M" transform="matrix(1 0 0 1 1682.08 1126)">
   <path d="M100.479 10.3864C110.959 10.3864 116.488 5.32457 116.488-5.11215L116.488-64.8871C116.488-75.3238 110.959-80.7658 100.479-80.7658L58.2347-80.7658C51.6711-80.7658 46.917-79.1115 42.505-74.3534L14.8946-44.9898C11.3462-41.1781 9.96875-38.3518 9.96875-35.259C9.96875-32.1559 11.3147-29.3004 14.8946-25.5093L42.5484 3.70644C46.9793 8.47486 51.7042 10.3429 58.2679 10.3429ZM56.1857-14.5409C53.6134-14.5409 51.6136-16.5755 51.6136-19.1929C51.6136-20.3762 52.0684-21.5006 52.9644-22.3863L65.7181-35.1503L52.9644-47.9143C52.0684-48.8 51.6136-49.9244 51.6136-51.1077C51.6136-53.6817 53.6134-55.6729 56.1857-55.6729C57.5033-55.6729 58.5203-55.2386 59.4351-54.3672L72.2191-41.6181L85.1087-54.4107C86.0235-55.3255 87.0926-55.7597 88.3495-55.7597C90.887-55.7597 92.9216-53.7251 92.9216-51.1946C92.9216-49.9678 92.5102-48.8868 91.5795-47.9577L78.7926-35.1503L91.536-22.4297C92.4234-21.5441 92.8782-20.4197 92.8782-19.1929C92.8782-16.5755 90.8436-14.5409 88.2627-14.5409C86.9623-14.5409 85.8064-14.9751 84.935-15.89L72.2191-28.6288L59.5654-15.89C58.6506-14.9751 57.5033-14.5409 56.1857-14.5409Z"/>
  </g>
  <g id="Regular-M" transform="matrix(1 0 0 1 1385.73 1126)">
   <path d="M100.442 9.76808C110.571 9.76808 115.76 4.6822 115.76-5.3946L115.76-64.981C115.76-75.0578 110.571-80.1437 100.442-80.1437L57.9987-80.1437C52.2581-80.1437 47.3717-78.6091 43.3344-74.4166L14.6069-44.5285C11.4314-41.26 9.96875-38.3337 9.96875-35.2712C9.96875-32.2087 11.3691-29.2718 14.6069-26.0034L43.3862 3.71598C47.434 7.90849 52.3098 9.71633 58.0504 9.71633ZM55.3758-14.7187C53.1273-14.7187 51.3657-16.5215 51.3657-18.8112C51.3657-19.8684 51.7491-20.8422 52.5369-21.63L66.0842-35.1772L52.5369-48.7245C51.7491-49.5123 51.3657-50.4861 51.3657-51.5433C51.3657-53.7812 53.1273-55.5323 55.3758-55.5323C56.4953-55.5323 57.3656-55.1489 58.164-54.4023L71.7831-40.8244L85.5162-54.454C86.3146-55.2524 87.2472-55.6358 88.2938-55.6358C90.5011-55.6358 92.304-53.833 92.304-51.6468C92.304-50.5378 91.9723-49.6158 91.1433-48.7762L77.5443-35.1772L91.0915-21.6818C91.8688-20.8939 92.2522-19.9201 92.2522-18.8112C92.2522-16.5215 90.4494-14.7187 88.1903-14.7187C87.0919-14.7187 86.0559-15.102 85.3092-15.9004L71.7831-29.4783L58.3193-15.9004C57.5209-15.102 56.4953-14.7187 55.3758-14.7187Z"/>
  </g>
  <g id="Light-M" transform="matrix(1 0 0 1 1090.19 1126)">
   <path d="M99.0391 9.03231C108.517 9.03231 113.433 4.18599 113.433-5.25771L113.433-65.0836C113.433-74.5273 108.517-79.3737 99.0391-79.3737L57.28-79.3737C51.7276-79.3737 47.3032-78.0787 43.4884-74.16L14.2476-43.998C11.2774-40.9862 9.96875-38.2652 9.96875-35.2883C9.96875-32.3114 11.2151-29.5627 14.2476-26.5509L43.5231 3.16843C47.3655 7.08717 51.7623 8.99767 57.3146 8.99767ZM54.0412-15.5571C52.2889-15.5571 50.9037-16.9493 50.9037-18.7085C50.9037-19.5604 51.2015-20.2946 51.8525-20.9456L66.0499-35.143L51.8525-49.3405C51.2015-49.9914 50.9037-50.7256 50.9037-51.5775C50.9037-53.3021 52.2889-54.6596 54.0412-54.6596C54.9553-54.6596 55.6203-54.3618 56.2989-53.7178L70.4827-39.5411L84.7633-53.7525C85.442-54.4311 86.1692-54.7289 86.9934-54.7289C88.7387-54.7289 90.1309-53.3368 90.1309-51.6468C90.1309-50.7603 89.8677-50.0607 89.2097-49.3751L74.9777-35.143L89.1751-20.9802C89.7984-20.3292 90.0962-19.595 90.0962-18.7085C90.0962-16.9493 88.7041-15.5571 86.9241-15.5571C86.0653-15.5571 85.2688-15.8549 84.6248-16.5336L70.4827-30.7103L56.4028-16.5336C55.7242-15.8549 54.9553-15.5571 54.0412-15.5571Z"/>
  </g>
  <g id="Thin-M" transform="matrix(1 0 0 1 795.014 1126)">
   <path d="M97.1834 8.0592C105.802 8.0592 110.355 3.5297 110.355-5.07666L110.355-65.2194C110.355-73.8258 105.802-78.3553 97.1834-78.3553L56.3295-78.3553C51.0261-78.3553 47.2127-77.3772 43.6921-73.8205L13.7724-43.2965C11.0737-40.6241 9.96875-38.1747 9.96875-35.3109C9.96875-32.4472 11.0114-29.9475 13.7724-27.2751L43.7041 2.44425C47.275 6.0009 51.0381 8.04718 56.3415 8.04718ZM52.276-16.666C51.18-16.666 50.2927-17.515 50.2927-18.5728C50.2927-19.153 50.4774-19.5704 50.9473-20.0403L66.0047-35.0978L50.9473-50.1552C50.4774-50.6251 50.2927-51.0425 50.2927-51.6228C50.2927-52.6685 51.18-53.5055 52.276-53.5055C52.9186-53.5055 53.312-53.3208 53.8322-52.8126L68.7627-37.8438L83.7676-52.8246C84.2878-53.3448 84.7435-53.5295 85.2735-53.5295C86.4078-53.5295 87.2568-52.6805 87.2568-51.6468C87.2568-51.0545 87.0841-50.6491 86.6525-50.1672L71.5831-35.0978L86.6405-20.0524C87.0601-19.5824 87.2448-19.165 87.2448-18.5728C87.2448-17.515 86.3957-16.666 85.2494-16.666C84.7074-16.666 84.2278-16.8507 83.7195-17.3709L68.7627-32.3397L53.8682-17.3709C53.348-16.8507 52.9186-16.666 52.276-16.666Z"/>
  </g>
  <g id="Ultralight-M" transform="matrix(1 0 0 1 499.091 1126)">
   <path d="M96.2329 7.56077C104.411 7.56077 108.779 3.19355 108.779-4.98393L108.779-65.289C108.779-73.4665 104.411-77.8337 96.2329-77.8337L55.8427-77.8337C50.6668-77.8337 47.1663-77.0178 43.7964-73.6466L13.529-42.9372C10.9694-40.4387 9.96875-38.1283 9.96875-35.3225C9.96875-32.5167 10.9071-30.1445 13.529-27.646L43.7968 2.07333C47.2286 5.44452 50.6672 7.56035 55.8431 7.56035ZM51.3719-17.234C50.612-17.234 49.9797-17.8048 49.9797-18.5032C49.9797-18.9444 50.1064-19.1995 50.4836-19.5767L65.9815-35.0746L50.4836-50.5724C50.1064-50.9496 49.9797-51.2048 49.9797-51.6459C49.9797-52.3439 50.612-52.9143 51.3719-52.9143C51.8754-52.9143 52.1296-52.7876 52.5687-52.349L67.8818-36.9744L83.2576-52.3494C83.6967-52.7885 84.0132-52.9152 84.3925-52.9152C85.2139-52.9152 85.7847-52.3443 85.7847-51.6468C85.7847-51.2052 85.6584-50.9505 85.3427-50.5729L69.8444-35.0746L85.3423-19.5771C85.6576-19.1999 85.7843-18.9448 85.7843-18.5032C85.7843-17.8048 85.2134-17.234 84.3917-17.234C84.012-17.234 83.6946-17.3607 83.2559-17.7998L67.8818-33.1743L52.57-17.7998C52.1309-17.3607 51.8754-17.234 51.3719-17.234Z"/>
  </g>
  <g id="Black-S" transform="matrix(1 0 0 1 2881.5 696)">
   <path d="M78.8086 2.92969C88.3789 2.92969 94.043-0.927734 94.043-10.498L94.043-58.1055C94.043-67.6758 88.3789-73.3398 78.8086-73.3398L46.5332-73.3398C38.1348-73.3398 34.9609-71.582 30.0293-65.625L12.793-44.6777C8.54492-39.5508 7.8125-37.7441 7.8125-35.2051C7.8125-32.6172 8.64258-30.7129 12.793-25.6836L30.0293-4.78516C35.0098 1.2207 38.0859 2.92969 46.4844 2.92969ZM47.168-18.3594C43.8965-18.3594 41.4062-20.8496 41.4062-24.1699C41.4062-25.5859 42.041-27.0508 43.1641-28.125L50.0488-35.0586L43.1641-41.9922C42.041-43.0664 41.4062-44.5312 41.4062-45.9473C41.4062-49.2676 43.8965-51.7578 47.168-51.7578C48.9746-51.7578 50.3418-51.2207 51.5137-50.0488L58.252-43.3105L65.0391-50.0488C66.2109-51.2207 67.5781-51.7578 69.3848-51.7578C72.6562-51.7578 75.1465-49.2676 75.1465-45.9473C75.1465-44.5312 74.5117-43.0664 73.3887-41.9922L66.5527-35.0586L73.3887-28.125C74.5117-27.0508 75.1465-25.5859 75.1465-24.1699C75.1465-20.8496 72.6562-18.3594 69.3848-18.3594C67.5781-18.3594 66.2109-18.8965 65.0391-20.0684L58.252-26.7578L51.5137-20.0684C50.3418-18.8965 48.9746-18.3594 47.168-18.3594Z"/>
  </g>
  <g id="Heavy-S" transform="matrix(1 0 0 1 2585.04 696)">
   <path d="M78.9469 2.33042C88.206 2.33042 93.5244-1.58463 93.5244-10.8323L93.5244-58.1977C93.5244-67.4453 88.206-72.7406 78.9469-72.7406L46.3603-72.7406C38.8608-72.7406 35.4795-71.0865 30.9397-65.7287L12.5164-44.2283C8.66017-39.6776 7.8125-37.7326 7.8125-35.2166C7.8125-32.6633 8.72325-30.6437 12.5164-26.1676L30.9513-4.70448C35.5284 0.690578 38.835 2.31889 46.3346 2.31889ZM46.4304-18.4516C43.4586-18.4516 41.1873-20.7344 41.1873-23.755C41.1873-25.0558 41.7529-26.3824 42.7722-27.3644L50.4637-35.0932L42.7722-42.8219C41.7529-43.804 41.1873-45.1305 41.1873-46.4313C41.1873-49.4404 43.4586-51.7117 46.4304-51.7117C48.0411-51.7117 49.27-51.2207 50.3267-50.1756L57.9293-42.5845L65.5922-50.1871C66.6489-51.2438 67.8893-51.7348 69.4885-51.7348C72.4488-51.7348 74.7316-49.452 74.7316-46.4543C74.7316-45.142 74.1775-43.827 73.1467-42.8335L65.481-35.0932L73.1351-27.3759C74.1545-26.3939 74.7201-25.0673 74.7201-23.755C74.7201-20.7344 72.4373-18.4516 69.4654-18.4516C67.8547-18.4516 66.5912-18.9426 65.5461-19.9992L57.9293-27.553L50.3612-19.9992C49.3046-18.9426 48.0411-18.4516 46.4304-18.4516Z"/>
  </g>
  <g id="Bold-S" transform="matrix(1 0 0 1 2288.62 696)">
   <path d="M79.1016 1.66016C88.0127 1.66016 92.9443-2.31934 92.9443-11.2061L92.9443-58.3008C92.9443-67.1875 88.0127-72.0703 79.1016-72.0703L46.167-72.0703C39.6729-72.0703 36.0596-70.5322 31.958-65.8447L12.207-43.7256C8.78906-39.8193 7.8125-37.7197 7.8125-35.2295C7.8125-32.7148 8.81348-30.5664 12.207-26.709L31.9824-4.61426C36.1084 0.0976562 39.6729 1.63574 46.167 1.63574ZM45.6055-18.5547C42.9688-18.5547 40.9424-20.6055 40.9424-23.291C40.9424-24.4629 41.4307-25.6348 42.334-26.5137L50.9277-35.1318L42.334-43.75C41.4307-44.6289 40.9424-45.8008 40.9424-46.9727C40.9424-49.6338 42.9688-51.6602 45.6055-51.6602C46.9971-51.6602 48.0713-51.2207 48.999-50.3174L57.5684-41.7725L66.2109-50.3418C67.1387-51.2695 68.2373-51.709 69.6045-51.709C72.2168-51.709 74.2676-49.6582 74.2676-47.0215C74.2676-45.8252 73.8037-44.6777 72.876-43.7744L64.2822-35.1318L72.8516-26.5381C73.7549-25.6592 74.2432-24.4873 74.2432-23.291C74.2432-20.6055 72.1924-18.5547 69.5557-18.5547C68.1641-18.5547 67.0166-18.9941 66.1133-19.9219L57.5684-28.4424L49.0723-19.9219C48.1445-18.9941 46.9971-18.5547 45.6055-18.5547Z"/>
  </g>
  <g id="Semibold-S" transform="matrix(1 0 0 1 1992.11 696)">
   <path d="M79.2082 1.19805C87.8794 1.19805 92.5444-2.82588 92.5444-11.4638L92.5444-58.3719C92.5444-67.0098 87.8794-71.6082 79.2082-71.6082L46.0337-71.6082C40.2327-71.6082 36.4595-70.1501 32.6601-65.9247L11.9938-43.379C8.87793-39.9171 7.8125-37.7108 7.8125-35.2384C7.8125-32.7504 8.87568-30.5131 11.9938-27.0822L32.6934-4.55205C36.5083-0.311133 40.2505 1.16475 46.0515 1.16475ZM45.0367-18.6258C42.6311-18.6258 40.7735-20.5166 40.7735-22.9711C40.7735-24.0541 41.2085-25.1193 42.0318-25.9271L51.2477-35.1585L42.0318-44.3898C41.2085-45.1977 40.7735-46.2629 40.7735-47.3459C40.7735-49.7671 42.6311-51.6246 45.0367-51.6246C46.2772-51.6246 47.2448-51.2207 48.0837-50.4151L57.3195-41.2126L66.6375-50.4484C67.4764-51.2873 68.4772-51.6912 69.6845-51.6912C72.0568-51.6912 73.9477-49.8004 73.9477-47.4125C73.9477-46.2962 73.546-45.2643 72.6894-44.4231L63.4558-35.1585L72.6561-25.9604C73.4794-25.1526 73.9144-24.0874 73.9144-22.9711C73.9144-20.5166 72.0235-18.6258 69.6179-18.6258C68.3773-18.6258 67.3099-19.0297 66.5043-19.8686L57.3195-29.0556L48.1836-19.8686C47.3447-19.0297 46.2772-18.6258 45.0367-18.6258Z"/>
  </g>
  <g id="Medium-S" transform="matrix(1 0 0 1 1695.55 696)">
   <path d="M79.2891 0.847656C87.7783 0.847656 92.2412-3.20996 92.2412-11.6592L92.2412-58.4258C92.2412-66.875 87.7783-71.2578 79.2891-71.2578L45.9326-71.2578C40.6572-71.2578 36.7627-69.8604 33.1924-65.9854L11.832-43.1162C8.94531-39.9912 7.8125-37.7041 7.8125-35.2451C7.8125-32.7773 8.92285-30.4727 11.832-27.3652L33.2324-4.50488C36.8115-0.621094 40.6885 0.807617 45.9639 0.807617ZM44.6055-18.6797C42.375-18.6797 40.6455-20.4492 40.6455-22.7285C40.6455-23.7441 41.04-24.7285 41.8027-25.4824L51.4902-35.1787L41.8027-44.875C41.04-45.6289 40.6455-46.6133 40.6455-47.6289C40.6455-49.8682 42.375-51.5977 44.6055-51.5977C45.7314-51.5977 46.6182-51.2207 47.3896-50.4893L57.1309-40.7881L66.9609-50.5293C67.7324-51.3008 68.6592-51.6777 69.7451-51.6777C71.9355-51.6777 73.7051-49.9082 73.7051-47.709C73.7051-46.6533 73.3506-45.709 72.5479-44.915L62.8291-35.1787L72.5078-25.5225C73.2705-24.7686 73.665-23.7842 73.665-22.7285C73.665-20.4492 71.8955-18.6797 69.665-18.6797C68.5391-18.6797 67.5322-19.0566 66.8008-19.8281L57.1309-29.5205L47.5098-19.8281C46.7383-19.0566 45.7314-18.6797 44.6055-18.6797Z"/>
  </g>
  <g id="Regular-S" transform="matrix(1 0 0 1 1399.04 696)">
   <path d="M79.3945 0.390625C87.6465 0.390625 91.8457-3.71094 91.8457-11.9141L91.8457-58.4961C91.8457-66.6992 87.6465-70.8008 79.3945-70.8008L45.8008-70.8008C41.2109-70.8008 37.1582-69.4824 33.8867-66.0645L11.6211-42.7734C9.0332-40.0879 7.8125-37.6953 7.8125-35.2539C7.8125-32.8125 8.98438-30.4199 11.6211-27.7344L33.9355-4.44336C37.207-1.02539 41.2598 0.341797 45.8496 0.341797ZM44.043-18.75C42.041-18.75 40.4785-20.3613 40.4785-22.4121C40.4785-23.3398 40.8203-24.2188 41.5039-24.9023L51.8066-35.2051L41.5039-45.5078C40.8203-46.1914 40.4785-47.0703 40.4785-47.998C40.4785-50 42.041-51.5625 44.043-51.5625C45.0195-51.5625 45.8008-51.2207 46.4844-50.5859L56.8848-40.2344L67.3828-50.6348C68.0664-51.3184 68.8965-51.6602 69.8242-51.6602C71.7773-51.6602 73.3887-50.0488 73.3887-48.0957C73.3887-47.1191 73.0957-46.2891 72.3633-45.5566L62.0117-35.2051L72.3145-24.9512C72.998-24.2676 73.3398-23.3887 73.3398-22.4121C73.3398-20.3613 71.7285-18.75 69.7266-18.75C68.75-18.75 67.8223-19.0918 67.1875-19.7754L56.8848-30.127L46.6309-19.7754C45.9473-19.0918 45.0195-18.75 44.043-18.75Z"/>
  </g>
  <g id="Light-S" transform="matrix(1 0 0 1 1103.36 696)">
   <path d="M78.1533-0.260249C85.8301-0.260249 89.7871-4.1499 89.7871-11.793L89.7871-58.5869C89.7871-66.23 85.8301-70.1196 78.1533-70.1196L45.165-70.1196C40.7417-70.1196 37.0977-69.0132 34.0229-65.8374L11.3032-42.3042C8.89697-39.8457 7.8125-37.6348 7.8125-35.269C7.8125-32.9033 8.84815-30.6772 11.3032-28.2187L34.0566-4.92773C37.1465-1.75195 40.7754-0.29394 45.1987-0.29394ZM42.8623-19.4917C41.2993-19.4917 40.0698-20.7397 40.0698-22.3213C40.0698-23.0674 40.3359-23.7344 40.8984-24.2969L51.7764-35.1748L40.8984-46.0527C40.3359-46.6152 40.0698-47.2822 40.0698-48.0283C40.0698-49.5762 41.2993-50.7905 42.8623-50.7905C43.6572-50.7905 44.2568-50.5244 44.8345-49.9805L55.7344-39.0991L66.7168-50.0142C67.2944-50.5918 67.9429-50.8579 68.6738-50.8579C70.2183-50.8579 71.4663-49.6099 71.4663-48.0957C71.4663-47.3159 71.2339-46.6826 70.6528-46.0864L59.7412-35.1748L70.6192-24.3306C71.1665-23.7681 71.4326-23.1011 71.4326-22.3213C71.4326-20.7397 70.1846-19.4917 68.6065-19.4917C67.8418-19.4917 67.126-19.7578 66.582-20.3354L55.7344-31.2168L44.9356-20.3354C44.3579-19.7578 43.6572-19.4917 42.8623-19.4917Z"/>
  </g>
  <g id="Thin-S" transform="matrix(1 0 0 1 808.007 696)">
   <path d="M76.5117-1.12108C83.4278-1.12108 87.0645-4.73046 87.0645-11.6328L87.0645-58.707C87.0645-65.6094 83.4278-69.2188 76.5117-69.2188L44.3242-69.2188C40.1211-69.2188 37.0176-68.3926 34.2031-65.5371L10.8828-41.6836C8.7168-39.5254 7.8125-37.5547 7.8125-35.2891C7.8125-33.0234 8.66797-31.0176 10.8828-28.8594L34.2168-5.56835C37.0664-2.71288 40.1348-1.13475 44.3379-1.13475ZM41.3008-20.4726C40.3184-20.4726 39.5293-21.2402 39.5293-22.2012C39.5293-22.707 39.6953-23.0938 40.0977-23.4961L51.7363-35.1348L40.0977-46.7734C39.6953-47.1758 39.5293-47.5625 39.5293-48.0684C39.5293-49.0156 40.3184-49.7695 41.3008-49.7695C41.8555-49.7695 42.2149-49.6035 42.6524-49.1797L54.2129-37.5977L65.8359-49.1934C66.2735-49.6309 66.6817-49.7969 67.1524-49.7969C68.1563-49.7969 68.9239-49.0293 68.9239-48.0957C68.9239-47.5762 68.7715-47.2031 68.3907-46.7871L56.7383-35.1348L68.377-23.5098C68.7442-23.1074 68.9102-22.7207 68.9102-22.2012C68.9102-21.2402 68.1426-20.4726 67.125-20.4726C66.6406-20.4726 66.2051-20.6387 65.7813-21.0762L54.2129-32.6582L42.6934-21.0762C42.2559-20.6387 41.8555-20.4726 41.3008-20.4726Z"/>
  </g>
  <g id="Ultralight-S" transform="matrix(1 0 0 1 511.993 696)">
   <path d="M75.6709-1.562C82.1973-1.562 85.67-5.02782 85.67-11.5508L85.67-58.7686C85.67-65.2915 82.1973-68.7573 75.6709-68.7573L43.8936-68.7573C39.8032-68.7573 36.9766-68.0747 34.2954-65.3833L10.6675-41.3657C8.62451-39.3613 7.8125-37.5137 7.8125-35.2993C7.8125-33.085 8.57569-31.1919 10.6675-29.1875L34.2988-5.89647C37.0254-3.20506 39.8067-1.56541 43.897-1.56541ZM40.501-20.9751C39.8159-20.9751 39.2525-21.4966 39.2525-22.1397C39.2525-22.5225 39.3672-22.7656 39.6875-23.086L51.7158-35.1143L39.6875-47.1426C39.3672-47.4629 39.2525-47.706 39.2525-48.0889C39.2525-48.7285 39.8159-49.2466 40.501-49.2466C40.9326-49.2466 41.169-49.1319 41.5347-48.7695L53.4336-36.8286L65.3848-48.773C65.7505-49.1387 66.0357-49.2534 66.3731-49.2534C67.1001-49.2534 67.6216-48.7319 67.6216-48.0957C67.6216-47.7095 67.5103-47.4697 67.232-47.146L55.2002-35.1143L67.2286-23.0894C67.5035-22.7691 67.6182-22.5259 67.6182-22.1397C67.6182-21.4966 67.0967-20.9751 66.3662-20.9751C66.0254-20.9751 65.7334-21.0898 65.3711-21.4556L53.4336-33.3965L41.545-21.4556C41.1792-21.0898 40.9326-20.9751 40.501-20.9751Z"/>
  </g>
 </g>
</svg>
