<?xml version="1.0" encoding="UTF-8" standalone="no"?>
<!--Generator: Apple Native CoreSVG 232.5-->
<!DOCTYPE svg
PUBLIC "-//W3C//DTD SVG 1.1//EN"
       "http://www.w3.org/Graphics/SVG/1.1/DTD/svg11.dtd">
<svg version="1.1" xmlns="http://www.w3.org/2000/svg" xmlns:xlink="http://www.w3.org/1999/xlink" width="3300" height="2200">
  <g id="Notes">
    <rect height="2200" id="artboard" style="fill:white;opacity:1" width="3300" x="0" y="0"/>
    <line style="fill:none;stroke:black;opacity:1;stroke-width:0.5;" x1="263" x2="3036" y1="292" y2="292"/>
    <text style="stroke:none;fill:black;font-family:sans-serif;font-size:13;font-weight:bold;" transform="matrix(1 0 0 1 263 322)">Weight/Scale Variations</text>
    <text style="stroke:none;fill:black;font-family:sans-serif;font-size:13;text-anchor:middle;" transform="matrix(1 0 0 1 559.711 322)">Ultralight</text>
    <text style="stroke:none;fill:black;font-family:sans-serif;font-size:13;text-anchor:middle;" transform="matrix(1 0 0 1 856.422 322)">Thin</text>
    <text style="stroke:none;fill:black;font-family:sans-serif;font-size:13;text-anchor:middle;" transform="matrix(1 0 0 1 1153.13 322)">Light</text>
    <text style="stroke:none;fill:black;font-family:sans-serif;font-size:13;text-anchor:middle;" transform="matrix(1 0 0 1 1449.84 322)">Regular</text>
    <text style="stroke:none;fill:black;font-family:sans-serif;font-size:13;text-anchor:middle;" transform="matrix(1 0 0 1 1746.56 322)">Medium</text>
    <text style="stroke:none;fill:black;font-family:sans-serif;font-size:13;text-anchor:middle;" transform="matrix(1 0 0 1 2043.27 322)">Semibold</text>
    <text style="stroke:none;fill:black;font-family:sans-serif;font-size:13;text-anchor:middle;" transform="matrix(1 0 0 1 2339.98 322)">Bold</text>
    <text style="stroke:none;fill:black;font-family:sans-serif;font-size:13;text-anchor:middle;" transform="matrix(1 0 0 1 2636.69 322)">Heavy</text>
    <text style="stroke:none;fill:black;font-family:sans-serif;font-size:13;text-anchor:middle;" transform="matrix(1 0 0 1 2933.4 322)">Black</text>
    <line style="fill:none;stroke:black;opacity:1;stroke-width:0.5;" x1="263" x2="3036" y1="1903" y2="1903"/>
    <g transform="matrix(0.2 0 0 0.2 263 1933)">
      <path d="m46.2402 4.15039c21.5332 0 39.4531-17.8711 39.4531-39.4043s-17.9688-39.4043-39.502-39.4043c-21.4844 0-39.3555 17.8711-39.3555 39.4043s17.9199 39.4043 39.4043 39.4043Zm0-7.42188c-17.7246 0-31.8848-14.209-31.8848-31.9824s14.1113-31.9824 31.8359-31.9824c17.7734 0 32.0312 14.209 32.0312 31.9824s-14.209 31.9824-31.9824 31.9824Zm-17.9688-31.9824c0 2.14844 1.51367 3.61328 3.75977 3.61328h10.498v10.5957c0 2.19727 1.46484 3.71094 3.61328 3.71094 2.24609 0 3.71094-1.51367 3.71094-3.71094v-10.5957h10.5957c2.19727 0 3.71094-1.46484 3.71094-3.61328 0-2.19727-1.51367-3.71094-3.71094-3.71094h-10.5957v-10.5469c0-2.24609-1.46484-3.75977-3.71094-3.75977-2.14844 0-3.61328 1.51367-3.61328 3.75977v10.5469h-10.498c-2.24609 0-3.75977 1.51367-3.75977 3.71094Z"/>
    </g>
    <g transform="matrix(0.2 0 0 0.2 281.506 1933)">
      <path d="m58.5449 14.5508c27.2461 0 49.8047-22.6074 49.8047-49.8047 0-27.2461-22.6074-49.8047-49.8535-49.8047-27.1973 0-49.7559 22.5586-49.7559 49.8047 0 27.1973 22.6074 49.8047 49.8047 49.8047Zm0-8.30078c-23.0469 0-41.4551-18.457-41.4551-41.5039s18.3594-41.5039 41.4062-41.5039 41.5527 18.457 41.5527 41.5039-18.457 41.5039-41.5039 41.5039Zm-22.6562-41.5039c0 2.39258 1.66016 4.00391 4.15039 4.00391h14.3555v14.4043c0 2.44141 1.66016 4.15039 4.05273 4.15039 2.44141 0 4.15039-1.66016 4.15039-4.15039v-14.4043h14.4043c2.44141 0 4.15039-1.61133 4.15039-4.00391 0-2.44141-1.70898-4.15039-4.15039-4.15039h-14.4043v-14.3555c0-2.49023-1.70898-4.19922-4.15039-4.19922-2.39258 0-4.05273 1.70898-4.05273 4.19922v14.3555h-14.3555c-2.49023 0-4.15039 1.70898-4.15039 4.15039Z"/>
    </g>
    <g transform="matrix(0.2 0 0 0.2 304.924 1933)">
      <path d="m74.8535 28.3203c34.8145 0 63.623-28.8086 63.623-63.5742 0-34.8145-28.8574-63.623-63.6719-63.623-34.7656 0-63.5254 28.8086-63.5254 63.623 0 34.7656 28.8086 63.5742 63.5742 63.5742Zm0-9.08203c-30.1758 0-54.4434-24.3164-54.4434-54.4922 0-30.2246 24.2188-54.4922 54.3945-54.4922 30.2246 0 54.541 24.2676 54.541 54.4922 0 30.1758-24.2676 54.4922-54.4922 54.4922Zm-28.8574-54.4922c0 2.58789 1.85547 4.39453 4.58984 4.39453h19.7266v19.7754c0 2.68555 1.85547 4.58984 4.44336 4.58984 2.68555 0 4.54102-1.85547 4.54102-4.58984v-19.7754h19.7754c2.68555 0 4.58984-1.80664 4.58984-4.39453 0-2.73438-1.85547-4.58984-4.58984-4.58984h-19.7754v-19.7266c0-2.73438-1.85547-4.63867-4.54102-4.63867-2.58789 0-4.44336 1.9043-4.44336 4.63867v19.7266h-19.7266c-2.73438 0-4.58984 1.85547-4.58984 4.58984Z"/>
    </g>
    <text style="stroke:none;fill:black;font-family:sans-serif;font-size:13;font-weight:bold;" transform="matrix(1 0 0 1 263 1953)">Design Variations</text>
    <text style="stroke:none;fill:black;font-family:sans-serif;font-size:13;" transform="matrix(1 0 0 1 263 1971)">Symbols are supported in up to nine weights and three scales.</text>
    <text style="stroke:none;fill:black;font-family:sans-serif;font-size:13;" transform="matrix(1 0 0 1 263 1989)">For optimal layout with text and other symbols, vertically align</text>
    <text style="stroke:none;fill:black;font-family:sans-serif;font-size:13;" transform="matrix(1 0 0 1 263 2007)">symbols with the adjacent text.</text>
    <line style="fill:none;stroke:#00AEEF;stroke-width:0.5;opacity:1.0;" x1="776" x2="776" y1="1919" y2="1933"/>
    <g transform="matrix(0.2 0 0 0.2 776 1933)">
      <path d="m16.5527 0.78125c2.58789 0 3.85742-0.976562 4.78516-3.71094l6.29883-17.2363h28.8086l6.29883 17.2363c0.927734 2.73438 2.19727 3.71094 4.73633 3.71094 2.58789 0 4.24805-1.5625 4.24805-4.00391 0-0.830078-0.146484-1.61133-0.537109-2.63672l-22.9004-60.9863c-1.12305-2.97852-3.125-4.49219-6.25-4.49219-3.02734 0-5.07812 1.46484-6.15234 4.44336l-22.9004 61.084c-0.390625 1.02539-0.537109 1.80664-0.537109 2.63672 0 2.44141 1.5625 3.95508 4.10156 3.95508Zm13.4766-28.3691 11.8652-32.8613h0.244141l11.8652 32.8613Z"/>
    </g>
    <line style="fill:none;stroke:#00AEEF;stroke-width:0.5;opacity:1.0;" x1="792.836" x2="792.836" y1="1919" y2="1933"/>
    <text style="stroke:none;fill:black;font-family:sans-serif;font-size:13;font-weight:bold;" transform="matrix(1 0 0 1 776 1953)">Margins</text>
    <text style="stroke:none;fill:black;font-family:sans-serif;font-size:13;" transform="matrix(1 0 0 1 776 1971)">Leading and trailing margins on the left and right side of each symbol</text>
    <text style="stroke:none;fill:black;font-family:sans-serif;font-size:13;" transform="matrix(1 0 0 1 776 1989)">can be adjusted by modifying the x-location of the margin guidelines.</text>
    <text style="stroke:none;fill:black;font-family:sans-serif;font-size:13;" transform="matrix(1 0 0 1 776 2007)">Modifications are automatically applied proportionally to all</text>
    <text style="stroke:none;fill:black;font-family:sans-serif;font-size:13;" transform="matrix(1 0 0 1 776 2025)">scales and weights.</text>
    <g transform="matrix(0.2 0 0 0.2 1289 1933)">
      <path d="m14.209 9.32617 8.49609 8.54492c4.29688 4.3457 9.22852 4.05273 13.8672-1.07422l53.4668-58.9355-4.83398-4.88281-53.0762 58.3984c-1.75781 2.00195-3.41797 2.49023-5.76172 0.146484l-5.85938-5.81055c-2.34375-2.29492-1.80664-4.00391 0.195312-5.81055l57.373-54.0039-4.88281-4.83398-57.959 54.4434c-4.93164 4.58984-5.32227 9.47266-1.02539 13.8184Zm32.0801-90.9668c-2.09961 2.05078-2.24609 4.93164-1.07422 6.88477 1.17188 1.80664 3.4668 2.97852 6.68945 2.14844 7.32422-1.70898 14.9414-2.00195 22.0703 2.68555l-2.92969 7.27539c-1.70898 4.15039-0.830078 7.08008 1.85547 9.81445l11.4746 11.5723c2.44141 2.44141 4.49219 2.53906 7.32422 2.05078l5.32227-0.976562 3.32031 3.36914-0.195312 2.7832c-0.195312 2.49023 0.439453 4.39453 2.88086 6.78711l3.80859 3.71094c2.39258 2.39258 5.46875 2.53906 7.8125 0.195312l14.5508-14.5996c2.34375-2.34375 2.24609-5.32227-0.146484-7.71484l-3.85742-3.80859c-2.39258-2.39258-4.24805-3.17383-6.64062-2.97852l-2.88086 0.244141-3.22266-3.17383 1.2207-5.61523c0.634766-2.83203-0.146484-5.0293-3.07617-7.95898l-10.9863-10.9375c-16.6992-16.6016-38.8672-16.2109-53.3203-1.75781Zm7.4707 1.85547c12.1582-8.88672 28.6133-7.37305 39.7461 3.75977l12.1582 12.0605c1.17188 1.17188 1.36719 2.09961 1.02539 3.80859l-1.61133 7.42188 7.51953 7.42188 4.93164-0.292969c1.26953-0.0488281 1.66016 0.0488281 2.63672 1.02539l2.88086 2.88086-12.207 12.207-2.88086-2.88086c-0.976562-0.976562-1.12305-1.36719-1.07422-2.68555l0.341797-4.88281-7.4707-7.42188-7.61719 1.26953c-1.61133 0.341797-2.34375 0.195312-3.56445-0.976562l-10.0098-10.0098c-1.26953-1.17188-1.41602-2.00195-0.634766-3.85742l4.39453-10.4492c-7.8125-7.27539-17.9688-10.4004-28.125-7.42188-0.78125 0.195312-1.07422-0.439453-0.439453-0.976562Z"/>
    </g>
    <text style="stroke:none;fill:black;font-family:sans-serif;font-size:13;font-weight:bold;" transform="matrix(1 0 0 1 1289 1953)">Exporting</text>
    <text style="stroke:none;fill:black;font-family:sans-serif;font-size:13;" transform="matrix(1 0 0 1 1289 1971)">Symbols should be outlined when exporting to ensure the</text>
    <text style="stroke:none;fill:black;font-family:sans-serif;font-size:13;" transform="matrix(1 0 0 1 1289 1989)">design is preserved when submitting to Xcode.</text>
    <text id="template-version" style="stroke:none;fill:black;font-family:sans-serif;font-size:13;text-anchor:end;" transform="matrix(1 0 0 1 3036 1933)">Template v.2.0</text>
    <text style="stroke:none;fill:black;font-family:sans-serif;font-size:13;text-anchor:end;" transform="matrix(1 0 0 1 3036 1951)">Requires Xcode 12 or greater</text>
    <text id="descriptive-name" style="stroke:none;fill:black;font-family:sans-serif;font-size:13;text-anchor:end;" transform="matrix(1 0 0 1 3036 1969)">Generated from lock.fill</text>
    <text style="stroke:none;fill:black;font-family:sans-serif;font-size:13;text-anchor:end;" transform="matrix(1 0 0 1 3036 1987)">Typeset at 100.0 points</text>
    <text style="stroke:none;fill:black;font-family:sans-serif;font-size:13;" transform="matrix(1 0 0 1 263 726)">Small</text>
    <text style="stroke:none;fill:black;font-family:sans-serif;font-size:13;" transform="matrix(1 0 0 1 263 1156)">Medium</text>
    <text style="stroke:none;fill:black;font-family:sans-serif;font-size:13;" transform="matrix(1 0 0 1 263 1586)">Large</text>
  </g>
  <g id="Guides">
    <g id="H-reference" style="fill:#27AAE1;stroke:none;" transform="matrix(1 0 0 1 339 696)">
      <path d="M0.993654 0L3.63775 0L29.3281-67.1323L30.0303-67.1323L30.0303-70.459L28.1226-70.459ZM11.6885-24.4799L46.9815-24.4799L46.2315-26.7285L12.4385-26.7285ZM55.1196 0L57.7637 0L30.6382-70.459L29.4326-70.459L29.4326-67.1323Z"/>
    </g>
    <line id="Baseline-S" style="fill:none;stroke:#27AAE1;opacity:1;stroke-width:0.5;" x1="263" x2="3036" y1="696" y2="696"/>
    <line id="Capline-S" style="fill:none;stroke:#27AAE1;opacity:1;stroke-width:0.5;" x1="263" x2="3036" y1="625.541" y2="625.541"/>
    <g id="H-reference" style="fill:#27AAE1;stroke:none;" transform="matrix(1 0 0 1 339 1126)">
      <path d="M0.993654 0L3.63775 0L29.3281-67.1323L30.0303-67.1323L30.0303-70.459L28.1226-70.459ZM11.6885-24.4799L46.9815-24.4799L46.2315-26.7285L12.4385-26.7285ZM55.1196 0L57.7637 0L30.6382-70.459L29.4326-70.459L29.4326-67.1323Z"/>
    </g>
    <line id="Baseline-M" style="fill:none;stroke:#27AAE1;opacity:1;stroke-width:0.5;" x1="263" x2="3036" y1="1126" y2="1126"/>
    <line id="Capline-M" style="fill:none;stroke:#27AAE1;opacity:1;stroke-width:0.5;" x1="263" x2="3036" y1="1055.54" y2="1055.54"/>
    <g id="H-reference" style="fill:#27AAE1;stroke:none;" transform="matrix(1 0 0 1 339 1556)">
      <path d="M0.993654 0L3.63775 0L29.3281-67.1323L30.0303-67.1323L30.0303-70.459L28.1226-70.459ZM11.6885-24.4799L46.9815-24.4799L46.2315-26.7285L12.4385-26.7285ZM55.1196 0L57.7637 0L30.6382-70.459L29.4326-70.459L29.4326-67.1323Z"/>
    </g>
    <line id="Baseline-L" style="fill:none;stroke:#27AAE1;opacity:1;stroke-width:0.5;" x1="263" x2="3036" y1="1556" y2="1556"/>
    <line id="Capline-L" style="fill:none;stroke:#27AAE1;opacity:1;stroke-width:0.5;" x1="263" x2="3036" y1="1485.54" y2="1485.54"/>
    <line id="left-margin" style="fill:none;stroke:#00AEEF;stroke-width:0.5;opacity:1.0;" x1="1396.59" x2="1396.59" y1="1030.79" y2="1150.12"/>
    <line id="right-margin" style="fill:none;stroke:#00AEEF;stroke-width:0.5;opacity:1.0;" x1="1503.1" x2="1503.1" y1="1030.79" y2="1150.12"/>
  </g>
  <g id="Symbols">
    <g id="Black-L" transform="matrix(1 0 0 1 2859.89 1556)">
     <path d="m 139.55205,-5.09845 v -63.5605 c 0,-10.682 -5.3973,-15.996 -17.0514,-15.996 h -48.6585 c -11.5177,0 -16.915,5.314 -16.915,15.996 v 63.5605 c 0,10.6807 5.3973,15.9951 16.915,15.9951 h 48.6585 c 11.6541,0 17.0514,-5.3144 17.0514,-15.9951 z m -75.7948,2.7682 v -17.9935 h -21.1797 c -10.8993,0 -17.6729,-7.1442 -17.6729,-16.5452 0,-9.3611 6.7736,-16.644 17.6729,-16.644 h 21.1797 v -17.994 h -20.767 c -21.8404,0 -35.5219,15.0549 -35.5219,34.638 0,19.5635 13.6815,34.5387 35.5219,34.5387 z"/>
    </g>
    <g id="Heavy-L" transform="matrix(1 0 0 1 2564.32 1556)">
     <path d="m 137.3543,-5.7554 v -62.2513 c 0,-10.293 -5.3096,-15.511 -16.5069,-15.511 H 73.3319 c -11.0835,0 -16.3931,5.218 -16.3931,15.511 v 62.2513 c 0,10.2874 5.3096,15.5053 16.3931,15.5053 h 47.5155 c 11.1973,0 16.5069,-5.2179 16.5069,-15.5053 z M 63.2222,-2.9836 V -18.9321 H 42.1637 c -12.1217,0 -19.3676,-7.8775 -19.3676,-17.9367 0,-10.0336 7.2459,-18.0361 19.3676,-18.0361 H 63.2222 V -70.8537 H 42.7506 c -22.1742,0 -35.3685,15.0864 -35.3685,33.9849 0,18.8738 13.1943,33.8852 35.3685,33.8852 z"/>
    </g>
    <g id="Bold-L" transform="matrix(1 0 0 1 2268.92 1556)">
     <path d="m 134.7867,-6.4247 v -60.9206 c 0,-9.764 -5.2169,-14.874 -15.7936,-14.874 H 72.5637 c -10.4935,0 -15.7104,5.11 -15.7104,14.874 v 60.9206 c 0,9.751 5.2169,14.861 15.7104,14.861 h 46.4294 c 10.5767,0 15.7936,-5.11 15.7936,-14.861 z M 62.386,-3.772 V -17.1626 H 41.7121 c -13.5535,0 -21.4803,-8.7246 -21.4803,-19.7101 0,-10.9679 7.9268,-19.8021 21.4803,-19.8021 H 62.386 V -70.0653 H 42.4321 c -22.3655,0 -35.0944,14.9904 -35.0944,33.1926 0,18.1774 12.7289,33.1007 35.0944,33.1007 z"/>
    </g>
    <g id="Semibold-L" transform="matrix(1 0 0 1 1973.1 1556)">
     <path d="m 133.0168,-6.8856 v -60.0038 c 0,-9.399 -5.153,-14.435 -15.3018,-14.435 H 72.0343 c -10.0867,0 -15.2397,5.036 -15.2397,14.435 v 60.0038 c 0,9.3812 5.153,14.4168 15.2397,14.4168 h 45.6807 c 10.1488,0 15.3018,-5.0356 15.3018,-14.4168 z m -71.2071,2.5705 v -11.627 H 41.4009 c -14.5405,0 -22.9367,-9.3087 -22.9367,-20.9328 0,-11.6119 8.3962,-21.0196 22.9367,-21.0196 H 61.8097 V -69.5214 H 42.2128 c -22.4974,0 -34.9052,14.9243 -34.9052,32.6465 0,17.6973 12.4078,32.5598 34.9052,32.5598 z"/>
    </g>
    <g id="Medium-L" transform="matrix(1 0 0 1 1677.08 1556)">
     <path d="m 131.6748,-7.2353 v -59.3079 c 0,-9.1237 -5.1045,-14.1027 -14.9288,-14.1027 H 71.6329 c -9.7782,0 -14.8828,4.979 -14.8828,14.1027 v 59.3079 c 0,9.1008 5.1046,14.08 14.8828,14.08 h 45.1131 c 9.8243,0 14.9288,-4.9792 14.9288,-14.08 z m -70.302,2.5083 v -10.29 H 41.1651 c -15.289,0 -24.0411,-9.7515 -24.0411,-21.8598 0,-12.1003 8.7521,-21.9427 24.0411,-21.9427 H 61.3728 V -69.1099 H 42.0466 c -22.5974,0 -34.762,14.8749 -34.762,32.2331 0,17.3333 12.1646,32.1498 34.762,32.1498 z"/>
    </g>
    <g id="Regular-L" transform="matrix(1 0 0 1 1381.26 1556)">
     <path d="m 129.9241,-7.6918 v -58.4005 c 0,-8.7633 -5.0413,-13.6683 -14.44239,-13.6683 H 71.1091 c -9.376,0 -14.4173,4.905 -14.4173,13.6683 v 58.4005 c 0,8.7352 5.0413,13.6408 14.4173,13.6408 h 44.37261 c 9.40109,0 14.44239,-4.9056 14.44239,-13.6408 z m -69.1215,2.4271 v -8.5458 H 40.8571 c -16.2652,0 -25.4815,-10.3291 -25.4815,-23.069 0,-12.7373 9.2163,-23.1468 25.4815,-23.1468 h 19.9455 v -8.5463 H 41.8294 c -22.7278,0 -34.5751,14.8096 -34.5751,31.6931 0,16.8584 11.8473,31.6148 34.5751,31.6148 z"/>
    </g>
    <g id="Light-L" transform="matrix(1 0 0 1 1084.74 1556)">
     <path d="m 129.15105,-7.22425 v -59.3548 c 0,-8.0951 -5.0795,-13.0001 -13.6981,-13.0001 h -45.7467 c -8.6317,0 -13.7112,4.905 -13.7112,13.0001 v 59.3548 c 0,8.0481 5.0795,12.9537 13.7112,12.9537 h 45.7467 c 8.6186,0 13.6981,-4.9056 13.6981,-12.9537 z m -70.0376,1.5492 v -6.6183 h -18.1706 c -16.7233,0 -27.0274,-10.5199 -27.0274,-24.6148 0,-14.0352 10.3041,-24.6355 27.0274,-24.6355 h 18.1706 v -6.6183 h -17.6373 c -21.43,0 -33.8498,13.8741 -33.8498,31.2538 0,17.3927 12.4198,31.2331 33.8498,31.2331 z"/>
    </g>
    <g id="Thin-L" transform="matrix(1 0 0 1 788.298 1556)">
     <path d="m 128.1288,-6.6058 v -60.6169 c 0,-7.2117 -5.13,-12.1167 -12.7137,-12.1167 H 67.851 c -7.6472,0 -12.7772,4.905 -12.7772,12.1167 v 60.6169 c 0,7.1394 5.13,12.045 12.7772,12.045 h 47.5641 c 7.5837,0 12.7137,-4.9056 12.7137,-12.045 z m -71.2492,0.3881 v -4.0689 H 41.0565 c -17.3291,0 -29.072,-10.7723 -29.072,-26.6594 0,-15.7516 11.7429,-26.6043 29.072,-26.6043 h 15.8231 v -4.0689 H 41.0093 c -19.7136,0 -32.8907,12.6372 -32.8907,30.6732 0,18.0995 13.1771,30.7283 32.8907,30.7283 z"/>
    </g>
    <g id="Ultralight-L" transform="matrix(1 0 0 1 491.723 1556)">
     <path d="m 127.6054,-6.2888 v -61.2633 c 0,-6.7587 -5.1558,-11.6647 -12.2094,-11.6647 H 66.901 c -7.143,0 -12.2989,4.906 -12.2989,11.6647 v 61.2633 c 0,6.674 5.1559,11.5796 12.2989,11.5796 h 48.495 c 7.0536,0 12.2094,-4.9056 12.2094,-11.5796 z M 55.7356,-6.4954 V -9.2585 H 41.1149 c -17.6394,0 -30.1193,-10.9016 -30.1193,-27.7066 0,-16.6308 12.4799,-27.6128 30.1193,-27.6128 h 14.6207 v -2.763 H 40.7703 c -18.8344,0 -32.3993,12.0036 -32.3993,30.3758 0,18.4615 13.5649,30.4697 32.3993,30.4697 z"/>
    </g>
    <g id="Black-M" transform="matrix(1 0 0 1 2875.49 1126)">
     <path d="m 109.90155,-11.25785 v -50.4975 c 0,-8.5194 -4.262,-12.7197 -13.57743,-12.7197 H 57.45775 c -9.1955,0 -13.4575,4.2003 -13.4575,12.7197 v 50.4975 c 0,8.5197 4.262,12.72 13.4575,12.72 h 38.86637 c 9.31543,0 13.57743,-4.2003 13.57743,-12.72 z m -60.2744,2.0226 v -15.4367 h -16.2726 c -7.4555,0 -12.4447,-4.9304 -12.4447,-11.8318 0,-6.8502 4.9892,-11.9001 12.4447,-11.9001 h 16.2726 v -15.4367 h -16.1619 c -16.458,0 -27.5546,11.5094 -27.5546,27.3368 0,15.8217 11.0966,27.2685 27.5546,27.2685 z"/>
    </g>
    <g id="Heavy-M" transform="matrix(1 0 0 1 2579.88 1126)">
     <path d="m 107.82395,-11.94305 v -49.1297 c 0,-8.2009 -4.1727,-12.3068 -13.11386,-12.3068 H 57.08795 c -8.8398,0 -13.0126,4.1059 -13.0126,12.3068 v 49.1297 c 0,8.1986 4.1728,12.3045 13.0126,12.3045 h 37.62214 c 8.94116,0 13.11386,-4.1059 13.11386,-12.3045 z m -58.5645,2.1071 v -13.6154 h -16.3178 c -8.6083,0 -13.9589,-5.6298 -13.9589,-13.0495 0,-7.388 5.3506,-13.1236 13.9589,-13.1236 h 16.3178 v -13.6155 h -15.9964 c -16.904,0 -27.471,11.6267 -27.471,26.7391 0,15.0983 10.567,26.6649 27.471,26.6649 z"/>
    </g>
    <g id="Bold-M" transform="matrix(1 0 0 1 2284.4 1126)">
     <path d="m 105.4999,-12.7095 v -47.5996 c 0,-7.8445 -4.07304,-11.8449 -12.595421,-11.8449 H 56.6742 c -8.4418,0 -12.5148,4.0004 -12.5148,11.8449 v 47.5996 c 0,7.8394 4.073,11.8398 12.5148,11.8398 h 36.230279 c 8.522381,0 12.595421,-4.0004 12.595421,-11.8398 z m -56.6519,2.2016 v -11.578 H 32.4797 c -9.8979,0 -15.6528,-6.412 -15.6528,-14.4116 0,-7.9895 5.7549,-14.4923 15.6528,-14.4923 H 48.848 V -62.5679 H 33.0367 c -17.4029,0 -27.3773,11.7579 -27.3773,26.0704 0,14.289 9.9744,25.9896 27.3773,25.9896 z"/>
    </g>
    <g id="Semibold-M" transform="matrix(1 0 0 1 1988.53 1126)">
     <path d="m 103.89765,-13.23795 v -46.5447 c 0,-7.5988 -4.0042,-11.5265 -12.237908,-11.5265 H 56.38895 c -8.1675,0 -12.1717,3.9277 -12.1717,11.5265 v 46.5447 c 0,7.5917 4.0042,11.5194 12.1717,11.5194 h 35.270792 c 8.233708,0 12.237908,-3.9277 12.237908,-11.5194 z m -55.3332,2.2668 v -10.1735 h -16.4032 c -10.787,0 -16.8204,-6.9513 -16.8204,-15.3507 0,-8.4041 6.0334,-15.4359 16.8204,-15.4359 h 16.4032 v -10.1734 h -15.6837 c -17.7468,0 -27.3128,11.8482 -27.3128,25.6093 0,13.7312 9.566,25.5242 27.3128,25.5242 z"/>
    </g>
    <g id="Medium-M" transform="matrix(1 0 0 1 1692.46 1126)">
     <path d="m 102.68275,-13.63865 v -45.7448 c 0,-7.4126 -3.95199,-11.2851 -11.966819,-11.2851 H 56.17265 c -7.9594,0 -11.9114,3.8725 -11.9114,11.2851 v 45.7448 c 0,7.404 3.952,11.2765 11.9114,11.2765 h 34.543281 c 8.014829,0 11.966819,-3.8725 11.966819,-11.2765 z m -54.3334,2.3162 v -9.1084 h -16.4296 c -11.461,0 -17.7058,-7.3602 -17.7058,-16.0628 0,-8.7185 6.2448,-16.1513 17.7058,-16.1513 h 16.4296 v -9.1084 h -15.5869 c -18.0076,0 -27.2638,11.9168 -27.2638,25.2597 0,13.3081 9.2562,25.1712 27.2638,25.1712 z"/>
    </g>
    <g id="Regular-M" transform="matrix(1 0 0 1 1396.59 1126)">
     <path d="m 101.0982,-14.1612 v -44.7016 c 0,-7.1696 -3.88399,-10.9702 -11.613311,-10.9702 H 55.8906 c -7.6881,0 -11.5721,3.8006 -11.5721,10.9702 v 44.7016 c 0,7.159 3.884,10.9596 11.5721,10.9596 h 33.594289 c 7.729321,0 11.613311,-3.8006 11.613311,-10.9596 z m -53.0293,2.3807 v -7.7194 H 31.6048 c -12.3403,0 -18.8607,-7.8936 -18.8607,-16.9915 0,-9.1286 6.5204,-17.0845 18.8607,-17.0845 h 16.4641 v -7.7193 H 32.6083 c -18.3478,0 -27.2001,12.0062 -27.2001,24.8038 0,12.7564 8.8523,24.7109 27.2001,24.7109 z"/>
    </g>
    <g id="Light-M" transform="matrix(1 0 0 1 1100.06 1126)">
     <path d="m 100.4052,-13.742 v -45.5571 c 0,-6.5707 -3.91825,-10.3713 -10.946024,-10.3713 H 54.6329 c -7.0207,0 -10.939,3.8006 -10.939,10.3713 v 45.5571 c 0,6.543 3.9183,10.3436 10.939,10.3436 h 34.826276 c 7.027774,0 10.946024,-3.8006 10.946024,-10.3436 z m -53.8507,1.5935 v -5.9911 H 31.6818 c -12.751,0 -20.2467,-8.0647 -20.2467,-18.3775 0,-10.2921 7.4957,-18.4192 20.2467,-18.4192 h 14.8727 v -5.9911 H 32.2917 c -17.1843,0 -26.5499,11.1679 -26.5499,24.4103 0,13.2355 9.3656,24.3686 26.5499,24.3686 z"/>
    </g>
    <g id="Thin-M" transform="matrix(1 0 0 1 803.586 1126)">
     <path d="m 99.48865,-13.18755 v -46.6887 c 0,-5.7786 -3.96346,-9.5792 -10.063379,-9.5792 H 52.96965 c -6.1382,0 -10.1017,3.8006 -10.1017,9.5792 v 46.6887 c 0,5.7283 3.9635,9.5289 10.1017,9.5289 h 36.455621 c 6.099919,0 10.063379,-3.8006 10.063379,-9.5289 z m -54.9369,0.5525 v -3.7054 h -12.7681 c -13.2941,0 -22.0797,-8.291 -22.0797,-20.2106 0,-11.831 8.7856,-20.1843 22.0797,-20.1843 h 12.7681 v -3.7054 h -12.6787 c -15.6454,0 -25.6899,10.0589 -25.6899,23.8897 0,13.8691 10.0445,23.916 25.6899,23.916 z"/>
    </g>
    <g id="Ultralight-M" transform="matrix(1 0 0 1 506.997 1126)">
     <path d="m 99.019195,-12.903505 v -47.2683 c 0,-5.3729 -3.98666,-9.1735 -9.611339,-9.1735 H 52.117605 c -5.6861,0 -9.6728,3.8006 -9.6728,9.1735 v 47.2683 c 0,5.311 3.9867,9.1116 9.6728,9.1116 h 37.290251 c 5.624679,0 9.611339,-3.8006 9.611339,-9.1116 z m -55.49329,0.0193 v -2.5347 h -11.6901 c -13.5723,0 -23.0187,-8.4069 -23.0187,-21.1495 0,-12.6192 9.4464,-21.0884 23.0187,-21.0884 h 11.6901 v -2.5347 h -11.8673 c -14.8572,0 -25.2494,9.4909 -25.2494,23.6231 0,14.1937 10.3922,23.6842 25.2494,23.6842 z"/>
    </g>
    <g id="Black-S" transform="matrix(1 0 0 1 2887.7 696)">
     <path d="m 86.71873,-16.21097 v -40.0391 c 0,-6.7382 -3.36914,-10.0585 -10.74219,-10.0585 H 45.06837 c -7.2754,0 -10.6446,3.3203 -10.6446,10.0585 v 40.0391 c 0,6.7383 3.3692,10.0586 10.6446,10.0586 h 30.90817 c 7.37305,0 10.74219,-3.3203 10.74219,-10.0586 z m -47.80276,1.5137 v -12.5489 h -12.6465 c -5.5175,0 -9.375,-3.6621 -9.375,-8.9843 0,-5.2735 3.8575,-9.0332 9.375,-9.0332 h 12.6465 v -12.5489 h -12.6465 c -12.6953,0 -21.582,8.9356 -21.582,21.5821 0,12.6465 8.8867,21.5332 21.582,21.5332 z"/>
    </g>
    <g id="Heavy-S" transform="matrix(1 0 0 1 2591.9 696)">
     <path d="m 85.03046,-16.85054 v -38.7599 c 0,-6.5423 -3.288472,-9.782 -10.43103,-9.782 H 44.91284 c -7.0564,0 -10.3449,3.2397 -10.3449,9.782 v 38.7599 c 0,6.5424 3.2885,9.782 10.3449,9.782 h 29.68659 c 7.142558,0 10.43103,-3.2396 10.43103,-9.782 z m -46.23542,1.6865 v -11.212 h -12.8885 c -6.451,0 -10.4929,-4.2383 -10.4929,-9.8487 0,-5.5846 4.0419,-9.909 10.4929,-9.909 h 12.8885 v -11.212 h -12.658 c -13.2254,0 -21.5936,9.143 -21.5936,21.121 0,11.9666 8.3682,21.0607 21.5936,21.0607 z"/>
    </g>
    <g id="Bold-S" transform="matrix(1 0 0 1 2296.22 696)">
     <path d="m 83.142105,-17.565995 v -37.3291 c 0,-6.3232 -3.198238,-9.4726 -10.083,-9.4726 h -28.32031 c -6.8115,0 -10.0098,3.1494 -10.0098,9.4726 v 37.3291 c 0,6.3233 3.1983,9.4727 10.0098,9.4727 h 28.32031 c 6.884762,0 10.083,-3.1494 10.083,-9.4727 z m -44.48241,1.8799 v -9.7168 h -13.1592 c -7.4951,0 -11.7432,-4.8828 -11.7432,-10.8154 0,-5.9326 4.2481,-10.8887 11.7432,-10.8887 h 13.1592 v -9.7168 h -12.6709 c -13.8184,0 -21.6065,9.375 -21.6065,20.6055 0,11.2061 7.7881,20.5322 21.6065,20.5322 z"/>
    </g>
    <g id="Semibold-S" transform="matrix(1 0 0 1 2000.21 696)">
     <path d="m 81.84015,-18.05915 v -36.3427 c 0,-6.1721 -3.136031,-9.2593 -9.84306,-9.2593 H 44.61875 c -6.6427,0 -9.7787,3.0872 -9.7787,9.2593 v 36.3427 c 0,6.1722 3.136,9.2594 9.7787,9.2594 h 27.37834 c 6.707029,0 9.84306,-3.0872 9.84306,-9.2594 z m -43.2738,2.0132 v -8.6859 h -13.3458 c -8.215,0 -12.6052,-5.3272 -12.6052,-11.482 0,-6.1725 4.3902,-11.564 12.6052,-11.564 h 13.3458 v -8.686 h -12.6798 c -14.2272,0 -21.6153,9.535 -21.6153,20.25 0,10.6818 7.3881,20.1679 21.6153,20.1679 z"/>
    </g>
    <g id="Medium-S" transform="matrix(1 0 0 1 1704.04 696)">
     <path d="m 80.85302,-18.43318 v -35.5947 c 0,-6.0576 -3.088868,-9.0976 -9.66113,-9.0976 H 44.52778 c -6.5146,0 -9.6035,3.04 -9.6035,9.0976 v 35.5947 c 0,6.0577 3.0889,9.0977 9.6035,9.0977 h 26.66411 c 6.572262,0 9.66113,-3.04 9.66113,-9.0977 z m -42.35744,2.1143 v -7.9043 h -13.4873 c -8.7607,0 -13.2588,-5.6641 -13.2588,-11.9873 0,-6.3545 4.4981,-12.0762 13.2588,-12.0762 h 13.4873 v -7.9043 h -12.6865 c -14.5371,0 -21.6221,9.6563 -21.6221,19.9805 0,10.2842 7.085,19.8916 21.6221,19.8916 z"/>
    </g>
    <g id="Regular-S" transform="matrix(1 0 0 1 1408.02 696)">
     <path d="m 79.565435,-18.920865 v -34.6192 c 0,-5.9082 -3.02734,-8.8867 -9.42383,-8.8867 h -25.73244 c -6.3476,0 -9.375,2.9785 -9.375,8.8867 v 34.6192 c 0,5.9082 3.0274,8.8867 9.375,8.8867 h 25.73244 c 6.39649,0 9.42383,-2.9785 9.42383,-8.8867 z m -41.16207,2.2461 v -6.8848 h -13.6719 c -9.4727,0 -14.1113,-6.1035 -14.1113,-12.6465 0,-6.5918 4.6386,-12.7441 14.1113,-12.7441 h 13.6719 v -6.8848 h -12.6954 c -14.9414,0 -21.6308,9.8145 -21.6308,19.6289 0,9.7657 6.6894,19.5313 21.6308,19.5313 z"/>
    </g>
    <g id="Light-S" transform="matrix(1 0 0 1 1111.47 696)">
     <path d="m 78.95237,-18.55003 v -35.376 c 0,-5.3784 -3.05762,-8.3569 -8.8335,-8.3569 H 43.29663 c -5.7573,0 -8.815,2.9785 -8.815,8.3569 v 35.376 c 0,5.3633 3.0577,8.3418 8.815,8.3418 h 26.82224 c 5.77588,0 8.8335,-2.9785 8.8335,-8.3418 z m -41.88864,1.5498 v -5.356 h -12.2642 c -9.8359,0 -15.3374,-6.2548 -15.3374,-13.8725 0,-7.6211 5.5015,-13.9248 15.3374,-13.9248 h 12.2642 v -5.356 h -11.6358 c -13.9121,0 -21.0556,9.0728 -21.0556,19.2808 0,10.1894 7.1435,19.2285 21.0556,19.2285 z"/>
    </g>
    <g id="Thin-S" transform="matrix(1 0 0 1 814.97 696)">
     <path d="m 78.141619,-18.059581 v -36.3769 c 0,-4.6778 -3.097658,-7.6563 -8.052748,-7.6563 h -28.26369 c -4.9765,0 -8.074199,2.9785 -8.074199,7.6563 v 36.3769 c 0,4.6426 3.097699,7.6211 8.074199,7.6211 h 28.26369 c 4.95509,0 8.052748,-2.9785 8.052748,-7.6211 z m -42.849638,0.6289 v -3.334 H 24.889682 c -10.3164,0 -16.9590005,-6.4551 -16.9590005,-15.4941 0,-8.9824 6.6426005,-15.4863 16.9590005,-15.4863 h 10.402299 v -3.334 h -10.2344 c -12.550799,0 -20.2948995,8.0918 -20.2948995,18.8203 0,10.75 7.7441005,18.8281 20.2948995,18.8281 z"/>
    </g>
    <g id="Ultralight-S" transform="matrix(1 0 0 1 518.367 696)">
     <path d="m 77.726334,-17.808366 v -36.8896 c 0,-4.3189 -3.118168,-7.2974 -7.652848,-7.2974 h -29.00192 c -4.5767,0 -7.6948,2.9785 -7.6948,7.2974 v 36.8896 c 0,4.2735 3.1181,7.252 7.6948,7.252 h 29.00192 c 4.53468,0 7.652848,-2.9785 7.652848,-7.252 z m -43.341768,0.1573 v -2.2984 h -9.4488 c -10.5625,0 -17.7895,-6.5576 -17.7895,-16.3247 0,-9.6796 7.227,-16.2861 17.7895,-16.2861 h 9.4488 v -2.2984 h -9.5166 c -11.8536,0 -19.9053,7.5894 -19.9053,18.5845 0,11.0371 8.0517,18.6231 19.9053,18.6231 z"/>
    </g>
  </g>
</svg>
