<?xml version="1.0" encoding="UTF-8"?>
<!--Generator: Apple Native CoreSVG 232.5-->
<!DOCTYPE svg
PUBLIC "-//W3C//DTD SVG 1.1//EN"
       "http://www.w3.org/Graphics/SVG/1.1/DTD/svg11.dtd">
<svg version="1.1" xmlns="http://www.w3.org/2000/svg" xmlns:xlink="http://www.w3.org/1999/xlink" width="3300" height="2200">
 <g id="Notes">
  <rect height="2200" id="artboard" style="fill:white;opacity:1" width="3300" x="0" y="0"/>
  <line style="fill:none;stroke:black;opacity:1;stroke-width:0.5;" x1="263" x2="3036" y1="292" y2="292"/>
  <text style="stroke:none;fill:black;font-family:sans-serif;font-size:13;font-weight:bold;" transform="matrix(1 0 0 1 263 322)">Weight/Scale Variations</text>
  <text style="stroke:none;fill:black;font-family:sans-serif;font-size:13;text-anchor:middle;" transform="matrix(1 0 0 1 559.711 322)">Ultralight</text>
  <text style="stroke:none;fill:black;font-family:sans-serif;font-size:13;text-anchor:middle;" transform="matrix(1 0 0 1 856.422 322)">Thin</text>
  <text style="stroke:none;fill:black;font-family:sans-serif;font-size:13;text-anchor:middle;" transform="matrix(1 0 0 1 1153.13 322)">Light</text>
  <text style="stroke:none;fill:black;font-family:sans-serif;font-size:13;text-anchor:middle;" transform="matrix(1 0 0 1 1449.84 322)">Regular</text>
  <text style="stroke:none;fill:black;font-family:sans-serif;font-size:13;text-anchor:middle;" transform="matrix(1 0 0 1 1746.56 322)">Medium</text>
  <text style="stroke:none;fill:black;font-family:sans-serif;font-size:13;text-anchor:middle;" transform="matrix(1 0 0 1 2043.27 322)">Semibold</text>
  <text style="stroke:none;fill:black;font-family:sans-serif;font-size:13;text-anchor:middle;" transform="matrix(1 0 0 1 2339.98 322)">Bold</text>
  <text style="stroke:none;fill:black;font-family:sans-serif;font-size:13;text-anchor:middle;" transform="matrix(1 0 0 1 2636.69 322)">Heavy</text>
  <text style="stroke:none;fill:black;font-family:sans-serif;font-size:13;text-anchor:middle;" transform="matrix(1 0 0 1 2933.4 322)">Black</text>
  <line style="fill:none;stroke:black;opacity:1;stroke-width:0.5;" x1="263" x2="3036" y1="1903" y2="1903"/>
  <g transform="matrix(0.2 0 0 0.2 263 1933)">
   <path d="m46.2402 4.15039c21.5332 0 39.4531-17.8711 39.4531-39.4043s-17.9688-39.4043-39.502-39.4043c-21.4844 0-39.3555 17.8711-39.3555 39.4043s17.9199 39.4043 39.4043 39.4043Zm0-7.42188c-17.7246 0-31.8848-14.209-31.8848-31.9824s14.1113-31.9824 31.8359-31.9824c17.7734 0 32.0312 14.209 32.0312 31.9824s-14.209 31.9824-31.9824 31.9824Zm-17.9688-31.9824c0 2.14844 1.51367 3.61328 3.75977 3.61328h10.498v10.5957c0 2.19727 1.46484 3.71094 3.61328 3.71094 2.24609 0 3.71094-1.51367 3.71094-3.71094v-10.5957h10.5957c2.19727 0 3.71094-1.46484 3.71094-3.61328 0-2.19727-1.51367-3.71094-3.71094-3.71094h-10.5957v-10.5469c0-2.24609-1.46484-3.75977-3.71094-3.75977-2.14844 0-3.61328 1.51367-3.61328 3.75977v10.5469h-10.498c-2.24609 0-3.75977 1.51367-3.75977 3.71094Z"/>
  </g>
  <g transform="matrix(0.2 0 0 0.2 281.506 1933)">
   <path d="m58.5449 14.5508c27.2461 0 49.8047-22.6074 49.8047-49.8047 0-27.2461-22.6074-49.8047-49.8535-49.8047-27.1973 0-49.7559 22.5586-49.7559 49.8047 0 27.1973 22.6074 49.8047 49.8047 49.8047Zm0-8.30078c-23.0469 0-41.4551-18.457-41.4551-41.5039s18.3594-41.5039 41.4062-41.5039 41.5527 18.457 41.5527 41.5039-18.457 41.5039-41.5039 41.5039Zm-22.6562-41.5039c0 2.39258 1.66016 4.00391 4.15039 4.00391h14.3555v14.4043c0 2.44141 1.66016 4.15039 4.05273 4.15039 2.44141 0 4.15039-1.66016 4.15039-4.15039v-14.4043h14.4043c2.44141 0 4.15039-1.61133 4.15039-4.00391 0-2.44141-1.70898-4.15039-4.15039-4.15039h-14.4043v-14.3555c0-2.49023-1.70898-4.19922-4.15039-4.19922-2.39258 0-4.05273 1.70898-4.05273 4.19922v14.3555h-14.3555c-2.49023 0-4.15039 1.70898-4.15039 4.15039Z"/>
  </g>
  <g transform="matrix(0.2 0 0 0.2 304.924 1933)">
   <path d="m74.8535 28.3203c34.8145 0 63.623-28.8086 63.623-63.5742 0-34.8145-28.8574-63.623-63.6719-63.623-34.7656 0-63.5254 28.8086-63.5254 63.623 0 34.7656 28.8086 63.5742 63.5742 63.5742Zm0-9.08203c-30.1758 0-54.4434-24.3164-54.4434-54.4922 0-30.2246 24.2188-54.4922 54.3945-54.4922 30.2246 0 54.541 24.2676 54.541 54.4922 0 30.1758-24.2676 54.4922-54.4922 54.4922Zm-28.8574-54.4922c0 2.58789 1.85547 4.39453 4.58984 4.39453h19.7266v19.7754c0 2.68555 1.85547 4.58984 4.44336 4.58984 2.68555 0 4.54102-1.85547 4.54102-4.58984v-19.7754h19.7754c2.68555 0 4.58984-1.80664 4.58984-4.39453 0-2.73438-1.85547-4.58984-4.58984-4.58984h-19.7754v-19.7266c0-2.73438-1.85547-4.63867-4.54102-4.63867-2.58789 0-4.44336 1.9043-4.44336 4.63867v19.7266h-19.7266c-2.73438 0-4.58984 1.85547-4.58984 4.58984Z"/>
  </g>
  <text style="stroke:none;fill:black;font-family:sans-serif;font-size:13;font-weight:bold;" transform="matrix(1 0 0 1 263 1953)">Design Variations</text>
  <text style="stroke:none;fill:black;font-family:sans-serif;font-size:13;" transform="matrix(1 0 0 1 263 1971)">Symbols are supported in up to nine weights and three scales.</text>
  <text style="stroke:none;fill:black;font-family:sans-serif;font-size:13;" transform="matrix(1 0 0 1 263 1989)">For optimal layout with text and other symbols, vertically align</text>
  <text style="stroke:none;fill:black;font-family:sans-serif;font-size:13;" transform="matrix(1 0 0 1 263 2007)">symbols with the adjacent text.</text>
  <line style="fill:none;stroke:#00AEEF;stroke-width:0.5;opacity:1.0;" x1="776" x2="776" y1="1919" y2="1933"/>
  <g transform="matrix(0.2 0 0 0.2 776 1933)">
   <path d="m16.5527 0.78125c2.58789 0 3.85742-0.976562 4.78516-3.71094l6.29883-17.2363h28.8086l6.29883 17.2363c0.927734 2.73438 2.19727 3.71094 4.73633 3.71094 2.58789 0 4.24805-1.5625 4.24805-4.00391 0-0.830078-0.146484-1.61133-0.537109-2.63672l-22.9004-60.9863c-1.12305-2.97852-3.125-4.49219-6.25-4.49219-3.02734 0-5.07812 1.46484-6.15234 4.44336l-22.9004 61.084c-0.390625 1.02539-0.537109 1.80664-0.537109 2.63672 0 2.44141 1.5625 3.95508 4.10156 3.95508Zm13.4766-28.3691 11.8652-32.8613h0.244141l11.8652 32.8613Z"/>
  </g>
  <line style="fill:none;stroke:#00AEEF;stroke-width:0.5;opacity:1.0;" x1="792.836" x2="792.836" y1="1919" y2="1933"/>
  <text style="stroke:none;fill:black;font-family:sans-serif;font-size:13;font-weight:bold;" transform="matrix(1 0 0 1 776 1953)">Margins</text>
  <text style="stroke:none;fill:black;font-family:sans-serif;font-size:13;" transform="matrix(1 0 0 1 776 1971)">Leading and trailing margins on the left and right side of each symbol</text>
  <text style="stroke:none;fill:black;font-family:sans-serif;font-size:13;" transform="matrix(1 0 0 1 776 1989)">can be adjusted by modifying the x-location of the margin guidelines.</text>
  <text style="stroke:none;fill:black;font-family:sans-serif;font-size:13;" transform="matrix(1 0 0 1 776 2007)">Modifications are automatically applied proportionally to all</text>
  <text style="stroke:none;fill:black;font-family:sans-serif;font-size:13;" transform="matrix(1 0 0 1 776 2025)">scales and weights.</text>
  <g transform="matrix(0.2 0 0 0.2 1289 1933)">
   <path d="m14.209 9.32617 8.49609 8.54492c4.29688 4.3457 9.22852 4.05273 13.8672-1.07422l53.4668-58.9355-4.83398-4.88281-53.0762 58.3984c-1.75781 2.00195-3.41797 2.49023-5.76172 0.146484l-5.85938-5.81055c-2.34375-2.29492-1.80664-4.00391 0.195312-5.81055l57.373-54.0039-4.88281-4.83398-57.959 54.4434c-4.93164 4.58984-5.32227 9.47266-1.02539 13.8184Zm32.0801-90.9668c-2.09961 2.05078-2.24609 4.93164-1.07422 6.88477 1.17188 1.80664 3.4668 2.97852 6.68945 2.14844 7.32422-1.70898 14.9414-2.00195 22.0703 2.68555l-2.92969 7.27539c-1.70898 4.15039-0.830078 7.08008 1.85547 9.81445l11.4746 11.5723c2.44141 2.44141 4.49219 2.53906 7.32422 2.05078l5.32227-0.976562 3.32031 3.36914-0.195312 2.7832c-0.195312 2.49023 0.439453 4.39453 2.88086 6.78711l3.80859 3.71094c2.39258 2.39258 5.46875 2.53906 7.8125 0.195312l14.5508-14.5996c2.34375-2.34375 2.24609-5.32227-0.146484-7.71484l-3.85742-3.80859c-2.39258-2.39258-4.24805-3.17383-6.64062-2.97852l-2.88086 0.244141-3.22266-3.17383 1.2207-5.61523c0.634766-2.83203-0.146484-5.0293-3.07617-7.95898l-10.9863-10.9375c-16.6992-16.6016-38.8672-16.2109-53.3203-1.75781Zm7.4707 1.85547c12.1582-8.88672 28.6133-7.37305 39.7461 3.75977l12.1582 12.0605c1.17188 1.17188 1.36719 2.09961 1.02539 3.80859l-1.61133 7.42188 7.51953 7.42188 4.93164-0.292969c1.26953-0.0488281 1.66016 0.0488281 2.63672 1.02539l2.88086 2.88086-12.207 12.207-2.88086-2.88086c-0.976562-0.976562-1.12305-1.36719-1.07422-2.68555l0.341797-4.88281-7.4707-7.42188-7.61719 1.26953c-1.61133 0.341797-2.34375 0.195312-3.56445-0.976562l-10.0098-10.0098c-1.26953-1.17188-1.41602-2.00195-0.634766-3.85742l4.39453-10.4492c-7.8125-7.27539-17.9688-10.4004-28.125-7.42188-0.78125 0.195312-1.07422-0.439453-0.439453-0.976562Z"/>
  </g>
  <text style="stroke:none;fill:black;font-family:sans-serif;font-size:13;font-weight:bold;" transform="matrix(1 0 0 1 1289 1953)">Exporting</text>
  <text style="stroke:none;fill:black;font-family:sans-serif;font-size:13;" transform="matrix(1 0 0 1 1289 1971)">Symbols should be outlined when exporting to ensure the</text>
  <text style="stroke:none;fill:black;font-family:sans-serif;font-size:13;" transform="matrix(1 0 0 1 1289 1989)">design is preserved when submitting to Xcode.</text>
  <text id="template-version" style="stroke:none;fill:black;font-family:sans-serif;font-size:13;text-anchor:end;" transform="matrix(1 0 0 1 3036 1933)">Template v.2.0</text>
  <text style="stroke:none;fill:black;font-family:sans-serif;font-size:13;text-anchor:end;" transform="matrix(1 0 0 1 3036 1951)">Requires Xcode 12 or greater</text>
  <text id="descriptive-name" style="stroke:none;fill:black;font-family:sans-serif;font-size:13;text-anchor:end;" transform="matrix(1 0 0 1 3036 1969)">Generated from lock.fill</text>
  <text style="stroke:none;fill:black;font-family:sans-serif;font-size:13;text-anchor:end;" transform="matrix(1 0 0 1 3036 1987)">Typeset at 100.0 points</text>
  <text style="stroke:none;fill:black;font-family:sans-serif;font-size:13;" transform="matrix(1 0 0 1 263 726)">Small</text>
  <text style="stroke:none;fill:black;font-family:sans-serif;font-size:13;" transform="matrix(1 0 0 1 263 1156)">Medium</text>
  <text style="stroke:none;fill:black;font-family:sans-serif;font-size:13;" transform="matrix(1 0 0 1 263 1586)">Large</text>
 </g>
 <g id="Guides">
  <g id="H-reference" style="fill:#27AAE1;stroke:none;" transform="matrix(1 0 0 1 339 696)">
   <path d="M0.993654 0L3.63775 0L29.3281-67.1323L30.0303-67.1323L30.0303-70.459L28.1226-70.459ZM11.6885-24.4799L46.9815-24.4799L46.2315-26.7285L12.4385-26.7285ZM55.1196 0L57.7637 0L30.6382-70.459L29.4326-70.459L29.4326-67.1323Z"/>
  </g>
  <line id="Baseline-S" style="fill:none;stroke:#27AAE1;opacity:1;stroke-width:0.5;" x1="263" x2="3036" y1="696" y2="696"/>
  <line id="Capline-S" style="fill:none;stroke:#27AAE1;opacity:1;stroke-width:0.5;" x1="263" x2="3036" y1="625.541" y2="625.541"/>
  <g id="H-reference" style="fill:#27AAE1;stroke:none;" transform="matrix(1 0 0 1 339 1126)">
   <path d="M0.993654 0L3.63775 0L29.3281-67.1323L30.0303-67.1323L30.0303-70.459L28.1226-70.459ZM11.6885-24.4799L46.9815-24.4799L46.2315-26.7285L12.4385-26.7285ZM55.1196 0L57.7637 0L30.6382-70.459L29.4326-70.459L29.4326-67.1323Z"/>
  </g>
  <line id="Baseline-M" style="fill:none;stroke:#27AAE1;opacity:1;stroke-width:0.5;" x1="263" x2="3036" y1="1126" y2="1126"/>
  <line id="Capline-M" style="fill:none;stroke:#27AAE1;opacity:1;stroke-width:0.5;" x1="263" x2="3036" y1="1055.54" y2="1055.54"/>
  <g id="H-reference" style="fill:#27AAE1;stroke:none;" transform="matrix(1 0 0 1 339 1556)">
   <path d="M0.993654 0L3.63775 0L29.3281-67.1323L30.0303-67.1323L30.0303-70.459L28.1226-70.459ZM11.6885-24.4799L46.9815-24.4799L46.2315-26.7285L12.4385-26.7285ZM55.1196 0L57.7637 0L30.6382-70.459L29.4326-70.459L29.4326-67.1323Z"/>
  </g>
  <line id="Baseline-L" style="fill:none;stroke:#27AAE1;opacity:1;stroke-width:0.5;" x1="263" x2="3036" y1="1556" y2="1556"/>
  <line id="Capline-L" style="fill:none;stroke:#27AAE1;opacity:1;stroke-width:0.5;" x1="263" x2="3036" y1="1485.54" y2="1485.54"/>
  <line id="left-margin" style="fill:none;stroke:#00AEEF;stroke-width:0.5;opacity:1.0;" x1="1396.59" x2="1396.59" y1="1030.79" y2="1150.12"/>
  <line id="right-margin" style="fill:none;stroke:#00AEEF;stroke-width:0.5;opacity:1.0;" x1="1503.1" x2="1503.1" y1="1030.79" y2="1150.12"/>
 </g>
 <g id="Symbols">
  <g id="Black-L" transform="matrix(1 0 0 1 2859.89 1556)">
   <path d="M41.7295 29.1627L105.29 29.1627C115.972 29.1627 121.286 23.7654 121.286 12.1113L121.286-36.5472C121.286-48.0649 115.972-53.4622 105.29-53.4622L41.7295-53.4622C31.0488-53.4622 25.7344-48.0649 25.7344-36.5472L25.7344 12.1113C25.7344 23.7654 31.0488 29.1627 41.7295 29.1627ZM38.9613-46.6321L56.9548-46.6321L56.9548-67.8118C56.9548-78.7111 64.099-85.4847 73.5-85.4847C82.8611-85.4847 90.144-78.7111 90.144-67.8118L90.144-46.6321L108.138-46.6321L108.138-67.3991C108.138-89.2395 93.0831-102.921 73.5-102.921C53.9365-102.921 38.9613-89.2395 38.9613-67.3991Z"/>
  </g>
  <g id="Heavy-L" transform="matrix(1 0 0 1 2564.32 1556)">
   <path d="M41.2397 28.1022L103.491 28.1022C113.784 28.1022 119.002 22.7926 119.002 11.5953L119.002-35.9202C119.002-47.0037 113.784-52.3133 103.491-52.3133L41.2397-52.3133C30.9523-52.3133 25.7344-47.0037 25.7344-35.9202L25.7344 11.5953C25.7344 22.7926 30.9523 28.1022 41.2397 28.1022ZM38.4679-46.0299L54.4164-46.0299L54.4164-67.0884C54.4164-79.2101 62.2939-86.456 72.3531-86.456C82.3867-86.456 90.3892-79.2101 90.3892-67.0884L90.3892-46.0299L106.338-46.0299L106.338-66.5015C106.338-88.6757 91.2516-101.87 72.3531-101.87C53.4793-101.87 38.4679-88.6757 38.4679-66.5015Z"/>
  </g>
  <g id="Bold-L" transform="matrix(1 0 0 1 2268.92 1556)">
   <path d="M40.5954 26.833L101.516 26.833C111.28 26.833 116.39 21.6161 116.39 11.0394L116.39-35.39C116.39-45.8835 111.28-51.1004 101.516-51.1004L40.5954-51.1004C30.8444-51.1004 25.7344-45.8835 25.7344-35.39L25.7344 11.0394C25.7344 21.6161 30.8444 26.833 40.5954 26.833ZM37.9427-45.5677L51.3333-45.5677L51.3333-66.2416C51.3333-79.7951 60.0579-87.7219 71.0434-87.7219C82.0113-87.7219 90.8455-79.7951 90.8455-66.2416L90.8455-45.5677L104.236-45.5677L104.236-65.5216C104.236-87.8871 89.2456-100.616 71.0434-100.616C52.866-100.616 37.9427-87.8871 37.9427-65.5216Z"/>
  </g>
  <g id="Semibold-L" transform="matrix(1 0 0 1 1973.1 1556)">
   <path d="M40.1512 25.958L100.155 25.958C109.554 25.958 114.59 20.805 114.59 10.6562L114.59-35.0245C114.59-45.1112 109.554-50.2642 100.155-50.2642L40.1512-50.2642C30.77-50.2642 25.7344-45.1112 25.7344-35.0245L25.7344 10.6562C25.7344 20.805 30.77 25.958 40.1512 25.958ZM37.5807-45.2491L49.2077-45.2491L49.2077-65.6579C49.2077-80.1984 58.5164-88.5946 70.1405-88.5946C81.7524-88.5946 91.1601-80.1984 91.1601-65.6579L91.1601-45.2491L102.787-45.2491L102.787-64.846C102.787-87.3434 87.8627-99.7512 70.1405-99.7512C52.4432-99.7512 37.5807-87.3434 37.5807-64.846Z"/>
  </g>
  <g id="Medium-L" transform="matrix(1 0 0 1 1677.08 1556)">
   <path d="M39.8144 25.2945L99.1223 25.2945C108.246 25.2945 113.225 20.19 113.225 10.3657L113.225-34.7474C113.225-44.5256 108.246-49.6302 99.1223-49.6302L39.8144-49.6302C30.7136-49.6302 25.7344-44.5256 25.7344-34.7474L25.7344 10.3657C25.7344 20.19 30.7136 25.2945 39.8144 25.2945ZM37.3061-45.0075L47.5961-45.0075L47.5961-65.2152C47.5961-80.5042 57.3476-89.2563 69.4559-89.2563C81.5562-89.2563 91.3986-80.5042 91.3986-65.2152L91.3986-45.0075L101.689-45.0075L101.689-64.3337C101.689-86.9311 86.8141-99.0957 69.4559-99.0957C52.1226-99.0957 37.3061-86.9311 37.3061-64.3337Z"/>
  </g>
  <g id="Regular-L" transform="matrix(1 0 0 1 1381.26 1556)">
   <path d="M39.3752 24.4291L97.7757 24.4291C106.539 24.4291 111.444 19.3878 111.444 9.98671L111.444-34.3859C111.444-43.7619 106.539-48.8032 97.7757-48.8032L39.3752-48.8032C30.64-48.8032 25.7344-43.7619 25.7344-34.3859L25.7344 9.98671C25.7344 19.3878 30.64 24.4291 39.3752 24.4291ZM36.9481-44.6924L45.4939-44.6924L45.4939-64.6379C45.4939-80.9031 55.823-90.1194 68.5629-90.1194C81.3002-90.1194 91.7097-80.9031 91.7097-64.6379L91.7097-44.6924L100.256-44.6924L100.256-63.6656C100.256-86.3934 85.4464-98.2407 68.5629-98.2407C51.7045-98.2407 36.9481-86.3934 36.9481-63.6656Z"/>
  </g>
  <g id="Light-L" transform="matrix(1 0 0 1 1084.74 1556)">
   <path d="M38.6881 23.8375L98.0429 23.8375C106.138 23.8375 111.043 18.758 111.043 10.1394L111.043-35.6073C111.043-44.239 106.138-49.3185 98.0429-49.3185L38.6881-49.3185C30.64-49.3185 25.7344-44.239 25.7344-35.6073L25.7344 10.1394C25.7344 18.758 30.64 23.8375 38.6881 23.8375ZM37.1389-46.2001L43.7572-46.2001L43.7572-64.3707C43.7572-81.094 54.2771-91.3981 68.372-91.3981C82.4072-91.3981 93.0075-81.094 93.0075-64.3707L93.0075-46.2001L99.6258-46.2001L99.6258-63.8374C99.6258-85.2674 85.7517-97.6872 68.372-97.6872C50.9793-97.6872 37.1389-85.2674 37.1389-63.8374Z"/>
  </g>
  <g id="Thin-L" transform="matrix(1 0 0 1 788.298 1556)">
   <path d="M37.7794 23.055L98.3963 23.055C105.608 23.055 110.513 17.925 110.513 10.3413L110.513-37.2228C110.513-44.87 105.608-50 98.3963-50L37.7794-50C30.64-50 25.7344-44.87 25.7344-37.2228L25.7344 10.3413C25.7344 17.925 30.64 23.055 37.7794 23.055ZM37.3913-48.1942L41.4602-48.1942L41.4602-64.0173C41.4602-81.3464 52.2325-93.0893 68.1196-93.0893C83.8712-93.0893 94.7239-81.3464 94.7239-64.0173L94.7239-48.1942L98.7928-48.1942L98.7928-64.0645C98.7928-83.7781 86.1556-96.9552 68.1196-96.9552C50.0201-96.9552 37.3913-83.7781 37.3913-64.0645Z"/>
  </g>
  <g id="Ultralight-L" transform="matrix(1 0 0 1 491.723 1556)">
   <path d="M37.314 22.6542L98.5773 22.6542C105.336 22.6542 110.242 17.4984 110.242 10.4448L110.242-38.0502C110.242-45.1932 105.336-50.3491 98.5773-50.3491L37.314-50.3491C30.64-50.3491 25.7344-45.1932 25.7344-38.0502L25.7344 10.4448C25.7344 17.4984 30.64 22.6542 37.314 22.6542ZM37.5206-49.2156L40.2837-49.2156L40.2837-63.8363C40.2837-81.4757 51.1853-93.9556 67.9903-93.9556C84.6211-93.9556 95.6031-81.4757 95.6031-63.8363L95.6031-49.2156L98.3661-49.2156L98.3661-64.1809C98.3661-83.0153 86.3625-96.5802 67.9903-96.5802C49.5288-96.5802 37.5206-83.0153 37.5206-64.1809Z"/>
  </g>
  <g id="Black-M" transform="matrix(1 0 0 1 2875.49 1126)">
   <path d="M32.6575 15.489L83.155 15.489C91.6744 15.489 95.8747 11.227 95.8747 1.91157L95.8747-36.9548C95.8747-46.1503 91.6744-50.4123 83.155-50.4123L32.6575-50.4123C24.1378-50.4123 19.9375-46.1503 19.9375-36.9548L19.9375 1.91157C19.9375 11.227 24.1378 15.489 32.6575 15.489ZM30.6349-44.7854L46.0716-44.7854L46.0716-61.058C46.0716-68.5135 51.002-73.5027 57.9034-73.5027C64.7536-73.5027 69.8035-68.5135 69.8035-61.058L69.8035-44.7854L85.2402-44.7854L85.2402-60.9473C85.2402-77.4053 73.7308-88.5019 57.9034-88.5019C42.0817-88.5019 30.6349-77.4053 30.6349-60.9473Z"/>
  </g>
  <g id="Heavy-M" transform="matrix(1 0 0 1 2579.88 1126)">
   <path d="M32.242 14.5069L81.3717 14.5069C89.5726 14.5069 93.6785 10.3342 93.6785 1.39304L93.6785-36.2291C93.6785-45.0689 89.5726-49.2417 81.3717-49.2417L32.242-49.2417C24.0434-49.2417 19.9375-45.0689 19.9375-36.2291L19.9375 1.39304C19.9375 10.3342 24.0434 14.5069 32.242 14.5069ZM30.1349-44.0576L43.7503-44.0576L43.7503-60.3754C43.7503-68.9837 49.3801-74.3343 56.7998-74.3343C64.1878-74.3343 69.9234-68.9837 69.9234-60.3754L69.9234-44.0576L83.5389-44.0576L83.5389-60.054C83.5389-76.958 71.9122-87.525 56.7998-87.525C41.7015-87.525 30.1349-76.958 30.1349-60.054Z"/>
  </g>
  <g id="Bold-M" transform="matrix(1 0 0 1 2284.4 1126)">
   <path d="M31.7773 13.4084L79.3769 13.4084C87.2214 13.4084 91.2218 9.33536 91.2218 0.812979L91.2218-35.4173C91.2218-43.8591 87.2214-47.9321 79.3769-47.9321L31.7773-47.9321C23.9379-47.9321 19.9375-43.8591 19.9375-35.4173L19.9375 0.812979C19.9375 9.33536 23.9379 13.4084 31.7773 13.4084ZM29.5757-43.2435L41.1537-43.2435L41.1537-59.6118C41.1537-69.5097 47.5657-75.2646 55.5653-75.2646C63.5548-75.2646 70.0576-69.5097 70.0576-59.6118L70.0576-43.2435L81.6357-43.2435L81.6357-59.0548C81.6357-76.4577 69.8778-86.4321 55.5653-86.4321C41.2763-86.4321 29.5757-76.4577 29.5757-59.0548Z"/>
  </g>
  <g id="Semibold-M" transform="matrix(1 0 0 1 1988.53 1126)">
   <path d="M31.4569 12.651L78.0016 12.651C85.6004 12.651 89.5281 8.6468 89.5281 0.413092L89.5281-34.8577C89.5281-43.0252 85.6004-47.0294 78.0016-47.0294L31.4569-47.0294C23.8652-47.0294 19.9375-43.0252 19.9375-34.8577L19.9375 0.413092C19.9375 8.6468 23.8652 12.651 31.4569 12.651ZM29.1901-42.6822L39.3636-42.6822L39.3636-59.0854C39.3636-69.8724 46.3149-75.9058 54.7143-75.9058C63.1184-75.9058 70.1502-69.8724 70.1502-59.0854L70.1502-42.6822L80.3236-42.6822L80.3236-58.3659C80.3236-76.1127 68.4754-85.6787 54.7143-85.6787C40.9831-85.6787 29.1901-76.1127 29.1901-58.3659Z"/>
  </g>
  <g id="Medium-M" transform="matrix(1 0 0 1 1692.46 1126)">
   <path d="M31.214 12.0767L76.9588 12.0767C84.3714 12.0767 88.2439 8.12471 88.2439 0.109881L88.2439-34.4334C88.2439-42.3928 84.3714-46.3448 76.9588-46.3448L31.214-46.3448C23.81-46.3448 19.9375-42.3928 19.9375-34.4334L19.9375 0.109881C19.9375 8.12471 23.81 12.0767 31.214 12.0767ZM28.8978-42.2567L38.0062-42.2567L38.0062-58.6863C38.0062-70.1473 45.3664-76.3921 54.069-76.3921C62.7875-76.3921 70.2203-70.1473 70.2203-58.6863L70.2203-42.2567L79.3287-42.2567L79.3287-57.8436C79.3287-75.8512 67.4119-85.1074 54.069-85.1074C40.7609-85.1074 28.8978-75.8512 28.8978-57.8436Z"/>
  </g>
  <g id="Regular-M" transform="matrix(1 0 0 1 1396.59 1126)">
   <path d="M30.8971 11.3277L75.5987 11.3277C82.7683 11.3277 86.5689 7.44371 86.5689-0.285611L86.5689-33.8799C86.5689-41.568 82.7683-45.452 75.5987-45.452L30.8971-45.452C23.7381-45.452 19.9375-41.568 19.9375-33.8799L19.9375-0.285611C19.9375 7.44371 23.7381 11.3277 30.8971 11.3277ZM28.5164-41.7016L36.2358-41.7016L36.2358-58.1657C36.2358-70.506 44.1294-77.0264 53.2273-77.0264C62.3559-77.0264 70.3118-70.506 70.3118-58.1657L70.3118-41.7016L78.0311-41.7016L78.0311-57.1622C78.0311-75.51 66.0249-84.3623 53.2273-84.3623C40.4709-84.3623 28.5164-75.51 28.5164-57.1622Z"/>
  </g>
  <g id="Light-M" transform="matrix(1 0 0 1 1100.06 1126)">
   <path d="M30.2811 10.7973L75.8382 10.7973C82.4089 10.7973 86.2095 6.87905 86.2095-0.148724L86.2095-34.975C86.2095-41.9957 82.4089-45.914 75.8382-45.914L30.2811-45.914C23.7381-45.914 19.9375-41.9957 19.9375-34.975L19.9375-0.148724C19.9375 6.87905 23.7381 10.7973 30.2811 10.7973ZM28.6876-43.0534L34.6787-43.0534L34.6787-57.9261C34.6787-70.6771 42.7434-78.1728 53.0562-78.1728C63.3483-78.1728 71.4754-70.6771 71.4754-57.9261L71.4754-43.0534L77.4665-43.0534L77.4665-57.3162C77.4665-74.5005 66.2986-83.8661 53.0562-83.8661C39.8207-83.8661 28.6876-74.5005 28.6876-57.3162Z"/>
  </g>
  <g id="Thin-M" transform="matrix(1 0 0 1 803.586 1126)">
   <path d="M29.4664 10.0957L76.1551 10.0957C81.9337 10.0957 85.7343 6.13224 85.7343 0.032321L85.7343-36.4233C85.7343-42.5615 81.9337-46.525 76.1551-46.525L29.4664-46.525C23.7381-46.525 19.9375-42.5615 19.9375-36.4233L19.9375 0.032321C19.9375 6.13224 23.7381 10.0957 29.4664 10.0957ZM28.9139-44.8412L32.6193-44.8412L32.6193-57.6093C32.6193-70.9034 40.9103-79.689 52.8299-79.689C64.6609-79.689 73.0142-70.9034 73.0142-57.6093L73.0142-44.8412L76.7196-44.8412L76.7196-57.5199C76.7196-73.1653 66.6607-83.2098 52.8299-83.2098C38.9608-83.2098 28.9139-73.1653 28.9139-57.5199Z"/>
  </g>
  <g id="Ultralight-M" transform="matrix(1 0 0 1 506.997 1126)">
   <path d="M29.0491 9.73639L76.3174 9.73639C81.6903 9.73639 85.4909 5.74973 85.4909 0.125051L85.4909-37.1652C85.4909-42.8513 81.6903-46.838 76.3174-46.838L29.0491-46.838C23.7381-46.838 19.9375-42.8513 19.9375-37.1652L19.9375 0.125051C19.9375 5.74973 23.7381 9.73639 29.0491 9.73639ZM29.0298-45.7569L31.5645-45.7569L31.5645-57.447C31.5645-71.0193 39.9714-80.4657 52.714-80.4657C65.3332-80.4657 73.8024-71.0193 73.8024-57.447L73.8024-45.7569L76.3371-45.7569L76.3371-57.6242C76.3371-72.4814 66.8462-82.8736 52.714-82.8736C38.5203-82.8736 29.0298-72.4814 29.0298-57.6242Z"/>
  </g>
  <g id="Black-S" transform="matrix(1 0 0 1 2887.7 696)">
   <path d="M25.6836 4.78516L65.7227 4.78516C72.4609 4.78516 75.7812 1.41602 75.7812-5.95703L75.7812-36.8652C75.7812-44.1406 72.4609-47.5098 65.7227-47.5098L25.6836-47.5098C18.9453-47.5098 15.625-44.1406 15.625-36.8652L15.625-5.95703C15.625 1.41602 18.9453 4.78516 25.6836 4.78516ZM24.1699-43.0176L36.7188-43.0176L36.7188-55.6641C36.7188-61.1816 40.3809-65.0391 45.7031-65.0391C50.9766-65.0391 54.7363-61.1816 54.7363-55.6641L54.7363-43.0176L67.2852-43.0176L67.2852-55.6641C67.2852-68.3594 58.3496-77.2461 45.7031-77.2461C33.0566-77.2461 24.1699-68.3594 24.1699-55.6641Z"/>
  </g>
  <g id="Heavy-S" transform="matrix(1 0 0 1 2591.9 696)">
   <path d="M25.407 4.01302L64.1669 4.01302C70.7092 4.01302 73.9489 0.724548 73.9489-6.41801L73.9489-36.1046C73.9489-43.161 70.7092-46.4495 64.1669-46.4495L25.407-46.4495C18.8646-46.4495 15.625-43.161 15.625-36.1046L15.625-6.41801C15.625 0.724548 18.8646 4.01302 25.407 4.01302ZM23.7205-42.2224L34.9325-42.2224L34.9325-55.1109C34.9325-61.5619 39.1708-65.6038 44.7812-65.6038C50.3658-65.6038 54.6902-61.5619 54.6902-55.1109L54.6902-42.2224L65.9022-42.2224L65.9022-54.8804C65.9022-68.1058 56.7592-76.474 44.7812-76.474C32.8146-76.474 23.7205-68.1058 23.7205-54.8804Z"/>
  </g>
  <g id="Bold-S" transform="matrix(1 0 0 1 2296.22 696)">
   <path d="M25.0977 3.14941L62.4268 3.14941C68.75 3.14941 71.8994-0.0488281 71.8994-6.93359L71.8994-35.2539C71.8994-42.0654 68.75-45.2637 62.4268-45.2637L25.0977-45.2637C18.7744-45.2637 15.625-42.0654 15.625-35.2539L15.625-6.93359C15.625-0.0488281 18.7744 3.14941 25.0977 3.14941ZM23.2178-41.333L32.9346-41.333L32.9346-54.4922C32.9346-61.9873 37.8174-66.2354 43.75-66.2354C49.6826-66.2354 54.6387-61.9873 54.6387-54.4922L54.6387-41.333L64.3555-41.333L64.3555-54.0039C64.3555-67.8223 54.9805-75.6104 43.75-75.6104C32.5439-75.6104 23.2178-67.8223 23.2178-54.0039Z"/>
  </g>
  <g id="Semibold-S" transform="matrix(1 0 0 1 2000.21 696)">
   <path d="M24.8844 2.554L61.2271 2.554C67.3992 2.554 70.4864-0.582031 70.4864-7.28906L70.4864-34.6674C70.4864-41.3101 67.3992-44.4461 61.2271-44.4461L24.8844-44.4461C18.7122-44.4461 15.625-41.3101 15.625-34.6674L15.625-7.28906C15.625-0.582031 18.7122 2.554 24.8844 2.554ZM22.8712-40.7198L31.5571-40.7198L31.5571-54.0656C31.5571-62.2806 36.8843-66.6708 43.0391-66.6708C49.2116-66.6708 54.6031-62.2806 54.6031-54.0656L54.6031-40.7198L63.2891-40.7198L63.2891-53.3996C63.2891-67.6268 53.7541-75.0149 43.0391-75.0149C32.3573-75.0149 22.8712-67.6268 22.8712-53.3996Z"/>
  </g>
  <g id="Medium-S" transform="matrix(1 0 0 1 1704.04 696)">
   <path d="M24.7227 2.10254L60.3174 2.10254C66.375 2.10254 69.415-0.986328 69.415-7.55859L69.415-34.2227C69.415-40.7373 66.375-43.8262 60.3174-43.8262L24.7227-43.8262C18.665-43.8262 15.625-40.7373 15.625-34.2227L15.625-7.55859C15.625-0.986328 18.665 2.10254 24.7227 2.10254ZM22.6084-40.2549L30.5127-40.2549L30.5127-53.7422C30.5127-62.5029 36.1768-67.001 42.5-67.001C48.8545-67.001 54.5762-62.5029 54.5762-53.7422L54.5762-40.2549L62.4805-40.2549L62.4805-52.9414C62.4805-67.4785 52.8242-74.5635 42.5-74.5635C32.2158-74.5635 22.6084-67.4785 22.6084-52.9414Z"/>
  </g>
  <g id="Regular-S" transform="matrix(1 0 0 1 1408.02 696)">
   <path d="M24.5117 1.51367L59.1309 1.51367C65.0391 1.51367 68.0176-1.51367 68.0176-7.91016L68.0176-33.6426C68.0176-39.9902 65.0391-43.0176 59.1309-43.0176L24.5117-43.0176C18.6035-43.0176 15.625-39.9902 15.625-33.6426L15.625-7.91016C15.625-1.51367 18.6035 1.51367 24.5117 1.51367ZM22.2656-39.6484L29.1504-39.6484L29.1504-53.3203C29.1504-62.793 35.2539-67.4316 41.7969-67.4316C48.3887-67.4316 54.541-62.793 54.541-53.3203L54.541-39.6484L61.4258-39.6484L61.4258-52.3438C61.4258-67.2852 51.6113-73.9746 41.7969-73.9746C32.0312-73.9746 22.2656-67.2852 22.2656-52.3438Z"/>
  </g>
  <g id="Light-S" transform="matrix(1 0 0 1 1111.47 696)">
   <path d="M23.9668 1.04444L59.3428 1.04444C64.7212 1.04444 67.6997-2.01318 67.6997-7.78906L67.6997-34.6113C67.6997-40.3686 64.7212-43.4263 59.3428-43.4263L23.9668-43.4263C18.6035-43.4263 15.625-40.3686 15.625-34.6113L15.625-7.78906C15.625-2.01318 18.6035 1.04444 23.9668 1.04444ZM22.417-40.8442L27.773-40.8442L27.773-53.1084C27.773-62.9443 34.0278-68.4458 41.6455-68.4458C49.2666-68.4458 55.5703-62.9443 55.5703-53.1084L55.5703-40.8442L60.9263-40.8442L60.9263-52.48C60.9263-66.3921 51.8535-73.5356 41.6455-73.5356C31.4561-73.5356 22.417-66.3921 22.417-52.48Z"/>
  </g>
  <g id="Thin-S" transform="matrix(1 0 0 1 814.97 696)">
   <path d="M23.2461 0.423837L59.623 0.423837C64.3008 0.423837 67.2793-2.67382 67.2793-7.62891L67.2793-35.8926C67.2793-40.8691 64.3008-43.9668 59.623-43.9668L23.2461-43.9668C18.6035-43.9668 15.625-40.8691 15.625-35.8926L15.625-7.62891C15.625-2.67382 18.6035 0.423837 23.2461 0.423837ZM22.6172-42.4258L25.9512-42.4258L25.9512-52.8281C25.9512-63.1445 32.4063-69.7871 41.4453-69.7871C50.4277-69.7871 56.9316-63.1445 56.9316-52.8281L56.9316-42.4258L60.2656-42.4258L60.2656-52.6602C60.2656-65.211 52.1738-72.9551 41.4453-72.9551C30.6953-72.9551 22.6172-65.211 22.6172-52.6602Z"/>
  </g>
  <g id="Ultralight-S" transform="matrix(1 0 0 1 518.367 696)">
   <path d="M22.877 0.105968L59.7666 0.105968C64.0855 0.105968 67.064-3.0122 67.064-7.54688L67.064-36.5488C67.064-41.1255 64.0855-44.2436 59.7666-44.2436L22.877-44.2436C18.6035-44.2436 15.625-41.1255 15.625-36.5488L15.625-7.54688C15.625-3.0122 18.6035 0.105968 22.877 0.105968ZM22.7197-43.2358L25.0181-43.2358L25.0181-52.6846C25.0181-63.2471 31.5757-70.4741 41.3428-70.4741C51.0224-70.4741 57.6289-63.2471 57.6289-52.6846L57.6289-43.2358L59.9273-43.2358L59.9273-52.7524C59.9273-64.606 52.3379-72.6577 41.3428-72.6577C30.3057-72.6577 22.7197-64.606 22.7197-52.7524Z"/>
  </g>
 </g>
</svg>
