<?xml version="1.0" encoding="UTF-8"?>
<!--Generator: Apple Native CoreSVG 232.5-->
<!DOCTYPE svg
PUBLIC "-//W3C//DTD SVG 1.1//EN"
       "http://www.w3.org/Graphics/SVG/1.1/DTD/svg11.dtd">
<svg version="1.1" xmlns="http://www.w3.org/2000/svg" xmlns:xlink="http://www.w3.org/1999/xlink" width="3300" height="2200">
 <g id="Notes">
  <rect height="2200" id="artboard" style="fill:white;opacity:1" width="3300" x="0" y="0"/>
  <line style="fill:none;stroke:black;opacity:1;stroke-width:0.5;" x1="263" x2="3036" y1="292" y2="292"/>
  <text style="stroke:none;fill:black;font-family:sans-serif;font-size:13;font-weight:bold;" transform="matrix(1 0 0 1 263 322)">Weight/Scale Variations</text>
  <text style="stroke:none;fill:black;font-family:sans-serif;font-size:13;text-anchor:middle;" transform="matrix(1 0 0 1 559.711 322)">Ultralight</text>
  <text style="stroke:none;fill:black;font-family:sans-serif;font-size:13;text-anchor:middle;" transform="matrix(1 0 0 1 856.422 322)">Thin</text>
  <text style="stroke:none;fill:black;font-family:sans-serif;font-size:13;text-anchor:middle;" transform="matrix(1 0 0 1 1153.13 322)">Light</text>
  <text style="stroke:none;fill:black;font-family:sans-serif;font-size:13;text-anchor:middle;" transform="matrix(1 0 0 1 1449.84 322)">Regular</text>
  <text style="stroke:none;fill:black;font-family:sans-serif;font-size:13;text-anchor:middle;" transform="matrix(1 0 0 1 1746.56 322)">Medium</text>
  <text style="stroke:none;fill:black;font-family:sans-serif;font-size:13;text-anchor:middle;" transform="matrix(1 0 0 1 2043.27 322)">Semibold</text>
  <text style="stroke:none;fill:black;font-family:sans-serif;font-size:13;text-anchor:middle;" transform="matrix(1 0 0 1 2339.98 322)">Bold</text>
  <text style="stroke:none;fill:black;font-family:sans-serif;font-size:13;text-anchor:middle;" transform="matrix(1 0 0 1 2636.69 322)">Heavy</text>
  <text style="stroke:none;fill:black;font-family:sans-serif;font-size:13;text-anchor:middle;" transform="matrix(1 0 0 1 2933.4 322)">Black</text>
  <line style="fill:none;stroke:black;opacity:1;stroke-width:0.5;" x1="263" x2="3036" y1="1903" y2="1903"/>
  <g transform="matrix(0.2 0 0 0.2 263 1933)">
   <path d="m46.2402 4.15039c21.5332 0 39.4531-17.8711 39.4531-39.4043s-17.9688-39.4043-39.502-39.4043c-21.4844 0-39.3555 17.8711-39.3555 39.4043s17.9199 39.4043 39.4043 39.4043Zm0-7.42188c-17.7246 0-31.8848-14.209-31.8848-31.9824s14.1113-31.9824 31.8359-31.9824c17.7734 0 32.0312 14.209 32.0312 31.9824s-14.209 31.9824-31.9824 31.9824Zm-17.9688-31.9824c0 2.14844 1.51367 3.61328 3.75977 3.61328h10.498v10.5957c0 2.19727 1.46484 3.71094 3.61328 3.71094 2.24609 0 3.71094-1.51367 3.71094-3.71094v-10.5957h10.5957c2.19727 0 3.71094-1.46484 3.71094-3.61328 0-2.19727-1.51367-3.71094-3.71094-3.71094h-10.5957v-10.5469c0-2.24609-1.46484-3.75977-3.71094-3.75977-2.14844 0-3.61328 1.51367-3.61328 3.75977v10.5469h-10.498c-2.24609 0-3.75977 1.51367-3.75977 3.71094Z"/>
  </g>
  <g transform="matrix(0.2 0 0 0.2 281.506 1933)">
   <path d="m58.5449 14.5508c27.2461 0 49.8047-22.6074 49.8047-49.8047 0-27.2461-22.6074-49.8047-49.8535-49.8047-27.1973 0-49.7559 22.5586-49.7559 49.8047 0 27.1973 22.6074 49.8047 49.8047 49.8047Zm0-8.30078c-23.0469 0-41.4551-18.457-41.4551-41.5039s18.3594-41.5039 41.4062-41.5039 41.5527 18.457 41.5527 41.5039-18.457 41.5039-41.5039 41.5039Zm-22.6562-41.5039c0 2.39258 1.66016 4.00391 4.15039 4.00391h14.3555v14.4043c0 2.44141 1.66016 4.15039 4.05273 4.15039 2.44141 0 4.15039-1.66016 4.15039-4.15039v-14.4043h14.4043c2.44141 0 4.15039-1.61133 4.15039-4.00391 0-2.44141-1.70898-4.15039-4.15039-4.15039h-14.4043v-14.3555c0-2.49023-1.70898-4.19922-4.15039-4.19922-2.39258 0-4.05273 1.70898-4.05273 4.19922v14.3555h-14.3555c-2.49023 0-4.15039 1.70898-4.15039 4.15039Z"/>
  </g>
  <g transform="matrix(0.2 0 0 0.2 304.924 1933)">
   <path d="m74.8535 28.3203c34.8145 0 63.623-28.8086 63.623-63.5742 0-34.8145-28.8574-63.623-63.6719-63.623-34.7656 0-63.5254 28.8086-63.5254 63.623 0 34.7656 28.8086 63.5742 63.5742 63.5742Zm0-9.08203c-30.1758 0-54.4434-24.3164-54.4434-54.4922 0-30.2246 24.2188-54.4922 54.3945-54.4922 30.2246 0 54.541 24.2676 54.541 54.4922 0 30.1758-24.2676 54.4922-54.4922 54.4922Zm-28.8574-54.4922c0 2.58789 1.85547 4.39453 4.58984 4.39453h19.7266v19.7754c0 2.68555 1.85547 4.58984 4.44336 4.58984 2.68555 0 4.54102-1.85547 4.54102-4.58984v-19.7754h19.7754c2.68555 0 4.58984-1.80664 4.58984-4.39453 0-2.73438-1.85547-4.58984-4.58984-4.58984h-19.7754v-19.7266c0-2.73438-1.85547-4.63867-4.54102-4.63867-2.58789 0-4.44336 1.9043-4.44336 4.63867v19.7266h-19.7266c-2.73438 0-4.58984 1.85547-4.58984 4.58984Z"/>
  </g>
  <text style="stroke:none;fill:black;font-family:sans-serif;font-size:13;font-weight:bold;" transform="matrix(1 0 0 1 263 1953)">Design Variations</text>
  <text style="stroke:none;fill:black;font-family:sans-serif;font-size:13;" transform="matrix(1 0 0 1 263 1971)">Symbols are supported in up to nine weights and three scales.</text>
  <text style="stroke:none;fill:black;font-family:sans-serif;font-size:13;" transform="matrix(1 0 0 1 263 1989)">For optimal layout with text and other symbols, vertically align</text>
  <text style="stroke:none;fill:black;font-family:sans-serif;font-size:13;" transform="matrix(1 0 0 1 263 2007)">symbols with the adjacent text.</text>
  <line style="fill:none;stroke:#00AEEF;stroke-width:0.5;opacity:1.0;" x1="776" x2="776" y1="1919" y2="1933"/>
  <g transform="matrix(0.2 0 0 0.2 776 1933)">
   <path d="m16.5527 0.78125c2.58789 0 3.85742-0.976562 4.78516-3.71094l6.29883-17.2363h28.8086l6.29883 17.2363c0.927734 2.73438 2.19727 3.71094 4.73633 3.71094 2.58789 0 4.24805-1.5625 4.24805-4.00391 0-0.830078-0.146484-1.61133-0.537109-2.63672l-22.9004-60.9863c-1.12305-2.97852-3.125-4.49219-6.25-4.49219-3.02734 0-5.07812 1.46484-6.15234 4.44336l-22.9004 61.084c-0.390625 1.02539-0.537109 1.80664-0.537109 2.63672 0 2.44141 1.5625 3.95508 4.10156 3.95508Zm13.4766-28.3691 11.8652-32.8613h0.244141l11.8652 32.8613Z"/>
  </g>
  <line style="fill:none;stroke:#00AEEF;stroke-width:0.5;opacity:1.0;" x1="792.836" x2="792.836" y1="1919" y2="1933"/>
  <text style="stroke:none;fill:black;font-family:sans-serif;font-size:13;font-weight:bold;" transform="matrix(1 0 0 1 776 1953)">Margins</text>
  <text style="stroke:none;fill:black;font-family:sans-serif;font-size:13;" transform="matrix(1 0 0 1 776 1971)">Leading and trailing margins on the left and right side of each symbol</text>
  <text style="stroke:none;fill:black;font-family:sans-serif;font-size:13;" transform="matrix(1 0 0 1 776 1989)">can be adjusted by modifying the x-location of the margin guidelines.</text>
  <text style="stroke:none;fill:black;font-family:sans-serif;font-size:13;" transform="matrix(1 0 0 1 776 2007)">Modifications are automatically applied proportionally to all</text>
  <text style="stroke:none;fill:black;font-family:sans-serif;font-size:13;" transform="matrix(1 0 0 1 776 2025)">scales and weights.</text>
  <g transform="matrix(0.2 0 0 0.2 1289 1933)">
   <path d="m14.209 9.32617 8.49609 8.54492c4.29688 4.3457 9.22852 4.05273 13.8672-1.07422l53.4668-58.9355-4.83398-4.88281-53.0762 58.3984c-1.75781 2.00195-3.41797 2.49023-5.76172 0.146484l-5.85938-5.81055c-2.34375-2.29492-1.80664-4.00391 0.195312-5.81055l57.373-54.0039-4.88281-4.83398-57.959 54.4434c-4.93164 4.58984-5.32227 9.47266-1.02539 13.8184Zm32.0801-90.9668c-2.09961 2.05078-2.24609 4.93164-1.07422 6.88477 1.17188 1.80664 3.4668 2.97852 6.68945 2.14844 7.32422-1.70898 14.9414-2.00195 22.0703 2.68555l-2.92969 7.27539c-1.70898 4.15039-0.830078 7.08008 1.85547 9.81445l11.4746 11.5723c2.44141 2.44141 4.49219 2.53906 7.32422 2.05078l5.32227-0.976562 3.32031 3.36914-0.195312 2.7832c-0.195312 2.49023 0.439453 4.39453 2.88086 6.78711l3.80859 3.71094c2.39258 2.39258 5.46875 2.53906 7.8125 0.195312l14.5508-14.5996c2.34375-2.34375 2.24609-5.32227-0.146484-7.71484l-3.85742-3.80859c-2.39258-2.39258-4.24805-3.17383-6.64062-2.97852l-2.88086 0.244141-3.22266-3.17383 1.2207-5.61523c0.634766-2.83203-0.146484-5.0293-3.07617-7.95898l-10.9863-10.9375c-16.6992-16.6016-38.8672-16.2109-53.3203-1.75781Zm7.4707 1.85547c12.1582-8.88672 28.6133-7.37305 39.7461 3.75977l12.1582 12.0605c1.17188 1.17188 1.36719 2.09961 1.02539 3.80859l-1.61133 7.42188 7.51953 7.42188 4.93164-0.292969c1.26953-0.0488281 1.66016 0.0488281 2.63672 1.02539l2.88086 2.88086-12.207 12.207-2.88086-2.88086c-0.976562-0.976562-1.12305-1.36719-1.07422-2.68555l0.341797-4.88281-7.4707-7.42188-7.61719 1.26953c-1.61133 0.341797-2.34375 0.195312-3.56445-0.976562l-10.0098-10.0098c-1.26953-1.17188-1.41602-2.00195-0.634766-3.85742l4.39453-10.4492c-7.8125-7.27539-17.9688-10.4004-28.125-7.42188-0.78125 0.195312-1.07422-0.439453-0.439453-0.976562Z"/>
  </g>
  <text style="stroke:none;fill:black;font-family:sans-serif;font-size:13;font-weight:bold;" transform="matrix(1 0 0 1 1289 1953)">Exporting</text>
  <text style="stroke:none;fill:black;font-family:sans-serif;font-size:13;" transform="matrix(1 0 0 1 1289 1971)">Symbols should be outlined when exporting to ensure the</text>
  <text style="stroke:none;fill:black;font-family:sans-serif;font-size:13;" transform="matrix(1 0 0 1 1289 1989)">design is preserved when submitting to Xcode.</text>
  <text id="template-version" style="stroke:none;fill:black;font-family:sans-serif;font-size:13;text-anchor:end;" transform="matrix(1 0 0 1 3036 1933)">Template v.2.0</text>
  <text style="stroke:none;fill:black;font-family:sans-serif;font-size:13;text-anchor:end;" transform="matrix(1 0 0 1 3036 1951)">Requires Xcode 12 or greater</text>
  <text id="descriptive-name" style="stroke:none;fill:black;font-family:sans-serif;font-size:13;text-anchor:end;" transform="matrix(1 0 0 1 3036 1969)">Generated from rectangle.expand.vertical</text>
  <text style="stroke:none;fill:black;font-family:sans-serif;font-size:13;text-anchor:end;" transform="matrix(1 0 0 1 3036 1987)">Typeset at 100.0 points</text>
  <text style="stroke:none;fill:black;font-family:sans-serif;font-size:13;" transform="matrix(1 0 0 1 263 726)">Small</text>
  <text style="stroke:none;fill:black;font-family:sans-serif;font-size:13;" transform="matrix(1 0 0 1 263 1156)">Medium</text>
  <text style="stroke:none;fill:black;font-family:sans-serif;font-size:13;" transform="matrix(1 0 0 1 263 1586)">Large</text>
 </g>
 <g id="Guides">
  <g id="H-reference" style="fill:#27AAE1;stroke:none;" transform="matrix(1 0 0 1 339 696)">
   <path d="M0.993654 0L3.63775 0L29.3281-67.1323L30.0303-67.1323L30.0303-70.459L28.1226-70.459ZM11.6885-24.4799L46.9815-24.4799L46.2315-26.7285L12.4385-26.7285ZM55.1196 0L57.7637 0L30.6382-70.459L29.4326-70.459L29.4326-67.1323Z"/>
  </g>
  <line id="Baseline-S" style="fill:none;stroke:#27AAE1;opacity:1;stroke-width:0.5;" x1="263" x2="3036" y1="696" y2="696"/>
  <line id="Capline-S" style="fill:none;stroke:#27AAE1;opacity:1;stroke-width:0.5;" x1="263" x2="3036" y1="625.541" y2="625.541"/>
  <g id="H-reference" style="fill:#27AAE1;stroke:none;" transform="matrix(1 0 0 1 339 1126)">
   <path d="M0.993654 0L3.63775 0L29.3281-67.1323L30.0303-67.1323L30.0303-70.459L28.1226-70.459ZM11.6885-24.4799L46.9815-24.4799L46.2315-26.7285L12.4385-26.7285ZM55.1196 0L57.7637 0L30.6382-70.459L29.4326-70.459L29.4326-67.1323Z"/>
  </g>
  <line id="Baseline-M" style="fill:none;stroke:#27AAE1;opacity:1;stroke-width:0.5;" x1="263" x2="3036" y1="1126" y2="1126"/>
  <line id="Capline-M" style="fill:none;stroke:#27AAE1;opacity:1;stroke-width:0.5;" x1="263" x2="3036" y1="1055.54" y2="1055.54"/>
  <g id="H-reference" style="fill:#27AAE1;stroke:none;" transform="matrix(1 0 0 1 339 1556)">
   <path d="M0.993654 0L3.63775 0L29.3281-67.1323L30.0303-67.1323L30.0303-70.459L28.1226-70.459ZM11.6885-24.4799L46.9815-24.4799L46.2315-26.7285L12.4385-26.7285ZM55.1196 0L57.7637 0L30.6382-70.459L29.4326-70.459L29.4326-67.1323Z"/>
  </g>
  <line id="Baseline-L" style="fill:none;stroke:#27AAE1;opacity:1;stroke-width:0.5;" x1="263" x2="3036" y1="1556" y2="1556"/>
  <line id="Capline-L" style="fill:none;stroke:#27AAE1;opacity:1;stroke-width:0.5;" x1="263" x2="3036" y1="1485.54" y2="1485.54"/>
  <line id="left-margin" style="fill:none;stroke:#00AEEF;stroke-width:0.5;opacity:1.0;" x1="1382.47" x2="1382.47" y1="1030.79" y2="1150.12"/>
  <line id="right-margin" style="fill:none;stroke:#00AEEF;stroke-width:0.5;opacity:1.0;" x1="1517.22" x2="1517.22" y1="1030.79" y2="1150.12"/>
 </g>
  <g id="Symbols">
    <g id="Black-L" transform="matrix(1 0 0 1 2839.47 1556)">
      <path d="m 93.918672,-9.9003906 c -4.540996,0 -7.75,3.2463664 -7.75,7.8261718 V 14.322266 L 86.879609,24.275391 84.078828,20.125 78.444063,13.4375 c -0.9763,-1.209899 -2.796403,-2.138672 -4.8125,-2.138672 -3.881297,0 -7.042969,3.061504 -7.042969,7 0,1.809298 0.622698,3.376995 2.091797,4.746094 L 88.3425,41.683594 c 1.744798,1.644798 3.442074,2.552734 5.576172,2.552734 2.154898,0 3.853499,-0.850736 5.654297,-2.552734 L 119.23508,23.044922 c 1.411,-1.369099 2.0332,-2.936796 2.0332,-4.746094 0,-3.938496 -3.08249,-7 -7.02148,-7 -1.959,0 -3.85799,0.928773 -4.83399,2.138672 l -5.57617,6.628906 -2.85937,4.208985 0.71093,-9.953125 V -2.0742188 c 0,-4.5798054 -3.206533,-7.8261718 -7.769528,-7.8261718 z"/>
      <path d="M 38.012422 -80.558594 C 24.412961 -80.558594 16.084688 -72.748308 16.084688 -60.185547 L 16.084688 -11.896484 C 16.084688 0.64545624 24.412961 8.4765625 38.012422 8.4765625 L 59.813203 8.4765625 L 59.813203 -7.2285156 L 42.121797 -7.2285156 C 37.305012 -7.2285156 34.270234 -10.227021 34.270234 -14.816406 L 34.270234 -57.263672 C 34.270234 -61.853057 37.305012 -64.853516 42.121797 -64.853516 L 128.04367 -64.853516 L 139.8132 -64.853516 L 145.73313 -64.853516 C 150.5501 -64.853516 153.58664 -61.853057 153.58664 -57.263672 L 153.58664 -14.816406 C 153.58664 -10.227021 150.5501 -7.2285156 145.73313 -7.2285156 L 128.04367 -7.2285156 L 128.04367 8.4765625 L 149.84641 8.4765625 C 163.44435 8.4765625 171.77219 0.64545624 171.77219 -11.896484 L 171.77219 -60.185547 C 171.77219 -72.748308 163.44435 -80.558594 149.84641 -80.558594 L 139.8132 -80.558594 L 128.04367 -80.558594 L 38.012422 -80.558594 z"/>
    </g>
    <g id="Heavy-L" transform="matrix(1 0 0 1 2544.53 1556)">
      <path d="m 92.145781,-10.140625 c -4.058896,0 -7.02539,2.9736985 -7.02539,7.0527344 V 14.480469 l 0.638671,10.177734 -3.607421,-4.693359 -6.208985,-7.023438 c -0.950299,-1.128799 -2.608889,-1.955078 -4.429687,-1.955078 -3.554797,0 -6.402344,2.742141 -6.402344,6.335938 0,1.700598 0.614611,3.155257 1.974609,4.410156 l 20.00586,18.919922 c 1.627898,1.522898 3.139089,2.326172 5.054687,2.326172 1.945898,0 3.467608,-0.764274 5.128906,-2.326172 L 117.28641,21.732422 c 1.31499,-1.254899 1.92773,-2.709558 1.92773,-4.410156 0,-3.593797 -2.7771,-6.335938 -6.37109,-6.335938 -1.782,0 -3.51385,0.826279 -4.46485,1.955078 l -6.16406,6.978516 -3.652343,4.738281 0.638672,-10.177734 V -3.0878906 c 0,-4.0790359 -2.959892,-7.0527344 -7.054688,-7.0527344 z"/>
      <path d="M 37.022734 -79.931641 C 24.174373 -79.931641 16.083281 -72.297045 16.083281 -60.425781 L 16.083281 -11.585938 C 16.083281 0.25516498 24.174373 7.9199219 37.022734 7.9199219 L 58.477812 7.9199219 L 58.477812 -6.1855469 L 40.43875 -6.1855469 C 35.369865 -6.1855469 32.184844 -9.3964325 32.184844 -14.167969 L 32.184844 -57.84375 C 32.184844 -62.615335 35.369865 -65.826172 40.43875 -65.826172 L 125.84891 -65.826172 L 128.47781 -65.826172 L 143.88211 -65.826172 C 148.95008 -65.826172 152.14187 -62.615335 152.14187 -57.84375 L 152.14187 -14.167969 C 152.14187 -9.3964325 148.95008 -6.1855469 143.88211 -6.1855469 L 125.84891 -6.1855469 L 125.84891 7.9199219 L 147.30398 7.9199219 C 160.14695 7.9199219 168.23758 0.25516498 168.23758 -11.585938 L 168.23758 -60.425781 C 168.23758 -72.297045 160.14695 -79.931641 147.30398 -79.931641 L 128.47781 -79.931641 L 125.84891 -79.931641 L 37.022734 -79.931641 z"/>
    </g>
    <g id="Bold-L" transform="matrix(1 0 0 1 2250.02 1556)">
      <path d="m 89.940938,-10.455078 c -3.444797,0 -6.074219,2.6054408 -6.074219,6.0546874 V 14.708984 l 0.546875,10.566407 -4.853516,-5.636719 -6.789062,-7.341797 c -0.897199,-1.013999 -2.338652,-1.710938 -3.90625,-1.710937 -3.125297,0 -5.56836,2.337318 -5.56836,5.478515 0,1.554999 0.606426,2.854204 1.828125,3.970703 l 20.445313,19.341797 c 1.459498,1.354399 2.731895,2.027344 4.371094,2.027344 1.677298,0 2.975201,-0.656945 4.4375,-2.027344 L 114.83742,20.035156 c 1.192,-1.116499 1.79688,-2.415704 1.79688,-3.970703 0,-3.141197 -2.38535,-5.478516 -5.52735,-5.478515 -1.551,0 -3.06098,0.696938 -3.95898,1.710937 l -6.75977,7.3125 -4.882809,5.666016 0.546875,-10.566407 V -4.4003906 c 0,-3.4492466 -2.615232,-6.0546874 -6.111328,-6.0546874 z"/>
      <path d="M 35.868672 -79.132812 C 23.897908 -79.132812 16.083516 -71.72117 16.083516 -60.658203 L 16.083516 -11.291016 C 16.083516 -0.26600995 23.897908 7.1835938 35.868672 7.1835938 L 56.825703 7.1835938 L 56.825703 -4.8710938 L 38.438984 -4.8710938 C 33.010502 -4.8710938 29.57375 -8.3899602 29.57375 -13.458984 L 29.57375 -58.490234 C 29.57375 -63.559219 33.010502 -67.076172 38.438984 -67.076172 L 123.10695 -67.076172 L 126.8257 -67.076172 L 141.48 -67.076172 C 146.90797 -67.076172 150.35891 -63.559219 150.35891 -58.490234 L 150.35891 -13.458984 C 150.35891 -8.3899602 146.90797 -4.8710937 141.48 -4.8710938 L 123.10695 -4.8710938 L 123.10695 7.1835938 L 144.06398 7.1835938 C 156.02195 7.1835938 163.83547 -0.26600995 163.83547 -11.291016 L 163.83547 -60.658203 C 163.83547 -71.72117 156.02195 -79.132812 144.06398 -79.132812 L 126.8257 -79.132812 L 123.10695 -79.132812 L 35.868672 -79.132812 z"/>
    </g>
    <g id="Semibold-L" transform="matrix(1 0 0 1 1954.82 1556)">
      <path d="m 88.420234,-10.671875 c -3.021297,0 -5.417968,2.3521105 -5.417968,5.3671875 V 14.867188 l 0.484375,10.833984 -5.712891,-6.28711 -7.189453,-7.560546 c -0.860499,-0.934899 -2.153877,-1.542969 -3.546875,-1.542969 -2.829197,0 -4.990234,2.055568 -4.990234,4.884766 0,1.454598 0.600163,2.650776 1.726562,3.671874 l 20.746094,19.63086 c 1.343598,1.238199 2.451792,1.820312 3.90039,1.820312 1.492099,0 2.637692,-0.582013 3.962891,-1.820312 l 20.765625,-19.63086 c 1.108,-1.021098 1.70703,-2.217276 1.70703,-3.671874 0,-2.829198 -2.11827,-4.884766 -4.94726,-4.884766 -1.393,0 -2.74938,0.60807 -3.60938,1.542969 l -7.169921,7.541015 -5.730469,6.306641 0.482422,-10.833984 V -5.3046875 c 0,-3.015077 -2.377641,-5.3671875 -5.460938,-5.3671875 z"/>
      <path d="M 35.070625 -78.582031 C 23.704958 -78.582031 16.084297 -71.324129 16.084297 -60.818359 L 16.084297 -11.085938 C 16.084297 -0.62360988 23.704958 6.6757813 35.070625 6.6757812 L 55.687813 6.6757812 L 55.687813 -3.9667969 L 37.060859 -3.9667969 C 31.384377 -3.9667969 27.77375 -7.6947159 27.77375 -12.96875 L 27.77375 -58.9375 C 27.77375 -64.211485 31.384377 -67.939453 37.060859 -67.939453 L 121.21516 -67.939453 L 125.68781 -67.939453 L 139.82453 -67.939453 C 145.50153 -67.939453 149.12922 -64.211485 149.12922 -58.9375 L 149.12922 -12.96875 C 149.12922 -7.6947159 145.50153 -3.9667969 139.82453 -3.9667969 L 121.21516 -3.9667969 L 121.21516 6.6757812 L 141.83039 6.6757812 C 153.17736 6.6757812 160.79914 -0.62360988 160.79914 -11.085938 L 160.79914 -60.818359 C 160.79914 -71.324129 153.17736 -78.582031 141.83039 -78.582031 L 125.68781 -78.582031 L 121.21516 -78.582031 L 35.070625 -78.582031 z"/>
    </g>
    <g id="Medium-L" transform="matrix(1 0 0 1 1659.26 1556)">
      <path d="m 87.267344,-10.835938 c 2.770297,1e-6 4.96875,2.1598463 4.96875,4.8457036 V 14.986328 l -0.435547,11.039063 6.373047,-6.792969 7.482426,-7.716797 c 0.83299,-0.874799 2.0737,-1.412109 3.3457,-1.412109 2.593,0 4.50586,1.842849 4.50586,4.435547 0,1.378398 -0.59663,2.492607 -1.64063,3.441406 L 90.868906,37.832031 c -1.221099,1.138199 -2.249964,1.664063 -3.601562,1.664063 -1.304099,0 -2.28747,-0.513964 -3.542969,-1.664063 L 62.747813,17.980469 c -1.054199,-0.948799 -1.648438,-2.063008 -1.648438,-3.441406 0,-2.592698 1.948137,-4.435547 4.552734,-4.435547 1.260699,0 2.442592,0.53731 3.275391,1.412109 l 7.492188,7.728516 6.363281,6.78125 -0.435547,-11.039063 V -5.9902344 c 0,-2.6858573 2.219624,-4.8457036 4.919922,-4.8457036 z"/>
      <path d="M 34.468516 -78.164062 C 23.561549 -78.164062 16.08375 -71.024676 16.08375 -60.941406 L 16.08375 -10.933594 C 16.08375 -0.89786237 23.561549 6.2910156 34.468516 6.2910156 L 54.823984 6.2910156 L 54.823984 -3.2792969 L 36.013438 -3.2792969 C 30.148953 -3.2792969 26.407969 -7.1681831 26.407969 -12.597656 L 26.407969 -59.275391 C 26.407969 -64.704873 30.148953 -68.59375 36.013438 -68.59375 L 119.78297 -68.59375 L 124.82398 -68.59375 L 138.56813 -68.59375 C 144.43212 -68.59375 148.19703 -64.704873 148.19703 -59.275391 L 148.19703 -12.597656 C 148.19703 -7.1681831 144.43212 -3.2792969 138.56813 -3.2792969 L 119.78297 -3.2792969 L 119.78297 6.2910156 L 140.13648 6.2910156 C 151.02145 6.2910156 158.49977 -0.89786237 158.49977 -10.933594 L 158.49977 -60.941406 C 158.49977 -71.024676 151.02145 -78.164062 140.13648 -78.164062 L 124.82398 -78.164062 L 119.78297 -78.164062 L 34.468516 -78.164062 z"/>
    </g>
    <g id="Regular-L" transform="matrix(1 0 0 1 1364.05 1556)">
      <path d="m 85.764453,-11.050781 c 2.361998,0 4.324219,1.9095576 4.324219,4.1660154 V 15.144531 l -0.371094,11.300781 7.210938,-7.423828 7.888674,-7.945312 c 0.797,-0.796599 1.885,-1.2460939 3,-1.2460939 2.284,0 3.92969,1.5655119 3.92969,3.8496099 0,1.279098 -0.59079,2.290132 -1.55079,3.144531 L 88.895313,36.960937 c -1.085499,1.007599 -1.962361,1.460938 -3.13086,1.460938 -1.115699,0 -1.937326,-0.425639 -3.078125,-1.460938 L 61.412891,16.824219 c -0.959999,-0.854399 -1.550782,-1.865433 -1.550782,-3.144531 0,-2.284098 1.670625,-3.8496099 3.982422,-3.8496099 1.087999,0 2.123423,0.4494949 2.919922,1.2460939 l 7.888672,7.945312 7.210938,7.423828 -0.371094,-11.300781 V -6.8847656 c 0,-2.2564578 1.989886,-4.1660154 4.271484,-4.1660154 z"/>
      <path d="M 33.680469 -77.621094 C 23.371899 -77.621094 16.084766 -70.631682 16.084766 -61.099609 L 16.084766 -10.732422 C 16.084766 -1.2531202 23.371899 5.7890625 33.680469 5.7890625 L 53.698047 5.7890625 L 53.698047 -2.3847656 L 34.651172 -2.3847656 C 28.54139 -2.3847656 24.627734 -6.4809287 24.627734 -12.113281 L 24.627734 -59.716797 C 24.627734 -65.349079 28.54139 -69.447266 34.651172 -69.447266 L 117.91289 -69.447266 L 123.69805 -69.447266 L 136.93047 -69.447266 C 143.04044 -69.447266 146.98125 -65.349079 146.98125 -59.716797 L 146.98125 -12.113281 C 146.98125 -6.4809287 143.04044 -2.3847656 136.93047 -2.3847656 L 117.91289 -2.3847656 L 117.91289 5.7890625 L 137.92852 5.7890625 C 148.20949 5.7890625 155.49687 -1.2531202 155.49688 -10.732422 L 155.49688 -61.099609 C 155.49688 -70.631682 148.20949 -77.621094 137.92852 -77.621094 L 123.69805 -77.621094 L 117.91289 -77.621094 L 33.680469 -77.621094 z"/>
    </g>
    <g id="Light-L" transform="matrix(1 0 0 1 1068.94 1556)">
      <path d="m 84.181094,-11.375 c 1.827598,0 3.3125,1.4506893 3.3125,3.2109375 V 15.525391 l -0.296875,12.27539 9.636718,-9.830078 7.449223,-7.542969 c 0.624,-0.624799 1.46456,-0.9414059 2.35156,-0.9414059 1.807,0 3.08984,1.2028679 3.08984,3.0097659 0,1.107299 -0.61008,1.926979 -1.45508,2.705078 L 86.585391,36.083984 c -0.7801,0.7595 -1.483898,1.134766 -2.404297,1.134766 -0.886599,0 -1.499448,-0.328566 -2.373047,-1.134766 L 60.171328,15.201172 c -0.845399,-0.778099 -1.455078,-1.597779 -1.455078,-2.705078 0,-1.806898 1.271302,-3.0097659 3.125,-3.0097659 0.839899,0 1.644732,0.3166069 2.269531,0.9414059 l 7.451172,7.542969 9.634766,9.830078 -0.294922,-12.27539 V -8.1640625 c 0,-1.7602482 1.532198,-3.2109375 3.279297,-3.2109375 z"/>
      <path d="M 33.337344 -76.933594 C 23.295874 -76.933594 16.083437 -70.116004 16.083437 -60.832031 L 16.083437 -11.113281 C 16.083437 -1.8630095 23.295874 4.9882813 33.337344 4.9882812 L 52.571719 4.9882812 L 52.571719 -1.3359375 L 33.81 -1.3359375 C 27.146821 -1.3359375 22.642031 -5.9281837 22.642031 -12.228516 L 22.642031 -59.716797 C 22.642031 -66.017079 27.146821 -70.611328 33.81 -70.611328 L 115.87055 -70.611328 L 122.57172 -70.611328 L 134.58344 -70.611328 C 141.24641 -70.611328 145.79828 -66.017079 145.79828 -59.716797 L 145.79828 -12.228516 C 145.79828 -5.9281837 141.24641 -1.3359375 134.58344 -1.3359375 L 115.87055 -1.3359375 L 115.87055 4.9882812 L 135.10492 4.9882812 C 145.09889 4.9882812 152.31 -1.8630095 152.31 -11.113281 L 152.31 -60.832031 C 152.31 -70.116004 145.09889 -76.933594 135.10492 -76.933594 L 122.57172 -76.933594 L 115.87055 -76.933594 L 33.337344 -76.933594 z"/>
    </g>
    <g id="Thin-L" transform="matrix(1 0 0 1 774.333 1556)">
      <path d="m 82.084969,-11.804688 c 1.120799,0 1.974609,0.84524 1.974609,1.9492192 V 16.03125 L 83.866219,29.59375 96.706063,16.582031 103.5752,9.5703125 c 0.397,-0.3975996 0.91014,-0.5371094 1.49414,-0.5371094 1.176,0 1.98047,0.7224487 1.98047,1.8984379 0,0.880099 -0.63608,1.4479 -1.33008,2.125 L 83.532234,34.923828 c -0.376199,0.4313 -0.855066,0.705078 -1.447265,0.705078 -0.5838,0 -0.917201,-0.201778 -1.4375,-0.705078 L 58.530281,13.056641 c -0.693999,-0.6771 -1.328125,-1.244901 -1.328125,-2.125 0,-1.1759892 0.740383,-1.8984379 1.988282,-1.8984379 0.511799,0 1.014509,0.1395098 1.412109,0.5371094 L 67.471688,16.582031 80.313484,29.59375 80.118172,16.03125 V -9.8554688 c 0,-1.1039792 0.926398,-1.9492192 1.966797,-1.9492192 z"/>
      <path d="M 32.881844 -76.025391 C 23.193771 -76.025391 16.084969 -69.434389 16.084969 -60.478516 L 16.084969 -11.619141 C 16.084969 -2.6717068 23.193771 3.9277344 32.881844 3.9277344 L 51.081063 3.9277344 L 51.081063 0.052734375 L 32.700203 0.052734375 C 25.305027 0.052734375 20.016609 -5.1951682 20.016609 -12.378906 L 20.016609 -59.716797 C 20.016609 -66.900476 25.305027 -72.150391 32.700203 -72.150391 L 113.16895 -72.150391 L 121.08106 -72.150391 L 131.4795 -72.150391 C 138.87447 -72.150391 144.23341 -66.900476 144.23341 -59.716797 L 144.23341 -12.378906 C 144.23341 -5.1951682 138.87447 0.052734375 131.4795 0.052734375 L 113.16895 0.052734375 L 113.16895 3.9277344 L 131.36817 3.9277344 C 140.98414 3.9277344 148.09473 -2.6717068 148.09473 -11.619141 L 148.09473 -60.478516 C 148.09473 -69.434389 140.98414 -76.025391 131.36817 -76.025391 L 121.08106 -76.025391 L 113.16895 -76.025391 L 32.881844 -76.025391 z"/>
    </g>
    <g id="Ultralight-L" transform="matrix(1 0 0 1 478.701 1556)">
      <path d="m 81.011891,-12.023438 c 0.758799,1e-6 1.289062,0.534836 1.289062,1.302735 V 16.289062 L 82.158375,30.511719 96.64275,15.871094 103.21306,9.1308594 c 0.281,-0.2812497 0.62669,-0.3300781 1.05469,-0.3300781 0.853,0 1.41016,0.4773289 1.41016,1.3300777 0,0.7637 -0.64768,1.200773 -1.26368,1.826172 L 81.966969,34.328125 c -0.1693,0.2633 -0.530979,0.486328 -0.955078,0.486328 -0.4286,0 -0.619785,-0.138128 -0.958985,-0.486328 L 57.691578,11.957031 c -0.616399,-0.625399 -1.265625,-1.062472 -1.265625,-1.826172 0,-0.8527488 0.468651,-1.3300777 1.40625,-1.3300777 0.3437,0 0.69331,0.048828 0.974609,0.3300781 L 65.377125,15.871094 79.8615,30.511719 79.716969,16.289062 v -27.009765 c 0,-0.767899 0.616522,-1.302735 1.294922,-1.302735 z"/>
      <path d="M 32.650562 -75.558594 C 23.143592 -75.558594 16.084156 -69.084648 16.084156 -60.296875 L 16.084156 -11.876953 C 16.084156 -3.0847397 23.143592 3.3847656 32.650562 3.3847656 L 50.318531 3.3847656 L 50.318531 0.76367188 L 32.131031 0.76367188 C 24.360955 0.76367188 18.672047 -4.8207647 18.672047 -12.457031 L 18.672047 -59.716797 C 18.672047 -67.353073 24.360955 -72.939453 32.131031 -72.939453 L 111.78533 -72.939453 L 123.31853 -72.939453 L 129.88884 -72.939453 C 137.65884 -72.939453 143.43181 -67.353073 143.43181 -59.716797 L 143.43181 -12.457031 C 143.43181 -4.8207647 137.65884 0.76367188 129.88884 0.76367188 L 111.78533 0.76367188 L 111.78533 3.3847656 L 129.45525 3.3847656 C 138.87722 3.3847656 145.93572 -3.0847397 145.93572 -11.876953 L 145.93572 -60.296875 C 145.93572 -69.084648 138.87722 -75.558594 129.45525 -75.558594 L 123.31853 -75.558594 L 111.78533 -75.558594 L 32.650562 -75.558594 z"/>
    </g>
    <g id="Black-M" transform="matrix(1 0 0 1 2859.33 1126)">
      <path d="m 74.070391,-15.443359 c -3.860097,0 -6.494141,2.68637 -6.494141,6.5976559 V 3.0761719 L 68.179766,10.726563 66.378984,7.6523437 62.564531,2.8125 C 61.809032,1.828711 60.289926,1.0410156 58.593828,1.0410156 c -3.225597,0 -5.888672,2.5959196 -5.888672,5.8789063 0,1.4718185 0.492486,2.7578311 1.708985,3.9062501 L 69.398516,25.125 c 1.416198,1.348099 2.861776,2.126953 4.671875,2.126953 1.815498,0 3.262529,-0.721454 4.736328,-2.126953 L 93.791094,10.826172 c 1.159399,-1.148419 1.652344,-2.4344316 1.652344,-3.9062501 0,-3.2829867 -2.601769,-5.8789063 -5.884766,-5.8789063 -1.638698,0 -3.221063,0.7876954 -3.976563,1.7714844 l -3.755859,4.78125 -1.859375,3.132813 0.603516,-7.6503911 v -11.921875 c 0,-3.9112859 -2.634804,-6.5976559 -6.5,-6.5976559 z"/>
      <path d="M 30.252031 -70.794922 C 19.106764 -70.794922 12.461016 -64.613882 12.461016 -54.320312 L 12.461016 -17.472656 C 12.461016 -7.1846075 19.106764 -0.99804688 30.252031 -0.99804688 L 47.336016 -0.99804688 L 47.336016 -14.289062 L 33.966875 -14.289062 C 30.376787 -14.289062 28.074297 -16.498693 28.074297 -19.988281 L 28.074297 -51.802734 C 28.074297 -55.292325 30.376787 -57.501953 33.966875 -57.501953 L 100.81063 -57.501953 L 112.33602 -57.501953 L 114.18172 -57.501953 C 117.77172 -57.501953 120.07234 -55.292325 120.07234 -51.802734 L 120.07234 -19.988281 C 120.07234 -16.498693 117.77172 -14.289062 114.18172 -14.289062 L 100.81063 -14.289062 L 100.81063 -0.99804688 L 117.89461 -0.99804688 C 129.04058 -0.99804688 135.68562 -7.1846075 135.68563 -17.472656 L 135.68563 -54.320312 C 135.68563 -64.613882 129.04058 -70.794922 117.89461 -70.794922 L 112.33602 -70.794922 L 100.81063 -70.794922 L 30.252031 -70.794922 z"/>
    </g>
    <g id="Heavy-M" transform="matrix(1 0 0 1 2564.2 1126)">
      <path d="m 72.483594,-15.648438 c -3.438097,0 -5.875,2.462091 -5.875,5.929688 V 3.1953125 l 0.539062,7.7792965 -2.36914,-3.3828121 -4.414063,-5.203125 c -0.745899,-0.9203591 -2.128051,-1.62109378 -3.65625,-1.62109378 -2.948597,0 -5.34375,2.31664358 -5.34375,5.30664058 0,1.3814287 0.483217,2.5752217 1.603516,3.6191407 L 68.257031,24.199219 c 1.326499,1.249999 2.608964,1.935547 4.226563,1.935547 1.634098,0 2.923564,-0.644149 4.289062,-1.935547 L 92.063672,9.6933594 c 1.076699,-1.043919 1.558594,-2.237712 1.558594,-3.6191407 0,-2.989997 -2.338128,-5.30664058 -5.328125,-5.30664058 -1.486799,0 -2.925976,0.70073468 -3.671875,1.62109378 L 80.251172,7.5488281 77.837109,10.974609 78.376172,3.1953125 V -9.71875 c 0,-3.467597 -2.435782,-5.929687 -5.892578,-5.929688 z"/>
      <path d="M 29.317578 -70.244141 C 18.881811 -70.244141 12.460156 -64.220548 12.460156 -54.580078 L 12.460156 -17.132812 C 12.460156 -7.5087223 18.881811 -1.46875 29.317578 -1.46875 L 46.133984 -1.46875 L 46.133984 -13.367188 L 32.399609 -13.367188 C 28.614121 -13.367188 26.219922 -15.737762 26.219922 -19.34375 L 26.219922 -52.369141 C 26.219922 -55.975129 28.614121 -58.345703 32.399609 -58.345703 L 98.852734 -58.345703 L 106.13398 -58.345703 L 112.58516 -58.345703 C 116.37113 -58.345703 118.76875 -55.975129 118.76875 -52.369141 L 118.76875 -19.34375 C 118.76875 -15.737762 116.37113 -13.367188 112.58516 -13.367188 L 98.852734 -13.367188 L 98.852734 -1.46875 L 115.66914 -1.46875 C 126.10211 -1.46875 132.52461 -7.5087223 132.52461 -17.132812 L 132.52461 -54.580078 C 132.52461 -64.220548 126.10211 -70.244141 115.66914 -70.244141 L 106.13398 -70.244141 L 98.852734 -70.244141 L 29.317578 -70.244141 z"/>
    </g>
    <g id="Bold-M" transform="matrix(1 0 0 1 2269.25 1126)">
      <path d="m 70.708984,-15.876953 c -2.966097,0 -5.183593,2.212497 -5.183593,5.183594 V 3.328125 l 0.466796,7.925781 -3.003906,-3.7285154 -5.08789,-5.6113281 c -0.7352,-0.8493992 -1.960583,-1.45507812 -3.300782,-1.45507812 -2.638797,0 -4.732421,2.00768452 -4.732422,4.66992182 0,1.2803188 0.469623,2.3679629 1.482422,3.2949219 l 15.63086,14.7382809 c 1.226099,1.140299 2.326117,1.722657 3.728515,1.722657 1.431099,0 2.542711,-0.558958 3.78711,-1.722657 L 90.130859,8.4238281 c 0.984199,-0.926959 1.455079,-2.0146031 1.455078,-3.2949219 0,-2.6622373 -2.04278,-4.66992182 -4.705078,-4.66992182 -1.316798,0 -2.598785,0.60567892 -3.333984,1.45507812 l -5.058594,5.5820312 -3.033203,3.7578123 0.466797,-7.925781 v -14.021484 c 0,-2.971097 -2.212994,-5.183594 -5.212891,-5.183594 z"/>
      <path d="M 28.271484 -69.628906 C 18.629414 -69.628906 12.460937 -63.781067 12.460938 -54.871094 L 12.460938 -16.751953 C 12.460938 -7.87061 18.629414 -1.9960938 28.271484 -1.9960938 L 44.789062 -1.9960938 L 44.789062 -12.335938 L 30.644531 -12.335938 C 26.640443 -12.335938 24.142578 -14.884903 24.142578 -18.621094 L 24.142578 -53.001953 C 24.142578 -56.738241 26.640443 -59.289062 30.644531 -59.289062 L 96.664062 -59.289062 L 104.78906 -59.289062 L 110.80273 -59.289062 C 114.80673 -59.289062 117.31055 -56.738241 117.31055 -53.001953 L 117.31055 -18.621094 C 117.31055 -14.884903 114.80673 -12.335938 110.80273 -12.335938 L 96.664062 -12.335938 L 96.664062 -1.9960938 L 113.18164 -1.9960938 C 122.81861 -1.9960938 128.98633 -7.87061 128.98633 -16.751953 L 128.98633 -54.871094 C 128.98633 -63.781067 122.81861 -69.628906 113.18164 -69.628906 L 104.78906 -69.628906 L 96.664062 -69.628906 L 28.271484 -69.628906 z"/>
    </g>
    <g id="Semibold-M" transform="matrix(1 0 0 1 1973.76 1126)">
      <path d="m 69.486094,-16.035156 c -2.640698,0 -4.707031,2.041024 -4.707031,4.669922 V 3.4199219 L 65.197031,11.445313 61.753672,7.4785156 56.202891,1.5859375 c -0.7279,-0.8004772 -1.845942,-1.33984375 -3.056641,-1.33984375 -2.425298,0 -4.3125,1.79418115 -4.3125,4.23046875 0,1.2106188 0.461792,2.2278896 1.400391,3.0742187 L 66.099375,22.449219 c 1.156999,1.064699 2.13262,1.574218 3.386719,1.574218 1.291198,0 2.280507,-0.498519 3.441406,-1.574218 L 88.798594,7.5507812 c 0.920399,-0.8463291 1.382812,-1.8635999 1.382812,-3.0742187 0,-2.4362876 -1.83714,-4.23046875 -4.273437,-4.23046875 -1.199699,0 -2.375617,0.53936655 -3.103516,1.33984375 l -5.53125,5.875 -3.460937,3.9843755 0.417968,-8.0253911 V -11.365234 c 0,-2.628898 -2.059243,-4.669922 -4.74414,-4.669922 z"/>
      <path d="M 27.550547 -69.205078 C 18.455774 -69.205078 12.460703 -63.478639 12.460703 -55.072266 L 12.460703 -16.490234 C 12.460703 -8.1210401 18.455774 -2.359375 27.550547 -2.359375 L 43.863047 -2.359375 L 43.863047 -11.625 L 29.435313 -11.625 C 25.280525 -11.625 22.712656 -14.298912 22.712656 -18.125 L 22.712656 -53.439453 C 22.712656 -57.265541 25.280525 -59.939453 29.435313 -59.939453 L 95.154063 -59.939453 L 103.86305 -59.939453 L 109.57203 -59.939453 C 113.72603 -59.939453 116.30445 -57.265541 116.30445 -53.439453 L 116.30445 -18.125 C 116.30445 -14.298912 113.72603 -11.625 109.57203 -11.625 L 95.154063 -11.625 L 95.154063 -2.359375 L 111.46656 -2.359375 C 120.55453 -2.359375 126.54859 -8.1210401 126.54859 -16.490234 L 126.54859 -55.072266 C 126.54859 -63.478639 120.55453 -69.205078 111.46656 -69.205078 L 103.86305 -69.205078 L 95.154063 -69.205078 L 27.550547 -69.205078 z"/>
    </g>
    <g id="Medium-M" transform="matrix(1 0 0 1 1677.98 1126)">
      <path d="m 68.557109,-16.15625 c -2.393897,0 -4.345703,1.911852 -4.345703,4.28125 V 3.4882813 L 64.592266,11.591797 60.818828,7.4433594 54.916484,1.3398437 C 54.194185,0.57646451 53.155836,0.0859375 52.043437,0.0859375 c -2.263297,0 -3.992187,1.6315166 -3.992187,3.8964844 0,1.1577588 0.455492,2.1191076 1.337891,2.9042968 L 65.432109,21.90625 c 1.104499,1.007399 1.983402,1.462891 3.125,1.462891 1.185099,0 2.084042,-0.453792 3.181641,-1.462891 L 87.789531,6.8867187 c 0.872099,-0.7851892 1.328125,-1.746538 1.328125,-2.9042968 0,-2.2649678 -1.684321,-3.8964844 -3.949219,-3.8964844 -1.110798,0 -2.203481,0.49052701 -2.925781,1.2539062 l -5.892578,6.09375 -3.783203,4.1582033 0.380859,-8.1035157 V -11.875 c 0,-2.369398 -1.944627,-4.28125 -4.390625,-4.28125 z"/>
      <path d="M 27.002422 -68.882812 C 18.322449 -68.882812 12.461406 -63.248985 12.461406 -55.224609 L 12.461406 -16.291016 C 12.461406 -8.3100888 18.322449 -2.6347656 27.002422 -2.6347656 L 43.160625 -2.6347656 L 43.160625 -11.083984 L 28.52 -11.083984 C 24.251012 -11.083984 21.625469 -13.853859 21.625469 -17.748047 L 21.625469 -53.769531 C 21.625469 -57.663719 24.251012 -60.431641 28.52 -60.431641 L 94.008281 -60.431641 L 103.16062 -60.431641 L 108.63914 -60.431641 C 112.90814 -60.431641 115.54148 -57.663719 115.54148 -53.769531 L 115.54148 -17.748047 C 115.54148 -13.853859 112.90814 -11.083984 108.63914 -11.083984 L 94.008281 -11.083984 L 94.008281 -2.6347656 L 110.16453 -2.6347656 C 118.8365 -2.6347656 124.69969 -8.3100888 124.69969 -16.291016 L 124.69969 -55.224609 C 124.69969 -63.248985 118.8365 -68.882812 110.16453 -68.882812 L 103.16062 -68.882812 L 94.008281 -68.882812 L 27.002422 -68.882812 z"/>
    </g>
    <g id="Regular-M" transform="matrix(1 0 0 1 1382.47 1126)">
      <path d="m 67.348359,-16.3125 c 2.134498,0 3.925782,1.740586 3.925782,3.771484 V 3.5800781 L 70.942109,11.78125 75.149141,7.3984375 81.510469,1.015625 c 0.714999,-0.71500428 1.69846,-1.13867187 2.693359,-1.13867187 2.041498,-10e-9 3.523438,1.41944957 3.523438,3.46093747 0,1.0888289 -0.444907,1.9800976 -1.253907,2.6855469 L 70.18625,21.201172 c -1.014999,0.921999 -1.791292,1.314453 -2.837891,1.314453 -0.994899,0 -1.75101,-0.381854 -2.787109,-1.314453 L 48.285859,6.0234375 C 47.47686,5.3179882 47.03,4.4267195 47.03,3.3378906 c 0,-2.0414879 1.522221,-3.46093747 3.574219,-3.46093747 0.984399,0 1.917813,0.42366759 2.632812,1.13867187 L 59.598359,7.3984375 63.805391,11.78125 63.473359,3.5800781 V -12.541016 c 0,-2.030898 1.802802,-3.771484 3.875,-3.771484 z"/>
      <path d="M 26.289766 -68.462891 C 18.15099 -68.462891 12.461641 -62.950107 12.461641 -55.423828 L 12.461641 -16.033203 C 12.461641 -8.5586658 18.15099 -2.9941406 26.289766 -2.9941406 L 42.242891 -2.9941406 L 42.242891 -10.380859 L 27.322969 -10.380859 C 22.904981 -10.380859 20.211641 -13.272871 20.211641 -17.255859 L 20.211641 -54.201172 C 20.211641 -58.18406 22.904981 -61.076172 27.322969 -61.076172 L 92.514375 -61.076172 L 102.24289 -61.076172 L 107.42453 -61.076172 C 111.84253 -61.076172 114.54758 -58.18406 114.54758 -54.201172 L 114.54758 -17.255859 C 114.54758 -13.272871 111.84253 -10.380859 107.42453 -10.380859 L 92.514375 -10.380859 L 92.514375 -2.9941406 L 108.46945 -2.9941406 C 116.59742 -2.9941406 122.28781 -8.5586658 122.28781 -16.033203 L 122.28781 -55.423828 C 122.28781 -62.950107 116.59742 -68.462891 108.46945 -68.462891 L 102.24289 -68.462891 L 92.514375 -68.462891 L 26.289766 -68.462891 z"/>
    </g>
    <g id="Light-M" transform="matrix(1 0 0 1 1087.19 1126)">
      <path d="m 65.927187,-16.603516 c 1.655299,0 3.019532,1.329918 3.019532,2.916016 V 3.921875 L 68.685,12.996094 75.063906,6.4570312 81.030703,0.43359375 c 0.561,-0.56100344 1.323782,-0.86523438 2.113281,-0.86523438 1.613799,0 2.769532,1.09330487 2.769532,2.70703123 0,0.9348291 -0.463623,1.6559594 -1.169922,2.2929688 L 68.116641,20.414062 c -0.7412,0.6996 -1.365254,1.023438 -2.189454,1.023438 -0.789599,0 -1.357697,-0.296238 -2.154296,-1.023438 L 47.173281,4.5683594 C 46.466982,3.93135 46.003359,3.2102197 46.003359,2.2753906 c 0,-1.61372636 1.16329,-2.70703123 2.804688,-2.70703123 0.761899,0 1.489782,0.30423094 2.050781,0.86523438 L 56.825625,6.4570312 63.206484,12.996094 62.942812,3.921875 V -13.6875 c 10e-7,-1.586098 1.391277,-2.916016 2.984375,-2.916016 z"/>
      <path d="M 25.981875 -67.847656 C 18.082599 -67.847656 12.460391 -62.489426 12.460391 -55.185547 L 12.460391 -16.375 C 12.460391 -9.1058119 18.082599 -3.7128906 25.981875 -3.7128906 L 41.233828 -3.7128906 L 41.233828 -9.4394531 L 26.571719 -9.4394531 C 21.657434 -9.4394531 18.431094 -12.775534 18.431094 -17.357422 L 18.431094 -54.201172 C 18.431094 -58.782957 21.657434 -62.119141 26.571719 -62.119141 L 90.685 -62.119141 L 91.233828 -62.119141 L 105.31977 -62.119141 C 110.23474 -62.119141 113.48578 -58.782957 113.48578 -54.201172 L 113.48578 -17.357422 C 113.48578 -12.775534 110.23474 -9.4394531 105.31977 -9.4394531 L 90.685 -9.4394531 L 90.685 -3.7128906 L 105.93695 -3.7128906 C 113.80895 -3.7128906 119.42914 -9.1058119 119.42914 -16.375 L 119.42914 -55.185547 C 119.42914 -62.489426 113.80895 -67.847656 105.93695 -67.847656 L 91.233828 -67.847656 L 90.685 -67.847656 L 25.981875 -67.847656 z"/>
    </g>
    <g id="Thin-M" transform="matrix(1 0 0 1 792.367 1126)">
      <path d="m 64.049016,-16.988281 c 1.021699,0 1.820312,0.787457 1.820312,1.785156 V 4.375 l -0.171875,10.226563 9.251953,-9.3886724 5.449219,-5.5488281 c 0.3573,-0.35732764 0.823897,-0.50390625 1.341797,-0.50390625 1.047999,0 1.775391,0.66493267 1.775391,1.71289063 -10e-7,0.73116022 -0.486142,1.22499492 -1.056641,1.77148442 L 65.377141,19.373047 c -0.3791,0.405399 -0.798126,0.640625 -1.328125,0.640625 -0.5179,0 -0.836707,-0.184926 -1.316407,-0.640625 L 45.703313,2.6445313 c -0.5705,-0.5464895 -1.058594,-1.0403242 -1.058594,-1.77148442 0,-1.04795796 0.68881,-1.71289063 1.787109,-1.71289063 0.4677,0 0.92395,0.14657861 1.28125,0.50390625 L 53.160344,5.2128906 62.41425,14.601563 62.240422,4.375 v -19.578125 c 0,-0.997699 0.849295,-1.785156 1.808594,-1.785156 z"/>
      <path d="M 25.574406 -67.033203 C 17.99203 -67.033203 12.461125 -61.876766 12.461125 -54.867188 L 12.461125 -16.828125 C 12.461125 -9.830516 17.99203 -4.6621094 25.574406 -4.6621094 L 39.898625 -4.6621094 L 39.898625 -8.1953125 L 25.574406 -8.1953125 C 20.003824 -8.1953125 16.078313 -12.120256 16.078313 -17.494141 L 16.078313 -54.201172 C 16.078313 -59.575057 20.003824 -63.5 25.574406 -63.5 L 88.261906 -63.5 L 89.898625 -63.5 L 102.53534 -63.5 C 108.10534 -63.5 112.08222 -59.575057 112.08222 -54.201172 L 112.08222 -17.494141 C 112.08222 -12.120256 108.10534 -8.1953125 102.53534 -8.1953125 L 88.261906 -8.1953125 L 88.261906 -4.6621094 L 102.58613 -4.6621094 C 110.1181 -4.6621094 115.65058 -9.830516 115.65058 -16.828125 L 115.65058 -54.867188 C 115.65058 -61.876766 110.1181 -67.033203 102.58613 -67.033203 L 89.898625 -67.033203 L 88.261906 -67.033203 L 25.574406 -67.033203 z"/>
    </g>
    <g id="Ultralight-M" transform="matrix(1 0 0 1 496.624 1126)">
      <path d="m 63.086937,-17.185547 c 0.6971,0 1.207032,0.508779 1.207032,1.205078 V 4.6054687 L 64.167016,15.425781 74.891625,4.5761719 80.073266,-0.73046875 c 0.252999,-0.25300675 0.570319,-0.31640625 0.949218,-0.31640625 0.7582,0 1.263672,0.44299563 1.263672,1.20117187 0,0.62683338 -0.497047,1.00573993 -0.998047,1.50585933 l -17.3125,17.1796878 c -0.193599,0.254699 -0.509372,0.443359 -0.888672,0.443359 -0.378899,0 -0.569219,-0.12676 -0.886718,-0.443359 L 44.948266,1.6601562 c -0.5009,-0.5001194 -0.998047,-0.87902595 -0.998047,-1.50585933 0,-0.75817624 0.445526,-1.20117187 1.265625,-1.20117187 0.316999,0 0.633719,0.0633995 0.886718,0.31640625 L 51.28225,4.5761719 62.008812,15.425781 61.881859,4.6054687 V -15.980469 c 0,-0.696299 0.570179,-1.205078 1.205078,-1.205078 z"/>
      <path d="M 25.366234 -66.615234 C 17.946058 -66.615234 12.459984 -61.564057 12.459984 -54.705078 L 12.459984 -17.058594 C 12.459984 -10.200015 17.946058 -5.1503906 25.366234 -5.1503906 L 39.213891 -5.1503906 L 39.213891 -7.5585938 L 25.065453 -7.5585938 C 19.158771 -7.5585938 14.872094 -11.784871 14.872094 -17.564453 L 14.872094 -54.201172 C 14.872094 -59.980754 19.158771 -64.207031 25.065453 -64.207031 L 87.022484 -64.207031 L 89.213891 -64.207031 L 101.11037 -64.207031 C 107.01737 -64.207031 111.36428 -59.980754 111.36428 -54.201172 L 111.36428 -17.564453 C 111.36428 -11.784871 107.01737 -7.5585938 101.11037 -7.5585938 L 87.022484 -7.5585938 L 87.022484 -5.1503906 L 100.87014 -5.1503906 C 108.22911 -5.1503906 113.71389 -10.200015 113.71389 -17.058594 L 113.71389 -54.705078 C 113.71389 -61.564057 108.22911 -66.615234 100.87014 -66.615234 L 89.213891 -66.615234 L 87.022484 -66.615234 L 25.366234 -66.615234 z"/>
    </g>
    <g id="Black-S" transform="matrix(1 0 0 1 2874.95 696)">
      <path d="m 58.446484,-19.677734 c -3.124996,0 -5.224609,2.148468 -5.224609,5.322265 v 9.1308596 L 53.710156,0.78125 52.342969,-1.6601562 49.559766,-5.3222656 c -0.5859,-0.7812492 -1.80663,-1.4160156 -3.173828,-1.4160156 -2.587898,0 -4.736329,2.0996107 -4.736329,4.7363281 0,1.1718708 0.390589,2.1972629 1.367188,3.125 L 54.686719,12.304688 c 1.122999,1.074198 2.294867,1.708984 3.759765,1.708984 1.464799,0 2.636695,-0.585986 3.808594,-1.708984 L 73.925,1.1230469 c 0.927699,-0.9277371 1.318359,-1.9531292 1.318359,-3.125 0,-2.6367174 -2.09963,-4.7363281 -4.736328,-4.7363281 -1.318298,0 -2.587928,0.6347664 -3.173828,1.4160156 l -2.734375,3.6132812 -1.416015,2.4902344 0.488281,-6.0058594 v -9.1308596 c 0,-3.173797 -2.099613,-5.322265 -5.22461,-5.322265 z"/>
      <path d="M 23.973828 -63.232422 C 15.038355 -63.232422 9.7648437 -58.349532 9.7648438 -50.097656 L 9.7648438 -21.435547 C 9.7648438 -13.183671 15.038355 -8.3007812 23.973828 -8.3007812 L 37.401563 -8.3007812 L 37.401563 -19.042969 L 27.05 -19.042969 C 24.266809 -19.042969 22.460156 -20.752037 22.460156 -23.486328 L 22.460156 -48.046875 C 22.460156 -50.781166 24.266809 -52.490234 27.05 -52.490234 L 79.491406 -52.490234 L 87.401563 -52.490234 L 89.842969 -52.490234 C 92.62616 -52.490234 94.432812 -50.781166 94.432813 -48.046875 L 94.432813 -23.486328 C 94.432813 -20.752037 92.62616 -19.042969 89.842969 -19.042969 L 79.491406 -19.042969 L 79.491406 -8.3007812 L 92.919141 -8.3007812 C 101.85421 -8.3007812 107.12813 -13.183671 107.12813 -21.435547 L 107.12813 -50.097656 C 107.12813 -58.349532 101.85421 -63.232422 92.919141 -63.232422 L 87.401563 -63.232422 L 79.491406 -63.232422 L 23.973828 -63.232422 z"/>
    </g>
    <g id="Heavy-S" transform="matrix(1 0 0 1 2579.41 696)">
      <path d="m 57.271641,-19.816406 c -2.825398,0 -4.810547,2.010131 -4.810547,4.861328 v 9.7890624 l 0.443359,6.00585935 -1.574219,-2.43164065 -3.347656,-4.0195312 c -0.597499,-0.7466693 -1.726617,-1.3222656 -2.978515,-1.3222656 -2.403498,0 -4.367188,1.9029524 -4.367188,4.3437499 0,1.1142489 0.377657,2.0826254 1.285156,2.92968755 L 53.810703,11.613281 c 1.076999,1.016599 2.134339,1.582032 3.460938,1.582032 1.337998,0 2.395566,-0.528133 3.509765,-1.582032 L 72.670078,0.33984375 c 0.870099,-0.84706215 1.248047,-1.81543865 1.248047,-2.92968755 0,-2.4407975 -1.914671,-4.34375 -4.355469,-4.3437499 -1.214599,0 -2.390882,0.5755963 -2.988281,1.3222656 l -3.3125,3.9824219 -1.611328,2.46874995 0.443359,-6.00585935 v -9.7890624 c 0,-2.851197 -1.985368,-4.861328 -4.822265,-4.861328 z"/>
      <path d="M 23.213047 -62.839844 C 14.853771 -62.839844 9.7657813 -58.073341 9.7657813 -50.351562 L 9.7657813 -21.101562 C 9.7657813 -13.391286 14.853771 -8.6113281 23.213047 -8.6113281 L 36.504063 -8.6113281 L 36.504063 -18.375 L 25.806797 -18.375 C 22.919906 -18.375 21.101719 -20.164484 21.101719 -22.921875 L 21.101719 -48.53125 C 21.101719 -51.288641 22.919906 -53.078125 25.806797 -53.078125 L 78.050938 -53.078125 L 86.504063 -53.078125 L 88.748203 -53.078125 C 91.635094 -53.078125 93.453281 -51.288641 93.453281 -48.53125 L 93.453281 -22.921875 C 93.453281 -20.164484 91.635094 -18.375 88.748203 -18.375 L 78.050938 -18.375 L 78.050938 -8.6113281 L 91.341953 -8.6113281 C 99.701229 -8.6113281 104.78922 -13.391286 104.78922 -21.101562 L 104.78922 -50.351562 C 104.78922 -58.073341 99.701229 -62.839844 91.341953 -62.839844 L 86.504063 -62.839844 L 78.050938 -62.839844 L 23.213047 -62.839844 z"/>
    </g>
    <g id="Bold-S" transform="matrix(1 0 0 1 2284.01 696)">
      <path d="m 55.956797,-19.970703 c -2.490198,0 -4.345703,1.855505 -4.345703,4.345703 v 10.5214844 l 0.390625,6.00585935 -1.806641,-2.41601565 -3.978516,-4.4199218 c -0.610299,-0.7079993 -1.636666,-1.21875 -2.759765,-1.21875 -2.197198,0 -3.955078,1.6845722 -3.955078,3.9062499 0,1.049799 0.367266,1.9521442 1.197265,2.70898443 L 52.831797,10.839844 c 1.025399,0.952199 1.953201,1.441406 3.125,1.441406 1.196299,0 2.124029,-0.464807 3.173828,-1.441406 L 71.265391,-0.53710937 c 0.805699,-0.75684023 1.171875,-1.65918543 1.171875,-2.70898443 0,-2.2216777 -1.710043,-3.9062499 -3.931641,-3.9062499 -1.098699,0 -2.172904,0.5107507 -2.783203,1.21875 l -3.955078,4.3945312 -1.830078,2.44140625 0.390625,-6.00585935 V -15.625 c 0,-2.490198 -1.856397,-4.345703 -4.371094,-4.345703 z"/>
      <path d="M 22.363047 -62.402344 C 14.648171 -62.402344 9.7653906 -57.763642 9.7653906 -50.634766 L 9.7653906 -20.726562 C 9.7653906 -13.622086 14.648171 -8.9589844 22.363047 -8.9589844 L 35.497812 -8.9589844 L 35.497812 -17.626953 L 24.413828 -17.626953 C 21.410837 -17.626953 19.579844 -19.505871 19.579844 -22.289062 L 19.579844 -49.072266 C 19.579844 -51.855457 21.410837 -53.736328 24.413828 -53.736328 L 76.441172 -53.736328 L 85.497812 -53.736328 L 87.525156 -53.736328 C 90.528047 -53.736328 92.359141 -51.855457 92.359141 -49.072266 L 92.359141 -22.289062 C 92.359141 -19.505871 90.528047 -17.626953 87.525156 -17.626953 L 76.441172 -17.626953 L 76.441172 -8.9589844 L 89.575937 -8.9589844 C 97.290716 -8.9589844 102.17359 -13.622086 102.17359 -20.726562 L 102.17359 -50.634766 C 102.17359 -57.763642 97.290716 -62.402344 89.575937 -62.402344 L 85.497812 -62.402344 L 76.441172 -62.402344 L 22.363047 -62.402344 z"/>
    </g>
    <g id="Semibold-S" transform="matrix(1 0 0 1 1988.2 696)">
      <path d="m 55.05,-20.078125 c -2.259198,0 -4.025391,1.748837 -4.025391,3.990234 v 11.0292973 l 0.355469,6.00585933 -1.966797,-2.40820313 -4.414062,-4.6933594 c -0.6192,-0.6813393 -1.575176,-1.1503906 -2.609375,-1.1503906 -2.055098,0 -3.669922,1.5329077 -3.669922,3.6035156 0,1.005369 0.357966,1.8659176 1.134765,2.5605469 l 12.302735,11.447266 c 0.989899,0.907799 1.827379,1.341797 2.892578,1.341797 1.098499,0 1.93796,-0.418498 2.943359,-1.341797 L 70.296094,-1.140625 c 0.761199,-0.6946293 1.11914,-1.5551779 1.11914,-2.5605469 0,-2.0706079 -1.567974,-3.6035156 -3.638672,-3.6035156 -1.018598,0 -2.021325,0.4690513 -2.640625,1.1503906 L 60.7375,-1.4765625 58.755078,0.94726563 59.110547,-5.0585937 V -16.087891 c 0,-2.241397 -1.768049,-3.990234 -4.060547,-3.990234 z"/>
      <path d="M 21.776562 -62.099609 C 14.505986 -62.099564 9.7648438 -57.550157 9.7648437 -50.830078 L 9.7648437 -20.470703 C 9.7648437 -13.783924 14.505986 -9.1992187 21.776562 -9.1992188 L 34.805859 -9.1992188 L 34.805859 -17.111328 L 23.454297 -17.111328 C 20.371406 -17.111328 18.530469 -19.054478 18.530469 -21.855469 L 18.530469 -49.445312 C 18.530469 -52.246306 20.371406 -54.189453 23.454297 -54.189453 L 75.329297 -54.189453 L 84.805859 -54.189453 L 86.680859 -54.189453 C 89.76375 -54.189453 91.602734 -52.246306 91.602734 -49.445312 L 91.602734 -21.855469 C 91.602734 -19.054478 89.76375 -17.111328 86.680859 -17.111328 L 75.329297 -17.111328 L 75.329297 -9.1992188 L 88.358594 -9.1992188 C 95.62907 -9.1992188 100.36836 -13.783924 100.36836 -20.470703 L 100.36836 -50.830078 C 100.36836 -57.550157 95.62907 -62.099609 88.358594 -62.099609 L 84.805859 -62.099609 L 75.329297 -62.099609 L 21.776562 -62.099609 z"/>
    </g>
    <g id="Medium-S" transform="matrix(1 0 0 1 1692.17 696)">
      <path d="m 54.363203,-20.158203 c -2.083998,0 -3.783203,1.668005 -3.783203,3.720703 v 11.4140625 l 0.328125,6.00390625 -2.087891,-2.40039065 -4.74414,-4.9023437 c -0.626,-0.6611394 -1.527342,-1.0976563 -2.494141,-1.0976563 -1.947198,0 -3.455078,1.418952 -3.455078,3.375 0,0.9716791 0.351491,1.7978532 1.087891,2.4453125 L 51.644453,9.9023438 c 0.962899,0.8740592 1.734351,1.2695312 2.71875,1.2695312 1.024399,0 1.795879,-0.386672 2.767578,-1.2695312 L 69.562422,-1.5996094 c 0.727599,-0.6474593 1.078125,-1.4736334 1.078125,-2.4453125 0,-1.956048 -1.459918,-3.375 -3.416016,-3.375 -0.957999,0 -1.907204,0.4365169 -2.533203,1.0976563 L 59.955,-1.4277344 57.859297,0.98046875 58.187422,-5.0234375 V -16.4375 c 0,-2.052698 -1.700221,-3.720703 -3.824219,-3.720703 z"/>
      <path d="M 21.331953 -61.871094 C 14.398374 -61.871094 9.7655469 -57.388695 9.7655469 -50.978516 L 9.7655469 -20.273438 C 9.7655469 -13.903358 14.398374 -9.3828125 21.331953 -9.3828125 L 34.279219 -9.3828125 L 34.279219 -16.720703 L 22.726484 -16.720703 C 19.582896 -16.720703 17.73625 -18.709046 17.73625 -21.523438 L 17.73625 -49.728516 C 17.73625 -52.543007 19.582896 -54.53125 22.726484 -54.53125 L 74.488203 -54.53125 L 84.279219 -54.53125 L 86.040937 -54.53125 C 89.184528 -54.53125 91.031172 -52.543007 91.031172 -49.728516 L 91.031172 -21.523438 C 91.031172 -18.709046 89.184528 -16.720703 86.040937 -16.720703 L 74.488203 -16.720703 L 74.488203 -9.3828125 L 87.435469 -9.3828125 C 94.369048 -9.3828125 99.001875 -13.903358 99.001875 -20.273438 L 99.001875 -50.978516 C 99.001875 -57.388695 94.369048 -61.871094 87.435469 -61.871094 L 84.279219 -61.871094 L 74.488203 -61.871094 L 21.331953 -61.871094 z"/>
    </g>
    <g id="Regular-S" transform="matrix(1 0 0 1 1396.35 696)">
      <path d="m 53.466406,-20.263672 c 1.904298,0 3.515625,1.562443 3.515625,3.369141 v 11.9140623 l -0.292968,6.0058593 2.246093,-2.3925781 5.175782,-5.1757812 c 0.634799,-0.6347594 1.513679,-1.0253907 2.392578,-1.0253907 1.806598,0 3.125,1.2695337 3.125,3.0761719 0,0.9277391 -0.341792,1.7089925 -1.025391,2.2949219 L 56.005469,9.375 c -0.927799,0.830099 -1.611364,1.171875 -2.539063,1.171875 -0.878899,0 -1.562535,-0.341776 -2.490234,-1.171875 L 38.378516,-2.1972656 c -0.6836,-0.5859294 -1.025391,-1.3671828 -1.025391,-2.2949219 0,-1.8066382 1.36723,-3.0761719 3.173828,-3.0761719 0.878899,0 1.708951,0.3906313 2.34375,1.0253907 l 5.175781,5.1757812 2.246094,2.3925781 -0.292969,-6.0058593 V -16.894531 c 0,-1.806698 1.611299,-3.369141 3.466797,-3.369141 z"/>
      <path d="M 20.751563 -61.572266 C 14.257381 -61.572266 9.7652344 -57.177657 9.7652344 -51.171875 L 9.7652344 -20.019531 C 9.7652344 -14.062549 14.257381 -9.6191406 20.751563 -9.6191406 L 33.593359 -9.6191406 L 33.593359 -16.210938 L 21.776953 -16.210938 C 18.554362 -16.210938 16.698828 -18.261659 16.698828 -21.09375 L 16.698828 -50.097656 C 16.698828 -52.929647 18.554362 -54.980469 21.776953 -54.980469 L 73.388281 -54.980469 L 83.593359 -54.980469 L 85.204688 -54.980469 C 88.427276 -54.980469 90.282813 -52.929647 90.282813 -50.097656 L 90.282813 -21.09375 C 90.282813 -18.261659 88.427276 -16.210938 85.204688 -16.210938 L 73.388281 -16.210938 L 73.388281 -9.6191406 L 86.230078 -9.6191406 C 92.72416 -9.6191406 97.216406 -14.062549 97.216406 -20.019531 L 97.216406 -51.171875 C 97.216406 -57.177657 92.72416 -61.572266 86.230078 -61.572266 L 83.593359 -61.572266 L 73.388281 -61.572266 L 20.751563 -61.572266 z"/>
    </g>
    <g id="Light-S" transform="matrix(1 0 0 1 1100.91 696)">
      <path d="m 52.211094,-20.521484 c 1.480398,0 2.71289,1.200182 2.71289,2.613281 v 13.2304686 l -0.232422,6.7773438 4.167969,-4.2988282 4.828125,-4.8574218 c 0.4985,-0.4985395 1.179754,-0.7832031 1.876953,-0.7832031 1.428299,0 2.458985,0.9819376 2.458985,2.4101562 0,0.7915092 -0.35642,1.419923 -0.949219,1.9453125 L 54.173984,8.6796875 C 53.488485,9.3129869 52.941993,9.59375 52.211094,9.59375 c -0.6973,0 -1.215842,-0.2656231 -1.931641,-0.9140625 L 37.394687,-3.484375 c -0.592699,-0.5253895 -0.949218,-1.1538033 -0.949218,-1.9453125 0,-1.4282186 1.048789,-2.4101562 2.492187,-2.4101562 0.6821,0 1.331579,0.2846636 1.830078,0.7832031 l 4.826172,4.8574218 4.169922,4.2988282 -0.232422,-6.7773438 V -17.908203 c 0,-1.413099 1.247989,-2.613281 2.679688,-2.613281 z"/>
      <path d="M 20.478672 -61.027344 C 14.19649 -61.027344 9.7657812 -56.769922 9.7657812 -50.960938 L 9.7657812 -20.322266 C 9.7657812 -14.546881 14.19649 -10.255859 20.478672 -10.255859 L 32.701328 -10.255859 L 32.701328 -15.378906 L 21.111484 -15.378906 C 17.449896 -15.378906 15.125156 -17.823756 15.125156 -21.185547 L 15.125156 -50.097656 C 15.125156 -53.459447 17.449896 -55.904297 21.111484 -55.904297 L 71.769687 -55.904297 L 72.701328 -55.904297 L 83.343906 -55.904297 C 87.005497 -55.904297 89.343906 -53.459447 89.343906 -50.097656 L 89.343906 -21.185547 C 89.343906 -17.823756 87.005497 -15.378906 83.343906 -15.378906 L 71.769687 -15.378906 L 71.769687 -10.255859 L 83.990391 -10.255859 C 90.25737 -10.255859 94.689609 -14.546881 94.689609 -20.322266 L 94.689609 -50.960938 C 94.689609 -56.769922 90.25737 -61.027344 83.990391 -61.027344 L 72.701328 -61.027344 L 71.769687 -61.027344 L 20.478672 -61.027344 z"/>
    </g>
    <g id="Thin-S" transform="matrix(1 0 0 1 805.867 696)">
      <path d="m 50.549016,-20.861328 c 0.919899,0 1.652343,0.718729 1.652343,1.611328 v 14.9726563 l -0.152343,7.7988281 6.710937,-6.8222657 4.367188,-4.4374999 c 0.318299,-0.3183597 0.740266,-0.4628907 1.197265,-0.4628907 0.927799,0 1.578125,0.6015578 1.578125,1.5292969 0,0.6113294 -0.37701,1.0410086 -0.849609,1.4863281 L 51.752141,7.7578125 c -0.3653,0.3730496 -0.732426,0.5742188 -1.203125,0.5742188 -0.4571,0 -0.753954,-0.1660192 -1.189453,-0.5742188 L 36.093938,-5.1855469 c -0.4727,-0.4453195 -0.84961,-0.8749987 -0.84961,-1.4863281 0,-0.9277391 0.628898,-1.5292969 1.591797,-1.5292969 0.4218,0 0.830138,0.144531 1.148438,0.4628907 l 4.367187,4.4374999 6.710938,6.8222657 -0.152344,-7.7988281 V -19.25 c 0,-0.892599 0.767472,-1.611328 1.638672,-1.611328 z"/>
      <path d="M 20.119328 -60.306641 C 14.117446 -60.306641 9.7658125 -56.228472 9.7658125 -50.679688 L 9.7658125 -20.722656 C 9.7658125 -15.187474 14.117446 -11.095703 20.119328 -11.095703 L 31.519719 -11.095703 L 31.519719 -14.277344 L 20.230656 -14.277344 C 15.988468 -14.277344 13.043156 -17.242202 13.043156 -21.304688 L 13.043156 -50.097656 C 13.043156 -54.160044 15.988468 -57.125 20.230656 -57.125 L 69.627141 -57.125 L 71.519719 -57.125 L 80.881047 -57.125 C 85.123235 -57.125 88.103703 -54.160044 88.103703 -50.097656 L 88.103703 -21.304688 C 88.103703 -17.242202 85.123235 -14.277344 80.881047 -14.277344 L 69.627141 -14.277344 L 69.627141 -11.095703 L 81.027531 -11.095703 C 86.994313 -11.095703 91.345891 -15.187474 91.345891 -20.722656 L 91.345891 -50.679688 C 91.345891 -56.228472 86.994313 -60.306641 81.027531 -60.306641 L 71.519719 -60.306641 L 69.627141 -60.306641 L 20.119328 -60.306641 z"/>
    </g>
    <g id="Ultralight-S" transform="matrix(1 0 0 1 510.012 696)">
      <path d="m 49.696984,-21.035156 c 0.6328,0 1.109375,0.471657 1.109375,1.097656 V -4.0722656 L 50.695031,4.25 l 8.013672,-8.1152344 4.130859,-4.2207031 c 0.226,-0.2260798 0.51561,-0.2988281 0.84961,-0.2988281 0.671399,0 1.126953,0.4067356 1.126953,1.078125 0,0.5190495 -0.387629,0.8457004 -0.798828,1.25 l -13.50586,13.34375 c -0.201199,0.2397497 -0.477053,0.3984375 -0.814453,0.3984375 -0.333999,0 -0.516594,-0.1132778 -0.808593,-0.3984375 l -13.460938,-13.34375 c -0.411199,-0.4042996 -0.798828,-0.7309505 -0.798828,-1.25 0,-0.6713894 0.41406,-1.078125 1.130859,-1.078125 0.2886,0 0.572829,0.072748 0.798828,0.2988281 L 40.691125,-3.8652344 48.702844,4.25 48.591516,-4.0722656 V -19.9375 c 0,-0.625999 0.521469,-1.097656 1.105468,-1.097656 z"/>
      <path d="M 19.935266 -59.9375 C 14.076881 -59.9375 9.7653435 -55.950741 9.7653437 -50.535156 L 9.7653437 -20.927734 C 9.7653437 -15.515652 14.076881 -11.527344 19.935266 -11.527344 L 30.913781 -11.527344 L 30.913781 -13.712891 L 19.779016 -13.712891 C 15.239528 -13.712891 11.976281 -16.943849 11.976281 -21.365234 L 11.976281 -50.097656 C 11.976281 -54.518944 15.239528 -57.75 19.779016 -57.75 L 68.513391 -57.75 L 68.529016 -57.763672 L 68.529016 -57.75 L 79.618859 -57.75 C 84.158347 -57.75 87.468469 -54.518944 87.468469 -50.097656 L 87.468469 -21.365234 C 87.468469 -16.943849 84.158347 -13.712891 79.618859 -13.712891 L 68.529016 -13.712891 L 68.529016 -11.527344 L 79.509484 -11.527344 C 85.322469 -11.527344 89.632531 -15.515652 89.632531 -20.927734 L 89.632531 -50.535156 C 89.632531 -55.950741 85.322469 -59.9375 79.509484 -59.9375 L 70.913781 -59.9375 L 68.529016 -59.9375 L 19.935266 -59.9375 z"/>
    </g>
  </g>
</svg>
