<?xml version="1.0" encoding="UTF-8"?>
<!--Generator: Apple Native CoreSVG 232.5-->
<!DOCTYPE svg
PUBLIC "-//W3C//DTD SVG 1.1//EN"
       "http://www.w3.org/Graphics/SVG/1.1/DTD/svg11.dtd">
<svg version="1.1" xmlns="http://www.w3.org/2000/svg" xmlns:xlink="http://www.w3.org/1999/xlink" width="3300" height="2200">
 <g id="Notes">
  <rect height="2200" id="artboard" style="fill:white;opacity:1" width="3300" x="0" y="0"/>
  <line style="fill:none;stroke:black;opacity:1;stroke-width:0.5;" x1="263" x2="3036" y1="292" y2="292"/>
  <text style="stroke:none;fill:black;font-family:sans-serif;font-size:13;font-weight:bold;" transform="matrix(1 0 0 1 263 322)">Weight/Scale Variations</text>
  <text style="stroke:none;fill:black;font-family:sans-serif;font-size:13;text-anchor:middle;" transform="matrix(1 0 0 1 559.711 322)">Ultralight</text>
  <text style="stroke:none;fill:black;font-family:sans-serif;font-size:13;text-anchor:middle;" transform="matrix(1 0 0 1 856.422 322)">Thin</text>
  <text style="stroke:none;fill:black;font-family:sans-serif;font-size:13;text-anchor:middle;" transform="matrix(1 0 0 1 1153.13 322)">Light</text>
  <text style="stroke:none;fill:black;font-family:sans-serif;font-size:13;text-anchor:middle;" transform="matrix(1 0 0 1 1449.84 322)">Regular</text>
  <text style="stroke:none;fill:black;font-family:sans-serif;font-size:13;text-anchor:middle;" transform="matrix(1 0 0 1 1746.56 322)">Medium</text>
  <text style="stroke:none;fill:black;font-family:sans-serif;font-size:13;text-anchor:middle;" transform="matrix(1 0 0 1 2043.27 322)">Semibold</text>
  <text style="stroke:none;fill:black;font-family:sans-serif;font-size:13;text-anchor:middle;" transform="matrix(1 0 0 1 2339.98 322)">Bold</text>
  <text style="stroke:none;fill:black;font-family:sans-serif;font-size:13;text-anchor:middle;" transform="matrix(1 0 0 1 2636.69 322)">Heavy</text>
  <text style="stroke:none;fill:black;font-family:sans-serif;font-size:13;text-anchor:middle;" transform="matrix(1 0 0 1 2933.4 322)">Black</text>
  <line style="fill:none;stroke:black;opacity:1;stroke-width:0.5;" x1="263" x2="3036" y1="1903" y2="1903"/>
  <g transform="matrix(0.2 0 0 0.2 263 1933)">
   <path d="m46.2402 4.15039c21.5332 0 39.4531-17.8711 39.4531-39.4043s-17.9688-39.4043-39.502-39.4043c-21.4844 0-39.3555 17.8711-39.3555 39.4043s17.9199 39.4043 39.4043 39.4043Zm0-7.42188c-17.7246 0-31.8848-14.209-31.8848-31.9824s14.1113-31.9824 31.8359-31.9824c17.7734 0 32.0312 14.209 32.0312 31.9824s-14.209 31.9824-31.9824 31.9824Zm-17.9688-31.9824c0 2.14844 1.51367 3.61328 3.75977 3.61328h10.498v10.5957c0 2.19727 1.46484 3.71094 3.61328 3.71094 2.24609 0 3.71094-1.51367 3.71094-3.71094v-10.5957h10.5957c2.19727 0 3.71094-1.46484 3.71094-3.61328 0-2.19727-1.51367-3.71094-3.71094-3.71094h-10.5957v-10.5469c0-2.24609-1.46484-3.75977-3.71094-3.75977-2.14844 0-3.61328 1.51367-3.61328 3.75977v10.5469h-10.498c-2.24609 0-3.75977 1.51367-3.75977 3.71094Z"/>
  </g>
  <g transform="matrix(0.2 0 0 0.2 281.506 1933)">
   <path d="m58.5449 14.5508c27.2461 0 49.8047-22.6074 49.8047-49.8047 0-27.2461-22.6074-49.8047-49.8535-49.8047-27.1973 0-49.7559 22.5586-49.7559 49.8047 0 27.1973 22.6074 49.8047 49.8047 49.8047Zm0-8.30078c-23.0469 0-41.4551-18.457-41.4551-41.5039s18.3594-41.5039 41.4062-41.5039 41.5527 18.457 41.5527 41.5039-18.457 41.5039-41.5039 41.5039Zm-22.6562-41.5039c0 2.39258 1.66016 4.00391 4.15039 4.00391h14.3555v14.4043c0 2.44141 1.66016 4.15039 4.05273 4.15039 2.44141 0 4.15039-1.66016 4.15039-4.15039v-14.4043h14.4043c2.44141 0 4.15039-1.61133 4.15039-4.00391 0-2.44141-1.70898-4.15039-4.15039-4.15039h-14.4043v-14.3555c0-2.49023-1.70898-4.19922-4.15039-4.19922-2.39258 0-4.05273 1.70898-4.05273 4.19922v14.3555h-14.3555c-2.49023 0-4.15039 1.70898-4.15039 4.15039Z"/>
  </g>
  <g transform="matrix(0.2 0 0 0.2 304.924 1933)">
   <path d="m74.8535 28.3203c34.8145 0 63.623-28.8086 63.623-63.5742 0-34.8145-28.8574-63.623-63.6719-63.623-34.7656 0-63.5254 28.8086-63.5254 63.623 0 34.7656 28.8086 63.5742 63.5742 63.5742Zm0-9.08203c-30.1758 0-54.4434-24.3164-54.4434-54.4922 0-30.2246 24.2188-54.4922 54.3945-54.4922 30.2246 0 54.541 24.2676 54.541 54.4922 0 30.1758-24.2676 54.4922-54.4922 54.4922Zm-28.8574-54.4922c0 2.58789 1.85547 4.39453 4.58984 4.39453h19.7266v19.7754c0 2.68555 1.85547 4.58984 4.44336 4.58984 2.68555 0 4.54102-1.85547 4.54102-4.58984v-19.7754h19.7754c2.68555 0 4.58984-1.80664 4.58984-4.39453 0-2.73438-1.85547-4.58984-4.58984-4.58984h-19.7754v-19.7266c0-2.73438-1.85547-4.63867-4.54102-4.63867-2.58789 0-4.44336 1.9043-4.44336 4.63867v19.7266h-19.7266c-2.73438 0-4.58984 1.85547-4.58984 4.58984Z"/>
  </g>
  <text style="stroke:none;fill:black;font-family:sans-serif;font-size:13;font-weight:bold;" transform="matrix(1 0 0 1 263 1953)">Design Variations</text>
  <text style="stroke:none;fill:black;font-family:sans-serif;font-size:13;" transform="matrix(1 0 0 1 263 1971)">Symbols are supported in up to nine weights and three scales.</text>
  <text style="stroke:none;fill:black;font-family:sans-serif;font-size:13;" transform="matrix(1 0 0 1 263 1989)">For optimal layout with text and other symbols, vertically align</text>
  <text style="stroke:none;fill:black;font-family:sans-serif;font-size:13;" transform="matrix(1 0 0 1 263 2007)">symbols with the adjacent text.</text>
  <line style="fill:none;stroke:#00AEEF;stroke-width:0.5;opacity:1.0;" x1="776" x2="776" y1="1919" y2="1933"/>
  <g transform="matrix(0.2 0 0 0.2 776 1933)">
   <path d="m16.5527 0.78125c2.58789 0 3.85742-0.976562 4.78516-3.71094l6.29883-17.2363h28.8086l6.29883 17.2363c0.927734 2.73438 2.19727 3.71094 4.73633 3.71094 2.58789 0 4.24805-1.5625 4.24805-4.00391 0-0.830078-0.146484-1.61133-0.537109-2.63672l-22.9004-60.9863c-1.12305-2.97852-3.125-4.49219-6.25-4.49219-3.02734 0-5.07812 1.46484-6.15234 4.44336l-22.9004 61.084c-0.390625 1.02539-0.537109 1.80664-0.537109 2.63672 0 2.44141 1.5625 3.95508 4.10156 3.95508Zm13.4766-28.3691 11.8652-32.8613h0.244141l11.8652 32.8613Z"/>
  </g>
  <line style="fill:none;stroke:#00AEEF;stroke-width:0.5;opacity:1.0;" x1="792.836" x2="792.836" y1="1919" y2="1933"/>
  <text style="stroke:none;fill:black;font-family:sans-serif;font-size:13;font-weight:bold;" transform="matrix(1 0 0 1 776 1953)">Margins</text>
  <text style="stroke:none;fill:black;font-family:sans-serif;font-size:13;" transform="matrix(1 0 0 1 776 1971)">Leading and trailing margins on the left and right side of each symbol</text>
  <text style="stroke:none;fill:black;font-family:sans-serif;font-size:13;" transform="matrix(1 0 0 1 776 1989)">can be adjusted by modifying the x-location of the margin guidelines.</text>
  <text style="stroke:none;fill:black;font-family:sans-serif;font-size:13;" transform="matrix(1 0 0 1 776 2007)">Modifications are automatically applied proportionally to all</text>
  <text style="stroke:none;fill:black;font-family:sans-serif;font-size:13;" transform="matrix(1 0 0 1 776 2025)">scales and weights.</text>
  <g transform="matrix(0.2 0 0 0.2 1289 1933)">
   <path d="m14.209 9.32617 8.49609 8.54492c4.29688 4.3457 9.22852 4.05273 13.8672-1.07422l53.4668-58.9355-4.83398-4.88281-53.0762 58.3984c-1.75781 2.00195-3.41797 2.49023-5.76172 0.146484l-5.85938-5.81055c-2.34375-2.29492-1.80664-4.00391 0.195312-5.81055l57.373-54.0039-4.88281-4.83398-57.959 54.4434c-4.93164 4.58984-5.32227 9.47266-1.02539 13.8184Zm32.0801-90.9668c-2.09961 2.05078-2.24609 4.93164-1.07422 6.88477 1.17188 1.80664 3.4668 2.97852 6.68945 2.14844 7.32422-1.70898 14.9414-2.00195 22.0703 2.68555l-2.92969 7.27539c-1.70898 4.15039-0.830078 7.08008 1.85547 9.81445l11.4746 11.5723c2.44141 2.44141 4.49219 2.53906 7.32422 2.05078l5.32227-0.976562 3.32031 3.36914-0.195312 2.7832c-0.195312 2.49023 0.439453 4.39453 2.88086 6.78711l3.80859 3.71094c2.39258 2.39258 5.46875 2.53906 7.8125 0.195312l14.5508-14.5996c2.34375-2.34375 2.24609-5.32227-0.146484-7.71484l-3.85742-3.80859c-2.39258-2.39258-4.24805-3.17383-6.64062-2.97852l-2.88086 0.244141-3.22266-3.17383 1.2207-5.61523c0.634766-2.83203-0.146484-5.0293-3.07617-7.95898l-10.9863-10.9375c-16.6992-16.6016-38.8672-16.2109-53.3203-1.75781Zm7.4707 1.85547c12.1582-8.88672 28.6133-7.37305 39.7461 3.75977l12.1582 12.0605c1.17188 1.17188 1.36719 2.09961 1.02539 3.80859l-1.61133 7.42188 7.51953 7.42188 4.93164-0.292969c1.26953-0.0488281 1.66016 0.0488281 2.63672 1.02539l2.88086 2.88086-12.207 12.207-2.88086-2.88086c-0.976562-0.976562-1.12305-1.36719-1.07422-2.68555l0.341797-4.88281-7.4707-7.42188-7.61719 1.26953c-1.61133 0.341797-2.34375 0.195312-3.56445-0.976562l-10.0098-10.0098c-1.26953-1.17188-1.41602-2.00195-0.634766-3.85742l4.39453-10.4492c-7.8125-7.27539-17.9688-10.4004-28.125-7.42188-0.78125 0.195312-1.07422-0.439453-0.439453-0.976562Z"/>
  </g>
  <text style="stroke:none;fill:black;font-family:sans-serif;font-size:13;font-weight:bold;" transform="matrix(1 0 0 1 1289 1953)">Exporting</text>
  <text style="stroke:none;fill:black;font-family:sans-serif;font-size:13;" transform="matrix(1 0 0 1 1289 1971)">Symbols should be outlined when exporting to ensure the</text>
  <text style="stroke:none;fill:black;font-family:sans-serif;font-size:13;" transform="matrix(1 0 0 1 1289 1989)">design is preserved when submitting to Xcode.</text>
  <text id="template-version" style="stroke:none;fill:black;font-family:sans-serif;font-size:13;text-anchor:end;" transform="matrix(1 0 0 1 3036 1933)">Template v.2.0</text>
  <text style="stroke:none;fill:black;font-family:sans-serif;font-size:13;text-anchor:end;" transform="matrix(1 0 0 1 3036 1951)">Requires Xcode 12 or greater</text>
  <text id="descriptive-name" style="stroke:none;fill:black;font-family:sans-serif;font-size:13;text-anchor:end;" transform="matrix(1 0 0 1 3036 1969)">Generated from chevron.left.circle</text>
  <text style="stroke:none;fill:black;font-family:sans-serif;font-size:13;text-anchor:end;" transform="matrix(1 0 0 1 3036 1987)">Typeset at 100.0 points</text>
  <text style="stroke:none;fill:black;font-family:sans-serif;font-size:13;" transform="matrix(1 0 0 1 263 726)">Small</text>
  <text style="stroke:none;fill:black;font-family:sans-serif;font-size:13;" transform="matrix(1 0 0 1 263 1156)">Medium</text>
  <text style="stroke:none;fill:black;font-family:sans-serif;font-size:13;" transform="matrix(1 0 0 1 263 1586)">Large</text>
 </g>
 <g id="Guides">
  <g id="H-reference" style="fill:#27AAE1;stroke:none;" transform="matrix(1 0 0 1 339 696)">
   <path d="M0.993654 0L3.63775 0L29.3281-67.1323L30.0303-67.1323L30.0303-70.459L28.1226-70.459ZM11.6885-24.4799L46.9815-24.4799L46.2315-26.7285L12.4385-26.7285ZM55.1196 0L57.7637 0L30.6382-70.459L29.4326-70.459L29.4326-67.1323Z"/>
  </g>
  <line id="Baseline-S" style="fill:none;stroke:#27AAE1;opacity:1;stroke-width:0.5;" x1="263" x2="3036" y1="696" y2="696"/>
  <line id="Capline-S" style="fill:none;stroke:#27AAE1;opacity:1;stroke-width:0.5;" x1="263" x2="3036" y1="625.541" y2="625.541"/>
  <g id="H-reference" style="fill:#27AAE1;stroke:none;" transform="matrix(1 0 0 1 339 1126)">
   <path d="M0.993654 0L3.63775 0L29.3281-67.1323L30.0303-67.1323L30.0303-70.459L28.1226-70.459ZM11.6885-24.4799L46.9815-24.4799L46.2315-26.7285L12.4385-26.7285ZM55.1196 0L57.7637 0L30.6382-70.459L29.4326-70.459L29.4326-67.1323Z"/>
  </g>
  <line id="Baseline-M" style="fill:none;stroke:#27AAE1;opacity:1;stroke-width:0.5;" x1="263" x2="3036" y1="1126" y2="1126"/>
  <line id="Capline-M" style="fill:none;stroke:#27AAE1;opacity:1;stroke-width:0.5;" x1="263" x2="3036" y1="1055.54" y2="1055.54"/>
  <g id="H-reference" style="fill:#27AAE1;stroke:none;" transform="matrix(1 0 0 1 339 1556)">
   <path d="M0.993654 0L3.63775 0L29.3281-67.1323L30.0303-67.1323L30.0303-70.459L28.1226-70.459ZM11.6885-24.4799L46.9815-24.4799L46.2315-26.7285L12.4385-26.7285ZM55.1196 0L57.7637 0L30.6382-70.459L29.4326-70.459L29.4326-67.1323Z"/>
  </g>
  <line id="Baseline-L" style="fill:none;stroke:#27AAE1;opacity:1;stroke-width:0.5;" x1="263" x2="3036" y1="1556" y2="1556"/>
  <line id="Capline-L" style="fill:none;stroke:#27AAE1;opacity:1;stroke-width:0.5;" x1="263" x2="3036" y1="1485.54" y2="1485.54"/>
  <line id="left-margin" style="fill:none;stroke:#00AEEF;stroke-width:0.5;opacity:1.0;" x1="1391.32" x2="1391.32" y1="1030.79" y2="1150.12"/>
  <line id="right-margin" style="fill:none;stroke:#00AEEF;stroke-width:0.5;opacity:1.0;" x1="1508.37" x2="1508.37" y1="1030.79" y2="1150.12"/>
 </g>
 <g id="Symbols">
  <g id="Black-L" transform="matrix(1 0 0 1 2854.19 1556)">
   <path d="M79.1958 32.7257C116.56 32.7257 147.154 2.15259 147.154-35.2113C147.154-72.5752 116.539-103.148 79.175-103.148C41.8307-103.148 11.2588-72.5752 11.2588-35.2113C11.2588 2.15259 41.8515 32.7257 79.1958 32.7257ZM79.1958 12.5782C52.765 12.5782 31.4468-8.75969 31.4468-35.2113C31.4468-61.6629 52.7442-83.0007 79.175-83.0007C105.627-83.0007 126.985-61.6629 126.985-35.2113C126.985-8.75969 105.647 12.5782 79.1958 12.5782ZM92.1738-4.64079C95.217-7.66549 94.9649-12.2546 92.135-14.9456L70.4506-35.1929L92.135-55.3609C95.0441-58.1311 95.0233-62.9175 91.9778-65.6865C89.2856-68.1815 84.9157-68.2591 82.0054-65.5073L58.3043-43.4186C53.6023-39.0335 53.6034-31.2718 58.3043-26.9087L82.0054-4.74083C84.6196-2.26425 89.7581-2.22501 92.1738-4.64079Z"/>
  </g>
  <g id="Heavy-L" transform="matrix(1 0 0 1 2558.42 1556)">
   <path d="M78.2532 31.7694C115.056 31.7694 145.278 1.57794 145.278-35.2251C145.278-72.0281 115.026-102.22 78.2231-102.22C41.4446-102.22 11.2588-72.0281 11.2588-35.2251C11.2588 1.57794 41.4748 31.7694 78.2532 31.7694ZM78.2532 14.0275C51.0062 14.0275 29.0554-7.9479 29.0554-35.2251C29.0554-62.5023 50.9761-84.4777 78.2231-84.4777C105.5-84.4777 127.506-62.5023 127.506-35.2251C127.506-7.9479 105.53 14.0275 78.2532 14.0275ZM91.0873-4.53333C93.8403-7.26736 93.6428-11.4439 91.0672-13.8944L68.3294-35.2061L91.0672-56.443C93.7176-58.9684 93.6874-63.3145 90.9232-65.8343C88.4671-68.1208 84.496-68.1609 81.84-65.6545L57.4808-42.8553C53.085-38.7587 53.0906-31.5731 57.4808-27.5123L81.84-4.63832C84.227-2.37078 88.8756-2.32164 91.0873-4.53333Z"/>
  </g>
  <g id="Bold-L" transform="matrix(1 0 0 1 2262.89 1556)">
   <path d="M77.0704 30.5711C113.182 30.5711 142.92 0.870872 142.92-35.2405C142.92-71.3519 113.144-101.052 77.0324-101.052C40.9458-101.052 11.2588-71.3519 11.2588-35.2405C11.2588 0.870872 40.9838 30.5711 77.0704 30.5711ZM77.0704 15.8255C48.8167 15.8255 26.0672-6.94878 26.0672-35.2405C26.0672-63.5322 48.7787-86.3065 77.0324-86.3065C105.324-86.3065 128.136-63.5322 128.136-35.2405C128.136-6.94878 105.362 15.8255 77.0704 15.8255ZM89.6978-4.43989C92.0674-6.7979 91.939-10.4299 89.6934-12.5659L65.6568-35.229L89.6934-57.8248C92.0062-60.0281 91.9682-63.7989 89.5722-65.9889C87.423-67.9993 83.981-68.0082 81.655-65.8165L56.4366-42.0592C52.477-38.3684 52.4902-32.0091 56.4366-28.3695L81.655-4.54507C83.7503-2.54616 87.7546-2.49665 89.6978-4.43989Z"/>
  </g>
  <g id="Semibold-L" transform="matrix(1 0 0 1 1966.99 1556)">
   <path d="M76.2549 29.745C111.889 29.745 141.294 0.383422 141.294-35.2511C141.294-70.8857 111.846-100.247 76.2116-100.247C40.6019-100.247 11.2588-70.8857 11.2588-35.2511C11.2588 0.383422 40.6453 29.745 76.2549 29.745ZM76.2549 17.065C47.3072 17.065 24.0071-6.26 24.0071-35.2511C24.0071-64.2423 47.2638-87.5672 76.2116-87.5672C105.203-87.5672 128.571-64.2423 128.571-35.2511C128.571-6.26 105.246 17.065 76.2549 17.065ZM88.74-4.37547C90.8452-6.47426 90.7645-9.73086 88.7463-11.6501L63.8143-35.2447L88.7463-58.7775C90.8264-60.7586 90.783-64.1328 88.6409-66.0954C86.7032-67.9155 83.626-67.9029 81.5274-65.9282L55.7167-41.5104C52.0578-38.0993 52.0763-32.3097 55.7167-28.9605L81.5274-4.48078C83.4216-2.66707 86.9818-2.6173 88.74-4.37547Z"/>
  </g>
  <g id="Medium-L" transform="matrix(1 0 0 1 1670.9 1556)">
   <path d="M75.6366 29.1187C110.91 29.1187 140.062 0.0138167 140.062-35.2592C140.062-70.5322 110.862-99.637 75.5892-99.637C40.3412-99.637 11.2588-70.5322 11.2588-35.2592C11.2588 0.0138167 40.3886 29.1187 75.6366 29.1187ZM75.6366 18.0048C46.1626 18.0048 22.4451-5.73774 22.4451-35.2592C22.4451-64.7806 46.1152-88.5232 75.5892-88.5232C105.111-88.5232 128.901-64.7806 128.901-35.2592C128.901-5.73774 105.158 18.0048 75.6366 18.0048ZM88.0137-4.32663C89.9184-6.22887 89.8739-9.20083 88.0281-10.9556L62.4173-35.2567L88.0281-59.4998C89.9318-61.3125 89.8844-64.3859 87.9347-66.1762C86.1574-67.852 83.3568-67.8231 81.4307-66.0128L55.1708-41.0943C51.7399-37.8953 51.7624-32.5376 55.1708-29.4085L81.4307-4.43203C83.1725-2.75875 86.3958-2.70879 88.0137-4.32663Z"/>
  </g>
  <g id="Regular-L" transform="matrix(1 0 0 1 1374.99 1556)">
   <path d="M74.8301 28.3017C109.632 28.3017 138.454-0.468277 138.454-35.2697C138.454-70.0711 109.579-98.8411 74.7774-98.8411C40.0011-98.8411 11.2588-70.0711 11.2588-35.2697C11.2588-0.468277 40.0538 28.3017 74.8301 28.3017ZM74.8301 19.2307C44.6697 19.2307 20.4076-5.05652 20.4076-35.2697C20.4076-65.4829 44.617-89.7701 74.7774-89.7701C104.991-89.7701 129.331-65.4829 129.331-35.2697C129.331-5.05652 105.043 19.2307 74.8301 19.2307ZM87.0663-4.26292C88.7096-5.90878 88.7122-8.50948 87.0914-10.0498L60.595-35.2723L87.0914-60.4419C88.765-62.035 88.7122-64.7161 87.0136-66.2816C85.4456-67.7692 83.0057-67.7189 81.3045-66.1233L54.4588-40.5515C51.3254-37.6291 51.353-32.8349 54.4588-29.993L81.3045-4.36845C82.8474-2.87832 85.6315-2.82811 87.0663-4.26292Z"/>
  </g>
  <g id="Light-L" transform="matrix(1 0 0 1 1079.2 1556)">
   <path d="M73.9141 27.3856C108.257 27.3856 136.603-0.926323 136.603-35.2697C136.603-69.6131 108.224-97.925 73.8804-97.925C39.5239-97.925 11.2588-69.6131 11.2588-35.2697C11.2588-0.926323 39.5576 27.3856 73.9141 27.3856ZM73.9141 20.4903C43.0857 20.4903 18.1746-4.40762 18.1746-35.2697C18.1746-66.1318 43.052-91.0297 73.8804-91.0297C104.742-91.0297 129.674-66.1318 129.674-35.2697C129.674-4.40762 104.776 20.4903 73.9141 20.4903ZM85.8258-4.45377C87.0492-5.73701 87.109-7.74607 85.8127-8.96195L58.4575-35.3295L85.8127-61.6634C87.1427-62.9129 87.109-65.0024 85.7921-66.2052C84.5295-67.3875 82.6813-67.4136 81.3045-66.1042L53.5809-39.3682C51.1154-37.0375 51.1622-33.5411 53.5809-31.2908L81.3045-4.52113C82.5802-3.27912 84.6773-3.30524 85.8258-4.45377Z"/>
  </g>
  <g id="Thin-L" transform="matrix(1 0 0 1 783.716 1556)">
   <path d="M72.7024 26.174C106.44 26.174 134.155-1.53213 134.155-35.2697C134.155-69.0073 106.432-96.7134 72.694-96.7134C38.8929-96.7134 11.2588-69.0073 11.2588-35.2697C11.2588-1.53213 38.9013 26.174 72.7024 26.174ZM72.7024 22.1563C40.9906 22.1563 15.2214-3.5494 15.2214-35.2697C15.2214-66.99 40.9821-92.6957 72.694-92.6957C104.414-92.6957 130.128-66.99 130.128-35.2697C130.128-3.5494 104.423 22.1563 72.7024 22.1563ZM84.1851-4.70619C84.8532-5.50984 84.9887-6.7364 84.1215-7.52317L55.6304-35.4052L84.1215-63.2789C84.9972-64.0741 84.9887-65.3811 84.1766-66.1043C83.3179-66.8826 82.2522-67.0097 81.3045-66.079L52.4198-37.8032C50.8378-36.255 50.9098-34.475 52.4198-33.0072L81.3045-4.72306C82.2268-3.80919 83.4152-3.93629 84.1851-4.70619Z"/>
  </g>
  <g id="Ultralight-L" transform="matrix(1 0 0 1 487.631 1556)">
   <path d="M72.0819 25.5534C105.509 25.5534 132.9-1.84242 132.9-35.2697C132.9-68.697 105.514-96.0928 72.0864-96.0928C38.5697-96.0928 11.2588-68.697 11.2588-35.2697C11.2588-1.84242 38.5652 25.5534 72.0819 25.5534ZM72.0819 23.0096C39.9175 23.0096 13.7087-3.10983 13.7087-35.2697C13.7087-67.4296 39.922-93.549 72.0864-93.549C104.246-93.549 130.361-67.4296 130.361-35.2697C130.361-3.10983 104.242 23.0096 72.0819 23.0096ZM83.3447-4.83548C83.7284-5.39348 83.9027-6.21925 83.2553-6.78623L54.1824-35.444L83.2553-64.1063C83.8982-64.6688 83.9027-65.575 83.3492-66.0526C82.6973-66.624 82.0324-66.8029 81.3045-66.066L51.825-37.0017C50.6956-35.8542 50.7805-34.9534 51.825-33.8864L81.3045-4.82649C82.0458-4.0807 82.7687-4.25951 83.3447-4.83548Z"/>
  </g>
  <g id="Black-M" transform="matrix(1 0 0 1 2871.36 1126)">
   <path d="M62.0422 18.116C91.4096 18.116 115.367-5.83621 115.367-35.2035C115.367-64.5709 91.4041-88.5231 62.0367-88.5231C32.6752-88.5231 8.72266-64.5709 8.72266-35.2035C8.72266-5.83621 32.6807 18.116 62.0422 18.116ZM62.0422 0.73415C42.1762 0.73415 26.1158-15.332 26.1158-35.2035C26.1158-55.0751 42.1707-71.1412 62.0367-71.1412C81.9083-71.1412 97.9799-55.0751 97.9799-35.2035C97.9799-15.332 81.9138 0.73415 62.0422 0.73415ZM72.1767-11.6494C74.7268-14.1934 74.4923-18.0232 72.1253-20.2708L56.1144-35.1975L72.1253-50.0616C74.5549-52.3718 74.5494-56.3781 71.9999-58.6885C69.7526-60.7593 66.1045-60.862 63.6752-58.5579L45.7595-41.8977C41.944-38.3326 41.9437-32.0001 45.7595-28.4402L63.6752-11.7174C65.8596-9.65268 70.1684-9.64113 72.1767-11.6494Z"/>
  </g>
  <g id="Heavy-M" transform="matrix(1 0 0 1 2575.48 1126)">
   <path d="M61.2053 17.2657C90.0667 17.2657 113.704-6.35571 113.704-35.217C113.704-64.0783 90.0502-87.6997 61.1889-87.6997C32.3418-87.6997 8.72266-64.0783 8.72266-35.217C8.72266-6.35571 32.3582 17.2657 61.2053 17.2657ZM61.2053 2.03478C40.603 2.03478 23.9841-14.5983 23.9841-35.217C23.9841-55.8358 40.5866-72.4688 61.1889-72.4688C81.8077-72.4688 98.4571-55.8358 98.4571-35.217C98.4571-14.5983 81.8241 2.03478 61.2053 2.03478ZM71.2289-11.5267C73.5341-13.82 73.3478-17.3011 71.1995-19.3435L54.238-35.2052L71.1995-51.0068C73.4078-53.1092 73.3914-56.7398 71.0817-58.84C69.037-60.7352 65.7242-60.7941 63.5135-58.7035L45.0355-41.4562C41.4577-38.1186 41.46-32.2295 45.0355-28.9105L63.5135-11.6031C65.5004-9.71985 69.3938-9.69158 71.2289-11.5267Z"/>
  </g>
  <g id="Bold-M" transform="matrix(1 0 0 1 2279.69 1126)">
   <path d="M60.2692 16.3144C88.5644 16.3144 111.844-6.93686 111.844-35.2321C111.844-63.5273 88.5358-86.7786 60.2405-86.7786C31.9688-86.7786 8.72266-63.5273 8.72266-35.2321C8.72266-6.93686 31.9974 16.3144 60.2692 16.3144ZM60.2692 3.48972C38.8432 3.48972 21.5995-13.7775 21.5995-35.2321C21.5995-56.6867 38.8146-73.9539 60.2405-73.9539C81.6951-73.9539 98.991-56.6867 98.991-35.2321C98.991-13.7775 81.7238 3.48972 60.2692 3.48972ZM70.1688-11.3895C72.2-13.4024 72.0675-16.4933 70.1637-18.3062L52.139-35.2137L70.1637-52.0641C72.1246-53.9342 72.096-57.1445 70.0545-59.0094C68.2364-60.7081 65.2987-60.7182 63.3326-58.8665L44.2257-40.9624C40.9138-37.8792 40.9189-32.486 44.2257-29.4366L63.3326-11.4753C65.0986-9.79499 68.5273-9.74801 70.1688-11.3895Z"/>
  </g>
  <g id="Semibold-M" transform="matrix(1 0 0 1 1983.62 1126)">
   <path d="M59.6238 15.6586C87.5288 15.6586 110.562-7.33749 110.562-35.2425C110.562-63.1475 87.4917-86.1436 59.5867-86.1436C31.7117-86.1436 8.72266-63.1475 8.72266-35.2425C8.72266-7.33749 31.7487 15.6586 59.6238 15.6586ZM59.6238 4.49275C37.63 4.49275 19.9555-13.2117 19.9555-35.2425C19.9555-57.2733 37.5929-74.9777 59.5867-74.9777C81.6175-74.9777 99.359-57.2733 99.359-35.2425C99.359-13.2117 81.6546 4.49275 59.6238 4.49275ZM69.4379-11.2949C71.2803-13.1145 71.1848-15.9364 69.4497-17.5911L50.6919-35.2197L69.4497-52.793C71.24-54.5029 71.203-57.4235 69.3464-59.1263C67.6846-60.6894 65.0054-60.6659 63.2079-58.9788L43.6673-40.6219C40.5388-37.7141 40.5459-32.6629 43.6673-29.7993L63.2079-11.3871C64.8216-9.84679 67.9299-9.78691 69.4379-11.2949Z"/>
  </g>
  <g id="Medium-M" transform="matrix(1 0 0 1 1687.4 1126)">
   <path d="M59.1344 15.1614C86.7435 15.1614 109.59-7.64127 109.59-35.2504C109.59-62.8595 86.7001-85.6621 59.091-85.6621C31.5167-85.6621 8.72266-62.8595 8.72266-35.2504C8.72266-7.64127 31.5601 15.1614 59.1344 15.1614ZM59.1344 5.25329C36.7101 5.25329 18.709-12.7826 18.709-35.2504C18.709-57.7181 36.6666-75.754 59.091-75.754C81.5587-75.754 99.6381-57.7181 99.6381-35.2504C99.6381-12.7826 81.6021 5.25329 59.1344 5.25329ZM68.8837-11.2232C70.5829-12.8962 70.5156-15.5142 68.9083-17.0489L49.5947-35.2241L68.9083-53.3457C70.5693-54.9341 70.5258-57.635 68.8094-59.2148C67.2661-60.6753 64.783-60.6262 63.1134-59.064L43.244-40.3637C40.2544-37.589 40.263-32.797 43.244-30.0743L63.1134-11.3203C64.6116-9.88606 67.4769-9.81641 68.8837-11.2232Z"/>
  </g>
  <g id="Regular-M" transform="matrix(1 0 0 1 1391.32 1126)">
   <path d="M58.4961 14.5128C85.7192 14.5128 108.321-8.0375 108.321-35.2606C108.321-62.4838 85.6675-85.0341 58.4443-85.0341C31.2624-85.0341 8.72266-62.4838 8.72266-35.2606C8.72266-8.0375 31.3141 14.5128 58.4961 14.5128ZM58.4961 6.24529C35.5102 6.24529 17.0831-12.223 17.0831-35.2606C17.0831-58.2983 35.4584-76.7666 58.4443-76.7666C81.482-76.7666 100.002-58.2983 100.002-35.2606C100.002-12.223 81.5337 6.24529 58.4961 6.24529ZM68.1609-11.1296C69.6733-12.6114 69.6426-14.9634 68.2021-16.3417L48.1636-35.23L68.2021-54.0666C69.6944-55.4966 69.6426-57.9109 68.1091-59.3304C66.7203-60.6569 64.4929-60.5744 62.99-59.1751L42.6918-40.027C39.8835-37.4257 39.8941-32.9719 42.6918-30.433L62.99-11.2331C64.3376-9.93729 66.8861-9.85489 68.1609-11.1296Z"/>
  </g>
  <g id="Light-M" transform="matrix(1 0 0 1 1095.44 1126)">
   <path d="M57.6748 13.6915C84.4872 13.6915 106.662-8.44816 106.662-35.2606C106.662-62.0731 84.4526-84.2128 57.6401-84.2128C30.8346-84.2128 8.72266-62.0731 8.72266-35.2606C8.72266-8.44816 30.8693 13.6915 57.6748 13.6915ZM57.6748 7.37462C34.09 7.37462 15.0811-11.6412 15.0811-35.2606C15.0811-58.8801 34.0554-77.8959 57.6401-77.8959C81.2595-77.8959 100.31-58.8801 100.31-35.2606C100.31-11.6412 81.2942 7.37462 57.6748 7.37462ZM67.0487-11.3007C68.1846-12.4574 68.2053-14.279 67.0556-15.3663L46.2472-35.2813L67.0556-55.1617C68.2399-56.2837 68.2053-58.1676 67.014-59.2619C65.899-60.3146 64.202-60.3007 62.99-59.158L41.9047-38.9661C39.6953-36.8953 39.723-33.605 41.9047-31.5965L62.99-11.37C64.0981-10.2966 66.0306-10.2827 67.0487-11.3007Z"/>
  </g>
  <g id="Thin-M" transform="matrix(1 0 0 1 799.828 1126)">
   <path d="M56.5885 12.6052C82.8578 12.6052 104.466-8.9913 104.466-35.2606C104.466-61.53 82.8458-83.1265 56.5765-83.1265C30.2689-83.1265 8.72266-61.53 8.72266-35.2606C8.72266-8.9913 30.2809 12.6052 56.5885 12.6052ZM56.5885 8.86824C32.2117 8.86824 12.4333-10.8718 12.4333-35.2606C12.4333-59.6495 32.1996-79.3895 56.5765-79.3895C80.9653-79.3895 100.717-59.6495 100.717-35.2606C100.717-10.8718 80.9773 8.86824 56.5885 8.86824ZM65.5777-11.527C66.2158-12.2537 66.3043-13.3737 65.5394-14.0764L43.7125-35.3492L65.5394-56.61C66.3163-57.3247 66.3043-58.507 65.5657-59.1714C64.8127-59.862 63.8173-59.9386 62.99-59.1354L40.8637-37.563C39.4464-36.1938 39.4967-34.4424 40.8637-33.1354L62.99-11.5511C63.7813-10.7719 64.899-10.8484 65.5777-11.527Z"/>
  </g>
  <g id="Ultralight-M" transform="matrix(1 0 0 1 503.679 1126)">
   <path d="M56.0321 12.0488C82.0233 12.0488 103.342-9.26949 103.342-35.2606C103.342-61.2518 82.0228-82.5701 56.0317-82.5701C29.9791-82.5701 8.72266-61.2518 8.72266-35.2606C8.72266-9.26949 29.9795 12.0488 56.0321 12.0488ZM56.0321 9.63326C31.2496 9.63326 11.0772-10.4777 11.0772-35.2606C11.0772-60.0436 31.2492-80.1545 56.0317-80.1545C80.8147-80.1545 100.926-60.0436 100.926-35.2606C100.926-10.4777 80.8151 9.63326 56.0321 9.63326ZM64.8242-11.643C65.2073-12.1494 65.3307-12.9101 64.7628-13.4157L42.4143-35.384L64.7628-57.3519C65.3311-57.8579 65.3307-58.6809 64.8238-59.125C64.2563-59.6302 63.6202-59.7531 62.99-59.1238L40.3305-36.8444C39.3189-35.8344 39.3808-34.8712 40.3305-33.9236L62.99-11.6438C63.619-11.0153 64.3195-11.1382 64.8242-11.643Z"/>
  </g>
  <g id="Black-S" transform="matrix(1 0 0 1 2884.57 696)">
   <path d="M48.8281 6.78711C71.9727 6.78711 90.8203-12.0605 90.8203-35.2051C90.8203-58.3496 71.9727-77.1973 48.8281-77.1973C25.6836-77.1973 6.83594-58.3496 6.83594-35.2051C6.83594-12.0605 25.6836 6.78711 48.8281 6.78711ZM48.8281-7.37305C33.4473-7.37305 20.9961-19.8242 20.9961-35.2051C20.9961-50.5859 33.4473-63.0371 48.8281-63.0371C64.209-63.0371 76.6602-50.5859 76.6602-35.2051C76.6602-19.8242 64.209-7.37305 48.8281-7.37305ZM56.7871-16.7969C58.8379-18.8477 58.6426-21.9238 56.7383-23.7305L44.4336-35.2051L56.7383-46.6309C58.6914-48.4863 58.6914-51.709 56.6406-53.5645C54.834-55.2246 51.9043-55.3223 49.9512-53.4668L36.0352-40.5273C33.0078-37.6953 33.0078-32.666 36.0352-29.834L49.9512-16.8457C51.709-15.1855 55.1758-15.1855 56.7871-16.7969Z"/>
  </g>
  <g id="Heavy-S" transform="matrix(1 0 0 1 2588.47 696)">
   <path d="M48.2173 6.16479C70.9816 6.16479 89.6102-12.4524 89.6102-35.2166C89.6102-57.9808 70.97-76.598 48.2058-76.598C25.4531-76.598 6.83594-57.9808 6.83594-35.2166C6.83594-12.4524 25.4646 6.16479 48.2173 6.16479ZM48.2173-6.40499C32.2833-6.40499 19.4288-19.271 19.4288-35.2166C19.4288-51.1622 32.2718-64.0282 48.2058-64.0282C64.1514-64.0282 77.0289-51.1622 77.0289-35.2166C77.0289-19.271 64.1629-6.40499 48.2173-6.40499ZM56.1187-16.6701C58.0081-18.548 57.8474-21.3937 56.0929-23.062L43.0737-35.2051L56.0929-47.2993C57.8962-49.0165 57.8847-51.9856 55.9953-53.7027C54.3269-55.2477 51.6162-55.2992 49.8129-53.5936L35.5166-40.2853C32.616-37.5801 32.616-32.7813 35.5166-30.0875L49.8129-16.7305C51.4324-15.1971 54.6226-15.174 56.1187-16.6701Z"/>
  </g>
  <g id="Bold-S" transform="matrix(1 0 0 1 2292.43 696)">
   <path d="M47.5342 5.46875C69.873 5.46875 88.2568-12.8906 88.2568-35.2295C88.2568-57.5684 69.8486-75.9277 47.5098-75.9277C25.1953-75.9277 6.83594-57.5684 6.83594-35.2295C6.83594-12.8906 25.2197 5.46875 47.5342 5.46875ZM47.5342-5.32227C30.9814-5.32227 17.6758-18.6523 17.6758-35.2295C17.6758-51.8066 30.957-65.1367 47.5098-65.1367C64.0869-65.1367 77.4414-51.8066 77.4414-35.2295C77.4414-18.6523 64.1113-5.32227 47.5342-5.32227ZM55.3711-16.5283C57.0801-18.2129 56.958-20.8008 55.3711-22.3145L41.5527-35.2051L55.3711-48.0469C57.0068-49.6094 56.9824-52.2949 55.2734-53.8574C53.7598-55.2734 51.2939-55.2734 49.6582-53.7354L34.9365-40.0146C32.1777-37.4512 32.1777-32.9102 34.9365-30.3711L49.6582-16.6016C51.123-15.21 54.0039-15.1611 55.3711-16.5283Z"/>
  </g>
  <g id="Semibold-S" transform="matrix(1 0 0 1 1996.19 696)">
   <path d="M47.0632 4.98887C69.1088 4.98887 87.3237-13.1928 87.3237-35.2384C87.3237-57.284 69.0755-75.4656 47.0299-75.4656C25.0176-75.4656 6.83594-57.284 6.83594-35.2384C6.83594-13.1928 25.0509 4.98887 47.0632 4.98887ZM47.0632-4.57578C30.0839-4.57578 16.4672-18.2258 16.4672-35.2384C16.4672-52.251 30.0506-65.901 47.0299-65.901C64.0425-65.901 77.7258-52.251 77.7258-35.2384C77.7258-18.2258 64.0758-4.57578 47.0632-4.57578ZM54.8557-16.4306C56.4402-17.9818 56.3448-20.392 54.8734-21.799L40.5041-35.2051L54.8734-48.5623C56.3937-50.0182 56.3604-52.5082 54.7758-53.9641C53.3687-55.2912 51.0718-55.2557 49.5516-53.8331L34.5366-39.828C31.8756-37.3623 31.8756-32.999 34.5366-30.5666L49.5516-16.5127C50.9098-15.2188 53.5773-15.1522 54.8557-16.4306Z"/>
  </g>
  <g id="Medium-S" transform="matrix(1 0 0 1 1699.83 696)">
   <path d="M46.7061 4.625C68.5293 4.625 86.6162-13.4219 86.6162-35.2451C86.6162-57.0684 68.4893-75.1152 46.666-75.1152C24.8828-75.1152 6.83594-57.0684 6.83594-35.2451C6.83594-13.4219 24.9229 4.625 46.7061 4.625ZM46.7061-4.00977C29.4033-4.00977 15.5508-17.9023 15.5508-35.2451C15.5508-52.5879 29.3633-66.4805 46.666-66.4805C64.0088-66.4805 77.9414-52.5879 77.9414-35.2451C77.9414-17.9023 64.0488-4.00977 46.7061-4.00977ZM54.4648-16.3564C55.9551-17.8066 55.8799-20.082 54.4961-21.4082L39.709-35.2051L54.4961-48.9531C55.9287-50.3281 55.8887-52.6699 54.3984-54.0449C53.0723-55.3047 50.9033-55.2422 49.4707-53.9072L34.2334-39.6865C31.6465-37.2949 31.6465-33.0664 34.2334-30.7148L49.4707-16.4453C50.748-15.2256 53.2539-15.1455 54.4648-16.3564Z"/>
  </g>
  <g id="Regular-S" transform="matrix(1 0 0 1 1403.58 696)">
   <path d="M46.2402 4.15039C67.7734 4.15039 85.6934-13.7207 85.6934-35.2539C85.6934-56.7871 67.7246-74.6582 46.1914-74.6582C24.707-74.6582 6.83594-56.7871 6.83594-35.2539C6.83594-13.7207 24.7559 4.15039 46.2402 4.15039ZM46.2402-3.27148C28.5156-3.27148 14.3555-17.4805 14.3555-35.2539C14.3555-53.0273 28.4668-67.2363 46.1914-67.2363C63.9648-67.2363 78.2227-53.0273 78.2227-35.2539C78.2227-17.4805 64.0137-3.27148 46.2402-3.27148ZM53.9551-16.2598C55.3223-17.5781 55.2734-19.6777 54.0039-20.8984L38.6719-35.2051L54.0039-49.4629C55.3223-50.7324 55.2734-52.8809 53.9062-54.1504C52.6855-55.3223 50.6836-55.2246 49.3652-54.0039L33.8379-39.502C31.3477-37.207 31.3477-33.1543 33.8379-30.9082L49.3652-16.3574C50.5371-15.2344 52.832-15.1367 53.9551-16.2598Z"/>
  </g>
  <g id="Light-S" transform="matrix(1 0 0 1 1107.6 696)">
   <path d="M45.5137 3.42383C66.6836 3.42383 84.2251-14.084 84.2251-35.2539C84.2251-56.4238 66.6499-73.9316 45.48-73.9316C24.3286-73.9316 6.83594-56.4238 6.83594-35.2539C6.83594-14.084 24.3623 3.42383 45.5137 3.42383ZM45.5137-2.27247C27.2593-2.27247 12.5845-16.9658 12.5845-35.2539C12.5845-53.542 27.2256-68.2353 45.48-68.2353C63.7681-68.2353 78.4951-53.542 78.4951-35.2539C78.4951-16.9658 63.8018-2.27247 45.5137-2.27247ZM52.9712-16.4111C54.0054-17.4419 54.002-19.0723 52.9898-20.0357L36.9766-35.2505L52.9898-50.4316C54.0357-51.4287 54.002-53.1079 52.9375-54.0898C51.959-55.0195 50.4263-54.9824 49.3652-53.9888L33.1416-38.5635C31.1812-36.7378 31.1963-33.7144 33.1416-31.9375L49.3652-16.4785C50.3252-15.5522 52.0752-15.5151 52.9712-16.4111Z"/>
  </g>
  <g id="Thin-S" transform="matrix(1 0 0 1 811.863 696)">
   <path d="M44.5527 2.4629C65.2422 2.4629 82.2832-14.5644 82.2832-35.2539C82.2832-55.9434 65.2285-72.9707 44.5391-72.9707C23.8281-72.9707 6.83594-55.9434 6.83594-35.2539C6.83594-14.5644 23.8418 2.4629 44.5527 2.4629ZM44.5527-0.95119C25.5977-0.95119 10.2422-16.2852 10.2422-35.2539C10.2422-54.2226 25.584-69.5566 44.5391-69.5566C63.5078-69.5566 78.8555-54.2226 78.8555-35.2539C78.8555-16.2852 63.5215-0.95119 44.5527-0.95119ZM51.6699-16.6113C52.2637-17.2617 52.3203-18.2715 51.6485-18.8945L34.7344-35.3105L51.6485-51.7129C52.334-52.3496 52.3203-53.4082 51.6563-54.0098C50.9981-54.6191 50.0859-54.6621 49.3652-53.9688L32.2207-37.3223C30.9609-36.1172 30.9961-34.4551 32.2207-33.2988L49.3652-16.6387C50.0449-15.9727 51.0742-16.0156 51.6699-16.6113Z"/>
  </g>
  <g id="Ultralight-S" transform="matrix(1 0 0 1 515.649 696)">
   <path d="M44.0606 1.97072C64.5039 1.97072 81.2886-14.8105 81.2886-35.2539C81.2886-55.6973 64.5005-72.4785 44.0571-72.4785C23.5718-72.4785 6.83594-55.6973 6.83594-35.2539C6.83594-14.8105 23.5752 1.97072 44.0606 1.97072ZM44.0606-0.274438C24.7466-0.274438 9.04252-15.9365 9.04252-35.2539C9.04252-54.5713 24.7432-70.2334 44.0571-70.2334C63.3745-70.2334 79.04-54.5713 79.04-35.2539C79.04-15.9365 63.3779-0.274438 44.0606-0.274438ZM51.0034-16.7139C51.3716-17.1694 51.459-17.8613 50.9614-18.3101L33.586-35.3413L50.9614-52.3691C51.4624-52.8213 51.459-53.562 51-53.9688C50.5059-54.4141 49.9116-54.4981 49.3652-53.9585L31.749-36.6865C30.8481-35.7993 30.8936-34.8345 31.749-33.9961L49.3652-16.7207C49.9014-16.188 50.5615-16.272 51.0034-16.7139Z"/>
  </g>
 </g>
</svg>
