<?xml version="1.0" encoding="UTF-8"?>
<!--Generator: Apple Native CoreSVG 232.5-->
<!DOCTYPE svg
PUBLIC "-//W3C//DTD SVG 1.1//EN"
       "http://www.w3.org/Graphics/SVG/1.1/DTD/svg11.dtd">
<svg version="1.1" xmlns="http://www.w3.org/2000/svg" xmlns:xlink="http://www.w3.org/1999/xlink" width="3300" height="2200">
 <g id="Notes">
  <rect height="2200" id="artboard" style="fill:white;opacity:1" width="3300" x="0" y="0"/>
  <line style="fill:none;stroke:black;opacity:1;stroke-width:0.5;" x1="263" x2="3036" y1="292" y2="292"/>
  <text style="stroke:none;fill:black;font-family:sans-serif;font-size:13;font-weight:bold;" transform="matrix(1 0 0 1 263 322)">Weight/Scale Variations</text>
  <text style="stroke:none;fill:black;font-family:sans-serif;font-size:13;text-anchor:middle;" transform="matrix(1 0 0 1 559.711 322)">Ultralight</text>
  <text style="stroke:none;fill:black;font-family:sans-serif;font-size:13;text-anchor:middle;" transform="matrix(1 0 0 1 856.422 322)">Thin</text>
  <text style="stroke:none;fill:black;font-family:sans-serif;font-size:13;text-anchor:middle;" transform="matrix(1 0 0 1 1153.13 322)">Light</text>
  <text style="stroke:none;fill:black;font-family:sans-serif;font-size:13;text-anchor:middle;" transform="matrix(1 0 0 1 1449.84 322)">Regular</text>
  <text style="stroke:none;fill:black;font-family:sans-serif;font-size:13;text-anchor:middle;" transform="matrix(1 0 0 1 1746.56 322)">Medium</text>
  <text style="stroke:none;fill:black;font-family:sans-serif;font-size:13;text-anchor:middle;" transform="matrix(1 0 0 1 2043.27 322)">Semibold</text>
  <text style="stroke:none;fill:black;font-family:sans-serif;font-size:13;text-anchor:middle;" transform="matrix(1 0 0 1 2339.98 322)">Bold</text>
  <text style="stroke:none;fill:black;font-family:sans-serif;font-size:13;text-anchor:middle;" transform="matrix(1 0 0 1 2636.69 322)">Heavy</text>
  <text style="stroke:none;fill:black;font-family:sans-serif;font-size:13;text-anchor:middle;" transform="matrix(1 0 0 1 2933.4 322)">Black</text>
  <line style="fill:none;stroke:black;opacity:1;stroke-width:0.5;" x1="263" x2="3036" y1="1903" y2="1903"/>
  <g transform="matrix(0.2 0 0 0.2 263 1933)">
   <path d="m46.2402 4.15039c21.5332 0 39.4531-17.8711 39.4531-39.4043s-17.9688-39.4043-39.502-39.4043c-21.4844 0-39.3555 17.8711-39.3555 39.4043s17.9199 39.4043 39.4043 39.4043Zm0-7.42188c-17.7246 0-31.8848-14.209-31.8848-31.9824s14.1113-31.9824 31.8359-31.9824c17.7734 0 32.0312 14.209 32.0312 31.9824s-14.209 31.9824-31.9824 31.9824Zm-17.9688-31.9824c0 2.14844 1.51367 3.61328 3.75977 3.61328h10.498v10.5957c0 2.19727 1.46484 3.71094 3.61328 3.71094 2.24609 0 3.71094-1.51367 3.71094-3.71094v-10.5957h10.5957c2.19727 0 3.71094-1.46484 3.71094-3.61328 0-2.19727-1.51367-3.71094-3.71094-3.71094h-10.5957v-10.5469c0-2.24609-1.46484-3.75977-3.71094-3.75977-2.14844 0-3.61328 1.51367-3.61328 3.75977v10.5469h-10.498c-2.24609 0-3.75977 1.51367-3.75977 3.71094Z"/>
  </g>
  <g transform="matrix(0.2 0 0 0.2 281.506 1933)">
   <path d="m58.5449 14.5508c27.2461 0 49.8047-22.6074 49.8047-49.8047 0-27.2461-22.6074-49.8047-49.8535-49.8047-27.1973 0-49.7559 22.5586-49.7559 49.8047 0 27.1973 22.6074 49.8047 49.8047 49.8047Zm0-8.30078c-23.0469 0-41.4551-18.457-41.4551-41.5039s18.3594-41.5039 41.4062-41.5039 41.5527 18.457 41.5527 41.5039-18.457 41.5039-41.5039 41.5039Zm-22.6562-41.5039c0 2.39258 1.66016 4.00391 4.15039 4.00391h14.3555v14.4043c0 2.44141 1.66016 4.15039 4.05273 4.15039 2.44141 0 4.15039-1.66016 4.15039-4.15039v-14.4043h14.4043c2.44141 0 4.15039-1.61133 4.15039-4.00391 0-2.44141-1.70898-4.15039-4.15039-4.15039h-14.4043v-14.3555c0-2.49023-1.70898-4.19922-4.15039-4.19922-2.39258 0-4.05273 1.70898-4.05273 4.19922v14.3555h-14.3555c-2.49023 0-4.15039 1.70898-4.15039 4.15039Z"/>
  </g>
  <g transform="matrix(0.2 0 0 0.2 304.924 1933)">
   <path d="m74.8535 28.3203c34.8145 0 63.623-28.8086 63.623-63.5742 0-34.8145-28.8574-63.623-63.6719-63.623-34.7656 0-63.5254 28.8086-63.5254 63.623 0 34.7656 28.8086 63.5742 63.5742 63.5742Zm0-9.08203c-30.1758 0-54.4434-24.3164-54.4434-54.4922 0-30.2246 24.2188-54.4922 54.3945-54.4922 30.2246 0 54.541 24.2676 54.541 54.4922 0 30.1758-24.2676 54.4922-54.4922 54.4922Zm-28.8574-54.4922c0 2.58789 1.85547 4.39453 4.58984 4.39453h19.7266v19.7754c0 2.68555 1.85547 4.58984 4.44336 4.58984 2.68555 0 4.54102-1.85547 4.54102-4.58984v-19.7754h19.7754c2.68555 0 4.58984-1.80664 4.58984-4.39453 0-2.73438-1.85547-4.58984-4.58984-4.58984h-19.7754v-19.7266c0-2.73438-1.85547-4.63867-4.54102-4.63867-2.58789 0-4.44336 1.9043-4.44336 4.63867v19.7266h-19.7266c-2.73438 0-4.58984 1.85547-4.58984 4.58984Z"/>
  </g>
  <text style="stroke:none;fill:black;font-family:sans-serif;font-size:13;font-weight:bold;" transform="matrix(1 0 0 1 263 1953)">Design Variations</text>
  <text style="stroke:none;fill:black;font-family:sans-serif;font-size:13;" transform="matrix(1 0 0 1 263 1971)">Symbols are supported in up to nine weights and three scales.</text>
  <text style="stroke:none;fill:black;font-family:sans-serif;font-size:13;" transform="matrix(1 0 0 1 263 1989)">For optimal layout with text and other symbols, vertically align</text>
  <text style="stroke:none;fill:black;font-family:sans-serif;font-size:13;" transform="matrix(1 0 0 1 263 2007)">symbols with the adjacent text.</text>
  <line style="fill:none;stroke:#00AEEF;stroke-width:0.5;opacity:1.0;" x1="776" x2="776" y1="1919" y2="1933"/>
  <g transform="matrix(0.2 0 0 0.2 776 1933)">
   <path d="m16.5527 0.78125c2.58789 0 3.85742-0.976562 4.78516-3.71094l6.29883-17.2363h28.8086l6.29883 17.2363c0.927734 2.73438 2.19727 3.71094 4.73633 3.71094 2.58789 0 4.24805-1.5625 4.24805-4.00391 0-0.830078-0.146484-1.61133-0.537109-2.63672l-22.9004-60.9863c-1.12305-2.97852-3.125-4.49219-6.25-4.49219-3.02734 0-5.07812 1.46484-6.15234 4.44336l-22.9004 61.084c-0.390625 1.02539-0.537109 1.80664-0.537109 2.63672 0 2.44141 1.5625 3.95508 4.10156 3.95508Zm13.4766-28.3691 11.8652-32.8613h0.244141l11.8652 32.8613Z"/>
  </g>
  <line style="fill:none;stroke:#00AEEF;stroke-width:0.5;opacity:1.0;" x1="792.836" x2="792.836" y1="1919" y2="1933"/>
  <text style="stroke:none;fill:black;font-family:sans-serif;font-size:13;font-weight:bold;" transform="matrix(1 0 0 1 776 1953)">Margins</text>
  <text style="stroke:none;fill:black;font-family:sans-serif;font-size:13;" transform="matrix(1 0 0 1 776 1971)">Leading and trailing margins on the left and right side of each symbol</text>
  <text style="stroke:none;fill:black;font-family:sans-serif;font-size:13;" transform="matrix(1 0 0 1 776 1989)">can be adjusted by modifying the x-location of the margin guidelines.</text>
  <text style="stroke:none;fill:black;font-family:sans-serif;font-size:13;" transform="matrix(1 0 0 1 776 2007)">Modifications are automatically applied proportionally to all</text>
  <text style="stroke:none;fill:black;font-family:sans-serif;font-size:13;" transform="matrix(1 0 0 1 776 2025)">scales and weights.</text>
  <g transform="matrix(0.2 0 0 0.2 1289 1933)">
   <path d="m14.209 9.32617 8.49609 8.54492c4.29688 4.3457 9.22852 4.05273 13.8672-1.07422l53.4668-58.9355-4.83398-4.88281-53.0762 58.3984c-1.75781 2.00195-3.41797 2.49023-5.76172 0.146484l-5.85938-5.81055c-2.34375-2.29492-1.80664-4.00391 0.195312-5.81055l57.373-54.0039-4.88281-4.83398-57.959 54.4434c-4.93164 4.58984-5.32227 9.47266-1.02539 13.8184Zm32.0801-90.9668c-2.09961 2.05078-2.24609 4.93164-1.07422 6.88477 1.17188 1.80664 3.4668 2.97852 6.68945 2.14844 7.32422-1.70898 14.9414-2.00195 22.0703 2.68555l-2.92969 7.27539c-1.70898 4.15039-0.830078 7.08008 1.85547 9.81445l11.4746 11.5723c2.44141 2.44141 4.49219 2.53906 7.32422 2.05078l5.32227-0.976562 3.32031 3.36914-0.195312 2.7832c-0.195312 2.49023 0.439453 4.39453 2.88086 6.78711l3.80859 3.71094c2.39258 2.39258 5.46875 2.53906 7.8125 0.195312l14.5508-14.5996c2.34375-2.34375 2.24609-5.32227-0.146484-7.71484l-3.85742-3.80859c-2.39258-2.39258-4.24805-3.17383-6.64062-2.97852l-2.88086 0.244141-3.22266-3.17383 1.2207-5.61523c0.634766-2.83203-0.146484-5.0293-3.07617-7.95898l-10.9863-10.9375c-16.6992-16.6016-38.8672-16.2109-53.3203-1.75781Zm7.4707 1.85547c12.1582-8.88672 28.6133-7.37305 39.7461 3.75977l12.1582 12.0605c1.17188 1.17188 1.36719 2.09961 1.02539 3.80859l-1.61133 7.42188 7.51953 7.42188 4.93164-0.292969c1.26953-0.0488281 1.66016 0.0488281 2.63672 1.02539l2.88086 2.88086-12.207 12.207-2.88086-2.88086c-0.976562-0.976562-1.12305-1.36719-1.07422-2.68555l0.341797-4.88281-7.4707-7.42188-7.61719 1.26953c-1.61133 0.341797-2.34375 0.195312-3.56445-0.976562l-10.0098-10.0098c-1.26953-1.17188-1.41602-2.00195-0.634766-3.85742l4.39453-10.4492c-7.8125-7.27539-17.9688-10.4004-28.125-7.42188-0.78125 0.195312-1.07422-0.439453-0.439453-0.976562Z"/>
  </g>
  <text style="stroke:none;fill:black;font-family:sans-serif;font-size:13;font-weight:bold;" transform="matrix(1 0 0 1 1289 1953)">Exporting</text>
  <text style="stroke:none;fill:black;font-family:sans-serif;font-size:13;" transform="matrix(1 0 0 1 1289 1971)">Symbols should be outlined when exporting to ensure the</text>
  <text style="stroke:none;fill:black;font-family:sans-serif;font-size:13;" transform="matrix(1 0 0 1 1289 1989)">design is preserved when submitting to Xcode.</text>
  <text id="template-version" style="stroke:none;fill:black;font-family:sans-serif;font-size:13;text-anchor:end;" transform="matrix(1 0 0 1 3036 1933)">Template v.2.0</text>
  <text style="stroke:none;fill:black;font-family:sans-serif;font-size:13;text-anchor:end;" transform="matrix(1 0 0 1 3036 1951)">Requires Xcode 12 or greater</text>
  <text id="descriptive-name" style="stroke:none;fill:black;font-family:sans-serif;font-size:13;text-anchor:end;" transform="matrix(1 0 0 1 3036 1969)">Generated from chevron.down.circle</text>
  <text style="stroke:none;fill:black;font-family:sans-serif;font-size:13;text-anchor:end;" transform="matrix(1 0 0 1 3036 1987)">Typeset at 100.0 points</text>
  <text style="stroke:none;fill:black;font-family:sans-serif;font-size:13;" transform="matrix(1 0 0 1 263 726)">Small</text>
  <text style="stroke:none;fill:black;font-family:sans-serif;font-size:13;" transform="matrix(1 0 0 1 263 1156)">Medium</text>
  <text style="stroke:none;fill:black;font-family:sans-serif;font-size:13;" transform="matrix(1 0 0 1 263 1586)">Large</text>
 </g>
 <g id="Guides">
  <g id="H-reference" style="fill:#27AAE1;stroke:none;" transform="matrix(1 0 0 1 339 696)">
   <path d="M0.993654 0L3.63775 0L29.3281-67.1323L30.0303-67.1323L30.0303-70.459L28.1226-70.459ZM11.6885-24.4799L46.9815-24.4799L46.2315-26.7285L12.4385-26.7285ZM55.1196 0L57.7637 0L30.6382-70.459L29.4326-70.459L29.4326-67.1323Z"/>
  </g>
  <line id="Baseline-S" style="fill:none;stroke:#27AAE1;opacity:1;stroke-width:0.5;" x1="263" x2="3036" y1="696" y2="696"/>
  <line id="Capline-S" style="fill:none;stroke:#27AAE1;opacity:1;stroke-width:0.5;" x1="263" x2="3036" y1="625.541" y2="625.541"/>
  <g id="H-reference" style="fill:#27AAE1;stroke:none;" transform="matrix(1 0 0 1 339 1126)">
   <path d="M0.993654 0L3.63775 0L29.3281-67.1323L30.0303-67.1323L30.0303-70.459L28.1226-70.459ZM11.6885-24.4799L46.9815-24.4799L46.2315-26.7285L12.4385-26.7285ZM55.1196 0L57.7637 0L30.6382-70.459L29.4326-70.459L29.4326-67.1323Z"/>
  </g>
  <line id="Baseline-M" style="fill:none;stroke:#27AAE1;opacity:1;stroke-width:0.5;" x1="263" x2="3036" y1="1126" y2="1126"/>
  <line id="Capline-M" style="fill:none;stroke:#27AAE1;opacity:1;stroke-width:0.5;" x1="263" x2="3036" y1="1055.54" y2="1055.54"/>
  <g id="H-reference" style="fill:#27AAE1;stroke:none;" transform="matrix(1 0 0 1 339 1556)">
   <path d="M0.993654 0L3.63775 0L29.3281-67.1323L30.0303-67.1323L30.0303-70.459L28.1226-70.459ZM11.6885-24.4799L46.9815-24.4799L46.2315-26.7285L12.4385-26.7285ZM55.1196 0L57.7637 0L30.6382-70.459L29.4326-70.459L29.4326-67.1323Z"/>
  </g>
  <line id="Baseline-L" style="fill:none;stroke:#27AAE1;opacity:1;stroke-width:0.5;" x1="263" x2="3036" y1="1556" y2="1556"/>
  <line id="Capline-L" style="fill:none;stroke:#27AAE1;opacity:1;stroke-width:0.5;" x1="263" x2="3036" y1="1485.54" y2="1485.54"/>
  <line id="left-margin" style="fill:none;stroke:#00AEEF;stroke-width:0.5;opacity:1.0;" x1="1391.32" x2="1391.32" y1="1030.79" y2="1150.12"/>
  <line id="right-margin" style="fill:none;stroke:#00AEEF;stroke-width:0.5;opacity:1.0;" x1="1508.37" x2="1508.37" y1="1030.79" y2="1150.12"/>
 </g>
 <g id="Symbols">
  <g id="Black-L" transform="matrix(1 0 0 1 2854.19 1556)">
   <path d="M79.1958 32.7257C116.56 32.7257 147.154 2.15259 147.154-35.2113C147.154-72.5752 116.539-103.148 79.175-103.148C41.8307-103.148 11.2588-72.5752 11.2588-35.2113C11.2588 2.15259 41.8515 32.7257 79.1958 32.7257ZM79.1958 12.5782C52.765 12.5782 31.4468-8.75969 31.4468-35.2113C31.4468-61.6629 52.7442-83.0007 79.175-83.0007C105.627-83.0007 126.985-61.6629 126.985-35.2113C126.985-8.75969 105.647 12.5782 79.1958 12.5782ZM87.4435-15.8304L109.591-39.6108C112.362-42.5991 112.384-47.2634 109.77-49.7596C106.726-52.6871 102.134-52.7103 99.3834-49.7416L79.1958-28.078L59.0082-49.7416C56.2575-52.7103 51.6452-52.7079 48.6217-49.7596C46.0295-47.2426 46.0307-42.6575 48.801-39.6692L70.9689-15.8888C75.4621-11.0203 82.9307-10.9631 87.4435-15.8304Z"/>
  </g>
  <g id="Heavy-L" transform="matrix(1 0 0 1 2558.42 1556)">
   <path d="M78.2532 31.7694C115.056 31.7694 145.278 1.57794 145.278-35.2251C145.278-72.0281 115.026-102.22 78.2231-102.22C41.4446-102.22 11.2588-72.0281 11.2588-35.2251C11.2588 1.57794 41.4748 31.7694 78.2532 31.7694ZM78.2532 14.0275C51.0062 14.0275 29.0554-7.9479 29.0554-35.2251C29.0554-62.5023 50.9761-84.4777 78.2231-84.4777C105.5-84.4777 127.506-62.5023 127.506-35.2251C127.506-7.9479 105.53 14.0275 78.2532 14.0275ZM85.9382-15.6027L108.782-40.0366C111.313-42.7619 111.349-46.9672 108.962-49.2593C106.203-51.9287 102.015-51.9701 99.5147-49.2695L78.2532-26.5618L56.9918-49.2695C54.491-51.9701 50.2731-51.9589 47.5447-49.2593C45.1935-46.9371 45.1991-42.8065 47.7245-40.0813L70.5984-15.6473C74.8919-11.01 81.6202-10.971 85.9382-15.6027Z"/>
  </g>
  <g id="Bold-L" transform="matrix(1 0 0 1 2262.89 1556)">
   <path d="M77.0704 30.5711C113.182 30.5711 142.92 0.870872 142.92-35.2405C142.92-71.3519 113.144-101.052 77.0324-101.052C40.9458-101.052 11.2588-71.3519 11.2588-35.2405C11.2588 0.870872 40.9838 30.5711 77.0704 30.5711ZM77.0704 15.8255C48.8167 15.8255 26.0672-6.94878 26.0672-35.2405C26.0672-63.5322 48.7787-86.3065 77.0324-86.3065C105.324-86.3065 128.136-63.5322 128.136-35.2405C128.136-6.94878 105.362 15.8255 77.0704 15.8255ZM83.9519-15.3184L107.738-40.604C109.955-42.984 110.006-46.5985 107.911-48.6221C105.528-50.9465 101.869-51.0109 99.691-48.6557L77.0704-24.657L54.4498-48.6557C52.2713-51.0109 48.5749-50.9845 46.2301-48.6221C44.186-46.5605 44.1992-43.0132 46.4025-40.6332L70.2269-15.3476C74.1924-11.0841 79.9616-11.0682 83.9519-15.3184Z"/>
  </g>
  <g id="Semibold-L" transform="matrix(1 0 0 1 1966.99 1556)">
   <path d="M76.2549 29.745C111.889 29.745 141.294 0.383422 141.294-35.2511C141.294-70.8857 111.846-100.247 76.2116-100.247C40.6019-100.247 11.2588-70.8857 11.2588-35.2511C11.2588 0.383422 40.6453 29.745 76.2549 29.745ZM76.2549 17.065C47.3072 17.065 24.0071-6.26 24.0071-35.2511C24.0071-64.2423 47.2638-87.5672 76.2116-87.5672C105.203-87.5672 128.571-64.2423 128.571-35.2511C128.571-6.26 105.246 17.065 76.2549 17.065ZM82.5825-15.1225L107.019-40.9952C109.018-43.1372 109.08-46.3442 107.186-48.1828C105.062-50.2694 101.769-50.3497 99.8126-48.2325L76.2549-23.3439L52.6973-48.2325C50.7411-50.3497 47.4042-50.3127 45.3238-48.1828C43.4915-46.3009 43.51-43.1558 45.4911-41.0137L69.9708-15.141C73.7102-11.1352 78.8181-11.1351 82.5825-15.1225Z"/>
  </g>
  <g id="Medium-L" transform="matrix(1 0 0 1 1670.9 1556)">
   <path d="M75.6366 29.1187C110.91 29.1187 140.062 0.0138167 140.062-35.2592C140.062-70.5322 110.862-99.637 75.5892-99.637C40.3412-99.637 11.2588-70.5322 11.2588-35.2592C11.2588 0.0138167 40.3886 29.1187 75.6366 29.1187ZM75.6366 18.0048C46.1626 18.0048 22.4451-5.73774 22.4451-35.2592C22.4451-64.7806 46.1152-88.5232 75.5892-88.5232C105.111-88.5232 128.901-64.7806 128.901-35.2592C128.901-5.73774 105.158 18.0048 75.6366 18.0048ZM81.5442-14.9739L106.473-41.2917C108.308-43.2534 108.378-46.1515 106.637-47.8497C104.709-49.7559 101.692-49.8483 99.9047-47.9116L75.6366-22.3482L51.3686-47.9116C49.5808-49.8483 46.5165-49.8034 44.6367-47.8497C42.9648-46.104 42.9873-43.2639 44.8-41.3023L69.7765-14.9844C73.3446-11.174 77.9511-11.1859 81.5442-14.9739Z"/>
  </g>
  <g id="Regular-L" transform="matrix(1 0 0 1 1374.99 1556)">
   <path d="M74.8301 28.3017C109.632 28.3017 138.454-0.468277 138.454-35.2697C138.454-70.0711 109.579-98.8411 74.7774-98.8411C40.0011-98.8411 11.2588-70.0711 11.2588-35.2697C11.2588-0.468277 40.0538 28.3017 74.8301 28.3017ZM74.8301 19.2307C44.6697 19.2307 20.4076-5.05652 20.4076-35.2697C20.4076-65.4829 44.617-89.7701 74.7774-89.7701C104.991-89.7701 129.331-65.4829 129.331-35.2697C129.331-5.05652 105.043 19.2307 74.8301 19.2307ZM80.1898-14.7801L105.762-41.6786C107.382-43.4049 107.463-45.9 105.92-47.4153C104.249-49.0862 101.593-49.1943 100.025-47.4931L74.8301-21.0495L49.6354-47.4931C48.0674-49.1943 45.3586-49.139 43.7404-47.4153C42.2779-45.8473 42.3056-43.4049 43.8987-41.6786L69.5232-14.7801C72.8677-11.2245 76.8202-11.2522 80.1898-14.7801Z"/>
  </g>
  <g id="Light-L" transform="matrix(1 0 0 1 1079.2 1556)">
   <path d="M73.9141 27.3856C108.257 27.3856 136.603-0.926323 136.603-35.2697C136.603-69.6131 108.224-97.925 73.8804-97.925C39.5239-97.925 11.2588-69.6131 11.2588-35.2697C11.2588-0.926323 39.5576 27.3856 73.9141 27.3856ZM73.9141 20.4903C43.0857 20.4903 18.1746-4.40762 18.1746-35.2697C18.1746-66.1318 43.052-91.0297 73.8804-91.0297C104.742-91.0297 129.674-66.1318 129.674-35.2697C129.674-4.40762 104.776 20.4903 73.9141 20.4903ZM78.0332-14.5701L104.769-42.3275C106.065-43.6911 106.146-45.6328 104.87-46.8618C103.6-48.132 101.497-48.2591 100.235-46.8824L73.9141-19.5608L47.5932-46.8824C46.3306-48.2591 44.1944-48.1656 42.9579-46.8618C41.7626-45.5992 41.8094-43.6911 43.0589-42.3275L69.8286-14.5701C72.4287-11.8353 75.4461-11.882 78.0332-14.5701Z"/>
  </g>
  <g id="Thin-L" transform="matrix(1 0 0 1 783.716 1556)">
   <path d="M72.7024 26.174C106.44 26.174 134.155-1.53213 134.155-35.2697C134.155-69.0073 106.432-96.7134 72.694-96.7134C38.8929-96.7134 11.2588-69.0073 11.2588-35.2697C11.2588-1.53213 38.9013 26.174 72.7024 26.174ZM72.7024 22.1563C40.9906 22.1563 15.2214-3.5494 15.2214-35.2697C15.2214-66.99 40.9821-92.6957 72.694-92.6957C104.414-92.6957 130.128-66.99 130.128-35.2697C130.128-3.5494 104.423 22.1563 72.7024 22.1563ZM75.1809-14.2925L103.457-43.1857C104.324-44.0698 104.404-45.2795 103.482-46.1298C102.742-46.8699 101.371-47.0223 100.513-46.0747L72.7024-17.592L44.8924-46.0747C44.0336-47.0223 42.6546-46.8783 41.923-46.1298C41.0811-45.271 41.1531-44.0698 41.9483-43.1857L70.2325-14.2925C71.8482-12.643 73.6287-12.715 75.1809-14.2925Z"/>
  </g>
  <g id="Ultralight-L" transform="matrix(1 0 0 1 487.631 1556)">
   <path d="M72.0819 25.5534C105.509 25.5534 132.9-1.84242 132.9-35.2697C132.9-68.697 105.514-96.0928 72.0864-96.0928C38.5697-96.0928 11.2588-68.697 11.2588-35.2697C11.2588-1.84242 38.5652 25.5534 72.0819 25.5534ZM72.0819 23.0096C39.9175 23.0096 13.7087-3.10983 13.7087-35.2697C13.7087-67.4296 39.922-93.549 72.0864-93.549C104.246-93.549 130.361-67.4296 130.361-35.2697C130.361-3.10983 104.242 23.0096 72.0819 23.0096ZM73.7199-14.1503L102.784-43.6253C103.432-44.2637 103.512-45.0985 102.771-45.7548C102.302-46.2234 101.307-46.3888 100.655-45.6609L72.0819-16.5835L43.509-45.6609C42.8571-46.3888 41.866-46.2189 41.3929-45.7548C40.732-45.1029 40.8169-44.2637 41.3794-43.6253L70.4393-14.1503C71.5508-13.0567 72.6978-13.1416 73.7199-14.1503Z"/>
  </g>
  <g id="Black-M" transform="matrix(1 0 0 1 2871.36 1126)">
   <path d="M62.0422 18.116C91.4096 18.116 115.367-5.83621 115.367-35.2035C115.367-64.5709 91.4041-88.5231 62.0367-88.5231C32.6752-88.5231 8.72266-64.5709 8.72266-35.2035C8.72266-5.83621 32.6807 18.116 62.0422 18.116ZM62.0422 0.73415C42.1762 0.73415 26.1158-15.332 26.1158-35.2035C26.1158-55.0751 42.1707-71.1412 62.0367-71.1412C81.9083-71.1412 97.9799-55.0751 97.9799-35.2035C97.9799-15.332 81.9138 0.73415 62.0422 0.73415ZM68.7477-20.3675L85.4649-38.3458C87.7748-40.838 87.78-44.771 85.5956-46.8415C83.0458-49.2771 79.2165-49.2821 76.9121-46.7957L62.0422-30.7902L47.1723-46.7957C44.8679-49.2821 41.0332-49.2826 38.4889-46.8415C36.3097-44.7655 36.3094-40.8951 38.6196-38.4029L55.3423-20.4246C58.8943-16.5652 65.1899-16.5078 68.7477-20.3675Z"/>
  </g>
  <g id="Heavy-M" transform="matrix(1 0 0 1 2575.48 1126)">
   <path d="M61.2053 17.2657C90.0667 17.2657 113.704-6.35571 113.704-35.217C113.704-64.0783 90.0502-87.6997 61.1889-87.6997C32.3418-87.6997 8.72266-64.0783 8.72266-35.217C8.72266-6.35571 32.3582 17.2657 61.2053 17.2657ZM61.2053 2.03478C40.603 2.03478 23.9841-14.5983 23.9841-35.217C23.9841-55.8358 40.5866-72.4688 61.1889-72.4688C81.8077-72.4688 98.4571-55.8358 98.4571-35.217C98.4571-14.5983 81.8241 2.03478 61.2053 2.03478ZM67.4751-20.1642L84.766-38.7022C86.8707-40.9707 86.8894-44.5061 84.9025-46.4035C82.595-48.6238 79.1094-48.6447 77.0211-46.3905L61.2053-29.4454L45.3896-46.3905C43.3013-48.6447 39.7993-48.6402 37.5082-46.4035C35.5399-44.4897 35.5422-41.0143 37.6447-38.7459L54.952-20.2079C58.3773-16.4988 64.0356-16.4574 67.4751-20.1642Z"/>
  </g>
  <g id="Bold-M" transform="matrix(1 0 0 1 2279.69 1126)">
   <path d="M60.2692 16.3144C88.5644 16.3144 111.844-6.93686 111.844-35.2321C111.844-63.5273 88.5358-86.7786 60.2405-86.7786C31.9688-86.7786 8.72266-63.5273 8.72266-35.2321C8.72266-6.93686 31.9974 16.3144 60.2692 16.3144ZM60.2692 3.48972C38.8432 3.48972 21.5995-13.7775 21.5995-35.2321C21.5995-56.6867 38.8146-73.9539 60.2405-73.9539C81.6951-73.9539 98.991-56.6867 98.991-35.2321C98.991-13.7775 81.7238 3.48972 60.2692 3.48972ZM66.0515-19.9368L83.9842-39.101C85.8594-41.1191 85.8932-44.2098 84.1272-45.9136C82.0908-47.8929 78.9896-47.9318 77.143-45.9372L60.2692-27.9411L43.3953-45.9372C41.5487-47.9318 38.4189-47.9215 36.4112-45.9136C34.6789-44.1812 34.684-41.1476 36.5541-39.1295L54.5154-19.9654C57.799-16.4245 62.7444-16.4011 66.0515-19.9368Z"/>
  </g>
  <g id="Semibold-M" transform="matrix(1 0 0 1 1983.62 1126)">
   <path d="M59.6238 15.6586C87.5288 15.6586 110.562-7.33749 110.562-35.2425C110.562-63.1475 87.4917-86.1436 59.5867-86.1436C31.7117-86.1436 8.72266-63.1475 8.72266-35.2425C8.72266-7.33749 31.7487 15.6586 59.6238 15.6586ZM59.6238 4.49275C37.63 4.49275 19.9555-13.2117 19.9555-35.2425C19.9555-57.2733 37.5929-74.9777 59.5867-74.9777C81.6175-74.9777 99.359-57.2733 99.359-35.2425C99.359-13.2117 81.6546 4.49275 59.6238 4.49275ZM65.0701-19.78L83.4452-39.3758C85.1622-41.2214 85.2064-44.0056 83.5927-45.5759C81.7432-47.389 78.907-47.4403 77.227-45.6247L59.6238-26.904L42.0205-45.6247C40.3405-47.4403 37.4673-47.4261 35.6549-45.5759C34.0853-43.9685 34.0924-41.2395 35.8023-39.394L54.2144-19.7982C57.4004-16.3733 61.8543-16.3622 65.0701-19.78Z"/>
  </g>
  <g id="Medium-M" transform="matrix(1 0 0 1 1687.4 1126)">
   <path d="M59.1344 15.1614C86.7435 15.1614 109.59-7.64127 109.59-35.2504C109.59-62.8595 86.7001-85.6621 59.091-85.6621C31.5167-85.6621 8.72266-62.8595 8.72266-35.2504C8.72266-7.64127 31.5601 15.1614 59.1344 15.1614ZM59.1344 5.25329C36.7101 5.25329 18.709-12.7826 18.709-35.2504C18.709-57.7181 36.6666-75.754 59.091-75.754C81.5587-75.754 99.6381-57.7181 99.6381-35.2504C99.6381-12.7826 81.6021 5.25329 59.1344 5.25329ZM64.326-19.6612L83.0366-39.5842C84.6336-41.299 84.6856-43.8507 83.1874-45.3198C81.4796-47.007 78.8444-47.0676 77.2908-45.3877L59.1344-26.1176L40.978-45.3877C39.4244-47.0676 36.7458-47.0504 35.0814-45.3198C33.6352-43.8073 33.6438-41.3092 35.2322-39.5945L53.9862-19.6714C57.0981-16.3345 61.1793-16.3328 64.326-19.6612Z"/>
  </g>
  <g id="Regular-M" transform="matrix(1 0 0 1 1391.32 1126)">
   <path d="M58.4961 14.5128C85.7192 14.5128 108.321-8.0375 108.321-35.2606C108.321-62.4838 85.6675-85.0341 58.4443-85.0341C31.2624-85.0341 8.72266-62.4838 8.72266-35.2606C8.72266-8.0375 31.3141 14.5128 58.4961 14.5128ZM58.4961 6.24529C35.5102 6.24529 17.0831-12.223 17.0831-35.2606C17.0831-58.2983 35.4584-76.7666 58.4443-76.7666C81.482-76.7666 100.002-58.2983 100.002-35.2606C100.002-12.223 81.5337 6.24529 58.4961 6.24529ZM63.3554-19.5061L82.5035-39.8561C83.944-41.4002 84.0064-43.6487 82.6588-44.9857C81.1358-46.5087 78.7627-46.5815 77.3739-45.0787L58.4961-25.092L39.6183-45.0787C38.2295-46.5815 35.8046-46.5604 34.3334-44.9857C33.0481-43.5969 33.0587-41.4002 34.4887-39.8561L53.6885-19.5061C56.7038-16.2838 60.2989-16.2944 63.3554-19.5061Z"/>
  </g>
  <g id="Light-M" transform="matrix(1 0 0 1 1095.44 1126)">
   <path d="M57.6748 13.6915C84.4872 13.6915 106.662-8.44816 106.662-35.2606C106.662-62.0731 84.4526-84.2128 57.6401-84.2128C30.8346-84.2128 8.72266-62.0731 8.72266-35.2606C8.72266-8.44816 30.8693 13.6915 57.6748 13.6915ZM57.6748 7.37462C34.09 7.37462 15.0811-11.6412 15.0811-35.2606C15.0811-58.8801 34.0554-77.8959 57.6401-77.8959C81.2595-77.8959 100.31-58.8801 100.31-35.2606C100.31-11.6412 81.2942 7.37462 57.6748 7.37462ZM61.4219-19.3179L81.6137-40.4379C82.7634-41.6568 82.8257-43.4091 81.7177-44.4895C80.554-45.6531 78.6771-45.7431 77.5621-44.5311L57.6748-23.7573L37.7874-44.5311C36.6724-45.7431 34.7609-45.6878 33.6319-44.4895C32.5861-43.3745 32.6138-41.6568 33.7358-40.4379L53.9623-19.3179C56.3103-16.8314 59.0669-16.859 61.4219-19.3179Z"/>
  </g>
  <g id="Thin-M" transform="matrix(1 0 0 1 799.828 1126)">
   <path d="M56.5885 12.6052C82.8578 12.6052 104.466-8.9913 104.466-35.2606C104.466-61.53 82.8458-83.1265 56.5765-83.1265C30.2689-83.1265 8.72266-61.53 8.72266-35.2606C8.72266-8.9913 30.2809 12.6052 56.5885 12.6052ZM56.5885 8.86824C32.2117 8.86824 12.4333-10.8718 12.4333-35.2606C12.4333-59.6495 32.1996-79.3895 56.5765-79.3895C80.9653-79.3895 100.717-59.6495 100.717-35.2606C100.717-10.8718 80.9773 8.86824 56.5885 8.86824ZM58.8646-19.0689L80.4369-41.2073C81.2019-41.9963 81.2642-43.0923 80.473-43.8332C79.7846-44.5216 78.564-44.6342 77.811-43.8069L56.5885-21.9921L35.366-43.8069C34.613-44.6342 33.3804-44.5336 32.704-43.8332C31.9751-43.0803 32.0254-41.9963 32.7401-41.2073L54.3244-19.0689C55.7898-17.5556 57.4375-17.6058 58.8646-19.0689Z"/>
  </g>
  <g id="Ultralight-M" transform="matrix(1 0 0 1 503.679 1126)">
   <path d="M56.0321 12.0488C82.0233 12.0488 103.342-9.26949 103.342-35.2606C103.342-61.2518 82.0228-82.5701 56.0317-82.5701C29.9791-82.5701 8.72266-61.2518 8.72266-35.2606C8.72266-9.26949 29.9795 12.0488 56.0321 12.0488ZM56.0321 9.63326C31.2496 9.63326 11.0772-10.4777 11.0772-35.2606C11.0772-60.0436 31.2492-80.1545 56.0317-80.1545C80.8147-80.1545 100.926-60.0436 100.926-35.2606C100.926-10.4777 80.8151 9.63326 56.0321 9.63326ZM57.5548-18.9414L79.8342-41.6014C80.4021-42.1702 80.4644-42.93 79.8355-43.4971C79.3905-43.942 78.506-44.0662 77.9385-43.436L56.0321-21.088L34.1257-43.436C33.5582-44.0662 32.6733-43.9425 32.2288-43.4971C31.6621-42.9296 31.724-42.1702 32.23-41.6014L54.5099-18.9414C55.5232-17.9265 56.603-17.9884 57.5548-18.9414Z"/>
  </g>
  <g id="Black-S" transform="matrix(1 0 0 1 2884.57 696)">
   <path d="M48.8281 6.78711C71.9727 6.78711 90.8203-12.0605 90.8203-35.2051C90.8203-58.3496 71.9727-77.1973 48.8281-77.1973C25.6836-77.1973 6.83594-58.3496 6.83594-35.2051C6.83594-12.0605 25.6836 6.78711 48.8281 6.78711ZM48.8281-7.37305C33.4473-7.37305 20.9961-19.8242 20.9961-35.2051C20.9961-50.5859 33.4473-63.0371 48.8281-63.0371C64.209-63.0371 76.6602-50.5859 76.6602-35.2051C76.6602-19.8242 64.209-7.37305 48.8281-7.37305ZM54.1504-23.6328L67.1387-37.5977C68.9941-39.5996 68.9941-42.7734 67.2363-44.4336C65.1855-46.3867 62.1094-46.3867 60.2539-44.3848L48.8281-32.0801L37.4023-44.3848C35.5469-46.3867 32.4707-46.3867 30.4199-44.4336C28.6621-42.7734 28.6621-39.6484 30.5176-37.6465L43.5059-23.6816C46.2891-20.6543 51.3672-20.6055 54.1504-23.6328Z"/>
  </g>
  <g id="Heavy-S" transform="matrix(1 0 0 1 2588.47 696)">
   <path d="M48.2173 6.16479C70.9816 6.16479 89.6102-12.4524 89.6102-35.2166C89.6102-57.9808 70.97-76.598 48.2058-76.598C25.4531-76.598 6.83594-57.9808 6.83594-35.2166C6.83594-12.4524 25.4646 6.16479 48.2173 6.16479ZM48.2173-6.40499C32.2833-6.40499 19.4288-19.271 19.4288-35.2166C19.4288-51.1622 32.2718-64.0282 48.2058-64.0282C64.1514-64.0282 77.0289-51.1622 77.0289-35.2166C77.0289-19.271 64.1629-6.40499 48.2173-6.40499ZM53.3091-23.483L66.6546-37.8281C68.3718-39.6803 68.3833-42.5775 66.7638-44.1224C64.8744-45.9373 62.0287-45.9488 60.3231-44.1082L48.2173-31.1005L36.1116-44.1082C34.406-45.9488 31.5487-45.9488 29.6708-44.1224C28.0628-42.566 28.0628-39.7176 29.78-37.8654L43.1371-23.5203C45.8972-20.5275 50.5374-20.4902 53.3091-23.483Z"/>
  </g>
  <g id="Bold-S" transform="matrix(1 0 0 1 2292.43 696)">
   <path d="M47.5342 5.46875C69.873 5.46875 88.2568-12.8906 88.2568-35.2295C88.2568-57.5684 69.8486-75.9277 47.5098-75.9277C25.1953-75.9277 6.83594-57.5684 6.83594-35.2295C6.83594-12.8906 25.2197 5.46875 47.5342 5.46875ZM47.5342-5.32227C30.9814-5.32227 17.6758-18.6523 17.6758-35.2295C17.6758-51.8066 30.957-65.1367 47.5098-65.1367C64.0869-65.1367 77.4414-51.8066 77.4414-35.2295C77.4414-18.6523 64.1113-5.32227 47.5342-5.32227ZM52.3682-23.3154L66.1133-38.0859C67.6758-39.7705 67.7002-42.3584 66.2354-43.7744C64.5264-45.4346 61.9385-45.459 60.4004-43.7988L47.5342-30.0049L34.668-43.7988C33.1299-45.459 30.5176-45.459 28.833-43.7744C27.3926-42.334 27.3926-39.7949 28.9551-38.1104L42.7246-23.3398C45.459-20.3857 49.6094-20.3613 52.3682-23.3154Z"/>
  </g>
  <g id="Semibold-S" transform="matrix(1 0 0 1 1996.19 696)">
   <path d="M47.0632 4.98887C69.1088 4.98887 87.3237-13.1928 87.3237-35.2384C87.3237-57.284 69.0755-75.4656 47.0299-75.4656C25.0176-75.4656 6.83594-57.284 6.83594-35.2384C6.83594-13.1928 25.0509 4.98887 47.0632 4.98887ZM47.0632-4.57578C30.0839-4.57578 16.4672-18.2258 16.4672-35.2384C16.4672-52.251 30.0506-65.901 47.0299-65.901C64.0425-65.901 77.7258-52.251 77.7258-35.2384C77.7258-18.2258 64.0758-4.57578 47.0632-4.57578ZM51.7194-23.1999L65.74-38.2637C67.1959-39.8327 67.2292-42.2073 65.871-43.5345C64.2864-45.088 61.8763-45.1213 60.4537-43.5855L47.0632-29.2495L33.6727-43.5855C32.2501-45.1213 29.8066-45.1213 28.2554-43.5345C26.9305-42.174 26.9305-39.8482 28.3863-38.2792L42.4402-23.2154C45.1568-20.288 48.9695-20.2725 51.7194-23.1999Z"/>
  </g>
  <g id="Medium-S" transform="matrix(1 0 0 1 1699.83 696)">
   <path d="M46.7061 4.625C68.5293 4.625 86.6162-13.4219 86.6162-35.2451C86.6162-57.0684 68.4893-75.1152 46.666-75.1152C24.8828-75.1152 6.83594-57.0684 6.83594-35.2451C6.83594-13.4219 24.9229 4.625 46.7061 4.625ZM46.7061-4.00977C29.4033-4.00977 15.5508-17.9023 15.5508-35.2451C15.5508-52.5879 29.3633-66.4805 46.666-66.4805C64.0088-66.4805 77.9414-52.5879 77.9414-35.2451C77.9414-17.9023 64.0488-4.00977 46.7061-4.00977ZM51.2275-23.1123L65.457-38.3984C66.832-39.8799 66.8721-42.0928 65.5947-43.3525C64.1045-44.8252 61.8291-44.8652 60.4941-43.4238L46.7061-28.6768L32.918-43.4238C31.583-44.8652 29.2676-44.8652 27.8174-43.3525C26.5801-42.0527 26.5801-39.8887 27.9551-38.4072L42.2246-23.1211C44.9277-20.2139 48.4844-20.2051 51.2275-23.1123Z"/>
  </g>
  <g id="Regular-S" transform="matrix(1 0 0 1 1403.58 696)">
   <path d="M46.2402 4.15039C67.7734 4.15039 85.6934-13.7207 85.6934-35.2539C85.6934-56.7871 67.7246-74.6582 46.1914-74.6582C24.707-74.6582 6.83594-56.7871 6.83594-35.2539C6.83594-13.7207 24.7559 4.15039 46.2402 4.15039ZM46.2402-3.27148C28.5156-3.27148 14.3555-17.4805 14.3555-35.2539C14.3555-53.0273 28.4668-67.2363 46.1914-67.2363C63.9648-67.2363 78.2227-53.0273 78.2227-35.2539C78.2227-17.4805 64.0137-3.27148 46.2402-3.27148ZM50.5859-22.998L65.0879-38.5742C66.3574-39.9414 66.4062-41.9434 65.2344-43.1152C63.8672-44.4824 61.7676-44.5312 60.5469-43.2129L46.2402-27.9297L31.9336-43.2129C30.7129-44.5312 28.5645-44.5312 27.2461-43.1152C26.123-41.8945 26.123-39.9414 27.3926-38.5742L41.9434-22.998C44.6289-20.1172 47.8516-20.1172 50.5859-22.998Z"/>
  </g>
  <g id="Light-S" transform="matrix(1 0 0 1 1107.6 696)">
   <path d="M45.5137 3.42383C66.6836 3.42383 84.2251-14.084 84.2251-35.2539C84.2251-56.4238 66.6499-73.9316 45.48-73.9316C24.3286-73.9316 6.83594-56.4238 6.83594-35.2539C6.83594-14.084 24.3623 3.42383 45.5137 3.42383ZM45.5137-2.27247C27.2593-2.27247 12.5845-16.9658 12.5845-35.2539C12.5845-53.542 27.2256-68.2353 45.48-68.2353C63.7681-68.2353 78.4951-53.542 78.4951-35.2539C78.4951-16.9658 63.8018-2.27247 45.5137-2.27247ZM48.8755-22.8315L64.3008-39.0889C65.313-40.1685 65.3618-41.7314 64.4019-42.6763C63.3525-43.7256 61.6919-43.7896 60.7134-42.7285L45.5137-26.749L30.314-42.7285C29.3355-43.7896 27.6411-43.7593 26.6255-42.6763C25.7144-41.6978 25.7295-40.1685 26.7266-39.0889L42.1855-22.8315C44.2808-20.6016 46.7617-20.6167 48.8755-22.8315Z"/>
  </g>
  <g id="Thin-S" transform="matrix(1 0 0 1 811.863 696)">
   <path d="M44.5527 2.4629C65.2422 2.4629 82.2832-14.5644 82.2832-35.2539C82.2832-55.9434 65.2285-72.9707 44.5391-72.9707C23.8281-72.9707 6.83594-55.9434 6.83594-35.2539C6.83594-14.5644 23.8418 2.4629 44.5527 2.4629ZM44.5527-0.95119C25.5977-0.95119 10.2422-16.2852 10.2422-35.2539C10.2422-54.2226 25.584-69.5566 44.5391-69.5566C63.5078-69.5566 78.8555-54.2226 78.8555-35.2539C78.8555-16.2852 63.5215-0.95119 44.5527-0.95119ZM46.6133-22.6113L63.2598-39.7695C63.9317-40.4687 63.9805-41.4512 63.3008-42.0957C62.6719-42.7246 61.5918-42.8086 60.9336-42.0879L44.5527-25.1875L28.1719-42.0879C27.5137-42.8086 26.4199-42.7383 25.8047-42.0957C25.1738-41.4375 25.209-40.4687 25.8457-39.7695L42.5059-22.6113C43.8203-21.2422 45.3203-21.2773 46.6133-22.6113Z"/>
  </g>
  <g id="Ultralight-S" transform="matrix(1 0 0 1 515.649 696)">
   <path d="M44.0606 1.97072C64.5039 1.97072 81.2886-14.8105 81.2886-35.2539C81.2886-55.6973 64.5005-72.4785 44.0571-72.4785C23.5718-72.4785 6.83594-55.6973 6.83594-35.2539C6.83594-14.8105 23.5752 1.97072 44.0606 1.97072ZM44.0606-0.274438C24.7466-0.274438 9.04252-15.9365 9.04252-35.2539C9.04252-54.5713 24.7432-70.2334 44.0571-70.2334C63.3745-70.2334 79.04-54.5713 79.04-35.2539C79.04-15.9365 63.3779-0.274438 44.0606-0.274438ZM45.4546-22.4985L62.7266-40.1182C63.2241-40.6226 63.273-41.3076 62.7368-41.7984C62.3233-42.2119 61.5405-42.3062 61.0464-41.7598L44.0606-24.3877L27.0747-41.7598C26.5806-42.3062 25.7945-42.2154 25.3843-41.7984C24.897-41.3042 24.9424-40.6226 25.3945-40.1182L42.6699-22.4985C43.5845-21.5703 44.5821-21.6157 45.4546-22.4985Z"/>
  </g>
 </g>
</svg>
