<?xml version="1.0" encoding="UTF-8"?>
<!--Generator: Apple Native CoreSVG 232.5-->
<!DOCTYPE svg
PUBLIC "-//W3C//DTD SVG 1.1//EN"
       "http://www.w3.org/Graphics/SVG/1.1/DTD/svg11.dtd">
<svg version="1.1" xmlns="http://www.w3.org/2000/svg" xmlns:xlink="http://www.w3.org/1999/xlink" width="3300" height="2200">
 <g id="Notes">
  <rect height="2200" id="artboard" style="fill:white;opacity:1" width="3300" x="0" y="0"/>
  <line style="fill:none;stroke:black;opacity:1;stroke-width:0.5;" x1="263" x2="3036" y1="292" y2="292"/>
  <text style="stroke:none;fill:black;font-family:sans-serif;font-size:13;font-weight:bold;" transform="matrix(1 0 0 1 263 322)">Weight/Scale Variations</text>
  <text style="stroke:none;fill:black;font-family:sans-serif;font-size:13;text-anchor:middle;" transform="matrix(1 0 0 1 559.711 322)">Ultralight</text>
  <text style="stroke:none;fill:black;font-family:sans-serif;font-size:13;text-anchor:middle;" transform="matrix(1 0 0 1 856.422 322)">Thin</text>
  <text style="stroke:none;fill:black;font-family:sans-serif;font-size:13;text-anchor:middle;" transform="matrix(1 0 0 1 1153.13 322)">Light</text>
  <text style="stroke:none;fill:black;font-family:sans-serif;font-size:13;text-anchor:middle;" transform="matrix(1 0 0 1 1449.84 322)">Regular</text>
  <text style="stroke:none;fill:black;font-family:sans-serif;font-size:13;text-anchor:middle;" transform="matrix(1 0 0 1 1746.56 322)">Medium</text>
  <text style="stroke:none;fill:black;font-family:sans-serif;font-size:13;text-anchor:middle;" transform="matrix(1 0 0 1 2043.27 322)">Semibold</text>
  <text style="stroke:none;fill:black;font-family:sans-serif;font-size:13;text-anchor:middle;" transform="matrix(1 0 0 1 2339.98 322)">Bold</text>
  <text style="stroke:none;fill:black;font-family:sans-serif;font-size:13;text-anchor:middle;" transform="matrix(1 0 0 1 2636.69 322)">Heavy</text>
  <text style="stroke:none;fill:black;font-family:sans-serif;font-size:13;text-anchor:middle;" transform="matrix(1 0 0 1 2933.4 322)">Black</text>
  <line style="fill:none;stroke:black;opacity:1;stroke-width:0.5;" x1="263" x2="3036" y1="1903" y2="1903"/>
  <g transform="matrix(0.2 0 0 0.2 263 1933)">
   <path d="m46.2402 4.15039c21.5332 0 39.4531-17.8711 39.4531-39.4043s-17.9688-39.4043-39.502-39.4043c-21.4844 0-39.3555 17.8711-39.3555 39.4043s17.9199 39.4043 39.4043 39.4043Zm0-7.42188c-17.7246 0-31.8848-14.209-31.8848-31.9824s14.1113-31.9824 31.8359-31.9824c17.7734 0 32.0312 14.209 32.0312 31.9824s-14.209 31.9824-31.9824 31.9824Zm-17.9688-31.9824c0 2.14844 1.51367 3.61328 3.75977 3.61328h10.498v10.5957c0 2.19727 1.46484 3.71094 3.61328 3.71094 2.24609 0 3.71094-1.51367 3.71094-3.71094v-10.5957h10.5957c2.19727 0 3.71094-1.46484 3.71094-3.61328 0-2.19727-1.51367-3.71094-3.71094-3.71094h-10.5957v-10.5469c0-2.24609-1.46484-3.75977-3.71094-3.75977-2.14844 0-3.61328 1.51367-3.61328 3.75977v10.5469h-10.498c-2.24609 0-3.75977 1.51367-3.75977 3.71094Z"/>
  </g>
  <g transform="matrix(0.2 0 0 0.2 281.506 1933)">
   <path d="m58.5449 14.5508c27.2461 0 49.8047-22.6074 49.8047-49.8047 0-27.2461-22.6074-49.8047-49.8535-49.8047-27.1973 0-49.7559 22.5586-49.7559 49.8047 0 27.1973 22.6074 49.8047 49.8047 49.8047Zm0-8.30078c-23.0469 0-41.4551-18.457-41.4551-41.5039s18.3594-41.5039 41.4062-41.5039 41.5527 18.457 41.5527 41.5039-18.457 41.5039-41.5039 41.5039Zm-22.6562-41.5039c0 2.39258 1.66016 4.00391 4.15039 4.00391h14.3555v14.4043c0 2.44141 1.66016 4.15039 4.05273 4.15039 2.44141 0 4.15039-1.66016 4.15039-4.15039v-14.4043h14.4043c2.44141 0 4.15039-1.61133 4.15039-4.00391 0-2.44141-1.70898-4.15039-4.15039-4.15039h-14.4043v-14.3555c0-2.49023-1.70898-4.19922-4.15039-4.19922-2.39258 0-4.05273 1.70898-4.05273 4.19922v14.3555h-14.3555c-2.49023 0-4.15039 1.70898-4.15039 4.15039Z"/>
  </g>
  <g transform="matrix(0.2 0 0 0.2 304.924 1933)">
   <path d="m74.8535 28.3203c34.8145 0 63.623-28.8086 63.623-63.5742 0-34.8145-28.8574-63.623-63.6719-63.623-34.7656 0-63.5254 28.8086-63.5254 63.623 0 34.7656 28.8086 63.5742 63.5742 63.5742Zm0-9.08203c-30.1758 0-54.4434-24.3164-54.4434-54.4922 0-30.2246 24.2188-54.4922 54.3945-54.4922 30.2246 0 54.541 24.2676 54.541 54.4922 0 30.1758-24.2676 54.4922-54.4922 54.4922Zm-28.8574-54.4922c0 2.58789 1.85547 4.39453 4.58984 4.39453h19.7266v19.7754c0 2.68555 1.85547 4.58984 4.44336 4.58984 2.68555 0 4.54102-1.85547 4.54102-4.58984v-19.7754h19.7754c2.68555 0 4.58984-1.80664 4.58984-4.39453 0-2.73438-1.85547-4.58984-4.58984-4.58984h-19.7754v-19.7266c0-2.73438-1.85547-4.63867-4.54102-4.63867-2.58789 0-4.44336 1.9043-4.44336 4.63867v19.7266h-19.7266c-2.73438 0-4.58984 1.85547-4.58984 4.58984Z"/>
  </g>
  <text style="stroke:none;fill:black;font-family:sans-serif;font-size:13;font-weight:bold;" transform="matrix(1 0 0 1 263 1953)">Design Variations</text>
  <text style="stroke:none;fill:black;font-family:sans-serif;font-size:13;" transform="matrix(1 0 0 1 263 1971)">Symbols are supported in up to nine weights and three scales.</text>
  <text style="stroke:none;fill:black;font-family:sans-serif;font-size:13;" transform="matrix(1 0 0 1 263 1989)">For optimal layout with text and other symbols, vertically align</text>
  <text style="stroke:none;fill:black;font-family:sans-serif;font-size:13;" transform="matrix(1 0 0 1 263 2007)">symbols with the adjacent text.</text>
  <line style="fill:none;stroke:#00AEEF;stroke-width:0.5;opacity:1.0;" x1="776" x2="776" y1="1919" y2="1933"/>
  <g transform="matrix(0.2 0 0 0.2 776 1933)">
   <path d="m16.5527 0.78125c2.58789 0 3.85742-0.976562 4.78516-3.71094l6.29883-17.2363h28.8086l6.29883 17.2363c0.927734 2.73438 2.19727 3.71094 4.73633 3.71094 2.58789 0 4.24805-1.5625 4.24805-4.00391 0-0.830078-0.146484-1.61133-0.537109-2.63672l-22.9004-60.9863c-1.12305-2.97852-3.125-4.49219-6.25-4.49219-3.02734 0-5.07812 1.46484-6.15234 4.44336l-22.9004 61.084c-0.390625 1.02539-0.537109 1.80664-0.537109 2.63672 0 2.44141 1.5625 3.95508 4.10156 3.95508Zm13.4766-28.3691 11.8652-32.8613h0.244141l11.8652 32.8613Z"/>
  </g>
  <line style="fill:none;stroke:#00AEEF;stroke-width:0.5;opacity:1.0;" x1="792.836" x2="792.836" y1="1919" y2="1933"/>
  <text style="stroke:none;fill:black;font-family:sans-serif;font-size:13;font-weight:bold;" transform="matrix(1 0 0 1 776 1953)">Margins</text>
  <text style="stroke:none;fill:black;font-family:sans-serif;font-size:13;" transform="matrix(1 0 0 1 776 1971)">Leading and trailing margins on the left and right side of each symbol</text>
  <text style="stroke:none;fill:black;font-family:sans-serif;font-size:13;" transform="matrix(1 0 0 1 776 1989)">can be adjusted by modifying the x-location of the margin guidelines.</text>
  <text style="stroke:none;fill:black;font-family:sans-serif;font-size:13;" transform="matrix(1 0 0 1 776 2007)">Modifications are automatically applied proportionally to all</text>
  <text style="stroke:none;fill:black;font-family:sans-serif;font-size:13;" transform="matrix(1 0 0 1 776 2025)">scales and weights.</text>
  <g transform="matrix(0.2 0 0 0.2 1289 1933)">
   <path d="m14.209 9.32617 8.49609 8.54492c4.29688 4.3457 9.22852 4.05273 13.8672-1.07422l53.4668-58.9355-4.83398-4.88281-53.0762 58.3984c-1.75781 2.00195-3.41797 2.49023-5.76172 0.146484l-5.85938-5.81055c-2.34375-2.29492-1.80664-4.00391 0.195312-5.81055l57.373-54.0039-4.88281-4.83398-57.959 54.4434c-4.93164 4.58984-5.32227 9.47266-1.02539 13.8184Zm32.0801-90.9668c-2.09961 2.05078-2.24609 4.93164-1.07422 6.88477 1.17188 1.80664 3.4668 2.97852 6.68945 2.14844 7.32422-1.70898 14.9414-2.00195 22.0703 2.68555l-2.92969 7.27539c-1.70898 4.15039-0.830078 7.08008 1.85547 9.81445l11.4746 11.5723c2.44141 2.44141 4.49219 2.53906 7.32422 2.05078l5.32227-0.976562 3.32031 3.36914-0.195312 2.7832c-0.195312 2.49023 0.439453 4.39453 2.88086 6.78711l3.80859 3.71094c2.39258 2.39258 5.46875 2.53906 7.8125 0.195312l14.5508-14.5996c2.34375-2.34375 2.24609-5.32227-0.146484-7.71484l-3.85742-3.80859c-2.39258-2.39258-4.24805-3.17383-6.64062-2.97852l-2.88086 0.244141-3.22266-3.17383 1.2207-5.61523c0.634766-2.83203-0.146484-5.0293-3.07617-7.95898l-10.9863-10.9375c-16.6992-16.6016-38.8672-16.2109-53.3203-1.75781Zm7.4707 1.85547c12.1582-8.88672 28.6133-7.37305 39.7461 3.75977l12.1582 12.0605c1.17188 1.17188 1.36719 2.09961 1.02539 3.80859l-1.61133 7.42188 7.51953 7.42188 4.93164-0.292969c1.26953-0.0488281 1.66016 0.0488281 2.63672 1.02539l2.88086 2.88086-12.207 12.207-2.88086-2.88086c-0.976562-0.976562-1.12305-1.36719-1.07422-2.68555l0.341797-4.88281-7.4707-7.42188-7.61719 1.26953c-1.61133 0.341797-2.34375 0.195312-3.56445-0.976562l-10.0098-10.0098c-1.26953-1.17188-1.41602-2.00195-0.634766-3.85742l4.39453-10.4492c-7.8125-7.27539-17.9688-10.4004-28.125-7.42188-0.78125 0.195312-1.07422-0.439453-0.439453-0.976562Z"/>
  </g>
  <text style="stroke:none;fill:black;font-family:sans-serif;font-size:13;font-weight:bold;" transform="matrix(1 0 0 1 1289 1953)">Exporting</text>
  <text style="stroke:none;fill:black;font-family:sans-serif;font-size:13;" transform="matrix(1 0 0 1 1289 1971)">Symbols should be outlined when exporting to ensure the</text>
  <text style="stroke:none;fill:black;font-family:sans-serif;font-size:13;" transform="matrix(1 0 0 1 1289 1989)">design is preserved when submitting to Xcode.</text>
  <text id="template-version" style="stroke:none;fill:black;font-family:sans-serif;font-size:13;text-anchor:end;" transform="matrix(1 0 0 1 3036 1933)">Template v.2.0</text>
  <text style="stroke:none;fill:black;font-family:sans-serif;font-size:13;text-anchor:end;" transform="matrix(1 0 0 1 3036 1951)">Requires Xcode 12 or greater</text>
  <text id="descriptive-name" style="stroke:none;fill:black;font-family:sans-serif;font-size:13;text-anchor:end;" transform="matrix(1 0 0 1 3036 1969)">Generated from delete.backward</text>
  <text style="stroke:none;fill:black;font-family:sans-serif;font-size:13;text-anchor:end;" transform="matrix(1 0 0 1 3036 1987)">Typeset at 100.0 points</text>
  <text style="stroke:none;fill:black;font-family:sans-serif;font-size:13;" transform="matrix(1 0 0 1 263 726)">Small</text>
  <text style="stroke:none;fill:black;font-family:sans-serif;font-size:13;" transform="matrix(1 0 0 1 263 1156)">Medium</text>
  <text style="stroke:none;fill:black;font-family:sans-serif;font-size:13;" transform="matrix(1 0 0 1 263 1586)">Large</text>
 </g>
 <g id="Guides">
  <g id="H-reference" style="fill:#27AAE1;stroke:none;" transform="matrix(1 0 0 1 339 696)">
   <path d="M0.993654 0L3.63775 0L29.3281-67.1323L30.0303-67.1323L30.0303-70.459L28.1226-70.459ZM11.6885-24.4799L46.9815-24.4799L46.2315-26.7285L12.4385-26.7285ZM55.1196 0L57.7637 0L30.6382-70.459L29.4326-70.459L29.4326-67.1323Z"/>
  </g>
  <line id="Baseline-S" style="fill:none;stroke:#27AAE1;opacity:1;stroke-width:0.5;" x1="263" x2="3036" y1="696" y2="696"/>
  <line id="Capline-S" style="fill:none;stroke:#27AAE1;opacity:1;stroke-width:0.5;" x1="263" x2="3036" y1="625.541" y2="625.541"/>
  <g id="H-reference" style="fill:#27AAE1;stroke:none;" transform="matrix(1 0 0 1 339 1126)">
   <path d="M0.993654 0L3.63775 0L29.3281-67.1323L30.0303-67.1323L30.0303-70.459L28.1226-70.459ZM11.6885-24.4799L46.9815-24.4799L46.2315-26.7285L12.4385-26.7285ZM55.1196 0L57.7637 0L30.6382-70.459L29.4326-70.459L29.4326-67.1323Z"/>
  </g>
  <line id="Baseline-M" style="fill:none;stroke:#27AAE1;opacity:1;stroke-width:0.5;" x1="263" x2="3036" y1="1126" y2="1126"/>
  <line id="Capline-M" style="fill:none;stroke:#27AAE1;opacity:1;stroke-width:0.5;" x1="263" x2="3036" y1="1055.54" y2="1055.54"/>
  <g id="H-reference" style="fill:#27AAE1;stroke:none;" transform="matrix(1 0 0 1 339 1556)">
   <path d="M0.993654 0L3.63775 0L29.3281-67.1323L30.0303-67.1323L30.0303-70.459L28.1226-70.459ZM11.6885-24.4799L46.9815-24.4799L46.2315-26.7285L12.4385-26.7285ZM55.1196 0L57.7637 0L30.6382-70.459L29.4326-70.459L29.4326-67.1323Z"/>
  </g>
  <line id="Baseline-L" style="fill:none;stroke:#27AAE1;opacity:1;stroke-width:0.5;" x1="263" x2="3036" y1="1556" y2="1556"/>
  <line id="Capline-L" style="fill:none;stroke:#27AAE1;opacity:1;stroke-width:0.5;" x1="263" x2="3036" y1="1485.54" y2="1485.54"/>
  <line id="left-margin" style="fill:none;stroke:#00AEEF;stroke-width:0.5;opacity:1.0;" x1="1385.73" x2="1385.73" y1="1030.79" y2="1150.12"/>
  <line id="right-margin" style="fill:none;stroke:#00AEEF;stroke-width:0.5;opacity:1.0;" x1="1513.96" x2="1513.96" y1="1030.79" y2="1150.12"/>
 </g>
 <g id="Symbols">
  <g id="Black-L" transform="matrix(1 0 0 1 2848.49 1556)">
   <path d="M129.964 26.4225C145.086 26.4225 153.735 19.976 153.735 4.87438L153.735-73.0895C153.735-88.1912 145.086-96.7987 129.964-96.7987L76.2597-96.7987C64.1577-96.7987 58.5665-94.1185 51.2081-85.4711L20.5166-49.8951C14.2829-42.5697 12.8672-39.3443 12.8672-35.2125C12.8672-31.0223 14.3777-27.6789 20.5166-20.4702L51.2289 15.0281C58.6469 23.7339 64.1201 26.4017 76.2221 26.4017ZM127.233 6.42071L74.5827 6.42071C71.4262 6.42071 69.1776 5.45854 66.8457 2.73582L36.2567-32.3873C35.3463-33.3768 35.0098-34.3495 35.0098-35.2125C35.0098-36.1327 35.3099-36.9301 36.2567-37.9781L66.8249-73.2735C69.1568-75.9963 71.4262-76.7969 74.5619-76.7969L127.233-76.7969C131.549-76.7969 133.734-74.8667 133.734-70.2547L133.734-0.121475C133.734 4.51135 131.549 6.42071 127.233 6.42071ZM77.1525-9.1946C79.5434-9.1946 81.4402-9.9464 83.0042-11.5312L95.2337-23.7231L107.544-11.5312C109.086-9.96721 110.985-9.1946 113.395-9.1946C117.864-9.1946 121.266-12.6362 121.266-17.1617C121.266-19.1634 120.417-21.0794 118.892-22.6046L106.543-35.0117L118.913-47.4604C120.459-48.9856 121.287-50.9016 121.287-52.8813C121.287-57.4079 117.884-60.8079 113.416-60.8079C111.047-60.8079 109.19-60.0966 107.605-58.4922L95.2337-46.2199L82.9625-58.4714C81.3986-60.0549 79.5434-60.7663 77.1525-60.7663C72.683-60.7663 69.261-57.3871 69.261-52.8605C69.261-50.8808 70.1308-48.9439 71.656-47.4396L84.0631-35.0117L71.656-22.5838C70.1308-21.0794 69.261-19.1426 69.261-17.1617C69.261-12.6362 72.683-9.1946 77.1525-9.1946Z"/>
  </g>
  <g id="Heavy-L" transform="matrix(1 0 0 1 2552.39 1556)">
   <path d="M129.767 25.5159C144.35 25.5159 152.515 19.0623 152.515 4.50998L152.515-73.2263C152.515-87.7786 144.35-95.8832 129.767-95.8832L75.8675-95.8832C64.8892-95.8832 59.1691-93.3888 52.3368-85.5289L20.093-49.2207C14.3809-42.6506 12.8672-39.3129 12.8672-35.2307C12.8672-31.1039 14.4344-27.6713 20.093-21.1905L52.3669 14.9833C59.2495 22.8879 64.8747 25.4857 75.853 25.4857ZM127.643 7.98528L74.5577 7.98528C71.003 7.98528 68.5503 6.96623 65.9769 4.07033L33.8494-31.7596C32.6418-33.042 32.2237-34.1641 32.2237-35.2307C32.2237-36.3363 32.633-37.3245 33.8494-38.6515L65.9467-74.6694C68.5201-77.5653 71.003-78.3526 74.5275-78.3526L127.643-78.3526C132.481-78.3526 134.984-76.0579 134.984-70.9511L134.984 0.583786C134.984 5.72074 132.481 7.98528 127.643 7.98528ZM75.6031-9.08394C77.7387-9.08394 79.4591-9.77725 80.8724-11.2208L94.5121-24.846L108.232-11.2208C109.61-9.80743 111.341-9.08394 113.501-9.08394C117.543-9.08394 120.632-12.2222 120.632-16.3025C120.632-18.1503 119.874-19.8661 118.481-21.2595L104.74-35.0442L118.511-48.8893C119.934-50.2826 120.662-51.9984 120.662-53.8104C120.662-57.8964 117.573-60.9743 113.532-60.9743C111.432-60.9743 109.761-60.3357 108.317-58.8676L94.5121-45.162L80.8121-58.8374C79.3987-60.2753 77.7387-60.9139 75.6031-60.9139C71.5562-60.9139 68.4425-57.8662 68.4425-53.7802C68.4425-51.9682 69.2307-50.2222 70.624-48.8591L84.4087-35.0442L70.624-21.2293C69.2307-19.8661 68.4425-18.1201 68.4425-16.3025C68.4425-12.2222 71.5562-9.08394 75.6031-9.08394Z"/>
  </g>
  <g id="Bold-L" transform="matrix(1 0 0 1 2256.54 1556)">
   <path d="M129.327 24.3865C143.204 24.3865 150.785 17.9625 150.785 4.12376L150.785-73.3953C150.785-87.2341 143.204-94.7386 129.327-94.7386L75.3163-94.7386C65.6245-94.7386 59.8325-92.4897 53.6234-85.5534L19.563-48.3832C14.4666-42.6984 12.8672-39.267 12.8672-35.2537C12.8672-31.2113 14.4738-27.7083 19.563-22.0819L53.6614 14.8475C59.9129 21.813 65.6333 24.3485 75.3251 24.3485ZM127.882 9.90678L74.4226 9.90678C70.3985 9.90678 67.6773 8.78127 64.8043 5.67025L30.8755-30.9611C29.314-32.5898 28.7885-33.9113 28.7885-35.2537C28.7885-36.6122 29.336-37.846 30.8755-39.5039L64.7663-76.3833C67.6394-79.4944 70.3985-80.2589 74.3846-80.2589L127.882-80.2589C133.402-80.2589 136.305-77.5109 136.305-71.7596L136.305 1.40752C136.305 7.19674 133.402 9.90678 127.882 9.90678ZM73.6077-9.03509C75.4282-9.03509 76.9109-9.64424 78.1398-10.9111L93.5014-26.2815L108.943-10.9111C110.121-9.68223 111.63-9.03509 113.476-9.03509C116.964-9.03509 119.647-11.767 119.647-15.2718C119.647-16.9127 119.004-18.3751 117.78-19.5995L102.333-35.0752L117.818-50.6268C119.08-51.8513 119.685-53.3137 119.685-54.9033C119.685-58.4214 117.002-61.0773 113.514-61.0773C111.744-61.0773 110.311-60.5309 109.044-59.2393L93.5014-43.7885L78.0638-59.2013C76.8349-60.455 75.4282-61.0014 73.6077-61.0014C70.1056-61.0014 67.3984-58.3834 67.3984-54.8654C67.3984-53.2757 68.0792-51.7753 69.3037-50.5889L84.7793-35.0752L69.3037-19.5616C68.0792-18.3751 67.3984-16.8747 67.3984-15.2718C67.3984-11.767 70.1056-9.03509 73.6077-9.03509Z"/>
  </g>
  <g id="Semibold-L" transform="matrix(1 0 0 1 1960.43 1556)">
   <path d="M129.024 23.608C142.415 23.608 149.592 17.2043 149.592 3.8575L149.592-73.5119C149.592-86.8587 142.415-93.9496 129.024-93.9496L74.9363-93.9496C66.1314-93.9496 60.2898-91.8698 54.5105-85.5703L19.1976-47.8058C14.5256-42.7313 12.8672-39.2353 12.8672-35.2696C12.8672-31.2853 14.5009-27.7338 19.1976-22.6964L54.5538 14.7539C60.3703 21.0719 66.1562 23.5646 74.9611 23.5646ZM128.046 11.2314L74.3295 11.2314C69.9817 11.2314 67.0755 10.0326 63.9959 6.77322L28.8253-30.4107C27.0198-32.2781 26.4203-33.737 26.4203-35.2696C26.4203-36.8023 27.0631-38.2055 28.8253-40.0915L63.9525-77.565C67.0322-80.8243 69.9817-81.573 74.2861-81.573L128.046-81.573C134.038-81.573 137.216-78.5125 137.216-72.317L137.216 1.97539C137.216 8.21429 134.038 11.2314 128.046 11.2314ZM72.232-9.00141C73.8353-9.00141 75.1542-9.55255 76.256-10.6976L92.8047-27.2711L109.434-10.6976C110.474-9.59592 111.83-9.00141 113.458-9.00141C116.566-9.00141 118.968-11.4533 118.968-14.5613C118.968-16.0594 118.404-17.3472 117.296-18.4552L100.673-35.0966L117.34-51.8247C118.491-52.9328 119.011-54.2205 119.011-55.6568C119.011-58.7833 116.609-61.1484 113.501-61.1484C111.96-61.1484 110.691-60.6655 109.545-59.4956L92.8047-42.8416L76.1692-59.4522C75.0675-60.5788 73.8353-61.0617 72.232-61.0617C69.1056-61.0617 66.6787-58.7399 66.6787-55.6134C66.6787-54.1771 67.2854-52.846 68.3935-51.7814L85.0348-35.0966L68.3935-18.4118C67.2854-17.3472 66.6787-16.0161 66.6787-14.5613C66.6787-11.4533 69.1056-9.00141 72.232-9.00141Z"/>
  </g>
  <g id="Medium-L" transform="matrix(1 0 0 1 1664.17 1556)">
   <path d="M128.795 23.0176C141.816 23.0176 148.688 16.6294 148.688 3.65561L148.688-73.6003C148.688-86.574 141.816-93.3513 128.795-93.3513L74.6481-93.3513C66.5157-93.3513 60.6366-91.3998 55.1831-85.5831L18.9205-47.368C14.5704-42.7562 12.8672-39.2114 12.8672-35.2817C12.8672-31.3414 14.5215-27.7531 18.9205-23.1623L55.2305 14.6829C60.717 20.51 66.5527 22.9702 74.6851 22.9702ZM128.171 12.2359L74.2589 12.2359C69.6657 12.2359 66.6192 10.9813 63.3829 7.60953L27.2707-29.9933C25.2803-32.0417 24.6246-33.6048 24.6246-35.2817C24.6246-36.9466 25.3396-38.4781 27.2707-40.537L63.3355-78.4609C66.5717-81.8327 69.6657-82.5695 74.2114-82.5695L128.171-82.5695C134.519-82.5695 137.906-79.272 137.906-72.7396L137.906 2.40598C137.906 8.98584 134.519 12.2359 128.171 12.2359ZM71.189-8.97588C72.6275-8.97588 73.8223-9.48302 74.8275-10.5358L92.2764-28.0215L109.806-10.5358C110.741-9.53047 111.981-8.97588 113.444-8.97588C116.263-8.97588 118.453-11.2153 118.453-14.0225C118.453-15.4125 117.95-16.5678 116.93-17.5875L99.4151-35.1128L116.977-52.733C118.045-53.7528 118.5-54.908 118.5-56.2281C118.5-59.0577 116.311-61.2023 113.492-61.2023C112.123-61.2023 110.978-60.7676 109.925-59.6899L92.2764-42.1237L74.7327-59.6424C73.7274-60.6727 72.6275-61.1074 71.189-61.1074C68.3474-61.1074 66.1329-59.0103 66.1329-56.1807C66.1329-54.8606 66.6835-53.6579 67.7033-52.6856L85.2286-35.1128L67.7033-17.5401C66.6835-16.5678 66.1329-15.365 66.1329-14.0225C66.1329-11.2153 68.3474-8.97588 71.189-8.97588Z"/>
  </g>
  <g id="Regular-L" transform="matrix(1 0 0 1 1368.05 1556)">
   <path d="M128.495 22.2476C141.035 22.2476 147.509 15.8795 147.509 3.39227L147.509-73.7155C147.509-86.2028 141.035-92.5709 128.495-92.5709L74.2723-92.5709C67.0171-92.5709 61.0889-90.7867 56.0603-85.5998L18.5592-46.797C14.6288-42.7888 12.8672-39.1801 12.8672-35.2974C12.8672-31.4146 14.5484-27.7783 18.5592-23.77L56.1131 14.5903C61.1694 19.7771 67.0698 22.1948 74.3251 22.1948ZM128.334 13.546L74.1668 13.546C69.2535 13.546 66.024 12.2189 62.5834 8.70038L25.243-29.4489C23.0113-31.7334 22.2824-33.4324 22.2824-35.2974C22.2824-37.1347 23.0917-38.8337 25.243-41.1182L62.5306-79.6295C65.9712-83.148 69.2535-83.8692 74.114-83.8692L128.334-83.8692C135.148-83.8692 138.807-80.2627 138.807-73.2909L138.807 2.96762C138.807 9.9922 135.148 13.546 128.334 13.546ZM69.8284-8.94258C71.0522-8.94258 72.0849-9.39234 72.9644-10.3246L91.5873-29.0003L110.291-10.3246C111.09-9.4451 112.178-8.94258 113.427-8.94258C115.869-8.94258 117.781-10.905 117.781-13.3198C117.781-14.5686 117.357-15.5511 116.452-16.4558L97.7737-35.134L116.505-53.9177C117.462-54.8223 117.834-55.8048 117.834-56.9733C117.834-59.4157 115.922-61.2726 113.479-61.2726C112.336-61.2726 111.354-60.9007 110.421-59.9433L91.5873-41.1872L72.8589-59.8906C71.9794-60.7952 71.0522-61.1671 69.8284-61.1671C67.3583-61.1671 65.421-59.3629 65.421-56.9205C65.421-55.7521 65.8984-54.7168 66.8031-53.8649L85.4813-35.134L66.8031-16.403C65.8984-15.5511 65.421-14.5159 65.421-13.3198C65.421-10.905 67.3583-8.94258 69.8284-8.94258Z"/>
  </g>
  <g id="Light-L" transform="matrix(1 0 0 1 1072.63 1556)">
   <path d="M126.93 21.4269C138.745 21.4269 144.913 15.3261 144.913 3.54496L144.913-73.83C144.913-85.6111 138.745-91.712 126.93-91.712L73.4707-91.712C66.4254-91.712 61.0126-90.1951 56.2321-85.3135L18.1584-46.2054C14.457-42.4834 12.8672-39.1037 12.8672-35.3164C12.8672-31.5292 14.3766-28.1027 18.1584-24.3808L56.2658 13.9795C61.093 18.861 66.4591 21.3933 73.5044 21.3933ZM126.769 14.7674L73.4034 14.7674C68.3183 14.7674 64.8025 13.1349 61.152 9.46379L23.2391-28.7618C20.8546-31.1799 20.0112-33.108 20.0112-35.3164C20.0112-37.4782 20.9351-39.4062 23.2391-41.8243L61.1183-80.7174C64.7688-84.3885 68.3183-85.0525 73.3697-85.0525L126.769-85.0525C134.289-85.0525 138.253-81.1215 138.253-73.5008L138.253 3.21573C138.253 10.8701 134.289 14.7674 126.769 14.7674ZM67.9581-9.47696C68.9719-9.47696 69.7183-9.79313 70.4833-10.5918L90.1368-30.279L109.871-10.5918C110.555-9.82681 111.395-9.47696 112.396-9.47696C114.304-9.47696 115.815-10.9623 115.815-12.8236C115.815-13.8243 115.486-14.5969 114.734-15.3488L94.9873-35.0958L114.768-54.9101C115.554-55.6621 115.849-56.4346 115.849-57.355C115.849-59.263 114.338-60.681 112.43-60.681C111.496-60.681 110.724-60.3854 109.925-59.5998L90.1368-39.8322L70.416-59.5661C69.6509-60.318 68.9719-60.6136 67.9581-60.6136C66.0033-60.6136 64.5049-59.2293 64.5049-57.3213C64.5049-56.401 64.8678-55.5947 65.6198-54.8765L85.3668-35.0958L65.6198-15.3151C64.8678-14.5969 64.5049-13.7906 64.5049-12.8236C64.5049-10.9623 66.0033-9.47696 67.9581-9.47696Z"/>
  </g>
  <g id="Thin-L" transform="matrix(1 0 0 1 777.64 1556)">
   <path d="M124.86 20.3415C135.716 20.3415 141.48 14.594 141.48 3.74689L141.48-73.9815C141.48-84.8286 135.716-90.5761 124.86-90.5761L72.4106-90.5761C65.6429-90.5761 60.9116-89.4126 56.4593-84.9349L17.6283-45.4229C14.2298-42.0795 12.8672-39.0028 12.8672-35.3417C12.8672-31.6806 14.1494-28.5319 17.6283-25.1885L56.4677 13.1718C60.992 17.6494 65.6514 20.3331 72.419 20.3331ZM124.699 16.3829L72.3937 16.3829C67.0815 16.3829 63.187 14.3466 59.2588 10.4735L20.5887-27.8531C18.0023-30.4479 17.0075-32.6788 17.0075-35.3417C17.0075-37.9325 18.0827-40.1635 20.5887-42.7583L59.2504-82.1562C63.1786-86.0293 67.0815-86.6175 72.3853-86.6175L124.699-86.6175C133.153-86.6175 137.521-82.2574 137.521-73.7785L137.521 3.54387C137.521 12.0312 133.153 16.3829 124.699 16.3829ZM65.4844-10.1837C66.2205-10.1837 66.5883-10.3232 67.2019-10.9452L88.2184-31.9702L109.315-10.9452C109.849-10.3316 110.36-10.1837 111.033-10.1837C112.234-10.1837 113.216-11.038 113.216-12.1673C113.216-12.8399 113.013-13.3348 112.463-13.8848L91.302-35.0453L112.471-56.2227C113.029-56.7727 113.224-57.2676 113.224-57.8598C113.224-59.0611 112.243-59.8985 111.041-59.8985C110.386-59.8985 109.891-59.7039 109.269-59.1454L88.2184-38.04L67.185-59.137C66.5714-59.687 66.2205-59.8816 65.4844-59.8816C64.2111-59.8816 63.2933-59.0526 63.2933-57.8514C63.2933-57.2592 63.5048-56.7559 64.0548-56.2143L85.2153-35.0453L64.0548-13.8763C63.5048-13.3348 63.2933-12.8314 63.2933-12.1673C63.2933-11.038 64.2111-10.1837 65.4844-10.1837Z"/>
  </g>
  <g id="Ultralight-L" transform="matrix(1 0 0 1 481.808 1556)">
   <path d="M123.8 19.7856C134.164 19.7856 139.722 14.2191 139.722 3.85032L139.722-74.0591C139.722-84.4278 134.164-89.9943 123.8-89.9943L71.8676-89.9943C65.2421-89.9943 60.8599-89.0118 56.5756-84.741L17.3568-45.0221C14.1135-41.8727 12.8672-38.951 12.8672-35.3546C12.8672-31.7582 14.0331-28.7516 17.3568-25.6022L56.5711 12.7581C60.9403 17.0289 65.2376 19.7901 71.8631 19.7901ZM123.639 17.2104L71.8765 17.2104C66.448 17.2104 62.3596 14.9671 58.2892 10.9906L19.2312-27.3877C16.5414-30.073 15.4689-32.4591 15.4689-35.3546C15.4689-38.1653 16.6218-40.5514 19.2312-43.2367L58.2937-82.8931C62.3641-86.8696 66.448-87.4191 71.881-87.4191L123.639-87.4191C132.571-87.4191 137.147-82.8392 137.147-73.9207L137.147 3.71194C137.147 12.626 132.571 17.2104 123.639 17.2104ZM64.2173-10.5457C64.8113-10.5457 64.9852-10.5947 65.5211-11.1262L87.2359-32.8364L109.031-11.1262C109.487-10.5902 109.83-10.5457 110.335-10.5457C111.174-10.5457 111.884-11.0768 111.884-11.8311C111.884-12.3357 111.746-12.6883 111.299-13.1349L89.4144-35.0195L111.294-56.895C111.737-57.3416 111.879-57.6943 111.879-58.1184C111.879-58.9576 111.17-59.4977 110.33-59.4977C109.817-59.4977 109.464-59.3548 108.933-58.9127L87.2359-37.1221L65.5301-58.9172C64.9941-59.3638 64.8113-59.5067 64.2173-59.5067C63.2932-59.5067 62.6727-58.9621 62.6727-58.1229C62.6727-57.6988 62.8066-57.3506 63.2532-56.8995L85.1377-35.0195L63.2532-13.1394C62.8066-12.6883 62.6727-12.3401 62.6727-11.8311C62.6727-11.0768 63.2932-10.5457 64.2173-10.5457Z"/>
  </g>
  <g id="Black-M" transform="matrix(1 0 0 1 2867.27 1126)">
   <path d="M100.645 13.203C112.727 13.203 119.803 8.25088 119.803-3.82547L119.803-64.4592C119.803-76.5356 112.727-83.6002 100.645-83.6002L59.3101-83.6002C48.9969-83.6002 44.8457-81.4001 38.7263-74.0653L16.2048-47.0911C10.958-40.8053 9.96875-38.4341 9.96875-35.2033C9.96875-31.9153 11.0669-29.4302 16.2048-23.2586L38.7318 3.663C44.908 11.055 48.9453 13.1975 59.2585 13.1975ZM98.0086-4.14048L57.7004-4.14048C55.5738-4.14048 53.9684-4.8784 52.341-6.85966L29.8869-33.4738C29.4164-34.0069 29.2104-34.663 29.2104-35.2033C29.2104-35.8009 29.3645-36.2857 29.8869-36.8759L52.3355-63.6516C53.9629-65.6329 55.5738-66.2568 57.695-66.2568L98.0086-66.2568C101-66.2568 102.46-65.0307 102.46-61.7949L102.46-8.60235C102.46-5.36104 101-4.14048 98.0086-4.14048ZM60.8514-15.2267C62.8947-15.2267 64.4772-15.8413 65.8027-17.1723L74.2052-25.5231L82.6699-17.1723C83.9902-15.8468 85.5722-15.2267 87.6213-15.2267C91.3775-15.2267 94.2284-18.0892 94.2284-21.9028C94.2284-23.5522 93.5054-25.1803 92.2312-26.4545L83.7152-35.0276L92.2367-43.6117C93.5164-44.886 94.2339-46.514 94.2339-48.1582C94.2339-51.9716 91.383-54.8231 87.6268-54.8231C85.5886-54.8231 84.0177-54.2197 82.6867-52.8829L74.2052-44.4698L65.7918-52.8774C64.4662-54.2087 62.8947-54.8121 60.8514-54.8121C57.0954-54.8121 54.2387-51.9661 54.2387-48.1527C54.2387-46.5085 54.9672-44.875 56.2414-43.6063L64.8146-35.0276L56.2414-26.449C54.9672-25.1803 54.2387-23.5467 54.2387-21.9028C54.2387-18.0892 57.0954-15.2267 60.8514-15.2267Z"/>
  </g>
  <g id="Heavy-M" transform="matrix(1 0 0 1 2571.03 1126)">
   <path d="M100.598 12.3923C112.218 12.3923 118.849 7.40868 118.849-4.19579L118.849-64.5823C118.849-76.1868 112.218-82.7845 100.598-82.7845L59.0006-82.7845C49.7665-82.7845 45.4418-80.7415 39.8138-74.1482L15.8277-46.4863C11.0697-40.9126 9.96875-38.4104 9.96875-35.2193C9.96875-31.9846 11.1382-29.3929 15.8277-23.9064L39.8302 3.6755C45.5041 10.3124 49.7393 12.3759 58.9734 12.3759ZM98.5536-2.72369L57.7464-2.72369C55.2464-2.72369 53.4679-3.48904 51.6237-5.62551L27.7185-32.9236C26.9715-33.7307 26.6963-34.5118 26.6963-35.2193C26.6963-35.9682 26.9466-36.6184 27.7185-37.4691L51.6073-64.9158C53.4515-67.0522 55.2464-67.6684 57.73-67.6684L98.5536-67.6684C101.989-67.6684 103.733-66.116 103.733-62.4563L103.733-7.93579C103.733-4.25976 101.989-2.72369 98.5536-2.72369ZM59.5093-15.0692C61.3224-15.0692 62.7588-15.639 63.9477-16.8443L73.6336-26.5029L83.3817-16.8443C84.5519-15.6554 85.9928-15.0692 87.8201-15.0692C91.2083-15.0692 93.7899-17.6791 93.7899-21.1087C93.7899-22.6305 93.147-24.0822 91.9876-25.2417L82.21-35.0629L92.004-44.917C93.1799-46.0764 93.8063-47.5281 93.8063-49.0313C93.8063-52.4632 91.2247-55.0402 87.8365-55.0402C86.0421-55.0402 84.634-54.501 83.4287-53.2816L73.6336-43.5606L63.9149-53.2652C62.726-54.4682 61.3224-55.0074 59.5093-55.0074C56.1189-55.0074 53.5231-52.4467 53.5231-49.0149C53.5231-47.5117 54.1824-46.0436 55.3418-44.9006L65.1631-35.0629L55.3418-25.2253C54.1824-24.0822 53.5231-22.6141 53.5231-21.1087C53.5231-17.6791 56.1189-15.0692 59.5093-15.0692Z"/>
  </g>
  <g id="Bold-M" transform="matrix(1 0 0 1 2274.86 1126)">
   <path d="M100.544 11.4855C111.649 11.4855 117.782 6.46654 117.782-4.61003L117.782-64.7201C117.782-75.7967 111.649-81.8719 100.544-81.8719L58.6544-81.8719C50.6275-81.8719 46.1087-80.0046 41.0304-74.241L15.4059-45.8098C11.1947-41.0326 9.96875-38.3839 9.96875-35.2372C9.96875-32.062 11.218-29.351 15.4059-24.631L41.059 3.68949C46.171 9.48173 50.6275 11.4569 58.6545 11.4569ZM99.1631-1.13881L57.7978-1.13881C54.8802-1.13881 52.908-1.93485 50.8213-4.24493L25.2929-32.3082C24.2366-33.4216 23.8838-34.3426 23.8838-35.2372C23.8838-36.1553 24.2418-36.9906 25.2929-38.1326L50.7927-66.3299C52.8794-68.64 54.8802-69.2476 57.7692-69.2476L99.1631-69.2476C103.097-69.2476 105.157-67.33 105.157-63.1963L105.157-7.19016C105.157-3.02783 103.097-1.13881 99.1631-1.13881ZM58.0081-14.893C59.5636-14.893 60.8365-15.4126 61.8726-16.4773L72.9941-27.599L84.178-16.4773C85.1803-15.4413 86.4634-14.893 88.0425-14.893C91.019-14.893 93.2994-17.2204 93.2994-20.2203C93.2994-21.5995 92.7462-22.8539 91.7151-23.885L80.5262-35.1024L91.7437-46.3771C92.8034-47.4082 93.328-48.6626 93.328-50.008C93.328-53.0131 91.0476-55.2832 88.0711-55.2832C86.5493-55.2832 85.3234-54.8157 84.2587-53.7275L72.9941-42.5436L61.8153-53.6989C60.7793-54.7585 59.5636-55.226 58.0081-55.226C55.0265-55.226 52.7226-52.9844 52.7226-49.9794C52.7226-48.634 53.3044-47.3509 54.3354-46.3485L65.5529-35.1024L54.3354-23.8564C53.3044-22.8539 52.7226-21.5709 52.7226-20.2203C52.7226-17.2204 55.0265-14.893 58.0081-14.893Z"/>
  </g>
  <g id="Semibold-M" transform="matrix(1 0 0 1 1978.51 1126)">
   <path d="M100.507 10.8604C111.257 10.8604 117.046 5.81704 117.046-4.89561L117.046-64.8151C117.046-75.5277 111.257-81.2428 100.507-81.2428L58.4157-81.2428C51.221-81.2428 46.5684-79.4967 41.869-74.3049L15.1151-45.3434C11.2808-41.1154 9.96875-38.3656 9.96875-35.2496C9.96875-32.1154 11.273-29.3222 15.1151-25.1305L41.9061 3.69913C46.6307 8.90907 51.2399 10.8233 58.4346 10.8233ZM99.5834-0.0461991L57.8332-0.0461991C54.6277-0.0461991 52.522-0.8634 50.2681-3.29317L23.6206-31.8839C22.3511-33.2086 21.945-34.2259 21.945-35.2496C21.945-36.2843 22.3771-37.2472 23.6206-38.59L50.2311-67.3048C52.485-69.7345 54.6277-70.3363 57.7962-70.3363L99.5834-70.3363C103.86-70.3363 106.139-68.1669 106.139-63.7063L106.139-6.67612C106.139-2.17855 103.86-0.0461991 99.5834-0.0461991ZM56.9731-14.7716C58.3511-14.7716 59.5113-15.2566 60.442-16.2244L72.5533-28.3546L84.7269-16.2244C85.6135-15.2936 86.7879-14.7716 88.1958-14.7716C90.8884-14.7716 92.9612-16.9042 92.9612-19.6079C92.9612-20.8887 92.4698-22.0072 91.5273-22.9497L79.3654-35.1297L91.5643-47.3837C92.5439-48.3262 92.9982-49.4447 92.9982-50.6813C92.9982-53.3922 90.9255-55.4507 88.2328-55.4507C86.899-55.4507 85.7987-55.0327 84.8309-54.0349L72.5533-41.8425L60.3679-53.9979C59.4372-54.9586 58.3511-55.3766 56.9731-55.3766C54.2734-55.3766 52.1707-53.3551 52.1707-50.6443C52.1707-49.4076 52.6991-48.2522 53.6416-47.3467L65.8216-35.1297L53.6416-22.9126C52.6991-22.0072 52.1707-20.8517 52.1707-19.6079C52.1707-16.9042 54.2734-14.7716 56.9731-14.7716Z"/>
  </g>
  <g id="Medium-M" transform="matrix(1 0 0 1 1682.08 1126)">
   <path d="M100.479 10.3864C110.959 10.3864 116.488 5.32457 116.488-5.11215L116.488-64.8871C116.488-75.3238 110.959-80.7658 100.479-80.7658L58.2347-80.7658C51.6711-80.7658 46.917-79.1115 42.505-74.3534L14.8946-44.9898C11.3462-41.1781 9.96875-38.3518 9.96875-35.259C9.96875-32.1559 11.3147-29.3004 14.8946-25.5093L42.5484 3.70644C46.9793 8.47486 51.7042 10.3429 58.2679 10.3429ZM99.902 0.782262L57.8601 0.782262C54.4362 0.782262 52.2293-0.050981 49.8487-2.57151L22.3527-31.5622C20.9215-33.047 20.4749-34.1375 20.4749-35.259C20.4749-36.3821 20.9632-37.4418 22.3527-38.9369L49.8053-68.044C52.1859-70.5645 54.4362-71.1617 57.8167-71.1617L99.902-71.1617C104.439-71.1617 106.884-68.8015 106.884-64.0931L106.884-6.28636C106.884-1.53459 104.439 0.782262 99.902 0.782262ZM56.1884-14.6795C57.4317-14.6795 58.5064-15.1383 59.3573-16.0326L72.2191-28.9275L85.1431-16.0326C85.942-15.1817 87.0339-14.6795 88.312-14.6795C90.7895-14.6795 92.7047-16.6644 92.7047-19.1436C92.7047-20.3498 92.2602-21.3651 91.3848-22.2405L78.4853-35.1503L91.4283-48.147C92.3471-49.0224 92.7482-50.0377 92.7482-51.1919C92.7482-53.6796 90.8329-55.5777 88.3554-55.5777C87.1641-55.5777 86.1591-55.1971 85.2648-54.268L72.2191-41.3108L59.2704-54.2246C58.4196-55.1103 57.4317-55.4908 56.1884-55.4908C53.7023-55.4908 51.7523-53.6362 51.7523-51.1485C51.7523-49.9943 52.2402-48.9355 53.1156-48.1035L66.0254-35.1503L53.1156-22.1971C52.2402-21.3651 51.7523-20.3064 51.7523-19.1436C51.7523-16.6644 53.7023-14.6795 56.1884-14.6795Z"/>
  </g>
  <g id="Regular-M" transform="matrix(1 0 0 1 1385.73 1126)">
   <path d="M100.442 9.76808C110.571 9.76808 115.76 4.6822 115.76-5.3946L115.76-64.981C115.76-75.0578 110.571-80.1437 100.442-80.1437L57.9987-80.1437C52.2581-80.1437 47.3717-78.6091 43.3344-74.4166L14.6069-44.5285C11.4314-41.26 9.96875-38.3337 9.96875-35.2712C9.96875-32.2087 11.3691-29.2718 14.6069-26.0034L43.3862 3.71598C47.434 7.90849 52.3098 9.71633 58.0504 9.71633ZM100.318 1.86286L57.8951 1.86286C54.1865 1.86286 51.8476 1.0087 49.3016-1.6302L20.6988-31.1425C19.0568-32.8363 18.5573-34.0221 18.5573-35.2712C18.5573-36.5097 19.1191-37.6955 20.6988-39.3893L49.2499-69.0081C51.7958-71.647 54.1865-72.2384 57.8434-72.2384L100.318-72.2384C105.194-72.2384 107.855-69.6292 107.855-64.5976L107.855-5.77797C107.855-0.694633 105.194 1.86286 100.318 1.86286ZM55.1648-14.5594C56.2326-14.5594 57.1958-14.984 57.9424-15.7824L71.7831-29.6748L85.686-15.7824C86.3704-15.0357 87.3547-14.5594 88.4636-14.5594C90.6604-14.5594 92.3703-16.3517 92.3703-18.5379C92.3703-19.6468 91.9869-20.5276 91.199-21.3155L77.3373-35.1772L91.2508-49.1425C92.0904-49.9304 92.422-50.8112 92.422-51.8578C92.422-54.0546 90.7122-55.7433 88.5154-55.7433C87.51-55.7433 86.6292-55.4117 85.8308-54.5721L71.7831-40.6174L57.8389-54.5203C57.0923-55.3082 56.2326-55.6398 55.1648-55.6398C52.9575-55.6398 51.2064-54.0028 51.2064-51.806C51.2064-50.7594 51.6416-49.8269 52.4294-49.0907L66.2912-35.1772L52.4294-21.2637C51.6416-20.5276 51.2064-19.5951 51.2064-18.5379C51.2064-16.3517 52.9575-14.5594 55.1648-14.5594Z"/>
  </g>
  <g id="Light-M" transform="matrix(1 0 0 1 1090.19 1126)">
   <path d="M99.0391 9.03231C108.517 9.03231 113.433 4.18599 113.433-5.25771L113.433-65.0836C113.433-74.5273 108.517-79.3737 99.0391-79.3737L57.28-79.3737C51.7276-79.3737 47.3032-78.0787 43.4884-74.16L14.2476-43.998C11.2774-40.9862 9.96875-38.2652 9.96875-35.2883C9.96875-32.3114 11.2151-29.5627 14.2476-26.5509L43.5231 3.16843C47.3655 7.08717 51.7623 8.99767 57.3146 8.99767ZM98.9145 2.95796L57.2107 2.95796C53.3481 2.95796 50.7525 1.83002 48.0183-0.945767L18.9021-30.5265C17.1232-32.3401 16.5211-33.7312 16.5211-35.2883C16.5211-36.8177 17.1855-38.2089 18.9021-40.0224L47.9837-69.9835C50.7178-72.7593 53.3481-73.2993 57.1761-73.2993L98.9145-73.2993C104.424-73.2993 107.359-70.3992 107.359-64.7858L107.359-5.55553C107.359 0.0924704 104.424 2.95796 98.9145 2.95796ZM53.488-15.0385C54.3675-15.0385 55.074-15.3433 55.718-16.0219L70.4827-30.8212L85.3096-16.0219C85.8913-15.3779 86.6532-15.0385 87.5397-15.0385C89.2573-15.0385 90.6078-16.403 90.6078-18.093C90.6078-18.9795 90.31-19.6721 89.6591-20.323L74.8391-35.143L89.6937-50.0323C90.3793-50.6832 90.6425-51.3758 90.6425-52.2C90.6425-53.9177 89.2919-55.2129 87.5743-55.2129C86.7571-55.2129 86.0645-54.9497 85.3859-54.2641L70.4827-39.4025L55.6487-54.2295C55.0047-54.8804 54.3675-55.1436 53.488-55.1436C51.7426-55.1436 50.3851-53.883 50.3851-52.1654C50.3851-51.3412 50.7176-50.614 51.3686-49.9976L66.1885-35.143L51.3686-20.2884C50.7176-19.6721 50.3851-18.9448 50.3851-18.093C50.3851-16.403 51.7426-15.0385 53.488-15.0385Z"/>
  </g>
  <g id="Thin-M" transform="matrix(1 0 0 1 795.014 1126)">
   <path d="M97.1834 8.0592C105.802 8.0592 110.355 3.5297 110.355-5.07666L110.355-65.2194C110.355-73.8258 105.802-78.3553 97.1834-78.3553L56.3295-78.3553C51.0261-78.3553 47.2127-77.3772 43.6921-73.8205L13.7724-43.2965C11.0737-40.6241 9.96875-38.1747 9.96875-35.3109C9.96875-32.4472 11.0114-29.9475 13.7724-27.2751L43.7041 2.44425C47.275 6.0009 51.0381 8.04718 56.3415 8.04718ZM97.0588 4.40632L56.3055 4.40632C52.2392 4.40632 49.3041 2.91629 46.321-0.0405432L16.5259-29.7118C14.566-31.6838 13.8281-33.3465 13.8281-35.3109C13.8281-37.2251 14.6283-38.8878 16.5259-40.8598L46.309-71.2734C49.2921-74.2302 52.2392-74.7024 56.2935-74.7024L97.0588-74.7024C103.406-74.7024 106.702-71.4176 106.702-65.0348L106.702-5.26133C106.702 1.13348 103.406 4.40632 97.0588 4.40632ZM51.2702-15.6722C51.9007-15.6722 52.2678-15.8185 52.776-16.3388L68.7627-32.3375L84.8117-16.3388C85.2576-15.8306 85.7253-15.6722 86.3176-15.6722C87.4016-15.6722 88.2769-16.4709 88.2769-17.5046C88.2769-18.0969 88.0922-18.5405 87.6223-19.0105L71.535-35.0978L87.6343-51.2091C88.1163-51.679 88.2889-52.1226 88.2889-52.6526C88.2889-53.7366 87.4136-54.5113 86.3296-54.5113C85.7613-54.5113 85.3177-54.3387 84.7975-53.8567L68.7627-37.7957L52.752-53.8447C52.2438-54.3147 51.9007-54.4873 51.2702-54.4873C50.1359-54.4873 49.2988-53.7246 49.2988-52.6406C49.2988-52.1106 49.4955-51.655 49.9655-51.197L66.0527-35.0978L49.9655-18.9985C49.4955-18.5405 49.2988-18.0849 49.2988-17.5046C49.2988-16.4709 50.1359-15.6722 51.2702-15.6722Z"/>
  </g>
  <g id="Ultralight-M" transform="matrix(1 0 0 1 499.091 1126)">
   <path d="M96.2329 7.56077C104.411 7.56077 108.779 3.19355 108.779-4.98393L108.779-65.289C108.779-73.4665 104.411-77.8337 96.2329-77.8337L55.8427-77.8337C50.6668-77.8337 47.1663-77.0178 43.7964-73.6466L13.529-42.9372C10.9694-40.4387 9.96875-38.1283 9.96875-35.3225C9.96875-32.5167 10.9071-30.1445 13.529-27.646L43.7968 2.07333C47.2286 5.44452 50.6672 7.56035 55.8431 7.56035ZM96.1083 5.14816L55.8418 5.14816C51.6712 5.14816 48.5623 3.47267 45.4517 0.423108L15.3088-29.2945C13.2561-31.3477 12.4487-33.1494 12.4487-35.3225C12.4487-37.4337 13.3185-39.2355 15.3088-41.2886L45.4513-71.9341C48.5619-74.9837 51.6712-75.4211 55.8414-75.4211L96.1083-75.4211C102.884-75.4211 106.366-71.9392 106.366-65.1623L106.366-5.11065C106.366 1.66668 102.884 5.14816 96.1083 5.14816ZM50.1342-15.9967C50.6373-15.9967 50.8305-16.062 51.2692-16.501L67.8818-33.1141L84.5567-16.501C84.9331-16.0624 85.2501-15.9967 85.6917-15.9967C86.4511-15.9967 87.083-16.5057 87.083-17.2032C87.083-17.6448 86.9563-17.961 86.5791-18.3382L69.8427-35.0746L86.5795-51.8118C86.9571-52.189 87.0834-52.5052 87.0834-52.8845C87.0834-53.6439 86.4515-54.152 85.6921-54.152C85.2513-54.152 84.9352-54.0257 84.4961-53.6481L67.8818-36.9728L51.2683-53.6477C50.8297-54.0249 50.6373-54.1512 50.1342-54.1512C49.3129-54.1512 48.7425-53.6435 48.7425-52.884C48.7425-52.5047 48.8696-52.1882 49.2468-51.8114L65.9832-35.0746L49.2468-18.3378C48.8696-17.961 48.7425-17.6444 48.7425-17.2032C48.7425-16.5057 49.3129-15.9967 50.1342-15.9967Z"/>
  </g>
  <g id="Black-S" transform="matrix(1 0 0 1 2881.5 696)">
   <path d="M78.8086 2.92969C88.3789 2.92969 94.043-0.927734 94.043-10.498L94.043-58.1055C94.043-67.6758 88.3789-73.3398 78.8086-73.3398L46.5332-73.3398C38.1348-73.3398 34.9609-71.582 30.0293-65.625L12.793-44.6777C8.54492-39.5508 7.8125-37.7441 7.8125-35.2051C7.8125-32.6172 8.64258-30.7129 12.793-25.6836L30.0293-4.78516C35.0098 1.2207 38.0859 2.92969 46.4844 2.92969ZM76.5625-11.2305L45.166-11.2305C43.6035-11.2305 42.3828-11.8164 41.1621-13.3301L23.9746-33.9844C23.6816-34.3262 23.5352-34.8145 23.5352-35.2051C23.5352-35.6445 23.6328-35.9863 23.9746-36.377L41.1621-57.1777C42.3828-58.6914 43.6035-59.1797 45.166-59.1797L76.5625-59.1797C78.8086-59.1797 79.8828-58.3008 79.8828-55.8594L79.8828-14.5508C79.8828-12.1094 78.8086-11.2305 76.5625-11.2305ZM47.998-19.6289C49.6582-19.6289 50.9277-20.1172 52.002-21.1914L58.252-27.3926L64.5508-21.1914C65.625-20.1172 66.8945-19.6289 68.5547-19.6289C71.582-19.6289 73.877-21.9238 73.877-25C73.877-26.3184 73.291-27.6367 72.2656-28.6621L65.918-35.0586L72.2656-41.4551C73.291-42.4805 73.877-43.7988 73.877-45.1172C73.877-48.1934 71.582-50.4883 68.5547-50.4883C66.8945-50.4883 65.625-50 64.5508-48.9258L58.252-42.6758L52.002-48.9258C50.9277-50 49.6582-50.4883 47.998-50.4883C44.9707-50.4883 42.6758-48.1934 42.6758-45.1172C42.6758-43.7988 43.2617-42.4805 44.2871-41.4551L50.6836-35.0586L44.2871-28.6621C43.2617-27.6367 42.6758-26.3184 42.6758-25C42.6758-21.9238 44.9707-19.6289 47.998-19.6289Z"/>
  </g>
  <g id="Heavy-S" transform="matrix(1 0 0 1 2585.04 696)">
   <path d="M78.9469 2.33042C88.206 2.33042 93.5244-1.58463 93.5244-10.8323L93.5244-58.1977C93.5244-67.4453 88.206-72.7406 78.9469-72.7406L46.3603-72.7406C38.8608-72.7406 35.4795-71.0865 30.9397-65.7287L12.5164-44.2283C8.66017-39.6776 7.8125-37.7326 7.8125-35.2166C7.8125-32.6633 8.72325-30.6437 12.5164-26.1676L30.9513-4.70448C35.5284 0.690578 38.835 2.31889 46.3346 2.31889ZM77.2079-10.1587L45.2928-10.1587C43.4306-10.1587 42.0947-10.7331 40.7127-12.362L22.3497-33.5925C21.8377-34.1533 21.6451-34.7223 21.6451-35.2166C21.6451-35.7483 21.8119-36.2053 22.3497-36.8034L40.7011-58.1343C42.0832-59.7632 43.4306-60.2515 45.2813-60.2515L77.2079-60.2515C79.7536-60.2515 81.0353-59.1305 81.0353-56.401L81.0353-14.0091C81.0353-11.2681 79.7536-10.1587 77.2079-10.1587ZM47.0646-19.433C48.5519-19.433 49.7292-19.8982 50.6997-20.8802L57.9293-28.084L65.2077-20.8802C66.1666-19.9097 67.344-19.433 68.8428-19.433C71.6166-19.433 73.7271-21.5666 73.7271-24.3777C73.7271-25.6154 73.1988-26.807 72.2541-27.7517L64.9499-35.0932L72.2656-42.4577C73.2219-43.4024 73.7387-44.594 73.7387-45.8202C73.7387-48.6313 71.6281-50.7418 68.8543-50.7418C67.3786-50.7418 66.2243-50.2996 65.2422-49.3061L57.9293-42.0535L50.6766-49.2946C49.7061-50.2766 48.5519-50.7188 47.0646-50.7188C44.2908-50.7188 42.1687-48.6198 42.1687-45.8087C42.1687-44.5825 42.7085-43.3794 43.6533-42.4462L50.9948-35.0932L43.6533-27.7402C42.7085-26.807 42.1687-25.6038 42.1687-24.3777C42.1687-21.5666 44.2908-19.433 47.0646-19.433Z"/>
  </g>
  <g id="Bold-S" transform="matrix(1 0 0 1 2288.62 696)">
   <path d="M79.1016 1.66016C88.0127 1.66016 92.9443-2.31934 92.9443-11.2061L92.9443-58.3008C92.9443-67.1875 88.0127-72.0703 79.1016-72.0703L46.167-72.0703C39.6729-72.0703 36.0596-70.5322 31.958-65.8447L12.207-43.7256C8.78906-39.8193 7.8125-37.7197 7.8125-35.2295C7.8125-32.7148 8.81348-30.5664 12.207-26.709L31.9824-4.61426C36.1084 0.0976562 39.6729 1.63574 46.167 1.63574ZM77.9297-8.95996L45.4346-8.95996C43.2373-8.95996 41.7725-9.52148 40.21-11.2793L20.5322-33.1543C19.7754-33.96 19.5312-34.6191 19.5312-35.2295C19.5312-35.8643 19.7754-36.4502 20.5322-37.2803L40.1855-59.2041C41.748-60.9619 43.2373-61.4502 45.4102-61.4502L77.9297-61.4502C80.8105-61.4502 82.3242-60.0586 82.3242-57.0068L82.3242-13.4033C82.3242-10.3271 80.8105-8.95996 77.9297-8.95996ZM46.0205-19.2139C47.3145-19.2139 48.3887-19.6533 49.2432-20.5322L57.5684-28.8574L65.9424-20.5322C66.7725-19.6777 67.8467-19.2139 69.165-19.2139C71.6553-19.2139 73.5596-21.167 73.5596-23.6816C73.5596-24.8291 73.0957-25.8789 72.2412-26.7334L63.8672-35.1318L72.2656-43.5791C73.1445-44.4336 73.584-45.4834 73.584-46.6064C73.584-49.1211 71.6797-51.0254 69.1895-51.0254C67.9199-51.0254 66.8945-50.6348 66.0156-49.7314L57.5684-41.3574L49.1943-49.707C48.3398-50.5859 47.3145-50.9766 46.0205-50.9766C43.5303-50.9766 41.6016-49.0967 41.6016-46.582C41.6016-45.459 42.0898-44.3848 42.9443-43.5547L51.3428-35.1318L42.9443-26.709C42.0898-25.8789 41.6016-24.8047 41.6016-23.6816C41.6016-21.167 43.5303-19.2139 46.0205-19.2139Z"/>
  </g>
  <g id="Semibold-S" transform="matrix(1 0 0 1 1992.11 696)">
   <path d="M79.2082 1.19805C87.8794 1.19805 92.5444-2.82588 92.5444-11.4638L92.5444-58.3719C92.5444-67.0098 87.8794-71.6082 79.2082-71.6082L46.0337-71.6082C40.2327-71.6082 36.4595-70.1501 32.6601-65.9247L11.9938-43.379C8.87793-39.9171 7.8125-37.7108 7.8125-35.2384C7.8125-32.7504 8.87568-30.5131 11.9938-27.0822L32.6934-4.55205C36.5083-0.311133 40.2505 1.16475 46.0515 1.16475ZM78.4273-8.1335L45.5323-8.1335C43.104-8.1335 41.5503-8.68613 39.8634-10.5328L19.2792-32.8521C18.3535-33.8267 18.0738-34.548 18.0738-35.2384C18.0738-35.9442 18.3713-36.619 19.2792-37.6091L39.8301-59.9417C41.517-61.7884 43.104-62.2767 45.499-62.2767L78.4273-62.2767C81.5393-62.2767 83.2129-60.6984 83.2129-57.4245L83.2129-12.9856C83.2129-9.67842 81.5393-8.1335 78.4273-8.1335ZM45.3007-19.0628C46.4613-19.0628 47.4645-19.4845 48.239-20.2923L57.3195-29.3906L66.4489-20.2923C67.1901-19.5178 68.1933-19.0628 69.3872-19.0628C71.6819-19.0628 73.444-20.8915 73.444-23.2018C73.444-24.287 73.0246-25.2391 72.2323-26.0313L63.1207-35.1585L72.2656-44.3522C73.0912-45.1445 73.4773-46.0966 73.4773-47.1485C73.4773-49.4588 71.7152-51.2209 69.4205-51.2209C68.2932-51.2209 67.3566-50.8658 66.5488-50.0247L57.3195-40.8775L48.1724-49.9914C47.3979-50.7992 46.4613-51.1543 45.3007-51.1543C43.006-51.1543 41.2105-49.4255 41.2105-47.1152C41.2105-46.0633 41.6633-45.0779 42.4556-44.3189L51.5827-35.1585L42.4556-25.998C41.6633-25.2391 41.2105-24.2537 41.2105-23.2018C41.2105-20.8915 43.006-19.0628 45.3007-19.0628Z"/>
  </g>
  <g id="Medium-S" transform="matrix(1 0 0 1 1695.55 696)">
   <path d="M79.2891 0.847656C87.7783 0.847656 92.2412-3.20996 92.2412-11.6592L92.2412-58.4258C92.2412-66.875 87.7783-71.2578 79.2891-71.2578L45.9326-71.2578C40.6572-71.2578 36.7627-69.8604 33.1924-65.9854L11.832-43.1162C8.94531-39.9912 7.8125-37.7041 7.8125-35.2451C7.8125-32.7773 8.92285-30.4727 11.832-27.3652L33.2324-4.50488C36.8115-0.621094 40.6885 0.807617 45.9639 0.807617ZM78.8047-7.50684L45.6064-7.50684C43.0029-7.50684 41.3818-8.05273 39.6006-9.9668L18.3291-32.623C17.2754-33.7256 16.9688-34.4941 16.9688-35.2451C16.9688-36.0049 17.3066-36.7471 18.3291-37.8584L39.5605-60.501C41.3418-62.415 43.0029-62.9033 45.5664-62.9033L78.8047-62.9033C82.0918-62.9033 83.8867-61.1836 83.8867-57.7412L83.8867-12.6689C83.8867-9.18652 82.0918-7.50684 78.8047-7.50684ZM44.7549-18.9482C45.8145-18.9482 46.7637-19.3564 47.4775-20.1104L57.1309-29.7949L66.833-20.1104C67.5068-19.3965 68.4561-18.9482 69.5557-18.9482C71.7021-18.9482 73.3564-20.6826 73.3564-22.8379C73.3564-23.876 72.9707-24.7539 72.2256-25.499L62.5547-35.1787L72.2656-44.9385C73.0508-45.6836 73.3965-46.5615 73.3965-47.5596C73.3965-49.7148 71.7422-51.3691 69.5957-51.3691C68.5762-51.3691 67.707-51.041 66.9531-50.2471L57.1309-40.5137L47.3975-50.207C46.6836-50.9609 45.8145-51.2891 44.7549-51.2891C42.6084-51.2891 40.9141-49.6748 40.9141-47.5195C40.9141-46.5215 41.3398-45.6035 42.085-44.8984L51.7646-35.1787L42.085-25.459C41.3398-24.7539 40.9141-23.8359 40.9141-22.8379C40.9141-20.6826 42.6084-18.9482 44.7549-18.9482Z"/>
  </g>
  <g id="Regular-S" transform="matrix(1 0 0 1 1399.04 696)">
   <path d="M79.3945 0.390625C87.6465 0.390625 91.8457-3.71094 91.8457-11.9141L91.8457-58.4961C91.8457-66.6992 87.6465-70.8008 79.3945-70.8008L45.8008-70.8008C41.2109-70.8008 37.1582-69.4824 33.8867-66.0645L11.6211-42.7734C9.0332-40.0879 7.8125-37.6953 7.8125-35.2539C7.8125-32.8125 8.98438-30.4199 11.6211-27.7344L33.9355-4.44336C37.207-1.02539 41.2598 0.341797 45.8496 0.341797ZM79.2969-6.68945L45.7031-6.68945C42.8711-6.68945 41.1621-7.22656 39.2578-9.22852L17.0898-32.3242C15.8691-33.5938 15.5273-34.4238 15.5273-35.2539C15.5273-36.084 15.918-36.9141 17.0898-38.1836L39.209-61.2305C41.1133-63.2324 42.8711-63.7207 45.6543-63.7207L79.2969-63.7207C82.8125-63.7207 84.7656-61.8164 84.7656-58.1543L84.7656-12.2559C84.7656-8.54492 82.8125-6.68945 79.2969-6.68945ZM44.043-18.7988C44.9707-18.7988 45.8496-19.1895 46.4844-19.873L56.8848-30.3223L67.334-19.873C67.9199-19.2383 68.7988-18.7988 69.7754-18.7988C71.7285-18.7988 73.2422-20.4102 73.2422-22.3633C73.2422-23.3398 72.9004-24.1211 72.2168-24.8047L61.8164-35.2051L72.2656-45.7031C72.998-46.3867 73.291-47.168 73.291-48.0957C73.291-50.0488 71.7773-51.5625 69.8242-51.5625C68.9453-51.5625 68.1641-51.2695 67.4805-50.5371L56.8848-40.0391L46.3867-50.4883C45.752-51.1719 44.9707-51.4648 44.043-51.4648C42.0898-51.4648 40.5273-50 40.5273-48.0469C40.5273-47.1191 40.918-46.2891 41.6016-45.6543L52.002-35.2051L41.6016-24.7559C40.918-24.1211 40.5273-23.291 40.5273-22.3633C40.5273-20.4102 42.0898-18.7988 44.043-18.7988Z"/>
  </g>
  <g id="Light-S" transform="matrix(1 0 0 1 1103.36 696)">
   <path d="M78.1533-0.260249C85.8301-0.260249 89.7871-4.1499 89.7871-11.793L89.7871-58.5869C89.7871-66.23 85.8301-70.1196 78.1533-70.1196L45.165-70.1196C40.7417-70.1196 37.0977-69.0132 34.0229-65.8374L11.3032-42.3042C8.89697-39.8457 7.8125-37.6348 7.8125-35.269C7.8125-32.9033 8.84815-30.6772 11.3032-28.2187L34.0566-4.92773C37.1465-1.75195 40.7754-0.29394 45.1987-0.29394ZM78.0557-5.72071L45.0977-5.72071C42.1294-5.72071 40.1934-6.50001 38.1226-8.62305L15.5005-31.7793C14.1587-33.1548 13.7261-34.1665 13.7261-35.269C13.7261-36.3564 14.2075-37.3682 15.5005-38.7436L38.0889-62.0933C40.1597-64.2163 42.1294-64.6592 45.064-64.6592L78.0557-64.6592C82.1314-64.6592 84.3267-62.4976 84.3267-58.3208L84.3267-12.0591C84.3267-7.84864 82.1314-5.72071 78.0557-5.72071ZM42.5596-19.2227C43.3208-19.2227 43.9727-19.5073 44.5166-20.085L55.7344-31.3364L67.001-20.085C67.4961-19.541 68.1782-19.2227 68.958-19.2227C70.4873-19.2227 71.6831-20.4556 71.6831-21.9697C71.6831-22.7495 71.417-23.3643 70.8545-23.9268L59.6065-35.1748L70.8882-46.4902C71.4844-47.0527 71.7168-47.6675 71.7168-48.3984C71.7168-49.9277 70.521-51.0933 68.9917-51.0933C68.2793-51.0933 67.6646-50.8608 67.0869-50.2647L55.7344-38.9644L44.4492-50.231C43.9053-50.7935 43.3208-51.0259 42.5596-51.0259C41.0151-51.0259 39.8008-49.894 39.8008-48.3647C39.8008-47.6338 40.1006-46.9853 40.6631-46.4565L51.9111-35.1748L40.6631-23.8931C40.1006-23.3643 39.8008-22.7158 39.8008-21.9697C39.8008-20.4556 41.0151-19.2227 42.5596-19.2227Z"/>
  </g>
  <g id="Thin-S" transform="matrix(1 0 0 1 808.007 696)">
   <path d="M76.5117-1.12108C83.4278-1.12108 87.0645-4.73046 87.0645-11.6328L87.0645-58.707C87.0645-65.6094 83.4278-69.2188 76.5117-69.2188L44.3242-69.2188C40.1211-69.2188 37.0176-68.3926 34.2031-65.5371L10.8828-41.6836C8.7168-39.5254 7.8125-37.5547 7.8125-35.2891C7.8125-33.0234 8.66797-31.0176 10.8828-28.8594L34.2168-5.56835C37.0664-2.71288 40.1348-1.13475 44.3379-1.13475ZM76.4141-4.43947L44.2969-4.43947C41.1485-4.43947 38.9121-5.53908 36.6211-7.82228L13.3985-31.0586C11.8965-32.5742 11.3438-33.8262 11.3438-35.2891C11.3438-36.7168 11.9453-37.9687 13.3985-39.4844L36.6074-63.2344C38.8985-65.5176 41.1485-65.9004 44.2832-65.9004L76.4141-65.9004C81.2305-65.9004 83.7461-63.3984 83.7461-58.541L83.7461-11.7988C83.7461-6.92775 81.2305-4.43947 76.4141-4.43947ZM40.5977-19.7832C41.1387-19.7832 41.4903-19.9277 41.9141-20.3652L54.2129-32.6777L66.5606-20.3652C66.9356-19.9414 67.3574-19.7832 67.877-19.7832C68.8457-19.7832 69.6211-20.5156 69.6211-21.4492C69.6211-21.9688 69.4551-22.3633 69.0528-22.7656L56.6836-35.1348L69.0664-47.5312C69.4824-47.9336 69.6348-48.3281 69.6348-48.7988C69.6348-49.7676 68.8594-50.4727 67.8906-50.4727C67.3984-50.4727 67.0039-50.3203 66.5664-49.9043L54.2129-37.543L41.8868-49.8906C41.4629-50.293 41.1387-50.4453 40.5977-50.4453C39.5938-50.4453 38.8399-49.7539 38.8399-48.7852C38.8399-48.3144 39.0195-47.9062 39.4219-47.5176L51.791-35.1348L39.4219-22.752C39.0195-22.3633 38.8399-21.9551 38.8399-21.4492C38.8399-20.5156 39.5938-19.7832 40.5977-19.7832Z"/>
  </g>
  <g id="Ultralight-S" transform="matrix(1 0 0 1 511.993 696)">
   <path d="M75.6709-1.562C82.1973-1.562 85.67-5.02782 85.67-11.5508L85.67-58.7686C85.67-65.2915 82.1973-68.7573 75.6709-68.7573L43.8936-68.7573C39.8032-68.7573 36.9766-68.0747 34.2954-65.3833L10.6675-41.3657C8.62451-39.3613 7.8125-37.5137 7.8125-35.2993C7.8125-33.085 8.57569-31.1919 10.6675-29.1875L34.2988-5.89647C37.0254-3.20506 39.8067-1.56541 43.897-1.56541ZM75.5733-3.78323L43.8867-3.78323C40.646-3.78323 38.2559-5.04689 35.8521-7.41212L12.3218-30.6895C10.7378-32.2769 10.1236-33.6519 10.1236-35.2993C10.1236-36.9014 10.7867-38.2764 12.3218-39.8638L35.8487-63.8188C38.2525-66.1841 40.646-66.5361 43.8833-66.5361L75.5733-66.5361C80.7691-66.5361 83.4487-63.8598 83.4487-58.6538L83.4487-11.6655C83.4487-6.45607 80.7691-3.78323 75.5733-3.78323ZM39.5928-20.0703C40.021-20.0703 40.2188-20.1431 40.5811-20.5088L53.4336-33.3647L66.335-20.5088C66.6484-20.1465 66.937-20.0703 67.3233-20.0703C68.0049-20.0703 68.565-20.5464 68.565-21.1826C68.565-21.5689 68.4502-21.8506 68.1299-22.1709L55.1866-35.1143L68.1333-48.0644C68.4571-48.3847 68.5684-48.6665 68.5684-49.0039C68.5684-49.6855 68.0083-50.1548 67.3267-50.1548C66.9473-50.1548 66.6655-50.0435 66.2998-49.7197L53.4336-36.815L40.5743-49.7163C40.212-50.0366 40.021-50.148 39.5928-50.148C38.8657-50.148 38.3477-49.6821 38.3477-49.0005C38.3477-48.6631 38.4658-48.3779 38.7862-48.061L51.7295-35.1143L38.7862-22.1675C38.4658-21.8506 38.3477-21.5654 38.3477-21.1826C38.3477-20.5464 38.8657-20.0703 39.5928-20.0703Z"/>
  </g>
 </g>
</svg>
