<?xml version="1.0" encoding="UTF-8"?>
<!--Generator: Apple Native CoreSVG 232.5-->
<!DOCTYPE svg
PUBLIC "-//W3C//DTD SVG 1.1//EN"
       "http://www.w3.org/Graphics/SVG/1.1/DTD/svg11.dtd">
<svg version="1.1" xmlns="http://www.w3.org/2000/svg" xmlns:xlink="http://www.w3.org/1999/xlink" width="3300" height="2200">
 <g id="Notes">
  <rect height="2200" id="artboard" style="fill:white;opacity:1" width="3300" x="0" y="0"/>
  <line style="fill:none;stroke:black;opacity:1;stroke-width:0.5;" x1="263" x2="3036" y1="292" y2="292"/>
  <text style="stroke:none;fill:black;font-family:sans-serif;font-size:13;font-weight:bold;" transform="matrix(1 0 0 1 263 322)">Weight/Scale Variations</text>
  <text style="stroke:none;fill:black;font-family:sans-serif;font-size:13;text-anchor:middle;" transform="matrix(1 0 0 1 559.711 322)">Ultralight</text>
  <text style="stroke:none;fill:black;font-family:sans-serif;font-size:13;text-anchor:middle;" transform="matrix(1 0 0 1 856.422 322)">Thin</text>
  <text style="stroke:none;fill:black;font-family:sans-serif;font-size:13;text-anchor:middle;" transform="matrix(1 0 0 1 1153.13 322)">Light</text>
  <text style="stroke:none;fill:black;font-family:sans-serif;font-size:13;text-anchor:middle;" transform="matrix(1 0 0 1 1449.84 322)">Regular</text>
  <text style="stroke:none;fill:black;font-family:sans-serif;font-size:13;text-anchor:middle;" transform="matrix(1 0 0 1 1746.56 322)">Medium</text>
  <text style="stroke:none;fill:black;font-family:sans-serif;font-size:13;text-anchor:middle;" transform="matrix(1 0 0 1 2043.27 322)">Semibold</text>
  <text style="stroke:none;fill:black;font-family:sans-serif;font-size:13;text-anchor:middle;" transform="matrix(1 0 0 1 2339.98 322)">Bold</text>
  <text style="stroke:none;fill:black;font-family:sans-serif;font-size:13;text-anchor:middle;" transform="matrix(1 0 0 1 2636.69 322)">Heavy</text>
  <text style="stroke:none;fill:black;font-family:sans-serif;font-size:13;text-anchor:middle;" transform="matrix(1 0 0 1 2933.4 322)">Black</text>
  <line style="fill:none;stroke:black;opacity:1;stroke-width:0.5;" x1="263" x2="3036" y1="1903" y2="1903"/>
  <g transform="matrix(0.2 0 0 0.2 263 1933)">
   <path d="m46.2402 4.15039c21.5332 0 39.4531-17.8711 39.4531-39.4043s-17.9688-39.4043-39.502-39.4043c-21.4844 0-39.3555 17.8711-39.3555 39.4043s17.9199 39.4043 39.4043 39.4043Zm0-7.42188c-17.7246 0-31.8848-14.209-31.8848-31.9824s14.1113-31.9824 31.8359-31.9824c17.7734 0 32.0312 14.209 32.0312 31.9824s-14.209 31.9824-31.9824 31.9824Zm-17.9688-31.9824c0 2.14844 1.51367 3.61328 3.75977 3.61328h10.498v10.5957c0 2.19727 1.46484 3.71094 3.61328 3.71094 2.24609 0 3.71094-1.51367 3.71094-3.71094v-10.5957h10.5957c2.19727 0 3.71094-1.46484 3.71094-3.61328 0-2.19727-1.51367-3.71094-3.71094-3.71094h-10.5957v-10.5469c0-2.24609-1.46484-3.75977-3.71094-3.75977-2.14844 0-3.61328 1.51367-3.61328 3.75977v10.5469h-10.498c-2.24609 0-3.75977 1.51367-3.75977 3.71094Z"/>
  </g>
  <g transform="matrix(0.2 0 0 0.2 281.506 1933)">
   <path d="m58.5449 14.5508c27.2461 0 49.8047-22.6074 49.8047-49.8047 0-27.2461-22.6074-49.8047-49.8535-49.8047-27.1973 0-49.7559 22.5586-49.7559 49.8047 0 27.1973 22.6074 49.8047 49.8047 49.8047Zm0-8.30078c-23.0469 0-41.4551-18.457-41.4551-41.5039s18.3594-41.5039 41.4062-41.5039 41.5527 18.457 41.5527 41.5039-18.457 41.5039-41.5039 41.5039Zm-22.6562-41.5039c0 2.39258 1.66016 4.00391 4.15039 4.00391h14.3555v14.4043c0 2.44141 1.66016 4.15039 4.05273 4.15039 2.44141 0 4.15039-1.66016 4.15039-4.15039v-14.4043h14.4043c2.44141 0 4.15039-1.61133 4.15039-4.00391 0-2.44141-1.70898-4.15039-4.15039-4.15039h-14.4043v-14.3555c0-2.49023-1.70898-4.19922-4.15039-4.19922-2.39258 0-4.05273 1.70898-4.05273 4.19922v14.3555h-14.3555c-2.49023 0-4.15039 1.70898-4.15039 4.15039Z"/>
  </g>
  <g transform="matrix(0.2 0 0 0.2 304.924 1933)">
   <path d="m74.8535 28.3203c34.8145 0 63.623-28.8086 63.623-63.5742 0-34.8145-28.8574-63.623-63.6719-63.623-34.7656 0-63.5254 28.8086-63.5254 63.623 0 34.7656 28.8086 63.5742 63.5742 63.5742Zm0-9.08203c-30.1758 0-54.4434-24.3164-54.4434-54.4922 0-30.2246 24.2188-54.4922 54.3945-54.4922 30.2246 0 54.541 24.2676 54.541 54.4922 0 30.1758-24.2676 54.4922-54.4922 54.4922Zm-28.8574-54.4922c0 2.58789 1.85547 4.39453 4.58984 4.39453h19.7266v19.7754c0 2.68555 1.85547 4.58984 4.44336 4.58984 2.68555 0 4.54102-1.85547 4.54102-4.58984v-19.7754h19.7754c2.68555 0 4.58984-1.80664 4.58984-4.39453 0-2.73438-1.85547-4.58984-4.58984-4.58984h-19.7754v-19.7266c0-2.73438-1.85547-4.63867-4.54102-4.63867-2.58789 0-4.44336 1.9043-4.44336 4.63867v19.7266h-19.7266c-2.73438 0-4.58984 1.85547-4.58984 4.58984Z"/>
  </g>
  <text style="stroke:none;fill:black;font-family:sans-serif;font-size:13;font-weight:bold;" transform="matrix(1 0 0 1 263 1953)">Design Variations</text>
  <text style="stroke:none;fill:black;font-family:sans-serif;font-size:13;" transform="matrix(1 0 0 1 263 1971)">Symbols are supported in up to nine weights and three scales.</text>
  <text style="stroke:none;fill:black;font-family:sans-serif;font-size:13;" transform="matrix(1 0 0 1 263 1989)">For optimal layout with text and other symbols, vertically align</text>
  <text style="stroke:none;fill:black;font-family:sans-serif;font-size:13;" transform="matrix(1 0 0 1 263 2007)">symbols with the adjacent text.</text>
  <line style="fill:none;stroke:#00AEEF;stroke-width:0.5;opacity:1.0;" x1="776" x2="776" y1="1919" y2="1933"/>
  <g transform="matrix(0.2 0 0 0.2 776 1933)">
   <path d="m16.5527 0.78125c2.58789 0 3.85742-0.976562 4.78516-3.71094l6.29883-17.2363h28.8086l6.29883 17.2363c0.927734 2.73438 2.19727 3.71094 4.73633 3.71094 2.58789 0 4.24805-1.5625 4.24805-4.00391 0-0.830078-0.146484-1.61133-0.537109-2.63672l-22.9004-60.9863c-1.12305-2.97852-3.125-4.49219-6.25-4.49219-3.02734 0-5.07812 1.46484-6.15234 4.44336l-22.9004 61.084c-0.390625 1.02539-0.537109 1.80664-0.537109 2.63672 0 2.44141 1.5625 3.95508 4.10156 3.95508Zm13.4766-28.3691 11.8652-32.8613h0.244141l11.8652 32.8613Z"/>
  </g>
  <line style="fill:none;stroke:#00AEEF;stroke-width:0.5;opacity:1.0;" x1="792.836" x2="792.836" y1="1919" y2="1933"/>
  <text style="stroke:none;fill:black;font-family:sans-serif;font-size:13;font-weight:bold;" transform="matrix(1 0 0 1 776 1953)">Margins</text>
  <text style="stroke:none;fill:black;font-family:sans-serif;font-size:13;" transform="matrix(1 0 0 1 776 1971)">Leading and trailing margins on the left and right side of each symbol</text>
  <text style="stroke:none;fill:black;font-family:sans-serif;font-size:13;" transform="matrix(1 0 0 1 776 1989)">can be adjusted by modifying the x-location of the margin guidelines.</text>
  <text style="stroke:none;fill:black;font-family:sans-serif;font-size:13;" transform="matrix(1 0 0 1 776 2007)">Modifications are automatically applied proportionally to all</text>
  <text style="stroke:none;fill:black;font-family:sans-serif;font-size:13;" transform="matrix(1 0 0 1 776 2025)">scales and weights.</text>
  <g transform="matrix(0.2 0 0 0.2 1289 1933)">
   <path d="m14.209 9.32617 8.49609 8.54492c4.29688 4.3457 9.22852 4.05273 13.8672-1.07422l53.4668-58.9355-4.83398-4.88281-53.0762 58.3984c-1.75781 2.00195-3.41797 2.49023-5.76172 0.146484l-5.85938-5.81055c-2.34375-2.29492-1.80664-4.00391 0.195312-5.81055l57.373-54.0039-4.88281-4.83398-57.959 54.4434c-4.93164 4.58984-5.32227 9.47266-1.02539 13.8184Zm32.0801-90.9668c-2.09961 2.05078-2.24609 4.93164-1.07422 6.88477 1.17188 1.80664 3.4668 2.97852 6.68945 2.14844 7.32422-1.70898 14.9414-2.00195 22.0703 2.68555l-2.92969 7.27539c-1.70898 4.15039-0.830078 7.08008 1.85547 9.81445l11.4746 11.5723c2.44141 2.44141 4.49219 2.53906 7.32422 2.05078l5.32227-0.976562 3.32031 3.36914-0.195312 2.7832c-0.195312 2.49023 0.439453 4.39453 2.88086 6.78711l3.80859 3.71094c2.39258 2.39258 5.46875 2.53906 7.8125 0.195312l14.5508-14.5996c2.34375-2.34375 2.24609-5.32227-0.146484-7.71484l-3.85742-3.80859c-2.39258-2.39258-4.24805-3.17383-6.64062-2.97852l-2.88086 0.244141-3.22266-3.17383 1.2207-5.61523c0.634766-2.83203-0.146484-5.0293-3.07617-7.95898l-10.9863-10.9375c-16.6992-16.6016-38.8672-16.2109-53.3203-1.75781Zm7.4707 1.85547c12.1582-8.88672 28.6133-7.37305 39.7461 3.75977l12.1582 12.0605c1.17188 1.17188 1.36719 2.09961 1.02539 3.80859l-1.61133 7.42188 7.51953 7.42188 4.93164-0.292969c1.26953-0.0488281 1.66016 0.0488281 2.63672 1.02539l2.88086 2.88086-12.207 12.207-2.88086-2.88086c-0.976562-0.976562-1.12305-1.36719-1.07422-2.68555l0.341797-4.88281-7.4707-7.42188-7.61719 1.26953c-1.61133 0.341797-2.34375 0.195312-3.56445-0.976562l-10.0098-10.0098c-1.26953-1.17188-1.41602-2.00195-0.634766-3.85742l4.39453-10.4492c-7.8125-7.27539-17.9688-10.4004-28.125-7.42188-0.78125 0.195312-1.07422-0.439453-0.439453-0.976562Z"/>
  </g>
  <text style="stroke:none;fill:black;font-family:sans-serif;font-size:13;font-weight:bold;" transform="matrix(1 0 0 1 1289 1953)">Exporting</text>
  <text style="stroke:none;fill:black;font-family:sans-serif;font-size:13;" transform="matrix(1 0 0 1 1289 1971)">Symbols should be outlined when exporting to ensure the</text>
  <text style="stroke:none;fill:black;font-family:sans-serif;font-size:13;" transform="matrix(1 0 0 1 1289 1989)">design is preserved when submitting to Xcode.</text>
  <text id="template-version" style="stroke:none;fill:black;font-family:sans-serif;font-size:13;text-anchor:end;" transform="matrix(1 0 0 1 3036 1933)">Template v.2.0</text>
  <text style="stroke:none;fill:black;font-family:sans-serif;font-size:13;text-anchor:end;" transform="matrix(1 0 0 1 3036 1951)">Requires Xcode 12 or greater</text>
  <text id="descriptive-name" style="stroke:none;fill:black;font-family:sans-serif;font-size:13;text-anchor:end;" transform="matrix(1 0 0 1 3036 1969)">Generated from rectangle.compress.vertical</text>
  <text style="stroke:none;fill:black;font-family:sans-serif;font-size:13;text-anchor:end;" transform="matrix(1 0 0 1 3036 1987)">Typeset at 100.0 points</text>
  <text style="stroke:none;fill:black;font-family:sans-serif;font-size:13;" transform="matrix(1 0 0 1 263 726)">Small</text>
  <text style="stroke:none;fill:black;font-family:sans-serif;font-size:13;" transform="matrix(1 0 0 1 263 1156)">Medium</text>
  <text style="stroke:none;fill:black;font-family:sans-serif;font-size:13;" transform="matrix(1 0 0 1 263 1586)">Large</text>
 </g>
 <g id="Guides">
  <g id="H-reference" style="fill:#27AAE1;stroke:none;" transform="matrix(1 0 0 1 339 696)">
   <path d="M0.993654 0L3.63775 0L29.3281-67.1323L30.0303-67.1323L30.0303-70.459L28.1226-70.459ZM11.6885-24.4799L46.9815-24.4799L46.2315-26.7285L12.4385-26.7285ZM55.1196 0L57.7637 0L30.6382-70.459L29.4326-70.459L29.4326-67.1323Z"/>
  </g>
  <line id="Baseline-S" style="fill:none;stroke:#27AAE1;opacity:1;stroke-width:0.5;" x1="263" x2="3036" y1="696" y2="696"/>
  <line id="Capline-S" style="fill:none;stroke:#27AAE1;opacity:1;stroke-width:0.5;" x1="263" x2="3036" y1="625.541" y2="625.541"/>
  <g id="H-reference" style="fill:#27AAE1;stroke:none;" transform="matrix(1 0 0 1 339 1126)">
   <path d="M0.993654 0L3.63775 0L29.3281-67.1323L30.0303-67.1323L30.0303-70.459L28.1226-70.459ZM11.6885-24.4799L46.9815-24.4799L46.2315-26.7285L12.4385-26.7285ZM55.1196 0L57.7637 0L30.6382-70.459L29.4326-70.459L29.4326-67.1323Z"/>
  </g>
  <line id="Baseline-M" style="fill:none;stroke:#27AAE1;opacity:1;stroke-width:0.5;" x1="263" x2="3036" y1="1126" y2="1126"/>
  <line id="Capline-M" style="fill:none;stroke:#27AAE1;opacity:1;stroke-width:0.5;" x1="263" x2="3036" y1="1055.54" y2="1055.54"/>
  <g id="H-reference" style="fill:#27AAE1;stroke:none;" transform="matrix(1 0 0 1 339 1556)">
   <path d="M0.993654 0L3.63775 0L29.3281-67.1323L30.0303-67.1323L30.0303-70.459L28.1226-70.459ZM11.6885-24.4799L46.9815-24.4799L46.2315-26.7285L12.4385-26.7285ZM55.1196 0L57.7637 0L30.6382-70.459L29.4326-70.459L29.4326-67.1323Z"/>
  </g>
  <line id="Baseline-L" style="fill:none;stroke:#27AAE1;opacity:1;stroke-width:0.5;" x1="263" x2="3036" y1="1556" y2="1556"/>
  <line id="Capline-L" style="fill:none;stroke:#27AAE1;opacity:1;stroke-width:0.5;" x1="263" x2="3036" y1="1485.54" y2="1485.54"/>
  <line id="left-margin" style="fill:none;stroke:#00AEEF;stroke-width:0.5;opacity:1.0;" x1="1384.65" x2="1384.65" y1="1030.79" y2="1150.12"/>
  <line id="right-margin" style="fill:none;stroke:#00AEEF;stroke-width:0.5;opacity:1.0;" x1="1515.04" x2="1515.04" y1="1030.79" y2="1150.12"/>
 </g>
  <g id="Symbols">
    <g id="Black-L" transform="translate(2839.92,1531.8965)">
      <path d="m 93.48625,-6.1445312 c -2.153698,0 -3.852758,0.9059628 -5.597656,2.5507812 L 68.249922,15.025391 c -1.489999,1.389898 -2.113281,2.934426 -2.113281,4.765625 0,3.938596 3.142072,7 7.042968,7 1.996498,0 3.834833,-0.928605 4.832032,-2.158204 l 5.615234,-6.667968 2.800781,-4.150391 -0.691406,9.931641 v 14.646484 c 0,4.191796 3.421804,7.845703 7.75,7.845703 4.308596,0 7.75,-3.653907 7.75,-7.845703 V 23.746094 l -0.71094,-9.931641 2.85742,4.208984 5.57813,6.609375 c 0.975,1.229599 2.8735,2.158204 4.8125,2.158204 3.959,0 7.04297,-3.061404 7.04297,-7 0,-1.831199 -0.62321,-3.375727 -2.03321,-4.765625 L 99.1425,-3.59375 c -1.822898,-1.7020283 -3.522152,-2.5507812 -5.65625,-2.5507812 z"/>
      <path d="m 38.595625,-60.03125 c -13.132087,0 -22.511719,9.118534 -22.511719,21.544922 v 4.871094 c 0,12.505587 9.321132,21.542968 22.511719,21.542968 H 148.35734 c 13.21099,0 22.50977,-9.037381 22.50977,-21.542968 v -4.871094 c 0,-12.426388 -9.35678,-21.544922 -22.50977,-21.544922 z m 3.527344,15.707031 H 144.85148 c 4.796,0 7.83008,3.01998 7.83008,7.609375 v 1.347657 c 0,4.588195 -3.03408,7.589843 -7.83008,7.589843 H 42.122969 c -4.816795,0 -7.851563,-3.001648 -7.851563,-7.589843 v -1.347657 c 0,-4.589395 3.034768,-7.609375 7.851563,-7.609375 z"/>
    </g>
    <g id="Heavy-L" transform="translate(2545.45,1531.9229)">
      <path d="m 91.253125,-6.625 c -1.940198,0 -3.456086,0.8013203 -5.083984,2.3242188 L 66.192578,14.591797 c -1.390098,1.285099 -2.003906,2.703055 -2.003906,4.439453 0,3.593796 2.822947,6.335938 6.402344,6.335937 1.796198,0 3.478485,-0.832929 4.458984,-1.986328 l 6.183594,-6.992187 3.609375,-4.693359 -0.609375,10.142578 v 16.234375 c 0,3.796896 3.108835,7.082031 7.019531,7.082031 3.886096,0 7.023438,-3.285135 7.023438,-7.082031 V 21.837891 l -0.638672,-10.142578 3.654299,4.736328 6.16992,6.949218 c 0.945,1.153399 2.67574,1.986328 4.42773,1.986328 3.624,0 6.40235,-2.742141 6.40235,-6.335937 0,-1.736398 -0.61174,-3.154354 -1.92774,-4.439453 L 96.387891,-4.3007812 C 94.690892,-5.8626897 93.168823,-6.625 91.253125,-6.625 Z"/>
      <path d="m 37.467969,-59 c -12.491488,0 -21.384766,8.644856 -21.384766,20.402344 v 5.154297 c 0,11.832388 8.848678,20.402343 21.384766,20.402343 H 145.01289 c 12.56699,0 21.38477,-8.569955 21.38477,-20.402343 v -5.154297 C 166.39766,-50.355144 157.53488,-59 145.01289,-59 Z m 2.970703,14.105469 H 142.07148 c 5.039,0 8.22461,3.240123 8.22461,8.011719 v 1.753906 c 0,4.765995 -3.18561,7.982422 -8.22461,7.982422 H 40.438672 c -5.068895,0 -8.253906,-3.216427 -8.253906,-7.982422 v -1.753906 c 0,-4.771596 3.185011,-8.011719 8.253906,-8.011719 z"/>
    </g>
    <g id="Bold-L" transform="translate(2251.3,1532.002)">
      <path d="m 88.688281,-7.2617187 c -1.663998,0 -2.950557,0.6710019 -4.410156,2.0253906 L 63.871875,14.068359 c -1.259699,1.154599 -1.865234,2.403668 -1.865234,4.009766 0,3.141297 2.416409,5.476562 5.566406,5.476562 1.542898,0 3.010113,-0.709247 3.945312,-1.748046 l 6.763672,-7.302735 4.853516,-5.6367185 -0.507813,10.5136715 v 18.246094 c 0,3.282897 2.694551,6.09375 6.060547,6.09375 3.341197,0 6.072266,-2.810853 6.072266,-6.09375 V 19.380859 l -0.546875,-10.5136715 4.884765,5.6640625 6.773433,7.275391 c 0.884,1.038799 2.39226,1.748046 3.90625,1.748046 3.179,0 5.56641,-2.335265 5.56641,-5.476562 0,-1.606098 -0.60583,-2.855167 -1.79883,-4.009766 L 93.139453,-5.2363281 C 91.625955,-6.6066868 90.32748,-7.2617187 88.688281,-7.2617187 Z"/>
      <path d="m 36.158984,-57.724609 c -11.737188,0 -20.074218,8.090423 -20.074218,19.070312 v 5.320313 c 0,11.046989 8.30783,19.072265 20.074218,19.072265 H 141.19023 c 11.80499,0 20.07618,-8.025276 20.07618,-19.072265 v -5.320313 c 0,-10.979889 -8.30119,-19.070312 -20.07618,-19.070312 z m 2.279297,12.05664 H 138.95 c 5.38999,0 8.82617,3.554052 8.82617,8.623047 v 2.140625 c 0,5.055695 -3.43618,8.585938 -8.82617,8.585938 H 38.438281 c -5.428494,0 -8.865234,-3.530243 -8.865234,-8.585938 v -2.140625 c 0,-5.068995 3.43674,-8.623047 8.865234,-8.623047 z"/>
    </g>
    <g id="Semibold-L" transform="translate(1956.36,1532.0566)">
      <path d="m 86.919297,-7.7011719 c -1.473599,0 -2.599861,0.5820838 -3.943359,1.8203125 L 62.272813,13.707031 c -1.169799,1.064499 -1.769532,2.198446 -1.769532,3.714844 0,2.829197 2.136137,4.884766 4.990235,4.884766 1.368098,0 2.685944,-0.626239 3.589843,-1.585938 L 76.247422,13.203125 81.960313,6.9160156 81.520859,17.6875 v 19.632812 c 0,2.928398 2.407941,5.41211 5.398438,5.41211 2.965597,0 5.417969,-2.483712 5.417969,-5.41211 V 17.6875 l -0.482422,-10.7714844 5.730469,6.3066404 7.189457,7.498047 c 0.84199,0.959699 2.19687,1.585938 3.54687,1.585938 2.872,0 4.99024,-2.055569 4.99024,-4.884766 0,-1.516398 -0.59904,-2.650345 -1.70704,-3.714844 L 90.899766,-5.8808594 c -1.386999,-1.2383287 -2.531771,-1.8203125 -3.980469,-1.8203125 z"/>
      <path d="m 35.257188,-56.845703 c -11.217189,0 -19.173829,7.710507 -19.173829,18.154297 v 5.433594 c 0,10.505689 7.93804,18.154296 19.173829,18.154296 H 138.55797 c 11.27899,0 19.17187,-7.648607 19.17187,-18.154296 v -5.433594 c 0,-10.44379 -7.91188,-18.154297 -19.17187,-18.154297 z m 1.802734,10.642578 H 136.7982 c 5.633,0 9.24219,3.77278 9.24219,9.046875 V -34.75 c 0,5.255495 -3.60919,9.003906 -9.24219,9.003906 H 37.059922 c -5.676494,0 -9.287109,-3.748411 -9.287109,-9.003906 v -2.40625 c 0,-5.274095 3.610615,-9.046875 9.287109,-9.046875 z"/>
    </g>
    <g id="Medium-L" transform="translate(1660.99,1532.0977)">
      <path d="m 85.578359,-8.0332031 c -1.329098,0 -2.334245,0.5139136 -3.589843,1.6640625 L 61.058828,13.433594 c -1.101599,0.996299 -1.697265,2.041936 -1.697266,3.490234 0,2.592698 1.923138,4.435547 4.552735,4.435547 1.235699,0 2.44402,-0.561138 3.324219,-1.460938 L 74.705312,12.21875 81.068594,5.4375 80.681875,16.404297 v 20.685547 c 0,2.659697 2.190787,4.892578 4.896484,4.892578 2.680698,0 4.919922,-2.232881 4.919922,-4.892578 V 16.404297 L 90.064687,5.4375 l 6.373047,6.791016 7.503906,7.669921 c 0.811,0.8998 2.05039,1.460938 3.27539,1.460938 2.641,0 4.55274,-1.842849 4.55274,-4.435547 0,-1.448298 -0.59568,-2.493935 -1.63868,-3.490234 L 89.203359,-6.3691406 c -1.290998,-1.1381989 -2.320901,-1.6640625 -3.625,-1.6640625 z"/>
      <path d="m 34.5725,-56.177734 c -10.822889,0 -18.488281,7.417788 -18.488281,17.455078 v 5.523437 c 0,10.09509 7.654892,17.457032 18.488281,17.457031 h 101.98633 c 10.88099,0 18.49023,-7.361941 18.49023,-17.457031 v -5.523437 c 0,-10.03729 -7.61924,-17.455078 -18.49023,-17.455078 z m 1.441406,9.570312 h 99.152344 c 5.81699,0 9.55859,3.93564 9.55859,9.365235 v 2.611328 c 0,5.406994 -3.7416,9.316406 -9.55859,9.316406 H 36.013906 c -5.864494,0 -9.605469,-3.909412 -9.605469,-9.316406 v -2.611328 c 0,-5.429595 3.740975,-9.365235 9.605469,-9.365235 z"/>
    </g>
    <g id="Regular-L" transform="translate(1366.03,1532.1514)">
      <path d="m 83.829375,-8.4667969 c -1.140799,0 -1.990061,0.4237254 -3.130859,1.4589844 L 59.477813,13.078125 c -1.012699,0.907199 -1.603516,1.835814 -1.603516,3.195312 0,2.284098 1.645524,3.84961 3.982422,3.84961 1.062899,0 2.123357,-0.477229 2.972656,-1.298828 l 7.863281,-7.890625 7.212891,-7.4257815 -0.320313,11.2226565 v 22.05664 c 0,2.309198 1.909843,4.21875 4.244141,4.21875 2.309198,0 4.271484,-1.909552 4.271484,-4.21875 v -22.05664 l -0.371093,-11.2226565 7.210937,7.4257815 7.916017,7.890625 c 0.769,0.821599 1.85692,1.298828 2.91992,1.298828 2.337,0 3.98242,-1.565512 3.98242,-3.84961 0,-1.359498 -0.58983,-2.288113 -1.54883,-3.195312 L 86.987578,-7.0078125 c -1.165899,-1.007599 -2.042504,-1.4589844 -3.158203,-1.4589844 z"/>
      <path d="m 33.680938,-55.308594 c -10.30859,0 -17.597657,7.041838 -17.597657,16.548828 v 5.636719 c 0,9.559791 7.289067,16.546875 17.597657,16.546875 H 133.95438 c 10.36198,0 17.5957,-6.987084 17.5957,-16.546875 v -5.636719 c 0,-9.50699 -7.23372,-16.548828 -17.5957,-16.548828 z m 0.96875,8.173828 h 98.386722 c 6.05699,0 9.9707,4.148956 9.9707,9.78125 v 2.875 c 0,5.604695 -3.91371,9.728516 -9.9707,9.728516 H 34.649688 c -6.109794,0 -10.021485,-4.123821 -10.021485,-9.728516 v -2.875 c 0,-5.632294 3.911691,-9.78125 10.021485,-9.78125 z"/>
    </g>
    <g id="Light-L" transform="translate(1069.77,1532.5049)">
      <path d="m 83.353047,-9.1738281 c -0.873599,0 -1.532651,0.3285364 -2.40625,1.1347656 L 59.345234,12.810547 C 58.466135,13.622246 57.855,14.361129 57.855,15.548828 c 0,1.806998 1.284302,3.009766 3.125,3.009766 0.852999,0 1.646288,-0.36291 2.304688,-0.97461 L 70.745625,10.074219 80.382344,0.24414063 80.120625,12.439453 v 23.736328 c 0,1.793898 1.451524,3.246094 3.232422,3.246094 1.793898,0 3.279297,-1.452196 3.279297,-3.246094 V 12.439453 l -0.294922,-12.19531237 9.634766,9.83007837 7.496092,7.509765 c 0.578,0.6117 1.41849,0.97461 2.27149,0.97461 1.84099,0 3.12304,-1.202768 3.12304,-3.009766 0,-1.187699 -0.61008,-1.926582 -1.45508,-2.738281 L 85.806172,-8.0390625 c -0.860599,-0.7594892 -1.566526,-1.1347656 -2.453125,-1.1347656 z"/>
      <path d="m 33.337422,-54.431641 c -10.04149,0 -17.253906,6.851347 -17.253906,16.148438 v 4.585937 c 0,9.330691 7.212416,16.148438 17.253906,16.148438 H 133.38234 c 10.07499,0 17.25196,-6.817747 17.25196,-16.148438 v -4.585937 c 0,-9.297091 -7.17697,-16.148438 -17.25196,-16.148438 z m 0.472656,6.324219 h 99.132812 c 6.62899,0 11.13281,4.625488 11.13281,10.925781 v 2.417969 c 0,6.253494 -4.50382,10.892578 -11.13281,10.892578 H 33.810078 c -6.663193,0 -11.167969,-4.639084 -11.167969,-10.892578 v -2.417969 c 0,-6.300293 4.504776,-10.925781 11.167969,-10.925781 z"/>
    </g>
    <g id="Thin-L" transform="translate(773.669,1532.9717)">
      <path d="m 82.721625,-10.107422 c -0.520199,0 -0.927066,0.2017388 -1.447266,0.7050782 L 59.166938,12.457031 c -0.7024,0.6855 -1.335938,1.172314 -1.335938,2.132813 0,1.175999 0.803882,1.898437 1.988281,1.898437 0.5753,0 1.013923,-0.210822 1.419922,-0.544922 L 68.172797,8.9394531 81.012641,-4.0722656 80.827094,9.4101563 V 35.367187 c 0,1.112399 0.845732,1.958985 1.894531,1.958985 1.112399,0 1.966797,-0.846586 1.966797,-1.958985 V 9.4101563 L 84.493109,-4.0722656 97.334906,8.9394531 104.27631,15.943359 c 0.326,0.3341 0.83611,0.544922 1.41211,0.544922 1.184,0 1.98828,-0.722438 1.98828,-1.898437 0,-0.960499 -0.63412,-1.447313 -1.32812,-2.132813 L 84.241156,-9.4023438 c -0.456699,-0.4313495 -0.935732,-0.7050782 -1.519531,-0.7050782 z"/>
      <path d="m 32.883734,-53.269531 c -9.68809,0 -16.798828,6.597696 -16.798828,15.617187 v 3.199219 c 0,9.027891 7.110738,15.617188 16.798828,15.617188 h 99.740236 c 9.69699,0 16.79883,-6.589297 16.79883,-15.617188 v -3.199219 c 0,-9.019491 -7.10184,-15.617187 -16.79883,-15.617187 z m -0.183593,3.875 H 132.81538 c 7.38699,0 12.67382,5.257613 12.67382,12.441406 v 1.810547 c 0,7.111793 -5.28683,12.431641 -12.67382,12.431641 H 32.700141 c -7.395193,0 -12.683594,-5.319848 -12.683594,-12.431641 v -1.810547 c 0,-7.183793 5.288401,-12.441406 12.683594,-12.441406 z"/>
    </g>
    <g id="Ultralight-L" transform="translate(477.268,1533.2119)">
      <path d="m 82.398016,-10.585938 c -0.3392,0 -0.615879,0.138129 -0.955078,0.486329 l -22.365235,22.375 c -0.611899,0.620899 -1.259765,0.978066 -1.259765,1.822265 0,0.852699 0.55795,1.330078 1.40625,1.330078 0.433099,0 0.69195,-0.132319 0.96875,-0.324218 L 66.853094,8.3574219 81.335516,-6.2832031 81.189031,7.859375 v 27.09375 c 0,0.763299 0.535085,1.298828 1.208985,1.298828 0.763299,0 1.294922,-0.535529 1.294922,-1.298828 V 7.859375 l -0.142579,-14.1425781 14.482422,14.640625 6.656249,6.7460941 c 0.196,0.191899 0.54161,0.324218 0.97461,0.324218 0.848,0 1.40625,-0.477379 1.40625,-1.330078 0,-0.844199 -0.64962,-1.201366 -1.26562,-1.822265 l -22.365239,-22.375 c -0.2498,-0.2633 -0.612416,-0.486329 -1.041015,-0.486329 z"/>
      <path d="m 32.649969,-52.675781 c -9.506991,0 -16.566406,6.470465 -16.566406,15.347656 v 2.486328 c 0,8.872691 7.059415,15.345703 16.566406,15.345703 h 99.585941 c 9.50299,0 16.5664,-6.473012 16.5664,-15.345703 v -2.486328 c 0,-8.877191 -7.06341,-15.347656 -16.5664,-15.347656 z m -0.519531,2.621094 H 132.75153 c 7.77399,0 13.46289,5.580504 13.46289,13.216796 v 1.5 c 0,7.551393 -5.6889,13.222657 -13.46289,13.222657 H 32.130438 c -7.770093,0 -13.457032,-5.671264 -13.457032,-13.222657 v -1.5 c 0,-7.636292 5.686939,-13.216796 13.457032,-13.216796 z"/>
    </g>
    <g id="Black-M" transform="translate(2859.12,1105.3037)">
      <path d="m 74.282344,-12.378906 c -1.815798,0 -3.261536,0.778854 -4.677735,2.126953 L 54.626094,4.0410156 c -1.221999,1.1539489 -1.716797,2.4350809 -1.716797,3.9121094 0,3.282977 2.659228,5.878906 5.890625,5.878906 1.690298,0 3.215663,-0.785891 3.976562,-1.77539 l 3.806641,-4.8359379 1.802734,-3.0742187 -0.597656,7.6445316 v 10.210937 c 0,3.517197 2.857044,6.601563 6.494141,6.601563 3.631396,0 6.49414,-3.084366 6.49414,-6.601563 V 11.791016 l -0.603515,-7.6445316 1.859375,3.1328125 3.755859,4.7773441 c 0.755599,0.989499 2.337505,1.77539 3.970703,1.77539 3.288497,0 5.888672,-2.595929 5.888672,-5.878906 0,-1.4770285 -0.492945,-2.7581605 -1.652344,-3.9121094 L 79.016719,-10.251953 c -1.478999,-1.405499 -2.924277,-2.126953 -4.734375,-2.126953 z"/>
      <path d="m 30.823359,-55.210937 c -10.688489,0 -18.363281,7.443597 -18.363281,17.617187 v 3.390625 c 0,10.23619 7.617692,17.617188 18.363281,17.617188 h 86.912111 c 10.75099,0 18.36328,-7.380998 18.36328,-17.617188 v -3.390625 c 0,-10.17359 -7.66929,-17.617187 -18.36328,-17.617187 z m 3.142579,13.292968 H 114.5968 c 3.58499,0 5.88672,2.215482 5.88672,5.705078 v 0.634766 c 0,3.489797 -2.30173,5.699219 -5.88672,5.699219 H 33.965938 c -3.590097,0 -5.890626,-2.209422 -5.890625,-5.699219 v -0.634766 c 0,-3.489596 2.300528,-5.705078 5.890625,-5.705078 z"/>
    </g>
    <g id="Heavy-M" transform="translate(2564.55,1105.2959)">
      <path d="m 72.143359,-12.783203 c -1.631798,0 -2.917642,0.685548 -4.24414,1.935547 L 52.625781,3.6425781 c -1.136699,1.060319 -1.617187,2.2326939 -1.617187,3.6328125 0,2.9899474 2.379,5.3085934 5.341797,5.3085934 1.513998,0 2.909575,-0.702219 3.671875,-1.636718 L 64.422656,5.7597656 66.791797,2.375 66.270312,10.136719 v 11.607422 c 0,3.178596 2.593051,5.947265 5.873047,5.947265 3.265897,0 5.875,-2.768669 5.875,-5.947265 V 10.136719 L 77.479297,2.375 l 2.414062,3.4277344 4.373047,5.1445316 c 0.7436,0.934499 2.183899,1.636718 3.654297,1.636718 3.006397,0 5.34375,-2.318646 5.34375,-5.3085934 0,-1.4001186 -0.481895,-2.5724935 -1.558594,-3.6328125 L 76.432422,-10.847656 c -1.384199,-1.291299 -2.671364,-1.935547 -4.289063,-1.935547 z"/>
      <path d="m 29.754687,-54.283203 c -10.086789,0 -17.292968,6.998019 -17.292968,16.537109 v 3.763672 c 0,9.599191 7.162579,16.537109 17.292968,16.53711 h 84.763673 c 10.14699,0 17.29297,-6.937919 17.29297,-16.53711 v -3.763672 c 0,-9.53909 -7.18998,-16.537109 -17.29297,-16.537109 z m 2.644532,11.898437 h 79.490231 c 3.769,0 6.16407,2.386191 6.16407,5.992188 v 1.072266 c 0,3.603796 -2.39507,5.976562 -6.16407,5.976562 H 32.399219 c -3.785496,0 -6.179688,-2.372766 -6.179688,-5.976562 v -1.072266 c 0,-3.605997 2.394192,-5.992188 6.179688,-5.992188 z"/>
    </g>
    <g id="Bold-M" transform="translate(2270.24,1105.2891)">
      <path d="m 69.750234,-13.236328 c -1.425898,0 -2.531713,0.582357 -3.757812,1.722656 L 50.390859,3.1953125 c -1.041399,0.955579 -1.511718,2.0101401 -1.511718,3.3242187 0,2.6622374 2.070024,4.6699218 4.732422,4.6699218 1.316698,0 2.566178,-0.611456 3.330078,-1.4843749 L 62.006094,4.1230469 65.01,0.39453125 64.570547,8.2851563 V 21.457031 c 0,2.799997 2.29919,5.212891 5.179687,5.212891 2.856998,0 5.183594,-2.412894 5.183594,-5.212891 V 8.2851563 l -0.466797,-7.89062505 3.033203,3.75781245 5.064454,5.5527344 c 0.729999,0.8729189 2.012582,1.4843749 3.300781,1.4843749 2.690797,0 4.732422,-2.0076844 4.732422,-4.6699218 0,-1.3140786 -0.470879,-2.3686397 -1.455078,-3.3242187 L 73.543203,-11.513672 c -1.278099,-1.163699 -2.39047,-1.722656 -3.792969,-1.722656 z"/>
      <path d="m 28.556875,-53.248047 c -9.413591,0 -16.095703,6.50274 -16.095703,15.332031 v 4.177735 c 0,8.886591 6.653512,15.333984 16.095703,15.333984 h 82.363285 c 9.47099,0 16.0957,-6.447393 16.0957,-15.333984 v -4.177735 c 0,-8.829291 -6.65271,-15.332031 -16.0957,-15.332031 z m 2.087891,10.339844 h 78.216794 c 3.975,0 6.47266,2.578257 6.47266,6.314453 v 1.5625 c 0,3.731096 -2.49766,6.287109 -6.47266,6.287109 H 30.644766 c -4.004096,0 -6.501953,-2.556013 -6.501953,-6.287109 v -1.5625 c 0,-3.736196 2.497857,-6.314453 6.501953,-6.314453 z"/>
    </g>
    <g id="Semibold-M" transform="translate(1975.18,1105.2842)">
      <path d="m 68.10125,-13.548828 c -1.283999,0 -2.266929,0.50952 -3.423828,1.574219 L 48.849297,2.8867188 c -0.975599,0.8833791 -1.4375,1.8565593 -1.4375,3.1113281 0,2.4362875 1.857302,4.2285161 4.3125,4.2285161 1.180799,0 2.328951,-0.5465345 3.09375,-1.3769536 L 60.339531,2.9941406 63.780937,-0.97070313 63.400078,7.0097656 V 21.257812 c 0,2.538798 2.096075,4.707032 4.701172,4.707032 2.575197,0 4.707031,-2.168234 4.707031,-4.707032 V 7.0097656 l -0.417969,-7.98046873 3.458985,3.98437503 5.541015,5.8359375 c 0.7207,0.8304191 1.895995,1.3769536 3.058594,1.3769536 2.473298,0 4.310547,-1.7922286 4.310547,-4.2285161 0,-1.2547688 -0.462413,-2.227949 -1.382812,-3.1113281 L 71.550469,-11.974609 c -1.204999,-1.075699 -2.19512,-1.574219 -3.449219,-1.574219 z"/>
      <path d="m 27.732109,-52.533203 c -8.949591,0 -15.271484,6.159908 -15.271484,14.5 v 4.464844 c 0,8.395291 6.303693,14.501953 15.271484,14.501953 h 80.707031 c 9.00499,0 15.27148,-6.106662 15.27148,-14.501953 v -4.464844 c 0,-8.340092 -6.28449,-14.5 -15.27148,-14.5 z m 1.703125,9.263672 h 77.335936 c 4.118,0 6.68945,2.713066 6.68945,6.539062 v 1.898438 c 0,3.818896 -2.57145,6.5 -6.68945,6.5 H 29.435234 c -4.154795,0 -6.722656,-2.681104 -6.722656,-6.5 v -1.898438 c 0,-3.825996 2.567861,-6.539062 6.722656,-6.539062 z"/>
    </g>
    <g id="Medium-M" transform="translate(1679.72,1105.2803)">
      <path d="m 66.850312,-13.785156 c -1.176398,0 -2.065422,0.455491 -3.169921,1.46289 l -16,14.9746098 c -0.925699,0.8286191 -1.38086,1.7394299 -1.38086,2.9492187 0,2.2649677 1.69409,3.8964844 3.992188,3.8964844 1.077599,0 2.150316,-0.4986658 2.916015,-1.296875 L 59.076875,2.140625 62.848359,-2.0078125 62.512422,6.0429687 V 21.107422 c 0,2.340898 1.941593,4.324219 4.33789,4.324219 2.361498,0 4.345704,-1.983321 4.345704,-4.324219 V 6.0429687 l -0.38086,-8.0507812 3.785156,4.1582031 5.900391,6.0507813 c 0.713699,0.7982092 1.805648,1.296875 2.873047,1.296875 2.308398,0 3.992187,-1.6315167 3.992187,-3.8964844 0,-1.2097888 -0.456125,-2.1205996 -1.328125,-2.9492187 l -16,-14.9746098 c -1.149598,-1.009099 -2.045901,-1.46289 -3.1875,-1.46289 z"/>
      <path d="m 27.106172,-51.992187 c -8.597792,0 -14.644531,5.902001 -14.644531,13.871093 v 4.681641 c 0,8.022692 6.036439,13.871094 14.644531,13.871094 H 106.5593 c 8.65199,0 14.64453,-5.848402 14.64453,-13.871094 v -4.681641 c 0,-7.969092 -6.00354,-13.871093 -14.64453,-13.871093 z m 1.414062,8.449218 H 105.1882 c 4.226,0 6.85157,2.812835 6.85157,6.707032 v 2.154296 c 0,3.885596 -2.62557,6.66211 -6.85157,6.66211 H 28.520234 c -4.268995,0 -6.894531,-2.776514 -6.894531,-6.66211 v -2.154296 c 0,-3.894197 2.625536,-6.707032 6.894531,-6.707032 z"/>
    </g>
    <g id="Regular-M" transform="translate(1384.65,1105.2754)">
      <path d="m 65.219141,-14.09375 c -1.036099,0 -1.803745,0.383907 -2.839844,1.316406 L 46.156641,2.3476563 c -0.8607,0.7572092 -1.308594,1.5871524 -1.308594,2.7382812 0,2.041498 1.482974,3.4609375 3.576172,3.4609375 0.943199,0 1.916794,-0.435207 2.683593,-1.1914063 L 57.428125,1.0234375 61.633203,-3.3574219 61.353906,4.78125 v 16.130859 c 0,2.082698 1.741237,3.822266 3.865235,3.822266 2.082698,0 3.875,-1.739568 3.875,-3.822266 V 4.78125 l -0.332032,-8.1386719 4.205078,4.3808594 6.373047,6.3320312 c 0.7044,0.7561993 1.687661,1.1914063 2.63086,1.1914063 2.093198,0 3.576172,-1.4194395 3.576172,-3.4609375 0,-1.1511288 -0.446861,-1.981072 -1.25586,-2.7382812 L 68.06875,-12.777344 c -1.077299,-0.921999 -1.85481,-1.316406 -2.849609,-1.316406 z"/>
      <path d="m 26.289453,-51.285156 c -8.138792,0 -13.828125,5.563735 -13.828125,13.048828 v 4.964844 c 0,7.536892 5.689333,13.048828 13.828125,13.048828 h 77.816407 c 8.19099,0 13.83008,-5.511936 13.83008,-13.048828 v -4.964844 c 0,-7.485093 -5.63909,-13.048828 -13.83008,-13.048828 z m 1.033203,7.386719 h 75.800784 c 4.36599,0 7.0625,2.942785 7.0625,6.925781 v 2.488281 c 0,3.972396 -2.69651,6.875 -7.0625,6.875 H 27.322656 c -4.417995,0 -7.111328,-2.902604 -7.111328,-6.875 v -2.488281 c 0,-3.982996 2.693333,-6.925782 7.111328,-6.925781 z"/>
    </g>
    <g id="Light-M" transform="translate(1088.35,1105.5918)">
      <path d="m 64.790625,-14.726563 c -0.796499,0 -1.392954,0.298192 -2.189453,1.025391 L 46.036719,2.109375 c -0.7409,0.6716493 -1.205078,1.3290329 -1.205078,2.3261719 0,1.6137184 1.156389,2.7070312 2.804687,2.7070312 0.754899,0 1.490238,-0.3324012 2.085938,-0.9003906 L 55.683203,0.25390625 62.062109,-6.2832031 61.833594,2.7285156 V 20.365234 c 0,1.620699 1.329333,2.949219 2.957031,2.949219 1.620698,0 2.984375,-1.32852 2.984375,-2.949219 V 2.7285156 l -0.261719,-9.0117187 6.378907,6.53710935 5.996093,5.98828125 c 0.5334,0.5679894 1.293929,0.9003906 2.048828,0.9003906 1.648399,0 2.804688,-1.0933128 2.804688,-2.7070312 0,-0.997139 -0.463623,-1.6545226 -1.169922,-2.3261719 L 67.007422,-13.701172 c -0.803499,-0.699499 -1.427298,-1.025391 -2.216797,-1.025391 z"/>
      <path d="m 25.982031,-50.498047 c -7.899292,0 -13.521484,5.392561 -13.521484,12.689453 v 4.023438 c 0,7.331492 5.622192,12.689453 13.521484,12.689453 h 77.611329 c 7.93399,0 13.51953,-5.357961 13.51953,-12.689453 v -4.023438 c 0,-7.296892 -5.58554,-12.689453 -13.51953,-12.689453 z m 0.587891,5.726563 h 76.468748 c 4.88,0 8.10352,3.371229 8.10352,7.953125 v 2.078125 c 0,4.554195 -3.22352,7.917968 -8.10352,7.917968 H 26.569922 c -4.914295,0 -8.138672,-3.363773 -8.138672,-7.917968 v -2.078125 c 0,-4.581896 3.224377,-7.953125 8.138672,-7.953125 z"/>
    </g>
    <g id="Thin-M" transform="translate(792.178,1106.0098)">
      <path d="m 64.224344,-15.564453 c -0.4797,0 -0.848426,0.184925 -1.328125,0.640625 L 45.878641,1.7910156 c -0.5825,0.5584995 -1.070313,0.9916971 -1.070313,1.7851563 0,1.0479589 0.727211,1.7109375 1.78711,1.7109375 0.505999,0 0.923669,-0.1965853 1.292968,-0.515625 L 53.374734,-0.76367187 62.626688,-10.154297 62.466531,0.01171875 V 19.640625 c 0,1.009699 0.786414,1.796875 1.757813,1.796875 1.009699,0 1.808593,-0.787176 1.808594,-1.796875 V 0.01171875 l -0.171875,-10.16601575 9.251953,9.39062513 5.498047,5.53515627 c 0.306999,0.3190397 0.77525,0.515625 1.28125,0.515625 1.059998,0 1.787109,-0.6629786 1.787109,-1.7109375 0,-0.7934592 -0.486141,-1.2266568 -1.056641,-1.7851563 L 65.60325,-14.923828 c -0.4414,-0.4054 -0.860907,-0.640625 -1.378906,-0.640625 z"/>
      <path d="m 25.573953,-49.457031 c -7.582392,0 -13.113281,5.164997 -13.113281,12.21289 v 2.779297 c 0,7.059893 5.530889,12.214844 13.113281,12.214844 H 102.9138 c 7.59399,0 13.11328,-5.154951 13.11328,-12.214844 v -2.779297 c 0,-7.047893 -5.51929,-12.21289 -13.11328,-12.21289 z m 0.002,3.53125 h 77.349617 c 5.55899,0 9.48437,3.936552 9.48437,9.310547 v 1.535156 c 0,5.323695 -3.92538,9.298828 -9.48437,9.298828 H 25.575906 c -5.570594,0 -9.498047,-3.975133 -9.498047,-9.298828 v -1.535156 c 0,-5.373995 3.927453,-9.310547 9.498047,-9.310547 z"/>
    </g>
    <g id="Ultralight-M" transform="translate(495.745,1106.2246)">
      <path d="m 63.934687,-15.992188 c -0.317399,0 -0.571272,0.12676 -0.888671,0.44336 l -17.25,17.1777342 c -0.5014,0.5005395 -0.998047,0.8167301 -0.998047,1.5058594 0,0.7581793 0.505072,1.203125 1.263672,1.203125 0.378499,0 0.635272,-0.1268095 0.888671,-0.3183594 l 5.242188,-5.3046874 10.724609,-10.8515628 -0.125,10.7578128 V 19.269531 c 0,0.6967 0.507379,1.205078 1.142578,1.205078 0.6967,0 1.207032,-0.508378 1.207032,-1.205078 V -1.3789062 l -0.126953,-10.7578128 10.724609,10.8515628 5.244141,5.3046874 c 0.191099,0.1915499 0.506266,0.3183594 0.884765,0.3183594 0.758599,0 1.265625,-0.4449457 1.265625,-1.203125 0,-0.6891293 -0.497147,-1.0053199 -0.998047,-1.5058594 l -17.25,-17.1777342 c -0.255999,-0.2547 -0.572272,-0.44336 -0.951172,-0.44336 z"/>
      <path d="m 25.366328,-48.923828 c -7.420192,0 -12.90625,5.05031 -12.90625,11.970703 v 2.140625 c 0,6.920893 5.486058,11.972656 12.90625,11.972656 h 77.199222 c 7.42099,0 12.90625,-5.051763 12.90625,-11.972656 v -2.140625 c 0,-6.920393 -5.48526,-11.970703 -12.90625,-11.970703 z m -0.300781,2.408203 h 77.800783 c 5.90599,0 10.19336,4.226265 10.19336,10.005859 v 1.25586 c 0,5.717694 -4.28737,10.005859 -10.19336,10.005859 H 25.065547 c -5.906694,0 -10.19336,-4.288165 -10.19336,-10.005859 v -1.25586 c 0,-5.779594 4.286666,-10.005859 10.19336,-10.005859 z"/>
    </g>
    <g id="Black-S" transform="translate(2874.56,678.06641)">
      <path d="m 58.838438,-17.236328 c -1.464899,0 -2.636667,0.634685 -3.759766,1.708984 L 43.40875,-4.3457031 c -0.976599,0.927729 -1.367187,1.9531211 -1.367187,3.125 0,2.6367173 2.14853,4.7363281 4.736328,4.7363281 1.367198,0 2.587828,-0.6347664 3.173828,-1.4160156 L 52.734922,-1.5625 54.102109,-4.0039062 53.613828,2.0019531 v 7.6660157 c 0,2.8320272 2.294912,5.3222652 5.22461,5.3222652 2.929697,0 5.224609,-2.490238 5.224609,-5.3222652 V 2.0019531 l -0.488281,-6.0058593 1.416015,2.4902343 2.734375,3.6132813 c 0.5859,0.7812492 1.85553,1.4160156 3.173828,1.4160156 2.636798,0 4.736328,-2.0996108 4.736329,-4.7363281 0,-1.1718789 -0.390661,-2.197271 -1.31836,-3.125 L 62.647031,-15.527344 c -1.171899,-1.123099 -2.343795,-1.708984 -3.808593,-1.708984 z"/>
      <path d="m 24.463438,-51.123047 c -8.544892,0 -14.6972661,5.957036 -14.6972661,14.111328 v 2.490235 c 0,8.203091 6.1034741,14.111328 14.6972661,14.111328 h 68.75 c 8.594092,0 14.697262,-5.908237 14.697262,-14.111328 v -2.490235 c 0,-8.154292 -6.15217,-14.111328 -14.697262,-14.111328 z m 2.58789,10.742188 h 63.574219 c 2.783197,0 4.589844,1.708962 4.589844,4.443359 v 0.341797 c 0,2.734397 -1.806647,4.443359 -4.589844,4.443359 H 27.051328 c -2.783197,0 -4.589844,-1.708962 -4.589844,-4.443359 V -35.9375 c 0,-2.734397 1.806647,-4.443359 4.589844,-4.443359 z"/>
    </g>
    <g id="Heavy-S" transform="translate(2579.63,678.02051)">
      <path d="m 57.063359,-17.501953 c -1.338098,0 -2.395757,0.565432 -3.472656,1.582031 L 41.71375,-4.65625 c -0.918899,0.8585791 -1.296875,1.8136843 -1.296875,2.9394531 0,2.44080558 1.95219,4.3457032 4.367187,4.3457032 1.240399,0 2.379382,-0.5777383 2.988282,-1.3359376 l 3.33789,-4.0078125 1.574219,-2.4296874 -0.431641,5.99414058 V 9.5175781 c 0,2.6015479 2.12285,4.8730469 4.810547,4.8730469 2.676198,0 4.808594,-2.271499 4.808594,-4.8730469 V 0.84960938 l -0.441406,-5.99414058 1.611328,2.4667968 3.310547,3.9707031 c 0.597499,0.7581993 1.775417,1.3359376 2.978515,1.3359376 2.452298,0 4.367188,-1.90489762 4.367188,-4.3457032 0,-1.1257688 -0.377848,-2.080874 -1.248047,-2.9394531 L 60.571172,-15.919922 c -1.125799,-1.053899 -2.181214,-1.582031 -3.507813,-1.582031 z"/>
      <path d="m 23.586797,-50.431641 c -8.060892,0 -13.8203126,5.600636 -13.8203126,13.236329 v 2.927734 c 0,7.684492 5.7221206,13.234375 13.8203126,13.234375 h 66.941406 c 8.109692,0 13.820317,-5.549883 13.820317,-13.234375 v -2.927734 c 0,-7.635693 -5.747925,-13.236329 -13.820317,-13.236329 z m 2.21875,9.761719 h 62.513672 c 2.875397,0 4.695312,1.801197 4.695312,4.558594 v 0.769531 c 0,2.757497 -1.819915,4.546875 -4.695312,4.546875 H 25.805547 c -2.886897,0 -4.705078,-1.789378 -4.705078,-4.546875 v -0.769531 c 0,-2.757397 1.818181,-4.558594 4.705078,-4.558594 z"/>
    </g>
    <g id="Bold-S" transform="translate(2284.91,677.96875)">
      <path d="m 55.078281,-17.798828 c -1.196299,0 -2.124991,0.489207 -3.15039,1.441406 L 39.818516,-5.0039062 c -0.8545,0.7812492 -1.220704,1.6582029 -1.220703,2.7324218 0,2.2216797 1.73338,3.90625 3.955078,3.90625 1.098599,0 2.148403,-0.5117163 2.783203,-1.2441406 l 3.955078,-4.3945312 1.806641,-2.4179688 -0.365235,5.98242187 V 9.3515625 c 0,2.3437075 1.928706,4.3691405 4.345703,4.3691405 2.392598,0 4.345703,-2.025433 4.345703,-4.3691405 v -9.79101563 l -0.390625,-5.98242187 1.830079,2.4433594 3.955078,4.3691406 c 0.610399,0.7324243 1.685566,1.2441406 2.759765,1.2441406 2.246098,0 3.955078,-1.6845703 3.955078,-3.90625 0,-1.0742189 -0.366175,-1.9511726 -1.171875,-2.7324218 L 58.252109,-16.357422 c -1.074299,-0.976599 -2.001929,-1.441406 -3.173828,-1.441406 z"/>
      <path d="m 22.607578,-49.658203 c -7.519492,0 -12.8417967,5.200166 -12.8417967,12.255859 v 3.417969 c 0,7.104493 5.2979047,12.255859 12.8417967,12.255859 h 64.916016 c 7.568392,0 12.841796,-5.151366 12.841796,-12.255859 v -3.417969 c 0,-7.055693 -5.297804,-12.255859 -12.841796,-12.255859 z m 1.806641,8.667969 h 61.328125 c 2.978497,0 4.808593,1.904302 4.808594,4.6875 v 1.24414 c 0,2.783197 -1.830097,4.664063 -4.808594,4.664063 H 24.414219 c -3.002997,0 -4.833985,-1.880866 -4.833985,-4.664063 v -1.24414 c 0,-2.783198 1.830988,-4.6875 4.833985,-4.6875 z"/>
    </g>
    <g id="Semibold-S" transform="translate(1989.57,677.93359)">
      <path d="m 53.709297,-18.001953 c -1.098599,0 -1.937835,0.434098 -2.927734,1.341797 L 38.512031,-5.2441406 c -0.810099,0.7279292 -1.166015,1.5531279 -1.166015,2.5917968 0,2.07060698 1.581524,3.60351568 3.669922,3.60351568 1.000898,0 1.988125,-0.46699334 2.640625,-1.18164063 l 4.382812,-4.66210935 1.966797,-2.4082031 -0.322266,5.9726562 v 10.5625 c 0,2.166038 1.794993,4.023438 4.025391,4.023438 2.196998,0 4.025391,-1.8574 4.025391,-4.023438 v -10.5625 l -0.353516,-5.9726562 1.980469,2.4238281 4.40039,4.64648435 c 0.6193,0.71464729 1.622123,1.18164063 2.607422,1.18164063 2.103898,0 3.669922,-1.5329087 3.669922,-3.60351568 0,-1.0386689 -0.355988,-1.8638676 -1.117187,-2.5917968 L 56.652656,-16.660156 c -1.038599,-0.923199 -1.87816,-1.341797 -2.943359,-1.341797 z"/>
      <path d="m 21.931953,-49.125 c -7.146293,0 -12.1660155,4.924285 -12.1660155,11.580078 v 3.75586 c 0,6.704593 5.0042225,11.580078 12.1660155,11.580078 h 63.521485 c 7.195092,0 12.166015,-4.875485 12.166015,-11.580078 v -3.75586 c 0,-6.655793 -4.986423,-11.580078 -12.166015,-11.580078 z m 1.521485,7.912109 h 60.511718 c 3.049697,0 4.888672,1.974394 4.888672,4.775391 v 1.574219 c 0,2.800997 -1.838975,4.74414 -4.888672,4.74414 H 23.453438 c -3.082897,0 -4.921875,-1.943143 -4.921875,-4.74414 V -36.4375 c 0,-2.800997 1.838978,-4.775391 4.921875,-4.775391 z"/>
    </g>
    <g id="Medium-S" transform="translate(1693.9,677.90625)">
      <path d="m 52.672266,-18.15625 c -1.024399,0 -1.796867,0.393579 -2.759766,1.267578 L 37.521875,-5.4277344 c -0.776399,0.6874993 -1.126953,1.4746092 -1.126953,2.4863281 0,1.95605009 1.46778,3.37304692 3.455078,3.37304693 0.926699,0 1.867204,-0.43359445 2.533203,-1.13476563 l 4.705078,-4.8632812 2.087891,-2.4003907 -0.28711,5.9648438 V 9.1464844 c 0,2.0312376 1.694306,3.7617186 3.783204,3.7617186 2.048798,0 3.783203,-1.730481 3.783203,-3.7617186 V -2.0019531 l -0.328125,-5.9648438 2.095703,2.4082032 4.736328,4.8554687 c 0.625899,0.70117118 1.576242,1.13476562 2.494141,1.13476563 1.996098,0 3.455078,-1.41699684 3.455078,-3.37304693 0,-1.0117189 -0.350626,-1.7988288 -1.078125,-2.4863281 L 55.439844,-16.888672 c -1.011799,-0.882799 -1.783279,-1.267578 -2.767578,-1.267578 z"/>
      <path d="m 21.420312,-48.720703 c -6.863293,0 -11.6542964,4.715766 -11.6542964,11.068359 v 4.011719 c 0,6.401294 4.7823034,11.068359 11.6542964,11.068359 h 62.462891 c 6.912093,0 11.654297,-4.667065 11.654297,-11.068359 v -4.011719 c 0,-6.352593 -4.751004,-11.068359 -11.654297,-11.068359 z m 1.306641,7.339844 h 59.890625 c 3.103497,0 4.949219,2.027399 4.949219,4.841797 v 1.824218 c 0,2.814397 -1.845722,4.804688 -4.949219,4.804688 H 22.726953 c -3.143597,0 -4.990234,-1.990291 -4.990234,-4.804688 v -1.824218 c 0,-2.814398 1.846637,-4.841797 4.990234,-4.841797 z"/>
    </g>
    <g id="Regular-S" transform="translate(1398.55,677.87109)">
      <path d="m 51.319141,-18.359375 c -0.927799,0 -1.611364,0.341776 -2.539063,1.171875 L 36.23125,-5.6640625 c -0.732499,0.6347594 -1.074219,1.367181 -1.074219,2.34375 0,1.8066382 1.31833,3.07617187 3.173828,3.07617187 0.8301,0 1.708979,-0.39062543 2.392579,-1.07421877 l 5.126953,-5.1269531 2.246093,-2.3925781 -0.24414,5.9570312 V 9.0332031 c 0,1.8554979 1.562499,3.4179689 3.466797,3.4179689 1.855398,0 3.466796,-1.562471 3.466797,-3.4179689 V -2.8808594 l -0.292969,-5.9570312 2.246094,2.3925781 5.175781,5.1269531 c 0.634699,0.68359334 1.513651,1.07421878 2.34375,1.07421877 1.855498,0 3.173828,-1.26953367 3.173828,-3.07617187 0,-0.976569 -0.341791,-1.7089906 -1.025391,-2.34375 L 53.858203,-17.1875 c -0.976499,-0.830099 -1.660163,-1.171875 -2.539062,-1.171875 z"/>
      <path d="m 20.752734,-48.193359 c -6.494193,0 -10.9863277,4.443396 -10.9863277,10.40039 v 4.345703 c 0,6.005894 4.4921347,10.400391 10.9863277,10.400391 h 61.083985 c 6.542993,0 10.986328,-4.394497 10.986328,-10.400391 v -4.345703 c 0,-5.956994 -4.443335,-10.40039 -10.986328,-10.40039 z m 1.025391,6.591797 h 59.082031 c 3.173797,0 5.029297,2.099543 5.029297,4.93164 v 2.148438 c 0,2.831997 -1.8555,4.882812 -5.029297,4.882812 H 21.778125 c -3.222597,0 -5.078125,-2.050815 -5.078125,-4.882812 v -2.148438 c 0,-2.832097 1.855528,-4.931641 5.078125,-4.93164 z"/>
    </g>
    <g id="Light-S" transform="translate(1102.2,678.15137)">
      <path d="m 50.940625,-18.919922 c -0.715799,0 -1.249044,0.265663 -1.964844,0.914063 L 36.124219,-5.875 c -0.6265,0.5590794 -0.982422,1.1401296 -0.982422,1.9804687 0,1.4282186 1.030289,2.4101563 2.492187,2.4101563 0.6636,0 1.331082,-0.3012699 1.863282,-0.8183594 l 4.808593,-4.8242187 4.167969,-4.2988279 -0.199219,6.7285154 V 8.5488281 c 0,1.4467786 1.200717,2.6464849 2.666016,2.6464849 1.446799,0 2.679687,-1.1997063 2.679687,-2.6464849 V -4.6972656 l -0.232421,-6.7285154 4.167968,4.2988279 4.841797,4.8242187 c 0.4834,0.5170895 1.166579,0.8183594 1.830078,0.8183594 1.461999,0 2.492188,-0.9819377 2.492188,-2.4101563 0,-0.8403391 -0.356419,-1.4213893 -0.949219,-1.9804687 L 52.919141,-18.005859 c -0.7344,-0.6333 -1.281217,-0.914063 -1.978516,-0.914063 z"/>
      <path d="m 20.479687,-47.498047 c -6.282193,0 -10.7148433,4.29349 -10.7148433,10.083985 v 3.511718 c 0,5.824294 4.4326503,10.083985 10.7148433,10.083985 h 60.902344 c 6.315994,0 10.712891,-4.259691 10.712891,-10.083985 v -3.511718 c 0,-5.790495 -4.396897,-10.083985 -10.712891,-10.083985 z m 0.63086,5.125 h 59.673828 c 3.627896,0 5.951172,2.478047 5.951172,5.839844 v 1.785156 c 0,3.346597 -2.323276,5.804688 -5.951172,5.804688 H 21.110547 c -3.661596,0 -5.986328,-2.458091 -5.986328,-5.804688 v -1.785156 c 0,-3.361797 2.324732,-5.839844 5.986328,-5.839844 z"/>
    </g>
    <g id="Thin-S" transform="translate(805.972,678.52148)">
      <path d="m 50.440109,-19.660156 c -0.435599,0 -0.767525,0.166019 -1.203125,0.574219 L 35.985031,-6.15625 c -0.486399,0.4589895 -0.863281,0.8398407 -0.863281,1.5 0,0.9277391 0.650398,1.5292969 1.591797,1.5292969 0.443399,0 0.83011,-0.1796828 1.162109,-0.4765625 l 4.388672,-4.4238282 6.710938,-6.8222652 -0.138672,7.7499996 V 7.9082031 c 0,0.9062591 0.718716,1.625 1.603515,1.625 0.906199,0 1.638672,-0.7187409 1.638672,-1.625 V -7.0996094 l -0.152343,-7.7499996 6.710937,6.8222652 4.402344,4.4238282 c 0.283199,0.2968797 0.705038,0.4765625 1.148437,0.4765625 0.941399,0 1.591797,-0.6015578 1.591797,-1.5292969 0,-0.6601593 -0.37691,-1.0410105 -0.849609,-1.5 L 51.678391,-19.085937 c -0.4141,-0.3731 -0.781282,-0.574219 -1.238282,-0.574219 z"/>
      <path d="m 20.119797,-46.576172 c -6.001894,0 -10.3535158,4.091815 -10.3535157,9.66211 v 2.412109 c 0,5.583894 4.3516217,9.662109 10.3535157,9.662109 h 60.662109 c 6.015594,0 10.353516,-4.078215 10.353516,-9.662109 v -2.412109 c 0,-5.570295 -4.337922,-9.66211 -10.353516,-9.66211 z m 0.111328,3.181641 H 80.68425 c 4.228496,0 7.173828,2.978519 7.173828,7.041015 v 1.304688 c 0,4.027296 -2.945332,7.027344 -7.173828,7.027344 H 20.231125 c -4.242196,0 -7.1875,-3.000048 -7.1875,-7.027344 v -1.304688 c 0,-4.062496 2.945304,-7.041015 7.1875,-7.041015 z"/>
    </g>
    <g id="Ultralight-S" transform="translate(509.507,678.71191)">
      <path d="m 50.182453,-20.039062 c -0.292,0 -0.5205,0.11519 -0.8125,0.40039 L 35.912922,-6.2988281 c -0.4146,0.4077196 -0.802735,0.6860268 -0.802735,1.2539062 0,0.6713894 0.456061,1.078125 1.13086,1.078125 0.3306,0 0.573234,-0.1186445 0.802734,-0.3027343 l 4.173828,-4.2187501 8.013672,-8.1152347 -0.107422,8.2734379 V 7.5800781 c 0,0.6293994 0.471195,1.1015625 1.058594,1.1015625 0.629399,0 1.105469,-0.4721631 1.105469,-1.1015625 V -8.3300781 l -0.111328,-8.2734379 8.013672,8.1152347 4.177734,4.2187501 c 0.1806,0.1840898 0.468228,0.3027343 0.798828,0.3027343 0.674799,0 1.130859,-0.4067356 1.130859,-1.078125 0,-0.5678794 -0.387628,-0.8461866 -0.798828,-1.2539062 L 51.041828,-19.638672 c -0.25,-0.2398 -0.525375,-0.40039 -0.859375,-0.40039 z"/>
      <path d="m 19.934406,-46.105469 c -5.858394,0 -10.1679685,3.989771 -10.1679685,9.447266 v 1.847656 c 0,5.460995 4.3095745,9.447266 10.1679685,9.447266 h 60.539063 c 5.861894,0 10.169922,-3.986271 10.169922,-9.447266 v -1.847656 c 0,-5.457495 -4.308028,-9.447266 -10.169922,-9.447266 z m -0.154297,2.1875 h 60.851563 c 4.536095,0 7.800781,3.234855 7.800781,7.65625 v 1.058594 c 0,4.375896 -3.264686,7.654297 -7.800781,7.654297 H 19.780109 c -4.539495,0 -7.802734,-3.278401 -7.802734,-7.654297 v -1.058594 c 0,-4.421395 3.263239,-7.65625 7.802734,-7.65625 z"/>
    </g>
  </g>
</svg>
