<?xml version="1.0" encoding="UTF-8"?>
<!--Generator: Apple Native CoreSVG 232.5-->
<!DOCTYPE svg
PUBLIC "-//W3C//DTD SVG 1.1//EN"
       "http://www.w3.org/Graphics/SVG/1.1/DTD/svg11.dtd">
<svg version="1.1" xmlns="http://www.w3.org/2000/svg" xmlns:xlink="http://www.w3.org/1999/xlink" width="3300" height="2200">
 <g id="Notes">
  <rect height="2200" id="artboard" style="fill:white;opacity:1" width="3300" x="0" y="0"/>
  <line style="fill:none;stroke:black;opacity:1;stroke-width:0.5;" x1="263" x2="3036" y1="292" y2="292"/>
  <text style="stroke:none;fill:black;font-family:sans-serif;font-size:13;font-weight:bold;" transform="matrix(1 0 0 1 263 322)">Weight/Scale Variations</text>
  <text style="stroke:none;fill:black;font-family:sans-serif;font-size:13;text-anchor:middle;" transform="matrix(1 0 0 1 559.711 322)">Ultralight</text>
  <text style="stroke:none;fill:black;font-family:sans-serif;font-size:13;text-anchor:middle;" transform="matrix(1 0 0 1 856.422 322)">Thin</text>
  <text style="stroke:none;fill:black;font-family:sans-serif;font-size:13;text-anchor:middle;" transform="matrix(1 0 0 1 1153.13 322)">Light</text>
  <text style="stroke:none;fill:black;font-family:sans-serif;font-size:13;text-anchor:middle;" transform="matrix(1 0 0 1 1449.84 322)">Regular</text>
  <text style="stroke:none;fill:black;font-family:sans-serif;font-size:13;text-anchor:middle;" transform="matrix(1 0 0 1 1746.56 322)">Medium</text>
  <text style="stroke:none;fill:black;font-family:sans-serif;font-size:13;text-anchor:middle;" transform="matrix(1 0 0 1 2043.27 322)">Semibold</text>
  <text style="stroke:none;fill:black;font-family:sans-serif;font-size:13;text-anchor:middle;" transform="matrix(1 0 0 1 2339.98 322)">Bold</text>
  <text style="stroke:none;fill:black;font-family:sans-serif;font-size:13;text-anchor:middle;" transform="matrix(1 0 0 1 2636.69 322)">Heavy</text>
  <text style="stroke:none;fill:black;font-family:sans-serif;font-size:13;text-anchor:middle;" transform="matrix(1 0 0 1 2933.4 322)">Black</text>
  <line style="fill:none;stroke:black;opacity:1;stroke-width:0.5;" x1="263" x2="3036" y1="1903" y2="1903"/>
  <g transform="matrix(0.2 0 0 0.2 263 1933)">
   <path d="m46.2402 4.15039c21.5332 0 39.4531-17.8711 39.4531-39.4043s-17.9688-39.4043-39.502-39.4043c-21.4844 0-39.3555 17.8711-39.3555 39.4043s17.9199 39.4043 39.4043 39.4043Zm0-7.42188c-17.7246 0-31.8848-14.209-31.8848-31.9824s14.1113-31.9824 31.8359-31.9824c17.7734 0 32.0312 14.209 32.0312 31.9824s-14.209 31.9824-31.9824 31.9824Zm-17.9688-31.9824c0 2.14844 1.51367 3.61328 3.75977 3.61328h10.498v10.5957c0 2.19727 1.46484 3.71094 3.61328 3.71094 2.24609 0 3.71094-1.51367 3.71094-3.71094v-10.5957h10.5957c2.19727 0 3.71094-1.46484 3.71094-3.61328 0-2.19727-1.51367-3.71094-3.71094-3.71094h-10.5957v-10.5469c0-2.24609-1.46484-3.75977-3.71094-3.75977-2.14844 0-3.61328 1.51367-3.61328 3.75977v10.5469h-10.498c-2.24609 0-3.75977 1.51367-3.75977 3.71094Z"/>
  </g>
  <g transform="matrix(0.2 0 0 0.2 281.506 1933)">
   <path d="m58.5449 14.5508c27.2461 0 49.8047-22.6074 49.8047-49.8047 0-27.2461-22.6074-49.8047-49.8535-49.8047-27.1973 0-49.7559 22.5586-49.7559 49.8047 0 27.1973 22.6074 49.8047 49.8047 49.8047Zm0-8.30078c-23.0469 0-41.4551-18.457-41.4551-41.5039s18.3594-41.5039 41.4062-41.5039 41.5527 18.457 41.5527 41.5039-18.457 41.5039-41.5039 41.5039Zm-22.6562-41.5039c0 2.39258 1.66016 4.00391 4.15039 4.00391h14.3555v14.4043c0 2.44141 1.66016 4.15039 4.05273 4.15039 2.44141 0 4.15039-1.66016 4.15039-4.15039v-14.4043h14.4043c2.44141 0 4.15039-1.61133 4.15039-4.00391 0-2.44141-1.70898-4.15039-4.15039-4.15039h-14.4043v-14.3555c0-2.49023-1.70898-4.19922-4.15039-4.19922-2.39258 0-4.05273 1.70898-4.05273 4.19922v14.3555h-14.3555c-2.49023 0-4.15039 1.70898-4.15039 4.15039Z"/>
  </g>
  <g transform="matrix(0.2 0 0 0.2 304.924 1933)">
   <path d="m74.8535 28.3203c34.8145 0 63.623-28.8086 63.623-63.5742 0-34.8145-28.8574-63.623-63.6719-63.623-34.7656 0-63.5254 28.8086-63.5254 63.623 0 34.7656 28.8086 63.5742 63.5742 63.5742Zm0-9.08203c-30.1758 0-54.4434-24.3164-54.4434-54.4922 0-30.2246 24.2188-54.4922 54.3945-54.4922 30.2246 0 54.541 24.2676 54.541 54.4922 0 30.1758-24.2676 54.4922-54.4922 54.4922Zm-28.8574-54.4922c0 2.58789 1.85547 4.39453 4.58984 4.39453h19.7266v19.7754c0 2.68555 1.85547 4.58984 4.44336 4.58984 2.68555 0 4.54102-1.85547 4.54102-4.58984v-19.7754h19.7754c2.68555 0 4.58984-1.80664 4.58984-4.39453 0-2.73438-1.85547-4.58984-4.58984-4.58984h-19.7754v-19.7266c0-2.73438-1.85547-4.63867-4.54102-4.63867-2.58789 0-4.44336 1.9043-4.44336 4.63867v19.7266h-19.7266c-2.73438 0-4.58984 1.85547-4.58984 4.58984Z"/>
  </g>
  <text style="stroke:none;fill:black;font-family:sans-serif;font-size:13;font-weight:bold;" transform="matrix(1 0 0 1 263 1953)">Design Variations</text>
  <text style="stroke:none;fill:black;font-family:sans-serif;font-size:13;" transform="matrix(1 0 0 1 263 1971)">Symbols are supported in up to nine weights and three scales.</text>
  <text style="stroke:none;fill:black;font-family:sans-serif;font-size:13;" transform="matrix(1 0 0 1 263 1989)">For optimal layout with text and other symbols, vertically align</text>
  <text style="stroke:none;fill:black;font-family:sans-serif;font-size:13;" transform="matrix(1 0 0 1 263 2007)">symbols with the adjacent text.</text>
  <line style="fill:none;stroke:#00AEEF;stroke-width:0.5;opacity:1.0;" x1="776" x2="776" y1="1919" y2="1933"/>
  <g transform="matrix(0.2 0 0 0.2 776 1933)">
   <path d="m16.5527 0.78125c2.58789 0 3.85742-0.976562 4.78516-3.71094l6.29883-17.2363h28.8086l6.29883 17.2363c0.927734 2.73438 2.19727 3.71094 4.73633 3.71094 2.58789 0 4.24805-1.5625 4.24805-4.00391 0-0.830078-0.146484-1.61133-0.537109-2.63672l-22.9004-60.9863c-1.12305-2.97852-3.125-4.49219-6.25-4.49219-3.02734 0-5.07812 1.46484-6.15234 4.44336l-22.9004 61.084c-0.390625 1.02539-0.537109 1.80664-0.537109 2.63672 0 2.44141 1.5625 3.95508 4.10156 3.95508Zm13.4766-28.3691 11.8652-32.8613h0.244141l11.8652 32.8613Z"/>
  </g>
  <line style="fill:none;stroke:#00AEEF;stroke-width:0.5;opacity:1.0;" x1="792.836" x2="792.836" y1="1919" y2="1933"/>
  <text style="stroke:none;fill:black;font-family:sans-serif;font-size:13;font-weight:bold;" transform="matrix(1 0 0 1 776 1953)">Margins</text>
  <text style="stroke:none;fill:black;font-family:sans-serif;font-size:13;" transform="matrix(1 0 0 1 776 1971)">Leading and trailing margins on the left and right side of each symbol</text>
  <text style="stroke:none;fill:black;font-family:sans-serif;font-size:13;" transform="matrix(1 0 0 1 776 1989)">can be adjusted by modifying the x-location of the margin guidelines.</text>
  <text style="stroke:none;fill:black;font-family:sans-serif;font-size:13;" transform="matrix(1 0 0 1 776 2007)">Modifications are automatically applied proportionally to all</text>
  <text style="stroke:none;fill:black;font-family:sans-serif;font-size:13;" transform="matrix(1 0 0 1 776 2025)">scales and weights.</text>
  <g transform="matrix(0.2 0 0 0.2 1289 1933)">
   <path d="m14.209 9.32617 8.49609 8.54492c4.29688 4.3457 9.22852 4.05273 13.8672-1.07422l53.4668-58.9355-4.83398-4.88281-53.0762 58.3984c-1.75781 2.00195-3.41797 2.49023-5.76172 0.146484l-5.85938-5.81055c-2.34375-2.29492-1.80664-4.00391 0.195312-5.81055l57.373-54.0039-4.88281-4.83398-57.959 54.4434c-4.93164 4.58984-5.32227 9.47266-1.02539 13.8184Zm32.0801-90.9668c-2.09961 2.05078-2.24609 4.93164-1.07422 6.88477 1.17188 1.80664 3.4668 2.97852 6.68945 2.14844 7.32422-1.70898 14.9414-2.00195 22.0703 2.68555l-2.92969 7.27539c-1.70898 4.15039-0.830078 7.08008 1.85547 9.81445l11.4746 11.5723c2.44141 2.44141 4.49219 2.53906 7.32422 2.05078l5.32227-0.976562 3.32031 3.36914-0.195312 2.7832c-0.195312 2.49023 0.439453 4.39453 2.88086 6.78711l3.80859 3.71094c2.39258 2.39258 5.46875 2.53906 7.8125 0.195312l14.5508-14.5996c2.34375-2.34375 2.24609-5.32227-0.146484-7.71484l-3.85742-3.80859c-2.39258-2.39258-4.24805-3.17383-6.64062-2.97852l-2.88086 0.244141-3.22266-3.17383 1.2207-5.61523c0.634766-2.83203-0.146484-5.0293-3.07617-7.95898l-10.9863-10.9375c-16.6992-16.6016-38.8672-16.2109-53.3203-1.75781Zm7.4707 1.85547c12.1582-8.88672 28.6133-7.37305 39.7461 3.75977l12.1582 12.0605c1.17188 1.17188 1.36719 2.09961 1.02539 3.80859l-1.61133 7.42188 7.51953 7.42188 4.93164-0.292969c1.26953-0.0488281 1.66016 0.0488281 2.63672 1.02539l2.88086 2.88086-12.207 12.207-2.88086-2.88086c-0.976562-0.976562-1.12305-1.36719-1.07422-2.68555l0.341797-4.88281-7.4707-7.42188-7.61719 1.26953c-1.61133 0.341797-2.34375 0.195312-3.56445-0.976562l-10.0098-10.0098c-1.26953-1.17188-1.41602-2.00195-0.634766-3.85742l4.39453-10.4492c-7.8125-7.27539-17.9688-10.4004-28.125-7.42188-0.78125 0.195312-1.07422-0.439453-0.439453-0.976562Z"/>
  </g>
  <text style="stroke:none;fill:black;font-family:sans-serif;font-size:13;font-weight:bold;" transform="matrix(1 0 0 1 1289 1953)">Exporting</text>
  <text style="stroke:none;fill:black;font-family:sans-serif;font-size:13;" transform="matrix(1 0 0 1 1289 1971)">Symbols should be outlined when exporting to ensure the</text>
  <text style="stroke:none;fill:black;font-family:sans-serif;font-size:13;" transform="matrix(1 0 0 1 1289 1989)">design is preserved when submitting to Xcode.</text>
  <text id="template-version" style="stroke:none;fill:black;font-family:sans-serif;font-size:13;text-anchor:end;" transform="matrix(1 0 0 1 3036 1933)">Template v.2.0</text>
  <text style="stroke:none;fill:black;font-family:sans-serif;font-size:13;text-anchor:end;" transform="matrix(1 0 0 1 3036 1951)">Requires Xcode 12 or greater</text>
  <text id="descriptive-name" style="stroke:none;fill:black;font-family:sans-serif;font-size:13;text-anchor:end;" transform="matrix(1 0 0 1 3036 1969)">Generated from chevron.right.circle.fill</text>
  <text style="stroke:none;fill:black;font-family:sans-serif;font-size:13;text-anchor:end;" transform="matrix(1 0 0 1 3036 1987)">Typeset at 100.0 points</text>
  <text style="stroke:none;fill:black;font-family:sans-serif;font-size:13;" transform="matrix(1 0 0 1 263 726)">Small</text>
  <text style="stroke:none;fill:black;font-family:sans-serif;font-size:13;" transform="matrix(1 0 0 1 263 1156)">Medium</text>
  <text style="stroke:none;fill:black;font-family:sans-serif;font-size:13;" transform="matrix(1 0 0 1 263 1586)">Large</text>
 </g>
 <g id="Guides">
  <g id="H-reference" style="fill:#27AAE1;stroke:none;" transform="matrix(1 0 0 1 339 696)">
   <path d="M0.993654 0L3.63775 0L29.3281-67.1323L30.0303-67.1323L30.0303-70.459L28.1226-70.459ZM11.6885-24.4799L46.9815-24.4799L46.2315-26.7285L12.4385-26.7285ZM55.1196 0L57.7637 0L30.6382-70.459L29.4326-70.459L29.4326-67.1323Z"/>
  </g>
  <line id="Baseline-S" style="fill:none;stroke:#27AAE1;opacity:1;stroke-width:0.5;" x1="263" x2="3036" y1="696" y2="696"/>
  <line id="Capline-S" style="fill:none;stroke:#27AAE1;opacity:1;stroke-width:0.5;" x1="263" x2="3036" y1="625.541" y2="625.541"/>
  <g id="H-reference" style="fill:#27AAE1;stroke:none;" transform="matrix(1 0 0 1 339 1126)">
   <path d="M0.993654 0L3.63775 0L29.3281-67.1323L30.0303-67.1323L30.0303-70.459L28.1226-70.459ZM11.6885-24.4799L46.9815-24.4799L46.2315-26.7285L12.4385-26.7285ZM55.1196 0L57.7637 0L30.6382-70.459L29.4326-70.459L29.4326-67.1323Z"/>
  </g>
  <line id="Baseline-M" style="fill:none;stroke:#27AAE1;opacity:1;stroke-width:0.5;" x1="263" x2="3036" y1="1126" y2="1126"/>
  <line id="Capline-M" style="fill:none;stroke:#27AAE1;opacity:1;stroke-width:0.5;" x1="263" x2="3036" y1="1055.54" y2="1055.54"/>
  <g id="H-reference" style="fill:#27AAE1;stroke:none;" transform="matrix(1 0 0 1 339 1556)">
   <path d="M0.993654 0L3.63775 0L29.3281-67.1323L30.0303-67.1323L30.0303-70.459L28.1226-70.459ZM11.6885-24.4799L46.9815-24.4799L46.2315-26.7285L12.4385-26.7285ZM55.1196 0L57.7637 0L30.6382-70.459L29.4326-70.459L29.4326-67.1323Z"/>
  </g>
  <line id="Baseline-L" style="fill:none;stroke:#27AAE1;opacity:1;stroke-width:0.5;" x1="263" x2="3036" y1="1556" y2="1556"/>
  <line id="Capline-L" style="fill:none;stroke:#27AAE1;opacity:1;stroke-width:0.5;" x1="263" x2="3036" y1="1485.54" y2="1485.54"/>
  <line id="left-margin" style="fill:none;stroke:#00AEEF;stroke-width:0.5;opacity:1.0;" x1="1391.32" x2="1391.32" y1="1030.79" y2="1150.12"/>
  <line id="right-margin" style="fill:none;stroke:#00AEEF;stroke-width:0.5;opacity:1.0;" x1="1508.37" x2="1508.37" y1="1030.79" y2="1150.12"/>
 </g>
 <g id="Symbols">
  <g id="Black-L" transform="matrix(1 0 0 1 2854.19 1556)">
   <path d="M79.1958 32.7257C116.56 32.7257 147.154 2.15259 147.154-35.2113C147.154-72.5752 116.539-103.148 79.175-103.148C41.8307-103.148 11.2588-72.5752 11.2588-35.2113C11.2588 2.15259 41.8515 32.7257 79.1958 32.7257ZM64.5544-2.49592C61.3152-5.79469 61.5685-10.6966 64.5932-13.5837L87.7748-35.1905L64.5932-56.718C61.4892-59.6635 61.5101-64.8211 64.7504-67.807C67.6387-70.4384 72.3422-70.5536 75.4485-67.6069L100.822-44.0043C105.837-39.3063 105.836-30.9942 100.822-26.2986L75.4485-2.63639C72.6383-0.0233833 67.1662 0.0170543 64.5544-2.49592Z"/>
  </g>
  <g id="Heavy-L" transform="matrix(1 0 0 1 2558.42 1556)">
   <path d="M78.2532 31.7694C115.056 31.7694 145.278 1.57794 145.278-35.2251C145.278-72.0281 115.026-102.22 78.2231-102.22C41.4446-102.22 11.2588-72.0281 11.2588-35.2251C11.2588 1.57794 41.4748 31.7694 78.2532 31.7694ZM63.607-2.66147C60.69-5.62874 60.8931-10.0585 63.6271-12.6732L87.6944-35.1949L63.6271-57.6418C60.8182-60.3011 60.8484-64.9451 63.7711-67.6591C66.3913-70.0594 70.6458-70.114 73.4659-67.4491L99.2884-43.3362C103.938-38.9864 103.932-31.323 99.2884-26.9844L73.4659-2.82121C70.9149-0.439859 65.9828-0.385103 63.607-2.66147Z"/>
  </g>
  <g id="Bold-L" transform="matrix(1 0 0 1 2262.89 1556)">
   <path d="M77.0704 30.5711C113.182 30.5711 142.92 0.870872 142.92-35.2405C142.92-71.3519 113.144-101.052 77.0324-101.052C40.9458-101.052 11.2588-71.3519 11.2588-35.2405C11.2588 0.870872 40.9838 30.5711 77.0704 30.5711ZM62.4911-2.91357C59.9959-5.45114 60.1375-9.26714 62.4955-11.5288L87.6392-35.2025L62.4955-58.8091C60.0703-61.0999 60.1083-65.0839 62.6167-67.4375C64.8915-69.5311 68.5555-69.5312 71.0071-67.2271L97.4202-42.4096C101.564-38.5347 101.551-31.7899 97.4202-27.9415L71.0071-3.08149C68.7862-0.999428 64.5599-0.936685 62.4911-2.91357Z"/>
  </g>
  <g id="Semibold-L" transform="matrix(1 0 0 1 1966.99 1556)">
   <path d="M76.2549 29.745C111.889 29.745 141.294 0.383422 141.294-35.2511C141.294-70.8857 111.846-100.247 76.2116-100.247C40.6019-100.247 11.2588-70.8857 11.2588-35.2511C11.2588 0.383422 40.6453 29.745 76.2549 29.745ZM61.7217-3.08738C59.5175-5.32871 59.6166-8.72154 61.7154-10.7398L87.6012-35.2078L61.7154-59.6138C59.5547-61.6506 59.5981-65.1796 61.8208-67.2847C63.8576-69.1668 67.1144-69.1294 69.3121-67.0741L96.1323-41.7707C99.9274-38.2234 99.9089-32.1117 96.1323-28.6014L69.3121-3.26093C67.3188-1.38519 63.579-1.31694 61.7217-3.08738Z"/>
  </g>
  <g id="Medium-L" transform="matrix(1 0 0 1 1670.9 1556)">
   <path d="M75.6366 29.1187C110.91 29.1187 140.062 0.0138167 140.062-35.2592C140.062-70.5322 110.862-99.637 75.5892-99.637C40.3412-99.637 11.2588-70.5322 11.2588-35.2592C11.2588 0.0138167 40.3886 29.1187 75.6366 29.1187ZM61.1384-3.21916C59.1547-5.23587 59.2217-8.30785 61.1239-10.1416L87.5723-35.2117L61.1239-60.2239C59.1637-62.0682 59.2112-65.2521 61.2174-67.1688C63.0736-68.8906 66.0217-68.8248 68.0268-66.958L95.1558-41.2863C98.6866-37.9873 98.6642-32.3558 95.1558-29.1017L68.0268-3.39698C66.2061-1.67769 62.8352-1.60527 61.1384-3.21916Z"/>
  </g>
  <g id="Regular-L" transform="matrix(1 0 0 1 1374.99 1556)">
   <path d="M74.8301 28.3017C109.632 28.3017 138.454-0.468277 138.454-35.2697C138.454-70.0711 109.579-98.8411 74.7774-98.8411C40.0011-98.8411 11.2588-70.0711 11.2588-35.2697C11.2588-0.468277 40.0538 28.3017 74.8301 28.3017ZM60.3775-3.39105C58.6814-5.11478 58.7065-7.76824 60.3524-9.36134L87.5347-35.2169L60.3524-61.0198C58.6538-62.6129 58.7065-65.3468 60.4303-67.0177C62.051-68.5304 64.5964-68.4274 66.3504-66.8067L93.882-40.6545C97.0682-37.6794 97.0406-32.6741 93.882-29.7543L66.3504-3.57445C64.7547-2.05922 61.8651-1.98135 60.3775-3.39105Z"/>
  </g>
  <g id="Light-L" transform="matrix(1 0 0 1 1079.2 1556)">
   <path d="M73.9141 27.3856C108.257 27.3856 136.603-0.926323 136.603-35.2697C136.603-69.6131 108.224-97.925 73.8804-97.925C39.5239-97.925 11.2588-69.6131 11.2588-35.2697C11.2588-0.926323 39.5576 27.3856 73.9141 27.3856ZM59.9767-3.86818C58.7196-5.17204 58.7065-7.21477 59.9898-8.46433L87.7828-35.236L59.9898-61.974C58.6729-63.2236 58.7065-65.3468 60.0104-66.6169C61.3067-67.7861 63.2223-67.7785 64.6327-66.4822L92.7942-39.3758C95.2933-37.0114 95.2465-33.3803 92.7942-31.1093L64.6327-3.95615C63.3233-2.7272 61.1589-2.70659 59.9767-3.86818Z"/>
  </g>
  <g id="Thin-L" transform="matrix(1 0 0 1 783.716 1556)">
   <path d="M72.7024 26.174C106.44 26.174 134.155-1.53213 134.155-35.2697C134.155-69.0073 106.432-96.7134 72.694-96.7134C38.8929-96.7134 11.2588-69.0073 11.2588-35.2697C11.2588-1.53213 38.9013 26.174 72.7024 26.174ZM59.4466-4.49923C58.7701-5.24776 58.7065-6.48276 59.5102-7.27797L88.111-35.2613L59.5102-63.2361C58.6981-64.0313 58.7065-65.3468 59.4551-66.0869C60.3223-66.8016 61.4049-66.9203 62.3609-66.0531L91.3554-37.6846C92.9458-36.1279 92.8738-34.3142 91.3554-32.9015L62.3609-4.46099C61.4302-3.61067 60.225-3.66578 59.4466-4.49923Z"/>
  </g>
  <g id="Ultralight-L" transform="matrix(1 0 0 1 487.631 1556)">
   <path d="M72.0819 25.5534C105.509 25.5534 132.9-1.84242 132.9-35.2697C132.9-68.697 105.514-96.0928 72.0864-96.0928C38.5697-96.0928 11.2588-68.697 11.2588-35.2697C11.2588-1.84242 38.5652 25.5534 72.0819 25.5534ZM59.1751-4.82245C58.7959-5.28655 58.7065-6.10783 59.2645-6.67032L88.2791-35.2742L59.2645-63.8826C58.711-64.4451 58.7065-65.3468 59.1706-65.8153C59.8181-66.2974 60.474-66.4807 61.1973-65.8333L90.6184-36.8184C91.7434-35.6754 91.6585-34.7926 90.6184-33.8194L61.1973-4.71956C60.4605-4.06317 59.7466-4.15707 59.1751-4.82245Z"/>
  </g>
  <g id="Black-M" transform="matrix(1 0 0 1 2871.36 1126)">
   <path d="M62.0422 18.116C91.4096 18.116 115.367-5.83621 115.367-35.2035C115.367-64.5709 91.4041-88.5231 62.0367-88.5231C32.6752-88.5231 8.72266-64.5709 8.72266-35.2035C8.72266-5.83621 32.6807 18.116 62.0422 18.116ZM50.7729-9.79178C48.046-12.5755 48.2801-16.6963 50.8242-19.1206L68.1056-35.1981L50.8242-51.2129C48.2176-53.6944 48.223-58.0487 50.9497-60.5415C53.3737-62.7322 57.3183-62.8865 59.9244-60.4053L79.2818-42.4286C83.3882-38.5725 83.3885-31.7613 79.2818-27.9046L59.9244-9.87113C57.5632-7.68641 52.9579-7.67515 50.7729-9.79178Z"/>
  </g>
  <g id="Heavy-M" transform="matrix(1 0 0 1 2575.48 1126)">
   <path d="M61.2053 17.2657C90.0667 17.2657 113.704-6.35571 113.704-35.217C113.704-64.0783 90.0502-87.6997 61.1889-87.6997C32.3418-87.6997 8.72266-64.0783 8.72266-35.217C8.72266-6.35571 32.3582 17.2657 61.2053 17.2657ZM49.8837-9.9096C47.4313-12.408 47.6199-16.1235 49.9132-18.3132L68.0041-35.2006L49.9132-52.028C47.5599-54.2613 47.5763-58.17 50.031-60.4339C52.223-62.4304 55.7867-62.5166 58.1447-60.281L77.8829-41.8935C81.6952-38.3213 81.6929-32.0176 77.8829-28.45L58.1447-10.0166C56.0104-8.03192 51.8661-8.00138 49.8837-9.9096Z"/>
  </g>
  <g id="Bold-M" transform="matrix(1 0 0 1 2279.69 1126)">
   <path d="M60.2692 16.3144C88.5644 16.3144 111.844-6.93686 111.844-35.2321C111.844-63.5273 88.5358-86.7786 60.2405-86.7786C31.9688-86.7786 8.72266-63.5273 8.72266-35.2321C8.72266-6.93686 31.9974 16.3144 60.2692 16.3144ZM48.8891-10.0414C46.7436-12.2206 46.8813-15.4829 48.8942-17.4101L67.8905-35.2035L48.8942-52.9397C46.8241-54.8954 46.8527-58.3057 49.0034-60.3135C50.9357-62.0927 54.0735-62.1028 56.1538-60.1419L76.318-41.2949C79.8012-38.0403 79.7961-32.3043 76.318-29.06L56.1538-10.1793C54.2735-8.41843 50.6449-8.36632 48.8891-10.0414Z"/>
  </g>
  <g id="Semibold-M" transform="matrix(1 0 0 1 1983.62 1126)">
   <path d="M59.6238 15.6586C87.5288 15.6586 110.562-7.33749 110.562-35.2425C110.562-63.1475 87.4917-86.1436 59.5867-86.1436C31.7117-86.1436 8.72266-63.1475 8.72266-35.2425C8.72266-7.33749 31.7487 15.6586 59.6238 15.6586ZM48.2034-10.1323C46.2695-12.0914 46.3721-15.0412 48.1917-16.7874L67.8122-35.2054L48.1917-53.5683C46.3169-55.3326 46.3539-58.3992 48.295-60.2305C50.0483-61.86 52.8923-61.8175 54.7813-60.0461L75.2392-40.8822C78.4956-37.8466 78.4885-32.502 75.2392-29.4806L54.7813-10.2915C53.0761-8.68488 49.8029-8.6179 48.2034-10.1323Z"/>
  </g>
  <g id="Medium-M" transform="matrix(1 0 0 1 1687.4 1126)">
   <path d="M59.1344 15.1614C86.7435 15.1614 109.59-7.64127 109.59-35.2504C109.59-62.8595 86.7001-85.6621 59.091-85.6621C31.5167-85.6621 8.72266-62.8595 8.72266-35.2504C8.72266-7.64127 31.5601 15.1614 59.1344 15.1614ZM47.6835-10.2012C45.9101-11.9935 45.986-14.7063 47.659-16.3153L67.7529-35.2069L47.659-54.0449C45.9323-55.6641 45.9757-58.4701 47.7578-60.1676C49.3754-61.6835 51.9968-61.6012 53.7406-59.9734L74.4212-40.5693C77.5056-37.6997 77.497-32.6518 74.4212-29.7995L53.7406-10.3765C52.1681-8.88691 49.1646-8.80866 47.6835-10.2012Z"/>
  </g>
  <g id="Regular-M" transform="matrix(1 0 0 1 1391.32 1126)">
   <path d="M58.4961 14.5128C85.7192 14.5128 108.321-8.0375 108.321-35.2606C108.321-62.4838 85.6675-85.0341 58.4443-85.0341C31.2624-85.0341 8.72266-62.4838 8.72266-35.2606C8.72266-8.0375 31.3141 14.5128 58.4961 14.5128ZM47.0054-10.291C45.4412-11.8657 45.4824-14.2695 46.9642-15.6995L67.6754-35.2089L46.9642-54.6665C45.4307-56.0965 45.4824-58.5626 47.0571-60.0856C48.4977-61.4533 50.8286-61.3191 52.3832-59.8785L73.3543-40.1611C76.2143-37.5082 76.2037-32.8473 73.3543-30.2154L52.3832-10.4875C50.9839-9.15044 48.3319-9.05748 47.0054-10.291Z"/>
  </g>
  <g id="Light-M" transform="matrix(1 0 0 1 1095.44 1126)">
   <path d="M57.6748 13.6915C84.4872 13.6915 106.662-8.44816 106.662-35.2606C106.662-62.0731 84.4526-84.2128 57.6401-84.2128C30.8346-84.2128 8.72266-62.0731 8.72266-35.2606C8.72266-8.44816 30.8693 13.6915 57.6748 13.6915ZM46.6461-10.7188C45.4754-11.9171 45.4824-13.7733 46.6391-14.8953L67.8979-35.226L46.6391-55.5221C45.4478-56.6441 45.4824-58.5626 46.6807-59.7262C47.8304-60.7859 49.5966-60.7373 50.8432-59.5877L72.3789-39.0147C74.6229-36.9093 74.5953-33.4804 72.3789-31.4303L50.8432-10.8297C49.7005-9.74932 47.6988-9.7077 46.6461-10.7188Z"/>
  </g>
  <g id="Thin-M" transform="matrix(1 0 0 1 799.828 1126)">
   <path d="M56.5885 12.6052C82.8578 12.6052 104.466-8.9913 104.466-35.2606C104.466-61.53 82.8458-83.1265 56.5765-83.1265C30.2689-83.1265 8.72266-61.53 8.72266-35.2606C8.72266-8.9913 30.2809 12.6052 56.5885 12.6052ZM46.1708-11.2846C45.5207-11.985 45.4824-13.117 46.2091-13.8317L68.1921-35.2486L46.2091-56.6536C45.4704-57.3682 45.4824-58.5626 46.1828-59.251C46.9478-59.9033 47.9672-59.9679 48.8065-59.2029L71.089-37.4985C72.5183-36.1172 72.468-34.3178 71.089-33.0371L48.8065-11.2823C48.0033-10.5414 46.8614-10.5677 46.1708-11.2846Z"/>
  </g>
  <g id="Ultralight-M" transform="matrix(1 0 0 1 503.679 1126)">
   <path d="M56.0321 12.0488C82.0233 12.0488 103.342-9.26949 103.342-35.2606C103.342-61.2518 82.0228-82.5701 56.0317-82.5701C29.9791-82.5701 8.72266-61.2518 8.72266-35.2606C8.72266-9.26949 29.9795 12.0488 56.0321 12.0488ZM45.9274-11.5743C45.5439-12.0197 45.4824-12.7809 45.9889-13.2869L68.3428-35.2602L45.9889-57.2332C45.482-57.7392 45.4824-58.5626 45.9278-59.0076C46.4957-59.4513 47.1326-59.5738 47.7633-59.0059L70.4283-36.7218C71.4403-35.7115 71.3784-34.7466 70.4283-33.8601L47.7633-11.5141C47.1339-10.9471 46.4326-11.0081 45.9274-11.5743Z"/>
  </g>
  <g id="Black-S" transform="matrix(1 0 0 1 2884.57 696)">
   <path d="M48.8281 6.78711C71.9727 6.78711 90.8203-12.0605 90.8203-35.2051C90.8203-58.3496 71.9727-77.1973 48.8281-77.1973C25.6836-77.1973 6.83594-58.3496 6.83594-35.2051C6.83594-12.0605 25.6836 6.78711 48.8281 6.78711ZM40.0391-15.2832C37.8418-17.5293 38.0371-20.8496 40.0879-22.8027L53.418-35.2051L40.0879-47.5586C37.9883-49.5605 37.9883-53.0762 40.1855-55.0781C42.1387-56.8359 45.3125-56.9824 47.4121-54.9805L62.5-40.9668C65.7715-37.8906 65.7715-32.4707 62.5-29.3945L47.4121-15.332C45.5078-13.5742 41.7969-13.5742 40.0391-15.2832Z"/>
  </g>
  <g id="Heavy-S" transform="matrix(1 0 0 1 2588.47 696)">
   <path d="M48.2173 6.16479C70.9816 6.16479 89.6102-12.4524 89.6102-35.2166C89.6102-57.9808 70.97-76.598 48.2058-76.598C25.4531-76.598 6.83594-57.9808 6.83594-35.2166C6.83594-12.4524 25.4646 6.16479 48.2173 6.16479ZM39.3245-15.3293C37.3117-17.3795 37.4724-20.4232 39.3503-22.215L53.3027-35.2051L39.3503-48.1463C37.4236-49.9754 37.4351-53.1799 39.448-55.032C41.2398-56.6631 44.1601-56.7404 46.0868-54.9113L61.4282-40.6556C64.5268-37.7523 64.5268-32.609 61.4282-29.7057L46.0868-15.4127C44.3438-13.7932 40.9441-13.7701 39.3245-15.3293Z"/>
  </g>
  <g id="Bold-S" transform="matrix(1 0 0 1 2292.43 696)">
   <path d="M47.5342 5.46875C69.873 5.46875 88.2568-12.8906 88.2568-35.2295C88.2568-57.5684 69.8486-75.9277 47.5098-75.9277C25.1953-75.9277 6.83594-57.5684 6.83594-35.2295C6.83594-12.8906 25.2197 5.46875 47.5342 5.46875ZM38.5254-15.3809C36.7188-17.2119 36.8408-19.9463 38.5254-21.5576L53.1738-35.2051L38.5254-48.8037C36.792-50.4395 36.8164-53.2959 38.623-54.9805C40.2344-56.4697 42.8711-56.4697 44.6045-54.834L60.2295-40.3076C63.1348-37.5977 63.1348-32.7637 60.2295-30.0537L44.6045-15.5029C43.042-14.0381 39.9902-13.9893 38.5254-15.3809Z"/>
  </g>
  <g id="Semibold-S" transform="matrix(1 0 0 1 1996.19 696)">
   <path d="M47.0632 4.98887C69.1088 4.98887 87.3237-13.1928 87.3237-35.2384C87.3237-57.284 69.0755-75.4656 47.0299-75.4656C25.0176-75.4656 6.83594-57.284 6.83594-35.2384C6.83594-13.1928 25.0509 4.98887 47.0632 4.98887ZM37.9744-15.4164C36.31-17.0964 36.4054-19.6175 37.9566-21.1044L53.085-35.2051L37.9566-49.2569C36.3565-50.7594 36.3898-53.3759 38.0543-54.9449C39.5412-56.3364 41.9824-56.2831 43.5825-54.7807L59.403-40.0677C62.175-37.491 62.175-32.8703 59.403-30.2937L43.5825-15.5651C42.1444-14.2069 39.3326-14.1403 37.9744-15.4164Z"/>
  </g>
  <g id="Medium-S" transform="matrix(1 0 0 1 1699.83 696)">
   <path d="M46.7061 4.625C68.5293 4.625 86.6162-13.4219 86.6162-35.2451C86.6162-57.0684 68.4893-75.1152 46.666-75.1152C24.8828-75.1152 6.83594-57.0684 6.83594-35.2451C6.83594-13.4219 24.9229 4.625 46.7061 4.625ZM37.5566-15.4434C36-17.0088 36.0752-19.3682 37.5254-20.7607L53.0176-35.2051L37.5254-49.6006C36.0264-51.002 36.0664-53.4365 37.623-54.918C39.0156-56.2354 41.3086-56.1416 42.8076-54.7402L58.7764-39.8857C61.4473-37.4102 61.4473-32.9512 58.7764-30.4756L42.8076-15.6123C41.4639-14.335 38.834-14.2549 37.5566-15.4434Z"/>
  </g>
  <g id="Regular-S" transform="matrix(1 0 0 1 1403.58 696)">
   <path d="M46.2402 4.15039C67.7734 4.15039 85.6934-13.7207 85.6934-35.2539C85.6934-56.7871 67.7246-74.6582 46.1914-74.6582C24.707-74.6582 6.83594-56.7871 6.83594-35.2539C6.83594-13.7207 24.7559 4.15039 46.2402 4.15039ZM37.0117-15.4785C35.5957-16.8945 35.6445-19.043 36.9629-20.3125L52.9297-35.2051L36.9629-50.0488C35.5957-51.3184 35.6445-53.5156 37.0605-54.8828C38.3301-56.1035 40.4297-55.957 41.7969-54.6875L57.959-39.6484C60.498-37.3047 60.498-33.0566 57.959-30.7129L41.7969-15.6738C40.5762-14.502 38.1836-14.4043 37.0117-15.4785Z"/>
  </g>
  <g id="Light-S" transform="matrix(1 0 0 1 1107.6 696)">
   <path d="M45.5137 3.42383C66.6836 3.42383 84.2251-14.084 84.2251-35.2539C84.2251-56.4238 66.6499-73.9316 45.48-73.9316C24.3286-73.9316 6.83594-56.4238 6.83594-35.2539C6.83594-14.084 24.3623 3.42383 45.5137 3.42383ZM36.6939-15.8569C35.626-16.9399 35.6445-18.604 36.6753-19.6011L53.1265-35.2202L36.6753-50.8057C35.6108-51.8027 35.6445-53.5156 36.7275-54.5649C37.7398-55.5132 39.3399-55.4424 40.4346-54.4302L57.0962-38.6343C59.0903-36.7749 59.0752-33.6167 57.0962-31.7876L40.4346-15.9766C39.4409-15.0317 37.6235-14.9795 36.6939-15.8569Z"/>
  </g>
  <g id="Thin-S" transform="matrix(1 0 0 1 811.863 696)">
   <path d="M44.5527 2.4629C65.2422 2.4629 82.2832-14.5644 82.2832-35.2539C82.2832-55.9434 65.2285-72.9707 44.5391-72.9707C23.8281-72.9707 6.83594-55.9434 6.83594-35.2539C6.83594-14.5644 23.8418 2.4629 44.5527 2.4629ZM36.2734-16.3574C35.666-17 35.6445-18.0234 36.2949-18.6602L53.3867-35.2402L36.2949-51.8066C35.6309-52.4434 35.6445-53.5156 36.2871-54.1445C36.959-54.7324 37.8985-54.7617 38.6328-54.0898L55.9551-37.293C57.2285-36.0742 57.1934-34.3574 55.9551-33.209L38.6328-16.3769C37.9395-15.7324 36.8828-15.7402 36.2734-16.3574Z"/>
  </g>
  <g id="Ultralight-S" transform="matrix(1 0 0 1 515.649 696)">
   <path d="M44.0606 1.97072C64.5039 1.97072 81.2886-14.8105 81.2886-35.2539C81.2886-55.6973 64.5005-72.4785 44.0571-72.4785C23.5718-72.4785 6.83594-55.6973 6.83594-35.2539C6.83594-14.8105 23.5752 1.97072 44.0606 1.97072ZM36.0581-16.6138C35.6865-17.0308 35.6445-17.7261 36.1001-18.1782L53.52-35.2505L36.1001-52.3193C35.6411-52.7715 35.6445-53.5156 36.0615-53.9292C36.5591-54.3325 37.1602-54.4131 37.71-53.9155L55.3706-36.606C56.2749-35.7153 56.2295-34.7368 55.3706-33.937L37.71-16.582C37.1704-16.0913 36.5034-16.1299 36.0581-16.6138Z"/>
  </g>
 </g>
</svg>
