<?xml version="1.0" encoding="UTF-8"?>
<!--Generator: Apple Native CoreSVG 232.5-->
<!DOCTYPE svg
PUBLIC "-//W3C//DTD SVG 1.1//EN"
       "http://www.w3.org/Graphics/SVG/1.1/DTD/svg11.dtd">
<svg version="1.1" xmlns="http://www.w3.org/2000/svg" xmlns:xlink="http://www.w3.org/1999/xlink" width="3300" height="2200">
 <g id="Notes">
  <rect height="2200" id="artboard" style="fill:white;opacity:1" width="3300" x="0" y="0"/>
  <line style="fill:none;stroke:black;opacity:1;stroke-width:0.5;" x1="263" x2="3036" y1="292" y2="292"/>
  <text style="stroke:none;fill:black;font-family:sans-serif;font-size:13;font-weight:bold;" transform="matrix(1 0 0 1 263 322)">Weight/Scale Variations</text>
  <text style="stroke:none;fill:black;font-family:sans-serif;font-size:13;text-anchor:middle;" transform="matrix(1 0 0 1 559.711 322)">Ultralight</text>
  <text style="stroke:none;fill:black;font-family:sans-serif;font-size:13;text-anchor:middle;" transform="matrix(1 0 0 1 856.422 322)">Thin</text>
  <text style="stroke:none;fill:black;font-family:sans-serif;font-size:13;text-anchor:middle;" transform="matrix(1 0 0 1 1153.13 322)">Light</text>
  <text style="stroke:none;fill:black;font-family:sans-serif;font-size:13;text-anchor:middle;" transform="matrix(1 0 0 1 1449.84 322)">Regular</text>
  <text style="stroke:none;fill:black;font-family:sans-serif;font-size:13;text-anchor:middle;" transform="matrix(1 0 0 1 1746.56 322)">Medium</text>
  <text style="stroke:none;fill:black;font-family:sans-serif;font-size:13;text-anchor:middle;" transform="matrix(1 0 0 1 2043.27 322)">Semibold</text>
  <text style="stroke:none;fill:black;font-family:sans-serif;font-size:13;text-anchor:middle;" transform="matrix(1 0 0 1 2339.98 322)">Bold</text>
  <text style="stroke:none;fill:black;font-family:sans-serif;font-size:13;text-anchor:middle;" transform="matrix(1 0 0 1 2636.69 322)">Heavy</text>
  <text style="stroke:none;fill:black;font-family:sans-serif;font-size:13;text-anchor:middle;" transform="matrix(1 0 0 1 2933.4 322)">Black</text>
  <line style="fill:none;stroke:black;opacity:1;stroke-width:0.5;" x1="263" x2="3036" y1="1903" y2="1903"/>
  <g transform="matrix(0.2 0 0 0.2 263 1933)">
   <path d="m46.2402 4.15039c21.5332 0 39.4531-17.8711 39.4531-39.4043s-17.9688-39.4043-39.502-39.4043c-21.4844 0-39.3555 17.8711-39.3555 39.4043s17.9199 39.4043 39.4043 39.4043Zm0-7.42188c-17.7246 0-31.8848-14.209-31.8848-31.9824s14.1113-31.9824 31.8359-31.9824c17.7734 0 32.0312 14.209 32.0312 31.9824s-14.209 31.9824-31.9824 31.9824Zm-17.9688-31.9824c0 2.14844 1.51367 3.61328 3.75977 3.61328h10.498v10.5957c0 2.19727 1.46484 3.71094 3.61328 3.71094 2.24609 0 3.71094-1.51367 3.71094-3.71094v-10.5957h10.5957c2.19727 0 3.71094-1.46484 3.71094-3.61328 0-2.19727-1.51367-3.71094-3.71094-3.71094h-10.5957v-10.5469c0-2.24609-1.46484-3.75977-3.71094-3.75977-2.14844 0-3.61328 1.51367-3.61328 3.75977v10.5469h-10.498c-2.24609 0-3.75977 1.51367-3.75977 3.71094Z"/>
  </g>
  <g transform="matrix(0.2 0 0 0.2 281.506 1933)">
   <path d="m58.5449 14.5508c27.2461 0 49.8047-22.6074 49.8047-49.8047 0-27.2461-22.6074-49.8047-49.8535-49.8047-27.1973 0-49.7559 22.5586-49.7559 49.8047 0 27.1973 22.6074 49.8047 49.8047 49.8047Zm0-8.30078c-23.0469 0-41.4551-18.457-41.4551-41.5039s18.3594-41.5039 41.4062-41.5039 41.5527 18.457 41.5527 41.5039-18.457 41.5039-41.5039 41.5039Zm-22.6562-41.5039c0 2.39258 1.66016 4.00391 4.15039 4.00391h14.3555v14.4043c0 2.44141 1.66016 4.15039 4.05273 4.15039 2.44141 0 4.15039-1.66016 4.15039-4.15039v-14.4043h14.4043c2.44141 0 4.15039-1.61133 4.15039-4.00391 0-2.44141-1.70898-4.15039-4.15039-4.15039h-14.4043v-14.3555c0-2.49023-1.70898-4.19922-4.15039-4.19922-2.39258 0-4.05273 1.70898-4.05273 4.19922v14.3555h-14.3555c-2.49023 0-4.15039 1.70898-4.15039 4.15039Z"/>
  </g>
  <g transform="matrix(0.2 0 0 0.2 304.924 1933)">
   <path d="m74.8535 28.3203c34.8145 0 63.623-28.8086 63.623-63.5742 0-34.8145-28.8574-63.623-63.6719-63.623-34.7656 0-63.5254 28.8086-63.5254 63.623 0 34.7656 28.8086 63.5742 63.5742 63.5742Zm0-9.08203c-30.1758 0-54.4434-24.3164-54.4434-54.4922 0-30.2246 24.2188-54.4922 54.3945-54.4922 30.2246 0 54.541 24.2676 54.541 54.4922 0 30.1758-24.2676 54.4922-54.4922 54.4922Zm-28.8574-54.4922c0 2.58789 1.85547 4.39453 4.58984 4.39453h19.7266v19.7754c0 2.68555 1.85547 4.58984 4.44336 4.58984 2.68555 0 4.54102-1.85547 4.54102-4.58984v-19.7754h19.7754c2.68555 0 4.58984-1.80664 4.58984-4.39453 0-2.73438-1.85547-4.58984-4.58984-4.58984h-19.7754v-19.7266c0-2.73438-1.85547-4.63867-4.54102-4.63867-2.58789 0-4.44336 1.9043-4.44336 4.63867v19.7266h-19.7266c-2.73438 0-4.58984 1.85547-4.58984 4.58984Z"/>
  </g>
  <text style="stroke:none;fill:black;font-family:sans-serif;font-size:13;font-weight:bold;" transform="matrix(1 0 0 1 263 1953)">Design Variations</text>
  <text style="stroke:none;fill:black;font-family:sans-serif;font-size:13;" transform="matrix(1 0 0 1 263 1971)">Symbols are supported in up to nine weights and three scales.</text>
  <text style="stroke:none;fill:black;font-family:sans-serif;font-size:13;" transform="matrix(1 0 0 1 263 1989)">For optimal layout with text and other symbols, vertically align</text>
  <text style="stroke:none;fill:black;font-family:sans-serif;font-size:13;" transform="matrix(1 0 0 1 263 2007)">symbols with the adjacent text.</text>
  <line style="fill:none;stroke:#00AEEF;stroke-width:0.5;opacity:1.0;" x1="776" x2="776" y1="1919" y2="1933"/>
  <g transform="matrix(0.2 0 0 0.2 776 1933)">
   <path d="m16.5527 0.78125c2.58789 0 3.85742-0.976562 4.78516-3.71094l6.29883-17.2363h28.8086l6.29883 17.2363c0.927734 2.73438 2.19727 3.71094 4.73633 3.71094 2.58789 0 4.24805-1.5625 4.24805-4.00391 0-0.830078-0.146484-1.61133-0.537109-2.63672l-22.9004-60.9863c-1.12305-2.97852-3.125-4.49219-6.25-4.49219-3.02734 0-5.07812 1.46484-6.15234 4.44336l-22.9004 61.084c-0.390625 1.02539-0.537109 1.80664-0.537109 2.63672 0 2.44141 1.5625 3.95508 4.10156 3.95508Zm13.4766-28.3691 11.8652-32.8613h0.244141l11.8652 32.8613Z"/>
  </g>
  <line style="fill:none;stroke:#00AEEF;stroke-width:0.5;opacity:1.0;" x1="792.836" x2="792.836" y1="1919" y2="1933"/>
  <text style="stroke:none;fill:black;font-family:sans-serif;font-size:13;font-weight:bold;" transform="matrix(1 0 0 1 776 1953)">Margins</text>
  <text style="stroke:none;fill:black;font-family:sans-serif;font-size:13;" transform="matrix(1 0 0 1 776 1971)">Leading and trailing margins on the left and right side of each symbol</text>
  <text style="stroke:none;fill:black;font-family:sans-serif;font-size:13;" transform="matrix(1 0 0 1 776 1989)">can be adjusted by modifying the x-location of the margin guidelines.</text>
  <text style="stroke:none;fill:black;font-family:sans-serif;font-size:13;" transform="matrix(1 0 0 1 776 2007)">Modifications are automatically applied proportionally to all</text>
  <text style="stroke:none;fill:black;font-family:sans-serif;font-size:13;" transform="matrix(1 0 0 1 776 2025)">scales and weights.</text>
  <g transform="matrix(0.2 0 0 0.2 1289 1933)">
   <path d="m14.209 9.32617 8.49609 8.54492c4.29688 4.3457 9.22852 4.05273 13.8672-1.07422l53.4668-58.9355-4.83398-4.88281-53.0762 58.3984c-1.75781 2.00195-3.41797 2.49023-5.76172 0.146484l-5.85938-5.81055c-2.34375-2.29492-1.80664-4.00391 0.195312-5.81055l57.373-54.0039-4.88281-4.83398-57.959 54.4434c-4.93164 4.58984-5.32227 9.47266-1.02539 13.8184Zm32.0801-90.9668c-2.09961 2.05078-2.24609 4.93164-1.07422 6.88477 1.17188 1.80664 3.4668 2.97852 6.68945 2.14844 7.32422-1.70898 14.9414-2.00195 22.0703 2.68555l-2.92969 7.27539c-1.70898 4.15039-0.830078 7.08008 1.85547 9.81445l11.4746 11.5723c2.44141 2.44141 4.49219 2.53906 7.32422 2.05078l5.32227-0.976562 3.32031 3.36914-0.195312 2.7832c-0.195312 2.49023 0.439453 4.39453 2.88086 6.78711l3.80859 3.71094c2.39258 2.39258 5.46875 2.53906 7.8125 0.195312l14.5508-14.5996c2.34375-2.34375 2.24609-5.32227-0.146484-7.71484l-3.85742-3.80859c-2.39258-2.39258-4.24805-3.17383-6.64062-2.97852l-2.88086 0.244141-3.22266-3.17383 1.2207-5.61523c0.634766-2.83203-0.146484-5.0293-3.07617-7.95898l-10.9863-10.9375c-16.6992-16.6016-38.8672-16.2109-53.3203-1.75781Zm7.4707 1.85547c12.1582-8.88672 28.6133-7.37305 39.7461 3.75977l12.1582 12.0605c1.17188 1.17188 1.36719 2.09961 1.02539 3.80859l-1.61133 7.42188 7.51953 7.42188 4.93164-0.292969c1.26953-0.0488281 1.66016 0.0488281 2.63672 1.02539l2.88086 2.88086-12.207 12.207-2.88086-2.88086c-0.976562-0.976562-1.12305-1.36719-1.07422-2.68555l0.341797-4.88281-7.4707-7.42188-7.61719 1.26953c-1.61133 0.341797-2.34375 0.195312-3.56445-0.976562l-10.0098-10.0098c-1.26953-1.17188-1.41602-2.00195-0.634766-3.85742l4.39453-10.4492c-7.8125-7.27539-17.9688-10.4004-28.125-7.42188-0.78125 0.195312-1.07422-0.439453-0.439453-0.976562Z"/>
  </g>
  <text style="stroke:none;fill:black;font-family:sans-serif;font-size:13;font-weight:bold;" transform="matrix(1 0 0 1 1289 1953)">Exporting</text>
  <text style="stroke:none;fill:black;font-family:sans-serif;font-size:13;" transform="matrix(1 0 0 1 1289 1971)">Symbols should be outlined when exporting to ensure the</text>
  <text style="stroke:none;fill:black;font-family:sans-serif;font-size:13;" transform="matrix(1 0 0 1 1289 1989)">design is preserved when submitting to Xcode.</text>
  <text id="template-version" style="stroke:none;fill:black;font-family:sans-serif;font-size:13;text-anchor:end;" transform="matrix(1 0 0 1 3036 1933)">Template v.2.0</text>
  <text style="stroke:none;fill:black;font-family:sans-serif;font-size:13;text-anchor:end;" transform="matrix(1 0 0 1 3036 1951)">Requires Xcode 12 or greater</text>
  <text id="descriptive-name" style="stroke:none;fill:black;font-family:sans-serif;font-size:13;text-anchor:end;" transform="matrix(1 0 0 1 3036 1969)">Generated from chevron.down</text>
  <text style="stroke:none;fill:black;font-family:sans-serif;font-size:13;text-anchor:end;" transform="matrix(1 0 0 1 3036 1987)">Typeset at 100.0 points</text>
  <text style="stroke:none;fill:black;font-family:sans-serif;font-size:13;" transform="matrix(1 0 0 1 263 726)">Small</text>
  <text style="stroke:none;fill:black;font-family:sans-serif;font-size:13;" transform="matrix(1 0 0 1 263 1156)">Medium</text>
  <text style="stroke:none;fill:black;font-family:sans-serif;font-size:13;" transform="matrix(1 0 0 1 263 1586)">Large</text>
 </g>
 <g id="Guides">
  <g id="H-reference" style="fill:#27AAE1;stroke:none;" transform="matrix(1 0 0 1 339 696)">
   <path d="M0.993654 0L3.63775 0L29.3281-67.1323L30.0303-67.1323L30.0303-70.459L28.1226-70.459ZM11.6885-24.4799L46.9815-24.4799L46.2315-26.7285L12.4385-26.7285ZM55.1196 0L57.7637 0L30.6382-70.459L29.4326-70.459L29.4326-67.1323Z"/>
  </g>
  <line id="Baseline-S" style="fill:none;stroke:#27AAE1;opacity:1;stroke-width:0.5;" x1="263" x2="3036" y1="696" y2="696"/>
  <line id="Capline-S" style="fill:none;stroke:#27AAE1;opacity:1;stroke-width:0.5;" x1="263" x2="3036" y1="625.541" y2="625.541"/>
  <g id="H-reference" style="fill:#27AAE1;stroke:none;" transform="matrix(1 0 0 1 339 1126)">
   <path d="M0.993654 0L3.63775 0L29.3281-67.1323L30.0303-67.1323L30.0303-70.459L28.1226-70.459ZM11.6885-24.4799L46.9815-24.4799L46.2315-26.7285L12.4385-26.7285ZM55.1196 0L57.7637 0L30.6382-70.459L29.4326-70.459L29.4326-67.1323Z"/>
  </g>
  <line id="Baseline-M" style="fill:none;stroke:#27AAE1;opacity:1;stroke-width:0.5;" x1="263" x2="3036" y1="1126" y2="1126"/>
  <line id="Capline-M" style="fill:none;stroke:#27AAE1;opacity:1;stroke-width:0.5;" x1="263" x2="3036" y1="1055.54" y2="1055.54"/>
  <g id="H-reference" style="fill:#27AAE1;stroke:none;" transform="matrix(1 0 0 1 339 1556)">
   <path d="M0.993654 0L3.63775 0L29.3281-67.1323L30.0303-67.1323L30.0303-70.459L28.1226-70.459ZM11.6885-24.4799L46.9815-24.4799L46.2315-26.7285L12.4385-26.7285ZM55.1196 0L57.7637 0L30.6382-70.459L29.4326-70.459L29.4326-67.1323Z"/>
  </g>
  <line id="Baseline-L" style="fill:none;stroke:#27AAE1;opacity:1;stroke-width:0.5;" x1="263" x2="3036" y1="1556" y2="1556"/>
  <line id="Capline-L" style="fill:none;stroke:#27AAE1;opacity:1;stroke-width:0.5;" x1="263" x2="3036" y1="1485.54" y2="1485.54"/>
  <line id="left-margin" style="fill:none;stroke:#00AEEF;stroke-width:0.5;opacity:1.0;" x1="1394.98" x2="1394.98" y1="1030.79" y2="1150.12"/>
  <line id="right-margin" style="fill:none;stroke:#00AEEF;stroke-width:0.5;opacity:1.0;" x1="1504.71" x2="1504.71" y1="1030.79" y2="1150.12"/>
 </g>
 <g id="Symbols">
  <g id="Black-L" transform="matrix(1 0 0 1 2857.72 1556)">
   <path d="M75.7175 2.64078C79.8074 2.58237 83.0177 1.12372 86.3754-2.21728L131.728-48.5484C134.147-50.9692 135.273-53.7826 135.273-57.2473C135.273-64.2536 129.569-70.0367 122.68-70.0367C119.237-70.0367 115.969-68.6008 113.316-65.8515L73.665-24.7365L77.9255-24.7365L38.098-65.8515C35.4459-68.5424 32.2189-70.0367 28.6981-70.0367C21.8075-70.0367 16.084-64.2536 16.084-57.2473C16.084-53.841 17.269-51.0264 19.6303-48.5472L65.0607-2.21609C68.4381 1.18332 71.6651 2.64078 75.7175 2.64078Z"/>
  </g>
  <g id="Heavy-L" transform="matrix(1 0 0 1 2562.31 1556)">
   <path d="M74.4168 1.49347C77.898 1.44885 80.693 0.191998 83.5054-2.63618L129.596-49.8374C131.678-51.9246 132.68-54.3691 132.68-57.3727C132.68-63.4437 127.78-68.4184 121.799-68.4184C118.831-68.4184 115.997-67.1738 113.737-64.8547L72.0883-21.749L76.8546-21.749L35.0666-64.8547C32.8121-67.1292 30.0328-68.4184 26.9957-68.4184C21.0084-68.4184 16.084-63.4437 16.084-57.3727C16.084-54.4137 17.1367-51.9636 19.1737-49.8318L65.3338-2.63057C68.1708 0.242233 70.95 1.49347 74.4168 1.49347Z"/>
  </g>
  <g id="Bold-L" transform="matrix(1 0 0 1 2267.31 1556)">
   <path d="M72.6914-0.0174746C75.4568-0.0466778 77.7445-1.07242 79.9254-3.30017L126.722-51.5176C128.396-53.2048 129.245-55.1884 129.245-57.6308C129.245-62.5564 125.314-66.5545 120.447-66.5545C118.056-66.5545 115.752-65.5481 113.961-63.7368L70.1291-18.2839L75.3167-18.2839L31.3837-63.7368C29.6061-65.5189 27.3652-66.5545 24.92-66.5545C20.0396-66.5545 16.084-62.5564 16.084-57.6308C16.084-55.2176 16.9752-53.2208 18.6201-51.5043L65.4707-3.28694C67.6764-1.02999 69.9173-0.0174746 72.6914-0.0174746Z"/>
  </g>
  <g id="Semibold-L" transform="matrix(1 0 0 1 1971.79 1556)">
   <path d="M71.502-1.05911C73.7739-1.07768 75.7118-1.94411 77.4575-3.75792L124.741-52.6759C126.134-54.0874 126.877-55.7532 126.877-57.8087C126.877-61.9447 123.614-65.2695 119.515-65.2695C117.521-65.2695 115.583-64.4273 114.116-62.9662L68.7784-15.895L74.2565-15.895L28.8448-62.9662C27.3959-64.4088 25.5262-65.2695 23.4891-65.2695C19.3717-65.2695 16.084-61.9447 16.084-57.8087C16.084-55.7718 16.8639-54.0875 18.2384-52.6574L65.5651-3.73944C67.3356-1.90705 69.2053-1.05911 71.502-1.05911Z"/>
  </g>
  <g id="Medium-L" transform="matrix(1 0 0 1 1675.97 1556)">
   <path d="M70.6001-1.84892C72.4979-1.85944 74.1705-2.60505 75.5861-4.10501L123.238-53.5542C124.418-54.7566 125.081-56.1815 125.081-57.9436C125.081-61.4809 122.324-64.2952 118.808-64.2952C117.116-64.2952 115.455-63.5775 114.233-62.3819L67.7542-14.0837L73.4526-14.0837L26.9197-62.3819C25.7201-63.567 24.1318-64.2952 22.4041-64.2952C18.8653-64.2952 16.084-61.4809 16.084-57.9436C16.084-56.192 16.7796-54.7447 17.949-53.5317L65.6366-4.08255C67.0772-2.57208 68.6655-1.84892 70.6001-1.84892Z"/>
  </g>
  <g id="Regular-L" transform="matrix(1 0 0 1 1380.43 1556)">
   <path d="M69.4238-2.87911C70.8335-2.87911 72.1602-3.46716 73.1452-4.55773L121.279-54.6997C122.181-55.6295 122.738-56.7401 122.738-58.1196C122.738-60.876 120.643-63.0244 117.886-63.0244C116.587-63.0244 115.288-62.4691 114.386-61.6198L66.4184-11.7212L72.404-11.7212L24.4086-61.6198C23.5342-62.4691 22.313-63.0244 20.9888-63.0244C18.2047-63.0244 16.084-60.876 16.084-58.1196C16.084-56.7401 16.6695-55.6018 17.5716-54.6721L65.7299-4.53007C66.7401-3.4395 67.9613-2.87911 69.4238-2.87911Z"/>
  </g>
  <g id="Light-L" transform="matrix(1 0 0 1 1085.63 1556)">
   <path d="M67.4962-4.50136C68.6577-4.50136 69.6791-5.05124 70.5115-5.95096L117.786-56.3983C118.478-57.1372 118.921-57.9043 118.921-58.9593C118.921-61.0096 117.322-62.6427 115.272-62.6427C114.297-62.6427 113.322-62.2592 112.63-61.6007L65.0252-10.8433L69.9802-10.8433L22.3283-61.6007C21.6829-62.2592 20.7289-62.6427 19.7674-62.6427C17.6703-62.6427 16.084-61.0096 16.084-58.9593C16.084-57.9043 16.5741-57.0905 17.2662-56.3516L64.5276-5.90421C65.3469-5.00449 66.3009-4.50136 67.4962-4.50136Z"/>
  </g>
  <g id="Thin-L" transform="matrix(1 0 0 1 791.444 1556)">
   <path d="M64.9467-6.64692C65.7802-6.64692 66.3977-7.14631 67.0281-7.79361L113.167-58.6449C113.581-59.1313 113.873-59.444 113.873-60.0699C113.873-61.1863 112.93-62.1378 111.814-62.1378C111.268-62.1378 110.723-61.9815 110.308-61.5755L63.1825-9.68213L66.7745-9.68213L19.577-61.5755C19.2345-61.9815 18.6338-62.1378 18.1519-62.1378C16.9636-62.1378 16.084-61.1863 16.084-60.0699C16.084-59.444 16.4478-59.0593 16.8623-58.5729L62.9373-7.72163C63.5042-7.07432 64.1048-6.64692 64.9467-6.64692Z"/>
  </g>
  <g id="Ultralight-L" transform="matrix(1 0 0 1 496.025 1556)">
   <path d="M63.6409-7.74586C64.3063-7.74586 64.7169-8.21939 65.2439-8.73741L110.801-59.7955C111.073-60.1527 111.287-60.2327 111.287-60.6388C111.287-61.2768 110.68-61.8793 110.042-61.8793C109.717-61.8793 109.391-61.8393 109.119-61.5625L62.2387-9.08741L65.1325-9.08741L18.1677-61.5625C17.9804-61.8393 17.5608-61.8793 17.3244-61.8793C16.6016-61.8793 16.084-61.2768 16.084-60.6388C16.084-60.2327 16.3832-60.0678 16.6555-59.7106L62.1228-8.65249C62.5604-8.13448 62.98-7.74586 63.6409-7.74586Z"/>
  </g>
  <g id="Black-M" transform="matrix(1 0 0 1 2873.91 1126)">
   <path d="M59.5182-5.12356C63.1764-5.18066 65.9791-6.47901 69.0285-9.4823L103.414-44.6705C105.55-46.8069 106.513-49.2571 106.513-52.2936C106.513-58.4298 101.47-63.5353 95.4477-63.5353C92.4164-63.5353 89.5564-62.2816 87.1913-59.8078L58.2377-29.5487L60.9641-29.5487L31.8396-59.8078C29.4742-62.2245 26.6254-63.5353 23.5313-63.5353C17.5096-63.5353 12.4609-58.4298 12.4609-52.2936C12.4609-49.3142 13.4799-46.8643 15.5595-44.6708L50.0076-9.48258C53.0628-6.4222 55.9115-5.12356 59.5182-5.12356Z"/>
  </g>
  <g id="Heavy-M" transform="matrix(1 0 0 1 2578.29 1126)">
   <path d="M58.4245-6.09548C61.5105-6.1391 63.9354-7.2437 66.4657-9.76327L101.652-45.7739C103.478-47.6018 104.33-49.723 104.33-52.3388C104.33-57.6258 100.028-61.9884 94.8279-61.9884C92.2308-61.9884 89.7646-60.906 87.7645-58.8351L56.8249-26.7092L60.1409-26.7092L29.0681-58.8351C27.0702-60.8624 24.6346-61.9884 21.9797-61.9884C16.7777-61.9884 12.4609-57.6258 12.4609-52.3388C12.4609-49.7666 13.3593-47.6431 15.1413-45.7716L50.3855-9.761C52.93-7.1978 55.3657-6.09548 58.4245-6.09548Z"/>
  </g>
  <g id="Bold-M" transform="matrix(1 0 0 1 2282.8 1126)">
   <path d="M57.2011-7.18271C59.647-7.21126 61.6492-8.0991 63.599-10.0776L99.6818-47.0082C101.159-48.491 101.889-50.2442 101.889-52.3892C101.889-56.7263 98.4146-60.2581 94.1346-60.2581C92.0233-60.2581 89.9976-59.3672 88.4058-57.7469L55.2444-23.5328L59.2199-23.5328L25.9677-57.7469C24.381-59.3386 22.4075-60.2581 20.2441-60.2581C15.959-60.2581 12.4609-56.7263 12.4609-52.3892C12.4609-50.2727 13.2244-48.5144 14.6735-47.0031L50.8083-10.0724C52.7815-8.06542 54.7551-7.18271 57.2011-7.18271Z"/>
  </g>
  <g id="Semibold-M" transform="matrix(1 0 0 1 1986.93 1126)">
   <path d="M56.3576-7.93224C58.3622-7.9504 60.0732-8.68882 61.6227-10.2943L98.3233-47.8592C99.561-49.104 100.206-50.6034 100.206-52.424C100.206-56.1062 97.3025-59.0652 93.6566-59.0652C91.8802-59.0652 90.1582-58.3063 88.8479-56.9968L54.1548-21.343L58.585-21.343L23.8303-56.9968C22.5271-58.2882 20.8721-59.0652 19.0476-59.0652C15.3946-59.0652 12.4609-56.1062 12.4609-52.424C12.4609-50.6216 13.1314-49.115 14.3509-47.8521L51.0997-10.2872C52.6792-8.66355 54.3342-7.93224 56.3576-7.93224Z"/>
  </g>
  <g id="Medium-M" transform="matrix(1 0 0 1 1690.86 1126)">
   <path d="M55.7181-8.50056C57.3881-8.51084 58.8781-9.13596 60.1241-10.4586L97.2933-48.5044C98.3491-49.5688 98.9302-50.8759 98.9302-52.4504C98.9302-55.6361 96.4593-58.1607 93.2942-58.1607C91.7717-58.1607 90.28-57.502 89.1831-56.4279L53.3287-19.6826L58.1036-19.6826L22.2097-56.4279C21.1214-57.4917 19.708-58.1607 18.1403-58.1607C14.9667-58.1607 12.4609-55.6361 12.4609-52.4504C12.4609-50.8862 13.0609-49.5704 14.1064-48.4958L51.3207-10.45C52.6015-9.11708 54.015-8.50056 55.7181-8.50056Z"/>
  </g>
  <g id="Regular-M" transform="matrix(1 0 0 1 1394.98 1126)">
   <path d="M54.884-9.24186C56.1175-9.24186 57.3194-9.71919 58.1695-10.6729L95.9498-49.346C96.7683-50.175 97.2658-51.2312 97.2658-52.4849C97.2658-55.0228 95.3594-56.9809 92.8215-56.9809C91.6302-56.9809 90.4388-56.4528 89.6203-55.686L52.2511-17.5169L57.4756-17.5169L20.0958-55.686C19.2879-56.4528 18.1895-56.9809 16.957-56.9809C14.4085-56.9809 12.4609-55.0228 12.4609-52.4849C12.4609-51.2312 12.9689-50.1645 13.7874-49.3354L51.6089-10.6623C52.5003-9.70864 53.5987-9.24186 54.884-9.24186Z"/>
  </g>
  <g id="Light-M" transform="matrix(1 0 0 1 1099.98 1126)">
   <path d="M53.1557-10.6963C54.1668-10.6963 55.095-11.1394 55.8082-11.922L92.8185-50.8688C93.4488-51.5268 93.8436-52.275 93.8436-53.2377C93.8436-55.1426 92.3821-56.6387 90.4773-56.6387C89.5769-56.6387 88.6764-56.2646 88.0461-55.6689L51.002-16.7298L55.3026-16.7298L18.2307-55.6689C17.6281-56.2646 16.7693-56.6387 15.8619-56.6387C13.9294-56.6387 12.4609-55.1426 12.4609-53.2377C12.4609-52.275 12.8834-51.4991 13.5137-50.8412L50.5309-11.8943C51.2512-11.1117 52.11-10.6963 53.1557-10.6963Z"/>
  </g>
  <g id="Thin-M" transform="matrix(1 0 0 1 805.533 1126)">
   <path d="M50.8701-12.6199C51.587-12.6199 52.153-13.0177 52.6852-13.574L88.6771-52.883C89.0585-53.3146 89.3175-53.6554 89.3175-54.2335C89.3175-55.301 88.4444-56.186 87.3769-56.186C86.8612-56.186 86.3455-56.0156 85.9641-55.6463L49.3499-15.6888L52.4285-15.6888L15.764-55.6463C15.4329-56.0156 14.891-56.186 14.4135-56.186C13.2957-56.186 12.4609-55.301 12.4609-54.2335C12.4609-53.6554 12.7702-53.2643 13.1516-52.8327L49.1052-13.5237C49.5992-12.9674 50.1411-12.6199 50.8701-12.6199Z"/>
  </g>
  <g id="Ultralight-M" transform="matrix(1 0 0 1 509.981 1126)">
   <path d="M49.6993-13.6051C50.2656-13.6051 50.6461-13.9798 51.0856-14.4202L86.5559-53.9146C86.8098-54.2303 86.9992-54.3625 86.9992-54.7435C86.9992-55.3821 86.4275-55.9542 85.7889-55.9542C85.4702-55.9542 85.1515-55.8881 84.8977-55.6347L48.5038-15.1556L50.9564-15.1556L14.5006-55.6347C14.3086-55.8881 13.9289-55.9542 13.6717-55.9542C12.9712-55.9542 12.4609-55.3821 12.4609-54.7435C12.4609-54.3625 12.7123-54.1684 12.9661-53.8527L48.375-14.3583C48.753-13.9179 49.1327-13.6051 49.6993-13.6051Z"/>
  </g>
  <g id="Black-S" transform="matrix(1 0 0 1 2886.55 696)">
   <path d="M46.875-11.4258C49.9023-11.4746 52.1973-12.5488 54.7363-15.0391L81.3965-42.3828C83.1543-44.1406 83.9355-46.1426 83.9355-48.6328C83.9355-53.6621 79.7852-57.8613 74.8535-57.8613C72.3633-57.8613 70.0195-56.8359 68.0664-54.7852L45.9961-31.5918L47.9004-31.5918L25.6836-54.7852C23.7305-56.7871 21.3867-57.8613 18.8477-57.8613C13.916-57.8613 9.76562-53.6621 9.76562-48.6328C9.76562-46.1914 10.5957-44.1895 12.3047-42.3828L39.0137-15.0391C41.5527-12.5 43.8965-11.4258 46.875-11.4258Z"/>
  </g>
  <g id="Heavy-S" transform="matrix(1 0 0 1 2590.55 696)">
   <path d="M46.1605-12.0712C48.7268-12.1085 50.7337-13.0213 52.8463-15.1197L80.2901-43.1319C81.8059-44.6477 82.5065-46.4076 82.5065-48.5752C82.5065-52.9591 78.9323-56.5821 74.623-56.5821C72.467-56.5821 70.4229-55.6835 68.7579-53.9554L44.9474-29.2639L47.474-29.2639L23.5516-53.9554C21.8866-55.6462 19.8655-56.5821 17.6606-56.5821C13.3513-56.5821 9.76562-52.9591 9.76562-48.5752C9.76562-46.4449 10.5035-44.685 11.982-43.1319L39.4747-15.1197C41.5988-12.984 43.6199-12.0712 46.1605-12.0712Z"/>
  </g>
  <g id="Bold-S" transform="matrix(1 0 0 1 2294.64 696)">
   <path d="M45.3613-12.793C47.4121-12.8174 49.0967-13.5498 50.7324-15.21L79.0527-43.9697C80.2979-45.2148 80.9082-46.7041 80.9082-48.5107C80.9082-52.1729 77.9785-55.1514 74.3652-55.1514C72.583-55.1514 70.874-54.3945 69.5312-53.0273L43.7744-26.6602L46.9971-26.6602L21.167-53.0273C19.8242-54.3701 18.1641-55.1514 16.333-55.1514C12.7197-55.1514 9.76562-52.1729 9.76562-48.5107C9.76562-46.7285 10.4004-45.2393 11.6211-43.9697L39.9902-15.21C41.6504-13.5254 43.3105-12.793 45.3613-12.793Z"/>
  </g>
  <g id="Semibold-S" transform="matrix(1 0 0 1 1998.48 696)">
   <path d="M44.8104-13.2906C46.5057-13.3062 47.9681-13.9142 49.275-15.2722L78.1996-44.5474C79.2581-45.6059 79.8063-46.9085 79.8063-48.4663C79.8063-51.6308 77.3209-54.1649 74.1875-54.1649C72.663-54.1649 71.1851-53.5059 70.0645-52.3875L42.9657-24.865L46.6683-24.865L19.5229-52.3875C18.4023-53.4903 16.991-54.1649 15.4177-54.1649C12.2843-54.1649 9.76562-51.6308 9.76562-48.4663C9.76562-46.924 10.3293-45.6214 11.3723-44.5474L40.3457-15.2722C41.6859-13.8986 43.0973-13.2906 44.8104-13.2906Z"/>
  </g>
  <g id="Medium-S" transform="matrix(1 0 0 1 1702.19 696)">
   <path d="M44.3926-13.668C45.8184-13.6768 47.1123-14.1904 48.1699-15.3193L77.5527-44.9854C78.4697-45.9023 78.9707-47.0635 78.9707-48.4326C78.9707-51.2197 76.8223-53.417 74.0527-53.417C72.7236-53.417 71.4209-52.832 70.4688-51.9023L42.3525-23.5039L46.4189-23.5039L18.2764-51.9023C17.3242-52.8232 16.1016-53.417 14.7236-53.417C11.9541-53.417 9.76562-51.2197 9.76562-48.4326C9.76562-47.0723 10.2754-45.9111 11.1836-44.9854L40.6152-15.3193C41.7129-14.1816 42.9355-13.668 44.3926-13.668Z"/>
  </g>
  <g id="Regular-S" transform="matrix(1 0 0 1 1406.02 696)">
   <path d="M43.8477-14.1602C44.9219-14.1602 45.9961-14.5508 46.7285-15.3809L76.709-45.5566C77.4414-46.2891 77.8809-47.2656 77.8809-48.3887C77.8809-50.6836 76.1719-52.4414 73.877-52.4414C72.8027-52.4414 71.7285-51.9531 70.9961-51.2695L41.5527-21.7285L46.0938-21.7285L16.6504-51.2695C15.918-51.9531 14.9414-52.4414 13.8184-52.4414C11.5234-52.4414 9.76562-50.6836 9.76562-48.3887C9.76562-47.2656 10.2051-46.2891 10.9375-45.5566L40.9668-15.3809C41.748-14.5508 42.7246-14.1602 43.8477-14.1602Z"/>
  </g>
  <g id="Light-S" transform="matrix(1 0 0 1 1110.82 696)">
   <path d="M42.3189-15.4468C43.1963-15.4468 44.0283-15.8071 44.6397-16.4858L73.939-46.9038C74.5049-47.4849 74.8535-48.189 74.8535-49.0547C74.8535-50.7895 73.5381-52.1387 71.8032-52.1387C70.9863-52.1387 70.1694-51.7866 69.6035-51.2544L40.4478-21.0322L44.1714-21.0322L15.0005-51.2544C14.4497-51.7866 13.6851-52.1387 12.8496-52.1387C11.0996-52.1387 9.76562-50.7895 9.76562-49.0547C9.76562-48.189 10.1294-47.4697 10.6953-46.8887L40.0132-16.4707C40.6431-15.792 41.4077-15.4468 42.3189-15.4468Z"/>
  </g>
  <g id="Thin-S" transform="matrix(1 0 0 1 816.115 696)">
   <path d="M40.2969-17.1484C40.9141-17.1484 41.4258-17.4687 41.877-17.9472L70.2754-48.6855C70.6211-49.0664 70.8497-49.4101 70.8497-49.9355C70.8497-50.9297 70.0547-51.7383 69.0606-51.7383C68.584-51.7383 68.1075-51.5664 67.7617-51.2344L38.9863-20.1113L41.6289-20.1113L12.8184-51.2344C12.5078-51.5664 12.0235-51.7383 11.5684-51.7383C10.5391-51.7383 9.76562-50.9297 9.76562-49.9355C9.76562-49.4101 10.0293-49.0312 10.375-48.6504L38.752-17.9121C39.1817-17.4336 39.666-17.1484 40.2969-17.1484Z"/>
  </g>
  <g id="Ultralight-S" transform="matrix(1 0 0 1 520.429 696)">
   <path d="M39.2613-18.02C39.7452-18.02 40.0928-18.3198 40.462-18.6958L68.399-49.5981C68.6319-49.8764 68.7989-50.0356 68.7989-50.3867C68.7989-51.0015 68.2706-51.5332 67.6558-51.5332C67.3536-51.5332 67.0513-51.4536 66.8184-51.2241L38.2378-19.6397L40.3267-19.6397L11.7007-51.2241C11.5132-51.4536 11.1724-51.5332 10.9121-51.5332C10.252-51.5332 9.76562-51.0015 9.76562-50.3867C9.76562-50.0356 9.97803-49.831 10.2109-49.5527L38.106-18.6504C38.4331-18.2744 38.774-18.02 39.2613-18.02Z"/>
  </g>
 </g>
</svg>
