<?xml version="1.0" encoding="UTF-8"?>
<!--Generator: Apple Native CoreSVG 232.5-->
<!DOCTYPE svg
PUBLIC "-//W3C//DTD SVG 1.1//EN"
       "http://www.w3.org/Graphics/SVG/1.1/DTD/svg11.dtd">
<svg version="1.1" xmlns="http://www.w3.org/2000/svg" xmlns:xlink="http://www.w3.org/1999/xlink" width="3300" height="2200">
 <g id="Notes">
  <rect height="2200" id="artboard" style="fill:white;opacity:1" width="3300" x="0" y="0"/>
  <line style="fill:none;stroke:black;opacity:1;stroke-width:0.5;" x1="263" x2="3036" y1="292" y2="292"/>
  <text style="stroke:none;fill:black;font-family:sans-serif;font-size:13;font-weight:bold;" transform="matrix(1 0 0 1 263 322)">Weight/Scale Variations</text>
  <text style="stroke:none;fill:black;font-family:sans-serif;font-size:13;text-anchor:middle;" transform="matrix(1 0 0 1 559.711 322)">Ultralight</text>
  <text style="stroke:none;fill:black;font-family:sans-serif;font-size:13;text-anchor:middle;" transform="matrix(1 0 0 1 856.422 322)">Thin</text>
  <text style="stroke:none;fill:black;font-family:sans-serif;font-size:13;text-anchor:middle;" transform="matrix(1 0 0 1 1153.13 322)">Light</text>
  <text style="stroke:none;fill:black;font-family:sans-serif;font-size:13;text-anchor:middle;" transform="matrix(1 0 0 1 1449.84 322)">Regular</text>
  <text style="stroke:none;fill:black;font-family:sans-serif;font-size:13;text-anchor:middle;" transform="matrix(1 0 0 1 1746.56 322)">Medium</text>
  <text style="stroke:none;fill:black;font-family:sans-serif;font-size:13;text-anchor:middle;" transform="matrix(1 0 0 1 2043.27 322)">Semibold</text>
  <text style="stroke:none;fill:black;font-family:sans-serif;font-size:13;text-anchor:middle;" transform="matrix(1 0 0 1 2339.98 322)">Bold</text>
  <text style="stroke:none;fill:black;font-family:sans-serif;font-size:13;text-anchor:middle;" transform="matrix(1 0 0 1 2636.69 322)">Heavy</text>
  <text style="stroke:none;fill:black;font-family:sans-serif;font-size:13;text-anchor:middle;" transform="matrix(1 0 0 1 2933.4 322)">Black</text>
  <line style="fill:none;stroke:black;opacity:1;stroke-width:0.5;" x1="263" x2="3036" y1="1903" y2="1903"/>
  <g transform="matrix(0.2 0 0 0.2 263 1933)">
   <path d="m46.2402 4.15039c21.5332 0 39.4531-17.8711 39.4531-39.4043s-17.9688-39.4043-39.502-39.4043c-21.4844 0-39.3555 17.8711-39.3555 39.4043s17.9199 39.4043 39.4043 39.4043Zm0-7.42188c-17.7246 0-31.8848-14.209-31.8848-31.9824s14.1113-31.9824 31.8359-31.9824c17.7734 0 32.0312 14.209 32.0312 31.9824s-14.209 31.9824-31.9824 31.9824Zm-17.9688-31.9824c0 2.14844 1.51367 3.61328 3.75977 3.61328h10.498v10.5957c0 2.19727 1.46484 3.71094 3.61328 3.71094 2.24609 0 3.71094-1.51367 3.71094-3.71094v-10.5957h10.5957c2.19727 0 3.71094-1.46484 3.71094-3.61328 0-2.19727-1.51367-3.71094-3.71094-3.71094h-10.5957v-10.5469c0-2.24609-1.46484-3.75977-3.71094-3.75977-2.14844 0-3.61328 1.51367-3.61328 3.75977v10.5469h-10.498c-2.24609 0-3.75977 1.51367-3.75977 3.71094Z"/>
  </g>
  <g transform="matrix(0.2 0 0 0.2 281.506 1933)">
   <path d="m58.5449 14.5508c27.2461 0 49.8047-22.6074 49.8047-49.8047 0-27.2461-22.6074-49.8047-49.8535-49.8047-27.1973 0-49.7559 22.5586-49.7559 49.8047 0 27.1973 22.6074 49.8047 49.8047 49.8047Zm0-8.30078c-23.0469 0-41.4551-18.457-41.4551-41.5039s18.3594-41.5039 41.4062-41.5039 41.5527 18.457 41.5527 41.5039-18.457 41.5039-41.5039 41.5039Zm-22.6562-41.5039c0 2.39258 1.66016 4.00391 4.15039 4.00391h14.3555v14.4043c0 2.44141 1.66016 4.15039 4.05273 4.15039 2.44141 0 4.15039-1.66016 4.15039-4.15039v-14.4043h14.4043c2.44141 0 4.15039-1.61133 4.15039-4.00391 0-2.44141-1.70898-4.15039-4.15039-4.15039h-14.4043v-14.3555c0-2.49023-1.70898-4.19922-4.15039-4.19922-2.39258 0-4.05273 1.70898-4.05273 4.19922v14.3555h-14.3555c-2.49023 0-4.15039 1.70898-4.15039 4.15039Z"/>
  </g>
  <g transform="matrix(0.2 0 0 0.2 304.924 1933)">
   <path d="m74.8535 28.3203c34.8145 0 63.623-28.8086 63.623-63.5742 0-34.8145-28.8574-63.623-63.6719-63.623-34.7656 0-63.5254 28.8086-63.5254 63.623 0 34.7656 28.8086 63.5742 63.5742 63.5742Zm0-9.08203c-30.1758 0-54.4434-24.3164-54.4434-54.4922 0-30.2246 24.2188-54.4922 54.3945-54.4922 30.2246 0 54.541 24.2676 54.541 54.4922 0 30.1758-24.2676 54.4922-54.4922 54.4922Zm-28.8574-54.4922c0 2.58789 1.85547 4.39453 4.58984 4.39453h19.7266v19.7754c0 2.68555 1.85547 4.58984 4.44336 4.58984 2.68555 0 4.54102-1.85547 4.54102-4.58984v-19.7754h19.7754c2.68555 0 4.58984-1.80664 4.58984-4.39453 0-2.73438-1.85547-4.58984-4.58984-4.58984h-19.7754v-19.7266c0-2.73438-1.85547-4.63867-4.54102-4.63867-2.58789 0-4.44336 1.9043-4.44336 4.63867v19.7266h-19.7266c-2.73438 0-4.58984 1.85547-4.58984 4.58984Z"/>
  </g>
  <text style="stroke:none;fill:black;font-family:sans-serif;font-size:13;font-weight:bold;" transform="matrix(1 0 0 1 263 1953)">Design Variations</text>
  <text style="stroke:none;fill:black;font-family:sans-serif;font-size:13;" transform="matrix(1 0 0 1 263 1971)">Symbols are supported in up to nine weights and three scales.</text>
  <text style="stroke:none;fill:black;font-family:sans-serif;font-size:13;" transform="matrix(1 0 0 1 263 1989)">For optimal layout with text and other symbols, vertically align</text>
  <text style="stroke:none;fill:black;font-family:sans-serif;font-size:13;" transform="matrix(1 0 0 1 263 2007)">symbols with the adjacent text.</text>
  <line style="fill:none;stroke:#00AEEF;stroke-width:0.5;opacity:1.0;" x1="776" x2="776" y1="1919" y2="1933"/>
  <g transform="matrix(0.2 0 0 0.2 776 1933)">
   <path d="m16.5527 0.78125c2.58789 0 3.85742-0.976562 4.78516-3.71094l6.29883-17.2363h28.8086l6.29883 17.2363c0.927734 2.73438 2.19727 3.71094 4.73633 3.71094 2.58789 0 4.24805-1.5625 4.24805-4.00391 0-0.830078-0.146484-1.61133-0.537109-2.63672l-22.9004-60.9863c-1.12305-2.97852-3.125-4.49219-6.25-4.49219-3.02734 0-5.07812 1.46484-6.15234 4.44336l-22.9004 61.084c-0.390625 1.02539-0.537109 1.80664-0.537109 2.63672 0 2.44141 1.5625 3.95508 4.10156 3.95508Zm13.4766-28.3691 11.8652-32.8613h0.244141l11.8652 32.8613Z"/>
  </g>
  <line style="fill:none;stroke:#00AEEF;stroke-width:0.5;opacity:1.0;" x1="792.836" x2="792.836" y1="1919" y2="1933"/>
  <text style="stroke:none;fill:black;font-family:sans-serif;font-size:13;font-weight:bold;" transform="matrix(1 0 0 1 776 1953)">Margins</text>
  <text style="stroke:none;fill:black;font-family:sans-serif;font-size:13;" transform="matrix(1 0 0 1 776 1971)">Leading and trailing margins on the left and right side of each symbol</text>
  <text style="stroke:none;fill:black;font-family:sans-serif;font-size:13;" transform="matrix(1 0 0 1 776 1989)">can be adjusted by modifying the x-location of the margin guidelines.</text>
  <text style="stroke:none;fill:black;font-family:sans-serif;font-size:13;" transform="matrix(1 0 0 1 776 2007)">Modifications are automatically applied proportionally to all</text>
  <text style="stroke:none;fill:black;font-family:sans-serif;font-size:13;" transform="matrix(1 0 0 1 776 2025)">scales and weights.</text>
  <g transform="matrix(0.2 0 0 0.2 1289 1933)">
   <path d="m14.209 9.32617 8.49609 8.54492c4.29688 4.3457 9.22852 4.05273 13.8672-1.07422l53.4668-58.9355-4.83398-4.88281-53.0762 58.3984c-1.75781 2.00195-3.41797 2.49023-5.76172 0.146484l-5.85938-5.81055c-2.34375-2.29492-1.80664-4.00391 0.195312-5.81055l57.373-54.0039-4.88281-4.83398-57.959 54.4434c-4.93164 4.58984-5.32227 9.47266-1.02539 13.8184Zm32.0801-90.9668c-2.09961 2.05078-2.24609 4.93164-1.07422 6.88477 1.17188 1.80664 3.4668 2.97852 6.68945 2.14844 7.32422-1.70898 14.9414-2.00195 22.0703 2.68555l-2.92969 7.27539c-1.70898 4.15039-0.830078 7.08008 1.85547 9.81445l11.4746 11.5723c2.44141 2.44141 4.49219 2.53906 7.32422 2.05078l5.32227-0.976562 3.32031 3.36914-0.195312 2.7832c-0.195312 2.49023 0.439453 4.39453 2.88086 6.78711l3.80859 3.71094c2.39258 2.39258 5.46875 2.53906 7.8125 0.195312l14.5508-14.5996c2.34375-2.34375 2.24609-5.32227-0.146484-7.71484l-3.85742-3.80859c-2.39258-2.39258-4.24805-3.17383-6.64062-2.97852l-2.88086 0.244141-3.22266-3.17383 1.2207-5.61523c0.634766-2.83203-0.146484-5.0293-3.07617-7.95898l-10.9863-10.9375c-16.6992-16.6016-38.8672-16.2109-53.3203-1.75781Zm7.4707 1.85547c12.1582-8.88672 28.6133-7.37305 39.7461 3.75977l12.1582 12.0605c1.17188 1.17188 1.36719 2.09961 1.02539 3.80859l-1.61133 7.42188 7.51953 7.42188 4.93164-0.292969c1.26953-0.0488281 1.66016 0.0488281 2.63672 1.02539l2.88086 2.88086-12.207 12.207-2.88086-2.88086c-0.976562-0.976562-1.12305-1.36719-1.07422-2.68555l0.341797-4.88281-7.4707-7.42188-7.61719 1.26953c-1.61133 0.341797-2.34375 0.195312-3.56445-0.976562l-10.0098-10.0098c-1.26953-1.17188-1.41602-2.00195-0.634766-3.85742l4.39453-10.4492c-7.8125-7.27539-17.9688-10.4004-28.125-7.42188-0.78125 0.195312-1.07422-0.439453-0.439453-0.976562Z"/>
  </g>
  <text style="stroke:none;fill:black;font-family:sans-serif;font-size:13;font-weight:bold;" transform="matrix(1 0 0 1 1289 1953)">Exporting</text>
  <text style="stroke:none;fill:black;font-family:sans-serif;font-size:13;" transform="matrix(1 0 0 1 1289 1971)">Symbols should be outlined when exporting to ensure the</text>
  <text style="stroke:none;fill:black;font-family:sans-serif;font-size:13;" transform="matrix(1 0 0 1 1289 1989)">design is preserved when submitting to Xcode.</text>
  <text id="template-version" style="stroke:none;fill:black;font-family:sans-serif;font-size:13;text-anchor:end;" transform="matrix(1 0 0 1 3036 1933)">Template v.2.0</text>
  <text style="stroke:none;fill:black;font-family:sans-serif;font-size:13;text-anchor:end;" transform="matrix(1 0 0 1 3036 1951)">Requires Xcode 12 or greater</text>
  <text id="descriptive-name" style="stroke:none;fill:black;font-family:sans-serif;font-size:13;text-anchor:end;" transform="matrix(1 0 0 1 3036 1969)">Generated from arrow.up.and.line.horizontal.and.arrow.down</text>
  <text style="stroke:none;fill:black;font-family:sans-serif;font-size:13;text-anchor:end;" transform="matrix(1 0 0 1 3036 1987)">Typeset at 100.0 points</text>
  <text style="stroke:none;fill:black;font-family:sans-serif;font-size:13;" transform="matrix(1 0 0 1 263 726)">Small</text>
  <text style="stroke:none;fill:black;font-family:sans-serif;font-size:13;" transform="matrix(1 0 0 1 263 1156)">Medium</text>
  <text style="stroke:none;fill:black;font-family:sans-serif;font-size:13;" transform="matrix(1 0 0 1 263 1586)">Large</text>
 </g>
 <g id="Guides">
  <g id="H-reference" style="fill:#27AAE1;stroke:none;" transform="matrix(1 0 0 1 339 696)">
   <path d="M0.993654 0L3.63775 0L29.3281-67.1323L30.0303-67.1323L30.0303-70.459L28.1226-70.459ZM11.6885-24.4799L46.9815-24.4799L46.2315-26.7285L12.4385-26.7285ZM55.1196 0L57.7637 0L30.6382-70.459L29.4326-70.459L29.4326-67.1323Z"/>
  </g>
  <line id="Baseline-S" style="fill:none;stroke:#27AAE1;opacity:1;stroke-width:0.5;" x1="263" x2="3036" y1="696" y2="696"/>
  <line id="Capline-S" style="fill:none;stroke:#27AAE1;opacity:1;stroke-width:0.5;" x1="263" x2="3036" y1="625.541" y2="625.541"/>
  <g id="H-reference" style="fill:#27AAE1;stroke:none;" transform="matrix(1 0 0 1 339 1126)">
   <path d="M0.993654 0L3.63775 0L29.3281-67.1323L30.0303-67.1323L30.0303-70.459L28.1226-70.459ZM11.6885-24.4799L46.9815-24.4799L46.2315-26.7285L12.4385-26.7285ZM55.1196 0L57.7637 0L30.6382-70.459L29.4326-70.459L29.4326-67.1323Z"/>
  </g>
  <line id="Baseline-M" style="fill:none;stroke:#27AAE1;opacity:1;stroke-width:0.5;" x1="263" x2="3036" y1="1126" y2="1126"/>
  <line id="Capline-M" style="fill:none;stroke:#27AAE1;opacity:1;stroke-width:0.5;" x1="263" x2="3036" y1="1055.54" y2="1055.54"/>
  <g id="H-reference" style="fill:#27AAE1;stroke:none;" transform="matrix(1 0 0 1 339 1556)">
   <path d="M0.993654 0L3.63775 0L29.3281-67.1323L30.0303-67.1323L30.0303-70.459L28.1226-70.459ZM11.6885-24.4799L46.9815-24.4799L46.2315-26.7285L12.4385-26.7285ZM55.1196 0L57.7637 0L30.6382-70.459L29.4326-70.459L29.4326-67.1323Z"/>
  </g>
  <line id="Baseline-L" style="fill:none;stroke:#27AAE1;opacity:1;stroke-width:0.5;" x1="263" x2="3036" y1="1556" y2="1556"/>
  <line id="Capline-L" style="fill:none;stroke:#27AAE1;opacity:1;stroke-width:0.5;" x1="263" x2="3036" y1="1485.54" y2="1485.54"/>
  <line id="left-margin" style="fill:none;stroke:#00AEEF;stroke-width:0.5;opacity:1.0;" x1="1391.87" x2="1391.87" y1="1030.79" y2="1150.12"/>
  <line id="right-margin" style="fill:none;stroke:#00AEEF;stroke-width:0.5;opacity:1.0;" x1="1507.82" x2="1507.82" y1="1030.79" y2="1150.12"/>
 </g>
 <g id="Symbols">
  <g id="Black-L" transform="matrix(1 0 0 1 2842.54 1556)">
   <path d="M90.8611-53.1292C97.6349-53.1292 102.148-57.8337 102.148-64.9592L102.148-87.3833L101.436-96.6401L111.571-84.9834C113.486-82.7169 115.838-81.3035 119.32-81.3035C125.314-81.3035 129.728-85.5824 129.728-91.8277C129.728-94.634 128.387-97.6053 126.214-99.6238L99.1565-125.083C97.104-127.04 94.187-128.419 90.8611-128.419C87.534-128.419 84.6378-127.04 82.5866-125.083L55.5287-99.6238C53.3362-97.6053 51.9944-94.634 51.9944-91.8277C51.9944-85.5824 56.4289-81.3035 62.4018-81.3035C65.9053-81.3035 68.2574-82.7169 70.1514-84.9834L80.2849-96.6401L79.5944-87.3833L79.5944-64.9592C79.5944-57.8337 84.0861-53.1292 90.8611-53.1292ZM16.084-36.6144C16.084-30.6595 20.8106-25.8733 26.8251-25.8733L154.938-25.8733C160.931-25.8733 165.637-30.6595 165.637-36.6144C165.637-42.5693 160.931-47.3763 154.938-47.3763L26.8251-47.3763C20.8106-47.3763 16.084-42.5693 16.084-36.6144ZM90.8611-20.1204C84.0861-20.1204 79.5944-15.395 79.5944-8.27077L79.5944 14.1326L80.2849 23.4101L70.1514 11.7338C68.2574 9.46737 65.9053 8.05393 62.4018 8.05393C56.4289 8.05393 51.9944 12.3537 51.9944 18.599C51.9944 21.3832 53.3362 24.3558 55.5287 26.3951L82.5866 51.8544C84.6378 53.8109 87.534 55.1687 90.8611 55.1687C94.187 55.1687 97.104 53.8109 99.1565 51.8544L126.214 26.3951C128.387 24.3558 129.728 21.3832 129.728 18.599C129.728 12.3537 125.314 8.05393 119.32 8.05393C115.838 8.05393 113.486 9.46737 111.571 11.7338L101.436 23.4101L102.148 14.1326L102.148-8.27077C102.148-15.395 97.6349-20.1204 90.8611-20.1204Z"/>
  </g>
  <g id="Heavy-L" transform="matrix(1 0 0 1 2549.71 1556)">
   <path d="M86.9814-52.0462C92.8794-52.0462 96.8455-56.1304 96.8455-62.3018L96.8455-85.9326L96.2069-96.0837L107.98-82.905C109.69-80.9214 111.806-79.7418 114.799-79.7418C120.087-79.7418 123.954-83.5293 123.954-88.9854C123.954-91.4905 122.792-94.0555 120.856-95.8875L94.2559-121.276C92.4263-123.047 89.86-124.258 86.9814-124.258C84.0971-124.258 81.5611-123.047 79.737-121.276L53.137-95.8875C51.1767-94.0555 50.0091-91.4905 50.0091-88.9854C50.0091-83.5293 53.9059-79.7418 59.1635-79.7418C62.1872-79.7418 64.3027-80.9214 65.9828-82.905L77.7503-96.0837L77.1419-85.9326L77.1419-62.3018C77.1419-56.1304 81.0777-52.0462 86.9814-52.0462ZM16.084-36.572C16.084-31.3042 20.2039-27.1341 25.5219-27.1341L148.496-27.1341C153.783-27.1341 157.873-31.3042 157.873-36.572C157.873-41.8397 153.783-46.04 148.496-46.04L25.5219-46.04C20.2039-46.04 16.084-41.8397 16.084-36.572ZM86.9814-21.1278C81.0777-21.1278 77.1419-17.0135 77.1419-10.8477L77.1419 12.7529L77.7503 22.9341L65.9828 9.73089C64.3027 7.74733 62.1872 6.56769 59.1635 6.56769C53.9059 6.56769 50.0091 10.3854 50.0091 15.8415C50.0091 18.3108 51.1767 20.8814 53.137 22.7436L79.737 48.1322C81.5611 49.9027 84.0971 51.0781 86.9814 51.0781C89.86 51.0781 92.4263 49.9027 94.2559 48.1322L120.856 22.7436C122.792 20.8814 123.954 18.3108 123.954 15.8415C123.954 10.3854 120.087 6.56769 114.799 6.56769C111.806 6.56769 109.69 7.74733 107.98 9.73089L96.2069 22.9341L96.8455 12.7529L96.8455-10.8477C96.8455-17.0135 92.8794-21.1278 86.9814-21.1278Z"/>
  </g>
  <g id="Bold-L" transform="matrix(1 0 0 1 2257.52 1556)">
   <path d="M82.462-50.8134C87.284-50.8134 90.5664-54.1366 90.5664-59.1471L90.5664-84.4997L90.02-95.6754L103.792-80.6737C105.241-79.036 107.057-78.1259 109.466-78.1259C113.87-78.1259 117.061-81.2915 117.061-85.7791C117.061-87.9153 116.107-89.9881 114.463-91.5822L88.4688-116.782C86.9232-118.307 84.7948-119.311 82.462-119.311C80.116-119.311 78.0256-118.307 76.4932-116.782L50.499-91.5822C48.8305-89.9881 47.8632-87.9153 47.8632-85.7791C47.8632-81.2915 51.0916-78.1259 55.458-78.1259C57.9049-78.1259 59.721-79.036 61.1322-80.6737L74.8908-95.6754L74.3824-84.4997L74.3824-59.1471C74.3824-54.1366 77.6267-50.8134 82.462-50.8134ZM16.084-36.5406C16.084-32.1406 19.4584-28.7238 23.9008-28.7238L141.086-28.7238C145.49-28.7238 148.827-32.1406 148.827-36.5406C148.827-40.9405 145.49-44.3953 141.086-44.3953L23.9008-44.3953C19.4584-44.3953 16.084-40.9405 16.084-36.5406ZM82.462-22.3057C77.6267-22.3057 74.3824-18.9445 74.3824-13.9472L74.3824 11.3674L74.8908 22.581L61.1322 7.55455C59.721 5.9169 57.9049 5.00682 55.458 5.00682C51.0916 5.00682 47.8632 8.21036 47.8632 12.698C47.8632 14.7829 48.8305 16.869 50.499 18.5011L76.4932 43.7006C78.0256 45.2258 80.116 46.1782 82.462 46.1782C84.7948 46.1782 86.9232 45.2258 88.4688 43.7006L114.463 18.5011C116.107 16.869 117.061 14.7829 117.061 12.698C117.061 8.21036 113.87 5.00682 109.466 5.00682C107.057 5.00682 105.241 5.9169 103.792 7.55455L90.02 22.581L90.5664 11.3674L90.5664-13.9472C90.5664-18.9445 87.284-22.3057 82.462-22.3057Z"/>
  </g>
  <g id="Semibold-L" transform="matrix(1 0 0 1 1963.93 1556)">
   <path d="M79.3464-49.9635C83.4266-49.9635 86.2376-52.7622 86.2376-56.9723L86.2376-83.5119L85.7547-95.3939L100.905-79.1354C102.174-77.7362 103.783-77.012 105.789-77.012C109.585-77.012 112.309-79.7487 112.309-83.5687C112.309-85.4505 111.498-87.1841 110.056-88.6141L84.4792-113.683C83.1294-115.039 81.3029-115.9 79.3464-115.9C77.3714-115.9 75.5882-115.039 74.2569-113.683L48.6804-88.6141C47.2131-87.1841 46.3839-85.4505 46.3839-83.5687C46.3839-79.7487 49.1514-77.012 52.9035-77.012C54.9527-77.012 56.5623-77.7362 57.7882-79.1354L72.9195-95.3939L72.48-83.5119L72.48-56.9723C72.48-52.7622 75.2477-49.9635 79.3464-49.9635ZM16.084-36.5189C16.084-32.7172 18.9444-29.8197 22.7832-29.8197L135.978-29.8197C139.773-29.8197 142.59-32.7172 142.59-36.5189C142.59-40.3206 139.773-43.2615 135.978-43.2615L22.7832-43.2615C18.9444-43.2615 16.084-40.3206 16.084-36.5189ZM79.3464-23.1176C75.2477-23.1176 72.48-20.2757 72.48-16.084L72.48 10.4122L72.9195 22.3376L57.7882 6.05419C56.5623 4.65502 54.9527 3.93077 52.9035 3.93077C49.1514 3.93077 46.3839 6.71089 46.3839 10.5309C46.3839 12.3508 47.2131 14.1029 48.6804 15.5763L74.2569 40.6456C75.5882 42.0015 77.3714 42.8003 79.3464 42.8003C81.3029 42.8003 83.1294 42.0015 84.4792 40.6456L110.056 15.5763C111.498 14.1029 112.309 12.3508 112.309 10.5309C112.309 6.71089 109.585 3.93077 105.789 3.93077C103.783 3.93077 102.174 4.65502 100.905 6.05419L85.7547 22.3376L86.2376 10.4122L86.2376-16.084C86.2376-20.2757 83.4266-23.1176 79.3464-23.1176Z"/>
  </g>
  <g id="Medium-L" transform="matrix(1 0 0 1 1669.58 1556)">
   <path d="M76.984-49.3191C80.5017-49.3191 82.9554-51.72 82.9554-55.3233L82.9554-82.7629L82.5207-95.1804L98.7153-77.969C99.8481-76.7507 101.301-76.1673 103.001-76.1673C106.335-76.1673 108.706-78.5789 108.706-81.8927C108.706-83.5816 108.004-85.058 106.714-86.3636L81.4541-111.334C80.2528-112.562 78.6552-113.314 76.984-113.314C75.2903-113.314 73.7401-112.562 72.5613-111.334L47.3014-86.3636C45.9867-85.058 45.2621-83.5816 45.2621-81.8927C45.2621-78.5789 47.6803-76.1673 50.9665-76.1673C52.7142-76.1673 54.1673-76.7507 55.2526-77.969L71.4248-95.1804L71.0375-82.7629L71.0375-55.3233C71.0375-51.72 73.4438-49.3191 76.984-49.3191ZM16.084-36.5025C16.084-33.1544 18.5547-30.6507 21.9358-30.6507L132.105-30.6507C135.438-30.6507 137.861-33.1544 137.861-36.5025C137.861-39.8506 135.438-42.4018 132.105-42.4018L21.9358-42.4018C18.5547-42.4018 16.084-39.8506 16.084-36.5025ZM76.984-23.7333C73.4438-23.7333 71.0375-21.285 71.0375-17.7042L71.0375 9.68799L71.4248 22.153L55.2526 4.91655C54.1673 3.6982 52.7142 3.11486 50.9665 3.11486C47.6803 3.11486 45.2621 5.57394 45.2621 8.88771C45.2621 10.5067 45.9867 12.0055 47.3014 13.3586L72.5613 38.3291C73.7401 39.5568 75.2903 40.239 76.984 40.239C78.6552 40.239 80.2528 39.5568 81.4541 38.3291L106.714 13.3586C108.004 12.0055 108.706 10.5067 108.706 8.88771C108.706 5.57394 106.335 3.11486 103.001 3.11486C101.301 3.11486 99.8481 3.6982 98.7153 4.91655L82.5207 22.153L82.9554 9.68799L82.9554-17.7042C82.9554-21.285 80.5017-23.7333 76.984-23.7333Z"/>
  </g>
  <g id="Regular-L" transform="matrix(1 0 0 1 1375.96 1556)">
   <path d="M73.9026-48.4786C76.6867-48.4786 78.6742-50.3606 78.6742-53.1723L78.6742-81.786L78.3023-94.9021L95.8598-76.4476C96.8146-75.4652 98.0635-75.0656 99.3651-75.0656C102.096-75.0656 104.006-77.0531 104.006-79.7066C104.006-81.144 103.446-82.2848 102.355-83.4281L77.5083-108.27C76.5007-109.33 75.2016-109.941 73.9026-109.941C72.5758-109.941 71.3295-109.33 70.3496-108.27L45.5028-83.4281C44.3871-82.2848 43.799-81.144 43.799-79.7066C43.799-77.0531 45.7615-75.0656 48.4401-75.0656C49.7944-75.0656 51.0433-75.4652 51.9454-76.4476L69.4752-94.9021L69.156-81.786L69.156-53.1723C69.156-50.3606 71.0908-48.4786 73.9026-48.4786ZM16.084-36.4811C16.084-33.7247 18.0464-31.7346 20.8305-31.7346L127.052-31.7346C129.784-31.7346 131.693-33.7247 131.693-36.4811C131.693-39.2375 129.784-41.2804 127.052-41.2804L20.8305-41.2804C18.0464-41.2804 16.084-39.2375 16.084-36.4811ZM73.9026-24.5364C71.0908-24.5364 69.156-22.6016 69.156-19.8175L69.156 8.74334L69.4752 21.9122L51.9454 3.43268C51.0433 2.45019 49.7944 2.05064 48.4401 2.05064C45.7615 2.05064 43.799 4.09095 43.799 6.74441C43.799 8.10135 44.3871 9.26979 45.5028 10.4659L70.3496 35.3076C71.3295 36.368 72.5758 36.8981 73.9026 36.8981C75.2016 36.8981 76.5007 36.368 77.5083 35.3076L102.355 10.4659C103.446 9.26979 104.006 8.10135 104.006 6.74441C104.006 4.09095 102.096 2.05064 99.3651 2.05064C98.0635 2.05064 96.8146 2.45019 95.8598 3.43268L78.3023 21.9122L78.6742 8.74334L78.6742-19.8175C78.6742-22.6016 76.6867-24.5364 73.9026-24.5364Z"/>
  </g>
  <g id="Light-L" transform="matrix(1 0 0 1 1080.53 1556)">
   <path d="M72.6239-48.3259C74.7209-48.3259 76.1931-49.7308 76.1931-51.8746L76.1931-83.141L75.8976-96.4289L94.6383-77.1156C95.3641-76.3431 96.3649-76.0008 97.3993-76.0008C99.4626-76.0008 100.914-77.473 100.914-79.5158C100.914-80.7241 100.411-81.5977 99.5114-82.5311L75.3326-106.59C74.5731-107.383 73.5985-107.86 72.6239-107.86C71.6025-107.86 70.6615-107.383 69.9488-106.59L45.77-82.5311C44.8833-81.5977 44.3334-80.7241 44.3334-79.5158C44.3334-77.473 45.8187-76.0008 47.8484-76.0008C48.9165-76.0008 49.9173-76.3431 50.6094-77.1156L69.3034-96.4289L69.0415-83.141L69.0415-51.8746C69.0415-49.7308 70.4801-48.3259 72.6239-48.3259ZM16.084-36.5956C16.084-34.5453 17.5693-33.0133 19.6663-33.0133L125.602-33.0133C127.665-33.0133 129.117-34.5453 129.117-36.5956C129.117-38.6459 127.665-40.2116 125.602-40.2116L19.6663-40.2116C17.5693-40.2116 16.084-38.6459 16.084-36.5956ZM72.6239-24.899C70.4801-24.899 69.0415-23.4604 69.0415-21.3634L69.0415 9.86937L69.3034 23.1909L50.6094 3.89073C49.9173 3.11817 48.9165 2.77588 47.8484 2.77588C45.8187 2.77588 44.3334 4.2818 44.3334 6.32453C44.3334 7.45245 44.8833 8.37278 45.77 9.33986L69.9488 33.3991C70.6615 34.1922 71.6025 34.5888 72.6239 34.5888C73.5985 34.5888 74.5731 34.1922 75.3326 33.3991L99.5114 9.33986C100.411 8.37278 100.914 7.45245 100.914 6.32453C100.914 4.2818 99.4626 2.77588 97.3993 2.77588C96.3649 2.77588 95.3641 3.11817 94.6383 3.89073L75.8976 23.1909L76.1931 9.86937L76.1931-21.3634C76.1931-23.4604 74.7209-24.899 72.6239-24.899Z"/>
  </g>
  <g id="Thin-L" transform="matrix(1 0 0 1 785.526 1556)">
   <path d="M70.9327-48.124C72.121-48.124 72.9117-48.8978 72.9117-50.1581L72.9117-84.9332L72.7171-98.4482L93.0228-77.9991C93.4457-77.5042 94.1183-77.2376 94.7994-77.2376C95.9793-77.2376 96.8251-78.0283 96.8251-79.2633C96.8251-80.1688 96.3977-80.689 95.7504-81.3447L72.455-104.369C72.0237-104.809 71.4782-105.109 70.9327-105.109C70.3152-105.109 69.7781-104.809 69.4187-104.369L46.1233-81.3447C45.5396-80.689 45.0402-80.1688 45.0402-79.2633C45.0402-78.0283 45.8945-77.2376 47.0659-77.2376C47.7554-77.2376 48.428-77.5042 48.8425-77.9991L69.0762-98.4482L68.8901-84.9332L68.8901-50.1581C68.8901-48.8978 69.6723-48.124 70.9327-48.124ZM16.084-36.7471C16.084-35.6307 16.9382-34.7045 18.1266-34.7045L123.684-34.7045C124.864-34.7045 125.709-35.6307 125.709-36.7471C125.709-37.8634 124.864-38.7981 123.684-38.7981L18.1266-38.7981C16.9382-38.7981 16.084-37.8634 16.084-36.7471ZM70.9327-25.3786C69.6723-25.3786 68.8901-24.5963 68.8901-23.408L68.8901 11.3586L69.0762 24.8821L48.8425 4.49653C48.428 4.00163 47.7554 3.73507 47.0659 3.73507C45.8945 3.73507 45.0402 4.53422 45.0402 5.76921C45.0402 6.59423 45.5396 7.18642 46.1233 7.85059L69.4187 30.8749C69.7781 31.3147 70.3152 31.5346 70.9327 31.5346C71.4782 31.5346 72.0237 31.3147 72.455 30.8749L95.7504 7.85059C96.3977 7.18642 96.8251 6.59423 96.8251 5.76921C96.8251 4.53422 95.9793 3.73507 94.7994 3.73507C94.1183 3.73507 93.4457 4.00163 93.0228 4.49653L72.7171 24.8821L72.9117 11.3586L72.9117-23.408C72.9117-24.5963 72.121-25.3786 70.9327-25.3786Z"/>
  </g>
  <g id="Ultralight-L" transform="matrix(1 0 0 1 489.687 1556)">
   <path d="M70.0664-48.0205C70.7893-48.0205 71.231-48.4712 71.231-49.279L71.231-85.8511L71.0881-99.4825L92.1954-78.4516C92.4632-78.0989 92.9677-77.8711 93.4677-77.8711C94.1951-77.8711 94.7306-78.3128 94.7306-79.1341C94.7306-79.8843 94.342-80.2235 93.824-80.7371L70.9812-103.231C70.7179-103.49 70.3922-103.7 70.0664-103.7C69.6558-103.7 69.3256-103.49 69.1472-103.231L46.3044-80.7371C45.8757-80.2235 45.4022-79.8843 45.4022-79.1341C45.4022-78.3128 45.9333-77.8711 46.6651-77.8711C47.1607-77.8711 47.6652-78.0989 47.9375-78.4516L68.9599-99.4825L68.8125-85.8511L68.8125-49.279C68.8125-48.4712 69.2586-48.0205 70.0664-48.0205ZM16.084-36.8246C16.084-36.1867 16.615-35.5707 17.3379-35.5707L122.701-35.5707C123.428-35.5707 123.964-36.1867 123.964-36.8246C123.964-37.4626 123.428-38.0741 122.701-38.0741L17.3379-38.0741C16.615-38.0741 16.084-37.4626 16.084-36.8246ZM70.0664-25.6243C69.2586-25.6243 68.8125-25.1781 68.8125-24.4552L68.8125 12.1214L68.9599 25.7483L47.9375 4.80682C47.6652 4.45414 47.1607 4.22636 46.6651 4.22636C45.9333 4.22636 45.4022 4.6635 45.4022 5.48478C45.4022 6.15465 45.8757 6.57877 46.3044 7.08779L69.1472 29.582C69.3256 29.8408 69.6558 29.9702 70.0664 29.9702C70.3922 29.9702 70.7179 29.8408 70.9812 29.582L93.824 7.08779C94.342 6.57877 94.7306 6.15465 94.7306 5.48478C94.7306 4.6635 94.1951 4.22636 93.4677 4.22636C92.9677 4.22636 92.4632 4.45414 92.1954 4.80682L71.0881 25.7483L71.231 12.1214L71.231-24.4552C71.231-25.1781 70.7893-25.6243 70.0664-25.6243Z"/>
  </g>
  <g id="Black-M" transform="matrix(1 0 0 1 2859.84 1126)">
   <path d="M73.555-50.0071C79.4626-50.0071 83.3585-54.1205 83.3585-60.3703L83.3585-77.0657L82.7552-83.4919L89.3591-75.6527C90.9875-73.6821 92.9795-72.3938 96.0618-72.3938C101.222-72.3938 105.049-76.0614 105.049-81.4954C105.049-83.8973 103.865-86.5124 102.003-88.208L80.7376-107.887C78.9896-109.527 76.4721-110.723 73.555-110.723C70.6382-110.723 68.1262-109.527 66.3779-107.887L45.1121-88.208C43.245-86.5124 42.0608-83.8973 42.0608-81.4954C42.0608-76.0614 45.8939-72.3938 51.0482-72.3938C54.1361-72.3938 56.1281-73.6821 57.7509-75.6527L64.3552-83.4919L63.7573-77.0657L63.7573-60.3703C63.7573-54.1205 67.6478-50.0071 73.555-50.0071ZM12.4609-36.3544C12.4609-31.2459 16.5795-27.0705 21.7448-27.0705L125.377-27.0705C130.536-27.0705 134.649-31.2459 134.649-36.3544C134.649-41.4628 130.536-45.6437 125.377-45.6437L21.7448-45.6437C16.5795-45.6437 12.4609-41.4628 12.4609-36.3544ZM73.555-22.7072C67.6478-22.7072 63.7573-18.5883 63.7573-12.3382L63.7573 4.35169L64.3552 10.7834L57.7509 2.93842C56.1281 0.967795 54.1361-0.320424 51.0482-0.320424C45.8939-0.320424 42.0608 3.35267 42.0608 8.78666C42.0608 11.1833 43.245 13.7982 45.1121 15.4992L66.3779 35.1785C68.1262 36.8178 70.6382 38.0086 73.555 38.0086C76.4721 38.0086 78.9896 36.8178 80.7376 35.1785L102.003 15.4992C103.865 13.7982 105.049 11.1833 105.049 8.78666C105.049 3.35267 101.222-0.320424 96.0618-0.320424C92.9795-0.320424 90.9875 0.967795 89.3591 2.93842L82.7552 10.7834L83.3585 4.35169L83.3585-12.3382C83.3585-18.5883 79.4626-22.7072 73.555-22.7072Z"/>
  </g>
  <g id="Heavy-M" transform="matrix(1 0 0 1 2566.81 1126)">
   <path d="M69.8803-48.9626C74.9951-48.9626 78.4043-52.5135 78.4043-57.8923L78.4043-75.5224L77.8651-82.8071L85.9616-73.5593C87.411-71.8458 89.1946-70.7809 91.8234-70.7809C96.3547-70.7809 99.6898-74.0156 99.6898-78.7345C99.6898-80.8631 98.6747-83.1056 97.0276-84.6383L76.1477-104.321C74.5946-105.803 72.3901-106.846 69.8803-106.846C67.3682-106.846 65.1801-105.803 63.6293-104.321L42.7494-84.6383C41.0881-83.1056 40.0708-80.8631 40.0708-78.7345C40.0708-74.0156 43.4223-70.7809 47.9371-70.7809C50.5824-70.7809 52.366-71.8458 53.799-73.5593L61.8932-82.8071L61.3704-75.5224L61.3704-57.8923C61.3704-52.5135 64.7632-48.9626 69.8803-48.9626ZM12.4609-36.3024C12.4609-31.8005 16.0305-28.1851 20.5782-28.1851L119.213-28.1851C123.744-28.1851 127.297-31.8005 127.297-36.3024C127.297-40.8042 123.744-44.4361 119.213-44.4361L20.5782-44.4361C16.0305-44.4361 12.4609-40.8042 12.4609-36.3024ZM69.8803-23.6585C64.7632-23.6585 61.3704-20.0912 61.3704-14.7147L61.3704 2.89905L61.8932 10.2001L53.799 0.938151C52.366-0.77528 50.5824-1.84023 47.9371-1.84023C43.4223-1.84023 40.0708 1.41093 40.0708 6.12979C40.0708 8.23971 41.0881 10.4845 42.7494 12.0336L63.6293 31.7158C65.1801 33.198 67.3682 34.2227 69.8803 34.2227C72.3901 34.2227 74.5946 33.198 76.1477 31.7158L97.0276 12.0336C98.6747 10.4845 99.6898 8.23971 99.6898 6.12979C99.6898 1.41093 96.3547-1.84023 91.8234-1.84023C89.1946-1.84023 87.411-0.77528 85.9616 0.938151L77.8651 10.2001L78.4043 2.89905L78.4043-14.7147C78.4043-20.0912 74.9951-23.6585 69.8803-23.6585Z"/>
  </g>
  <g id="Bold-M" transform="matrix(1 0 0 1 2274.21 1126)">
   <path d="M65.7696-47.7941C69.9976-47.7941 72.8623-50.7158 72.8623-55.1202L72.8623-73.7961L72.3948-82.0411L82.1609-71.2175C83.4102-69.7918 84.9607-68.9766 87.0822-68.9766C90.9104-68.9766 93.6945-71.7271 93.6945-75.646C93.6945-77.469 92.8689-79.2946 91.4614-80.6451L71.0132-100.331C69.6782-101.637 67.8238-102.51 65.7696-102.51C63.7102-102.51 61.8844-101.637 60.5546-100.331L40.1064-80.6451C38.6754-79.2946 37.8446-77.469 37.8446-75.646C37.8446-71.7271 40.6573-68.9766 44.457-68.9766C46.6071-68.9766 48.1576-69.7918 49.3783-71.2175L59.1392-82.0411L58.7003-73.7961L58.7003-55.1202C58.7003-50.7158 61.5364-47.7941 65.7696-47.7941ZM12.4609-36.2442C12.4609-32.421 15.4164-29.4318 19.2733-29.4318L112.318-29.4318C116.146-29.4318 119.073-32.421 119.073-36.2442C119.073-40.0673 116.146-43.0851 112.318-43.0851L19.2733-43.0851C15.4164-43.0851 12.4609-40.0673 12.4609-36.2442ZM65.7696-24.7228C61.5364-24.7228 58.7003-21.7725 58.7003-17.3732L58.7003 1.27406L59.1392 9.54766L49.3783-1.29944C48.1576-2.72516 46.6071-3.54036 44.457-3.54036C40.6573-3.54036 37.8446-0.761193 37.8446 3.15769C37.8446 4.9469 38.6754 6.77765 40.1064 8.15676L60.5546 27.8423C61.8844 29.1488 63.7102 29.9877 65.7696 29.9877C67.8238 29.9877 69.6782 29.1488 71.0132 27.8423L91.4614 8.15676C92.8689 6.77765 93.6945 4.9469 93.6945 3.15769C93.6945-0.761193 90.9104-3.54036 87.0822-3.54036C84.9607-3.54036 83.4102-2.72516 82.1609-1.29944L72.3948 9.54766L72.8623 1.27406L72.8623-17.3732C72.8623-21.7725 69.9976-24.7228 65.7696-24.7228Z"/>
  </g>
  <g id="Semibold-M" transform="matrix(1 0 0 1 1980.33 1126)">
   <path d="M62.9357-46.9886C66.5523-46.9886 69.0417-49.4765 69.0417-53.2092L69.0417-72.606L68.6236-81.513L79.5407-69.6031C80.652-68.3757 82.0418-67.7327 83.8136-67.7327C87.1571-67.7327 89.5614-70.1494 89.5614-73.5168C89.5614-75.129 88.8664-76.6673 87.6241-77.8922L67.4735-97.58C66.2888-98.7654 64.6758-99.5203 62.9357-99.5203C61.1884-99.5203 59.6124-98.7654 58.4348-97.58L38.2843-77.8922C37.012-76.6673 36.3099-75.129 36.3099-73.5168C36.3099-70.1494 38.7512-67.7327 42.0577-67.7327C43.8666-67.7327 45.2563-68.3757 46.3306-69.6031L57.2406-81.513L56.8596-72.606L56.8596-53.2092C56.8596-49.4765 59.3119-46.9886 62.9357-46.9886ZM12.4609-36.204C12.4609-32.8487 14.993-30.2914 18.3736-30.2914L107.565-30.2914C110.908-30.2914 113.403-32.8487 113.403-36.204C113.403-39.5594 110.908-42.1537 107.565-42.1537L18.3736-42.1537C14.993-42.1537 12.4609-39.5594 12.4609-36.204ZM62.9357-25.4565C59.3119-25.4565 56.8596-22.9316 56.8596-19.206L56.8596 0.153808L57.2406 9.09784L46.3306-2.84202C45.2563-4.0694 43.8666-4.71241 42.0577-4.71241C38.7512-4.71241 36.3099-2.25864 36.3099 1.10874C36.3099 2.67685 37.012 4.22218 38.2843 5.48411L58.4348 25.1719C59.6124 26.3573 61.1884 27.0681 62.9357 27.0681C64.6758 27.0681 66.2888 26.3573 67.4735 25.1719L87.6241 5.48411C88.8664 4.22218 89.5614 2.67685 89.5614 1.10874C89.5614-2.25864 87.1571-4.71241 83.8136-4.71241C82.0418-4.71241 80.652-4.0694 79.5407-2.84202L68.6236 9.09784L69.0417 0.153808L69.0417-19.206C69.0417-22.9316 66.5523-25.4565 62.9357-25.4565Z"/>
  </g>
  <g id="Medium-M" transform="matrix(1 0 0 1 1685.77 1126)">
   <path d="M60.7869-46.3778C63.94-46.3778 66.1447-48.5368 66.1447-51.7602L66.1447-71.7036L65.7642-81.1126L77.554-68.3789C78.5607-67.302 79.8286-66.7895 81.3352-66.7895C84.3113-66.7895 86.4275-68.9531 86.4275-71.9023C86.4275-73.3548 85.8315-74.6751 84.7144-75.8048L64.7896-95.4943C63.7189-96.5879 62.2888-97.2535 60.7869-97.2535C59.2763-97.2535 57.8897-96.5879 56.8276-95.4943L36.9027-75.8048C35.7508-74.6751 35.1463-73.3548 35.1463-71.9023C35.1463-68.9531 37.3059-66.7895 40.2385-66.7895C41.7886-66.7895 43.0564-67.302 44.0197-68.3789L55.801-81.1126L55.4638-71.7036L55.4638-51.7602C55.4638-48.5368 57.6252-46.3778 60.7869-46.3778ZM12.4609-36.1736C12.4609-33.173 14.672-30.9431 17.6915-30.9431L103.961-30.9431C106.937-30.9431 109.104-33.173 109.104-36.1736C109.104-39.1742 106.937-41.4475 103.961-41.4475L17.6915-41.4475C14.672-41.4475 12.4609-39.1742 12.4609-36.1736ZM60.7869-26.0128C57.6252-26.0128 55.4638-23.8104 55.4638-20.5956L55.4638-0.695617L55.801 8.75677L44.0197-4.01167C43.0564-5.08865 41.7886-5.60112 40.2385-5.60112C37.3059-5.60112 35.1463-3.39407 35.1463-0.444853C35.1463 0.955605 35.7508 2.28452 36.9027 3.45759L56.8276 23.1471C57.8897 24.2407 59.2763 24.8543 60.7869 24.8543C62.2888 24.8543 63.7189 24.2407 64.7896 23.1471L84.7144 3.45759C85.8315 2.28452 86.4275 0.955605 86.4275-0.444853C86.4275-3.39407 84.3113-5.60112 81.3352-5.60112C79.8286-5.60112 78.5607-5.08865 77.554-4.01167L65.7642 8.75677L66.1447-0.695617L66.1447-20.5956C66.1447-23.8104 63.94-26.0128 60.7869-26.0128Z"/>
  </g>
  <g id="Regular-M" transform="matrix(1 0 0 1 1391.87 1126)">
   <path d="M57.9841-45.5811C60.5326-45.5811 62.3661-47.3111 62.3661-49.8701L62.3661-70.5266L62.0344-80.5903L74.9626-66.7823C75.8329-65.9015 76.9418-65.5593 78.1025-65.5593C80.5992-65.5593 82.3398-67.3928 82.3398-69.7965C82.3398-71.0406 81.873-72.0767 80.9193-73.0821L61.2888-92.774C60.3668-93.7477 59.1754-94.2969 57.9841-94.2969C56.7822-94.2969 55.6426-93.7477 54.7312-92.774L35.1006-73.0821C34.1058-72.0767 33.6284-71.0406 33.6284-69.7965C33.6284-67.3928 35.4207-65.5593 37.8657-65.5593C39.0781-65.5593 40.1871-65.9015 41.0056-66.7823L53.9232-80.5903L53.6433-70.5266L53.6433-49.8701C53.6433-47.3111 55.4251-45.5811 57.9841-45.5811ZM12.4609-36.1339C12.4609-33.596 14.2532-31.7931 16.8017-31.7931L99.2594-31.7931C101.756-31.7931 103.497-33.596 103.497-36.1339C103.497-38.6718 101.756-40.5264 99.2594-40.5264L16.8017-40.5264C14.2532-40.5264 12.4609-38.6718 12.4609-36.1339ZM57.9841-26.7385C55.4251-26.7385 53.6433-24.9567 53.6433-22.4082L53.6433-1.80356L53.9232 8.3119L41.0056-5.5373C40.1871-6.41812 39.0781-6.76029 37.8657-6.76029C35.4207-6.76029 33.6284-4.87506 33.6284-2.47128C33.6284-1.2895 34.1058-0.242871 35.1006 0.814305L54.7312 20.5061C55.6426 21.4799 56.7822 21.9668 57.9841 21.9668C59.1754 21.9668 60.3668 21.4799 61.2888 20.5061L80.9193 0.814305C81.873-0.242871 82.3398-1.2895 82.3398-2.47128C82.3398-4.87506 80.5992-6.76029 78.1025-6.76029C76.9418-6.76029 75.8329-6.41812 74.9626-5.5373L62.0344 8.3119L62.3661-1.80356L62.3661-22.4082C62.3661-24.9567 60.5326-26.7385 57.9841-26.7385Z"/>
  </g>
  <g id="Light-M" transform="matrix(1 0 0 1 1096.31 1126)">
   <path d="M56.8377-45.4442C58.7702-45.4442 60.1416-46.7464 60.1416-48.7066L60.1416-71.7414L59.8785-81.9591L73.8675-67.3812C74.5325-66.6886 75.4189-66.3977 76.3401-66.3977C78.2379-66.3977 79.5678-67.7692 79.5678-69.6254C79.5678-70.6642 79.1523-71.4607 78.3698-72.2779L59.3381-91.2682C58.6386-92.0024 57.7381-92.4318 56.8377-92.4318C55.9096-92.4318 55.0437-92.0024 54.3718-91.2682L35.3402-72.2779C34.5507-71.4607 34.1075-70.6642 34.1075-69.6254C34.1075-67.7692 35.472-66.3977 37.3353-66.3977C38.291-66.3977 39.1775-66.6886 39.8078-67.3812L53.7692-81.9591L53.5407-71.7414L53.5407-48.7066C53.5407-46.7464 54.8775-45.4442 56.8377-45.4442ZM12.4609-36.2366C12.4609-34.3318 13.8254-32.9396 15.7579-32.9396L97.959-32.9396C99.8569-32.9396 101.187-34.3318 101.187-36.2366C101.187-38.1414 99.8569-39.5682 97.959-39.5682L15.7579-39.5682C13.8254-39.5682 12.4609-38.1414 12.4609-36.2366ZM56.8377-27.0636C54.8775-27.0636 53.5407-25.7267 53.5407-23.7942L53.5407-0.794018L53.7692 9.45833L39.8078-5.12664C39.1775-5.81923 38.291-6.11008 37.3353-6.11008C35.472-6.11008 34.1075-4.70395 34.1075-2.84772C34.1075-1.87127 34.5507-1.04709 35.3402-0.19524L54.3718 18.795C55.0437 19.5292 55.9096 19.8964 56.8377 19.8964C57.7381 19.8964 58.6386 19.5292 59.3381 18.795L78.3698-0.19524C79.1523-1.04709 79.5678-1.87127 79.5678-2.84772C79.5678-4.70395 78.2379-6.11008 76.3401-6.11008C75.4189-6.11008 74.5325-5.81923 73.8675-5.12664L59.8785 9.45833L60.1416-0.794018L60.1416-23.7942C60.1416-25.7267 58.7702-27.0636 56.8377-27.0636Z"/>
  </g>
  <g id="Thin-M" transform="matrix(1 0 0 1 801.126 1126)">
   <path d="M55.3214-45.2632C56.4392-45.2632 57.1997-45.9996 57.1997-47.1677L57.1997-73.3482L57.027-83.7696L72.4192-68.1732C72.8125-67.7296 73.4048-67.5066 74.0091-67.5066C75.1149-67.5066 75.9016-68.2671 75.9016-69.3991C75.9016-70.1663 75.5541-70.646 74.9978-71.2143L56.7582-89.2767C56.3529-89.6941 55.8371-89.9651 55.3214-89.9651C54.7554-89.9651 54.2517-89.6941 53.8966-89.2767L35.657-71.2143C35.1391-70.646 34.7412-70.1663 34.7412-69.3991C34.7412-68.2671 35.5399-67.5066 36.6337-67.5066C37.25-67.5066 37.8423-67.7296 38.2237-68.1732L53.5655-83.7696L53.4049-73.3482L53.4049-47.1677C53.4049-45.9996 54.1533-45.2632 55.3214-45.2632ZM12.4609-36.3724C12.4609-35.3049 13.2597-34.4558 14.3775-34.4558L96.2391-34.4558C97.3449-34.4558 98.1316-35.3049 98.1316-36.3724C98.1316-37.4399 97.3449-38.3009 96.2391-38.3009L14.3775-38.3009C13.2597-38.3009 12.4609-37.4399 12.4609-36.3724ZM55.3214-27.4935C54.1533-27.4935 53.4049-26.7451 53.4049-25.6273L53.4049 0.541188L53.5655 10.9746L38.2237-4.58351C37.8423-5.02716 37.25-5.25011 36.6337-5.25011C35.5399-5.25011 34.7412-4.47764 34.7412-3.3456C34.7412-2.64071 35.1391-2.11072 35.657-1.53045L53.8966 16.532C54.2517 16.9494 54.7554 17.1581 55.3214 17.1581C55.8371 17.1581 56.3529 16.9494 56.7582 16.532L74.9978-1.53045C75.5541-2.11072 75.9016-2.64071 75.9016-3.3456C75.9016-4.47764 75.1149-5.25011 74.0091-5.25011C73.4048-5.25011 72.8125-5.02716 72.4192-4.58351L57.027 10.9746L57.1997 0.541188L57.1997-25.6273C57.1997-26.7451 56.4392-27.4935 55.3214-27.4935Z"/>
  </g>
  <g id="Ultralight-M" transform="matrix(1 0 0 1 505.197 1126)">
   <path d="M54.5448-45.1705C55.2453-45.1705 55.6928-45.6171 55.6928-46.3795L55.6928-74.1712L55.5665-84.6969L71.6773-68.5789C71.9316-68.2628 72.3732-68.0746 72.8152-68.0746C73.5153-68.0746 74.0238-68.5221 74.0238-69.2832C74.0238-69.9113 73.7111-70.2287 73.2707-70.6695L55.4368-88.2567C55.1822-88.5118 54.8635-88.7016 54.5448-88.7016C54.1642-88.7016 53.846-88.5118 53.6532-88.2567L35.8193-70.6695C35.4404-70.2287 35.0658-69.9113 35.0658-69.2832C35.0658-68.5221 35.5747-68.0746 36.2744-68.0746C36.7168-68.0746 37.1584-68.2628 37.4123-68.5789L53.4612-84.6969L53.3353-74.1712L53.3353-46.3795C53.3353-45.6171 53.7824-45.1705 54.5448-45.1705ZM12.4609-36.4419C12.4609-35.8033 12.9699-35.2324 13.6704-35.2324L95.3582-35.2324C96.0582-35.2324 96.5668-35.8033 96.5668-36.4419C96.5668-37.0805 96.0582-37.6518 95.3582-37.6518L13.6704-37.6518C12.9699-37.6518 12.4609-37.0805 12.4609-36.4419ZM54.5448-27.7138C53.7824-27.7138 53.3353-27.2667 53.3353-26.5662L53.3353 1.22507L53.4612 11.7512L37.4123-4.30531C37.1584-4.62147 36.7168-4.80964 36.2744-4.80964C35.5747-4.80964 35.0658-4.36173 35.0658-3.6006C35.0658-3.03481 35.4404-2.65551 35.8193-2.21433L53.6532 15.3728C53.846 15.628 54.1642 15.7555 54.5448 15.7555C54.8635 15.7555 55.1822 15.628 55.4368 15.3728L73.2707-2.21433C73.7111-2.65551 74.0238-3.03481 74.0238-3.6006C74.0238-4.36173 73.5153-4.80964 72.8152-4.80964C72.3732-4.80964 71.9316-4.62147 71.6773-4.30531L55.5665 11.7512L55.6928 1.22507L55.6928-26.5662C55.6928-27.2667 55.2453-27.7138 54.5448-27.7138Z"/>
  </g>
  <g id="Black-S" transform="matrix(1 0 0 1 2874.71 696)">
   <path d="M58.6914-47.1191C63.5254-47.1191 66.6992-50.4883 66.6992-55.6152L66.6992-68.5547L66.2109-73.3398L70.9961-67.5781C72.3145-65.9668 73.9258-64.8926 76.4648-64.8926C80.6641-64.8926 83.7891-67.8711 83.7891-72.3145C83.7891-74.2676 82.8125-76.416 81.2988-77.7832L64.5508-93.1641C63.1348-94.4824 61.084-95.459 58.6914-95.459C56.2988-95.459 54.248-94.4824 52.832-93.1641L36.084-77.7832C34.5703-76.416 33.5938-74.2676 33.5938-72.3145C33.5938-67.8711 36.7188-64.8926 40.918-64.8926C43.457-64.8926 45.0684-65.9668 46.3867-67.5781L51.1719-73.3398L50.6836-68.5547L50.6836-55.6152C50.6836-50.4883 53.8574-47.1191 58.6914-47.1191ZM9.76562-36.1328C9.76562-31.9824 13.1348-28.5645 17.334-28.5645L100.049-28.5645C104.248-28.5645 107.617-31.9824 107.617-36.1328C107.617-40.2832 104.248-43.7012 100.049-43.7012L17.334-43.7012C13.1348-43.7012 9.76562-40.2832 9.76562-36.1328ZM58.6914-25.1465C53.8574-25.1465 50.6836-21.7773 50.6836-16.6504L50.6836-3.71094L51.1719 1.07422L46.3867-4.6875C45.0684-6.29883 43.457-7.37305 40.918-7.37305C36.7188-7.37305 33.5938-4.39453 33.5938 0.0488281C33.5938 2.00195 34.5703 4.15039 36.084 5.51758L52.832 20.8984C54.248 22.2168 56.2988 23.1934 58.6914 23.1934C61.084 23.1934 63.1348 22.2168 64.5508 20.8984L81.2988 5.51758C82.8125 4.15039 83.7891 2.00195 83.7891 0.0488281C83.7891-4.39453 80.6641-7.37305 76.4648-7.37305C73.9258-7.37305 72.3145-6.29883 70.9961-4.6875L66.2109 1.07422L66.6992-3.71094L66.6992-16.6504C66.6992-21.7773 63.5254-25.1465 58.6914-25.1465Z"/>
  </g>
  <g id="Heavy-S" transform="matrix(1 0 0 1 2580.99 696)">
   <path d="M55.695-46.2433C59.9298-46.2433 62.7463-49.186 62.7463-53.6446L62.7463-67.0796L62.3041-72.5792L68.2302-65.7112C69.4218-64.2957 70.8833-63.4059 73.0651-63.4059C76.8034-63.4059 79.5596-66.0733 79.5596-69.975C79.5596-71.7207 78.7213-73.581 77.369-74.8329L60.8745-90.306C59.5968-91.5206 57.7765-92.382 55.695-92.382C53.6136-92.382 51.8049-91.5206 50.5271-90.306L34.0326-74.8329C32.6688-73.581 31.8305-71.7207 31.8305-69.975C31.8305-66.0733 34.5982-63.4059 38.325-63.4059C40.5183-63.4059 41.9798-64.2957 43.1599-65.7112L49.0859-72.5792L48.6553-67.0796L48.6553-53.6446C48.6553-49.186 51.4603-46.2433 55.695-46.2433ZM9.76562-36.0752C9.76562-32.3627 12.7199-29.3712 16.4696-29.3712L94.9435-29.3712C98.6817-29.3712 101.624-32.3627 101.624-36.0752C101.624-39.7877 98.6817-42.7907 94.9435-42.7907L16.4696-42.7907C12.7199-42.7907 9.76562-39.7877 9.76562-36.0752ZM55.695-25.9186C51.4603-25.9186 48.6553-22.9644 48.6553-18.5058L48.6553-5.08235L49.0859 0.428849L43.1599-6.45074C41.9798-7.86616 40.5183-8.75598 38.325-8.75598C34.5982-8.75598 31.8305-6.0771 31.8305-2.17539C31.8305-0.441234 32.6688 1.41909 34.0326 2.68256L50.5271 18.1556C51.8049 19.3703 53.6136 20.22 55.695 20.22C57.7765 20.22 59.5968 19.3703 60.8745 18.1556L77.369 2.68256C78.7213 1.41909 79.5596-0.441234 79.5596-2.17539C79.5596-6.0771 76.8034-8.75598 73.0651-8.75598C70.8833-8.75598 69.4218-7.86616 68.2302-6.45074L62.3041 0.428849L62.7463-5.08235L62.7463-18.5058C62.7463-22.9644 59.9298-25.9186 55.695-25.9186Z"/>
  </g>
  <g id="Bold-S" transform="matrix(1 0 0 1 2287.63 696)">
   <path d="M52.3438-45.2637C55.9082-45.2637 58.3252-47.7295 58.3252-51.4404L58.3252-65.4297L57.9346-71.7285L65.1367-63.623C66.1865-62.4268 67.4805-61.7432 69.2627-61.7432C72.4854-61.7432 74.8291-64.0625 74.8291-67.3584C74.8291-68.8721 74.1455-70.4102 72.9736-71.5332L56.7627-87.1094C55.6396-88.208 54.0771-88.9404 52.3438-88.9404C50.6104-88.9404 49.0723-88.208 47.9492-87.1094L31.7383-71.5332C30.542-70.4102 29.8584-68.8721 29.8584-67.3584C29.8584-64.0625 32.2266-61.7432 35.4248-61.7432C37.2314-61.7432 38.5254-62.4268 39.5508-63.623L46.7529-71.7285L46.3867-65.4297L46.3867-51.4404C46.3867-47.7295 48.7793-45.2637 52.3438-45.2637ZM9.76562-36.0107C9.76562-32.7881 12.2559-30.2734 15.5029-30.2734L89.2334-30.2734C92.4561-30.2734 94.9219-32.7881 94.9219-36.0107C94.9219-39.2334 92.4561-41.7725 89.2334-41.7725L15.5029-41.7725C12.2559-41.7725 9.76562-39.2334 9.76562-36.0107ZM52.3438-26.7822C48.7793-26.7822 46.3867-24.292 46.3867-20.5811L46.3867-6.61621L46.7529-0.292969L39.5508-8.42285C38.5254-9.61914 37.2314-10.3027 35.4248-10.3027C32.2266-10.3027 29.8584-7.95898 29.8584-4.66309C29.8584-3.17383 30.542-1.63574 31.7383-0.488281L47.9492 15.0879C49.0723 16.1865 50.6104 16.8945 52.3438 16.8945C54.0771 16.8945 55.6396 16.1865 56.7627 15.0879L72.9736-0.488281C74.1455-1.63574 74.8291-3.17383 74.8291-4.66309C74.8291-7.95898 72.4854-10.3027 69.2627-10.3027C67.4805-10.3027 66.1865-9.61914 65.1367-8.42285L57.9346-0.292969L58.3252-6.61621L58.3252-20.5811C58.3252-24.292 55.9082-26.7822 52.3438-26.7822Z"/>
  </g>
  <g id="Semibold-S" transform="matrix(1 0 0 1 1993.23 696)">
   <path d="M50.0332-44.5883C53.1355-44.5883 55.2771-46.7253 55.2771-49.9208L55.2771-64.2922L54.922-71.142L63.0039-62.1834C63.956-61.1382 65.1344-60.5968 66.6411-60.5968C69.5083-60.5968 71.5677-62.6762 71.5677-65.5544C71.5677-66.9081 70.9907-68.224 69.9433-69.2582L53.9278-84.9055C52.9114-85.9241 51.5267-86.5677 50.0332-86.5677C48.5397-86.5677 47.1883-85.9241 46.1719-84.9055L30.1564-69.2582C29.0757-68.224 28.4987-66.9081 28.4987-65.5544C28.4987-62.6762 30.5914-60.5968 33.4253-60.5968C34.9653-60.5968 36.1437-61.1382 37.0625-62.1834L45.1444-71.142L44.8227-64.2922L44.8227-49.9208C44.8227-46.7253 46.9309-44.5883 50.0332-44.5883ZM9.76562-35.9663C9.76562-33.0813 11.9359-30.8955 14.8364-30.8955L85.2966-30.8955C88.1638-30.8955 90.3008-33.0813 90.3008-35.9663C90.3008-38.8513 88.1638-41.0704 85.2966-41.0704L14.8364-41.0704C11.9359-41.0704 9.76562-38.8513 9.76562-35.9663ZM50.0332-27.3776C46.9309-27.3776 44.8227-25.2073 44.8227-22.0118L44.8227-7.67373L45.1444-0.790625L37.0625-9.78252C36.1437-10.8277 34.9653-11.3691 33.4253-11.3691C30.5914-11.3691 28.4987-9.25645 28.4987-6.37822C28.4987-5.05781 29.0757-3.74189 30.1564-2.67441L46.1719 12.9729C47.1883 13.9915 48.5397 14.6018 50.0332 14.6018C51.5267 14.6018 52.9114 13.9915 53.9278 12.9729L69.9433-2.67441C70.9907-3.74189 71.5677-5.05781 71.5677-6.37822C71.5677-9.25645 69.5083-11.3691 66.6411-11.3691C65.1344-11.3691 63.956-10.8277 63.0039-9.78252L54.922-0.790625L55.2771-7.67373L55.2771-22.0118C55.2771-25.2073 53.1355-27.3776 50.0332-27.3776Z"/>
  </g>
  <g id="Medium-S" transform="matrix(1 0 0 1 1698.27 696)">
   <path d="M48.2812-44.0762C51.0332-44.0762 52.9658-45.9639 52.9658-48.7686L52.9658-63.4297L52.6377-70.6973L61.3867-61.0918C62.2646-60.1611 63.3555-59.7275 64.6533-59.7275C67.251-59.7275 69.0947-61.625 69.0947-64.1865C69.0947-65.4189 68.5986-66.5664 67.6455-67.5332L51.7783-83.2344C50.8428-84.1924 49.5928-84.7686 48.2812-84.7686C46.9697-84.7686 45.7598-84.1924 44.8242-83.2344L28.957-67.5332C27.9639-66.5664 27.4678-65.4189 27.4678-64.1865C27.4678-61.625 29.3516-59.7275 31.9092-59.7275C33.2471-59.7275 34.3379-60.1611 35.1758-61.0918L43.9248-70.6973L43.6367-63.4297L43.6367-48.7686C43.6367-45.9639 45.5293-44.0762 48.2812-44.0762ZM9.76562-35.9326C9.76562-33.3037 11.6934-31.3672 14.3311-31.3672L82.3115-31.3672C84.9092-31.3672 86.7969-33.3037 86.7969-35.9326C86.7969-38.5615 84.9092-40.5381 82.3115-40.5381L14.3311-40.5381C11.6934-40.5381 9.76562-38.5615 9.76562-35.9326ZM48.2812-27.8291C45.5293-27.8291 43.6367-25.9014 43.6367-23.0967L43.6367-8.47559L43.9248-1.16797L35.1758-10.8135C34.3379-11.7441 33.2471-12.1777 31.9092-12.1777C29.3516-12.1777 27.4678-10.2402 27.4678-7.67871C27.4678-6.48633 27.9639-5.33887 28.957-4.33203L44.8242 11.3691C45.7598 12.3271 46.9697 12.8633 48.2812 12.8633C49.5928 12.8633 50.8428 12.3271 51.7783 11.3691L67.6455-4.33203C68.5986-5.33887 69.0947-6.48633 69.0947-7.67871C69.0947-10.2402 67.251-12.1777 64.6533-12.1777C63.3555-12.1777 62.2646-11.7441 61.3867-10.8135L52.6377-1.16797L52.9658-8.47559L52.9658-23.0967C52.9658-25.9014 51.0332-27.8291 48.2812-27.8291Z"/>
  </g>
  <g id="Regular-S" transform="matrix(1 0 0 1 1403.85 696)">
   <path d="M45.9961-43.4082C48.291-43.4082 49.9512-44.9707 49.9512-47.2656L49.9512-62.3047L49.6582-70.1172L59.2773-59.668C60.0586-58.8867 61.0352-58.5938 62.0605-58.5938C64.3066-58.5938 65.8691-60.2539 65.8691-62.4023C65.8691-63.4766 65.4785-64.4043 64.6484-65.2832L48.9746-81.0547C48.1445-81.9336 47.0703-82.4219 45.9961-82.4219C44.9219-82.4219 43.8965-81.9336 43.0664-81.0547L27.3926-65.2832C26.5137-64.4043 26.123-63.4766 26.123-62.4023C26.123-60.2539 27.7344-58.5938 29.9316-58.5938C31.0059-58.5938 31.9824-58.8867 32.7148-59.668L42.334-70.1172L42.0898-62.3047L42.0898-47.2656C42.0898-44.9707 43.7012-43.4082 45.9961-43.4082ZM9.76562-35.8887C9.76562-33.5938 11.377-31.9824 13.6719-31.9824L78.418-31.9824C80.6641-31.9824 82.2266-33.5938 82.2266-35.8887C82.2266-38.1836 80.6641-39.8438 78.418-39.8438L13.6719-39.8438C11.377-39.8438 9.76562-38.1836 9.76562-35.8887ZM45.9961-28.418C43.7012-28.418 42.0898-26.8066 42.0898-24.5117L42.0898-9.52148L42.334-1.66016L32.7148-12.1582C31.9824-12.9395 31.0059-13.2324 29.9316-13.2324C27.7344-13.2324 26.123-11.5234 26.123-9.375C26.123-8.34961 26.5137-7.42188 27.3926-6.49414L43.0664 9.27734C43.8965 10.1562 44.9219 10.5957 45.9961 10.5957C47.0703 10.5957 48.1445 10.1562 48.9746 9.27734L64.6484-6.49414C65.4785-7.42188 65.8691-8.34961 65.8691-9.375C65.8691-11.5234 64.3066-13.2324 62.0605-13.2324C61.0352-13.2324 60.0586-12.9395 59.2773-12.1582L49.6582-1.66016L49.9512-9.52148L49.9512-24.5117C49.9512-26.8066 48.291-28.418 45.9961-28.418Z"/>
  </g>
  <g id="Light-S" transform="matrix(1 0 0 1 1108.16 696)">
   <path d="M44.9819-43.2871C46.7319-43.2871 47.9834-44.4712 47.9834-46.2363L47.9834-63.3794L47.751-71.3281L58.3086-60.1977C58.9082-59.583 59.688-59.3354 60.5015-59.3354C62.2178-59.3354 63.417-60.5869 63.417-62.251C63.417-63.1436 63.0718-63.8594 62.3931-64.5718L47.249-79.7227C46.6157-80.3897 45.7988-80.772 44.9819-80.772C44.1499-80.772 43.3667-80.3897 42.7485-79.7227L27.6045-64.5718C26.9072-63.8594 26.5469-63.1436 26.5469-62.251C26.5469-60.5869 27.7798-59.3354 29.4624-59.3354C30.3096-59.3354 31.0894-59.583 31.6553-60.1977L42.1978-71.3281L41.999-63.3794L41.999-46.2363C41.999-44.4712 43.2168-43.2871 44.9819-43.2871ZM9.76562-35.9795C9.76562-34.2446 10.9985-32.9966 12.7485-32.9966L77.2676-32.9966C78.9839-32.9966 80.1831-34.2446 80.1831-35.9795C80.1831-37.7144 78.9839-38.9961 77.2676-38.9961L12.7485-38.9961C10.9985-38.9961 9.76562-37.7144 9.76562-35.9795ZM44.9819-28.7056C43.2168-28.7056 41.999-27.4878 41.999-25.7378L41.999-8.62843L42.1978-0.646004L31.6553-11.7949C31.0894-12.4097 30.3096-12.6572 29.4624-12.6572C27.7798-12.6572 26.5469-11.3721 26.5469-9.70801C26.5469-8.86425 26.9072-8.1333 27.6045-7.3872L42.7485 7.76368C43.3667 8.43068 44.1499 8.76417 44.9819 8.76417C45.7988 8.76417 46.6157 8.43068 47.249 7.76368L62.3931-7.3872C63.0718-8.1333 63.417-8.86425 63.417-9.70801C63.417-11.3721 62.2178-12.6572 60.5015-12.6572C59.688-12.6572 58.9082-12.4097 58.3086-11.7949L47.751-0.646004L47.9834-8.62843L47.9834-25.7378C47.9834-27.4878 46.7319-28.7056 44.9819-28.7056Z"/>
  </g>
  <g id="Thin-S" transform="matrix(1 0 0 1 812.799 696)">
   <path d="M43.6406-43.127C44.67-43.127 45.3809-43.8106 45.3809-44.875L45.3809-64.8008L45.2286-72.9297L57.0274-60.8984C57.3867-60.5039 57.9063-60.3164 58.4395-60.3164C59.4551-60.3164 60.1739-61.0273 60.1739-62.0508C60.1739-62.7031 59.8887-63.1387 59.4102-63.6309L44.9668-77.961C44.5938-78.3477 44.1172-78.5899 43.6406-78.5899C43.1289-78.5899 42.666-78.3477 42.3281-77.961L27.8848-63.6309C27.4277-63.1387 27.1074-62.7031 27.1074-62.0508C27.1074-61.0273 27.8398-60.3164 28.8418-60.3164C29.3887-60.3164 29.9082-60.5039 30.2539-60.8984L42.0176-72.9297L41.8789-64.8008L41.8789-44.875C41.8789-43.8106 42.5762-43.127 43.6406-43.127ZM9.76562-36.0996C9.76562-35.1055 10.4981-34.3379 11.5274-34.3379L75.7461-34.3379C76.7617-34.3379 77.4805-35.1055 77.4805-36.0996C77.4805-37.0938 76.7617-37.875 75.7461-37.875L11.5274-37.875C10.4981-37.875 9.76562-37.0938 9.76562-36.0996ZM43.6406-29.0859C42.5762-29.0859 41.8789-28.3887 41.8789-27.3594L41.8789-7.44728L42.0176 0.695294L30.2539-11.3145C29.9082-11.709 29.3887-11.8965 28.8418-11.8965C27.8398-11.8965 27.1074-11.1719 27.1074-10.1484C27.1074-9.54491 27.4277-9.07421 27.8848-8.56834L42.3281 5.76175C42.666 6.14847 43.1289 6.34183 43.6406 6.34183C44.1172 6.34183 44.5938 6.14847 44.9668 5.76175L59.4102-8.56834C59.8887-9.07421 60.1739-9.54491 60.1739-10.1484C60.1739-11.1719 59.4551-11.8965 58.4395-11.8965C57.9063-11.8965 57.3867-11.709 57.0274-11.3145L45.2286 0.695294L45.3809-7.44728L45.3809-27.3594C45.3809-28.3887 44.67-29.0859 43.6406-29.0859Z"/>
  </g>
  <g id="Ultralight-S" transform="matrix(1 0 0 1 516.78 696)">
   <path d="M42.9536-43.0449C43.6138-43.0449 44.0479-43.4722 44.0479-44.1778L44.0479-65.5288L43.9366-73.75L56.3711-61.2573C56.6074-60.9756 56.9937-60.8188 57.3833-60.8188C58.0401-60.8188 58.5128-61.2529 58.5128-61.9482C58.5128-62.4775 58.2584-62.7695 57.8824-63.1489L43.7979-77.0586C43.5581-77.3018 43.2559-77.4722 42.9536-77.4722C42.606-77.4722 42.3071-77.3018 42.1128-77.0586L28.0283-63.1489C27.6943-62.7695 27.3945-62.4775 27.3945-61.9482C27.3945-61.2529 27.8706-60.8188 28.5239-60.8188C28.917-60.8188 29.3032-60.9756 29.5362-61.2573L41.9253-73.75L41.8174-65.5288L41.8174-44.1778C41.8174-43.4722 42.2481-43.0449 42.9536-43.0449ZM9.76562-36.1611C9.76562-35.5464 10.2417-35.0249 10.9019-35.0249L74.9668-35.0249C75.6236-35.0249 76.0962-35.5464 76.0962-36.1611C76.0962-36.7759 75.6236-37.3008 74.9668-37.3008L10.9019-37.3008C10.2417-37.3008 9.76562-36.7759 9.76562-36.1611ZM42.9536-29.2808C42.2481-29.2808 41.8174-28.8501 41.8174-28.1899L41.8174-6.84231L41.9253 1.3823L29.5362-11.0684C29.3032-11.3501 28.917-11.5068 28.5239-11.5068C27.8706-11.5068 27.3945-11.0693 27.3945-10.374C27.3945-9.89354 27.6943-9.55614 28.0283-9.17332L42.1128 4.73636C42.3071 4.97953 42.606 5.10112 42.9536 5.10112C43.2559 5.10112 43.5581 4.97953 43.7979 4.73636L57.8824-9.17332C58.2584-9.55614 58.5128-9.89354 58.5128-10.374C58.5128-11.0693 58.0401-11.5068 57.3833-11.5068C56.9937-11.5068 56.6074-11.3501 56.3711-11.0684L43.9366 1.3823L44.0479-6.84231L44.0479-28.1899C44.0479-28.8501 43.6138-29.2808 42.9536-29.2808Z"/>
  </g>
 </g>
</svg>
