<?xml version="1.0" encoding="UTF-8" standalone="no"?>
<!DOCTYPE svg PUBLIC "-//W3C//DTD SVG 1.1//EN" "http://www.w3.org/Graphics/SVG/1.1/DTD/svg11.dtd">
<svg width="100%" height="100%" viewBox="0 0 1024 1024" version="1.1" xmlns="http://www.w3.org/2000/svg" xmlns:xlink="http://www.w3.org/1999/xlink" xml:space="preserve" xmlns:serif="http://www.serif.com/" style="fill-rule:evenodd;clip-rule:evenodd;stroke-linejoin:round;stroke-miterlimit:2;">
    <g id="Layer_1_1_">
    </g>
    <g id="Layer_2_1_" transform="matrix(28.2094,0,0,28.2094,0,0)">
        <path d="M30.4,31.2L29.9,31.2C29,31.2 21,31 18.2,31C15.3,31 6.4,31.2 6.3,31.2L5.8,31.2L5.8,29.5L5.7,27.8L6.2,27.8C6.3,27.8 12.5,27.5 16.3,27.4L16.3,23.7C12.2,23.5 9.3,22.4 7.4,20.5C4.5,17.5 4.7,13.2 4.8,8.6L4.8,7.3L8.4,7.4L8.4,8.8C8.3,12.7 8.1,16.1 10,18C11.2,19.2 13.2,19.9 16.3,20.1L16.3,5.5L19.9,5.5L19.9,20C22.9,19.8 25,19.1 26.2,17.9C28,16 27.9,12.6 27.8,8.7L27.8,7.3L31.4,7.2L31.4,8.5C31.6,13.1 31.7,17.4 28.8,20.4C26.9,22.3 24,23.4 19.9,23.6L19.9,27.3C23.6,27.4 29.9,27.7 30,27.7L30.5,27.7L30.4,29.4L30.4,31.2Z" style="fill-rule:nonzero;"/>
    </g>
</svg>
