<svg width="931" height="946" viewBox="0 0 931 946" fill="none" xmlns="http://www.w3.org/2000/svg">
<path d="M863.232 517.12H930.816C930.816 517.12 930.816 521.216 930.816 529.408C930.816 536.917 930.475 543.061 929.792 547.84C927.061 629.077 923.648 694.613 919.552 744.448C915.456 794.283 910.677 832.171 905.216 858.112C900.437 883.371 893.952 901.12 885.76 911.36C877.568 920.917 868.693 927.744 859.136 931.84C849.579 936.619 837.291 939.349 822.272 940.032C809.984 941.397 792.576 941.739 770.048 941.056C747.52 941.056 724.309 940.373 700.416 939.008C699.733 929.451 697.685 918.528 694.272 906.24C690.859 894.635 686.421 884.395 680.96 875.52C705.536 878.251 728.064 879.616 748.544 879.616C769.707 880.299 784.725 880.64 793.6 880.64C802.475 880.64 809.301 879.957 814.08 878.592C819.541 877.227 823.979 874.155 827.392 869.376C834.219 862.549 839.68 847.531 843.776 824.32C847.872 800.427 851.627 764.928 855.04 717.824C858.453 670.037 861.184 606.891 863.232 528.384V517.12ZM667.648 5.11987L739.328 18.4319C729.771 40.9599 719.531 63.1465 708.608 84.9919C698.368 106.837 688.811 125.952 679.936 142.336L624.64 129.024C632.149 111.275 640 90.7946 648.192 67.5839C657.067 43.6906 663.552 22.8692 667.648 5.11987ZM825.344 99.3279H890.88C890.88 99.3279 890.539 103.083 889.856 110.592C889.856 117.419 889.856 123.563 889.856 129.024C887.808 194.56 885.419 247.467 882.688 287.744C879.957 328.021 876.203 358.741 871.424 379.904C867.328 400.384 862.208 415.061 856.064 423.936C849.237 432.128 841.387 437.931 832.512 441.344C824.32 444.757 814.08 447.147 801.792 448.512C791.552 449.877 777.899 450.56 760.832 450.56C743.765 450.56 725.675 449.877 706.56 448.512C705.877 439.637 703.829 429.739 700.416 418.816C697.685 407.211 693.931 396.971 689.152 388.096C707.584 390.144 724.309 391.509 739.328 392.192C754.347 392.192 765.269 392.192 772.096 392.192C784.384 392.192 793.259 388.779 798.72 381.952C803.499 376.491 807.253 364.544 809.984 346.112C813.397 327.68 816.128 299.691 818.176 262.144C820.907 223.915 823.296 173.739 825.344 111.616V99.3279ZM839.68 99.3279V161.792H604.16V516.096H882.688V578.56H540.672V99.3279H839.68ZM620.544 233.472L661.504 200.704C681.301 217.771 700.757 236.203 719.872 256C739.669 275.797 755.029 292.864 765.952 307.2L720.896 345.088C709.973 330.069 694.613 311.979 674.816 290.816C655.701 268.971 637.611 249.856 620.544 233.472ZM507.904 679.936H815.104V744.448H507.904V679.936ZM129.024 510.976H461.824V571.392H129.024V510.976ZM130.048 670.72H462.848V731.136H130.048V670.72ZM131.072 833.536H489.472V896H131.072V833.536ZM41.984 111.616H480.256V280.576H415.744V173.056H104.448V279.552H41.984V111.616ZM279.552 388.096H343.04V862.208H279.552V388.096ZM154.624 352.256H479.232V416.768H154.624V945.152H90.112V418.816L148.48 352.256H154.624ZM233.472 -0.00012207L299.008 12.2879C283.989 86.0159 264.533 155.648 240.64 221.184C217.429 286.72 189.099 346.795 155.648 401.408C122.197 455.339 83.2853 502.784 38.912 543.744C36.1814 538.283 32.4267 531.456 27.648 523.264C23.552 515.072 18.7733 506.88 13.312 498.688C8.53335 490.496 4.09601 483.669 1.33514e-05 478.208C60.0747 425.643 109.227 358.059 147.456 275.456C185.685 192.853 214.357 101.035 233.472 -0.00012207ZM256 263.168L311.296 242.688C320.853 260.437 330.069 280.235 338.944 302.08C348.501 323.925 355.669 342.699 360.448 358.4L302.08 381.952C298.667 365.568 292.523 346.453 283.648 324.608C274.773 302.08 265.557 281.6 256 263.168Z" fill="black"/>
</svg>
