<?xml version="1.0" encoding="UTF-8"?>
<!--Generator: Apple Native CoreSVG 232.5-->
<!DOCTYPE svg
PUBLIC "-//W3C//DTD SVG 1.1//EN"
       "http://www.w3.org/Graphics/SVG/1.1/DTD/svg11.dtd">
<svg version="1.1" xmlns="http://www.w3.org/2000/svg" xmlns:xlink="http://www.w3.org/1999/xlink" width="3300" height="2200">
 <g id="Notes">
  <rect height="2200" id="artboard" style="fill:white;opacity:1" width="3300" x="0" y="0"/>
  <line style="fill:none;stroke:black;opacity:1;stroke-width:0.5;" x1="263" x2="3036" y1="292" y2="292"/>
  <text style="stroke:none;fill:black;font-family:sans-serif;font-size:13;font-weight:bold;" transform="matrix(1 0 0 1 263 322)">Weight/Scale Variations</text>
  <text style="stroke:none;fill:black;font-family:sans-serif;font-size:13;text-anchor:middle;" transform="matrix(1 0 0 1 559.711 322)">Ultralight</text>
  <text style="stroke:none;fill:black;font-family:sans-serif;font-size:13;text-anchor:middle;" transform="matrix(1 0 0 1 856.422 322)">Thin</text>
  <text style="stroke:none;fill:black;font-family:sans-serif;font-size:13;text-anchor:middle;" transform="matrix(1 0 0 1 1153.13 322)">Light</text>
  <text style="stroke:none;fill:black;font-family:sans-serif;font-size:13;text-anchor:middle;" transform="matrix(1 0 0 1 1449.84 322)">Regular</text>
  <text style="stroke:none;fill:black;font-family:sans-serif;font-size:13;text-anchor:middle;" transform="matrix(1 0 0 1 1746.56 322)">Medium</text>
  <text style="stroke:none;fill:black;font-family:sans-serif;font-size:13;text-anchor:middle;" transform="matrix(1 0 0 1 2043.27 322)">Semibold</text>
  <text style="stroke:none;fill:black;font-family:sans-serif;font-size:13;text-anchor:middle;" transform="matrix(1 0 0 1 2339.98 322)">Bold</text>
  <text style="stroke:none;fill:black;font-family:sans-serif;font-size:13;text-anchor:middle;" transform="matrix(1 0 0 1 2636.69 322)">Heavy</text>
  <text style="stroke:none;fill:black;font-family:sans-serif;font-size:13;text-anchor:middle;" transform="matrix(1 0 0 1 2933.4 322)">Black</text>
  <line style="fill:none;stroke:black;opacity:1;stroke-width:0.5;" x1="263" x2="3036" y1="1903" y2="1903"/>
  <g transform="matrix(0.2 0 0 0.2 263 1933)">
   <path d="m46.2402 4.15039c21.5332 0 39.4531-17.8711 39.4531-39.4043s-17.9688-39.4043-39.502-39.4043c-21.4844 0-39.3555 17.8711-39.3555 39.4043s17.9199 39.4043 39.4043 39.4043Zm0-7.42188c-17.7246 0-31.8848-14.209-31.8848-31.9824s14.1113-31.9824 31.8359-31.9824c17.7734 0 32.0312 14.209 32.0312 31.9824s-14.209 31.9824-31.9824 31.9824Zm-17.9688-31.9824c0 2.14844 1.51367 3.61328 3.75977 3.61328h10.498v10.5957c0 2.19727 1.46484 3.71094 3.61328 3.71094 2.24609 0 3.71094-1.51367 3.71094-3.71094v-10.5957h10.5957c2.19727 0 3.71094-1.46484 3.71094-3.61328 0-2.19727-1.51367-3.71094-3.71094-3.71094h-10.5957v-10.5469c0-2.24609-1.46484-3.75977-3.71094-3.75977-2.14844 0-3.61328 1.51367-3.61328 3.75977v10.5469h-10.498c-2.24609 0-3.75977 1.51367-3.75977 3.71094Z"/>
  </g>
  <g transform="matrix(0.2 0 0 0.2 281.506 1933)">
   <path d="m58.5449 14.5508c27.2461 0 49.8047-22.6074 49.8047-49.8047 0-27.2461-22.6074-49.8047-49.8535-49.8047-27.1973 0-49.7559 22.5586-49.7559 49.8047 0 27.1973 22.6074 49.8047 49.8047 49.8047Zm0-8.30078c-23.0469 0-41.4551-18.457-41.4551-41.5039s18.3594-41.5039 41.4062-41.5039 41.5527 18.457 41.5527 41.5039-18.457 41.5039-41.5039 41.5039Zm-22.6562-41.5039c0 2.39258 1.66016 4.00391 4.15039 4.00391h14.3555v14.4043c0 2.44141 1.66016 4.15039 4.05273 4.15039 2.44141 0 4.15039-1.66016 4.15039-4.15039v-14.4043h14.4043c2.44141 0 4.15039-1.61133 4.15039-4.00391 0-2.44141-1.70898-4.15039-4.15039-4.15039h-14.4043v-14.3555c0-2.49023-1.70898-4.19922-4.15039-4.19922-2.39258 0-4.05273 1.70898-4.05273 4.19922v14.3555h-14.3555c-2.49023 0-4.15039 1.70898-4.15039 4.15039Z"/>
  </g>
  <g transform="matrix(0.2 0 0 0.2 304.924 1933)">
   <path d="m74.8535 28.3203c34.8145 0 63.623-28.8086 63.623-63.5742 0-34.8145-28.8574-63.623-63.6719-63.623-34.7656 0-63.5254 28.8086-63.5254 63.623 0 34.7656 28.8086 63.5742 63.5742 63.5742Zm0-9.08203c-30.1758 0-54.4434-24.3164-54.4434-54.4922 0-30.2246 24.2188-54.4922 54.3945-54.4922 30.2246 0 54.541 24.2676 54.541 54.4922 0 30.1758-24.2676 54.4922-54.4922 54.4922Zm-28.8574-54.4922c0 2.58789 1.85547 4.39453 4.58984 4.39453h19.7266v19.7754c0 2.68555 1.85547 4.58984 4.44336 4.58984 2.68555 0 4.54102-1.85547 4.54102-4.58984v-19.7754h19.7754c2.68555 0 4.58984-1.80664 4.58984-4.39453 0-2.73438-1.85547-4.58984-4.58984-4.58984h-19.7754v-19.7266c0-2.73438-1.85547-4.63867-4.54102-4.63867-2.58789 0-4.44336 1.9043-4.44336 4.63867v19.7266h-19.7266c-2.73438 0-4.58984 1.85547-4.58984 4.58984Z"/>
  </g>
  <text style="stroke:none;fill:black;font-family:sans-serif;font-size:13;font-weight:bold;" transform="matrix(1 0 0 1 263 1953)">Design Variations</text>
  <text style="stroke:none;fill:black;font-family:sans-serif;font-size:13;" transform="matrix(1 0 0 1 263 1971)">Symbols are supported in up to nine weights and three scales.</text>
  <text style="stroke:none;fill:black;font-family:sans-serif;font-size:13;" transform="matrix(1 0 0 1 263 1989)">For optimal layout with text and other symbols, vertically align</text>
  <text style="stroke:none;fill:black;font-family:sans-serif;font-size:13;" transform="matrix(1 0 0 1 263 2007)">symbols with the adjacent text.</text>
  <line style="fill:none;stroke:#00AEEF;stroke-width:0.5;opacity:1.0;" x1="776" x2="776" y1="1919" y2="1933"/>
  <g transform="matrix(0.2 0 0 0.2 776 1933)">
   <path d="m16.5527 0.78125c2.58789 0 3.85742-0.976562 4.78516-3.71094l6.29883-17.2363h28.8086l6.29883 17.2363c0.927734 2.73438 2.19727 3.71094 4.73633 3.71094 2.58789 0 4.24805-1.5625 4.24805-4.00391 0-0.830078-0.146484-1.61133-0.537109-2.63672l-22.9004-60.9863c-1.12305-2.97852-3.125-4.49219-6.25-4.49219-3.02734 0-5.07812 1.46484-6.15234 4.44336l-22.9004 61.084c-0.390625 1.02539-0.537109 1.80664-0.537109 2.63672 0 2.44141 1.5625 3.95508 4.10156 3.95508Zm13.4766-28.3691 11.8652-32.8613h0.244141l11.8652 32.8613Z"/>
  </g>
  <line style="fill:none;stroke:#00AEEF;stroke-width:0.5;opacity:1.0;" x1="792.836" x2="792.836" y1="1919" y2="1933"/>
  <text style="stroke:none;fill:black;font-family:sans-serif;font-size:13;font-weight:bold;" transform="matrix(1 0 0 1 776 1953)">Margins</text>
  <text style="stroke:none;fill:black;font-family:sans-serif;font-size:13;" transform="matrix(1 0 0 1 776 1971)">Leading and trailing margins on the left and right side of each symbol</text>
  <text style="stroke:none;fill:black;font-family:sans-serif;font-size:13;" transform="matrix(1 0 0 1 776 1989)">can be adjusted by modifying the x-location of the margin guidelines.</text>
  <text style="stroke:none;fill:black;font-family:sans-serif;font-size:13;" transform="matrix(1 0 0 1 776 2007)">Modifications are automatically applied proportionally to all</text>
  <text style="stroke:none;fill:black;font-family:sans-serif;font-size:13;" transform="matrix(1 0 0 1 776 2025)">scales and weights.</text>
  <g transform="matrix(0.2 0 0 0.2 1289 1933)">
   <path d="m14.209 9.32617 8.49609 8.54492c4.29688 4.3457 9.22852 4.05273 13.8672-1.07422l53.4668-58.9355-4.83398-4.88281-53.0762 58.3984c-1.75781 2.00195-3.41797 2.49023-5.76172 0.146484l-5.85938-5.81055c-2.34375-2.29492-1.80664-4.00391 0.195312-5.81055l57.373-54.0039-4.88281-4.83398-57.959 54.4434c-4.93164 4.58984-5.32227 9.47266-1.02539 13.8184Zm32.0801-90.9668c-2.09961 2.05078-2.24609 4.93164-1.07422 6.88477 1.17188 1.80664 3.4668 2.97852 6.68945 2.14844 7.32422-1.70898 14.9414-2.00195 22.0703 2.68555l-2.92969 7.27539c-1.70898 4.15039-0.830078 7.08008 1.85547 9.81445l11.4746 11.5723c2.44141 2.44141 4.49219 2.53906 7.32422 2.05078l5.32227-0.976562 3.32031 3.36914-0.195312 2.7832c-0.195312 2.49023 0.439453 4.39453 2.88086 6.78711l3.80859 3.71094c2.39258 2.39258 5.46875 2.53906 7.8125 0.195312l14.5508-14.5996c2.34375-2.34375 2.24609-5.32227-0.146484-7.71484l-3.85742-3.80859c-2.39258-2.39258-4.24805-3.17383-6.64062-2.97852l-2.88086 0.244141-3.22266-3.17383 1.2207-5.61523c0.634766-2.83203-0.146484-5.0293-3.07617-7.95898l-10.9863-10.9375c-16.6992-16.6016-38.8672-16.2109-53.3203-1.75781Zm7.4707 1.85547c12.1582-8.88672 28.6133-7.37305 39.7461 3.75977l12.1582 12.0605c1.17188 1.17188 1.36719 2.09961 1.02539 3.80859l-1.61133 7.42188 7.51953 7.42188 4.93164-0.292969c1.26953-0.0488281 1.66016 0.0488281 2.63672 1.02539l2.88086 2.88086-12.207 12.207-2.88086-2.88086c-0.976562-0.976562-1.12305-1.36719-1.07422-2.68555l0.341797-4.88281-7.4707-7.42188-7.61719 1.26953c-1.61133 0.341797-2.34375 0.195312-3.56445-0.976562l-10.0098-10.0098c-1.26953-1.17188-1.41602-2.00195-0.634766-3.85742l4.39453-10.4492c-7.8125-7.27539-17.9688-10.4004-28.125-7.42188-0.78125 0.195312-1.07422-0.439453-0.439453-0.976562Z"/>
  </g>
  <text style="stroke:none;fill:black;font-family:sans-serif;font-size:13;font-weight:bold;" transform="matrix(1 0 0 1 1289 1953)">Exporting</text>
  <text style="stroke:none;fill:black;font-family:sans-serif;font-size:13;" transform="matrix(1 0 0 1 1289 1971)">Symbols should be outlined when exporting to ensure the</text>
  <text style="stroke:none;fill:black;font-family:sans-serif;font-size:13;" transform="matrix(1 0 0 1 1289 1989)">design is preserved when submitting to Xcode.</text>
  <text id="template-version" style="stroke:none;fill:black;font-family:sans-serif;font-size:13;text-anchor:end;" transform="matrix(1 0 0 1 3036 1933)">Template v.2.0</text>
  <text style="stroke:none;fill:black;font-family:sans-serif;font-size:13;text-anchor:end;" transform="matrix(1 0 0 1 3036 1951)">Requires Xcode 12 or greater</text>
  <text id="descriptive-name" style="stroke:none;fill:black;font-family:sans-serif;font-size:13;text-anchor:end;" transform="matrix(1 0 0 1 3036 1969)">Generated from chevron.up.circle.fill</text>
  <text style="stroke:none;fill:black;font-family:sans-serif;font-size:13;text-anchor:end;" transform="matrix(1 0 0 1 3036 1987)">Typeset at 100.0 points</text>
  <text style="stroke:none;fill:black;font-family:sans-serif;font-size:13;" transform="matrix(1 0 0 1 263 726)">Small</text>
  <text style="stroke:none;fill:black;font-family:sans-serif;font-size:13;" transform="matrix(1 0 0 1 263 1156)">Medium</text>
  <text style="stroke:none;fill:black;font-family:sans-serif;font-size:13;" transform="matrix(1 0 0 1 263 1586)">Large</text>
 </g>
 <g id="Guides">
  <g id="H-reference" style="fill:#27AAE1;stroke:none;" transform="matrix(1 0 0 1 339 696)">
   <path d="M0.993654 0L3.63775 0L29.3281-67.1323L30.0303-67.1323L30.0303-70.459L28.1226-70.459ZM11.6885-24.4799L46.9815-24.4799L46.2315-26.7285L12.4385-26.7285ZM55.1196 0L57.7637 0L30.6382-70.459L29.4326-70.459L29.4326-67.1323Z"/>
  </g>
  <line id="Baseline-S" style="fill:none;stroke:#27AAE1;opacity:1;stroke-width:0.5;" x1="263" x2="3036" y1="696" y2="696"/>
  <line id="Capline-S" style="fill:none;stroke:#27AAE1;opacity:1;stroke-width:0.5;" x1="263" x2="3036" y1="625.541" y2="625.541"/>
  <g id="H-reference" style="fill:#27AAE1;stroke:none;" transform="matrix(1 0 0 1 339 1126)">
   <path d="M0.993654 0L3.63775 0L29.3281-67.1323L30.0303-67.1323L30.0303-70.459L28.1226-70.459ZM11.6885-24.4799L46.9815-24.4799L46.2315-26.7285L12.4385-26.7285ZM55.1196 0L57.7637 0L30.6382-70.459L29.4326-70.459L29.4326-67.1323Z"/>
  </g>
  <line id="Baseline-M" style="fill:none;stroke:#27AAE1;opacity:1;stroke-width:0.5;" x1="263" x2="3036" y1="1126" y2="1126"/>
  <line id="Capline-M" style="fill:none;stroke:#27AAE1;opacity:1;stroke-width:0.5;" x1="263" x2="3036" y1="1055.54" y2="1055.54"/>
  <g id="H-reference" style="fill:#27AAE1;stroke:none;" transform="matrix(1 0 0 1 339 1556)">
   <path d="M0.993654 0L3.63775 0L29.3281-67.1323L30.0303-67.1323L30.0303-70.459L28.1226-70.459ZM11.6885-24.4799L46.9815-24.4799L46.2315-26.7285L12.4385-26.7285ZM55.1196 0L57.7637 0L30.6382-70.459L29.4326-70.459L29.4326-67.1323Z"/>
  </g>
  <line id="Baseline-L" style="fill:none;stroke:#27AAE1;opacity:1;stroke-width:0.5;" x1="263" x2="3036" y1="1556" y2="1556"/>
  <line id="Capline-L" style="fill:none;stroke:#27AAE1;opacity:1;stroke-width:0.5;" x1="263" x2="3036" y1="1485.54" y2="1485.54"/>
  <line id="left-margin" style="fill:none;stroke:#00AEEF;stroke-width:0.5;opacity:1.0;" x1="1391.32" x2="1391.32" y1="1030.79" y2="1150.12"/>
  <line id="right-margin" style="fill:none;stroke:#00AEEF;stroke-width:0.5;opacity:1.0;" x1="1508.37" x2="1508.37" y1="1030.79" y2="1150.12"/>
 </g>
 <g id="Symbols">
  <g id="Black-L" transform="matrix(1 0 0 1 2854.19 1556)">
   <path d="M79.1958 32.7257C116.56 32.7257 147.154 2.15259 147.154-35.2113C147.154-72.5752 116.539-103.148 79.175-103.148C41.8307-103.148 11.2588-72.5752 11.2588-35.2113C11.2588 2.15259 41.8515 32.7257 79.1958 32.7257ZM46.522-18.9013C43.713-21.5911 43.7326-26.5503 46.7209-29.7358L70.3831-55.1469C75.2285-60.3688 83.2035-60.4284 88.0513-55.2053L111.712-29.7942C114.701-26.6087 114.72-21.5911 111.912-18.9013C108.614-15.7557 103.71-15.7557 100.765-18.9192L79.2166-42.0789L57.6682-18.9192C54.7228-15.7557 49.8196-15.7557 46.522-18.9013Z"/>
  </g>
  <g id="Heavy-L" transform="matrix(1 0 0 1 2558.42 1556)">
   <path d="M78.2532 31.7694C115.056 31.7694 145.278 1.57794 145.278-35.2251C145.278-72.0281 115.026-102.22 78.2231-102.22C41.4446-102.22 11.2588-72.0281 11.2588-35.2251C11.2588 1.57794 41.4748 31.7694 78.2532 31.7694ZM45.75-19.214C43.2046-21.659 43.2292-26.1278 45.9544-29.0227L70.1175-54.8596C74.7134-59.805 81.8479-59.8552 86.455-54.9042L110.612-29.0673C113.338-26.1724 113.362-21.659 110.822-19.214C107.855-16.3448 103.42-16.3448 100.761-19.2039L78.2834-43.2354L55.8063-19.2039C53.1471-16.3448 48.7117-16.3448 45.75-19.214Z"/>
  </g>
  <g id="Bold-L" transform="matrix(1 0 0 1 2262.89 1556)">
   <path d="M77.0704 30.5711C113.182 30.5711 142.92 0.870872 142.92-35.2405C142.92-71.3519 113.144-101.052 77.0324-101.052C40.9458-101.052 11.2588-71.3519 11.2588-35.2405C11.2588 0.870872 40.9838 30.5711 77.0704 30.5711ZM44.8194-19.6281C42.6118-21.7509 42.6365-25.5829 45.0166-28.1017L69.8766-54.5061C74.0756-59.0163 80.1279-59.0587 84.3534-54.5353L109.2-28.1309C111.58-25.6121 111.605-21.7509 109.411-19.6281C106.873-17.127 103.044-17.127 100.753-19.5946L77.1084-44.6871L53.4638-19.5946C51.173-17.127 47.3438-17.127 44.8194-19.6281Z"/>
  </g>
  <g id="Semibold-L" transform="matrix(1 0 0 1 1966.99 1556)">
   <path d="M76.2549 29.745C111.889 29.745 141.294 0.383422 141.294-35.2511C141.294-70.8857 111.846-100.247 76.2116-100.247C40.6019-100.247 11.2588-70.8857 11.2588-35.2511C11.2588 0.383422 40.6453 29.745 76.2549 29.745ZM44.1779-19.9136C42.2031-21.8143 42.228-25.2072 44.37-27.4669L69.7105-54.2624C73.6359-58.4726 78.9422-58.5097 82.9046-54.2809L108.227-27.4855C110.369-25.2258 110.394-21.8143 108.437-19.9136C106.196-17.6662 102.785-17.6662 100.748-19.8639L76.2983-45.6879L51.8489-19.8639C49.8121-17.6662 46.4008-17.6662 44.1779-19.9136Z"/>
  </g>
  <g id="Medium-L" transform="matrix(1 0 0 1 1670.9 1556)">
   <path d="M75.6366 29.1187C110.91 29.1187 140.062 0.0138167 140.062-35.2592C140.062-70.5322 110.862-99.637 75.5892-99.637C40.3412-99.637 11.2588-70.5322 11.2588-35.2592C11.2588 0.0138167 40.3886 29.1187 75.6366 29.1187ZM43.6915-20.1301C41.8932-21.8624 41.9182-24.9224 43.8798-26.9855L69.5845-54.0776C73.3026-58.0604 78.0431-58.0934 81.8061-54.0881L107.488-26.996C109.45-24.9329 109.475-21.8624 107.699-20.1301C105.682-18.075 102.588-18.075 100.744-20.0682L75.6841-46.4467L50.6245-20.0682C48.7802-18.075 45.6857-18.075 43.6915-20.1301Z"/>
  </g>
  <g id="Regular-L" transform="matrix(1 0 0 1 1374.99 1556)">
   <path d="M74.8301 28.3017C109.632 28.3017 138.454-0.468277 138.454-35.2697C138.454-70.0711 109.579-98.8411 74.7774-98.8411C40.0011-98.8411 11.2588-70.0711 11.2588-35.2697C11.2588-0.468277 40.0538 28.3017 74.8301 28.3017ZM43.057-20.4124C41.489-21.9251 41.5141-24.5509 43.2404-26.3576L69.4202-53.8365C72.8677-57.5227 76.8705-57.5503 80.3732-53.8365L106.525-26.3576C108.252-24.5509 108.277-21.9251 106.736-20.4124C105.013-18.6083 102.332-18.6083 100.739-20.3345L74.8829-47.4365L49.0273-20.3345C47.4342-18.6083 44.7531-18.6083 43.057-20.4124Z"/>
  </g>
  <g id="Light-L" transform="matrix(1 0 0 1 1079.2 1556)">
   <path d="M73.9141 27.3856C108.257 27.3856 136.603-0.926323 136.603-35.2697C136.603-69.6131 108.224-97.925 73.8804-97.925C39.5239-97.925 11.2588-69.6131 11.2588-35.2697C11.2588-0.926323 39.5576 27.3856 73.9141 27.3856ZM42.5799-20.8705C41.3173-22.0396 41.3042-24.0356 42.6679-25.4797L69.821-53.6075C72.4287-56.3966 75.42-56.4434 78.1212-53.6075L105.228-25.4797C106.591-24.0356 106.578-22.0396 105.362-20.8705C104.058-19.4862 101.969-19.4862 100.719-20.8498L73.9477-48.5625L47.176-20.8498C45.9265-19.4862 43.837-19.4862 42.5799-20.8705Z"/>
  </g>
  <g id="Thin-L" transform="matrix(1 0 0 1 783.716 1556)">
   <path d="M72.7024 26.174C106.44 26.174 134.155-1.53213 134.155-35.2697C134.155-69.0073 106.432-96.7134 72.694-96.7134C38.8929-96.7134 11.2588-69.0073 11.2588-35.2697C11.2588-1.53213 38.9013 26.174 72.7024 26.174ZM41.9488-21.4763C41.0901-22.1911 41.0265-23.3541 41.9106-24.3186L70.3511-53.3046C71.8482-54.9074 73.5016-54.9794 75.1426-53.3046L103.511-24.3186C104.395-23.3541 104.332-22.1911 103.545-21.4763C102.796-20.6473 101.489-20.6473 100.694-21.5314L72.7109-50.0518L44.7276-21.5314C43.9324-20.6473 42.6254-20.6473 41.9488-21.4763Z"/>
  </g>
  <g id="Ultralight-L" transform="matrix(1 0 0 1 487.631 1556)">
   <path d="M72.0819 25.5534C105.509 25.5534 132.9-1.84242 132.9-35.2697C132.9-68.697 105.514-96.0928 72.0864-96.0928C38.5697-96.0928 11.2588-68.697 11.2588-35.2697C11.2588-1.84242 38.5652 25.5534 72.0819 25.5534ZM41.6256-21.7866C40.9737-22.2686 40.8843-23.005 41.5227-23.7238L70.6226-53.1494C71.5508-54.1446 72.519-54.2295 73.617-53.1494L102.632-23.7238C103.27-23.005 103.181-22.2686 102.614-21.7866C102.15-21.242 101.244-21.242 100.681-21.8805L72.0774-50.8145L43.4735-21.8805C42.911-21.242 42.0048-21.242 41.6256-21.7866Z"/>
  </g>
  <g id="Black-M" transform="matrix(1 0 0 1 2871.36 1126)">
   <path d="M62.0422 18.116C91.4096 18.116 115.367-5.83621 115.367-35.2035C115.367-64.5709 91.4041-88.5231 62.0367-88.5231C32.6752-88.5231 8.72266-64.5709 8.72266-35.2035C8.72266-5.83621 32.6807 18.116 62.0422 18.116ZM36.6415-22.3726C34.28-24.6205 34.2857-28.7986 36.7779-31.4673L54.8114-50.8763C58.6659-55.038 65.4298-55.0948 69.2838-50.9334L87.3176-31.5244C89.8097-28.8557 89.8155-24.6205 87.4537-22.3726C84.67-19.755 80.5495-19.755 78.0681-22.4184L62.0477-39.6946L46.0274-22.4184C43.5459-19.755 39.4254-19.755 36.6415-22.3726Z"/>
  </g>
  <g id="Heavy-M" transform="matrix(1 0 0 1 2575.48 1126)">
   <path d="M61.2053 17.2657C90.0667 17.2657 113.704-6.35571 113.704-35.217C113.704-64.0783 90.0502-87.6997 61.1889-87.6997C32.3418-87.6997 8.72266-64.0783 8.72266-35.217C8.72266-6.35571 32.3582 17.2657 61.2053 17.2657ZM35.9307-22.6361C33.7988-24.6762 33.8129-28.4331 36.0813-30.8511L54.5147-50.6165C58.2028-54.5907 64.2384-54.6366 67.9311-50.6601L86.3622-30.8947C88.6306-28.4768 88.6447-24.6762 86.515-22.6361C84.0167-20.2499 80.2988-20.2499 78.0655-22.6492L61.2218-40.7213L44.378-22.6492C42.1447-20.2499 38.4268-20.2499 35.9307-22.6361Z"/>
  </g>
  <g id="Bold-M" transform="matrix(1 0 0 1 2279.69 1126)">
   <path d="M60.2692 16.3144C88.5644 16.3144 111.844-6.93686 111.844-35.2321C111.844-63.5273 88.5358-86.7786 60.2405-86.7786C31.9688-86.7786 8.72266-63.5273 8.72266-35.2321C8.72266-6.93686 31.9974 16.3144 60.2692 16.3144ZM35.1357-22.9308C33.2606-24.7386 33.2841-28.0243 35.3022-30.1618L54.1829-50.326C57.6848-54.0903 62.9056-54.124 66.4178-50.3545L85.2934-30.1904C87.3115-28.0529 87.335-24.7386 85.465-22.9308C83.2858-20.8035 80.0184-20.8035 78.0626-22.9073L60.2978-41.8698L42.5329-22.9073C40.5772-20.8035 37.3098-20.8035 35.1357-22.9308Z"/>
  </g>
  <g id="Semibold-M" transform="matrix(1 0 0 1 1983.62 1126)">
   <path d="M59.6238 15.6586C87.5288 15.6586 110.562-7.33749 110.562-35.2425C110.562-63.1475 87.4917-86.1436 59.5867-86.1436C31.7117-86.1436 8.72266-63.1475 8.72266-35.2425C8.72266-7.33749 31.7487 15.6586 59.6238 15.6586ZM34.5876-23.134C32.8895-24.7816 32.9194-27.7425 34.765-29.6866L53.9541-50.1256C57.3278-53.7453 61.9868-53.7706 65.3746-50.1438L84.5566-29.7048C86.4022-27.7606 86.4321-24.7816 84.7411-23.134C82.7819-21.1852 79.825-21.1852 78.0607-23.0852L59.6608-42.6616L41.2609-23.0852C39.4966-21.1852 36.5397-21.1852 34.5876-23.134Z"/>
  </g>
  <g id="Medium-M" transform="matrix(1 0 0 1 1687.4 1126)">
   <path d="M59.1344 15.1614C86.7435 15.1614 109.59-7.64127 109.59-35.2504C109.59-62.8595 86.7001-85.6621 59.091-85.6621C31.5167-85.6621 8.72266-62.8595 8.72266-35.2504C8.72266-7.64127 31.5601 15.1614 59.1344 15.1614ZM34.172-23.2881C32.6082-24.8142 32.643-27.5287 34.3577-29.3263L53.7806-49.9738C57.057-53.4838 61.2901-53.5027 64.5836-49.984L83.9979-29.3366C85.7127-27.539 85.7475-24.8142 84.1922-23.2881C82.3999-21.4746 79.6784-21.4746 78.0592-23.2201L59.1778-43.262L40.2965-23.2201C38.6772-21.4746 35.9558-21.4746 34.172-23.2881Z"/>
  </g>
  <g id="Regular-M" transform="matrix(1 0 0 1 1391.32 1126)">
   <path d="M58.4961 14.5128C85.7192 14.5128 108.321-8.0375 108.321-35.2606C108.321-62.4838 85.6675-85.0341 58.4443-85.0341C31.2624-85.0341 8.72266-62.4838 8.72266-35.2606C8.72266-8.0375 31.3141 14.5128 58.4961 14.5128ZM33.63-23.4891C32.2412-24.8568 32.2824-27.25 33.8264-28.8564L53.5544-49.7756C56.7038-53.1426 60.3813-53.1532 63.5519-49.7756L83.2692-28.8564C84.8133-27.25 84.8545-24.8568 83.4763-23.4891C81.9015-21.852 79.4872-21.852 78.0572-23.3961L58.5478-44.0451L39.0385-23.3961C37.6085-21.852 35.1941-21.852 33.63-23.4891Z"/>
  </g>
  <g id="Light-M" transform="matrix(1 0 0 1 1095.44 1126)">
   <path d="M57.6748 13.6915C84.4872 13.6915 106.662-8.44816 106.662-35.2606C106.662-62.0731 84.4526-84.2128 57.6401-84.2128C30.8346-84.2128 8.72266-62.0731 8.72266-35.2606C8.72266-8.44816 30.8693 13.6915 57.6748 13.6915ZM33.2022-23.8997C32.0872-24.9594 32.0942-26.788 33.3131-28.0692L53.9137-49.5703C56.3103-52.1331 59.0809-52.1607 61.5328-49.5703L82.1057-28.0692C83.3247-26.788 83.3316-24.9594 82.2443-23.8997C81.046-22.6392 79.1621-22.6392 78.0401-23.8581L57.7094-45.0546L37.3787-23.8581C36.2567-22.6392 34.3728-22.6392 33.2022-23.8997Z"/>
  </g>
  <g id="Thin-M" transform="matrix(1 0 0 1 799.828 1126)">
   <path d="M56.5885 12.6052C82.8578 12.6052 104.466-8.9913 104.466-35.2606C104.466-61.53 82.8458-83.1265 56.5765-83.1265C30.2689-83.1265 8.72266-61.53 8.72266-35.2606C8.72266-8.9913 30.2809 12.6052 56.5885 12.6052ZM32.6364-24.4429C31.8835-25.0952 31.8452-26.177 32.6342-27.0282L54.389-49.2987C55.7898-50.7979 57.361-50.8482 58.8624-49.2987L80.5668-27.0282C81.3558-26.177 81.3175-25.0952 80.6149-24.4429C79.9145-23.6802 78.7321-23.6802 78.0175-24.4691L56.6005-46.3898L35.1835-24.4691C34.4689-23.6802 33.2865-23.6802 32.6364-24.4429Z"/>
  </g>
  <g id="Ultralight-M" transform="matrix(1 0 0 1 503.679 1126)">
   <path d="M56.0321 12.0488C82.0233 12.0488 103.342-9.26949 103.342-35.2606C103.342-61.2518 82.0228-82.5701 56.0317-82.5701C29.9791-82.5701 8.72266-61.2518 8.72266-35.2606C8.72266-9.26949 29.9795 12.0488 56.0321 12.0488ZM32.3467-24.7211C31.7792-25.1648 31.7177-25.864 32.2865-26.495L54.6324-49.1596C55.5232-50.114 56.48-50.1759 57.4946-49.1596L79.7786-26.495C80.3474-25.864 80.2859-25.1648 79.7803-24.7211C79.3349-24.2134 78.5119-24.2134 78.0059-24.7821L56.0325-47.0737L34.0592-24.7821C33.5532-24.2134 32.7302-24.2134 32.3467-24.7211Z"/>
  </g>
  <g id="Black-S" transform="matrix(1 0 0 1 2884.57 696)">
   <path d="M48.8281 6.78711C71.9727 6.78711 90.8203-12.0605 90.8203-35.2051C90.8203-58.3496 71.9727-77.1973 48.8281-77.1973C25.6836-77.1973 6.83594-58.3496 6.83594-35.2051C6.83594-12.0605 25.6836 6.78711 48.8281 6.78711ZM28.9062-25.0977C27.002-26.9043 27.002-30.2734 29.0039-32.4219L43.0664-47.5586C46.0938-50.8301 51.5625-50.8789 54.5898-47.6074L68.6523-32.4707C70.6543-30.3223 70.6543-26.9043 68.75-25.0977C66.5039-22.998 63.1836-22.998 61.1816-25.1465L48.8281-38.4766L36.4746-25.1465C34.4727-22.998 31.1523-22.998 28.9062-25.0977Z"/>
  </g>
  <g id="Heavy-S" transform="matrix(1 0 0 1 2588.47 696)">
   <path d="M48.2173 6.16479C70.9816 6.16479 89.6102-12.4524 89.6102-35.2166C89.6102-57.9808 70.97-76.598 48.2058-76.598C25.4531-76.598 6.83594-57.9808 6.83594-35.2166C6.83594-12.4524 25.4646 6.16479 48.2173 6.16479ZM28.3531-25.2705C26.6101-26.9389 26.6216-30.0199 28.4738-31.9955L42.7668-47.3627C45.748-50.5765 50.7097-50.6138 53.6909-47.4L67.9839-32.0328C69.8361-30.0572 69.8476-26.9389 68.1046-25.2705C66.0545-23.3207 63.0107-23.3207 61.1816-25.2848L48.2289-39.2257L35.2761-25.2848C33.447-23.3207 30.4033-23.3207 28.3531-25.2705Z"/>
  </g>
  <g id="Bold-S" transform="matrix(1 0 0 1 2292.43 696)">
   <path d="M47.5342 5.46875C69.873 5.46875 88.2568-12.8906 88.2568-35.2295C88.2568-57.5684 69.8486-75.9277 47.5098-75.9277C25.1953-75.9277 6.83594-57.5684 6.83594-35.2295C6.83594-12.8906 25.2197 5.46875 47.5342 5.46875ZM27.7344-25.4639C26.1719-26.9775 26.1963-29.7363 27.8809-31.5186L42.4316-47.1436C45.3613-50.293 49.7559-50.3174 52.6855-47.168L67.2363-31.543C68.9209-29.7607 68.9453-26.9775 67.3828-25.4639C65.5518-23.6816 62.8174-23.6816 61.1816-25.4395L47.5586-40.0635L33.9355-25.4395C32.2998-23.6816 29.5654-23.6816 27.7344-25.4639Z"/>
  </g>
  <g id="Semibold-S" transform="matrix(1 0 0 1 1996.19 696)">
   <path d="M47.0632 4.98887C69.1088 4.98887 87.3237-13.1928 87.3237-35.2384C87.3237-57.284 69.0755-75.4656 47.0299-75.4656C25.0176-75.4656 6.83594-57.284 6.83594-35.2384C6.83594-13.1928 25.0509 4.98887 47.0632 4.98887ZM27.3078-25.5972C25.8697-27.0042 25.903-29.5408 27.4721-31.1897L42.2006-46.9925C45.0947-50.0975 49.0982-50.113 51.9924-47.008L66.7209-31.2053C68.2899-29.5563 68.3232-27.0042 66.8852-25.5972C65.2052-23.9305 62.6841-23.9305 61.1816-25.5461L47.0965-40.6411L33.0113-25.5461C31.5089-23.9305 28.9878-23.9305 27.3078-25.5972Z"/>
  </g>
  <g id="Medium-S" transform="matrix(1 0 0 1 1699.83 696)">
   <path d="M46.7061 4.625C68.5293 4.625 86.6162-13.4219 86.6162-35.2451C86.6162-57.0684 68.4893-75.1152 46.666-75.1152C24.8828-75.1152 6.83594-57.0684 6.83594-35.2451C6.83594-13.4219 24.9229 4.625 46.7061 4.625ZM26.9844-25.6982C25.6406-27.0244 25.6807-29.3926 27.1621-30.9404L42.0254-46.8779C44.8926-49.9492 48.5996-49.958 51.4668-46.8867L66.3301-30.9492C67.8115-29.4014 67.8516-27.0244 66.5078-25.6982C64.9424-24.1191 62.583-24.1191 61.1816-25.627L46.7461-41.0791L32.3105-25.627C30.9092-24.1191 28.5498-24.1191 26.9844-25.6982Z"/>
  </g>
  <g id="Regular-S" transform="matrix(1 0 0 1 1403.58 696)">
   <path d="M46.2402 4.15039C67.7734 4.15039 85.6934-13.7207 85.6934-35.2539C85.6934-56.7871 67.7246-74.6582 46.1914-74.6582C24.707-74.6582 6.83594-56.7871 6.83594-35.2539C6.83594-13.7207 24.7559 4.15039 46.2402 4.15039ZM26.5625-25.8301C25.3418-27.0508 25.3906-29.1992 26.7578-30.6152L41.7969-46.7285C44.6289-49.7559 47.9492-49.7559 50.7812-46.7285L65.8203-30.6152C67.1875-29.1992 67.2363-27.0508 66.0156-25.8301C64.5996-24.3652 62.4512-24.3652 61.1816-25.7324L46.2891-41.6504L31.3965-25.7324C30.127-24.3652 27.9785-24.3652 26.5625-25.8301Z"/>
  </g>
  <g id="Light-S" transform="matrix(1 0 0 1 1107.6 696)">
   <path d="M45.5137 3.42383C66.6836 3.42383 84.2251-14.084 84.2251-35.2539C84.2251-56.4238 66.6499-73.9316 45.48-73.9316C24.3286-73.9316 6.83594-56.4238 6.83594-35.2539C6.83594-14.084 24.3623 3.42383 45.5137 3.42383ZM26.1841-26.1934C25.2056-27.1416 25.2241-28.7905 26.3037-29.919L42.1147-46.5469C44.2808-48.8628 46.7988-48.8779 48.9951-46.5469L64.791-29.919C65.8706-28.7905 65.8892-27.1416 64.9258-26.1934C63.8428-25.0615 62.1636-25.0615 61.1665-26.1411L45.5474-42.5434L29.9282-26.1411C28.9312-25.0615 27.252-25.0615 26.1841-26.1934Z"/>
  </g>
  <g id="Thin-S" transform="matrix(1 0 0 1 811.863 696)">
   <path d="M44.5527 2.4629C65.2422 2.4629 82.2832-14.5644 82.2832-35.2539C82.2832-55.9434 65.2285-72.9707 44.5391-72.9707C23.8281-72.9707 6.83594-55.9434 6.83594-35.2539C6.83594-14.5644 23.8418 2.4629 44.5527 2.4629ZM25.6836-26.6738C25.0254-27.2617 25.0039-28.25 25.7031-28.9981L42.5352-46.3066C43.8203-47.6817 45.2774-47.7168 46.6328-46.3066L63.4297-28.9981C64.1289-28.25 64.1074-27.2617 63.4844-26.6738C62.8418-25.9824 61.7832-25.9824 61.1465-26.6816L44.5664-43.7246L27.9864-26.6816C27.3496-25.9824 26.291-25.9824 25.6836-26.6738Z"/>
  </g>
  <g id="Ultralight-S" transform="matrix(1 0 0 1 515.649 696)">
   <path d="M44.0606 1.97072C64.5039 1.97072 81.2886-14.8105 81.2886-35.2539C81.2886-55.6973 64.5005-72.4785 44.0571-72.4785C23.5718-72.4785 6.83594-55.6973 6.83594-35.2539C6.83594-14.8105 23.5752 1.97072 44.0606 1.97072ZM25.4273-26.9199C24.9331-27.3232 24.8911-27.9732 25.3955-28.5264L42.7505-46.1836C43.5845-47.0767 44.4981-47.1221 45.4229-46.1836L62.7324-28.5264C63.2368-27.9732 63.1949-27.3232 62.7461-26.9199C62.3291-26.4541 61.5884-26.4541 61.1362-26.9585L44.064-44.3296L26.9917-26.9585C26.5396-26.4541 25.7988-26.4541 25.4273-26.9199Z"/>
  </g>
 </g>
</svg>
